<svg xmlns="http://www.w3.org/2000/svg"><symbol id="shape-icon-check" viewBox="0 0 512 512"><path d="M432 64L192 304 80 192 0 272l192 192 320-320-80-80z"/></symbol><symbol id="shape-icon-logo-bouygues" viewBox="0.834 3 860.484 266.081"><g fill="#009BCD"><path d="M122.074 95.284c-6.446-7.517-15.753-9.481-23.369-9.489-7.615-.008-16.923 1.972-23.367 9.489-6.435 7.493-7.359 17.375-7.359 27.015 0 9.642.925 20.861 7.359 28.357 6.444 7.514 15.753 9.494 23.367 9.484 7.615-.008 16.923-1.973 23.369-9.484 6.435-7.496 7.359-18.129 7.359-28.357s-.925-19.523-7.359-27.015zm-8.319 47.732c-3.644 4.616-9.18 6.42-15.051 6.42s-11.406-1.804-15.05-6.42c-3.675-4.656-4.113-12.406-4.113-20.717 0-8.312.438-14.721 4.113-19.377 3.644-4.618 9.179-6.406 15.05-6.406s11.407 1.789 15.051 6.406c3.675 4.657 4.113 11.075 4.113 19.377.001 8.303-.438 16.058-4.113 20.717zM193.006 93.082a5.61 5.61 0 1 0-11.221 0l-.009 52.727c0 .955-.699 1.83-1.422 2.127-.723.295-3.832 1.51-14.425 1.51-5.313 0-10.944-2.121-14.391-6.676-3.475-4.598-3.894-12.602-3.894-20.792l-.001-28.895a5.61 5.61 0 1 0-11.22 0l-.004 28.873c0 10.09.637 20.928 7.192 28.861 5.727 6.931 15.314 9.358 22.318 9.358 4.443 0 14.167.31 22.929-2.95 2.411-.808 4.132-3.938 4.132-6.621l.016-57.522zM387.63 93.082a5.61 5.61 0 1 0-11.221 0l-.009 52.727c0 .955-.699 1.83-1.422 2.127-.723.295-3.833 1.51-14.425 1.51-5.313 0-10.944-2.121-14.391-6.676-3.475-4.598-3.894-12.602-3.894-20.792l-.001-28.895a5.61 5.61 0 1 0-11.22 0l-.004 28.873c0 10.09.637 20.928 7.192 28.861 5.728 6.931 15.314 9.358 22.318 9.358 4.443 0 14.167.31 22.929-2.95 2.411-.808 4.132-3.938 4.132-6.621l.016-57.522zM322.336 96.017a6.085 6.085 0 0 0-3.537-5.528c-9.48-4.073-20.232-4.671-25.097-4.671-7.402 0-16.923 1.923-23.366 9.339-6.435 7.392-7.359 18.699-7.359 28.79 0 10.091.925 19.39 7.359 26.783 6.443 7.416 15.729 9.42 23.366 9.42 7.029 0 14.785-3.15 17.238-5.814v9.639c0 5.176-1.235 9.26-3.723 12.131-2.459 2.842-5.952 4.283-10.379 4.283-2.924 0-5.947-.387-8.991-1.135-3.026-.746-8.158-3.189-9.978-4.064-1.818-.875-5.187-.203-6.716 2.26-1.528 2.461-.512 6.137 1.896 7.459 2.406 1.324 5.464 3.133 11.876 4.787 4.091 1.055 8.1 1.549 11.912 1.549 4.183 0 7.918-.672 11.103-2.08 3.187-1.404 5.873-3.346 7.983-5.764 2.104-2.408 3.719-5.342 4.797-8.703 1.071-3.334 1.615-6.947 1.615-10.723l.001-67.958zm-11.542 40.837c0 4.043-1.704 6.765-3.613 8.562-2.357 2.211-7.605 4.024-13.478 4.024-5.871 0-11.405-1.688-15.049-6.246-3.676-4.594-4.114-11.056-4.114-19.249 0-8.192.438-16.661 4.114-21.255 3.644-4.556 9.3-6.187 15.049-6.187 4.459 0 10.53.967 15.594 2.752a2.234 2.234 0 0 1 1.498 2.11l-.001 35.489zM503.009 100.794a5.055 5.055 0 0 0 6.291-4.905c.002-.063-.004-.125-.004-.188 0-1.627-1.025-4.03-3.008-5.26-4.885-3.382-12.338-4.65-18.826-4.65-6.496 0-13.363 1.642-17.633 4.879-4.316 3.279-6.506 7.903-6.506 13.741 0 10.701 7.912 18.479 23.52 21.7 6.896 1.445 14.41 4.993 14.41 11.135 0 3.102-1.477 6.469-3.984 8.285-4.021 2.924-9.832 3.506-12.689 3.525-3.77.031-9.684-.789-14.668-3.582a7.641 7.641 0 0 0-.688-.406 5.372 5.372 0 0 0-2.592-.66c-2.984 0-5.404 2.426-5.404 5.424a5.42 5.42 0 0 0 1.172 3.373 6.098 6.098 0 0 0 1.668 1.564c6.738 4.664 16.334 5.367 20.697 5.367 4.121 0 8.119-.852 12.533-2.219 3.17-.984 5.918-2.418 8.176-4.271a20.065 20.065 0 0 0 5.324-6.744c1.277-2.627 2.189-6.523 2.189-9.656 0-14.354-12.742-20.029-23.865-22.197-9.449-1.961-14.236-6.017-14.236-10.639 0-1.338.332-2.505.988-3.474a7.501 7.501 0 0 1 2.584-2.354c1.066-.587 2.318-1.021 3.715-1.293 1.43-.272 3.021-.423 5.289-.414 3.201.013 10.01 1.459 12.949 2.912.823.407 1.704.786 2.598 1.007zM52.832 95.156c-6.444-7.416-15.729-9.361-23.366-9.361-7.028 0-14.783 3.089-17.238 5.758V57.915a5.69 5.69 0 1 0-11.378 0l-.016 91.842a6.377 6.377 0 0 0 4.076 5.947c9.344 3.869 19.785 4.435 24.557 4.435 7.405 0 16.922-1.899 23.366-9.313 6.437-7.396 7.361-17.75 7.361-27.841-.001-10.093-.926-20.437-7.362-27.829zm-8.317 48.13c-3.645 4.555-9.301 6.164-15.051 6.164-4.489 0-10.612-.951-15.697-2.759h.004a2.021 2.021 0 0 1-1.396-1.922v-35.738c0-4.041 1.703-6.765 3.611-8.558 2.358-2.213 7.606-3.946 13.479-3.946s11.406 1.608 15.051 6.164c3.675 4.594 4.112 12.1 4.112 20.292 0 8.191-.438 15.708-4.113 20.303zM232.81 140.866a1.887 1.887 0 0 1-1.707 1.086c-.878-.009-1.514-.927-1.751-1.267-1.785-2.556-15.728-41.203-18.75-49.601-1.055-2.845-4.261-4.317-7.102-3.268-2.833 1.047-4.312 4.237-3.277 7.081l18.123 48.064c2.126 5.685 5.188 8.906 9.683 10.521l-11.016 29.179a5.57 5.57 0 0 0 3.231 7.183 5.57 5.57 0 0 0 7.184-3.229l34.708-91.675c1.053-2.835-.394-6.028-3.199-7.103-2.83-1.084-6.066.36-7.151 3.211l-18.976 49.818zM450.568 95.156c-8.07-9.46-21.037-9.375-23.689-9.36-2.455.014-15.282.076-23.047 9.36-3.517 4.206-4.91 8.814-5.875 12.88-1.212 5.114-1.37 9.833-1.37 14.89 0 9.512.812 20.458 7.246 27.854 6.444 7.414 15.754 9.361 23.368 9.361 8.416 0 17.572-.697 24.308-5.347 1.312-.812 2.215-2.135 2.662-3.405a5.23 5.23 0 0 0-4.888-7.09c-.674 0-1.309.146-1.908.357-.338.118-.766.377-1.709.879-4.977 2.782-9.727 4.073-18.462 3.873-5.871 0-11.406-1.607-15.05-6.164-3.403-4.254-3.916-11.02-3.991-18.504h43.853a5.945 5.945 0 0 0 5.945-5.944c-.001-16.002-7.393-23.64-7.393-23.64zm-42.119 19.371c-.023-1.199-.176-9.559 6.669-14.674 4.182-3.124 8.75-3.332 11.538-3.332 2.789 0 8.06-.109 12.693 3.406 6.846 5.196 6.91 13.439 6.889 14.6h-37.789z"/></g><path fill="#EB5B00" d="M729.599 264.458c22.773 15.728 67.834-9.969 100.637-57.481 32.809-47.511 40.938-98.719 18.166-114.443-22.777-15.727-66.701 8.657-99.51 56.171-32.803 47.507-42.06 100.025-19.293 115.753z"/><path fill="#0053A5" d="M672.794 264.458c-22.773 15.728-67.834-9.969-100.639-57.481-32.807-47.511-40.938-98.719-18.166-114.443 22.779-15.727 66.703 8.657 99.512 56.171 32.803 47.507 42.061 100.025 19.293 115.753z"/><ellipse fill="#009BCD" cx="701.179" cy="53.042" rx="104.645" ry="50.042"/><g><path fill="#009BCD" d="M338.508 190.202h-1.339c-.489 0-.883-.351-.883-.791V175.89h-4.359c-.488 0-.884-.354-.884-.789v-1.262c0-.434.396-.781.884-.781h11.845c.488 0 .886.35.886.781v1.264c0 .436-.397.789-.886.789h-4.381v13.52c0 .44-.397.79-.883.79zM397.865 190.202h-10.677c-.493 0-.883-.351-.883-.791v-15.57c0-.434.39-.782.883-.782h1.333c.495 0 .891.351.891.782v13.527h8.454c.488 0 .891.351.891.784v1.259c-.003.441-.404.791-.892.791zM423.29 190.202h-10.675c-.487 0-.885-.351-.885-.791v-15.57c0-.434.396-.782.885-.782h10.676c.491 0 .892.351.892.782v1.263c0 .437-.398.789-.892.789h-8.453v4.278h7.065c.496 0 .888.353.888.777v1.202c0 .431-.392.779-.888.779h-7.065v4.438h8.453c.491 0 .892.351.892.784v1.259c-.002.442-.401.792-.893.792zM370.117 190.202H359.44c-.488 0-.881-.351-.881-.791v-15.57c0-.434.394-.782.881-.782h10.677c.493 0 .891.351.891.782v1.263c0 .437-.397.789-.891.789h-8.455v4.278h7.068c.495 0 .885.353.885.777v1.202c0 .431-.391.779-.885.779h-7.068v4.438h8.455c.493 0 .891.351.891.784v1.259c-.001.442-.399.792-.891.792zM508.427 190.202h-1.336c-.488 0-.893-.351-.893-.791v-8.418l-3.635 8.713c-.145.28-.471.465-.818.465h-1.328c-.352 0-.664-.18-.811-.465l-3.742-8.774v8.479c0 .44-.4.791-.881.791h-1.34c-.486 0-.885-.351-.885-.791v-15.57c0-.434.396-.782.885-.782h1.34c.338 0 .656.176.799.459l5.312 12.569 5.186-12.563c.135-.282.459-.465.811-.465h1.336c.488 0 .885.351.885.782v15.57c-.002.441-.395.791-.885.791zM477.791 174.591c-1.355-1.202-3.24-1.805-5.123-1.807-1.881.002-3.768.604-5.125 1.807-1.934 1.709-2.223 3.479-2.223 7.015 0 3.537.289 5.306 2.223 7.013 1.367 1.205 3.18 1.862 5.125 1.862s3.758-.657 5.123-1.862c1.934-1.707 2.221-3.476 2.221-7.013-.003-3.535-.29-5.306-2.221-7.015zm-2.37 12.225c-.713.642-1.732.961-2.756.961-1.021 0-2.041-.319-2.762-.961-1.01-.896-1.416-1.844-1.416-5.213s.406-4.323 1.416-5.211c.725-.64 1.703-.998 2.762-.998s2.041.358 2.756.998c1.02.888 1.422 1.842 1.422 5.211s-.404 4.318-1.422 5.213zM451.478 185.012l-1.381-.22c-.412-.063-.82.142-.973.49-.229.713-.574 1.157-1.061 1.577-.717.64-1.701.998-2.758.998-1.059 0-2.041-.358-2.76-.998-1.014-.889-1.418-1.842-1.418-5.211 0-3.368.404-4.354 1.418-5.241.719-.64 1.701-.998 2.76-.998 1.057 0 2.041.358 2.758.998.484.42.832.862 1.061 1.575.15.354.561.554.973.492l1.381-.218a.934.934 0 0 0 .629-.396.73.73 0 0 0 .08-.688c-.322-.982-.859-1.785-1.758-2.57-1.355-1.205-3.236-1.807-5.121-1.807-1.883 0-3.768.602-5.125 1.807-1.932 1.707-2.221 3.48-2.221 7.014s.289 5.338 2.221 7.035c1.357 1.207 3.242 1.811 5.125 1.811 1.885 0 3.766-.604 5.121-1.811.896-.779 1.436-1.58 1.758-2.562a.732.732 0 0 0-.08-.689.946.946 0 0 0-.629-.388z"/></g><path fill="none" d="M.834 2.04h862v268h-862z"/></symbol></svg>