<svg xmlns="http://www.w3.org/2000/svg"><symbol id="shape-icon-arrow-d" viewBox="0 0 64 64"><path d="M5.85 14.572l-4.032 3.934 30.219 30.978 30.086-31.109-4.05-3.917L32.02 41.395z"/></symbol><symbol id="shape-icon-arrow-l" viewBox="0 0 64 64"><path d="M24.548 31.922L51.484 5.868l-3.917-4.05-31.109 30.086 30.979 30.22 3.933-4.032z"/></symbol><symbol id="shape-icon-arrow-u" viewBox="0 0 64 64"><path d="M58.092 49.37l4.031-3.933-30.219-30.979L1.818 45.567l4.05 3.917 26.053-26.936z"/></symbol><symbol id="shape-icon-back-button" viewBox="0 0 612 612"><path d="M353.812 172.125c-7.478 0-14.21 2.926-19.335 7.612l-.058-.077L219.67 284.848c-5.91 5.451-9.295 13.101-9.295 21.152s3.385 15.701 9.295 21.152L334.42 432.34l.058-.076c5.125 4.686 11.857 7.611 19.335 7.611 15.836 0 28.688-12.852 28.688-28.688 0-8.357-3.634-15.836-9.353-21.076l.058-.076L281.52 306l91.685-84.054-.058-.077c5.719-5.221 9.353-12.68 9.353-21.057 0-15.835-12.852-28.687-28.688-28.687zM306 0C137.012 0 0 137.012 0 306s137.012 306 306 306 306-137.012 306-306S474.988 0 306 0zm0 554.625C168.912 554.625 57.375 443.088 57.375 306S168.912 57.375 306 57.375 554.625 168.912 554.625 306 443.088 554.625 306 554.625z"/></symbol><symbol id="shape-icon-big-arrow-d" viewBox="0 0 33.7 34.3"><path d="M16.8 34.3c.1 0 .2 0 .2-.1.7-.1 1.5-.9 2.7-2.5.1-.2.6-.7 1.3-1.5 3.3-3.9 11.7-13.7 12.4-14.4.5-.5.4-1.3-.3-1.3h-5.9c-1.3 0-1.9-.8-1.9-1.5V1.9c0-.8-.4-1.7-1.3-1.8-.1-.1-.2-.1-.3-.1H10C8.5 0 8.2.9 8.2 2v10.8c0 1.4-.7 1.7-1.6 1.7H.8c-.8 0-1.1.7-.4 1.4.2.2 1.7 1.9 3.6 4.1 3.8 4.4 9.2 10.7 10.2 12 1.2 1.5 1.9 2.3 2.6 2.3"/></symbol><symbol id="shape-icon-big-arrow-u" viewBox="0 0 33.7 34.3"><path d="M16.9 0c-.1 0-.2 0-.2.1-.7.1-1.5.9-2.7 2.5-.1.2-.6.7-1.3 1.5C9.4 8 1 17.8.3 18.5c-.5.5-.4 1.3.3 1.3h5.9c1.3 0 1.9.8 1.9 1.5v11.1c0 .8.4 1.7 1.3 1.8.1.1.2.1.3.1h13.7c1.5 0 1.8-.9 1.8-2V21.5c0-1.4.7-1.7 1.6-1.7h5.8c.8 0 1.1-.7.4-1.4-.2-.2-1.7-1.9-3.6-4.1-3.8-4.4-9.2-10.7-10.2-12C18.3.8 17.6 0 16.9 0"/></symbol><symbol id="shape-icon-cancel" viewBox="0 0 512 512"><path d="M479.8 131.01L376.026 27.164 256 147.19 136.012 27.164 32.201 131.01l120.027 119.952L32.201 370.987l103.811 103.848L256 354.808l120.026 120.027L479.8 370.987 359.81 250.962 479.8 131.01z"/></symbol><symbol id="shape-icon-check" viewBox="0 0 56 41"><title>Rectangle 62</title><path d="M20.927 40.077c.768 0 1.536-.29 2.12-.876L54.166 8.084a2.996 2.996 0 0 0-.002-4.24l-2.828-2.829a3.002 3.002 0 0 0-4.24-.002L20.928 27.178l-12.02-12.02a3.003 3.003 0 0 0-4.244 0l-2.828 2.827a3.004 3.004 0 0 0 0 4.243l16.97 16.97c.584.585 1.352.877 2.12.878z" fill-rule="evenodd"/></symbol><symbol id="shape-icon-close" viewBox="0 0 115.9 115.9"><path d="M69.3 57.9l44.3-44.3c3.1-3.1 3.1-8.2 0-11.3-3.1-3.1-8.2-3.1-11.3 0L57.9 46.6 13.7 2.3C10.6-.8 5.5-.8 2.4 2.3s-3.1 8.2 0 11.3l44.3 44.3-44.4 44.3c-3.1 3.1-3.1 8.2 0 11.3s8.2 3.1 11.3 0l44.3-44.3 44.3 44.3c3.1 3.1 8.2 3.1 11.3 0s3.1-8.2 0-11.3L69.3 57.9z"/></symbol><symbol id="shape-icon-customer-trouble" viewBox="0 0 32 19"><title>icon-serviceclient@1x</title><path d="M7.008 3.416c0 .657.224 1.229.667 1.717.442.484 1.052.728 1.828.728.679 0 1.255-.244 1.732-.728.473-.488.71-1.076.71-1.764 0-.689-.24-1.271-.721-1.736A2.359 2.359 0 0 0 9.502.924c-.789 0-1.398.246-1.836.74a2.538 2.538 0 0 0-.658 1.752m17.57-1.763a2.034 2.034 0 0 0-.454-.375c-.369-.229-.813-.355-1.351-.355-.654 0-1.232.24-1.722.722-.491.482-.739 1.055-.739 1.721 0 .456.145.887.43 1.294.098.142.211.279.344.415.513.522 1.074.785 1.688.785.766 0 1.365-.239 1.796-.72a2.492 2.492 0 0 0 .649-1.726c0-.685-.215-1.272-.641-1.761m-.623 9.982c-.373-.131-.746-.273-1.116-.388a21.741 21.741 0 0 0-4.938-.898 27.1 27.1 0 0 0-1.77-.06c-1.236 0-2.418.084-3.544.248-.981.14-1.921.355-2.837.619-.137.039-.279.068-.414.112-1.037.32-2.073.722-3.113 1.202a34.486 34.486 0 0 0-3.168 1.691c-1.212.721-1.961 1.291-2.254 1.705-.291.416-.434 1.008-.434 1.773 0 .547.15.82.442.82.087 0 .614-.232 1.583-.692.414-.196.867-.396 1.346-.599a45.562 45.562 0 0 1 2.074-.826c1.312-.492 2.865-.922 4.66-1.297a26.109 26.109 0 0 1 3.181-.45c.81-.067 1.634-.106 2.478-.106 1.596 0 3.129.127 4.604.366h.002c.344.058.69.112 1.027.183 1.789.364 3.344.799 4.67 1.297l.117.047c1.271.477 2.375.943 3.3 1.386.959.46 1.487.692 1.584.692.296 0 .442-.273.442-.82 0-.734-.151-1.314-.458-1.74-.306-.426-1.06-1.008-2.265-1.738-.08-.051-.16-.092-.244-.142a28.977 28.977 0 0 0-4.955-2.382"/></symbol><symbol id="shape-icon-home" viewBox="0 0 27.021 23.94"><path d="M3.674 23.336s-.024.604.566.604l6.811-.008.01-5.581s-.096-.92.797-.92h2.826c1.056 0 .991.92.991.92l-.012 5.563h6.667c.749 0 .715-.752.715-.752V12.873l-9.396-8.358-9.975 8.358v10.463z"/><path d="M0 12.095s.847 1.561 2.694 0l11.038-9.338 10.349 9.28c2.138 1.542 2.939 0 2.939 0L13.732 0 0 12.095zM23.83 2.735h-2.662l.011 3.228 2.651 2.249z"/></symbol><symbol id="shape-icon-information" viewBox="0 0 475 475"><path d="M238 0C107 0 0 107 0 238s107 237 238 237 237-106 237-237S369 0 238 0zm0 432c-107 0-194-87-194-194S131 44 238 44s194 87 194 194-87 194-194 194z"/><path d="M270 323l-20 9 26-133c3-14-12-29-28-20l-49 27c-9 5-12 17-7 26s17 12 26 7l12-6-25 127c-2 11 7 23 19 23 3 0 6-1 8-2l53-23c10-4 14-15 10-25s-15-14-25-10zM257 143c15 0 27-12 27-27s-12-27-27-27-27 12-27 27 12 27 27 27z"/></symbol><symbol id="shape-icon-reference" viewBox="0 0 294.842 294.842"><path d="M288.842 0H6a6 6 0 0 0-6 6v282.842a6 6 0 0 0 6 6h240.421a6 6 0 0 0 0-12H12V12h270.842v276.842a6 6 0 0 0 12 0V6a6 6 0 0 0-6-6z"/><path d="M65.815 62.421c-12.683 0-23 10.317-23 23s10.317 23 23 23 23-10.317 23-23-10.317-23-23-23zm0 34c-6.065 0-11-4.935-11-11s4.935-11 11-11 11 4.935 11 11-4.934 11-11 11zM246.815 79.421h-140a6 6 0 0 0 0 12h140a6 6 0 0 0 0-12zM65.815 124.421a6 6 0 0 0 0 12c6.065 0 11 4.935 11 11s-4.935 11-11 11-11-4.935-11-11a6 6 0 0 0-12 0c0 12.683 10.317 23 23 23s23-10.317 23-23-10.317-23-23-23zM246.815 141.421h-140a6 6 0 0 0 0 12h140a6 6 0 0 0 0-12zM65.815 186.421c-12.683 0-23 10.317-23 23s10.317 23 23 23 23-10.317 23-23-10.317-23-23-23zm0 34c-6.065 0-11-4.935-11-11s4.935-11 11-11 11 4.935 11 11-4.934 11-11 11zM246.815 203.421h-140a6 6 0 0 0 0 12h140a6 6 0 0 0 0-12z"/></symbol><symbol id="shape-icon-thin-cancel" viewBox="0 0 117 117"><path d="M1.2 4l98.2 98.2 13.7 13.7c1.8 1.8 4.7-1 2.8-2.8-32.8-32.8-65.5-65.6-98.2-98.3C13.1 10.3 8.6 5.7 4 1.1 2.2-.7-.7 2.1 1.2 4z"/><path d="M4 115.8l98.2-98.2 13.7-13.7c1.8-1.8-1-4.7-2.8-2.8-32.8 32.7-65.5 65.5-98.3 98.2L1.1 113c-1.8 1.8 1.1 4.6 2.9 2.8z"/></symbol><symbol id="shape-icon-thin-check" viewBox="0 0 406.8 281.8"><path d="M385.6 0L146.2 239.4l-125-125L0 135.6l146.2 146.2L406.8 21.2z"/></symbol><symbol id="shape-icon-warning" viewBox="0 0 100 100"><path d="M62.635 2.318a2.002 2.002 0 0 0-1.434-.605H38.799A1.996 1.996 0 0 0 36.8 3.768l1.68 60.798a1.999 1.999 0 0 0 1.999 1.944h19.046a2 2 0 0 0 1.999-1.945L63.2 3.768a1.999 1.999 0 0 0-.565-1.45zM59.485 76.747H40.517a2 2 0 0 0-2 2v17.54a2 2 0 0 0 2 2h18.969a2 2 0 0 0 2-2v-17.54a2.002 2.002 0 0 0-2.001-2z"/></symbol></svg>