<svg xmlns="http://www.w3.org/2000/svg"><defs><linearGradient id="shape-icon-4g-box-a" gradientUnits="userSpaceOnUse" x1="244.4" y1="400.9" x2="244.4" y2="400.9" gradientTransform="translate(0 .2)"><stop offset="0" stop-color="#c12084"/><stop offset=".1" stop-color="#bf2885"/><stop offset=".224" stop-color="#b73c8a"/><stop offset=".36" stop-color="#a95293"/><stop offset=".505" stop-color="#95689e"/><stop offset=".657" stop-color="#767dab"/><stop offset=".815" stop-color="#3393bc"/><stop offset=".975" stop-color="#00a8ce"/><stop offset="1" stop-color="#00add2"/></linearGradient><linearGradient id="shape-icon-4g-box-b" gradientUnits="userSpaceOnUse" x1="203.333" y1="410.1" x2="345.337" y2="410.1" gradientTransform="translate(0 .2)"><stop offset="0" stop-color="#c12084"/><stop offset=".1" stop-color="#bf2885"/><stop offset=".224" stop-color="#b73c8a"/><stop offset=".36" stop-color="#a95293"/><stop offset=".505" stop-color="#95689e"/><stop offset=".657" stop-color="#767dab"/><stop offset=".815" stop-color="#3393bc"/><stop offset=".975" stop-color="#00a8ce"/><stop offset="1" stop-color="#00add2"/></linearGradient><linearGradient id="shape-icon-4g-box-c" gradientUnits="userSpaceOnUse" x1="203.333" y1="444.85" x2="345.337" y2="444.85" gradientTransform="translate(0 .2)"><stop offset="0" stop-color="#c12084"/><stop offset=".1" stop-color="#bf2885"/><stop offset=".224" stop-color="#b73c8a"/><stop offset=".36" stop-color="#a95293"/><stop offset=".505" stop-color="#95689e"/><stop offset=".657" stop-color="#767dab"/><stop offset=".815" stop-color="#3393bc"/><stop offset=".975" stop-color="#00a8ce"/><stop offset="1" stop-color="#00add2"/></linearGradient><linearGradient id="shape-icon-4g-box-d" gradientUnits="userSpaceOnUse" x1="203.333" y1="417.65" x2="466.847" y2="417.65" gradientTransform="translate(0 .2)"><stop offset="0" stop-color="#c12084"/><stop offset=".1" stop-color="#bf2885"/><stop offset=".224" stop-color="#b73c8a"/><stop offset=".36" stop-color="#a95293"/><stop offset=".505" stop-color="#95689e"/><stop offset=".657" stop-color="#767dab"/><stop offset=".815" stop-color="#3393bc"/><stop offset=".975" stop-color="#00a8ce"/><stop offset="1" stop-color="#00add2"/></linearGradient><linearGradient id="shape-icon-4g-box-e" gradientUnits="userSpaceOnUse" x1="203.333" y1="431.25" x2="345.337" y2="431.25" gradientTransform="translate(0 .2)"><stop offset="0" stop-color="#c12084"/><stop offset=".1" stop-color="#bf2885"/><stop offset=".224" stop-color="#b73c8a"/><stop offset=".36" stop-color="#a95293"/><stop offset=".505" stop-color="#95689e"/><stop offset=".657" stop-color="#767dab"/><stop offset=".815" stop-color="#3393bc"/><stop offset=".975" stop-color="#00a8ce"/><stop offset="1" stop-color="#00add2"/></linearGradient><linearGradient id="shape-icon-4g-box-f" gradientUnits="userSpaceOnUse" x1="203.333" y1="421.2" x2="345.337" y2="421.2" gradientTransform="translate(0 .2)"><stop offset="0" stop-color="#c12084"/><stop offset=".1" stop-color="#bf2885"/><stop offset=".224" stop-color="#b73c8a"/><stop offset=".36" stop-color="#a95293"/><stop offset=".505" stop-color="#95689e"/><stop offset=".657" stop-color="#767dab"/><stop offset=".815" stop-color="#3393bc"/><stop offset=".975" stop-color="#00a8ce"/><stop offset="1" stop-color="#00add2"/></linearGradient><linearGradient id="shape-icon-4g-box-g" gradientUnits="userSpaceOnUse" x1="203.333" y1="421" x2="345.337" y2="421" gradientTransform="translate(0 .2)"><stop offset="0" stop-color="#c12084"/><stop offset=".1" stop-color="#bf2885"/><stop offset=".224" stop-color="#b73c8a"/><stop offset=".36" stop-color="#a95293"/><stop offset=".505" stop-color="#95689e"/><stop offset=".657" stop-color="#767dab"/><stop offset=".815" stop-color="#3393bc"/><stop offset=".975" stop-color="#00a8ce"/><stop offset="1" stop-color="#00add2"/></linearGradient><linearGradient id="shape-icon-la-fibre-a" gradientUnits="userSpaceOnUse" x1="159.369" y1="-2827.089" x2="210.149" y2="-2827.089" gradientTransform="matrix(1 0 0 -1 0 -2787.76)"><stop offset="0" stop-color="#fff" stop-opacity="0"/><stop offset="1" stop-color="#105ba0"/></linearGradient><linearGradient id="shape-icon-la-fibre-b" gradientUnits="userSpaceOnUse" x1="167.607" y1="-2806.617" x2="247.873" y2="-2806.617" gradientTransform="matrix(1 0 0 -1 0 -2787.76)"><stop offset="0" stop-color="#fff" stop-opacity="0"/><stop offset="1" stop-color="#105ba0"/></linearGradient><linearGradient id="shape-icon-la-fibre-c" gradientUnits="userSpaceOnUse" x1="108.352" y1="-2795.822" x2="207.843" y2="-2795.822" gradientTransform="matrix(1 0 0 -1 0 -2787.76)"><stop offset="0" stop-color="#fff" stop-opacity="0"/><stop offset="1" stop-color="#105ba0"/></linearGradient><linearGradient id="shape-icon-la-fibre-d" gradientUnits="userSpaceOnUse" x1="136.786" y1="-2816.894" x2="236.276" y2="-2816.894" gradientTransform="matrix(1 0 0 -1 0 -2787.76)"><stop offset="0" stop-color="#fff" stop-opacity="0"/><stop offset="1" stop-color="#105ba0"/></linearGradient></defs><symbol id="shape-icon-4g-box-white" viewBox="0 0 261.32 106.88"><path d="M93.93.41l50 32.31v63.95c0 5.72-3.76 10.21-8.55 10.21H47.65c-4.26 0-7.68-3.55-8.39-8.35h95.86a3.26 3.26 0 0 0 .5-1.86V37.74l-43-27.22-45.16 27.62v6.12l-4.26 6.23-27.2.01 4.71-6.23h18.48V32.48C56.67 21.85 90.46 1.36 91.4.65S92.38 0 92.9 0a1.43 1.43 0 0 1 1.03.41zM45 85.08H17.77l-4.71 6.23h27.23zm-4.59-27.21H13.18l-4.71 6.24H35.7zm-8.47 13.61H4.71L0 77.72h27.23zm48.75-26.91l-4.47 25.34h3.53a2.41 2.41 0 0 1 2.49 3 3.65 3.65 0 0 1-3.54 3h-3.53l-1.51 8.58a3.51 3.51 0 0 1-1.25 2.11 3.45 3.45 0 0 1-2.29.88 2.4 2.4 0 0 1-2-.88 2.48 2.48 0 0 1-.5-2.11l1.51-8.58H52.56a2.43 2.43 0 0 1-2-.85 2.52 2.52 0 0 1-.47-2.14 3.34 3.34 0 0 1 .91-1.78l24.55-28.32a3.8 3.8 0 0 1 1.21-.92 3.34 3.34 0 0 1 1.48-.34 2.51 2.51 0 0 1 1.11.24 2.6 2.6 0 0 1 .85.65 2.25 2.25 0 0 1 .48.95 2.83 2.83 0 0 1 .01 1.17zM73 54.15L59.35 69.91h10.87zm25.4-1.58a19.39 19.39 0 0 1 12.84-5 15.41 15.41 0 0 1 5.42.92 13.16 13.16 0 0 1 4.34 2.68 2.49 2.49 0 0 0 2 .83 3.4 3.4 0 0 0 1.23-.23 3.72 3.72 0 0 0 1.09-.65 3.82 3.82 0 0 0 .81-1 3.51 3.51 0 0 0 .44-1.21 2.37 2.37 0 0 0-.43-2.1 19.21 19.21 0 0 0-13.77-5.37 26.32 26.32 0 0 0-17.43 6.74 27 27 0 0 0-9.57 16.21q-1.73 9.61 3.8 16.33t15.06 6.71a26.34 26.34 0 0 0 15.33-5.11 3.76 3.76 0 0 0 1.33-2.18l2.37-13.46a2.69 2.69 0 0 0 0-1.16 2.48 2.48 0 0 0-2.44-1.88h-11a3.38 3.38 0 0 0-1.25.23 3.81 3.81 0 0 0-1.89 1.62 3.55 3.55 0 0 0-.44 1.19 2.55 2.55 0 0 0 .49 2.17 2.46 2.46 0 0 0 2 .88h7.92l-1.57 8.9a18.82 18.82 0 0 1-9.78 2.73 13.61 13.61 0 0 1-11.1-4.94q-4-4.91-2.8-11.94a19.81 19.81 0 0 1 7.01-11.91zm73.42 31.5a10.86 10.86 0 1 0-10.45-10.84 10.65 10.65 0 0 0 10.45 10.84M161.59 41.3v19.3c2-2.81 6.69-4.86 10.78-4.86a16.5 16.5 0 0 1 16.89 16.9c0 9.67-7.8 18.05-17.45 18.07a17.42 17.42 0 0 1-17.41-17.46V41.3zm92.13 31.93c5 2.8 8.21 8.26 7.51 17h-7c.37-8.4-2.93-13.87-9.21-13.87s-9.47 5.34-9.11 13.87h-7.07c-.61-8.4 2.48-14 7.52-16.93-5.08-3.13-8.19-8.81-7.52-16.91h7c-.39 7.72 3.15 13.86 9.21 13.86s9.62-6 9.11-13.86h7.07c.6 8.37-2.66 14-7.51 16.84m-43.81 10.82a10.91 10.91 0 1 0-10.69-10.9 10.8 10.8 0 0 0 10.69 10.9m-.05-28.47a17.57 17.57 0 1 1-17.53 17.59 17.56 17.56 0 0 1 17.53-17.59"/></symbol><symbol id="shape-icon-4g-box" viewBox="197 356.8 261.3 107"><path d="M6997.5 730.5c5.5-35-2.1-69-24.6-96.7-21.9-26.8-54.9-43-88-50.8-34.5-8.2-71.7-7.2-105.4 3.9-35.8 11.8-65 37.4-83 70.4-28.5 52.3-23.8 116 4.8 167 25.7 46 73.4 90.1 129.3 88.2 3.3-.1 3.3-5.3 0-5.2-38 1.3-71.4-20.1-96.6-47-25.4-27.1-43.2-61.4-49.5-98.1-7.1-41.2 2.7-84.7 26.6-118.8 23.3-33.3 59.7-52.5 99.2-58.7 44.4-7 92.5 2.5 130.2 27 40 26.1 59.4 70.2 52 117.3-.5 3.5 4.5 4.8 5 1.5z"/><path d="M6717.6 874.4c19.9 9.5 39.8 19.2 61 25.4 21.8 6.4 44 7 66.3 3.7 48-7.1 91.3-30.9 119.6-70.7 43-60.5 43-140.8-2.8-199.2-39.2-50.1-105.7-76.4-168.4-65.6-70.5 12.2-124.4 73.1-139.1 141.5-13.9 64.5 8.2 137.1 62.6 176.6 68 49.4 171.1 41.5 220.4-30.3 48.6-70.9 7.5-206.9-88.3-210.8-1.8-.1-3.3 1.4-2.7 2.7.9 1.9.9 2.8 2.7 2.9 90.7 3.7 126.7 129.6 86.5 197.7-48.5 82.1-169 81.1-232.5 18.7-51.8-50.9-59.5-133.5-29.3-197.5 31.9-67.6 103.9-109 178.3-95.7 65.5 11.7 122.3 63 136.5 128.5 8.7 40.4-1.6 82.2-22 117.4-27.9 47.9-78.1 73.2-131.8 79.7-41.1 5-78.2-12.6-114.3-29.8-3.2-1.6-6 3.2-2.7 4.8z"/><path d="M6753.5 779.1c-2.6 1.3-5.4 2.3-8.5 2.9-8.2 1.6-15 .3-20.6-4v1.1c0 .8-.3 1.4-.9 2s-1.3.9-2 .9c-.8 0-1.4-.3-2-.9-.6-.6-.9-1.3-.9-2V777c-.1-1.5-.7-6.3-1.6-14.3-1-8-1.6-13.5-1.9-16.4s-.8-7.5-1.3-13.7-.9-11.7-1.1-16.6c-.2-4.4-.3-9.2-.2-14.5.1-9.2.3-14.6.5-16.1.5-4 1.4-7 2.6-9.2.7-1.5 1.8-2.6 3.1-3.4 1.5-.9 3.2-1 5-.5 1.2.3 2.1 1.1 2.7 2.4.4.8.8 1.8 1.1 3.1.5 1.7 1 4.2 1.5 7.4.6 4.6 1 8.6 1.1 12.1.2 5 .2 10.5-.1 16.3 7.7-8.1 15.3-10.9 22.8-8.6 4 1.3 7.4 3.9 10.3 7.9s5.1 8.7 6.6 14.2c3.2 11.6 3 22.6-.6 33-2.2 6.3-5.6 11.4-10 15.3 2.5 1 5.5 1.6 9 1.9 3.6.3 6.8-.1 9.3-1.2 2.6-1.1 5.2-3 7.9-5.7.5-.6 1.2-1 2-1s1.5.3 2.1.8.9 1.2.9 2-.3 1.5-.8 2c-3.2 3.4-6.5 5.9-9.9 7.3-3.4 1.4-7.3 1.9-11.8 1.6-5.9-.4-10.7-1.7-14.3-4zm-32.1-101.2c-.1-.1-.2-.2-.2-.3l-.2.2c0 .1.1.2.2.3-.2.2-.5.5-.8 1-.8 1.5-1.3 3.9-1.8 7.2-.2 1.7-.4 6.8-.5 15.3-.1 12.3.8 27.3 2.6 44.9l1-8.4c2-17.6 2.8-31.1 2.4-40.4-.1-3.4-.5-7.3-1.1-11.6-.3-2.8-.7-5-1.1-6.6-.2-.5-.4-1-.5-1.3.2 0 .4-.1.5-.3-.1.2-.3.3-.5.2v-.2zm0 0l-.2.2c0 .1.1.2.2.2v-.4zm27.3 97c-.5-.5-1.1-1.2-1.6-1.9-.5-.5-1.4-1.7-2.7-3.4-1.2-1.7-2.2-2.9-2.7-3.6-.6-.7-1.6-1.6-2.9-2.7-1.3-1.1-2.8-2-4.3-2.7-2-.9-3.9-1.1-5.5-.7-1.6.4-2.9 1.2-3.9 2.5-.2 2.7-.4 5.2-.6 7.6.3.5.7 1.1 1.1 1.6 4.7 4.6 10.8 6.2 18.4 4.6 1.6-.3 3.2-.7 4.7-1.3zm5.1-2.9c4.3-3.2 7.5-7.8 9.6-13.9 3.2-9.3 3.4-19.2.4-29.6-1.3-4.7-3.1-8.7-5.5-11.9-2.3-3.1-4.8-5.1-7.6-6.1-6.7-2-13.9 2.3-21.7 12.9-.3 3.5-.8 8.6-1.6 15.3-1 8.3-1.5 13.6-1.8 16.1 3.5-1.5 7.3-1.3 11.3.6 1.8.9 3.6 2 5.2 3.4 1.7 1.4 2.9 2.5 3.6 3.4.8.9 1.8 2.2 3.2 4 1.4 1.8 2.2 2.9 2.4 3.2 1 1 1.8 1.9 2.5 2.6z"/><path d="M6788.7 704.7c-1.9 14-2.5 28.4-1.7 43.3.4 10.2 1.7 17.8 3.7 22.7 1 2.7 2.1 4.5 3.5 5.5 1.2.9 2.6 1.1 4.2.6 2.1-.6 4.2-2.7 6.3-6.3 1.9-3.4 3.6-7.9 5.1-13.5 2.5-9.1 3.9-18 4.5-26.7.2-3.6.4-6.6.5-8.9 0-2.7 0-5.9.1-9.7s.2-6.1.2-7v-1c.1-.2.2-.5.3-.8.5-1.2 1.4-1.7 2.7-1.6.6 0 1.2.2 1.5.5.4.3.6.6.7.8l.2.3.3 1v8.1c0 2.9-.1 6.1-.3 9.7-.1 13.9.6 25.3 2.1 34 1.7 10 4.4 16.4 8.1 19.3 3.9 3.1 9.5 1.6 17.1-4.5.5-.5 1.2-.8 2-.6.8.1 1.5.5 2 1 .5.6.8 1.3.6 2.1-.1.8-.5 1.5-1.1 2-9.8 8.1-17.9 9.6-24.3 4.5-4.7-3.7-8.1-11.4-10.2-22.8-.1-.7-.2-1.6-.3-2.4-.3 1.5-.7 3-1.1 4.3-1.7 6.1-3.6 11.1-5.8 14.8-2.8 5-6 8.1-9.6 9-3.4 1.1-6.5.6-9.3-1.4-2.1-1.6-4-4.2-5.5-7.9-2.2-5.7-3.5-13.9-4.1-24.6-.8-14.6-.2-29.3 1.7-44.3.1-.9.5-1.5 1.1-2s1.4-.7 2.2-.6c.8.1 1.4.5 1.9 1.1.6.6.8 1.3.7 2z"/><path d="M6852.8 766.4c2.7 5.9 6 9.9 9.8 11.9 2.5 1.3 4.9 1.5 7.2.6 3-1.1 6-3.7 8.8-7.9.4-.6 1-1 1.8-1.2s1.5 0 2.2.4c.6.4 1 1 1.2 1.8s0 1.5-.4 2.2c-3.5 5.3-7.4 8.6-11.6 10.2-4.1 1.5-8.1 1.2-12.1-1-3.3-1.7-6.3-4.5-8.9-8.4s-4.5-8.1-5.8-12.7c-3.7-12.3-5.3-26.5-4.9-42.6.3-16 2.6-30.1 6.9-42.3.9-2.5 1.7-4.2 2.4-5.3 1.2-1.6 2.6-2.5 4.2-2.7 1.9-.2 3.8.6 5.5 2.6 1.2 1.5 2 4 2.6 7.4.3 2.8.5 6.3.5 10.6 0 7.5-.6 17-1.7 28.5-1.1 9.8-2.3 19.3-3.8 28.6s-2.8 15.6-3.8 18.8c0 .3 0 .4-.1.5zm1.6-91c0 .1-.1.2-.2.2-.4.6-1 1.9-1.6 3.9-3.7 10.6-5.9 23.1-6.5 37.4-.6 14.3.5 27.3 3.2 38.9 2.1-11.2 3.9-23.8 5.4-37.8 1.2-11.3 1.7-20.5 1.7-27.8 0-4.1-.2-7.3-.5-9.8-.3-2.4-.8-3.8-1.3-4.3 0-.5-.1-.6-.2-.7z"/><path d="M6884.8 766.4c2.7 5.9 6 9.9 9.8 11.9 2.5 1.3 4.9 1.5 7.2.6 3-1.1 6-3.7 8.8-7.9.4-.6 1-1 1.8-1.2s1.5 0 2.2.4c.6.4 1 1 1.2 1.8s0 1.5-.4 2.2c-3.5 5.3-7.4 8.6-11.6 10.2-4.1 1.5-8.1 1.2-12.1-1-3.3-1.7-6.3-4.5-8.9-8.4s-4.5-8.1-5.8-12.7c-3.7-12.3-5.3-26.5-4.9-42.6.3-16 2.6-30.1 6.9-42.3.9-2.5 1.7-4.2 2.4-5.3 1.2-1.6 2.6-2.5 4.2-2.7 1.9-.2 3.8.6 5.5 2.6 1.2 1.5 2 4 2.6 7.4.3 2.8.5 6.3.5 10.6 0 7.5-.6 17-1.7 28.5-1.1 9.8-2.3 19.3-3.8 28.6s-2.8 15.6-3.8 18.8c.1.2 0 .4-.1.5zm1.7-91.1c0 .1-.1.2-.2.2-.4.6-1 1.9-1.6 3.9-3.7 10.6-5.9 23.1-6.5 37.4s.5 27.3 3.2 38.9c2.1-11.2 3.9-23.8 5.4-37.8 1.2-11.3 1.7-20.5 1.7-27.8 0-4.1-.2-7.3-.5-9.8-.3-2.4-.8-3.8-1.3-4.3 0-.4-.1-.6-.2-.7z"/><path d="M6921.2 770.9c3.4 3.4 7.9 5.5 13.5 6.3 4.2.5 8.4.2 12.6-1.1 4.4-1.5 6.3-2.3 9.6-3.9 1.8-.8 6.2-3.1 6.9-3.5.8-.5 2.5-1.8 3-1.2s1.5 2.5 1.5 3.3-.5 1.5-1.2 2c-4.8 3.8-13 7.2-18.1 8.7-5 1.5-10.1 1.9-15.1 1.3-5.3-.6-10-2.5-14.2-5.5-4.2-3.1-7.2-7.3-9-12.5-2.5-7.6-3.4-16-2.7-25 .7-9.1 2.7-17.1 6.2-24.2 1.9-4 4.2-7.2 6.7-9.7 2.8-2.6 5.5-3.9 8.2-3.9 3.3 0 5.8 1.8 7.4 5.3 1.3 3.1 1.8 7.4 1.5 12.9-.9 14.5-6.6 31.5-16.8 50.7zm-3.9-5.3c9.1-17.2 14.1-32.4 14.9-45.7.3-4.6 0-8-1-10.1-.6-1.3-1.3-1.9-2.1-1.9-1.2 0-2.6.8-4.3 2.3-2 1.9-3.9 4.6-5.5 8.1-3.1 6.4-5 13.8-5.6 22.1s.2 15.9 2.4 22.6c.4.8.8 1.7 1.2 2.6z"/><g><path d="M6957.8 778c9.5-4.9 19-10.6 26.2-18.6 7.9-8.8 12.2-19.7 14.1-31.4.6-3.5-4.8-5.1-5.4-1.5-1.8 11.1-5.7 21.5-13.4 29.8-6.8 7.3-15.5 12.3-24.3 16.9-3.3 1.6-.5 6.5 2.8 4.8z"/></g><g><path fill="url(#shape-icon-4g-box-b)" d="M289.9 356.8c-.5 0-.7 0-1.5.7-.9.7-34.7 21.2-52.2 31.8v11.8h-18.5l-4.7 6.2h27.2l4.3-6.2V395l45.2-27.6 43 27.2v58.9c0 1-.3 1.6-.5 1.9h-95.8c.7 4.8 4.1 8.4 8.4 8.4h87.8c4.8 0 8.5-4.5 8.5-10.2v-63.9l-50-32.3c-.5-.4-.8-.6-1.2-.6z"/><path fill="url(#shape-icon-4g-box-c)" d="M242 441.9h-27.3l-4.7 6.3h27.3z"/><path fill="url(#shape-icon-4g-box-d)" d="M237.4 414.7h-27.2l-4.8 6.3 27.3-.1z"/><path fill="url(#shape-icon-4g-box-e)" d="M228.9 428.3h-27.2l-4.7 6.3 27.2-.1z"/><path fill="url(#shape-icon-4g-box-f)" d="M277.6 400.2c-.1-.4-.2-.7-.5-.9-.2-.3-.5-.5-.8-.6-.3-.2-.7-.2-1.1-.2-.5 0-1 .1-1.5.3s-.9.5-1.2.9L248 428c-.5.5-.8 1.1-.9 1.8-.2.9 0 1.6.5 2.1.5.6 1.1.8 2 .8h16.6l-1.5 8.6c-.1.8 0 1.5.5 2.1.5.6 1.1.9 2 .9.8 0 1.6-.3 2.3-.9.7-.6 1.1-1.3 1.2-2.1l1.5-8.6h3.5c.8 0 1.6-.3 2.3-.8.7-.6 1.1-1.3 1.3-2.1.2-.9 0-1.6-.5-2.1-.5-.6-1.1-.8-2-.8h-3.5l4.5-25.3c-.1-.6-.1-1-.2-1.4zm-10.4 26.6h-10.9L270 411l-2.8 15.8z"/><path fill="url(#shape-icon-4g-box-g)" d="M295.4 409.4c3.9-3.3 8.2-5 12.8-5 2 0 3.8.3 5.4.9 1.6.6 3.1 1.5 4.3 2.6.5.6 1.2.9 1.9.9.4 0 .8-.1 1.2-.2.4-.2.8-.4 1.1-.6.3-.3.6-.6.8-1 .2-.4.4-.8.4-1.2.2-.9 0-1.6-.4-2.1-3.8-3.6-8.3-5.4-13.8-5.4-6.3 0-12.1 2.2-17.4 6.7s-8.5 9.9-9.6 16.2c-1.1 6.4.2 11.8 3.9 16.2 3.7 4.5 8.7 6.7 15.1 6.7 5.4 0 10.5-1.7 15.3-5.1.7-.7 1.2-1.4 1.3-2.2l2.4-13.5c.1-.4.1-.8 0-1.2-.1-.4-.3-.7-.5-1-.2-.3-.5-.5-.8-.7s-.7-.2-1.1-.2h-11c-.4 0-.9.1-1.2.2-.4.2-.8.4-1.1.6-.3.3-.6.6-.8 1-.2.4-.4.8-.4 1.2-.2.9 0 1.6.5 2.2s1.2.9 2 .9h7.9l-1.6 8.9c-3.1 1.8-6.3 2.7-9.8 2.7-4.7 0-8.4-1.6-11.1-4.9s-3.6-7.2-2.8-11.9c.9-4.4 3.2-8.4 7.1-11.7z"/></g><path fill="#00ADD2" d="M368.8 440.9c-5.8 0-10.4-4.8-10.5-10.8 0-6 4.7-10.9 10.4-10.9 5.8 0 10.4 4.8 10.4 10.8.1 6-4.5 10.9-10.3 10.9m-17.4-42.8v32c0 9.7 7.8 17.5 17.4 17.5 9.7 0 17.5-8.4 17.4-18.1 0-9.7-7.2-16.9-16.9-16.9-4.1 0-8.7 2.1-10.8 4.9v-19.3h-7.1v-.1zM450.7 430.1c4.8-2.8 8.1-8.5 7.5-16.8h-7.1c.5 7.8-3.1 13.9-9.1 13.9-6.1 0-9.6-6.1-9.2-13.9h-7c-.7 8.1 2.4 13.8 7.5 16.9-5 3-8.1 8.5-7.5 16.9h7.1c-.4-8.5 2.8-13.9 9.1-13.9s9.6 5.5 9.2 13.9h7c.7-8.8-2.5-14.2-7.5-17M406.9 440.9c-5.9 0-10.7-4.9-10.7-10.9s4.8-10.9 10.6-10.9c5.9 0 10.7 4.8 10.7 10.9 0 6-4.7 10.9-10.6 10.9m-.1-28.5c-9.7 0-17.5 7.9-17.5 17.6s7.9 17.6 17.6 17.5c9.7 0 17.5-7.9 17.5-17.6 0-9.6-7.9-17.5-17.6-17.5"/></symbol><symbol id="shape-icon-arrow-d" viewBox="0 0 64 64"><path d="M5.85 14.572l-4.032 3.934 30.219 30.978 30.086-31.109-4.05-3.917L32.02 41.395z"/></symbol><symbol id="shape-icon-bbox-fit-color" viewBox="0 0 261.7 56.3"><path fill="#009DCC" d="M228.6 10c2.6 0 4.7-2.1 4.7-4.7S231.2.6 228.6.6s-4.7 2.1-4.7 4.7 2.1 4.7 4.7 4.7M224.7 17.8h7.8v37h-7.8zM238.3 7.3v32.4c0 11.4 7.3 18.1 23.1 13.8l-1.8-6.6c-8.2 2.7-13.5-.2-13.5-8.9V23.8h13.2v-6.6h-13.2v-10h-7.8zM197.4 55.3V30.7h22.1v-7.2h-22.1v-6.8c0-8.4.1-9.1 8.3-9.1h15.2V.2H202c-9.1 0-12.8 3.6-12.8 13.2v42h8.2zM19.9 48.8c-6.6 0-8.8-.1-9.9-1.3-1.2-1.2-1.3-3.6-1.3-7.8V29h11.1C28.6 29 32 33.2 32 39c.1 6.3-4.3 9.8-12.1 9.8M8.7 14.4V7h8.4c4.5 0 10.2 1.3 10.2 7.2 0 5.3-4.9 7.8-9.4 7.8H8.7v-7.6zm22 9.6c2.7-2.6 4.4-6.2 4.4-9.6C35.1 5.7 29.2 0 18.9 0H.5v42.6c0 4.8.9 8.1 2.8 10.2 2 2.1 5 3.1 15 3.1 14.6 0 22.2-7.1 22.2-17.5 0-6.3-3.1-11.9-9.8-14.4M63.1 48.7c-6.4 0-11.5-5.3-11.5-12 0-6.6 5.1-12 11.5-12s11.5 5.3 11.5 12c0 6.6-5.1 12-11.5 12M43.9 1.5v35.3c0 10.7 8.6 19.3 19.3 19.3 10.7 0 19.3-9.3 19.3-20s-8-18.7-18.7-18.7c-4.5 0-9.7 2.3-11.9 5.4V1.5h-8zM154.2 36.3c5.5-3.2 9.2-9.6 8.5-19h-8c.6 8.8-3.5 15.7-10.3 15.7-6.8 0-10.8-6.9-10.4-15.7h-7.9c-.8 9.2 2.8 15.6 8.5 19.1-5.7 3.4-9.2 9.6-8.5 19.1h8c-.4-9.6 3.2-15.7 10.3-15.7 7.1 0 10.8 6.2 10.4 15.7h7.9c.8-9.9-2.9-16-8.5-19.2M105.2 48.7c-6.5 0-11.8-5.4-11.8-12 0-6.7 5.3-12 11.8-12.1 6.5 0 11.8 5.4 11.8 12s-5.3 12.1-11.8 12.1m-.1-31.5c-10.7 0-19.4 8.7-19.4 19.4S94.4 56 105.1 56s19.4-8.7 19.4-19.5c0-10.6-8.7-19.3-19.4-19.3"/></symbol><symbol id="shape-icon-bbox-fit" viewBox="0 0 260.9 55.96"><title>bbox-fit</title><path d="M228.15 9.91a4.72 4.72 0 1 1 4.71-4.73 4.71 4.71 0 0 1-4.71 4.73m4 44.88v-37h-7.83v37zm5.72-47.61V39.6c0 11.42 7.34 18.06 23.06 13.81l-1.75-6.57c-8.18 2.73-13.49-.23-13.47-8.92V23.74h13.17v-6.58h-13.2v-10zM197 55.25V30.61h22.08v-7.22H197v-6.8c0-8.36.06-9.07 8.26-9.07h15.21V.08h-18.93c-9.09 0-12.83 3.62-12.83 13.2v42zM19.46 48.76c7.76 0 12.19-3.51 12.19-9.81 0-5.79-3.49-10-12.24-10H8.26v10.73c0 4.16.12 6.54 1.28 7.78s3.3 1.3 9.92 1.3M8.26 22h9.16c4.47 0 9.38-2.53 9.38-7.82 0-5.92-5.69-7.25-10.17-7.25H8.26V22zm22 2C37 26.45 40 32 40 38.43 40 48.84 32.44 56 17.84 56c-10 0-13-1-15-3.15S0 47.37 0 42.56V0h18.47c10.25 0 16.16 5.63 16.16 14.36A13.83 13.83 0 0 1 30.22 24m32.43 24.63a11.76 11.76 0 0 0 11.5-12 11.53 11.53 0 1 0-23 0 11.77 11.77 0 0 0 11.54 12M51.35 1.38V22.7c2.25-3.11 7.39-5.37 11.91-5.37A18.23 18.23 0 0 1 82 36c0 10.68-8.61 19.95-19.28 20a19.24 19.24 0 0 1-19.31-19.33V1.38zm102.4 34.84c5.48-3.16 9.16-9.57 8.48-19h-8c.57 8.84-3.46 15.66-10.29 15.66s-10.85-6.94-10.41-15.66h-7.9c-.75 9.15 2.76 15.57 8.5 19.1-5.7 3.36-9.19 9.65-8.5 19.14h8c-.4-9.64 3.19-15.67 10.29-15.67s10.83 6.18 10.4 15.67h7.91c.79-9.89-2.85-16-8.49-19.22m-49 12.38a12 12 0 1 0-11.81-12 11.92 11.92 0 0 0 11.81 12m0-31.45A19.41 19.41 0 1 1 85.3 36.58a19.39 19.39 0 0 1 19.37-19.43" fill="#fff"/></symbol><symbol id="shape-icon-bbox-miami-blank" viewBox="0 8.625 270.72 42.749"><path d="M22.318 27.774c2.023-1.955 3.236-4.518 3.236-7.079 0-6.474-4.382-10.586-11.935-10.586H0V41.53c0 3.573.607 6.001 2.09 7.552s3.708 2.292 11.058 2.292c10.788 0 16.385-5.259 16.385-12.946 0-4.72-2.225-8.832-7.215-10.654m-16.25-7.146v-5.462h6.136c3.304 0 7.485.944 7.485 5.326 0 3.911-3.641 5.799-6.945 5.799H6v-5.663h.068zm8.293 25.42c-4.854 0-6.473-.067-7.35-.944-.876-.944-.944-2.697-.944-5.731v-7.889h8.226c6.473 0 9.035 3.102 9.035 7.35.001 4.651-3.235 7.214-8.967 7.214M32.027 11.12v26.027c0 7.889 6.338 14.227 14.227 14.227s14.227-6.877 14.227-14.699c0-7.889-5.866-13.755-13.755-13.755-3.304 0-7.147 1.686-8.766 3.979V11.188l-5.933-.068zm14.227 34.86c-4.72 0-8.496-3.979-8.496-8.833 0-4.855 3.776-8.833 8.496-8.833 4.72 0 8.496 3.91 8.496 8.833 0 4.855-3.843 8.833-8.496 8.833M112.94 37.147c3.978-2.293 6.608-6.878 6.136-13.756h-5.731c.405 6.406-2.495 11.328-7.417 11.328s-7.821-4.989-7.484-11.328h-5.731c-.54 6.608 1.955 11.261 6.136 13.756-4.113 2.427-6.608 6.944-6.136 13.822h5.731c-.27-6.945 2.292-11.328 7.417-11.328s7.822 4.45 7.484 11.328h5.664c.674-7.147-1.956-11.597-6.069-13.822M77.204 22.718c-7.889 0-14.294 6.405-14.294 14.362 0 7.889 6.405 14.294 14.362 14.294 7.889 0 14.294-6.405 14.294-14.361-.001-7.89-6.474-14.295-14.362-14.295m.067 23.195c-4.788 0-8.698-3.979-8.698-8.9 0-4.923 3.843-8.9 8.698-8.9 4.787 0 8.698 3.978 8.698 8.833 0 4.989-3.911 8.967-8.698 8.967M199.044 21.504c-7.956 0-14.632 7.08-14.632 15.441 0 8.226 6.338 14.429 14.699 14.429 4.989 0 8.293-2.832 9.912-4.72v4.315h4.719V36.473c-.066-8.293-6.674-14.969-14.698-14.969m0 4.72c5.259 0 9.575 4.585 9.642 10.182 0 5.597-4.314 10.182-9.574 10.249-5.326 0-9.643-4.585-9.643-10.182 0-2.697 1.012-5.191 2.9-7.215 1.753-1.888 4.18-3.034 6.675-3.034v-.674.674zM175.714 21.908h4.923v28.994h-4.923zM178.075 9.637a3.31 3.31 0 0 0-3.305 3.304c0 1.821 1.484 3.305 3.305 3.305s3.304-1.483 3.304-3.305a3.31 3.31 0 0 0-3.304-3.304M265.055 21.908h4.922v28.994h-4.922zM267.416 16.178a3.31 3.31 0 0 0 3.304-3.305 3.31 3.31 0 0 0-3.304-3.304 3.309 3.309 0 0 0-3.304 3.304c0 1.889 1.482 3.305 3.304 3.305M248.603 21.504c-3.642 0-7.013 1.686-9.237 4.518-2.225-2.832-5.597-4.518-9.238-4.518-6.473 0-11.664 5.26-11.664 11.665v17.733h4.922V32.765c0-3.709 3.034-6.743 6.742-6.743 3.709 0 6.744 3.034 6.744 6.743v18.138h4.922V32.765c0-3.709 3.033-6.743 6.742-6.743s6.742 3.034 6.742 6.743v18.138h4.99V33.169c0-6.405-5.26-11.665-11.665-11.665M166.679 8.693c-1.753 0-3.304 1.011-3.978 2.629-1.551 3.574-7.755 17.666-9.44 21.51-.202.404-.54 1.214-.675 1.281h-.134c-.135-.135-.539-.944-.674-1.349-1.686-3.776-7.889-17.936-9.439-21.51-.674-1.618-2.226-2.63-3.979-2.63-2.359 0-4.315 1.956-4.315 4.315v37.962h5.058V16.919c1.955 4.315 5.529 12.339 7.416 16.452 1.956 4.315 3.439 5.664 6.002 5.664s4.045-1.416 6-5.664c1.889-4.046 5.395-12.002 7.418-16.452v33.983h5.057V13.008c-.069-2.427-1.956-4.315-4.317-4.315"/></symbol><symbol id="shape-icon-bbox-miami-plus-blank" viewBox="0 0 389.02 54.18"><title>Plan de travail 1</title><path d="M28.3 24.23a13 13 0 0 0 4.13-9c0-8.18-5.54-13.45-15.13-13.45H0v39.86c0 4.5.8 7.61 2.66 9.59s4.71 3 14 3c13.67 0 20.78-6.67 20.78-16.41.05-6.06-2.82-11.27-9.14-13.59zM7.74 15.18V8.29h7.83c4.19 0 9.53 1.24 9.53 6.78 0 5-4.6 7.32-8.79 7.32H7.74zm10.49 32.27c-6.2 0-8.24-.11-9.29-1.22s-1.2-3.39-1.2-7.29v-10h10.44c8.19 0 11.46 3.95 11.46 9.36 0 5.86-4.15 9.15-11.41 9.15zM40.65 3.08v33a18 18 0 0 0 18 18.06c10 0 18.07-8.69 18-18.69A17.07 17.07 0 0 0 59.26 18c-4.23 0-9 2.13-11.15 5V3zm18 44.24a11 11 0 0 1-10.79-11.21 10.8 10.8 0 1 1 21.58 0 11 11 0 0 1-10.77 11.21zM143.37 36.11c5-2.89 8.38-8.76 7.76-17.41h-7.31c.53 8.1-3.16 14.34-9.42 14.34s-9.93-6.35-9.52-14.34h-7.23c-.69 8.38 2.52 14.26 7.78 17.49-5.22 3.06-8.43 8.81-7.78 17.51H125c-.37-8.82 2.93-14.35 9.42-14.35s9.88 5.65 9.49 14.35h7.23c.73-9.05-2.61-14.7-7.77-17.59zM98 17.84A18.17 18.17 0 1 0 116.21 36 18.16 18.16 0 0 0 98 17.84zm.05 29.45a11.28 11.28 0 1 1 11-11.31A11.17 11.17 0 0 1 98.06 47.3zM252.6 16.28c-10.1 0-18.61 9-18.59 19.6 0 10.43 8 18.3 18.63 18.3a16.53 16.53 0 0 0 12.6-6v5.47h6V35.19a18.8 18.8 0 0 0-18.64-18.91zm0 6c6.71 0 12.19 5.8 12.2 12.92s-5.46 13-12.18 13-12.22-5.79-12.23-12.92a13.18 13.18 0 0 1 3.65-9.12 11.92 11.92 0 0 1 8.53-3.85v-.86zM223.05 16.82h6.28v36.81h-6.28z"/><circle cx="226.04" cy="5.39" r="4.17"/><path d="M336.41 16.82h6.28v36.81h-6.28z"/><circle cx="339.39" cy="5.39" r="4.17"/><path d="M315.49 16.28A14.77 14.77 0 0 0 303.8 22a14.82 14.82 0 0 0-26.52 9.1v22.53h6.26v-23a8.56 8.56 0 1 1 17.12 0v23h6.26v-23a8.56 8.56 0 1 1 17.12 0v23h6.26V31.11a14.84 14.84 0 0 0-14.81-14.83zM211.52 0a5.43 5.43 0 0 0-5 3.33c-2 4.52-9.82 22.43-12 27.27a9.13 9.13 0 0 1-.88 1.67h-.24a8.51 8.51 0 0 1-.89-1.67c-2.18-4.8-10-22.73-12-27.26A5.44 5.44 0 0 0 170 5.48v48.15h6.45v-43.1c2.55 5.47 7.07 15.64 9.45 20.88 2.48 5.44 4.32 7.19 7.59 7.19s5.14-1.82 7.59-7.19c2.36-5.17 6.89-15.22 9.44-20.88v43.1H217V5.48A5.47 5.47 0 0 0 211.52 0zM364.6 25.17h-13.67V14.74h13.67V1.13h10.73v13.6H389v10.44h-13.66v13.6H364.6z"/></symbol><symbol id="shape-icon-bbox-must-color" viewBox="0 0 342.1 56.3"><path fill="#009DCC" d="M19.4 48.6c-6.6 0-8.8-.1-9.9-1.3-1.2-1.2-1.3-3.6-1.3-7.8V28.9h11.1c8.7 0 12.2 4.2 12.2 10 .1 6.2-4.4 9.7-12.1 9.7M8.2 14.3V6.9h8.3c4.5 0 10.1 1.3 10.1 7.2 0 5.3-4.9 7.8-9.4 7.8h-9v-7.6zm21.9 9.6c2.7-2.6 4.4-6.1 4.4-9.6C34.5 5.6 28.6 0 18.4 0H0v42.4c0 4.8.9 8.1 2.8 10.2 2 2.1 5 3.1 15 3.1 14.6 0 22.1-7.1 22.1-17.5 0-6.3-3-11.8-9.8-14.3M62.5 48.5c-6.3 0-11.5-5.3-11.5-11.9 0-6.6 5.1-12 11.5-12 6.3 0 11.5 5.3 11.5 11.9-.1 6.6-5.2 12-11.5 12M43.3 1.4v35.2c0 10.6 8.6 19.3 19.2 19.2 10.6 0 19.2-9.3 19.2-19.9 0-10.6-8-18.6-18.6-18.6-4.5 0-9.6 2.3-11.9 5.4V1.4h-7.9zM153.3 36.1c5.5-3.2 9.1-9.5 8.5-19h-8c.6 8.8-3.4 15.6-10.3 15.6-6.8 0-10.8-6.9-10.4-15.6h-7.9c-.7 9.1 2.7 15.5 8.5 19.1-5.7 3.3-9.2 9.6-8.5 19.1h8c-.4-9.6 3.2-15.6 10.3-15.6 7.1 0 10.8 6.2 10.4 15.6h7.9c.7-9.9-2.9-16-8.5-19.2M104.4 48.5c-6.5 0-11.8-5.4-11.8-12s5.2-12 11.7-12c6.5 0 11.8 5.3 11.8 12 .1 6.5-5.2 11.9-11.7 12m0-31.4C93.7 17.1 85 25.8 85 36.5s8.7 19.3 19.4 19.3 19.3-8.7 19.3-19.4-8.7-19.3-19.3-19.3"/><path fill="#05D0A6" d="M263.3 48.7c7.4 0 10.9-5.7 10.9-13.9V18h8.1v16.8c0 13.2-8.3 21.3-19.9 21.3-11.4 0-18.2-8.5-18.2-21.2V18.1h8.1v16.8c.1 7.8 3 13.8 11 13.8M293.4 26.9c0-2 1.5-3.7 5.9-3.7 3.9 0 7.8 1.1 11.2 3l2.4-6.5c-3.6-2-8.1-3.1-12.7-3.1-10.2 0-14.7 5.4-14.7 11.2 0 12.9 21.7 9.1 21.7 16.1 0 2.6-2.5 5-7.6 5-4 0-7.9-1.2-12-3.4l-2.6 6.2c4.3 2.6 9.4 3.8 14.9 3.8 9.7 0 15-5.3 15-12.1.1-13.7-21.5-10.2-21.5-16.5M318.6 7.3v32.9c0 11.6 7.4 18.3 23.4 14l-1.8-6.7c-8.3 2.8-13.7-.2-13.7-9.1V24.1h13.4v-6.7h-13.4V7.3h-7.9zM229.9 0s-11.2 25.3-13.5 30.2c-.7 1.5-1.1 2-1.6 2-.6 0-.9-.3-1.8-2.1C210.3 24.6 199.6 0 199.6 0h-10.5v55.3h8.3V22.1c0-2.4-.2-5.5-.6-8.3 0 0 4.9 10.9 8.5 18.8 2.3 5.1 5.1 7.7 9.4 7.7 3.7 0 6.2-1.7 8.3-6.3 2.9-6.5 9.2-20.5 9.2-20.5-.4 2.7-.5 5.2-.5 7.3v34.5h8.3V0h-10.1z"/></symbol><symbol id="shape-icon-bbox-must" viewBox="0 0 341.99 56.09"><title>bbox-must</title><path d="M19.41 48.62c-6.61 0-8.78-.12-9.89-1.3s-1.28-3.61-1.28-7.76v-10.7h11.11c8.73 0 12.21 4.2 12.21 10 0 6.29-4.42 9.79-12.15 9.79M8.24 14.26V6.92h8.34c4.46 0 10.14 1.32 10.14 7.23 0 5.27-4.9 7.79-9.35 7.79H8.24zm21.89 9.64a13.81 13.81 0 0 0 4.4-9.58C34.53 5.61 28.64 0 18.42 0H0v42.43c0 4.8.85 8.11 2.83 10.22s5 3.14 15 3.14c14.56 0 22.14-7.1 22.14-17.47 0-6.41-3.06-11.95-9.79-14.42m32.29 24.59A11.74 11.74 0 0 1 51 36.55a11.49 11.49 0 1 1 23 0 11.73 11.73 0 0 1-11.46 12M43.28 1.38v35.18a19.19 19.19 0 0 0 19.2 19.23c10.64 0 19.25-9.25 19.22-19.9a18.17 18.17 0 0 0-18.6-18.61c-4.51 0-9.64 2.26-11.88 5.35V1.38zm110 34.73c5.47-3.15 9.13-9.54 8.46-19h-8c.57 8.83-3.45 15.63-10.26 15.63s-10.81-6.92-10.38-15.63h-7.87c-.75 9.13 2.74 15.53 8.47 19.06-5.68 3.34-9.16 9.61-8.47 19.08h8c-.4-9.61 3.19-15.63 10.27-15.63s10.79 6.16 10.37 15.63h7.87c.8-9.86-2.84-16-8.46-19.17m-48.87 12.38a12 12 0 1 1 11.73-12.05 11.89 11.89 0 0 1-11.73 12.05m0-31.36a19.35 19.35 0 1 0 19.38 19.3 19.34 19.34 0 0 0-19.38-19.3m158.88 31.58c7.35 0 10.88-5.75 10.86-13.87V18h8.13v16.79c0 13.18-8.34 21.27-19.87 21.3s-18.19-8.54-18.19-21.23V18.05h8.12v16.8c0 7.9 2.93 13.85 11 13.83m30.13-21.8c0-2 1.54-3.69 5.91-3.69a23.63 23.63 0 0 1 11.2 3l2.39-6.5a27 27 0 0 0-12.67-3.15c-10.22 0-14.71 5.41-14.71 11.17 0 12.88 21.75 9.08 21.75 16.14 0 2.63-2.5 5-7.65 5a24.78 24.78 0 0 1-11.95-3.36l-2.57 6.21A28.34 28.34 0 0 0 300 55.53c9.7 0 15-5.29 15-12.07 0-13.81-21.56-10.31-21.56-16.58M318.58 7.3v32.9c0 11.59 7.45 18.33 23.41 14l-1.78-6.66c-8.3 2.76-13.69-.24-13.67-9V24.11h13.36v-6.68h-13.36V7.3zM229.91 0s-11.24 25.29-13.48 30.17c-.69 1.5-1.06 2-1.64 2s-.89-.34-1.76-2.11C210.33 24.56 199.6 0 199.6 0h-10.54v55.28h8.3V22.12a58.93 58.93 0 0 0-.56-8.27s4.93 10.93 8.51 18.8c2.32 5.1 5.12 7.67 9.44 7.67 3.73 0 6.23-1.69 8.3-6.3 2.94-6.53 9.19-20.49 9.19-20.49a49.2 49.2 0 0 0-.48 7.28v34.47h8.3V0z" fill="#fff"/></symbol><symbol id="shape-icon-bbox-ultym-color" viewBox="0 0 376.4 73.2"><path fill="#009DCC" d="M19.3 48.5c-6.6 0-8.7-.1-9.8-1.3-1.2-1.2-1.3-3.6-1.3-7.7V28.9h11c8.7 0 12.1 4.2 12.1 9.9.1 6.2-4.3 9.7-12 9.7M8.2 14.4V7.1h8.3c4.4 0 10.1 1.3 10.1 7.2 0 5.2-4.9 7.7-9.3 7.7H8.2v-7.6zm21.7 9.5c2.7-2.6 4.4-6.1 4.4-9.5 0-8.7-5.9-14.2-16-14.2H0v42.2c0 4.8.8 8.1 2.8 10.1 2 2.1 5 3.1 14.9 3.1 14.5 0 22-7.1 22-17.4 0-6.3-3.1-11.8-9.8-14.3M62.1 48.4c-6.3 0-11.4-5.3-11.4-11.9 0-6.6 5.1-11.9 11.4-11.9 6.3 0 11.4 5.3 11.4 11.8 0 6.6-5.1 12-11.4 12M43 1.6v35c0 10.6 8.5 19.1 19.1 19.1 10.6 0 19.1-9.2 19.1-19.8 0-10.6-7.9-18.5-18.5-18.5-4.5 0-9.6 2.2-11.8 5.3V1.6H43zM152.3 36.1c5.4-3.1 9.1-9.5 8.4-18.8h-7.9c.6 8.8-3.4 15.5-10.2 15.5-6.8 0-10.7-6.9-10.3-15.5h-7.8c-.7 9.1 2.7 15.4 8.4 18.9-5.6 3.3-9.1 9.6-8.4 19h7.9c-.4-9.5 3.2-15.5 10.2-15.5 7 0 10.7 6.1 10.3 15.5h7.8c.8-9.9-2.8-16-8.4-19.1M103.7 48.3C97.3 48.3 92 43 92 36.4c0-6.6 5.2-11.9 11.7-11.9s11.7 5.3 11.7 11.9c0 6.6-5.2 11.9-11.7 11.9m0-31.1c-10.6 0-19.2 8.6-19.2 19.3 0 10.6 8.6 19.2 19.3 19.2 10.6 0 19.2-8.6 19.2-19.3-.1-10.7-8.7-19.2-19.3-19.2"/><path fill="#0055A4" d="M230.1.4v40.2c0 12.9 8.3 16.7 20.4 12.8l-1.8-6.6c-7.6 2.3-10.6.1-10.6-7.9V.4h-8zM251 7.1v32.5c0 11.5 7.4 18.1 23.1 13.8l-1.8-6.6c-8.2 2.7-13.5-.2-13.5-9v-14H272v-6.6h-13.2v-10H251zM312.5 17.7h-8.6S298 44.5 297.4 47c-3.8-.2-6.4-1.2-8.3-7.9-.5-2-5.9-21.4-5.9-21.4h-8.6s4.5 15.5 6.4 22.5c3 11.2 6.4 13.6 14 14.2-3.6 6.5-9.1 10.6-17.1 11l.8 7.6c15-1.4 23.4-11 27.1-27 .6-2.8 6.7-28.3 6.7-28.3M359.1 17c-6 0-11.2 2.6-14.7 7.1-3-4.5-7.8-7.1-13.6-7.1-10.6 0-18.7 8-18.7 21.1v16.8h8.2V38c0-8 3.3-13.7 10.1-13.7 7.4 0 9.8 5.9 9.8 13.7v16.9h8V38c0-8 3-13.7 9.7-13.7 7.4 0 10.1 5.9 10.1 13.7v16.9h8.1v-17c.1-12.5-6.5-21-17-20.9M204 48.5c8.5 0 13.5-5.6 13.4-13.6V.4h8.4v34.5c0 12.9-9.6 20.8-22.9 20.8-13.2 0-20.9-8.3-20.9-20.8V.4h8.4V35c.1 7.7 4.4 13.5 13.6 13.5"/></symbol><symbol id="shape-icon-bbox-ultym" viewBox="0 0 376.22 72.79"><title>bbox-ultym</title><path d="M19.28 48.31c-6.56 0-8.71-.12-9.82-1.29s-1.27-3.59-1.27-7.71V28.68h11c8.67 0 12.13 4.17 12.13 9.9 0 6.25-4.39 9.73-12.08 9.73M8.19 14.17V6.88h8.28c4.44 0 10.08 1.31 10.08 7.18 0 5.24-4.87 7.74-9.3 7.74H8.19zm21.75 9.58a13.74 13.74 0 0 0 4.37-9.52C34.31 5.58 28.45 0 18.3 0H0v42.17c0 4.76.85 8 2.81 10.15s5 3.12 14.86 3.12c14.47 0 22-7.06 22-17.36 0-6.37-3-11.88-9.72-14.33m32.12 24.43a11.66 11.66 0 0 1-11.44-11.87 11.42 11.42 0 1 1 22.83 0 11.67 11.67 0 0 1-11.39 11.87M43 1.37v35a19.08 19.08 0 0 0 19.09 19.07c10.56 0 19.11-9.2 19.09-19.78a18.05 18.05 0 0 0-18.49-18.49c-4.48 0-9.57 2.24-11.8 5.32V1.37zm109.31 34.51c5.43-3.13 9.08-9.48 8.4-18.84h-7.91c.58 8.76-3.42 15.52-10.19 15.52S131.87 25.68 132.3 17h-7.82c-.75 9.07 2.73 15.43 8.41 18.93-5.64 3.32-9.1 9.55-8.41 19h7.91c-.4-9.55 3.16-15.52 10.2-15.52s10.72 6.12 10.3 15.52h7.83c.79-9.79-2.82-15.9-8.41-19m-48.56 12.22a11.94 11.94 0 1 1 11.64-12 11.82 11.82 0 0 1-11.64 12M103.69 17A19.23 19.23 0 1 0 123 36.16 19.2 19.2 0 0 0 103.69 17M238.07.19v38.5c0 8 3.07 10.21 10.63 7.9l1.76 6.58c-12.05 3.91-20.4.07-20.4-12.79V.19zM251 6.94v32.54c0 11.46 7.37 18.12 23.15 13.85l-1.76-6.59c-8.21 2.74-13.54-.24-13.52-9V23.56h13.22V17h-13.22V7zm61.49 10.56h-8.58s-5.91 26.84-6.55 29.28c-3.83-.19-6.43-1.23-8.25-7.93-.54-2-5.87-21.35-5.87-21.35h-8.6S279.14 33 281 40c3 11.21 6.45 13.56 14 14.19-3.61 6.52-9.11 10.57-17.12 11l.78 7.56c15-1.4 23.4-11 27.13-27 .62-2.71 6.72-28.26 6.72-28.26m46.58-.74a18.08 18.08 0 0 0-14.69 7.11 15.83 15.83 0 0 0-13.63-7.11c-10.6 0-18.7 8-18.68 21.06v16.82h8.15V37.81c0-8 3.32-13.71 10.08-13.73 7.37 0 9.8 5.87 9.82 13.68v16.85h8.05v-16.8c0-8 3-13.71 9.74-13.73 7.37 0 10.13 5.87 10.15 13.68v16.85h8.15V37.75c0-12.55-6.63-21-17.15-21M204 48.3c-9.22 0-13.51-5.8-13.52-13.53V.21H182v34.57c0 12.42 7.78 20.79 20.95 20.77s22.88-7.94 22.86-20.84V.19h-8.43v34.54c0 8-5 13.56-13.43 13.57" fill="#fff"/></symbol><symbol id="shape-icon-bbox" viewBox="-6.167 323.167 622.667 224"><path d="M114.674 421.494c10.391-10.044 16.625-23.205 16.625-36.366 0-33.25-22.513-54.377-61.304-54.377H.033V492.15c0 18.356 3.117 30.824 10.737 38.791 7.62 7.966 19.049 11.775 56.801 11.775 55.416 0 84.163-27.015 84.163-66.499 0-24.243-11.43-45.371-37.06-54.723m-83.47-36.713v-28.054h31.518c16.971 0 38.445 4.849 38.445 27.361 0 20.088-18.703 29.786-35.674 29.786H30.858l.346-29.093zm42.601 130.574c-24.938 0-33.25-.347-37.752-4.849-4.503-4.849-4.849-13.854-4.849-29.44v-40.522h42.255c33.25 0 46.411 15.932 46.411 37.752 0 23.898-16.625 37.059-46.065 37.059M164.549 335.946v133.69a72.874 72.874 0 0 0 73.08 73.08c40.523 0 73.081-35.327 73.081-75.504 0-40.523-30.133-70.655-70.656-70.655-16.971 0-36.713 8.658-45.025 20.435v-80.699l-30.48-.347zm73.079 179.063c-24.244 0-43.64-20.435-43.64-45.372s19.396-45.371 43.64-45.371c24.245 0 43.64 20.088 43.64 45.371.001 24.937-19.741 45.372-43.64 45.372M580.168 469.637c20.436-11.775 33.943-35.327 31.519-70.654h-29.44c2.078 32.902-12.814 58.187-38.098 58.187s-40.177-25.63-38.445-58.187h-29.439c-2.771 33.941 10.044 57.84 31.518 70.654-21.127 12.469-33.941 35.675-31.518 71.002h29.439c-1.385-35.674 11.775-58.187 38.099-58.187s40.177 22.859 38.444 58.187h29.094c3.462-36.713-10.045-59.573-31.173-71.002M396.604 395.519c-40.523 0-73.426 32.903-73.426 73.772 0 40.522 32.902 73.426 73.771 73.426 40.523 0 73.426-32.903 73.426-73.772 0-40.523-33.249-73.426-73.771-73.426m.345 119.144c-24.59 0-44.679-20.435-44.679-45.719 0-25.283 19.741-45.718 44.679-45.718 24.592 0 44.68 20.435 44.68 45.371 0 25.632-20.088 46.066-44.68 46.066"/></symbol><symbol id="shape-icon-bouquet-jeunesse" viewBox="0 0 422.7 131.2"><title>Plan de travail 1</title><g class="st0"><path class="st1" d="M63.1 9.5H76c5.8 0 10.1 1 12.8 3 2.7 2 4.1 5 4.1 9 0 2.7-.8 5-2.5 6.8-1.7 1.8-4.1 3-7.3 3.5v.2c3.8.6 6.5 1.7 8.3 3.6 1.8 1.8 2.7 4.3 2.7 7.6 0 4.3-1.4 7.7-4.3 10s-7 3.5-12.2 3.5H63.1V9.5zm3.3 20.9h10.4c4.4 0 7.6-.7 9.7-2.2 2-1.5 3-3.8 3-6.9s-1.1-5.4-3.4-6.8c-2.3-1.4-5.6-2.1-10.1-2.1h-9.5v18zm0 2.9v20.3h11.1c8.7 0 13.1-3.5 13.1-10.6 0-6.5-4.6-9.7-13.8-9.7H66.4z"/></g><g class="st0"><path class="st1" d="M128.3 39c0 5.7-1.4 10.2-4.2 13.4-2.8 3.2-6.6 4.8-11.5 4.8-3.1 0-5.8-.7-8.1-2.2-2.3-1.5-4.1-3.6-5.4-6.4-1.2-2.8-1.9-6-1.9-9.6 0-5.7 1.4-10.2 4.2-13.4s6.6-4.8 11.4-4.8c4.8 0 8.6 1.6 11.3 4.9s4.2 7.7 4.2 13.3zm-27.7 0c0 4.8 1.1 8.6 3.2 11.3s5.1 4 9 4 6.9-1.3 9-4c2.1-2.7 3.2-6.5 3.2-11.3 0-4.8-1.1-8.6-3.2-11.3-2.1-2.7-5.1-4-9-4s-6.9 1.3-8.9 4c-2.2 2.7-3.3 6.5-3.3 11.3zM136.2 21.5v22.7c0 3.5.7 6.1 2.2 7.7 1.5 1.6 3.8 2.4 6.9 2.4 4.2 0 7.2-1.1 9.2-3.2 2-2.1 2.9-5.5 2.9-10.3V21.5h3.2v35h-2.7l-.6-4.8h-.2c-2.3 3.7-6.3 5.5-12.2 5.5-8 0-12-4.3-12-12.8V21.5h3.3z"/></g><g class="st0"><path class="st1" d="M179.8 57.2c-4.6 0-8.2-1.5-10.7-4.6-2.5-3.1-3.8-7.5-3.8-13.2 0-5.9 1.3-10.5 3.8-13.7 2.5-3.2 6.2-4.9 10.9-4.9 5.1 0 8.9 1.9 11.4 5.6h.2l.6-4.9h2.7v50.9h-3.2V59.1c0-2.6.1-5.3.2-8h-.2c-2.6 4.1-6.5 6.1-11.9 6.1zm0-2.8c4.3 0 7.3-1.2 9.1-3.5 1.8-2.3 2.7-6.3 2.7-11.8v-.4c0-5.3-.9-9.1-2.7-11.4-1.8-2.3-4.7-3.5-8.7-3.5-3.8 0-6.7 1.3-8.6 4-2 2.7-2.9 6.6-2.9 11.7 0 4.9 1 8.6 2.9 11.1s4.6 3.8 8.2 3.8z"/></g><g class="st0"><path class="st1" d="M204.3 21.5v22.7c0 3.5.7 6.1 2.2 7.7 1.5 1.6 3.8 2.4 6.9 2.4 4.2 0 7.2-1.1 9.2-3.2 2-2.1 3-5.5 3-10.3V21.5h3.2v35H226l-.6-4.8h-.2c-2.3 3.7-6.3 5.5-12.2 5.5-8 0-12-4.3-12-12.8V21.5h3.3z"/></g><g class="st0"><path class="st1" d="M249.7 57.2c-5.1 0-9.1-1.6-11.9-4.7-2.8-3.1-4.3-7.5-4.3-13.2 0-5.6 1.4-10.1 4.1-13.4s6.5-5 11.1-5c4.1 0 7.4 1.4 9.8 4.3 2.4 2.9 3.6 6.8 3.6 11.7v2.6h-25.2c0 4.8 1.2 8.5 3.4 11s5.4 3.8 9.5 3.8c2 0 3.8-.1 5.3-.4 1.5-.3 3.4-.9 5.8-1.8V55c-2 .9-3.8 1.4-5.5 1.8-1.9.3-3.7.4-5.7.4zm-1-33.5c-3.4 0-6.1 1.1-8.1 3.3-2 2.2-3.2 5.4-3.6 9.6h21.7c0-4.1-.9-7.2-2.6-9.5-1.8-2.3-4.3-3.4-7.4-3.4z"/></g><g class="st0"><path class="st1" d="M276.3 54.4c2 0 3.8-.2 5.3-.5v2.6c-1.5.5-3.3.8-5.4.8-3.1 0-5.4-.8-6.9-2.5s-2.2-4.3-2.2-7.8V24.3H262v-1.9l5.2-1.5 1.6-7.9h1.6v8.5h10.3v2.8h-10.3v22.2c0 2.7.5 4.7 1.4 6 1 1.2 2.5 1.9 4.5 1.9z"/></g><g class="st0"><path class="st1" d="M312.8 56.6h-3.3v-44h-15.3V9.5h33.9v3.1h-15.3v44z"/></g><g class="st0"><path class="st1" d="M362.6 9.5h3.6l-17.6 47.1h-2.9L328.1 9.5h3.5l11.9 32.1c1.8 4.8 3 8.5 3.6 10.9.4-1.6 1.3-4.1 2.5-7.5l13-35.5z"/></g><path class="st1" d="M46.4 93.9c2.4-2.2 3.9-5.3 4-8.6 0-7.8-5.3-12.9-14.5-12.9H19.2v38.2c0 4.3.8 7.3 2.5 9.2s4.5 2.8 13.5 2.8c13.1 0 19.9-6.4 19.9-15.7.1-5.7-2.7-10.7-8.7-13zm-19.7-8.6v-6.6h7.5c4 0 9.1 1.2 9.1 6.5 0 4.8-4.4 7-8.4 7h-8.2v-6.9zm10 30.9c-5.9 0-7.9-.1-8.9-1.2s-1.1-3.2-1.1-7v-9.6h10c7.8 0 11 3.8 11 9 0 5.6-4 8.8-11 8.8zM58.2 73.7v31.7c0 9.5 7.7 17.3 17.2 17.3h.1c9.6 0 17.3-8.3 17.3-17.9.2-9-6.9-16.5-15.9-16.7h-.8c-4 0-8.6 2-10.7 4.8V73.8l-7.2-.1zm17.3 42.4c-5.9.2-11-4.4-11.2-10.3-.2-5.9 4.4-11 10.3-11.2 5.9-.2 11 4.4 11.2 10.3v.4c.1 5.8-4.5 10.6-10.3 10.8zM156.6 105.3c4.8-2.8 8-8.4 7.4-16.7h-7c.5 7.8-3 13.7-9 13.7s-9.5-6.1-9.1-13.7h-7c-.7 8 2.4 13.7 7.5 16.8-5 2.9-8.1 8.5-7.5 16.8h7c-.4-8.4 2.8-13.8 9-13.8s9.5 5.4 9.1 13.8h6.9c.9-8.7-2.3-14.1-7.3-16.9zM113.2 87.8c-9.6 0-17.4 7.8-17.4 17.4 0 9.6 7.8 17.4 17.4 17.4s17.4-7.8 17.4-17.4c0-9.6-7.8-17.4-17.4-17.4zm0 28.2c-6 .1-10.9-4.6-11.1-10.5-.1-6 4.6-10.9 10.5-11.1 6-.1 10.9 4.6 11.1 10.5v.2c.1 6-4.6 10.8-10.5 10.9zM263.5 119.4h3.8v-13.1c0-7.9 4.1-12.8 10.6-12.8 6.9 0 10.7 4.6 10.7 12.8v13.1h3.8v-12.9c0-10.1-5-16.4-13.7-16.4-10.1 0-15.2 6.4-15.2 16.4v12.9z"/><path class="st1" d="M268.5 120.7h-6.2v-14.1c0-5.4 1.4-9.7 4.1-12.8 2.9-3.2 7-4.9 12.3-4.9 9.4 0 15 6.6 15 17.6v14.1h-6.3v-14.3c0-5.3-1.7-11.6-9.5-11.6-5.9 0-9.4 4.3-9.4 11.6v14.4zm-3.8-2.5h1.3v-11.8c0-8.5 4.6-14.1 11.9-14.1 7.6 0 12 5.1 12 14.1v11.9h1.3v-11.7c0-9.6-4.5-15.1-12.5-15.1-4.6 0-8.1 1.4-10.5 4s-3.5 6.3-3.5 11.1v11.6zM256.4 90.5h-3.8v13c0 7.9-3.2 12.8-9.8 12.8-6.9 0-9.8-4.6-9.9-12.8v-13h-3.8v12.9c0 10.1 4.1 16.4 12.8 16.4 10.2 0 14.3-6.4 14.3-16.4l.2-12.9z"/><path class="st1" d="M242.1 121c-9.1 0-14.1-6.2-14.1-17.6V89.3h6.3v14.2c0 8 2.7 11.6 8.6 11.6 7.1 0 8.6-6.3 8.5-11.6V89.3h6.2v14.1c0 6.1-1.5 10.7-4.5 13.7-2.6 2.6-6.3 3.9-11 3.9zm-11.7-29.2v11.7c0 6.9 2 15.1 11.6 15.1 4.1 0 7.2-1.1 9.3-3.2 2.5-2.5 3.8-6.5 3.7-11.9V91.8h-1.3v11.8c0 8.9-4 14.1-11 14.1-7.4 0-11.1-4.7-11.1-14.1V91.8h-1.2zM329.2 117.6c3.1 1.6 6.5 2.3 9.9 2.3 6 0 10.1-3.4 10.1-8.7s-4-7.1-9.4-8.7c-3.4-1-6.5-2-6.5-5 0-1.3.5-4.1 5.5-4.1 2.8 0 5.5.6 7.9 1.9l1-3.2c-2.6-1.3-5.4-1.9-8.2-1.9-6.9 0-9.9 3.6-9.9 8 0 4.8 3.9 6.2 9.3 7.8 3.7 1.1 6.8 2.1 6.8 5.6 0 2.7-2.1 5.2-6.8 5.2-3-.1-5.9-.8-8.6-2.3l-1.1 3.1z"/><path class="st1" d="M339.1 121.1c-3.7 0-7.3-.8-10.5-2.4l-.9-.5 1.9-5.7 1.3.7c2.5 1.4 5.2 2.1 8 2.1 4.1 0 5.5-2 5.5-3.9 0-2.4-1.9-3.2-5.9-4.4-4.8-1.4-10.2-2.9-10.2-9 0-4.5 2.9-9.2 11.1-9.2 3.1 0 6.1.7 8.8 2.1l.9.5-1.8 5.6-1.3-.7c-2.3-1.2-4.8-1.8-7.4-1.8-2.8 0-4.2 1-4.2 2.9s2.1 2.8 5.6 3.9c5.6 1.7 10.3 3.6 10.3 9.9.2 5.9-4.4 9.9-11.2 9.9zm-8.4-4.1c2.7 1.1 5.5 1.7 8.4 1.7 5.4 0 8.9-2.9 8.9-7.5 0-4.3-2.6-5.8-8.5-7.5-3.5-1-7.4-2.2-7.4-6.2 0-1.3.5-5.3 6.7-5.3 2.5 0 4.9.4 7.2 1.4l.2-.8c-2.1-.9-4.4-1.3-6.7-1.4-5.5 0-8.7 2.5-8.7 6.7 0 3.6 2.5 4.9 8.4 6.6 3.4 1 7.7 2.2 7.7 6.8 0 3.2-2.5 6.4-8 6.4-2.7 0-5.4-.7-7.9-1.8l-.3.9zM353.4 117.6c3.1 1.6 6.5 2.3 9.9 2.3 6 0 10.1-3.4 10.1-8.7s-4-7.1-9.4-8.7c-3.4-1-6.5-2-6.5-5 0-1.3.5-4.1 5.5-4.1 2.8 0 5.5.6 7.9 1.9l1-3.2c-2.6-1.3-5.4-1.9-8.2-1.9-6.9 0-9.9 3.6-9.9 8 0 4.8 3.9 6.2 9.3 7.8 3.7 1.1 6.8 2.1 6.8 5.6 0 2.7-2.1 5.2-6.8 5.2-3-.1-5.9-.8-8.6-2.3l-1.1 3.1z"/><path class="st1" d="M363.3 121.1c-3.7 0-7.3-.8-10.5-2.4l-.9-.5 1.9-5.7 1.3.7c2.5 1.4 5.2 2.1 8 2.1 4.1 0 5.5-2 5.5-3.9 0-2.4-1.9-3.2-5.9-4.4-4.8-1.4-10.2-2.9-10.2-9 0-4.5 2.9-9.2 11.1-9.2 3.1 0 6.1.7 8.8 2.1l.9.5-1.8 5.6-1.3-.7c-2.3-1.2-4.8-1.8-7.4-1.8-2.8 0-4.2 1-4.2 2.9s2.1 2.8 5.6 3.9c5.6 1.7 10.3 3.6 10.3 9.9.2 5.9-4.4 9.9-11.2 9.9zm-8.4-4.1c2.7 1.1 5.5 1.7 8.4 1.7 5.4 0 8.9-2.9 8.9-7.5 0-4.3-2.6-5.8-8.5-7.5-3.5-1-7.4-2.2-7.4-6.2 0-1.3.5-5.3 6.7-5.3 2.5 0 4.9.5 7.2 1.4l.2-.8c-2.1-.9-4.4-1.4-6.7-1.4-5.5 0-8.7 2.5-8.7 6.7 0 3.6 2.5 4.9 8.4 6.6 3.4 1 7.7 2.2 7.7 6.8 0 3.2-2.5 6.4-8 6.4-2.7 0-5.4-.7-7.9-1.8l-.3.9zM210.7 90.1c-8 0-14.3 6.6-14.3 14.9 0 8.2 6.6 14.8 14.7 14.9h.3c3.8.1 7.5-1.1 10.6-3.3l-1.7-2.7c-2.4 1.8-5.4 2.7-8.4 2.7-7.6 0-11.6-5.2-11.9-11h18.3c4.1 0 5.5-1.8 4.9-5.8-.7-5.4-6.5-9.7-12.5-9.7zm8.1 12.4H200c.6-5.4 5.3-9.4 10.7-9.3 5.7 0 9.1 4.3 9.1 7.9.1.9-.1 1.4-1 1.4z"/><path class="st1" d="M211.4 121c-8.8.1-16.1-6.9-16.3-15.7v-.4c0-9 6.8-16.1 15.5-16.1 6.7 0 12.9 4.8 13.8 10.7.4 2.5.1 4.2-1 5.4s-2.7 1.8-5.1 1.8h-16.9c.7 4.2 3.7 8.5 10.5 8.5 2.7 0 5.4-.8 7.6-2.4l1.1-.8 3 4.8-.9.7c-3.2 2.3-7.2 3.6-11.3 3.5zm-.7-29.8c-7.3 0-13.1 6-13.1 13.7 0 7.5 6 13.6 13.5 13.6h.3c3.1 0 6.2-.8 8.9-2.4l-.4-.6c-2.4 1.5-5.2 2.2-8 2.2-8.6 0-12.8-6.1-13.1-12.2l-.1-1.3h19.6c1.6 0 2.7-.3 3.2-.9s.7-1.8.4-3.5c-.6-4.6-5.8-8.6-11.2-8.6zm8.1 12.5h-20.2l.2-1.4c.8-5.9 5.9-10.4 11.9-10.3 6.2 0 10.4 4.7 10.4 9.1 0 2.3-1.5 2.6-2.3 2.6zm-17.2-2.5h17v-.2c0-2.8-2.7-6.6-7.9-6.6-4.3-.1-8 2.7-9.1 6.8zM312.2 89.9c-8 0-14.3 6.6-14.3 14.9 0 8.2 6.6 14.8 14.7 14.9h.3c3.8.1 7.5-1.1 10.6-3.3l-1.7-2.7c-2.4 1.8-5.4 2.7-8.4 2.7-7.6 0-11.6-5.2-11.9-11h18.3c4.1 0 5.5-1.8 4.9-5.8-.7-5.3-6.5-9.7-12.5-9.7zm8 12.5h-18.8c.6-5.4 5.3-9.4 10.7-9.3 5.7 0 9.1 4.3 9.1 7.9.1.8-.1 1.4-1 1.4z"/><path class="st1" d="M312.9 120.9c-8.8.1-16.1-6.9-16.3-15.7v-.4c0-9 6.8-16.1 15.5-16.1 6.7 0 12.9 4.8 13.8 10.7.4 2.5.1 4.2-1 5.4s-2.7 1.8-5.1 1.8H303c.7 4.2 3.7 8.5 10.5 8.5 2.7 0 5.4-.8 7.6-2.4l1.1-.8 3 4.8-.9.7c-3.3 2.4-7.3 3.6-11.4 3.5zm-.7-29.7c-7.3 0-13.1 6-13.1 13.7 0 7.5 6 13.6 13.5 13.6h.3c3.1 0 6.2-.8 8.9-2.4l-.4-.6c-2.4 1.5-5.2 2.2-8 2.2-8.6 0-12.8-6.1-13.1-12.2l-.1-1.3h19.6c1.6 0 2.7-.3 3.2-.9s.7-1.8.4-3.5c-.6-4.7-5.8-8.6-11.2-8.6zm8 12.4H300l.2-1.4c.8-6 5.9-10.4 11.9-10.3 6.2 0 10.4 4.7 10.4 9.1.1 2.3-1.4 2.6-2.3 2.6zm-17.2-2.5h17v-.2c0-2.8-2.7-6.6-7.9-6.6-4.2-.1-8 2.7-9.1 6.8zM391.3 89.9c-8 0-14.3 6.6-14.3 14.9 0 8.2 6.6 14.8 14.7 14.9h.3c3.8.1 7.5-1.1 10.6-3.3l-1.7-2.7c-2.4 1.8-5.4 2.7-8.4 2.7-7.6 0-11.6-5.2-11.9-11H399c4.1 0 5.5-1.8 4.9-5.8-.8-5.3-6.6-9.7-12.6-9.7zm8.1 12.5h-18.7c.6-5.4 5.3-9.4 10.7-9.3 5.7 0 9.1 4.3 9.1 7.9-.1.8-.2 1.4-1.1 1.4z"/><path class="st1" d="M392 120.9c-8.8.1-16.1-6.9-16.3-15.7v-.4c0-9 6.8-16.1 15.5-16.1 6.7 0 12.9 4.8 13.8 10.7.4 2.5.1 4.2-1 5.4s-2.7 1.8-5.1 1.8H382c.7 4.2 3.7 8.5 10.5 8.5 2.7 0 5.4-.8 7.6-2.4l1.1-.8 3 4.8-.9.7c-3.2 2.4-7.2 3.6-11.3 3.5zm-.7-29.7c-7.3 0-13.1 6-13.1 13.7 0 7.5 6 13.6 13.5 13.6h.2c3.1 0 6.2-.8 8.9-2.4l-.4-.6c-2.4 1.5-5.2 2.2-8 2.2-8.6 0-12.8-6.1-13.1-12.2l-.1-1.3H399c1.6 0 2.7-.3 3.2-.9s.7-1.8.4-3.5c-.7-4.7-5.9-8.6-11.3-8.6zm8 12.4h-20.1l.2-1.4c.8-6 5.9-10.4 11.9-10.3 6.2 0 10.4 4.7 10.4 9.1 0 2.3-1.5 2.6-2.4 2.6zm-17.2-2.5h17v-.2c0-2.8-2.7-6.6-7.9-6.6-4.2 0-7.9 2.7-9.1 6.8zM186.2 115.7c0 5.2-1.9 8.1-5.8 10.3l2.2 3.5c4.9-2.8 8.1-7.3 8.1-13.9V80.4h-4.5v35.3z"/><path class="st1" d="M182.2 131.2l-3.5-5.6 1.1-.6c3.7-2.2 5.2-4.8 5.2-9.3V79.2h7v36.4c0 6.6-2.9 11.6-8.8 15l-1 .6zm0-4.8l.9 1.4c4.2-2.6 6.6-7.3 6.5-12.2V81.7h-2v34c-.1 4.9-1.7 8.2-5.4 10.7z"/></symbol><symbol id="shape-icon-check-thin" viewBox="0 0 406.8 281.8"><path d="M385.6 0L146.2 239.4l-125-125L0 135.6l146.2 146.2L406.8 21.2z"/></symbol><symbol id="shape-icon-check" viewBox="0 0 512 512"><path d="M432 64L192 304 80 192 0 272l192 192 320-320-80-80z"/></symbol><symbol id="shape-icon-cle-4g" viewBox="0 0 404.2 227"><g class="st0"><path class="st1" d="M37.3 103.8c-3.8 0-6.7 1.4-8.7 4.2-2.1 2.8-3.1 6.8-3.1 11.8 0 10.5 3.9 15.8 11.8 15.8 3.3 0 7.3-.8 12-2.5v8.4c-3.9 1.6-8.2 2.4-13 2.4-6.9 0-12.1-2.1-15.7-6.2-3.6-4.2-5.4-10.1-5.4-17.9 0-4.9.9-9.2 2.7-12.9 1.8-3.7 4.3-6.5 7.7-8.5 3.3-2 7.3-2.9 11.8-2.9 4.6 0 9.2 1.1 13.8 3.3l-3.2 8.1c-1.8-.8-3.5-1.6-5.3-2.2-1.9-.6-3.7-.9-5.4-.9zM65.5 143.3h-9.8V93.1h9.8v50.2zM89.1 143.9c-5.8 0-10.3-1.6-13.6-4.8-3.3-3.2-4.9-7.7-4.9-13.6 0-6 1.5-10.7 4.5-14 3-3.3 7.2-4.9 12.5-4.9 5.1 0 9.1 1.5 11.9 4.4s4.3 6.9 4.3 12v4.8H80.6c.1 2.8.9 5 2.5 6.5 1.5 1.6 3.7 2.4 6.5 2.4 2.2 0 4.2-.2 6.2-.7s4-1.2 6.1-2.2v7.6c-1.7.9-3.6 1.5-5.5 1.9-2.1.4-4.5.6-7.3.6zm-1.4-30.4c-2.1 0-3.7.7-4.9 2-1.2 1.3-1.9 3.2-2 5.6h13.8c0-2.4-.7-4.3-1.9-5.6-1.2-1.3-2.9-2-5-2zm-5.6-10.3v-.9c3.7-4.3 6.2-7.5 7.6-9.7h11v.7c-1.1 1.1-3 2.8-5.7 5s-4.8 3.8-6.3 4.9h-6.6zM154.5 133.5h-5.7v9.8h-9.7v-9.8H119v-6.9l20.7-30.4h9.2v29.6h5.7v7.7zm-15.4-7.8v-8c0-1.3.1-3.3.2-5.8s.2-4 .3-4.4h-.3c-.8 1.8-1.8 3.5-2.9 5.2l-8.6 13.1h11.3zM176.4 116.8h18.7v24.4c-3 1-5.9 1.7-8.6 2.1-2.7.4-5.4.6-8.2.6-7.1 0-12.5-2.1-16.3-6.3-3.8-4.2-5.6-10.2-5.6-18 0-7.6 2.2-13.5 6.5-17.8s10.4-6.4 18.1-6.4c4.8 0 9.5 1 14 2.9l-3.3 8c-3.4-1.7-7-2.6-10.7-2.6-4.3 0-7.8 1.5-10.4 4.4s-3.9 6.8-3.9 11.7c0 5.1 1 9 3.1 11.7s5.1 4 9.1 4c2.1 0 4.2-.2 6.4-.6v-9.8h-8.9v-8.3z"/></g><path class="st1" d="M332.3 80.1H230.7c-5.3 0-9.7 4.3-9.7 9.6v53.2c0 5.3 4.3 9.7 9.7 9.7h101.6c5.3 0 9.7-4.4 9.7-9.7V89.7c0-5.3-4.4-9.6-9.7-9.6m1.5 64.4H229.2V88.3h104.7v56.2h-.1zM361.3 80c0 2.7-2.2 4.8-4.8 4.8-2.7 0-4.8-2.2-4.8-4.8 0-5.3-4.3-9.7-9.7-9.7-2.7 0-4.8-2.2-4.8-4.8 0-2.7 2.2-4.8 4.8-4.8 10.6 0 19.3 8.7 19.3 19.3m19.4 0c0 2.7-2.2 4.8-4.8 4.8-2.7 0-4.8-2.2-4.8-4.8 0-16-13-29-29-29-2.7 0-4.8-2.2-4.8-4.8 0-2.7 2.2-4.8 4.8-4.8 21.2 0 38.6 17.3 38.6 38.6m19.3 0c0 2.7-2.2 4.8-4.8 4.8-2.7 0-4.8-2.2-4.8-4.8 0-26.7-21.7-48.4-48.4-48.4-2.7 0-4.8-2.2-4.8-4.8 0-2.7 2.2-4.8 4.8-4.8 32 0 58 26 58 58"/><path class="st1" d="M229.2 88.3h104.7v56.2H229.2V88.3zm1.5-8.2c-5.3 0-9.7 4.3-9.7 9.6v53.2c0 5.3 4.3 9.7 9.7 9.7h101.6c5.3 0 9.7-4.4 9.7-9.7V89.7c0-5.3-4.3-9.6-9.7-9.6H230.7zm106.4-14.6c0 2.7 2.2 4.8 4.8 4.8 5.3 0 9.7 4.3 9.7 9.7 0 2.7 2.2 4.8 4.8 4.8 2.7 0 4.8-2.2 4.8-4.8 0-10.7-8.7-19.3-19.3-19.3-2.6 0-4.8 2.2-4.8 4.8m0-19.3c0 2.7 2.2 4.8 4.8 4.8 16 0 29 13 29 29 0 2.7 2.2 4.8 4.8 4.8 2.7 0 4.8-2.2 4.8-4.8 0-21.3-17.4-38.7-38.7-38.7-2.5.1-4.7 2.2-4.7 4.9m0-19.4c0 2.7 2.2 4.8 4.8 4.8 26.7 0 48.4 21.7 48.4 48.4 0 2.7 2.2 4.8 4.8 4.8 2.7 0 4.8-2.2 4.8-4.8 0-32-26-58-58-58-2.6 0-4.8 2.2-4.8 4.8"/><path class="st1" d="M271.7 109v14c0 1.4 1.1 2.5 2.5 2.5h13.9c1.4 0 2.5-1.1 2.5-2.5v-14c0-1.4-1.1-2.5-2.5-2.5h-13.9c-1.4 0-2.5 1.1-2.5 2.5zm14.6 1.8v10.4H276v-10.4"/></symbol><symbol id="shape-icon-click-to-chat" viewBox="0 0 139.5 81.1"><path d="M47.8 6.8c23.1 0 41.9 13.8 41.9 30.8S71 68.4 47.8 68.4a51.76 51.76 0 0 1-9.8-.9 28 28 0 0 1-17.6 6.6 13.4 13.4 0 0 1-2-.1c-2.5-.2-3.5-1.1-1.5-1.8 3.6-1.3 5.7-5.7 6.9-9.4C13.8 57.7 7 49.5 6 40.1v-4.8C7.7 19.4 25.7 6.8 47.8 6.8m0-6.8C22.6 0 2.1 14.8 0 34.5v6.4c1 9.6 6.5 18.3 15.3 24.6a1.38 1.38 0 0 0-.4.3A7.72 7.72 0 0 0 9.7 74c.2 1.9 1.4 6.4 8.1 7a20.9 20.9 0 0 0 2.5.1 33.84 33.84 0 0 0 19.1-6.3 59.32 59.32 0 0 0 8.4.6c26.9 0 47.9-16.5 47.9-37.7S74.6 0 47.8 0"/><path d="M51.1 53.4v1.1a3.4 3.4 0 1 1-6.8 0v-1.1a3.4 3.4 0 0 1 6.8 0m-2.3-35.6a15.91 15.91 0 0 0-12.3 5.5 2.83 2.83 0 0 0-.9 2c0 2.2 2.6 3.7 4.8 1.8a10.84 10.84 0 0 1 8.3-4c4.2 0 7.1 2.6 7.1 6.3 0 5.3-5.4 6.5-8.6 6.7a2.47 2.47 0 0 0-2.3 2.7l.6 6.1a2.35 2.35 0 0 0 2.2 2.1h.2a2.36 2.36 0 0 0 2.2-2.2l.3-4c7.2-1.2 11.3-5.4 11.3-11.7 0-6.6-5.3-11.3-12.9-11.3M139.3 50.6a4.33 4.33 0 0 1 .1-.5c-1.3-12.8-14.7-22.5-31.1-22.5a36.07 36.07 0 0 0-10 1.3 32.27 32.27 0 0 1 1.9 10.8c0 11.4-6 21.5-15.7 28.5 5.7 5.3 14.2 8.6 23.9 8.6a34.76 34.76 0 0 0 5.5-.4c8.6 6.9 19.1 4.2 19.3 2.9-9.1-1.2-3.5-8.9-3.6-8.9 5.7-3.4 9.2-9.8 9.9-16.1 0-.2-.1-.3-.1-.5v-3.2zm-34.9 5.6a3.2 3.2 0 1 1 3.2-3.2 3.1 3.1 0 0 1-3.2 3.2m9.2 0a3.2 3.2 0 1 1 3.2-3.2 3.22 3.22 0 0 1-3.2 3.2m9.1 0a3.2 3.2 0 1 1 3.2-3.2 3.16 3.16 0 0 1-3.2 3.2"/></symbol><symbol id="shape-icon-close" viewBox="0 0 31.1 31.1"><path d="M31.1 1.4L29.7 0 15.6 14.1 1.4 0 0 1.4l14.1 14.2L0 29.7l1.4 1.4L15.6 17l14.1 14.1 1.4-1.4L17 15.6z"/></symbol><symbol id="shape-icon-debit-down" viewBox="0 0 33.7 34.3"><path fill="#F28A05" d="M16.8 34.3c.1 0 .2 0 .2-.1.7-.1 1.5-.9 2.7-2.5.1-.2.6-.7 1.3-1.5 3.3-3.9 11.7-13.7 12.4-14.4.5-.5.4-1.3-.3-1.3h-5.9c-1.3 0-1.9-.8-1.9-1.5V1.9c0-.8-.4-1.7-1.3-1.8-.1-.1-.2-.1-.3-.1H10C8.5 0 8.2.9 8.2 2v10.8c0 1.4-.7 1.7-1.6 1.7H.8c-.8 0-1.1.7-.4 1.4.2.2 1.7 1.9 3.6 4.1 3.8 4.4 9.2 10.7 10.2 12 1.2 1.5 1.9 2.3 2.6 2.3"/></symbol><symbol id="shape-icon-debit-up" viewBox="0 0 33.7 34.3"><path fill="#009DCC" d="M16.9 0c-.1 0-.2 0-.2.1-.7.1-1.5.9-2.7 2.4-.1.2-.6.7-1.3 1.5C9.4 7.9 1 17.8.3 18.5c-.5.5-.4 1.3.3 1.3h5.9c1.3 0 1.9.8 1.9 1.5v11.1c0 .8.4 1.7 1.3 1.8.1 0 .2.1.2.1h13.7c1.4 0 1.8-.9 1.8-2V21.5c0-1.4.7-1.7 1.6-1.7h5.8c.8 0 1.1-.7.4-1.4-.2-.2-1.7-1.9-3.6-4.2-3.8-4.4-9.2-10.7-10.2-12C18.3.8 17.6 0 16.9 0"/></symbol><symbol id="shape-icon-fanion-secondary-end" viewBox="0 0 57 50.8"><path fill="#82DAEF" d="M51.6 0H41.1c4 0 6.2 3.1 4.8 6.9l-13.3 37c-1.4 3.8-5.8 6.9-9.8 6.9h10.6c4 0 8.4-3.1 9.8-6.9l13.2-37c1.4-3.8-.8-6.9-4.8-6.9z"/><path fill="#1BA8CB" d="M41.1 0H30.4c4 0 6.2 3.1 4.8 6.9L22 43.9c-1.4 3.8-5.8 6.9-9.8 6.9h10.5c4 0 8.4-3.1 9.8-6.9l13.3-37c1.5-3.8-.7-6.9-4.7-6.9z"/><path fill="#0F6DA3" d="M30.4 0H19.9c4 0 6.2 3.1 4.8 6.9l-13.3 37c-1.4 3.8-5.8 6.9-9.8 6.9h10.6c4 0 8.4-3.1 9.8-6.9l13.2-37c1.5-3.8-.8-6.9-4.8-6.9z"/><path fill="#0055A4" d="M19.9 0H-.8v50.8h2.5c4 0 8.4-3.1 9.8-6.9l13.3-37c1.4-3.8-.9-6.9-4.9-6.9z"/></symbol><symbol id="shape-icon-help" viewBox="0 0 91.999 92"><path d="M45.385.004C19.982.344-.334 21.215.004 46.619c.34 25.393 21.209 45.715 46.611 45.377 25.398-.342 45.718-21.213 45.38-46.615-.34-25.395-21.21-45.716-46.61-45.377zM45.249 74l-.254-.004c-3.912-.116-6.67-2.998-6.559-6.852.109-3.788 2.934-6.538 6.717-6.538l.227.004c4.021.119 6.748 2.972 6.635 6.937C51.903 71.346 49.122 74 45.249 74zm16.455-32.659c-.92 1.307-2.943 2.93-5.492 4.916l-2.807 1.938c-1.541 1.198-2.471 2.325-2.82 3.434-.275.873-.41 1.104-.434 2.88l-.004.451H39.429l.031-.907c.131-3.728.223-5.921 1.768-7.733 2.424-2.846 7.771-6.289 7.998-6.435.766-.577 1.412-1.234 1.893-1.936 1.125-1.551 1.623-2.772 1.623-3.972a7.74 7.74 0 0 0-1.471-4.576c-.939-1.323-2.723-1.993-5.303-1.993-2.559 0-4.311.812-5.359 2.478-1.078 1.713-1.623 3.512-1.623 5.35v.457H27.935l.02-.477c.285-6.769 2.701-11.643 7.178-14.487C37.946 18.918 41.446 18 45.53 18c5.346 0 9.859 1.299 13.412 3.861 3.6 2.596 5.426 6.484 5.426 11.556 0 2.837-.896 5.502-2.664 7.924z"/></symbol><symbol id="shape-icon-internet-warranty-color" viewBox="0 0 108.9 71.8"><style>.st0{fill:#fff}.st1{fill:#009dcc}.st2{fill:#009ba4}</style><path class="st0" d="M.2 4.7V63l5 4.2h98.3l5.3-3.7V5.2l-5.2-5h-98L.2 4.7"/><path class="st1" d="M44.7 48.1h3.5v-4.6c0-3 1.4-4.4 3.8-4.4h.2v-3.7c-2.1-.1-3.2 1-4 2.7v-2.5h-3.5m-9.1 10.3c-1.1 0-1.9-.6-1.9-1.5 0-1.1.9-1.7 2.4-1.7.9 0 1.6.2 2.2.5v.6c.1 1.1-1.1 2.1-2.7 2.1zm-1.1 2.4c1.7 0 2.9-.6 3.8-1.6V48h3.4v-7.2c0-1.7-.4-3-1.3-4-.9-.9-2.3-1.4-4.2-1.4-2.1 0-3.5.4-4.8 1l.9 2.7c1.1-.4 2.1-.7 3.4-.7 1.8 0 2.7.8 2.7 2.3v.3c-.9-.3-1.8-.5-3-.5-2.9 0-5 1.2-5 4-.1 2.4 1.8 3.8 4.1 3.8zm-13.1-4.2c-1.7 0-3-1.2-3-2.9s1.3-2.9 3-2.9 3 1.2 3 2.9-1.3 2.9-3 2.9zm-.5 7.7c2.4 0 4.2-.5 5.3-1.7 1-1 1.6-2.7 1.6-4.9v-9.6h-3.5v1.6c-1-1-2.1-1.9-4-1.9-2.8 0-5.5 2.1-5.5 5.8 0 3.7 2.6 5.8 5.5 5.8 1.9 0 3-.8 4.1-2v.6c0 2.2-1.1 3.4-3.5 3.4-1.6 0-2.9-.4-4.2-1.1l-1.2 2.6c1.5.9 3.4 1.4 5.4 1.4zM91.7 48.1h3.5V35.6h-3.5v12.5zm-.1-13.8h3.7v-3.1h-3.7v3.1zm-5.5 14c1.2 0 2-.3 2.8-.7v-2.8c-.5.3-1.1.4-1.7.4-.8 0-1.1-.4-1.1-1.2v-5.3H89v-3h-3v-3.2h-3.5v3.2H81v3h1.5v5.9c0 2.8 1.5 3.7 3.6 3.7zm-18.6-.2H71v-6.9c0-1.7.9-2.5 2.2-2.5 1.3 0 2.1.9 2.1 2.5v6.9h3.5v-8c0-2.8-1.6-4.6-4.2-4.6-1.8 0-2.8.9-3.6 2v-1.8h-3.5v12.4zm-9.1-2.2c-1.1 0-1.9-.6-1.9-1.5 0-1.1.9-1.7 2.4-1.7.9 0 1.6.2 2.2.5v.6c.1 1.1-1.1 2.1-2.7 2.1zm-1.1 2.4c1.7 0 2.9-.6 3.8-1.6V48h3.4v-7.2c0-1.7-.4-3-1.3-4-.9-.9-2.3-1.4-4.2-1.4-2.1 0-3.4.4-4.8 1l.9 2.7c1.1-.4 2.1-.7 3.4-.7 1.8 0 2.7.8 2.7 2.3v.3c-.9-.3-1.8-.5-3-.5-2.9 0-5 1.3-5 4-.1 2.4 1.8 3.8 4.1 3.8z"/><path class="st2" d="M103.9.2H5.1C2.4.2.2 2.4.2 5.1v58.1c0 2.7 2.2 4.9 4.9 4.9h44.8c-.1-.5-.2-1 0-1.6H5.1c-1.9 0-3.4-1.5-3.4-3.4v-58c0-1.9 1.5-3.4 3.4-3.4h98.8c1.9 0 3.4 1.5 3.4 3.4v58.1c0 1.9-1.5 3.4-3.4 3.4H55.3l2.3-2.3c.2-.2.2-.6 0-.9-.1-.1-.3-.2-.4-.2-.2 0-.3.1-.4.2l-3.4 3.4-.2.2V67.3c0 .2 0 .4.1.6l3.1 3.6c.1.1.3.2.4.2.2 0 .3 0 .5-.2.3-.2.3-.6.1-.9l-2.1-2.4H104c2.7 0 4.9-2.2 4.9-4.9V5.1c-.1-2.7-2.3-4.9-5-4.9"/><path class="st1" d="M36.9 28.9c.8 0 1.4-.2 1.9-.5V27c-.6.3-1 .4-1.6.4-1.1 0-1.8-.5-1.8-1.8v-6.3h3.4v-1.4h-3.4v-3.3h-1.6v3.3h-1.5v1.4h1.5v6.5c.1 2.2 1.4 3.1 3.1 3.1m-16.4-.2h1.6v-6.2c0-2 1.4-3.4 3.2-3.4 1.9 0 3 1.3 3 3.3v6.3h1.6V22c0-2.6-1.5-4.3-4.1-4.3-1.9 0-3 .9-3.7 2.1v-1.9h-1.6v10.8zm-5.7 0h1.6V14.1h-1.6v14.6zM91 28.9c.8 0 1.4-.2 1.9-.5V27c-.6.3-1 .4-1.6.4-1.1 0-1.8-.5-1.8-1.8v-6.3H93v-1.4h-3.4v-3.3H88v3.3h-1.5v1.4H88v6.5c-.1 2.2 1.3 3.1 3 3.1m-15-6.2c.2-2.1 1.6-3.6 3.5-3.6 2.1 0 3.3 1.7 3.4 3.6H76zm0 1.3h8.5v-.6c0-3.2-1.8-5.7-5-5.7-3 0-5.2 2.5-5.2 5.6 0 3.4 2.4 5.6 5.4 5.6 2 0 3.4-.8 4.4-2l-1-.9c-.9.9-1.9 1.5-3.4 1.5-1.8.1-3.5-1.3-3.7-3.5zm-13.8 4.7h1.6v-6.2c0-2 1.4-3.4 3.2-3.4 1.9 0 3 1.3 3 3.3v6.3h1.6V22c0-2.6-1.5-4.3-4.1-4.3-1.9 0-3 .9-3.7 2.1v-1.9h-1.6v10.8zm-8.4 0h1.6v-4.3c0-3.3 1.9-4.9 4.3-4.9h.1v-1.7c-2-.1-3.6 1.2-4.4 3V18h-1.6v10.7zm-11.4-6c.2-2.1 1.6-3.6 3.5-3.6 2.1 0 3.3 1.7 3.4 3.6h-6.9zm0 1.3h8.5v-.6c0-3.2-1.8-5.7-5-5.7-3 0-5.2 2.5-5.2 5.6 0 3.4 2.4 5.6 5.4 5.6 2 0 3.4-.8 4.4-2l-1-.9c-.9.9-1.9 1.5-3.4 1.5-1.8.1-3.5-1.3-3.7-3.5zM100.2 34.5h.6l-.1-1.5 1.2.9.3-.6-1.4-.6 1.4-.6-.3-.5-1.2.8.1-1.4h-.6l.1 1.4-1.2-.8-.3.5 1.4.6-1.4.6.3.6 1.2-.9-.1 1.5"/></symbol><symbol id="shape-icon-internet-warranty" viewBox="0 0 53.84 35.39"><title>internet-garanti</title><path d="M51.4 0h-49A2.44 2.44 0 0 0 0 2.44v28.79a2.44 2.44 0 0 0 2.44 2.44h22.17a1.55 1.55 0 0 1 0-.77H2.44a1.67 1.67 0 0 1-1.67-1.67V2.44A1.67 1.67 0 0 1 2.44.77h49a1.67 1.67 0 0 1 1.67 1.67v28.79a1.67 1.67 0 0 1-1.71 1.67H27.34l1.12-1.12a.31.31 0 0 0 0-.44.29.29 0 0 0-.21-.09.28.28 0 0 0-.22.09L26.35 33a.26.26 0 0 0-.07.11.15.15 0 0 0 0 .09.34.34 0 0 0 .06.28l1.52 1.76a.28.28 0 0 0 .21.1.29.29 0 0 0 .22-.07.32.32 0 0 0 0-.45l-1-1.2H51.4a2.45 2.45 0 0 0 2.44-2.44V2.44A2.44 2.44 0 0 0 51.4 0M8.6 14.58h.77V7.67H8.6zm3.43 0h-.76v-5.1H12v.88a1.93 1.93 0 0 1 1.75-1 1.86 1.86 0 0 1 2 2v3.17H15v-3a1.36 1.36 0 0 0-1.41-1.54A1.5 1.5 0 0 0 12 11.66zm6.35-1.45a.75.75 0 0 0 .85.85 1.55 1.55 0 0 0 .77-.18v.65a1.86 1.86 0 0 1-.91.22 1.3 1.3 0 0 1-1.44-1.44v-3.08h-.75v-.67h.72V7.94h.76v1.54H20v.67h-1.62zm6.55-1.38A1.68 1.68 0 0 0 23.3 10a1.76 1.76 0 0 0-1.66 1.74zM23.44 14a2.14 2.14 0 0 0 1.61-.72l.47.42a2.63 2.63 0 0 1-2.1 1 2.55 2.55 0 0 1-2.55-2.7 2.52 2.52 0 0 1 2.45-2.66 2.43 2.43 0 0 1 2.38 2.7 2.09 2.09 0 0 1 0 .24h-4.06a1.8 1.8 0 0 0 1.8 1.72zm4.35.54H27V9.48h.76v1.33a2.19 2.19 0 0 1 2.08-1.42v.82h-.06a2.05 2.05 0 0 0-2 2.33zm4 0H31V9.48h.76v.88a1.93 1.93 0 0 1 1.75-1 1.86 1.86 0 0 1 2 2v3.17h-.76v-3a1.36 1.36 0 0 0-1.41-1.54 1.5 1.5 0 0 0-1.53 1.6zm9.06-2.83A1.68 1.68 0 0 0 39.22 10a1.76 1.76 0 0 0-1.66 1.74zM39.36 14a2.14 2.14 0 0 0 1.64-.68l.47.42a2.63 2.63 0 0 1-2.1 1A2.55 2.55 0 0 1 36.79 12a2.52 2.52 0 0 1 2.45-2.66 2.43 2.43 0 0 1 2.38 2.7 2.09 2.09 0 0 1 0 .24h-4A1.8 1.8 0 0 0 39.36 14zm4.64-.87a.75.75 0 0 0 .86.85 1.61 1.61 0 0 0 .74-.18v.65a1.92 1.92 0 0 1-.92.22 1.3 1.3 0 0 1-1.44-1.44v-3.08h-.71v-.67h.71V7.94H44v1.54h1.6v.67H44zm-31.23 8.1a1.33 1.33 0 0 0-1.41-1.33A1.32 1.32 0 0 0 10 21.23a1.31 1.31 0 0 0 1.39 1.33 1.33 1.33 0 0 0 1.41-1.33zm-1.6 4.91a5.53 5.53 0 0 1-2.54-.6l.56-1.22a3.77 3.77 0 0 0 1.94.52c1.11 0 1.64-.54 1.64-1.57V23a2.27 2.27 0 0 1-1.88.93 2.53 2.53 0 0 1-2.55-2.68 2.52 2.52 0 0 1 2.55-2.68 2.32 2.32 0 0 1 1.86.86v-.75h1.62v4.42c-.02 2.17-1.09 3.04-3.22 3.04zm8.06-4.05a2.53 2.53 0 0 0-1-.22c-.7 0-1.13.28-1.13.79 0 .44.37.69.89.69.76 0 1.28-.42 1.28-1zm0 2.31v-.62a2.23 2.23 0 0 1-1.74.73 1.78 1.78 0 0 1-2-1.76c0-1.26 1-1.83 2.31-1.83a4.12 4.12 0 0 1 1.41.23V21c0-.68-.42-1.05-1.24-1.05a4 4 0 0 0-1.58.31L16 19.05a5 5 0 0 1 2.23-.46 2.24 2.24 0 0 1 2.56 2.48v3.33zm6.35-4.15c-1.08 0-1.75.66-1.75 2v2.15h-1.68v-5.74h1.63v1.15a1.78 1.78 0 0 1 1.83-1.26v1.7zm4.23 1.84a2.5 2.5 0 0 0-1-.22c-.7 0-1.12.28-1.12.79 0 .44.36.69.89.69.76 0 1.27-.42 1.27-1zm0 2.31v-.62a2.23 2.23 0 0 1-1.74.73 1.78 1.78 0 0 1-2-1.76c0-1.26.95-1.83 2.31-1.83a4.12 4.12 0 0 1 1.41.23V21c0-.68-.42-1.05-1.23-1.05a4.1 4.1 0 0 0-1.59.31l-.41-1.25a5.1 5.1 0 0 1 2.23-.46 2.24 2.24 0 0 1 2.56 2.48v3.37zm6.61 0v-3.2c0-.77-.37-1.17-1-1.17s-1 .4-1 1.17v3.2h-1.71v-5.74h1.62v.81a2.05 2.05 0 0 1 1.67-.92 1.88 1.88 0 0 1 2 2.13v3.72zm5 .1c-1 0-1.67-.4-1.67-1.73v-2.72H39v-1.39h.69v-1.47h1.63v1.47h1.35v1.39h-1.39v2.45c0 .38.16.56.52.56a1.61 1.61 0 0 0 .8-.2v1.3a2.31 2.31 0 0 1-1.28.34m2.58-.1h1.63v-5.74H43.9zm0-6.38h1.71v-1.44h-1.75zm3.57-8.54h.31l-.06-.74.62.43.16-.28-.69-.32.69-.32-.2-.25-.62.43.06-.75h-.31l.06.75-.61-.43-.17.27.7.32-.7.32.17.28.61-.43z"/></symbol><symbol id="shape-icon-la-fibre" viewBox="0 0 249.2 47.5"><path fill="url(#shape-icon-la-fibre-a)" d="M206.6 35.8h-43.7c-1.9 0-3.5 1.6-3.5 3.5s1.6 3.5 3.5 3.5h43.7c1.9 0 3.5-1.6 3.5-3.5s-1.5-3.5-3.5-3.5z"/><path fill="url(#shape-icon-la-fibre-b)" d="M244.4 15.3h-73.2c-1.9 0-3.5 1.6-3.5 3.5s1.6 3.5 3.5 3.5h73.2c1.9 0 3.5-1.6 3.5-3.5s-1.6-3.5-3.5-3.5z"/><path fill="url(#shape-icon-la-fibre-c)" d="M204.3 4.5h-92.5c-1.9 0-3.5 1.6-3.5 3.5s1.6 3.5 3.5 3.5h92.5c1.9 0 3.5-1.6 3.5-3.5s-1.5-3.5-3.5-3.5z"/><path fill="url(#shape-icon-la-fibre-d)" d="M232.8 25.6h-92.5c-1.9 0-3.5 1.6-3.5 3.5s1.6 3.5 3.5 3.5h92.5c1.9 0 3.5-1.6 3.5-3.5s-1.6-3.5-3.5-3.5z"/><g><g fill="#105BA0"><path d="M90.7 29.3c0 8.2 6.1 14.3 13.8 14.3 8 0 14-6.6 14-14.7 0-6.6-5.7-14-13.7-14-7.3 0-10.5 5.1-10.5 5.1V3h-3.6v26.3zm24.1 0c0 5.9-4.1 11.2-10.3 11.2-5.7 0-10.4-5-10.4-11.1 0-6.2 5.1-11.1 10.4-11.2 5.7-.1 10.3 4.9 10.3 11.1z"/><path d="M104.5 44c-8.1 0-14.1-6.3-14.1-14.7V2.7h4.3V19c1.3-1.5 4.5-4.4 10.2-4.4 8.3 0 14 7.6 14 14.3 0 8.4-6.3 15.1-14.4 15.1zM91 3.3v26c0 8 5.8 14 13.5 14s13.7-6.3 13.7-14.4c0-6.5-5.5-13.7-13.4-13.7-7 0-10.2 4.9-10.2 4.9l-.6 1V3.3h-3zm13.5 37.5c-5.9 0-10.7-5.1-10.7-11.5 0-6.1 5-11.5 10.7-11.5 5.9 0 10.7 5.1 10.7 11.5 0 6.5-4.6 11.5-10.7 11.5zm0-22.3c-5.4 0-10 5.1-10 10.8 0 6 4.5 10.8 10 10.8 5.7 0 10-4.7 10-10.8 0-6-4.5-10.8-10-10.8z"/></g><g fill="#105BA0"><path d="M61.3 43.3h3.6V18.4h6.9v-3h-7v-1.1c0-6.8 2-10.2 9.2-8.2l.9-3c-1.6-.4-2.9-.6-4.3-.6-5.6 0-9.2 4-9.2 11.8v1.1h-3.5v3h3.5v24.9z"/><path d="M65.2 43.7H61v-25h-3.5v-3.6H61v-.7c0-7.7 3.5-12.1 9.5-12.1 1.4 0 2.7.2 4.4.6l.3.1-1 3.6-.3-.1c-3.3-.9-5.5-.7-6.9.7-1.3 1.3-1.9 3.6-1.9 7.2v.7h7v3.6h-6.9v25zm-3.6-.7h2.9V18.1h6.9v-2.3h-7v-1.4c0-3.9.6-6.3 2.1-7.7 1.5-1.5 3.8-1.8 7.3-.9l.7-2.3C73 3.1 71.8 3 70.6 3c-5.6 0-8.9 4.2-8.9 11.5v1.4h-3.5v2.3h3.5V43z"/></g><g fill="#105BA0"><path d="M122.8 43.2h3.6v-17c0-5.6 1.8-7.9 7.1-7.9 1.4 0 3.1.2 4.9.7l.8-3.3c-2.2-.5-3.9-.7-5.8-.7-7.9 0-10.8 4-10.8 10.7v17.5z"/><path d="M126.7 43.6h-4.3V25.7c0-7.6 3.5-11.1 11.1-11.1 2 0 3.7.2 5.8.7l.3.1-1 3.9-.3-.1c-1.8-.5-3.4-.7-4.9-.7-5 0-6.8 2-6.8 7.6v17.5zm-3.6-.7h2.9V26.2c0-6 2-8.3 7.5-8.3 1.4 0 3 .2 4.7.6l.7-2.6c-1.9-.4-3.5-.6-5.3-.6-7.2 0-10.4 3.2-10.4 10.4v17.2z"/></g><g fill="#105BA0"><path d="M79.8 15.4h3.6v27.8h-3.6z"/><path d="M83.7 43.6h-4.3V15.1h4.3v28.5zm-3.6-.7H83V15.7h-2.9v27.2z"/><g><path d="M84.1 5.7c0-1.5-1.2-2.6-2.6-2.6-1.5 0-2.6 1.2-2.6 2.6 0 1.5 1.2 2.6 2.6 2.6 1.4 0 2.6-1.2 2.6-2.6z"/><path d="M81.5 8.6c-1.6 0-3-1.3-3-3 0-1.6 1.3-3 3-3 1.6 0 3 1.3 3 3-.1 1.7-1.4 3-3 3zm0-5.2c-1.3 0-2.3 1-2.3 2.3 0 1.3 1 2.3 2.3 2.3 1.3 0 2.3-1 2.3-2.3 0-1.3-1.1-2.3-2.3-2.3z"/></g></g><g fill="#105BA0"><path d="M153.2 14.9c-7.8 0-13.8 6.3-13.8 14.4 0 8.1 6.4 14.3 14.5 14.3 3.9 0 7.6-1.2 10.2-3.2l-1.6-2.6c-2.2 1.6-5 2.6-8.1 2.6-7.3 0-11.2-5-11.5-10.6h17.7c4 0 5.3-1.7 4.7-5.6-.7-5.1-6.3-9.3-12.1-9.3zm7.8 12h-18.1c.6-4.5 4.2-8.9 10.3-8.9 5.5 0 8.8 4.1 8.8 7.6 0 .9-.1 1.3-1 1.3z"/><path d="M153.9 44c-8.3 0-14.8-6.5-14.8-14.7s6.2-14.7 14.1-14.7c6 0 11.7 4.3 12.5 9.6.3 2.1.1 3.6-.7 4.6-.8 1-2.2 1.4-4.3 1.4h-17.3c.4 5 3.9 10 11.1 10 2.9 0 5.6-.9 7.9-2.5l.3-.2 2 3.1-.2.2c-2.8 2-6.6 3.2-10.6 3.2zm-.7-28.7c-7.6 0-13.5 6.2-13.5 14 0 7.9 6.2 14 14.2 14 3.7 0 7.2-1.1 9.8-2.9l-1.3-2c-2.3 1.6-5 2.4-8 2.4-7.8 0-11.5-5.5-11.8-11v-.4h18c1.9 0 3.1-.4 3.8-1.2.7-.8.9-2.1.6-4-.7-4.8-6.1-8.9-11.8-8.9zm7.8 12h-18.5l.1-.4c.7-4.6 4.2-9.2 10.6-9.2 5.5 0 9.2 4.1 9.2 7.9 0 .6 0 1.7-1.4 1.7zm-17.7-.7H161c.5 0 .7-.1.7-1 0-3-3-7.3-8.5-7.3V18v.3c-5.8.1-9.1 4.2-9.9 8.3z"/></g><g><g fill="#105BA0"><path d="M28.9 43.5c7 0 10.5-6.1 10.5-6.1V43h3.3V29.5c0-7.7-6.2-14-13.8-14-7.5 0-13.8 6.7-13.8 14.6 0 7.5 5.9 13.4 13.8 13.4zm0-3.3c-5.6 0-10.2-4.8-10.2-10.7 0-5.8 4.7-10.7 10.1-10.7 5.6 0 10.1 4.8 10.1 10.7.2 5.9-4.4 10.7-10 10.7z"/><path d="M28.9 43.9c-8 0-14.1-6-14.1-13.9 0-8.1 6.4-14.9 14.1-14.9 7.8 0 14.1 6.4 14.1 14.4v14h-4v-4.9c-1.3 1.7-4.6 5.3-10.1 5.3zm0-28.1c-7.3 0-13.5 6.5-13.4 14.2 0 7.5 5.8 13.2 13.5 13.2 6.7 0 10.1-5.8 10.2-5.9l.6-1.1v6.6h2.6V29.5c-.1-7.6-6.1-13.7-13.5-13.7zm0 24.7c-5.8 0-10.5-4.9-10.5-11 0-2.9 1.1-5.6 3.1-7.8 2-2.1 4.7-3.3 7.3-3.3 5.8 0 10.5 4.9 10.5 11 .1 6.2-4.6 11.1-10.4 11.1zm0-21.7v.3c-2.5 0-5 1.1-6.9 3.1-1.9 2-2.9 4.6-2.9 7.3 0 5.7 4.4 10.4 9.8 10.4s9.8-4.7 9.8-10.4-4.4-10.4-9.8-10.4v-.3z"/></g></g><g><g fill="#105BA0"><path d="M1.6 4v30.2c0 4.5.8 9.4 7.5 9.4 1.4 0 3.2-.3 4.7-.7l-.6-3.2c-6.1 1.6-8 .3-8-6.8V4H1.6z"/><path d="M9 43.9c-6.9 0-7.8-5.2-7.8-9.7V3.6h4.2v29.2c0 3.4.4 5.3 1.4 6.2 1.1 1.1 2.8 1.1 6.2.2l.3-.1.8 3.8-.3.1c-1.5.6-3.3.9-4.8.9zM1.9 4.3v29.9c0 8 3.6 9.1 7.1 9.1 1.3 0 2.9-.2 4.3-.6l-.5-2.5c-1.5.4-2.6.5-3.5.5-1.3 0-2.3-.3-3-1-1.1-1.1-1.6-3.1-1.6-6.7V4.3H1.9z"/></g></g></g></symbol><symbol id="shape-icon-playzer" viewBox="0 0 287.9 93.4"><path fill="#DD6744" d="M195.8 44h-35.7l14.2-31.9h-18.4V0h40l-14.7 31.8h14.7V44zM232.6 44h-32.8V0h32.8v12.1h-17.7V16h17.7v12.2h-17.7v3.7h17.7V44zM277.4 44L269 30.2c2.6-1.3 4.6-3.2 6.1-5.8 1.5-2.6 2.3-5.4 2.3-8.5 0-4.4-1.5-8.2-4.4-11.3-3-3-6.5-4.6-10.6-4.6h-25.8v44h15.1V31.9h.1l17.8 29.3h18.3L277.4 44zm-25.7-23.9v-8h6.9c1.1 0 2 .4 2.7 1.2.7.8 1.1 1.7 1.1 2.8 0 1.1-.4 2.1-1.1 2.8-.7.8-1.7 1.2-2.7 1.2h-6.9z"/><path fill="#3C3C3B" d="M41.6 31.4c0 4.7-1.5 8.7-4.5 12-3 3.3-6.6 5-10.8 5h-11v12.8H0V14.4h26.3c4.2 0 7.8 1.6 10.8 4.9 3 3.4 4.5 7.4 4.5 12.1zm-15.3.2c0-1.1-.4-2.1-1.1-3-.8-.8-1.7-1.3-2.8-1.3h-7v8.5h7c1.1 0 2-.4 2.8-1.2.8-.8 1.1-1.8 1.1-3zM74.2 61.2H45.7V14.4h15.4v33.9h13.1v12.9zM130.6 61.2H112l-1.8-4.7h-14l-1.8 4.7H75.7l18.1-46.8h18.7l18.1 46.8zM106 45.8l-2.8-7.3-2.9 7.3h5.7zM170.5 14.4l-14.2 31.7-6.3 15h-15.4l6.3-14.7-14.3-32.1h14.7l7.2 15.5 7.5-15.5h14.5z"/><g fill="#DD6744"><path d="M0 88.5V71.8h8.9c1.9 0 3.3.5 4.4 1.6 1.1 1.1 1.6 2.5 1.6 4.1 0 1.3-.3 2.4-.9 3.2s-1.3 1.4-2.1 1.8l3 5.9H9.2l-2.3-5.2H5v5.2H0zm5-9.7h3.1c.5 0 .9-.1 1.2-.3.3-.2.5-.6.5-1s-.2-.7-.5-1c-.3-.2-.7-.3-1.2-.3H5v2.6zM15.3 82.4c0-1.8.6-3.3 1.8-4.5 1.2-1.2 2.8-1.8 4.7-1.8 1.8 0 3.3.6 4.5 1.8 1.2 1.2 1.8 2.9 1.8 5v.9h-8.2c.1.4.4.8.9 1.1s1 .5 1.7.5c.4 0 .9-.1 1.5-.2s1-.4 1.3-.6l1.9 2.8c-.6.5-1.3.8-2.3 1.1-.9.3-1.9.4-2.9.4-1.9 0-3.5-.6-4.8-1.7-1.3-1.3-1.9-2.8-1.9-4.8zm4.6-1.4h4c-.2-1-.9-1.5-2-1.5s-1.8.5-2 1.5zM28.8 82.1c0-1.9.5-3.4 1.5-4.5s2.3-1.6 3.8-1.6c1.4 0 2.5.5 3.4 1.6v-1.3H42v10.8c0 1-.2 1.9-.5 2.6-.3.8-.7 1.4-1.2 1.8-.5.4-1.1.8-1.7 1.1-.7.3-1.3.5-1.9.5-.6.1-1.3.1-1.9.1-2.1 0-4-.6-5.5-1.8l1.9-3.2c.9.9 2.1 1.3 3.6 1.3.7 0 1.4-.2 1.9-.6.6-.4.9-1 .9-1.9v-.7c-1 1.1-2.1 1.6-3.4 1.6-1.5 0-2.8-.5-3.8-1.5s-1.6-2.3-1.6-4.3zm5.2-1.5c-.4.3-.6.8-.6 1.5s.2 1.2.6 1.5 1 .5 1.6.5c.3 0 .7-.1 1-.2s.6-.3.8-.6v-2.5c-.2-.2-.5-.4-.8-.6-.4-.1-.7-.2-1-.2-.6.1-1.2.2-1.6.6zM43.7 82.4c0-1.9.5-3.5 1.5-4.6 1-1.1 2.3-1.7 3.8-1.7 1.4 0 2.5.5 3.4 1.6v-1.3h4.5v12.1h-4.5v-1.3c-.9 1-2.1 1.6-3.4 1.6-1.5 0-2.8-.6-3.8-1.7s-1.5-2.7-1.5-4.7zm4.6 0c0 .7.2 1.3.6 1.7.4.4 1 .6 1.6.6.8 0 1.4-.3 1.9-.8v-3.1c-.4-.5-1.1-.8-1.9-.8-.6 0-1.2.2-1.6.6-.4.5-.6 1.1-.6 1.8zM59.3 88.5V76.4h4.5v1.3c.4-.4.9-.8 1.6-1.2s1.4-.5 2.1-.5v4.3c-.3-.1-.6-.1-1-.1-1.3 0-2.2.3-2.7.9v7.4h-4.5zM68.3 82.4c0-2 .5-3.5 1.5-4.6 1-1.1 2.3-1.7 3.8-1.7 1.4 0 2.5.5 3.4 1.6v-5.9h4.5v16.7H77v-1.3c-.9 1-2.1 1.6-3.4 1.6-1.5 0-2.8-.6-3.8-1.7s-1.5-2.7-1.5-4.7zm4.6 0c0 .7.2 1.3.6 1.7.4.4 1 .6 1.6.6.8 0 1.4-.3 1.9-.8v-3.1c-.4-.5-1.1-.8-1.9-.8-.6 0-1.2.2-1.6.6s-.6 1.1-.6 1.8zM83.1 82.4c0-1.8.6-3.3 1.8-4.5 1.2-1.2 2.8-1.8 4.7-1.8 1.8 0 3.3.6 4.5 1.8 1.2 1.2 1.8 2.9 1.8 5v.9h-8.2c.1.4.4.8.9 1.1.5.3 1 .5 1.7.5.4 0 .9-.1 1.5-.2.6-.2 1-.4 1.3-.6l1.9 2.8c-.6.5-1.3.8-2.3 1.1-.9.3-1.9.4-2.9.4-1.9 0-3.5-.6-4.8-1.7-1.2-1.3-1.9-2.8-1.9-4.8zm4.6-1.4h4c-.2-1-.9-1.5-2-1.5-1 0-1.7.5-2 1.5zM97.1 88.5v-3.4l4.2-4.7h-4.2v-4h10.4v3.2l-4.4 4.9h4.4v4H97.1zM114.4 76.4h4.7l2.3 6.9 2.3-6.9h4.7l-4.7 12.1H119l-4.6-12.1zM130.4 86.9c-1.2-1.2-1.8-2.7-1.8-4.5 0-1.8.6-3.3 1.8-4.5 1.2-1.2 2.9-1.8 4.9-1.8 2.1 0 3.7.6 4.9 1.8 1.2 1.2 1.8 2.7 1.8 4.5 0 1.8-.6 3.3-1.8 4.5s-2.9 1.9-4.9 1.9c-2.1 0-3.7-.6-4.9-1.9zm2.7-4.5c0 .7.2 1.3.6 1.7.4.4.9.7 1.6.7.7 0 1.2-.2 1.6-.7s.6-1 .6-1.7-.2-1.2-.6-1.7-.9-.7-1.6-.7c-.7 0-1.2.2-1.6.7-.4.5-.6 1-.6 1.7zM142.7 80.4v-4h2v-3.2h4.5v3.2h2.5v4h-2.5v3.3c0 .3.1.6.3.8.2.2.4.3.7.3.4 0 .7-.1.9-.2l.8 3.4c-.6.5-1.6.8-3 .8-1.3 0-2.4-.3-3.1-1-.7-.6-1.1-1.6-1.1-2.8v-4.6h-2zM153.3 88.5V76.4h4.5v1.3c.4-.4.9-.8 1.6-1.2s1.4-.5 2.1-.5v4.3c-.3-.1-.6-.1-1-.1-1.3 0-2.2.3-2.7.9v7.4h-4.5zM162.2 82.4c0-1.8.6-3.3 1.8-4.5 1.2-1.2 2.8-1.8 4.7-1.8 1.8 0 3.3.6 4.5 1.8 1.2 1.2 1.8 2.9 1.8 5v.9h-8.2c.1.4.4.8.9 1.1.5.3 1 .5 1.7.5.4 0 .9-.1 1.5-.2s1-.4 1.3-.6l1.9 2.8c-.6.5-1.3.8-2.3 1.1-.9.3-1.9.4-2.9.4-1.9 0-3.5-.6-4.8-1.7-1.3-1.3-1.9-2.8-1.9-4.8zm4.6-1.4h4c-.2-1-.9-1.5-2-1.5s-1.7.5-2 1.5zM182.9 88.5V76.4h4.5v1.4c.3-.4.8-.8 1.6-1.1.7-.4 1.5-.5 2.4-.5 1.8 0 3 .7 3.5 2.1.4-.6 1-1.1 1.7-1.5.8-.4 1.6-.6 2.5-.6 1.1 0 2.1.3 2.7.9.7.6 1 1.5 1 2.7v8.7h-4.5v-7c0-.4-.1-.7-.3-1-.2-.2-.6-.4-1-.4-.7 0-1.3.3-1.8 1v7.4h-4.5v-7c0-.9-.5-1.3-1.4-1.3-.7 0-1.3.3-1.8 1v7.4h-4.6zM205.3 85v-8.6h4.5v6.7c0 1.1.6 1.7 1.7 1.7.7 0 1.3-.3 1.9-1v-7.4h4.5v12.1h-4.5v-1.4c-1 1.1-2.4 1.6-4.1 1.7-1.3 0-2.3-.4-3-1.1-.6-.7-1-1.6-1-2.7zM219.5 86.9l1.8-3c.5.4 1.2.7 2.1 1.1.9.3 1.7.5 2.3.5.8 0 1.2-.2 1.2-.5 0-.2-.2-.4-.7-.4-.5-.1-1-.2-1.7-.3-.7-.1-1.4-.3-2.1-.5-.7-.2-1.3-.6-1.8-1.2s-.7-1.4-.7-2.3c0-1.1.5-2.1 1.5-2.9 1-.8 2.4-1.2 4.1-1.2 1.9 0 3.7.5 5.2 1.5l-1.6 2.9c-.4-.3-.9-.6-1.6-.9-.6-.3-1.3-.4-2-.4s-1.1.2-1.1.5c0 .2.2.3.7.4.5.1 1 .2 1.7.3.7.1 1.3.3 2 .5s1.2.7 1.7 1.3c.5.6.7 1.4.7 2.3 0 1.2-.5 2.2-1.5 3-1 .8-2.4 1.1-4.2 1.1-1.1 0-2.2-.2-3.4-.5-1.1-.3-2-.7-2.6-1.3zM233.1 74.8c-.5-.5-.7-1.1-.7-1.8s.2-1.3.7-1.8c.5-.5 1.1-.7 1.8-.7s1.3.2 1.8.7c.5.5.7 1.1.7 1.8s-.2 1.3-.7 1.8c-.5.5-1.1.7-1.8.7s-1.3-.2-1.8-.7zm-.4 13.7V76.4h4.5v12.1h-4.5zM238.8 82.4c0-2 .5-3.6 1.5-4.7s2.3-1.7 3.8-1.7c1.4 0 2.5.5 3.4 1.6v-1.3h4.5V93h-4.5v-5.9c-.9 1-2.1 1.6-3.4 1.6-1.5 0-2.8-.6-3.8-1.7-1-1-1.5-2.6-1.5-4.6zm4.6 0c0 .7.2 1.3.6 1.7.4.4 1 .6 1.6.6.3 0 .6-.1 1-.2.4-.2.7-.4.8-.6v-3.1c-.2-.3-.5-.5-.8-.6-.4-.1-.7-.2-1-.2-.6 0-1.2.2-1.6.6-.3.5-.6 1.1-.6 1.8zM254.5 85v-8.6h4.5v6.7c0 1.1.6 1.7 1.7 1.7.7 0 1.3-.3 1.9-1v-7.4h4.5v12.1h-4.5v-1.4c-1 1.1-2.4 1.6-4.1 1.7-1.3 0-2.3-.4-3-1.1-.7-.7-1-1.6-1-2.7zM268.8 82.4c0-1.8.6-3.3 1.8-4.5 1.2-1.2 2.8-1.8 4.7-1.8 1.8 0 3.3.6 4.5 1.8 1.2 1.2 1.8 2.9 1.8 5v.9h-8.2c.1.4.4.8.9 1.1.5.3 1 .5 1.7.5.4 0 .9-.1 1.5-.2.6-.2 1-.4 1.3-.6l1.9 2.8c-.6.5-1.3.8-2.3 1.1-.9.3-1.9.4-2.9.4-1.9 0-3.5-.6-4.8-1.7-1.2-1.3-1.9-2.8-1.9-4.8zm4.6-1.4h4c-.2-1-.9-1.5-2-1.5s-1.7.5-2 1.5zM283.6 88c-.5-.5-.8-1.2-.8-1.9s.3-1.4.8-1.9 1.1-.8 1.8-.8 1.3.3 1.8.8.8 1.2.8 1.9-.3 1.4-.8 1.9-1.1.8-1.8.8-1.3-.3-1.8-.8z"/></g></symbol><symbol id="shape-icon-r-error" viewBox="0 0 792 612"><circle cx="404.979" cy="305.955" r="240.888"/><path fill="#FFF" d="M401.596 2C235.501 2 100.857 138.066 100.857 305.907c0 167.842 134.644 303.907 300.737 303.907 166.092 0 300.733-136.065 300.733-303.907C702.328 138.066 567.685 2 401.596 2zm1.813 542.657c-130.979 0-237.157-107.3-237.157-239.657 0-132.357 106.179-239.657 237.157-239.657 130.977 0 237.155 107.3 237.155 239.657 0 132.357-106.176 239.657-237.155 239.657z"/><path fill="#FFF" d="M572.652 215.159l-79.026-79.082-91.404 91.404-91.375-91.404-79.056 79.082 91.405 91.347-91.405 91.404 79.056 79.084 91.375-91.405 91.404 91.405 79.026-79.084-91.375-91.404 91.375-91.347z"/></symbol><symbol id="shape-icon-start-canal" viewBox="0 0 74.8 43.9"><path fill="#009CD8" d="M0 0v43.9h74.8V0H0z"/><path fill="#FFF" d="M14.7 8.5c-.9-.8-1.9-1.2-2.9-1.2-.5 0-.9.1-1.3.4-.4.3-.6.7-.6 1.1 0 .5.3.9.9 1.2.2.1.9.3 2.1.7 1.4.4 2.4 1 3.1 1.7.7.8 1.1 1.8 1.1 3s-.2 2.3-.6 3.1c-.5 1-1.4 1.8-2.6 2.3-1 .5-2.2.7-3.4.7-1.2 0-2.5-.3-3.8-.8-.7-.3-1.2-.5-1.5-.8-.2-.1-.3-.2-.5-.4L6.5 16c1.3 1.2 2.6 1.7 3.9 1.7.6 0 1.1-.1 1.5-.4.4-.3.7-.7.7-1.3 0-.5-.2-.9-.7-1.2-.2-.2-.6-.3-1-.5-.2 0-.5-.1-.9-.3l-1-.1c-.6-.2-1.1-.4-1.7-.7-1.3-.7-2-1.9-2-3.8 0-1.7.5-3.1 1.6-4.1C8 4.2 9.4 3.7 11.1 3.7c1.8 0 3.6.5 5.4 1.4l-1.8 3.4zM29.4 7.9h-3.6l-1.6 13.2h-4.3l1.7-13.2h-3.7l.5-3.8h11.5l-.5 3.8zM53.9 21.1l-4.2-6.5v6.5h-4.4v-17h6.8c1.8 0 3.2.5 4.2 1.5.9 1 1.4 2.3 1.4 3.7 0 .8-.2 1.6-.5 2.3-.4.8-.9 1.4-1.6 1.8-.4.2-.9.5-1.6.6l5.3 6.9h-5.4v.2zm-3.4-9.4c1.8 0 2.7-.7 2.7-2.1 0-.7-.3-1.3-.8-1.6-.4-.3-1-.5-1.9-.5h-.8v4.2h.8zM66.6 7.9v13.2h-4.4V7.9h-3.5V4.1h11.6v3.8h-3.7zM39.3 21.1l-.8-3.1h-5.9l-1.4 3.1h-4.7l8.4-16.9h4.8l4.1 16.9h-4.5zm-2.2-9.5c-.1-.6-.2-1-.2-1.1-.1-.5-.1-.8-.2-1.4-.1.2-.2.5-.2.6-.2.5-.4 1-.6 1.4l-1.6 3.5h3.5l-.7-3zM8.5 28.3c1.3 0 2 .6 2 1.8 0 .4-.1.7-.3 1-.1.2-.3.3-.5.5.4.1.8.2 1 .4.3.3.5.8.5 1.3 0 .7-.3 1.2-.7 1.5-.4.3-1 .5-1.7.5h-3v-7h2.7zM7.9 31c.6 0 .9-.2.9-.7 0-.5-.3-.7-.9-.7h-.3V31h.3zm.1 2.9c.8 0 1.3-.3 1.3-.7 0-.3-.1-.5-.3-.6-.2-.1-.5-.1-.9-.1h-.5V34H8v-.1zM15.4 31.9v3.4h-1.8v-3.4l-2.5-3.6h2.1l1.4 1.9 1.2-1.9H18l-2.6 3.6z"/><path fill="#0E191E" d="M20.7 39.4h49.6V24.1H20.7v15.3z"/><path fill="#FFF" d="M30.4 35.8c0 .1-.1.2-.1.2l-.1.1c-1.2.5-2.6.3-2.6.3-2.2-.2-3.6-1.6-4.1-3.4-.7-2.6.7-4.5 1-4.9.8-.9 2-1.6 3.2-1.8 1.5-.2 2.7.1 3.1.3 0 0 .5.2.9.4.2.1.2.2.2.2v.2l-.4 1.9c0 .1-.1.1-.1.1l-.2-.1c-1.2-.8-2.5-.7-2.5-.7-1 .1-2.2.6-2.6 2-.3 1.2 0 2.2.7 2.8.5.4 1.2.6 2 .6.9-.1 1.6-.4 1.5-.4h.1l.2-.1v.2l-.2 2.1zM50.4 36.2H48l-3.2-5.7-.8 5.6v.1h-2.4-.1s-.1-.1 0-.1l1.3-9V27H45.6l2.9 5.1.1.1.1-.1.7-5H52l-1.3 9.1c-.2-.1-.2 0-.3 0 .1 0 .1 0 0 0M38.7 27c0-.1 0-.1 0 0l-.1-.1h-3l-.1.1-4.4 9v.1H33.9V36l.6-1.4c0-.1.1-.1.1-.1s0-.1.1-.1h3.2v.1l.4 1.4v.1H40.6l-1.9-9zm-1.1 5.5h-2v-.1l1.3-2.9.7 3M55.1 26.9s-.1 0-.1.1l-3.5 9.2v.1h2.4s.1 0 .1-.1l.6-1.5.1-.1h3.2s.1 0 .1.1l.6 1.5.1.1h2.4s.1 0 0-.1L57.7 27l-.1-.1h-2.5zm.3 5.8s-.1 0 0 0l.9-2.9.9 2.8s0 .1-.1.1h-1.7zM64.7 33.8s0 .1 0 0l3 .1s.1 0 .1.1v2.2s0 .1-.1.1H62s-.1 0-.1-.1v-9.5s0-.1.1-.1h2.6s.1 0 .1.1v7.1z"/></symbol></svg>