<svg xmlns="http://www.w3.org/2000/svg"><symbol id="shape-icon-cancel" viewBox="0 0 512 512"><path d="M479.8 131.01L376.026 27.164 256 147.19 136.012 27.164 32.201 131.01l120.027 119.952L32.201 370.987l103.811 103.848L256 354.808l120.026 120.027L479.8 370.987 359.81 250.962 479.8 131.01z"/></symbol><symbol id="shape-icon-check" viewBox="0 0 512 512"><path d="M432 64L192 304 80 192 0 272l192 192 320-320-80-80z"/></symbol><symbol id="shape-icon-close" viewBox="0 0 31.1 31.1"><path d="M31.1 1.4L29.7 0 15.6 14.1 1.4 0 0 1.4l14.1 14.2L0 29.7l1.4 1.4L15.6 17l14.1 14.1 1.4-1.4L17 15.6z"/></symbol><symbol id="shape-icon-email" viewBox="0 0 26 18"><path d="M18.12 9.002l5.807-4.398.06 8.797L18.122 9zm5.73 6.8c-.016.02-.035.036-.054.054-.013.007-.023.018-.036.027a.875.875 0 0 1-.064.042c-.013.006-.026.015-.038.019-.025.011-.056.02-.081.03-.016.001-.026.006-.038.01-.042.008-.08.016-.127.016L2.69 15.992a.536.536 0 0 1-.127-.015.114.114 0 0 1-.04-.014.498.498 0 0 1-.077-.024c-.017-.006-.029-.017-.042-.026a.531.531 0 0 1-.064-.036.21.21 0 0 1-.036-.03l-.055-.05c-.003-.006-.008-.01-.012-.016l7.315-5.532s1.463 1.44 3.469 1.44c2.003.003 3.444-1.438 3.444-1.438l7.394 5.539-.01.012zM2.006 4.599l5.876 4.399-5.811 4.391-.065-8.79zm.145-2.408l.047-.043c.017-.013.027-.026.044-.035.02-.014.037-.024.055-.035.016-.01.033-.016.05-.026.02-.011.041-.014.064-.022.016-.003.035-.013.05-.016a.493.493 0 0 1 .085-.007.236.236 0 0 1 .04-.005l20.728.005c.011 0 .025.004.039.005l.082.007.052.016c.022.007.045.012.066.022.018.008.03.019.048.025.02.012.04.023.057.037.015.012.027.023.04.032.02.016.052.05.052.05.005.006.007.01.013.015L15.49 8.462s-1.328 1.088-2.485 1.087c-1.16-.003-2.506-1.093-2.506-1.093L2.141 2.211c.004-.004.006-.01.01-.02zM23.3.007L2.573 0A2.59 2.59 0 0 0 .305 1.358c-.197.37-.308.788-.305 1.239l.094 12.795a2.62 2.62 0 0 0 2.608 2.601L23.43 18c.626 0 1.197-.227 1.643-.596A2.568 2.568 0 0 0 26 15.401l-.093-12.796A2.614 2.614 0 0 0 23.3.007z" fill-rule="evenodd"/></symbol><symbol id="shape-icon-equipment" viewBox="0 0 136.2 80.8"><path d="M87.6 78.7v-5.2h2.7c-.1-.7-.1-1.4 0-2.1H62.8V61c0-.3-.5-.6-1-.6h-9.2c-.6 0-1 .3-1 .6v10.3H2.1V36.9h88.3c-.1-.7-.1-1.4 0-2.1H2.1c-1.1 0-2.1.9-2.1 2.1v34.5c0 1.1.9 2.1 2.1 2.1h7.3v4.9c0 1.1.9 2.1 2.1 2.1h15.4c1.1 0 2.1-.9 2.1-2.1v-4.7-.2h22.7V76c0 .3.5.6 1 .6h9.2c.6 0 1-.3 1-.6v-2.5h22.7v5.3c0 1.1.9 2.1 2.1 2.1H91c-.4-.6-.7-1.3-.8-2.1l-2.6-.1zm-60.8-.5H11.5v-4.7h15.4l-.1 4.7zm0 1v-1 1z"/><circle cx="13.1" cy="45.4" r="3.7"/><circle cx="23.6" cy="45.4" r="3.7"/><circle cx="34.1" cy="45.4" r="3.7"/><path d="M132.2 0H95.6c-2.2 0-4 1.8-4 4v72.8c0 2.2 1.8 4 4 4h36.7c2.2 0 4-1.8 4-4V4c-.1-2.2-1.9-4-4.1-4zm-22.3 3.6h7.9c.3 0 .5.2.5.5s-.2.5-.5.5h-7.9c-.3 0-.5-.2-.5-.5s.3-.5.5-.5zm25 67.4h-42V6.2h41.9l.1 64.8z"/></symbol><symbol id="shape-icon-good-deal" viewBox="0 0 49.59 66.81"><path d="M44.09 54.49c.49-1.94.87-3.47 1.19-5.37.47-2.79.88-5.19-.65-6.87a4.47 4.47 0 0 0-1-.83l-.47-.28.05-.68V35.64c.94-4 5.64-23.91 6.31-28.16a5.54 5.54 0 0 0-4.39-6.6 5.8 5.8 0 0 0-6.82 4C37.29 8.26 34.87 18.75 33 27l-.82 3.62-1-3.79c-2.16-8.3-5.12-19.67-5.76-22.2A6 6 0 0 0 18.25.14a5.6 5.6 0 0 0-3.73 2.67A7.51 7.51 0 0 0 14 8.38c.56 2.33 1.42 6.19 2.44 10.9l.27 1.26-1.28-.18A7 7 0 0 0 10 22a5.75 5.75 0 0 0-2 3.65l-.12.93-.93-.16a5.38 5.38 0 0 0-.95-.08 6.11 6.11 0 0 0-4 1.54A5.94 5.94 0 0 0 .22 34c.71 2.72 1.17 4.52 1.53 6 .52 2.06.83 3.3 1.4 5.25v.3c-.09 1.64-.4 10.1 3 15.24 4 6.07 10.62 6.07 13.82 6.07h13.32c3.16 0 7.94 0 9.77-8.05.39-1.75.73-3.11 1.03-4.32zM16.14 8a5.83 5.83 0 0 1 .42-4.45A3.39 3.39 0 0 1 18.76 2a3.83 3.83 0 0 1 4.55 3c1 4 7.85 30.19 7.91 30.42a1.12 1.12 0 0 0 1.09.75 1.07 1.07 0 0 0 1-.78c0-.23 5.45-24.68 7.05-30a3.61 3.61 0 0 1 4.23-2.63c1.52.3 3.14 1.65 2.69 4.46C46.74 11 42.77 28 41.09 35.11l-.08.33a.86.86 0 0 0 0 .19v4.84l-1-.14a37.23 37.23 0 0 0-4.86-.26h-12l-1-4.75c-.73-3.46-1.66-7.89-2.34-11C18.06 16.43 16.85 11 16.14 8zm-4.6 15.36a4.6 4.6 0 0 1 4.1-1 2.79 2.79 0 0 1 1.94 2.22c.86 4 1.7 8 2.33 11l.94 4.49h-2.62a8.66 8.66 0 0 0-3.39.63l-.94.4-.28-1C13 38 11.87 33.9 11 30.54c0-.09 0-.17-.07-.24-.27-1.07-.51-2-.7-2.81a4 4 0 0 1 1.31-4.14zM3.76 39c-.35-1.34-.76-3-1.41-5.45a4.12 4.12 0 0 1 1.2-4.31 3.52 3.52 0 0 1 3.23-.86 3 3 0 0 1 2 2.27l.09.33c1.06 4.68 2.72 10.02 3.2 11.61l.11.35-.16.33a4.93 4.93 0 0 0-.53 2.22A5.54 5.54 0 0 0 11.7 47l.22.8-.79.28a4.42 4.42 0 0 1-1.49.25A5.2 5.2 0 0 1 7.76 48a3.44 3.44 0 0 1-2.15-2.08c-.8-2.64-1.13-4-1.72-6.35zm38.11 15.4c-.28 1.12-.6 2.39-.95 3.95-1.49 6.51-4.47 6.51-7.63 6.51H20c-3 0-8.59 0-11.92-5.1-1.4-2.15-2.27-5.26-2.59-9.25l-.12-1.47 1.49.63a7.31 7.31 0 0 0 5.72-.07l.52-.25.45.37a7.47 7.47 0 0 0 4.72 1.66h14.11a1 1 0 1 0 0-1.93H18.23c-3 0-4.56-2.06-4.56-4a3.16 3.16 0 0 1 1.06-2.4 5.18 5.18 0 0 1 3.5-1.05H35.1c5.77 0 7.21.78 7.83 1.45.87 1 .64 2.75.19 5.38-.3 1.77-.65 3.21-1.11 5z"/></symbol><symbol id="shape-icon-popup-sale" viewBox="0 0 76.2 68.5"><path d="M47.3 8.1L25.5 39.7h14.6l-5.5 20.5.1.1 21.8-31.6H41.9l5.5-20.5-.1-.1z"/><path d="M62.8 61.2c-15.1 11.7-36.8 9-48.5-6.1-5.6-7.2-8.1-16.3-7-25.3l.3-2.1-6.1 4.8c-.4.3-1 .1-1.2-.3-.2-.3-.3-.6-.3-.8 0-.2.1-.4.3-.5L7.9 25H8l.2-.1c.3-.3.8-.3 1.1-.1l6.5 6.6c.3.5.1 1.1-.4 1.4-.3.2-.7.2-1 0L9.6 28l-.2 1.8c-2.2 17.7 10.5 33.8 28.2 36s33.8-10.5 36-28.2c1.8-15-7-29.3-21.3-34.4-.6-.3-1.7-.6-3.5-1.2-.4-.2-.6-.8-.5-1.2.2-.6.7-.9 1.1-.8l3.4 1 .4.1c.5.2 1.1.4 1.7.7l.3.2c.9.4 1.7.8 2.5 1.2 3.4 1.8 6.5 4.2 9.1 7 .8.8 1.5 1.6 2.1 2.5 11.8 15.1 9 36.8-6.1 48.5z"/></symbol><symbol id="shape-icon-warning" viewBox="36.799 1.713 26.402 96.574"><path d="M62.635 2.318a2.002 2.002 0 0 0-1.434-.605H38.799A1.996 1.996 0 0 0 36.8 3.768l1.68 60.798a1.998 1.998 0 0 0 1.999 1.943h19.046c1.082 0 1.97-.861 1.998-1.945L63.2 3.768a1.999 1.999 0 0 0-.565-1.45zM59.484 76.747H40.517a2 2 0 0 0-2 2v17.54a2 2 0 0 0 2 2h18.969a2 2 0 0 0 2-2v-17.54a2.002 2.002 0 0 0-2.002-2z"/></symbol></svg>