<svg xmlns="http://www.w3.org/2000/svg"><defs><linearGradient id="shape-icon-4g-box-a" gradientUnits="userSpaceOnUse" x1="244.4" y1="400.9" x2="244.4" y2="400.9" gradientTransform="translate(0 .2)"><stop offset="0" stop-color="#c12084"/><stop offset=".1" stop-color="#bf2885"/><stop offset=".224" stop-color="#b73c8a"/><stop offset=".36" stop-color="#a95293"/><stop offset=".505" stop-color="#95689e"/><stop offset=".657" stop-color="#767dab"/><stop offset=".815" stop-color="#3393bc"/><stop offset=".975" stop-color="#00a8ce"/><stop offset="1" stop-color="#00add2"/></linearGradient><linearGradient id="shape-icon-4g-box-b" gradientUnits="userSpaceOnUse" x1="203.333" y1="410.1" x2="345.337" y2="410.1" gradientTransform="translate(0 .2)"><stop offset="0" stop-color="#c12084"/><stop offset=".1" stop-color="#bf2885"/><stop offset=".224" stop-color="#b73c8a"/><stop offset=".36" stop-color="#a95293"/><stop offset=".505" stop-color="#95689e"/><stop offset=".657" stop-color="#767dab"/><stop offset=".815" stop-color="#3393bc"/><stop offset=".975" stop-color="#00a8ce"/><stop offset="1" stop-color="#00add2"/></linearGradient><linearGradient id="shape-icon-4g-box-c" gradientUnits="userSpaceOnUse" x1="203.333" y1="444.85" x2="345.337" y2="444.85" gradientTransform="translate(0 .2)"><stop offset="0" stop-color="#c12084"/><stop offset=".1" stop-color="#bf2885"/><stop offset=".224" stop-color="#b73c8a"/><stop offset=".36" stop-color="#a95293"/><stop offset=".505" stop-color="#95689e"/><stop offset=".657" stop-color="#767dab"/><stop offset=".815" stop-color="#3393bc"/><stop offset=".975" stop-color="#00a8ce"/><stop offset="1" stop-color="#00add2"/></linearGradient><linearGradient id="shape-icon-4g-box-d" gradientUnits="userSpaceOnUse" x1="203.333" y1="417.65" x2="466.847" y2="417.65" gradientTransform="translate(0 .2)"><stop offset="0" stop-color="#c12084"/><stop offset=".1" stop-color="#bf2885"/><stop offset=".224" stop-color="#b73c8a"/><stop offset=".36" stop-color="#a95293"/><stop offset=".505" stop-color="#95689e"/><stop offset=".657" stop-color="#767dab"/><stop offset=".815" stop-color="#3393bc"/><stop offset=".975" stop-color="#00a8ce"/><stop offset="1" stop-color="#00add2"/></linearGradient><linearGradient id="shape-icon-4g-box-e" gradientUnits="userSpaceOnUse" x1="203.333" y1="431.25" x2="345.337" y2="431.25" gradientTransform="translate(0 .2)"><stop offset="0" stop-color="#c12084"/><stop offset=".1" stop-color="#bf2885"/><stop offset=".224" stop-color="#b73c8a"/><stop offset=".36" stop-color="#a95293"/><stop offset=".505" stop-color="#95689e"/><stop offset=".657" stop-color="#767dab"/><stop offset=".815" stop-color="#3393bc"/><stop offset=".975" stop-color="#00a8ce"/><stop offset="1" stop-color="#00add2"/></linearGradient><linearGradient id="shape-icon-4g-box-f" gradientUnits="userSpaceOnUse" x1="203.333" y1="421.2" x2="345.337" y2="421.2" gradientTransform="translate(0 .2)"><stop offset="0" stop-color="#c12084"/><stop offset=".1" stop-color="#bf2885"/><stop offset=".224" stop-color="#b73c8a"/><stop offset=".36" stop-color="#a95293"/><stop offset=".505" stop-color="#95689e"/><stop offset=".657" stop-color="#767dab"/><stop offset=".815" stop-color="#3393bc"/><stop offset=".975" stop-color="#00a8ce"/><stop offset="1" stop-color="#00add2"/></linearGradient><linearGradient id="shape-icon-4g-box-g" gradientUnits="userSpaceOnUse" x1="203.333" y1="421" x2="345.337" y2="421" gradientTransform="translate(0 .2)"><stop offset="0" stop-color="#c12084"/><stop offset=".1" stop-color="#bf2885"/><stop offset=".224" stop-color="#b73c8a"/><stop offset=".36" stop-color="#a95293"/><stop offset=".505" stop-color="#95689e"/><stop offset=".657" stop-color="#767dab"/><stop offset=".815" stop-color="#3393bc"/><stop offset=".975" stop-color="#00a8ce"/><stop offset="1" stop-color="#00add2"/></linearGradient><linearGradient id="shape-icon-la-fibre-a" gradientUnits="userSpaceOnUse" x1="159.369" y1="-2827.089" x2="210.149" y2="-2827.089" gradientTransform="matrix(1 0 0 -1 0 -2787.76)"><stop offset="0" stop-color="#fff" stop-opacity="0"/><stop offset="1" stop-color="#105ba0"/></linearGradient><linearGradient id="shape-icon-la-fibre-b" gradientUnits="userSpaceOnUse" x1="167.607" y1="-2806.617" x2="247.873" y2="-2806.617" gradientTransform="matrix(1 0 0 -1 0 -2787.76)"><stop offset="0" stop-color="#fff" stop-opacity="0"/><stop offset="1" stop-color="#105ba0"/></linearGradient><linearGradient id="shape-icon-la-fibre-c" gradientUnits="userSpaceOnUse" x1="108.352" y1="-2795.822" x2="207.843" y2="-2795.822" gradientTransform="matrix(1 0 0 -1 0 -2787.76)"><stop offset="0" stop-color="#fff" stop-opacity="0"/><stop offset="1" stop-color="#105ba0"/></linearGradient><linearGradient id="shape-icon-la-fibre-d" gradientUnits="userSpaceOnUse" x1="136.786" y1="-2816.894" x2="236.276" y2="-2816.894" gradientTransform="matrix(1 0 0 -1 0 -2787.76)"><stop offset="0" stop-color="#fff" stop-opacity="0"/><stop offset="1" stop-color="#105ba0"/></linearGradient></defs><symbol id="shape-icon-4g-box" viewBox="197 356.8 261.3 107"><path d="M6997.5 730.5c5.5-35-2.1-69-24.6-96.7-21.9-26.8-54.9-43-88-50.8-34.5-8.2-71.7-7.2-105.4 3.9-35.8 11.8-65 37.4-83 70.4-28.5 52.3-23.8 116 4.8 167 25.7 46 73.4 90.1 129.3 88.2 3.3-.1 3.3-5.3 0-5.2-38 1.3-71.4-20.1-96.6-47-25.4-27.1-43.2-61.4-49.5-98.1-7.1-41.2 2.7-84.7 26.6-118.8 23.3-33.3 59.7-52.5 99.2-58.7 44.4-7 92.5 2.5 130.2 27 40 26.1 59.4 70.2 52 117.3-.5 3.5 4.5 4.8 5 1.5z"/><path d="M6717.6 874.4c19.9 9.5 39.8 19.2 61 25.4 21.8 6.4 44 7 66.3 3.7 48-7.1 91.3-30.9 119.6-70.7 43-60.5 43-140.8-2.8-199.2-39.2-50.1-105.7-76.4-168.4-65.6-70.5 12.2-124.4 73.1-139.1 141.5-13.9 64.5 8.2 137.1 62.6 176.6 68 49.4 171.1 41.5 220.4-30.3 48.6-70.9 7.5-206.9-88.3-210.8-1.8-.1-3.3 1.4-2.7 2.7.9 1.9.9 2.8 2.7 2.9 90.7 3.7 126.7 129.6 86.5 197.7-48.5 82.1-169 81.1-232.5 18.7-51.8-50.9-59.5-133.5-29.3-197.5 31.9-67.6 103.9-109 178.3-95.7 65.5 11.7 122.3 63 136.5 128.5 8.7 40.4-1.6 82.2-22 117.4-27.9 47.9-78.1 73.2-131.8 79.7-41.1 5-78.2-12.6-114.3-29.8-3.2-1.6-6 3.2-2.7 4.8z"/><path d="M6753.5 779.1c-2.6 1.3-5.4 2.3-8.5 2.9-8.2 1.6-15 .3-20.6-4v1.1c0 .8-.3 1.4-.9 2s-1.3.9-2 .9c-.8 0-1.4-.3-2-.9-.6-.6-.9-1.3-.9-2V777c-.1-1.5-.7-6.3-1.6-14.3-1-8-1.6-13.5-1.9-16.4s-.8-7.5-1.3-13.7-.9-11.7-1.1-16.6c-.2-4.4-.3-9.2-.2-14.5.1-9.2.3-14.6.5-16.1.5-4 1.4-7 2.6-9.2.7-1.5 1.8-2.6 3.1-3.4 1.5-.9 3.2-1 5-.5 1.2.3 2.1 1.1 2.7 2.4.4.8.8 1.8 1.1 3.1.5 1.7 1 4.2 1.5 7.4.6 4.6 1 8.6 1.1 12.1.2 5 .2 10.5-.1 16.3 7.7-8.1 15.3-10.9 22.8-8.6 4 1.3 7.4 3.9 10.3 7.9s5.1 8.7 6.6 14.2c3.2 11.6 3 22.6-.6 33-2.2 6.3-5.6 11.4-10 15.3 2.5 1 5.5 1.6 9 1.9 3.6.3 6.8-.1 9.3-1.2 2.6-1.1 5.2-3 7.9-5.7.5-.6 1.2-1 2-1s1.5.3 2.1.8.9 1.2.9 2-.3 1.5-.8 2c-3.2 3.4-6.5 5.9-9.9 7.3-3.4 1.4-7.3 1.9-11.8 1.6-5.9-.4-10.7-1.7-14.3-4zm-32.1-101.2c-.1-.1-.2-.2-.2-.3l-.2.2c0 .1.1.2.2.3-.2.2-.5.5-.8 1-.8 1.5-1.3 3.9-1.8 7.2-.2 1.7-.4 6.8-.5 15.3-.1 12.3.8 27.3 2.6 44.9l1-8.4c2-17.6 2.8-31.1 2.4-40.4-.1-3.4-.5-7.3-1.1-11.6-.3-2.8-.7-5-1.1-6.6-.2-.5-.4-1-.5-1.3.2 0 .4-.1.5-.3-.1.2-.3.3-.5.2v-.2zm0 0l-.2.2c0 .1.1.2.2.2v-.4zm27.3 97c-.5-.5-1.1-1.2-1.6-1.9-.5-.5-1.4-1.7-2.7-3.4-1.2-1.7-2.2-2.9-2.7-3.6-.6-.7-1.6-1.6-2.9-2.7-1.3-1.1-2.8-2-4.3-2.7-2-.9-3.9-1.1-5.5-.7-1.6.4-2.9 1.2-3.9 2.5-.2 2.7-.4 5.2-.6 7.6.3.5.7 1.1 1.1 1.6 4.7 4.6 10.8 6.2 18.4 4.6 1.6-.3 3.2-.7 4.7-1.3zm5.1-2.9c4.3-3.2 7.5-7.8 9.6-13.9 3.2-9.3 3.4-19.2.4-29.6-1.3-4.7-3.1-8.7-5.5-11.9-2.3-3.1-4.8-5.1-7.6-6.1-6.7-2-13.9 2.3-21.7 12.9-.3 3.5-.8 8.6-1.6 15.3-1 8.3-1.5 13.6-1.8 16.1 3.5-1.5 7.3-1.3 11.3.6 1.8.9 3.6 2 5.2 3.4 1.7 1.4 2.9 2.5 3.6 3.4.8.9 1.8 2.2 3.2 4 1.4 1.8 2.2 2.9 2.4 3.2 1 1 1.8 1.9 2.5 2.6z"/><path d="M6788.7 704.7c-1.9 14-2.5 28.4-1.7 43.3.4 10.2 1.7 17.8 3.7 22.7 1 2.7 2.1 4.5 3.5 5.5 1.2.9 2.6 1.1 4.2.6 2.1-.6 4.2-2.7 6.3-6.3 1.9-3.4 3.6-7.9 5.1-13.5 2.5-9.1 3.9-18 4.5-26.7.2-3.6.4-6.6.5-8.9 0-2.7 0-5.9.1-9.7s.2-6.1.2-7v-1c.1-.2.2-.5.3-.8.5-1.2 1.4-1.7 2.7-1.6.6 0 1.2.2 1.5.5.4.3.6.6.7.8l.2.3.3 1v8.1c0 2.9-.1 6.1-.3 9.7-.1 13.9.6 25.3 2.1 34 1.7 10 4.4 16.4 8.1 19.3 3.9 3.1 9.5 1.6 17.1-4.5.5-.5 1.2-.8 2-.6.8.1 1.5.5 2 1 .5.6.8 1.3.6 2.1-.1.8-.5 1.5-1.1 2-9.8 8.1-17.9 9.6-24.3 4.5-4.7-3.7-8.1-11.4-10.2-22.8-.1-.7-.2-1.6-.3-2.4-.3 1.5-.7 3-1.1 4.3-1.7 6.1-3.6 11.1-5.8 14.8-2.8 5-6 8.1-9.6 9-3.4 1.1-6.5.6-9.3-1.4-2.1-1.6-4-4.2-5.5-7.9-2.2-5.7-3.5-13.9-4.1-24.6-.8-14.6-.2-29.3 1.7-44.3.1-.9.5-1.5 1.1-2s1.4-.7 2.2-.6c.8.1 1.4.5 1.9 1.1.6.6.8 1.3.7 2z"/><path d="M6852.8 766.4c2.7 5.9 6 9.9 9.8 11.9 2.5 1.3 4.9 1.5 7.2.6 3-1.1 6-3.7 8.8-7.9.4-.6 1-1 1.8-1.2s1.5 0 2.2.4c.6.4 1 1 1.2 1.8s0 1.5-.4 2.2c-3.5 5.3-7.4 8.6-11.6 10.2-4.1 1.5-8.1 1.2-12.1-1-3.3-1.7-6.3-4.5-8.9-8.4s-4.5-8.1-5.8-12.7c-3.7-12.3-5.3-26.5-4.9-42.6.3-16 2.6-30.1 6.9-42.3.9-2.5 1.7-4.2 2.4-5.3 1.2-1.6 2.6-2.5 4.2-2.7 1.9-.2 3.8.6 5.5 2.6 1.2 1.5 2 4 2.6 7.4.3 2.8.5 6.3.5 10.6 0 7.5-.6 17-1.7 28.5-1.1 9.8-2.3 19.3-3.8 28.6s-2.8 15.6-3.8 18.8c0 .3 0 .4-.1.5zm1.6-91c0 .1-.1.2-.2.2-.4.6-1 1.9-1.6 3.9-3.7 10.6-5.9 23.1-6.5 37.4-.6 14.3.5 27.3 3.2 38.9 2.1-11.2 3.9-23.8 5.4-37.8 1.2-11.3 1.7-20.5 1.7-27.8 0-4.1-.2-7.3-.5-9.8-.3-2.4-.8-3.8-1.3-4.3 0-.5-.1-.6-.2-.7z"/><path d="M6884.8 766.4c2.7 5.9 6 9.9 9.8 11.9 2.5 1.3 4.9 1.5 7.2.6 3-1.1 6-3.7 8.8-7.9.4-.6 1-1 1.8-1.2s1.5 0 2.2.4c.6.4 1 1 1.2 1.8s0 1.5-.4 2.2c-3.5 5.3-7.4 8.6-11.6 10.2-4.1 1.5-8.1 1.2-12.1-1-3.3-1.7-6.3-4.5-8.9-8.4s-4.5-8.1-5.8-12.7c-3.7-12.3-5.3-26.5-4.9-42.6.3-16 2.6-30.1 6.9-42.3.9-2.5 1.7-4.2 2.4-5.3 1.2-1.6 2.6-2.5 4.2-2.7 1.9-.2 3.8.6 5.5 2.6 1.2 1.5 2 4 2.6 7.4.3 2.8.5 6.3.5 10.6 0 7.5-.6 17-1.7 28.5-1.1 9.8-2.3 19.3-3.8 28.6s-2.8 15.6-3.8 18.8c.1.2 0 .4-.1.5zm1.7-91.1c0 .1-.1.2-.2.2-.4.6-1 1.9-1.6 3.9-3.7 10.6-5.9 23.1-6.5 37.4s.5 27.3 3.2 38.9c2.1-11.2 3.9-23.8 5.4-37.8 1.2-11.3 1.7-20.5 1.7-27.8 0-4.1-.2-7.3-.5-9.8-.3-2.4-.8-3.8-1.3-4.3 0-.4-.1-.6-.2-.7z"/><path d="M6921.2 770.9c3.4 3.4 7.9 5.5 13.5 6.3 4.2.5 8.4.2 12.6-1.1 4.4-1.5 6.3-2.3 9.6-3.9 1.8-.8 6.2-3.1 6.9-3.5.8-.5 2.5-1.8 3-1.2s1.5 2.5 1.5 3.3-.5 1.5-1.2 2c-4.8 3.8-13 7.2-18.1 8.7-5 1.5-10.1 1.9-15.1 1.3-5.3-.6-10-2.5-14.2-5.5-4.2-3.1-7.2-7.3-9-12.5-2.5-7.6-3.4-16-2.7-25 .7-9.1 2.7-17.1 6.2-24.2 1.9-4 4.2-7.2 6.7-9.7 2.8-2.6 5.5-3.9 8.2-3.9 3.3 0 5.8 1.8 7.4 5.3 1.3 3.1 1.8 7.4 1.5 12.9-.9 14.5-6.6 31.5-16.8 50.7zm-3.9-5.3c9.1-17.2 14.1-32.4 14.9-45.7.3-4.6 0-8-1-10.1-.6-1.3-1.3-1.9-2.1-1.9-1.2 0-2.6.8-4.3 2.3-2 1.9-3.9 4.6-5.5 8.1-3.1 6.4-5 13.8-5.6 22.1s.2 15.9 2.4 22.6c.4.8.8 1.7 1.2 2.6z"/><g><path d="M6957.8 778c9.5-4.9 19-10.6 26.2-18.6 7.9-8.8 12.2-19.7 14.1-31.4.6-3.5-4.8-5.1-5.4-1.5-1.8 11.1-5.7 21.5-13.4 29.8-6.8 7.3-15.5 12.3-24.3 16.9-3.3 1.6-.5 6.5 2.8 4.8z"/></g><g><path fill="url(#shape-icon-4g-box-b)" d="M289.9 356.8c-.5 0-.7 0-1.5.7-.9.7-34.7 21.2-52.2 31.8v11.8h-18.5l-4.7 6.2h27.2l4.3-6.2V395l45.2-27.6 43 27.2v58.9c0 1-.3 1.6-.5 1.9h-95.8c.7 4.8 4.1 8.4 8.4 8.4h87.8c4.8 0 8.5-4.5 8.5-10.2v-63.9l-50-32.3c-.5-.4-.8-.6-1.2-.6z"/><path fill="url(#shape-icon-4g-box-c)" d="M242 441.9h-27.3l-4.7 6.3h27.3z"/><path fill="url(#shape-icon-4g-box-d)" d="M237.4 414.7h-27.2l-4.8 6.3 27.3-.1z"/><path fill="url(#shape-icon-4g-box-e)" d="M228.9 428.3h-27.2l-4.7 6.3 27.2-.1z"/><path fill="url(#shape-icon-4g-box-f)" d="M277.6 400.2c-.1-.4-.2-.7-.5-.9-.2-.3-.5-.5-.8-.6-.3-.2-.7-.2-1.1-.2-.5 0-1 .1-1.5.3s-.9.5-1.2.9L248 428c-.5.5-.8 1.1-.9 1.8-.2.9 0 1.6.5 2.1.5.6 1.1.8 2 .8h16.6l-1.5 8.6c-.1.8 0 1.5.5 2.1.5.6 1.1.9 2 .9.8 0 1.6-.3 2.3-.9.7-.6 1.1-1.3 1.2-2.1l1.5-8.6h3.5c.8 0 1.6-.3 2.3-.8.7-.6 1.1-1.3 1.3-2.1.2-.9 0-1.6-.5-2.1-.5-.6-1.1-.8-2-.8h-3.5l4.5-25.3c-.1-.6-.1-1-.2-1.4zm-10.4 26.6h-10.9L270 411l-2.8 15.8z"/><path fill="url(#shape-icon-4g-box-g)" d="M295.4 409.4c3.9-3.3 8.2-5 12.8-5 2 0 3.8.3 5.4.9 1.6.6 3.1 1.5 4.3 2.6.5.6 1.2.9 1.9.9.4 0 .8-.1 1.2-.2.4-.2.8-.4 1.1-.6.3-.3.6-.6.8-1 .2-.4.4-.8.4-1.2.2-.9 0-1.6-.4-2.1-3.8-3.6-8.3-5.4-13.8-5.4-6.3 0-12.1 2.2-17.4 6.7s-8.5 9.9-9.6 16.2c-1.1 6.4.2 11.8 3.9 16.2 3.7 4.5 8.7 6.7 15.1 6.7 5.4 0 10.5-1.7 15.3-5.1.7-.7 1.2-1.4 1.3-2.2l2.4-13.5c.1-.4.1-.8 0-1.2-.1-.4-.3-.7-.5-1-.2-.3-.5-.5-.8-.7s-.7-.2-1.1-.2h-11c-.4 0-.9.1-1.2.2-.4.2-.8.4-1.1.6-.3.3-.6.6-.8 1-.2.4-.4.8-.4 1.2-.2.9 0 1.6.5 2.2s1.2.9 2 .9h7.9l-1.6 8.9c-3.1 1.8-6.3 2.7-9.8 2.7-4.7 0-8.4-1.6-11.1-4.9s-3.6-7.2-2.8-11.9c.9-4.4 3.2-8.4 7.1-11.7z"/></g><path fill="#00ADD2" d="M368.8 440.9c-5.8 0-10.4-4.8-10.5-10.8 0-6 4.7-10.9 10.4-10.9 5.8 0 10.4 4.8 10.4 10.8.1 6-4.5 10.9-10.3 10.9m-17.4-42.8v32c0 9.7 7.8 17.5 17.4 17.5 9.7 0 17.5-8.4 17.4-18.1 0-9.7-7.2-16.9-16.9-16.9-4.1 0-8.7 2.1-10.8 4.9v-19.3h-7.1v-.1zM450.7 430.1c4.8-2.8 8.1-8.5 7.5-16.8h-7.1c.5 7.8-3.1 13.9-9.1 13.9-6.1 0-9.6-6.1-9.2-13.9h-7c-.7 8.1 2.4 13.8 7.5 16.9-5 3-8.1 8.5-7.5 16.9h7.1c-.4-8.5 2.8-13.9 9.1-13.9s9.6 5.5 9.2 13.9h7c.7-8.8-2.5-14.2-7.5-17M406.9 440.9c-5.9 0-10.7-4.9-10.7-10.9s4.8-10.9 10.6-10.9c5.9 0 10.7 4.8 10.7 10.9 0 6-4.7 10.9-10.6 10.9m-.1-28.5c-9.7 0-17.5 7.9-17.5 17.6s7.9 17.6 17.6 17.5c9.7 0 17.5-7.9 17.5-17.6 0-9.6-7.9-17.5-17.6-17.5"/></symbol><symbol id="shape-icon-bbox-miami-blank" viewBox="0 8.625 270.72 42.749"><path d="M22.318 27.774c2.023-1.955 3.236-4.518 3.236-7.079 0-6.474-4.382-10.586-11.935-10.586H0V41.53c0 3.573.607 6.001 2.09 7.552s3.708 2.292 11.058 2.292c10.788 0 16.385-5.259 16.385-12.946 0-4.72-2.225-8.832-7.215-10.654m-16.25-7.146v-5.462h6.136c3.304 0 7.485.944 7.485 5.326 0 3.911-3.641 5.799-6.945 5.799H6v-5.663h.068zm8.293 25.42c-4.854 0-6.473-.067-7.35-.944-.876-.944-.944-2.697-.944-5.731v-7.889h8.226c6.473 0 9.035 3.102 9.035 7.35.001 4.651-3.235 7.214-8.967 7.214M32.027 11.12v26.027c0 7.889 6.338 14.227 14.227 14.227s14.227-6.877 14.227-14.699c0-7.889-5.866-13.755-13.755-13.755-3.304 0-7.147 1.686-8.766 3.979V11.188l-5.933-.068zm14.227 34.86c-4.72 0-8.496-3.979-8.496-8.833 0-4.855 3.776-8.833 8.496-8.833 4.72 0 8.496 3.91 8.496 8.833 0 4.855-3.843 8.833-8.496 8.833M112.94 37.147c3.978-2.293 6.608-6.878 6.136-13.756h-5.731c.405 6.406-2.495 11.328-7.417 11.328s-7.821-4.989-7.484-11.328h-5.731c-.54 6.608 1.955 11.261 6.136 13.756-4.113 2.427-6.608 6.944-6.136 13.822h5.731c-.27-6.945 2.292-11.328 7.417-11.328s7.822 4.45 7.484 11.328h5.664c.674-7.147-1.956-11.597-6.069-13.822M77.204 22.718c-7.889 0-14.294 6.405-14.294 14.362 0 7.889 6.405 14.294 14.362 14.294 7.889 0 14.294-6.405 14.294-14.361-.001-7.89-6.474-14.295-14.362-14.295m.067 23.195c-4.788 0-8.698-3.979-8.698-8.9 0-4.923 3.843-8.9 8.698-8.9 4.787 0 8.698 3.978 8.698 8.833 0 4.989-3.911 8.967-8.698 8.967M199.044 21.504c-7.956 0-14.632 7.08-14.632 15.441 0 8.226 6.338 14.429 14.699 14.429 4.989 0 8.293-2.832 9.912-4.72v4.315h4.719V36.473c-.066-8.293-6.674-14.969-14.698-14.969m0 4.72c5.259 0 9.575 4.585 9.642 10.182 0 5.597-4.314 10.182-9.574 10.249-5.326 0-9.643-4.585-9.643-10.182 0-2.697 1.012-5.191 2.9-7.215 1.753-1.888 4.18-3.034 6.675-3.034v-.674.674zM175.714 21.908h4.923v28.994h-4.923zM178.075 9.637a3.31 3.31 0 0 0-3.305 3.304c0 1.821 1.484 3.305 3.305 3.305s3.304-1.483 3.304-3.305a3.31 3.31 0 0 0-3.304-3.304M265.055 21.908h4.922v28.994h-4.922zM267.416 16.178a3.31 3.31 0 0 0 3.304-3.305 3.31 3.31 0 0 0-3.304-3.304 3.309 3.309 0 0 0-3.304 3.304c0 1.889 1.482 3.305 3.304 3.305M248.603 21.504c-3.642 0-7.013 1.686-9.237 4.518-2.225-2.832-5.597-4.518-9.238-4.518-6.473 0-11.664 5.26-11.664 11.665v17.733h4.922V32.765c0-3.709 3.034-6.743 6.742-6.743 3.709 0 6.744 3.034 6.744 6.743v18.138h4.922V32.765c0-3.709 3.033-6.743 6.742-6.743s6.742 3.034 6.742 6.743v18.138h4.99V33.169c0-6.405-5.26-11.665-11.665-11.665M166.679 8.693c-1.753 0-3.304 1.011-3.978 2.629-1.551 3.574-7.755 17.666-9.44 21.51-.202.404-.54 1.214-.675 1.281h-.134c-.135-.135-.539-.944-.674-1.349-1.686-3.776-7.889-17.936-9.439-21.51-.674-1.618-2.226-2.63-3.979-2.63-2.359 0-4.315 1.956-4.315 4.315v37.962h5.058V16.919c1.955 4.315 5.529 12.339 7.416 16.452 1.956 4.315 3.439 5.664 6.002 5.664s4.045-1.416 6-5.664c1.889-4.046 5.395-12.002 7.418-16.452v33.983h5.057V13.008c-.069-2.427-1.956-4.315-4.317-4.315"/></symbol><symbol id="shape-icon-bbox-miami-plus-blank" viewBox="0 0 389.02 54.18"><title>Plan de travail 1</title><path d="M28.3 24.23a13 13 0 0 0 4.13-9c0-8.18-5.54-13.45-15.13-13.45H0v39.86c0 4.5.8 7.61 2.66 9.59s4.71 3 14 3c13.67 0 20.78-6.67 20.78-16.41.05-6.06-2.82-11.27-9.14-13.59zM7.74 15.18V8.29h7.83c4.19 0 9.53 1.24 9.53 6.78 0 5-4.6 7.32-8.79 7.32H7.74zm10.49 32.27c-6.2 0-8.24-.11-9.29-1.22s-1.2-3.39-1.2-7.29v-10h10.44c8.19 0 11.46 3.95 11.46 9.36 0 5.86-4.15 9.15-11.41 9.15zM40.65 3.08v33a18 18 0 0 0 18 18.06c10 0 18.07-8.69 18-18.69A17.07 17.07 0 0 0 59.26 18c-4.23 0-9 2.13-11.15 5V3zm18 44.24a11 11 0 0 1-10.79-11.21 10.8 10.8 0 1 1 21.58 0 11 11 0 0 1-10.77 11.21zM143.37 36.11c5-2.89 8.38-8.76 7.76-17.41h-7.31c.53 8.1-3.16 14.34-9.42 14.34s-9.93-6.35-9.52-14.34h-7.23c-.69 8.38 2.52 14.26 7.78 17.49-5.22 3.06-8.43 8.81-7.78 17.51H125c-.37-8.82 2.93-14.35 9.42-14.35s9.88 5.65 9.49 14.35h7.23c.73-9.05-2.61-14.7-7.77-17.59zM98 17.84A18.17 18.17 0 1 0 116.21 36 18.16 18.16 0 0 0 98 17.84zm.05 29.45a11.28 11.28 0 1 1 11-11.31A11.17 11.17 0 0 1 98.06 47.3zM252.6 16.28c-10.1 0-18.61 9-18.59 19.6 0 10.43 8 18.3 18.63 18.3a16.53 16.53 0 0 0 12.6-6v5.47h6V35.19a18.8 18.8 0 0 0-18.64-18.91zm0 6c6.71 0 12.19 5.8 12.2 12.92s-5.46 13-12.18 13-12.22-5.79-12.23-12.92a13.18 13.18 0 0 1 3.65-9.12 11.92 11.92 0 0 1 8.53-3.85v-.86zM223.05 16.82h6.28v36.81h-6.28z"/><circle cx="226.04" cy="5.39" r="4.17"/><path d="M336.41 16.82h6.28v36.81h-6.28z"/><circle cx="339.39" cy="5.39" r="4.17"/><path d="M315.49 16.28A14.77 14.77 0 0 0 303.8 22a14.82 14.82 0 0 0-26.52 9.1v22.53h6.26v-23a8.56 8.56 0 1 1 17.12 0v23h6.26v-23a8.56 8.56 0 1 1 17.12 0v23h6.26V31.11a14.84 14.84 0 0 0-14.81-14.83zM211.52 0a5.43 5.43 0 0 0-5 3.33c-2 4.52-9.82 22.43-12 27.27a9.13 9.13 0 0 1-.88 1.67h-.24a8.51 8.51 0 0 1-.89-1.67c-2.18-4.8-10-22.73-12-27.26A5.44 5.44 0 0 0 170 5.48v48.15h6.45v-43.1c2.55 5.47 7.07 15.64 9.45 20.88 2.48 5.44 4.32 7.19 7.59 7.19s5.14-1.82 7.59-7.19c2.36-5.17 6.89-15.22 9.44-20.88v43.1H217V5.48A5.47 5.47 0 0 0 211.52 0zM364.6 25.17h-13.67V14.74h13.67V1.13h10.73v13.6H389v10.44h-13.66v13.6H364.6z"/></symbol><symbol id="shape-icon-bbox" viewBox="-6.167 323.167 622.667 224"><path d="M114.674 421.494c10.391-10.044 16.625-23.205 16.625-36.366 0-33.25-22.513-54.377-61.304-54.377H.033V492.15c0 18.356 3.117 30.824 10.737 38.791 7.62 7.966 19.049 11.775 56.801 11.775 55.416 0 84.163-27.015 84.163-66.499 0-24.243-11.43-45.371-37.06-54.723m-83.47-36.713v-28.054h31.518c16.971 0 38.445 4.849 38.445 27.361 0 20.088-18.703 29.786-35.674 29.786H30.858l.346-29.093zm42.601 130.574c-24.938 0-33.25-.347-37.752-4.849-4.503-4.849-4.849-13.854-4.849-29.44v-40.522h42.255c33.25 0 46.411 15.932 46.411 37.752 0 23.898-16.625 37.059-46.065 37.059M164.549 335.946v133.69a72.874 72.874 0 0 0 73.08 73.08c40.523 0 73.081-35.327 73.081-75.504 0-40.523-30.133-70.655-70.656-70.655-16.971 0-36.713 8.658-45.025 20.435v-80.699l-30.48-.347zm73.079 179.063c-24.244 0-43.64-20.435-43.64-45.372s19.396-45.371 43.64-45.371c24.245 0 43.64 20.088 43.64 45.371.001 24.937-19.741 45.372-43.64 45.372M580.168 469.637c20.436-11.775 33.943-35.327 31.519-70.654h-29.44c2.078 32.902-12.814 58.187-38.098 58.187s-40.177-25.63-38.445-58.187h-29.439c-2.771 33.941 10.044 57.84 31.518 70.654-21.127 12.469-33.941 35.675-31.518 71.002h29.439c-1.385-35.674 11.775-58.187 38.099-58.187s40.177 22.859 38.444 58.187h29.094c3.462-36.713-10.045-59.573-31.173-71.002M396.604 395.519c-40.523 0-73.426 32.903-73.426 73.772 0 40.522 32.902 73.426 73.771 73.426 40.523 0 73.426-32.903 73.426-73.772 0-40.523-33.249-73.426-73.771-73.426m.345 119.144c-24.59 0-44.679-20.435-44.679-45.719 0-25.283 19.741-45.718 44.679-45.718 24.592 0 44.68 20.435 44.68 45.371 0 25.632-20.088 46.066-44.68 46.066"/></symbol><symbol id="shape-icon-bouquet-jeunesse" viewBox="0 0 422.7 131.2"><title>Plan de travail 1</title><g class="st0"><path class="st1" d="M63.1 9.5H76c5.8 0 10.1 1 12.8 3 2.7 2 4.1 5 4.1 9 0 2.7-.8 5-2.5 6.8-1.7 1.8-4.1 3-7.3 3.5v.2c3.8.6 6.5 1.7 8.3 3.6 1.8 1.8 2.7 4.3 2.7 7.6 0 4.3-1.4 7.7-4.3 10s-7 3.5-12.2 3.5H63.1V9.5zm3.3 20.9h10.4c4.4 0 7.6-.7 9.7-2.2 2-1.5 3-3.8 3-6.9s-1.1-5.4-3.4-6.8c-2.3-1.4-5.6-2.1-10.1-2.1h-9.5v18zm0 2.9v20.3h11.1c8.7 0 13.1-3.5 13.1-10.6 0-6.5-4.6-9.7-13.8-9.7H66.4z"/></g><g class="st0"><path class="st1" d="M128.3 39c0 5.7-1.4 10.2-4.2 13.4-2.8 3.2-6.6 4.8-11.5 4.8-3.1 0-5.8-.7-8.1-2.2-2.3-1.5-4.1-3.6-5.4-6.4-1.2-2.8-1.9-6-1.9-9.6 0-5.7 1.4-10.2 4.2-13.4s6.6-4.8 11.4-4.8c4.8 0 8.6 1.6 11.3 4.9s4.2 7.7 4.2 13.3zm-27.7 0c0 4.8 1.1 8.6 3.2 11.3s5.1 4 9 4 6.9-1.3 9-4c2.1-2.7 3.2-6.5 3.2-11.3 0-4.8-1.1-8.6-3.2-11.3-2.1-2.7-5.1-4-9-4s-6.9 1.3-8.9 4c-2.2 2.7-3.3 6.5-3.3 11.3zM136.2 21.5v22.7c0 3.5.7 6.1 2.2 7.7 1.5 1.6 3.8 2.4 6.9 2.4 4.2 0 7.2-1.1 9.2-3.2 2-2.1 2.9-5.5 2.9-10.3V21.5h3.2v35h-2.7l-.6-4.8h-.2c-2.3 3.7-6.3 5.5-12.2 5.5-8 0-12-4.3-12-12.8V21.5h3.3z"/></g><g class="st0"><path class="st1" d="M179.8 57.2c-4.6 0-8.2-1.5-10.7-4.6-2.5-3.1-3.8-7.5-3.8-13.2 0-5.9 1.3-10.5 3.8-13.7 2.5-3.2 6.2-4.9 10.9-4.9 5.1 0 8.9 1.9 11.4 5.6h.2l.6-4.9h2.7v50.9h-3.2V59.1c0-2.6.1-5.3.2-8h-.2c-2.6 4.1-6.5 6.1-11.9 6.1zm0-2.8c4.3 0 7.3-1.2 9.1-3.5 1.8-2.3 2.7-6.3 2.7-11.8v-.4c0-5.3-.9-9.1-2.7-11.4-1.8-2.3-4.7-3.5-8.7-3.5-3.8 0-6.7 1.3-8.6 4-2 2.7-2.9 6.6-2.9 11.7 0 4.9 1 8.6 2.9 11.1s4.6 3.8 8.2 3.8z"/></g><g class="st0"><path class="st1" d="M204.3 21.5v22.7c0 3.5.7 6.1 2.2 7.7 1.5 1.6 3.8 2.4 6.9 2.4 4.2 0 7.2-1.1 9.2-3.2 2-2.1 3-5.5 3-10.3V21.5h3.2v35H226l-.6-4.8h-.2c-2.3 3.7-6.3 5.5-12.2 5.5-8 0-12-4.3-12-12.8V21.5h3.3z"/></g><g class="st0"><path class="st1" d="M249.7 57.2c-5.1 0-9.1-1.6-11.9-4.7-2.8-3.1-4.3-7.5-4.3-13.2 0-5.6 1.4-10.1 4.1-13.4s6.5-5 11.1-5c4.1 0 7.4 1.4 9.8 4.3 2.4 2.9 3.6 6.8 3.6 11.7v2.6h-25.2c0 4.8 1.2 8.5 3.4 11s5.4 3.8 9.5 3.8c2 0 3.8-.1 5.3-.4 1.5-.3 3.4-.9 5.8-1.8V55c-2 .9-3.8 1.4-5.5 1.8-1.9.3-3.7.4-5.7.4zm-1-33.5c-3.4 0-6.1 1.1-8.1 3.3-2 2.2-3.2 5.4-3.6 9.6h21.7c0-4.1-.9-7.2-2.6-9.5-1.8-2.3-4.3-3.4-7.4-3.4z"/></g><g class="st0"><path class="st1" d="M276.3 54.4c2 0 3.8-.2 5.3-.5v2.6c-1.5.5-3.3.8-5.4.8-3.1 0-5.4-.8-6.9-2.5s-2.2-4.3-2.2-7.8V24.3H262v-1.9l5.2-1.5 1.6-7.9h1.6v8.5h10.3v2.8h-10.3v22.2c0 2.7.5 4.7 1.4 6 1 1.2 2.5 1.9 4.5 1.9z"/></g><g class="st0"><path class="st1" d="M312.8 56.6h-3.3v-44h-15.3V9.5h33.9v3.1h-15.3v44z"/></g><g class="st0"><path class="st1" d="M362.6 9.5h3.6l-17.6 47.1h-2.9L328.1 9.5h3.5l11.9 32.1c1.8 4.8 3 8.5 3.6 10.9.4-1.6 1.3-4.1 2.5-7.5l13-35.5z"/></g><path class="st1" d="M46.4 93.9c2.4-2.2 3.9-5.3 4-8.6 0-7.8-5.3-12.9-14.5-12.9H19.2v38.2c0 4.3.8 7.3 2.5 9.2s4.5 2.8 13.5 2.8c13.1 0 19.9-6.4 19.9-15.7.1-5.7-2.7-10.7-8.7-13zm-19.7-8.6v-6.6h7.5c4 0 9.1 1.2 9.1 6.5 0 4.8-4.4 7-8.4 7h-8.2v-6.9zm10 30.9c-5.9 0-7.9-.1-8.9-1.2s-1.1-3.2-1.1-7v-9.6h10c7.8 0 11 3.8 11 9 0 5.6-4 8.8-11 8.8zM58.2 73.7v31.7c0 9.5 7.7 17.3 17.2 17.3h.1c9.6 0 17.3-8.3 17.3-17.9.2-9-6.9-16.5-15.9-16.7h-.8c-4 0-8.6 2-10.7 4.8V73.8l-7.2-.1zm17.3 42.4c-5.9.2-11-4.4-11.2-10.3-.2-5.9 4.4-11 10.3-11.2 5.9-.2 11 4.4 11.2 10.3v.4c.1 5.8-4.5 10.6-10.3 10.8zM156.6 105.3c4.8-2.8 8-8.4 7.4-16.7h-7c.5 7.8-3 13.7-9 13.7s-9.5-6.1-9.1-13.7h-7c-.7 8 2.4 13.7 7.5 16.8-5 2.9-8.1 8.5-7.5 16.8h7c-.4-8.4 2.8-13.8 9-13.8s9.5 5.4 9.1 13.8h6.9c.9-8.7-2.3-14.1-7.3-16.9zM113.2 87.8c-9.6 0-17.4 7.8-17.4 17.4 0 9.6 7.8 17.4 17.4 17.4s17.4-7.8 17.4-17.4c0-9.6-7.8-17.4-17.4-17.4zm0 28.2c-6 .1-10.9-4.6-11.1-10.5-.1-6 4.6-10.9 10.5-11.1 6-.1 10.9 4.6 11.1 10.5v.2c.1 6-4.6 10.8-10.5 10.9zM263.5 119.4h3.8v-13.1c0-7.9 4.1-12.8 10.6-12.8 6.9 0 10.7 4.6 10.7 12.8v13.1h3.8v-12.9c0-10.1-5-16.4-13.7-16.4-10.1 0-15.2 6.4-15.2 16.4v12.9z"/><path class="st1" d="M268.5 120.7h-6.2v-14.1c0-5.4 1.4-9.7 4.1-12.8 2.9-3.2 7-4.9 12.3-4.9 9.4 0 15 6.6 15 17.6v14.1h-6.3v-14.3c0-5.3-1.7-11.6-9.5-11.6-5.9 0-9.4 4.3-9.4 11.6v14.4zm-3.8-2.5h1.3v-11.8c0-8.5 4.6-14.1 11.9-14.1 7.6 0 12 5.1 12 14.1v11.9h1.3v-11.7c0-9.6-4.5-15.1-12.5-15.1-4.6 0-8.1 1.4-10.5 4s-3.5 6.3-3.5 11.1v11.6zM256.4 90.5h-3.8v13c0 7.9-3.2 12.8-9.8 12.8-6.9 0-9.8-4.6-9.9-12.8v-13h-3.8v12.9c0 10.1 4.1 16.4 12.8 16.4 10.2 0 14.3-6.4 14.3-16.4l.2-12.9z"/><path class="st1" d="M242.1 121c-9.1 0-14.1-6.2-14.1-17.6V89.3h6.3v14.2c0 8 2.7 11.6 8.6 11.6 7.1 0 8.6-6.3 8.5-11.6V89.3h6.2v14.1c0 6.1-1.5 10.7-4.5 13.7-2.6 2.6-6.3 3.9-11 3.9zm-11.7-29.2v11.7c0 6.9 2 15.1 11.6 15.1 4.1 0 7.2-1.1 9.3-3.2 2.5-2.5 3.8-6.5 3.7-11.9V91.8h-1.3v11.8c0 8.9-4 14.1-11 14.1-7.4 0-11.1-4.7-11.1-14.1V91.8h-1.2zM329.2 117.6c3.1 1.6 6.5 2.3 9.9 2.3 6 0 10.1-3.4 10.1-8.7s-4-7.1-9.4-8.7c-3.4-1-6.5-2-6.5-5 0-1.3.5-4.1 5.5-4.1 2.8 0 5.5.6 7.9 1.9l1-3.2c-2.6-1.3-5.4-1.9-8.2-1.9-6.9 0-9.9 3.6-9.9 8 0 4.8 3.9 6.2 9.3 7.8 3.7 1.1 6.8 2.1 6.8 5.6 0 2.7-2.1 5.2-6.8 5.2-3-.1-5.9-.8-8.6-2.3l-1.1 3.1z"/><path class="st1" d="M339.1 121.1c-3.7 0-7.3-.8-10.5-2.4l-.9-.5 1.9-5.7 1.3.7c2.5 1.4 5.2 2.1 8 2.1 4.1 0 5.5-2 5.5-3.9 0-2.4-1.9-3.2-5.9-4.4-4.8-1.4-10.2-2.9-10.2-9 0-4.5 2.9-9.2 11.1-9.2 3.1 0 6.1.7 8.8 2.1l.9.5-1.8 5.6-1.3-.7c-2.3-1.2-4.8-1.8-7.4-1.8-2.8 0-4.2 1-4.2 2.9s2.1 2.8 5.6 3.9c5.6 1.7 10.3 3.6 10.3 9.9.2 5.9-4.4 9.9-11.2 9.9zm-8.4-4.1c2.7 1.1 5.5 1.7 8.4 1.7 5.4 0 8.9-2.9 8.9-7.5 0-4.3-2.6-5.8-8.5-7.5-3.5-1-7.4-2.2-7.4-6.2 0-1.3.5-5.3 6.7-5.3 2.5 0 4.9.4 7.2 1.4l.2-.8c-2.1-.9-4.4-1.3-6.7-1.4-5.5 0-8.7 2.5-8.7 6.7 0 3.6 2.5 4.9 8.4 6.6 3.4 1 7.7 2.2 7.7 6.8 0 3.2-2.5 6.4-8 6.4-2.7 0-5.4-.7-7.9-1.8l-.3.9zM353.4 117.6c3.1 1.6 6.5 2.3 9.9 2.3 6 0 10.1-3.4 10.1-8.7s-4-7.1-9.4-8.7c-3.4-1-6.5-2-6.5-5 0-1.3.5-4.1 5.5-4.1 2.8 0 5.5.6 7.9 1.9l1-3.2c-2.6-1.3-5.4-1.9-8.2-1.9-6.9 0-9.9 3.6-9.9 8 0 4.8 3.9 6.2 9.3 7.8 3.7 1.1 6.8 2.1 6.8 5.6 0 2.7-2.1 5.2-6.8 5.2-3-.1-5.9-.8-8.6-2.3l-1.1 3.1z"/><path class="st1" d="M363.3 121.1c-3.7 0-7.3-.8-10.5-2.4l-.9-.5 1.9-5.7 1.3.7c2.5 1.4 5.2 2.1 8 2.1 4.1 0 5.5-2 5.5-3.9 0-2.4-1.9-3.2-5.9-4.4-4.8-1.4-10.2-2.9-10.2-9 0-4.5 2.9-9.2 11.1-9.2 3.1 0 6.1.7 8.8 2.1l.9.5-1.8 5.6-1.3-.7c-2.3-1.2-4.8-1.8-7.4-1.8-2.8 0-4.2 1-4.2 2.9s2.1 2.8 5.6 3.9c5.6 1.7 10.3 3.6 10.3 9.9.2 5.9-4.4 9.9-11.2 9.9zm-8.4-4.1c2.7 1.1 5.5 1.7 8.4 1.7 5.4 0 8.9-2.9 8.9-7.5 0-4.3-2.6-5.8-8.5-7.5-3.5-1-7.4-2.2-7.4-6.2 0-1.3.5-5.3 6.7-5.3 2.5 0 4.9.5 7.2 1.4l.2-.8c-2.1-.9-4.4-1.4-6.7-1.4-5.5 0-8.7 2.5-8.7 6.7 0 3.6 2.5 4.9 8.4 6.6 3.4 1 7.7 2.2 7.7 6.8 0 3.2-2.5 6.4-8 6.4-2.7 0-5.4-.7-7.9-1.8l-.3.9zM210.7 90.1c-8 0-14.3 6.6-14.3 14.9 0 8.2 6.6 14.8 14.7 14.9h.3c3.8.1 7.5-1.1 10.6-3.3l-1.7-2.7c-2.4 1.8-5.4 2.7-8.4 2.7-7.6 0-11.6-5.2-11.9-11h18.3c4.1 0 5.5-1.8 4.9-5.8-.7-5.4-6.5-9.7-12.5-9.7zm8.1 12.4H200c.6-5.4 5.3-9.4 10.7-9.3 5.7 0 9.1 4.3 9.1 7.9.1.9-.1 1.4-1 1.4z"/><path class="st1" d="M211.4 121c-8.8.1-16.1-6.9-16.3-15.7v-.4c0-9 6.8-16.1 15.5-16.1 6.7 0 12.9 4.8 13.8 10.7.4 2.5.1 4.2-1 5.4s-2.7 1.8-5.1 1.8h-16.9c.7 4.2 3.7 8.5 10.5 8.5 2.7 0 5.4-.8 7.6-2.4l1.1-.8 3 4.8-.9.7c-3.2 2.3-7.2 3.6-11.3 3.5zm-.7-29.8c-7.3 0-13.1 6-13.1 13.7 0 7.5 6 13.6 13.5 13.6h.3c3.1 0 6.2-.8 8.9-2.4l-.4-.6c-2.4 1.5-5.2 2.2-8 2.2-8.6 0-12.8-6.1-13.1-12.2l-.1-1.3h19.6c1.6 0 2.7-.3 3.2-.9s.7-1.8.4-3.5c-.6-4.6-5.8-8.6-11.2-8.6zm8.1 12.5h-20.2l.2-1.4c.8-5.9 5.9-10.4 11.9-10.3 6.2 0 10.4 4.7 10.4 9.1 0 2.3-1.5 2.6-2.3 2.6zm-17.2-2.5h17v-.2c0-2.8-2.7-6.6-7.9-6.6-4.3-.1-8 2.7-9.1 6.8zM312.2 89.9c-8 0-14.3 6.6-14.3 14.9 0 8.2 6.6 14.8 14.7 14.9h.3c3.8.1 7.5-1.1 10.6-3.3l-1.7-2.7c-2.4 1.8-5.4 2.7-8.4 2.7-7.6 0-11.6-5.2-11.9-11h18.3c4.1 0 5.5-1.8 4.9-5.8-.7-5.3-6.5-9.7-12.5-9.7zm8 12.5h-18.8c.6-5.4 5.3-9.4 10.7-9.3 5.7 0 9.1 4.3 9.1 7.9.1.8-.1 1.4-1 1.4z"/><path class="st1" d="M312.9 120.9c-8.8.1-16.1-6.9-16.3-15.7v-.4c0-9 6.8-16.1 15.5-16.1 6.7 0 12.9 4.8 13.8 10.7.4 2.5.1 4.2-1 5.4s-2.7 1.8-5.1 1.8H303c.7 4.2 3.7 8.5 10.5 8.5 2.7 0 5.4-.8 7.6-2.4l1.1-.8 3 4.8-.9.7c-3.3 2.4-7.3 3.6-11.4 3.5zm-.7-29.7c-7.3 0-13.1 6-13.1 13.7 0 7.5 6 13.6 13.5 13.6h.3c3.1 0 6.2-.8 8.9-2.4l-.4-.6c-2.4 1.5-5.2 2.2-8 2.2-8.6 0-12.8-6.1-13.1-12.2l-.1-1.3h19.6c1.6 0 2.7-.3 3.2-.9s.7-1.8.4-3.5c-.6-4.7-5.8-8.6-11.2-8.6zm8 12.4H300l.2-1.4c.8-6 5.9-10.4 11.9-10.3 6.2 0 10.4 4.7 10.4 9.1.1 2.3-1.4 2.6-2.3 2.6zm-17.2-2.5h17v-.2c0-2.8-2.7-6.6-7.9-6.6-4.2-.1-8 2.7-9.1 6.8zM391.3 89.9c-8 0-14.3 6.6-14.3 14.9 0 8.2 6.6 14.8 14.7 14.9h.3c3.8.1 7.5-1.1 10.6-3.3l-1.7-2.7c-2.4 1.8-5.4 2.7-8.4 2.7-7.6 0-11.6-5.2-11.9-11H399c4.1 0 5.5-1.8 4.9-5.8-.8-5.3-6.6-9.7-12.6-9.7zm8.1 12.5h-18.7c.6-5.4 5.3-9.4 10.7-9.3 5.7 0 9.1 4.3 9.1 7.9-.1.8-.2 1.4-1.1 1.4z"/><path class="st1" d="M392 120.9c-8.8.1-16.1-6.9-16.3-15.7v-.4c0-9 6.8-16.1 15.5-16.1 6.7 0 12.9 4.8 13.8 10.7.4 2.5.1 4.2-1 5.4s-2.7 1.8-5.1 1.8H382c.7 4.2 3.7 8.5 10.5 8.5 2.7 0 5.4-.8 7.6-2.4l1.1-.8 3 4.8-.9.7c-3.2 2.4-7.2 3.6-11.3 3.5zm-.7-29.7c-7.3 0-13.1 6-13.1 13.7 0 7.5 6 13.6 13.5 13.6h.2c3.1 0 6.2-.8 8.9-2.4l-.4-.6c-2.4 1.5-5.2 2.2-8 2.2-8.6 0-12.8-6.1-13.1-12.2l-.1-1.3H399c1.6 0 2.7-.3 3.2-.9s.7-1.8.4-3.5c-.7-4.7-5.9-8.6-11.3-8.6zm8 12.4h-20.1l.2-1.4c.8-6 5.9-10.4 11.9-10.3 6.2 0 10.4 4.7 10.4 9.1 0 2.3-1.5 2.6-2.4 2.6zm-17.2-2.5h17v-.2c0-2.8-2.7-6.6-7.9-6.6-4.2 0-7.9 2.7-9.1 6.8zM186.2 115.7c0 5.2-1.9 8.1-5.8 10.3l2.2 3.5c4.9-2.8 8.1-7.3 8.1-13.9V80.4h-4.5v35.3z"/><path class="st1" d="M182.2 131.2l-3.5-5.6 1.1-.6c3.7-2.2 5.2-4.8 5.2-9.3V79.2h7v36.4c0 6.6-2.9 11.6-8.8 15l-1 .6zm0-4.8l.9 1.4c4.2-2.6 6.6-7.3 6.5-12.2V81.7h-2v34c-.1 4.9-1.7 8.2-5.4 10.7z"/></symbol><symbol id="shape-icon-check-thin" viewBox="0 0 406.8 281.8"><path d="M385.6 0L146.2 239.4l-125-125L0 135.6l146.2 146.2L406.8 21.2z"/></symbol><symbol id="shape-icon-check" viewBox="0 0 512 512"><path d="M432 64L192 304 80 192 0 272l192 192 320-320-80-80z"/></symbol><symbol id="shape-icon-cle-4g" viewBox="0 0 404.2 227"><g class="st0"><path class="st1" d="M37.3 103.8c-3.8 0-6.7 1.4-8.7 4.2-2.1 2.8-3.1 6.8-3.1 11.8 0 10.5 3.9 15.8 11.8 15.8 3.3 0 7.3-.8 12-2.5v8.4c-3.9 1.6-8.2 2.4-13 2.4-6.9 0-12.1-2.1-15.7-6.2-3.6-4.2-5.4-10.1-5.4-17.9 0-4.9.9-9.2 2.7-12.9 1.8-3.7 4.3-6.5 7.7-8.5 3.3-2 7.3-2.9 11.8-2.9 4.6 0 9.2 1.1 13.8 3.3l-3.2 8.1c-1.8-.8-3.5-1.6-5.3-2.2-1.9-.6-3.7-.9-5.4-.9zM65.5 143.3h-9.8V93.1h9.8v50.2zM89.1 143.9c-5.8 0-10.3-1.6-13.6-4.8-3.3-3.2-4.9-7.7-4.9-13.6 0-6 1.5-10.7 4.5-14 3-3.3 7.2-4.9 12.5-4.9 5.1 0 9.1 1.5 11.9 4.4s4.3 6.9 4.3 12v4.8H80.6c.1 2.8.9 5 2.5 6.5 1.5 1.6 3.7 2.4 6.5 2.4 2.2 0 4.2-.2 6.2-.7s4-1.2 6.1-2.2v7.6c-1.7.9-3.6 1.5-5.5 1.9-2.1.4-4.5.6-7.3.6zm-1.4-30.4c-2.1 0-3.7.7-4.9 2-1.2 1.3-1.9 3.2-2 5.6h13.8c0-2.4-.7-4.3-1.9-5.6-1.2-1.3-2.9-2-5-2zm-5.6-10.3v-.9c3.7-4.3 6.2-7.5 7.6-9.7h11v.7c-1.1 1.1-3 2.8-5.7 5s-4.8 3.8-6.3 4.9h-6.6zM154.5 133.5h-5.7v9.8h-9.7v-9.8H119v-6.9l20.7-30.4h9.2v29.6h5.7v7.7zm-15.4-7.8v-8c0-1.3.1-3.3.2-5.8s.2-4 .3-4.4h-.3c-.8 1.8-1.8 3.5-2.9 5.2l-8.6 13.1h11.3zM176.4 116.8h18.7v24.4c-3 1-5.9 1.7-8.6 2.1-2.7.4-5.4.6-8.2.6-7.1 0-12.5-2.1-16.3-6.3-3.8-4.2-5.6-10.2-5.6-18 0-7.6 2.2-13.5 6.5-17.8s10.4-6.4 18.1-6.4c4.8 0 9.5 1 14 2.9l-3.3 8c-3.4-1.7-7-2.6-10.7-2.6-4.3 0-7.8 1.5-10.4 4.4s-3.9 6.8-3.9 11.7c0 5.1 1 9 3.1 11.7s5.1 4 9.1 4c2.1 0 4.2-.2 6.4-.6v-9.8h-8.9v-8.3z"/></g><path class="st1" d="M332.3 80.1H230.7c-5.3 0-9.7 4.3-9.7 9.6v53.2c0 5.3 4.3 9.7 9.7 9.7h101.6c5.3 0 9.7-4.4 9.7-9.7V89.7c0-5.3-4.4-9.6-9.7-9.6m1.5 64.4H229.2V88.3h104.7v56.2h-.1zM361.3 80c0 2.7-2.2 4.8-4.8 4.8-2.7 0-4.8-2.2-4.8-4.8 0-5.3-4.3-9.7-9.7-9.7-2.7 0-4.8-2.2-4.8-4.8 0-2.7 2.2-4.8 4.8-4.8 10.6 0 19.3 8.7 19.3 19.3m19.4 0c0 2.7-2.2 4.8-4.8 4.8-2.7 0-4.8-2.2-4.8-4.8 0-16-13-29-29-29-2.7 0-4.8-2.2-4.8-4.8 0-2.7 2.2-4.8 4.8-4.8 21.2 0 38.6 17.3 38.6 38.6m19.3 0c0 2.7-2.2 4.8-4.8 4.8-2.7 0-4.8-2.2-4.8-4.8 0-26.7-21.7-48.4-48.4-48.4-2.7 0-4.8-2.2-4.8-4.8 0-2.7 2.2-4.8 4.8-4.8 32 0 58 26 58 58"/><path class="st1" d="M229.2 88.3h104.7v56.2H229.2V88.3zm1.5-8.2c-5.3 0-9.7 4.3-9.7 9.6v53.2c0 5.3 4.3 9.7 9.7 9.7h101.6c5.3 0 9.7-4.4 9.7-9.7V89.7c0-5.3-4.3-9.6-9.7-9.6H230.7zm106.4-14.6c0 2.7 2.2 4.8 4.8 4.8 5.3 0 9.7 4.3 9.7 9.7 0 2.7 2.2 4.8 4.8 4.8 2.7 0 4.8-2.2 4.8-4.8 0-10.7-8.7-19.3-19.3-19.3-2.6 0-4.8 2.2-4.8 4.8m0-19.3c0 2.7 2.2 4.8 4.8 4.8 16 0 29 13 29 29 0 2.7 2.2 4.8 4.8 4.8 2.7 0 4.8-2.2 4.8-4.8 0-21.3-17.4-38.7-38.7-38.7-2.5.1-4.7 2.2-4.7 4.9m0-19.4c0 2.7 2.2 4.8 4.8 4.8 26.7 0 48.4 21.7 48.4 48.4 0 2.7 2.2 4.8 4.8 4.8 2.7 0 4.8-2.2 4.8-4.8 0-32-26-58-58-58-2.6 0-4.8 2.2-4.8 4.8"/><path class="st1" d="M271.7 109v14c0 1.4 1.1 2.5 2.5 2.5h13.9c1.4 0 2.5-1.1 2.5-2.5v-14c0-1.4-1.1-2.5-2.5-2.5h-13.9c-1.4 0-2.5 1.1-2.5 2.5zm14.6 1.8v10.4H276v-10.4"/></symbol><symbol id="shape-icon-close" viewBox="0 0 31.1 31.1"><path d="M31.1 1.4L29.7 0 15.6 14.1 1.4 0 0 1.4l14.1 14.2L0 29.7l1.4 1.4L15.6 17l14.1 14.1 1.4-1.4L17 15.6z"/></symbol><symbol id="shape-icon-debit-down" viewBox="0 0 33.7 34.3"><path fill="#F28A05" d="M16.8 34.3c.1 0 .2 0 .2-.1.7-.1 1.5-.9 2.7-2.5.1-.2.6-.7 1.3-1.5 3.3-3.9 11.7-13.7 12.4-14.4.5-.5.4-1.3-.3-1.3h-5.9c-1.3 0-1.9-.8-1.9-1.5V1.9c0-.8-.4-1.7-1.3-1.8-.1-.1-.2-.1-.3-.1H10C8.5 0 8.2.9 8.2 2v10.8c0 1.4-.7 1.7-1.6 1.7H.8c-.8 0-1.1.7-.4 1.4.2.2 1.7 1.9 3.6 4.1 3.8 4.4 9.2 10.7 10.2 12 1.2 1.5 1.9 2.3 2.6 2.3"/></symbol><symbol id="shape-icon-debit-up" viewBox="0 0 33.7 34.3"><path fill="#009DCC" d="M16.9 0c-.1 0-.2 0-.2.1-.7.1-1.5.9-2.7 2.4-.1.2-.6.7-1.3 1.5C9.4 7.9 1 17.8.3 18.5c-.5.5-.4 1.3.3 1.3h5.9c1.3 0 1.9.8 1.9 1.5v11.1c0 .8.4 1.7 1.3 1.8.1 0 .2.1.2.1h13.7c1.4 0 1.8-.9 1.8-2V21.5c0-1.4.7-1.7 1.6-1.7h5.8c.8 0 1.1-.7.4-1.4-.2-.2-1.7-1.9-3.6-4.2-3.8-4.4-9.2-10.7-10.2-12C18.3.8 17.6 0 16.9 0"/></symbol><symbol id="shape-icon-fanion-secondary-end" viewBox="0 0 57 50.8"><path fill="#82DAEF" d="M51.6 0H41.1c4 0 6.2 3.1 4.8 6.9l-13.3 37c-1.4 3.8-5.8 6.9-9.8 6.9h10.6c4 0 8.4-3.1 9.8-6.9l13.2-37c1.4-3.8-.8-6.9-4.8-6.9z"/><path fill="#1BA8CB" d="M41.1 0H30.4c4 0 6.2 3.1 4.8 6.9L22 43.9c-1.4 3.8-5.8 6.9-9.8 6.9h10.5c4 0 8.4-3.1 9.8-6.9l13.3-37c1.5-3.8-.7-6.9-4.7-6.9z"/><path fill="#0F6DA3" d="M30.4 0H19.9c4 0 6.2 3.1 4.8 6.9l-13.3 37c-1.4 3.8-5.8 6.9-9.8 6.9h10.6c4 0 8.4-3.1 9.8-6.9l13.2-37c1.5-3.8-.8-6.9-4.8-6.9z"/><path fill="#0055A4" d="M19.9 0H-.8v50.8h2.5c4 0 8.4-3.1 9.8-6.9l13.3-37c1.4-3.8-.9-6.9-4.9-6.9z"/></symbol><symbol id="shape-icon-help" viewBox="0 0 91.999 92"><path d="M45.385.004C19.982.344-.334 21.215.004 46.619c.34 25.393 21.209 45.715 46.611 45.377 25.398-.342 45.718-21.213 45.38-46.615-.34-25.395-21.21-45.716-46.61-45.377zM45.249 74l-.254-.004c-3.912-.116-6.67-2.998-6.559-6.852.109-3.788 2.934-6.538 6.717-6.538l.227.004c4.021.119 6.748 2.972 6.635 6.937C51.903 71.346 49.122 74 45.249 74zm16.455-32.659c-.92 1.307-2.943 2.93-5.492 4.916l-2.807 1.938c-1.541 1.198-2.471 2.325-2.82 3.434-.275.873-.41 1.104-.434 2.88l-.004.451H39.429l.031-.907c.131-3.728.223-5.921 1.768-7.733 2.424-2.846 7.771-6.289 7.998-6.435.766-.577 1.412-1.234 1.893-1.936 1.125-1.551 1.623-2.772 1.623-3.972a7.74 7.74 0 0 0-1.471-4.576c-.939-1.323-2.723-1.993-5.303-1.993-2.559 0-4.311.812-5.359 2.478-1.078 1.713-1.623 3.512-1.623 5.35v.457H27.935l.02-.477c.285-6.769 2.701-11.643 7.178-14.487C37.946 18.918 41.446 18 45.53 18c5.346 0 9.859 1.299 13.412 3.861 3.6 2.596 5.426 6.484 5.426 11.556 0 2.837-.896 5.502-2.664 7.924z"/></symbol><symbol id="shape-icon-la-fibre" viewBox="0 0 249.2 47.5"><path fill="url(#shape-icon-la-fibre-a)" d="M206.6 35.8h-43.7c-1.9 0-3.5 1.6-3.5 3.5s1.6 3.5 3.5 3.5h43.7c1.9 0 3.5-1.6 3.5-3.5s-1.5-3.5-3.5-3.5z"/><path fill="url(#shape-icon-la-fibre-b)" d="M244.4 15.3h-73.2c-1.9 0-3.5 1.6-3.5 3.5s1.6 3.5 3.5 3.5h73.2c1.9 0 3.5-1.6 3.5-3.5s-1.6-3.5-3.5-3.5z"/><path fill="url(#shape-icon-la-fibre-c)" d="M204.3 4.5h-92.5c-1.9 0-3.5 1.6-3.5 3.5s1.6 3.5 3.5 3.5h92.5c1.9 0 3.5-1.6 3.5-3.5s-1.5-3.5-3.5-3.5z"/><path fill="url(#shape-icon-la-fibre-d)" d="M232.8 25.6h-92.5c-1.9 0-3.5 1.6-3.5 3.5s1.6 3.5 3.5 3.5h92.5c1.9 0 3.5-1.6 3.5-3.5s-1.6-3.5-3.5-3.5z"/><g><g fill="#105BA0"><path d="M90.7 29.3c0 8.2 6.1 14.3 13.8 14.3 8 0 14-6.6 14-14.7 0-6.6-5.7-14-13.7-14-7.3 0-10.5 5.1-10.5 5.1V3h-3.6v26.3zm24.1 0c0 5.9-4.1 11.2-10.3 11.2-5.7 0-10.4-5-10.4-11.1 0-6.2 5.1-11.1 10.4-11.2 5.7-.1 10.3 4.9 10.3 11.1z"/><path d="M104.5 44c-8.1 0-14.1-6.3-14.1-14.7V2.7h4.3V19c1.3-1.5 4.5-4.4 10.2-4.4 8.3 0 14 7.6 14 14.3 0 8.4-6.3 15.1-14.4 15.1zM91 3.3v26c0 8 5.8 14 13.5 14s13.7-6.3 13.7-14.4c0-6.5-5.5-13.7-13.4-13.7-7 0-10.2 4.9-10.2 4.9l-.6 1V3.3h-3zm13.5 37.5c-5.9 0-10.7-5.1-10.7-11.5 0-6.1 5-11.5 10.7-11.5 5.9 0 10.7 5.1 10.7 11.5 0 6.5-4.6 11.5-10.7 11.5zm0-22.3c-5.4 0-10 5.1-10 10.8 0 6 4.5 10.8 10 10.8 5.7 0 10-4.7 10-10.8 0-6-4.5-10.8-10-10.8z"/></g><g fill="#105BA0"><path d="M61.3 43.3h3.6V18.4h6.9v-3h-7v-1.1c0-6.8 2-10.2 9.2-8.2l.9-3c-1.6-.4-2.9-.6-4.3-.6-5.6 0-9.2 4-9.2 11.8v1.1h-3.5v3h3.5v24.9z"/><path d="M65.2 43.7H61v-25h-3.5v-3.6H61v-.7c0-7.7 3.5-12.1 9.5-12.1 1.4 0 2.7.2 4.4.6l.3.1-1 3.6-.3-.1c-3.3-.9-5.5-.7-6.9.7-1.3 1.3-1.9 3.6-1.9 7.2v.7h7v3.6h-6.9v25zm-3.6-.7h2.9V18.1h6.9v-2.3h-7v-1.4c0-3.9.6-6.3 2.1-7.7 1.5-1.5 3.8-1.8 7.3-.9l.7-2.3C73 3.1 71.8 3 70.6 3c-5.6 0-8.9 4.2-8.9 11.5v1.4h-3.5v2.3h3.5V43z"/></g><g fill="#105BA0"><path d="M122.8 43.2h3.6v-17c0-5.6 1.8-7.9 7.1-7.9 1.4 0 3.1.2 4.9.7l.8-3.3c-2.2-.5-3.9-.7-5.8-.7-7.9 0-10.8 4-10.8 10.7v17.5z"/><path d="M126.7 43.6h-4.3V25.7c0-7.6 3.5-11.1 11.1-11.1 2 0 3.7.2 5.8.7l.3.1-1 3.9-.3-.1c-1.8-.5-3.4-.7-4.9-.7-5 0-6.8 2-6.8 7.6v17.5zm-3.6-.7h2.9V26.2c0-6 2-8.3 7.5-8.3 1.4 0 3 .2 4.7.6l.7-2.6c-1.9-.4-3.5-.6-5.3-.6-7.2 0-10.4 3.2-10.4 10.4v17.2z"/></g><g fill="#105BA0"><path d="M79.8 15.4h3.6v27.8h-3.6z"/><path d="M83.7 43.6h-4.3V15.1h4.3v28.5zm-3.6-.7H83V15.7h-2.9v27.2z"/><g><path d="M84.1 5.7c0-1.5-1.2-2.6-2.6-2.6-1.5 0-2.6 1.2-2.6 2.6 0 1.5 1.2 2.6 2.6 2.6 1.4 0 2.6-1.2 2.6-2.6z"/><path d="M81.5 8.6c-1.6 0-3-1.3-3-3 0-1.6 1.3-3 3-3 1.6 0 3 1.3 3 3-.1 1.7-1.4 3-3 3zm0-5.2c-1.3 0-2.3 1-2.3 2.3 0 1.3 1 2.3 2.3 2.3 1.3 0 2.3-1 2.3-2.3 0-1.3-1.1-2.3-2.3-2.3z"/></g></g><g fill="#105BA0"><path d="M153.2 14.9c-7.8 0-13.8 6.3-13.8 14.4 0 8.1 6.4 14.3 14.5 14.3 3.9 0 7.6-1.2 10.2-3.2l-1.6-2.6c-2.2 1.6-5 2.6-8.1 2.6-7.3 0-11.2-5-11.5-10.6h17.7c4 0 5.3-1.7 4.7-5.6-.7-5.1-6.3-9.3-12.1-9.3zm7.8 12h-18.1c.6-4.5 4.2-8.9 10.3-8.9 5.5 0 8.8 4.1 8.8 7.6 0 .9-.1 1.3-1 1.3z"/><path d="M153.9 44c-8.3 0-14.8-6.5-14.8-14.7s6.2-14.7 14.1-14.7c6 0 11.7 4.3 12.5 9.6.3 2.1.1 3.6-.7 4.6-.8 1-2.2 1.4-4.3 1.4h-17.3c.4 5 3.9 10 11.1 10 2.9 0 5.6-.9 7.9-2.5l.3-.2 2 3.1-.2.2c-2.8 2-6.6 3.2-10.6 3.2zm-.7-28.7c-7.6 0-13.5 6.2-13.5 14 0 7.9 6.2 14 14.2 14 3.7 0 7.2-1.1 9.8-2.9l-1.3-2c-2.3 1.6-5 2.4-8 2.4-7.8 0-11.5-5.5-11.8-11v-.4h18c1.9 0 3.1-.4 3.8-1.2.7-.8.9-2.1.6-4-.7-4.8-6.1-8.9-11.8-8.9zm7.8 12h-18.5l.1-.4c.7-4.6 4.2-9.2 10.6-9.2 5.5 0 9.2 4.1 9.2 7.9 0 .6 0 1.7-1.4 1.7zm-17.7-.7H161c.5 0 .7-.1.7-1 0-3-3-7.3-8.5-7.3V18v.3c-5.8.1-9.1 4.2-9.9 8.3z"/></g><g><g fill="#105BA0"><path d="M28.9 43.5c7 0 10.5-6.1 10.5-6.1V43h3.3V29.5c0-7.7-6.2-14-13.8-14-7.5 0-13.8 6.7-13.8 14.6 0 7.5 5.9 13.4 13.8 13.4zm0-3.3c-5.6 0-10.2-4.8-10.2-10.7 0-5.8 4.7-10.7 10.1-10.7 5.6 0 10.1 4.8 10.1 10.7.2 5.9-4.4 10.7-10 10.7z"/><path d="M28.9 43.9c-8 0-14.1-6-14.1-13.9 0-8.1 6.4-14.9 14.1-14.9 7.8 0 14.1 6.4 14.1 14.4v14h-4v-4.9c-1.3 1.7-4.6 5.3-10.1 5.3zm0-28.1c-7.3 0-13.5 6.5-13.4 14.2 0 7.5 5.8 13.2 13.5 13.2 6.7 0 10.1-5.8 10.2-5.9l.6-1.1v6.6h2.6V29.5c-.1-7.6-6.1-13.7-13.5-13.7zm0 24.7c-5.8 0-10.5-4.9-10.5-11 0-2.9 1.1-5.6 3.1-7.8 2-2.1 4.7-3.3 7.3-3.3 5.8 0 10.5 4.9 10.5 11 .1 6.2-4.6 11.1-10.4 11.1zm0-21.7v.3c-2.5 0-5 1.1-6.9 3.1-1.9 2-2.9 4.6-2.9 7.3 0 5.7 4.4 10.4 9.8 10.4s9.8-4.7 9.8-10.4-4.4-10.4-9.8-10.4v-.3z"/></g></g><g><g fill="#105BA0"><path d="M1.6 4v30.2c0 4.5.8 9.4 7.5 9.4 1.4 0 3.2-.3 4.7-.7l-.6-3.2c-6.1 1.6-8 .3-8-6.8V4H1.6z"/><path d="M9 43.9c-6.9 0-7.8-5.2-7.8-9.7V3.6h4.2v29.2c0 3.4.4 5.3 1.4 6.2 1.1 1.1 2.8 1.1 6.2.2l.3-.1.8 3.8-.3.1c-1.5.6-3.3.9-4.8.9zM1.9 4.3v29.9c0 8 3.6 9.1 7.1 9.1 1.3 0 2.9-.2 4.3-.6l-.5-2.5c-1.5.4-2.6.5-3.5.5-1.3 0-2.3-.3-3-1-1.1-1.1-1.6-3.1-1.6-6.7V4.3H1.9z"/></g></g></g></symbol><symbol id="shape-icon-playzer" viewBox="0 0 287.9 93.4"><path fill="#DD6744" d="M195.8 44h-35.7l14.2-31.9h-18.4V0h40l-14.7 31.8h14.7V44zM232.6 44h-32.8V0h32.8v12.1h-17.7V16h17.7v12.2h-17.7v3.7h17.7V44zM277.4 44L269 30.2c2.6-1.3 4.6-3.2 6.1-5.8 1.5-2.6 2.3-5.4 2.3-8.5 0-4.4-1.5-8.2-4.4-11.3-3-3-6.5-4.6-10.6-4.6h-25.8v44h15.1V31.9h.1l17.8 29.3h18.3L277.4 44zm-25.7-23.9v-8h6.9c1.1 0 2 .4 2.7 1.2.7.8 1.1 1.7 1.1 2.8 0 1.1-.4 2.1-1.1 2.8-.7.8-1.7 1.2-2.7 1.2h-6.9z"/><path fill="#3C3C3B" d="M41.6 31.4c0 4.7-1.5 8.7-4.5 12-3 3.3-6.6 5-10.8 5h-11v12.8H0V14.4h26.3c4.2 0 7.8 1.6 10.8 4.9 3 3.4 4.5 7.4 4.5 12.1zm-15.3.2c0-1.1-.4-2.1-1.1-3-.8-.8-1.7-1.3-2.8-1.3h-7v8.5h7c1.1 0 2-.4 2.8-1.2.8-.8 1.1-1.8 1.1-3zM74.2 61.2H45.7V14.4h15.4v33.9h13.1v12.9zM130.6 61.2H112l-1.8-4.7h-14l-1.8 4.7H75.7l18.1-46.8h18.7l18.1 46.8zM106 45.8l-2.8-7.3-2.9 7.3h5.7zM170.5 14.4l-14.2 31.7-6.3 15h-15.4l6.3-14.7-14.3-32.1h14.7l7.2 15.5 7.5-15.5h14.5z"/><g fill="#DD6744"><path d="M0 88.5V71.8h8.9c1.9 0 3.3.5 4.4 1.6 1.1 1.1 1.6 2.5 1.6 4.1 0 1.3-.3 2.4-.9 3.2s-1.3 1.4-2.1 1.8l3 5.9H9.2l-2.3-5.2H5v5.2H0zm5-9.7h3.1c.5 0 .9-.1 1.2-.3.3-.2.5-.6.5-1s-.2-.7-.5-1c-.3-.2-.7-.3-1.2-.3H5v2.6zM15.3 82.4c0-1.8.6-3.3 1.8-4.5 1.2-1.2 2.8-1.8 4.7-1.8 1.8 0 3.3.6 4.5 1.8 1.2 1.2 1.8 2.9 1.8 5v.9h-8.2c.1.4.4.8.9 1.1s1 .5 1.7.5c.4 0 .9-.1 1.5-.2s1-.4 1.3-.6l1.9 2.8c-.6.5-1.3.8-2.3 1.1-.9.3-1.9.4-2.9.4-1.9 0-3.5-.6-4.8-1.7-1.3-1.3-1.9-2.8-1.9-4.8zm4.6-1.4h4c-.2-1-.9-1.5-2-1.5s-1.8.5-2 1.5zM28.8 82.1c0-1.9.5-3.4 1.5-4.5s2.3-1.6 3.8-1.6c1.4 0 2.5.5 3.4 1.6v-1.3H42v10.8c0 1-.2 1.9-.5 2.6-.3.8-.7 1.4-1.2 1.8-.5.4-1.1.8-1.7 1.1-.7.3-1.3.5-1.9.5-.6.1-1.3.1-1.9.1-2.1 0-4-.6-5.5-1.8l1.9-3.2c.9.9 2.1 1.3 3.6 1.3.7 0 1.4-.2 1.9-.6.6-.4.9-1 .9-1.9v-.7c-1 1.1-2.1 1.6-3.4 1.6-1.5 0-2.8-.5-3.8-1.5s-1.6-2.3-1.6-4.3zm5.2-1.5c-.4.3-.6.8-.6 1.5s.2 1.2.6 1.5 1 .5 1.6.5c.3 0 .7-.1 1-.2s.6-.3.8-.6v-2.5c-.2-.2-.5-.4-.8-.6-.4-.1-.7-.2-1-.2-.6.1-1.2.2-1.6.6zM43.7 82.4c0-1.9.5-3.5 1.5-4.6 1-1.1 2.3-1.7 3.8-1.7 1.4 0 2.5.5 3.4 1.6v-1.3h4.5v12.1h-4.5v-1.3c-.9 1-2.1 1.6-3.4 1.6-1.5 0-2.8-.6-3.8-1.7s-1.5-2.7-1.5-4.7zm4.6 0c0 .7.2 1.3.6 1.7.4.4 1 .6 1.6.6.8 0 1.4-.3 1.9-.8v-3.1c-.4-.5-1.1-.8-1.9-.8-.6 0-1.2.2-1.6.6-.4.5-.6 1.1-.6 1.8zM59.3 88.5V76.4h4.5v1.3c.4-.4.9-.8 1.6-1.2s1.4-.5 2.1-.5v4.3c-.3-.1-.6-.1-1-.1-1.3 0-2.2.3-2.7.9v7.4h-4.5zM68.3 82.4c0-2 .5-3.5 1.5-4.6 1-1.1 2.3-1.7 3.8-1.7 1.4 0 2.5.5 3.4 1.6v-5.9h4.5v16.7H77v-1.3c-.9 1-2.1 1.6-3.4 1.6-1.5 0-2.8-.6-3.8-1.7s-1.5-2.7-1.5-4.7zm4.6 0c0 .7.2 1.3.6 1.7.4.4 1 .6 1.6.6.8 0 1.4-.3 1.9-.8v-3.1c-.4-.5-1.1-.8-1.9-.8-.6 0-1.2.2-1.6.6s-.6 1.1-.6 1.8zM83.1 82.4c0-1.8.6-3.3 1.8-4.5 1.2-1.2 2.8-1.8 4.7-1.8 1.8 0 3.3.6 4.5 1.8 1.2 1.2 1.8 2.9 1.8 5v.9h-8.2c.1.4.4.8.9 1.1.5.3 1 .5 1.7.5.4 0 .9-.1 1.5-.2.6-.2 1-.4 1.3-.6l1.9 2.8c-.6.5-1.3.8-2.3 1.1-.9.3-1.9.4-2.9.4-1.9 0-3.5-.6-4.8-1.7-1.2-1.3-1.9-2.8-1.9-4.8zm4.6-1.4h4c-.2-1-.9-1.5-2-1.5-1 0-1.7.5-2 1.5zM97.1 88.5v-3.4l4.2-4.7h-4.2v-4h10.4v3.2l-4.4 4.9h4.4v4H97.1zM114.4 76.4h4.7l2.3 6.9 2.3-6.9h4.7l-4.7 12.1H119l-4.6-12.1zM130.4 86.9c-1.2-1.2-1.8-2.7-1.8-4.5 0-1.8.6-3.3 1.8-4.5 1.2-1.2 2.9-1.8 4.9-1.8 2.1 0 3.7.6 4.9 1.8 1.2 1.2 1.8 2.7 1.8 4.5 0 1.8-.6 3.3-1.8 4.5s-2.9 1.9-4.9 1.9c-2.1 0-3.7-.6-4.9-1.9zm2.7-4.5c0 .7.2 1.3.6 1.7.4.4.9.7 1.6.7.7 0 1.2-.2 1.6-.7s.6-1 .6-1.7-.2-1.2-.6-1.7-.9-.7-1.6-.7c-.7 0-1.2.2-1.6.7-.4.5-.6 1-.6 1.7zM142.7 80.4v-4h2v-3.2h4.5v3.2h2.5v4h-2.5v3.3c0 .3.1.6.3.8.2.2.4.3.7.3.4 0 .7-.1.9-.2l.8 3.4c-.6.5-1.6.8-3 .8-1.3 0-2.4-.3-3.1-1-.7-.6-1.1-1.6-1.1-2.8v-4.6h-2zM153.3 88.5V76.4h4.5v1.3c.4-.4.9-.8 1.6-1.2s1.4-.5 2.1-.5v4.3c-.3-.1-.6-.1-1-.1-1.3 0-2.2.3-2.7.9v7.4h-4.5zM162.2 82.4c0-1.8.6-3.3 1.8-4.5 1.2-1.2 2.8-1.8 4.7-1.8 1.8 0 3.3.6 4.5 1.8 1.2 1.2 1.8 2.9 1.8 5v.9h-8.2c.1.4.4.8.9 1.1.5.3 1 .5 1.7.5.4 0 .9-.1 1.5-.2s1-.4 1.3-.6l1.9 2.8c-.6.5-1.3.8-2.3 1.1-.9.3-1.9.4-2.9.4-1.9 0-3.5-.6-4.8-1.7-1.3-1.3-1.9-2.8-1.9-4.8zm4.6-1.4h4c-.2-1-.9-1.5-2-1.5s-1.7.5-2 1.5zM182.9 88.5V76.4h4.5v1.4c.3-.4.8-.8 1.6-1.1.7-.4 1.5-.5 2.4-.5 1.8 0 3 .7 3.5 2.1.4-.6 1-1.1 1.7-1.5.8-.4 1.6-.6 2.5-.6 1.1 0 2.1.3 2.7.9.7.6 1 1.5 1 2.7v8.7h-4.5v-7c0-.4-.1-.7-.3-1-.2-.2-.6-.4-1-.4-.7 0-1.3.3-1.8 1v7.4h-4.5v-7c0-.9-.5-1.3-1.4-1.3-.7 0-1.3.3-1.8 1v7.4h-4.6zM205.3 85v-8.6h4.5v6.7c0 1.1.6 1.7 1.7 1.7.7 0 1.3-.3 1.9-1v-7.4h4.5v12.1h-4.5v-1.4c-1 1.1-2.4 1.6-4.1 1.7-1.3 0-2.3-.4-3-1.1-.6-.7-1-1.6-1-2.7zM219.5 86.9l1.8-3c.5.4 1.2.7 2.1 1.1.9.3 1.7.5 2.3.5.8 0 1.2-.2 1.2-.5 0-.2-.2-.4-.7-.4-.5-.1-1-.2-1.7-.3-.7-.1-1.4-.3-2.1-.5-.7-.2-1.3-.6-1.8-1.2s-.7-1.4-.7-2.3c0-1.1.5-2.1 1.5-2.9 1-.8 2.4-1.2 4.1-1.2 1.9 0 3.7.5 5.2 1.5l-1.6 2.9c-.4-.3-.9-.6-1.6-.9-.6-.3-1.3-.4-2-.4s-1.1.2-1.1.5c0 .2.2.3.7.4.5.1 1 .2 1.7.3.7.1 1.3.3 2 .5s1.2.7 1.7 1.3c.5.6.7 1.4.7 2.3 0 1.2-.5 2.2-1.5 3-1 .8-2.4 1.1-4.2 1.1-1.1 0-2.2-.2-3.4-.5-1.1-.3-2-.7-2.6-1.3zM233.1 74.8c-.5-.5-.7-1.1-.7-1.8s.2-1.3.7-1.8c.5-.5 1.1-.7 1.8-.7s1.3.2 1.8.7c.5.5.7 1.1.7 1.8s-.2 1.3-.7 1.8c-.5.5-1.1.7-1.8.7s-1.3-.2-1.8-.7zm-.4 13.7V76.4h4.5v12.1h-4.5zM238.8 82.4c0-2 .5-3.6 1.5-4.7s2.3-1.7 3.8-1.7c1.4 0 2.5.5 3.4 1.6v-1.3h4.5V93h-4.5v-5.9c-.9 1-2.1 1.6-3.4 1.6-1.5 0-2.8-.6-3.8-1.7-1-1-1.5-2.6-1.5-4.6zm4.6 0c0 .7.2 1.3.6 1.7.4.4 1 .6 1.6.6.3 0 .6-.1 1-.2.4-.2.7-.4.8-.6v-3.1c-.2-.3-.5-.5-.8-.6-.4-.1-.7-.2-1-.2-.6 0-1.2.2-1.6.6-.3.5-.6 1.1-.6 1.8zM254.5 85v-8.6h4.5v6.7c0 1.1.6 1.7 1.7 1.7.7 0 1.3-.3 1.9-1v-7.4h4.5v12.1h-4.5v-1.4c-1 1.1-2.4 1.6-4.1 1.7-1.3 0-2.3-.4-3-1.1-.7-.7-1-1.6-1-2.7zM268.8 82.4c0-1.8.6-3.3 1.8-4.5 1.2-1.2 2.8-1.8 4.7-1.8 1.8 0 3.3.6 4.5 1.8 1.2 1.2 1.8 2.9 1.8 5v.9h-8.2c.1.4.4.8.9 1.1.5.3 1 .5 1.7.5.4 0 .9-.1 1.5-.2.6-.2 1-.4 1.3-.6l1.9 2.8c-.6.5-1.3.8-2.3 1.1-.9.3-1.9.4-2.9.4-1.9 0-3.5-.6-4.8-1.7-1.2-1.3-1.9-2.8-1.9-4.8zm4.6-1.4h4c-.2-1-.9-1.5-2-1.5s-1.7.5-2 1.5zM283.6 88c-.5-.5-.8-1.2-.8-1.9s.3-1.4.8-1.9 1.1-.8 1.8-.8 1.3.3 1.8.8.8 1.2.8 1.9-.3 1.4-.8 1.9-1.1.8-1.8.8-1.3-.3-1.8-.8z"/></g></symbol><symbol id="shape-icon-start-canal" viewBox="0 0 74.8 43.9"><path fill="#009CD8" d="M0 0v43.9h74.8V0H0z"/><path fill="#FFF" d="M14.7 8.5c-.9-.8-1.9-1.2-2.9-1.2-.5 0-.9.1-1.3.4-.4.3-.6.7-.6 1.1 0 .5.3.9.9 1.2.2.1.9.3 2.1.7 1.4.4 2.4 1 3.1 1.7.7.8 1.1 1.8 1.1 3s-.2 2.3-.6 3.1c-.5 1-1.4 1.8-2.6 2.3-1 .5-2.2.7-3.4.7-1.2 0-2.5-.3-3.8-.8-.7-.3-1.2-.5-1.5-.8-.2-.1-.3-.2-.5-.4L6.5 16c1.3 1.2 2.6 1.7 3.9 1.7.6 0 1.1-.1 1.5-.4.4-.3.7-.7.7-1.3 0-.5-.2-.9-.7-1.2-.2-.2-.6-.3-1-.5-.2 0-.5-.1-.9-.3l-1-.1c-.6-.2-1.1-.4-1.7-.7-1.3-.7-2-1.9-2-3.8 0-1.7.5-3.1 1.6-4.1C8 4.2 9.4 3.7 11.1 3.7c1.8 0 3.6.5 5.4 1.4l-1.8 3.4zM29.4 7.9h-3.6l-1.6 13.2h-4.3l1.7-13.2h-3.7l.5-3.8h11.5l-.5 3.8zM53.9 21.1l-4.2-6.5v6.5h-4.4v-17h6.8c1.8 0 3.2.5 4.2 1.5.9 1 1.4 2.3 1.4 3.7 0 .8-.2 1.6-.5 2.3-.4.8-.9 1.4-1.6 1.8-.4.2-.9.5-1.6.6l5.3 6.9h-5.4v.2zm-3.4-9.4c1.8 0 2.7-.7 2.7-2.1 0-.7-.3-1.3-.8-1.6-.4-.3-1-.5-1.9-.5h-.8v4.2h.8zM66.6 7.9v13.2h-4.4V7.9h-3.5V4.1h11.6v3.8h-3.7zM39.3 21.1l-.8-3.1h-5.9l-1.4 3.1h-4.7l8.4-16.9h4.8l4.1 16.9h-4.5zm-2.2-9.5c-.1-.6-.2-1-.2-1.1-.1-.5-.1-.8-.2-1.4-.1.2-.2.5-.2.6-.2.5-.4 1-.6 1.4l-1.6 3.5h3.5l-.7-3zM8.5 28.3c1.3 0 2 .6 2 1.8 0 .4-.1.7-.3 1-.1.2-.3.3-.5.5.4.1.8.2 1 .4.3.3.5.8.5 1.3 0 .7-.3 1.2-.7 1.5-.4.3-1 .5-1.7.5h-3v-7h2.7zM7.9 31c.6 0 .9-.2.9-.7 0-.5-.3-.7-.9-.7h-.3V31h.3zm.1 2.9c.8 0 1.3-.3 1.3-.7 0-.3-.1-.5-.3-.6-.2-.1-.5-.1-.9-.1h-.5V34H8v-.1zM15.4 31.9v3.4h-1.8v-3.4l-2.5-3.6h2.1l1.4 1.9 1.2-1.9H18l-2.6 3.6z"/><path fill="#0E191E" d="M20.7 39.4h49.6V24.1H20.7v15.3z"/><path fill="#FFF" d="M30.4 35.8c0 .1-.1.2-.1.2l-.1.1c-1.2.5-2.6.3-2.6.3-2.2-.2-3.6-1.6-4.1-3.4-.7-2.6.7-4.5 1-4.9.8-.9 2-1.6 3.2-1.8 1.5-.2 2.7.1 3.1.3 0 0 .5.2.9.4.2.1.2.2.2.2v.2l-.4 1.9c0 .1-.1.1-.1.1l-.2-.1c-1.2-.8-2.5-.7-2.5-.7-1 .1-2.2.6-2.6 2-.3 1.2 0 2.2.7 2.8.5.4 1.2.6 2 .6.9-.1 1.6-.4 1.5-.4h.1l.2-.1v.2l-.2 2.1zM50.4 36.2H48l-3.2-5.7-.8 5.6v.1h-2.4-.1s-.1-.1 0-.1l1.3-9V27H45.6l2.9 5.1.1.1.1-.1.7-5H52l-1.3 9.1c-.2-.1-.2 0-.3 0 .1 0 .1 0 0 0M38.7 27c0-.1 0-.1 0 0l-.1-.1h-3l-.1.1-4.4 9v.1H33.9V36l.6-1.4c0-.1.1-.1.1-.1s0-.1.1-.1h3.2v.1l.4 1.4v.1H40.6l-1.9-9zm-1.1 5.5h-2v-.1l1.3-2.9.7 3M55.1 26.9s-.1 0-.1.1l-3.5 9.2v.1h2.4s.1 0 .1-.1l.6-1.5.1-.1h3.2s.1 0 .1.1l.6 1.5.1.1h2.4s.1 0 0-.1L57.7 27l-.1-.1h-2.5zm.3 5.8s-.1 0 0 0l.9-2.9.9 2.8s0 .1-.1.1h-1.7zM64.7 33.8s0 .1 0 0l3 .1s.1 0 .1.1v2.2s0 .1-.1.1H62s-.1 0-.1-.1v-9.5s0-.1.1-.1h2.6s.1 0 .1.1v7.1z"/></symbol></svg>