<svg xmlns="http://www.w3.org/2000/svg"><symbol id="shape-icon-arrow-l-thin" viewBox="0 0 11 20"><path d="M.1 10l2.3 2.4 7 7c.1.1.3.2.4.2.2 0 .3-.2.5-.4l-.1-.2.2.1.1-.2-9.3-9.1L10.5.5l-.1-.1c-.1-.2-.3-.4-.4-.4-.2 0-.4.1-.5.3L.3 9.4c0 .1-.1.1-.1.2l-.2.2.1.2z"/></symbol><symbol id="shape-icon-arrow-r-thin" viewBox="0 0 11 20"><path d="M10.4 9.6L8 7.2l-7-7C.9.1.7 0 .6 0 .3 0 .2.2.1.4l.1.2L.1.4 0 .6l9.3 9.3L0 19.1l.1.1c.1.2.3.4.4.4.2 0 .3-.1.4-.3l9.2-9.1.2-.2.2-.2-.1-.2z"/></symbol><symbol id="shape-icon-box" viewBox="0 0 129.4 46.4"><path d="M26.9 13.4c0-2 1.6-3.7 3.7-3.7 2 0 3.7 1.6 3.7 3.7 0 2-1.6 3.7-3.7 3.7-2.1-.1-3.7-1.7-3.7-3.7m-11 3.6c2 0 3.7-1.6 3.7-3.7 0-2-1.6-3.7-3.7-3.7-2 0-3.7 1.6-3.7 3.7s1.6 3.7 3.7 3.7m29.3 0c2 0 3.7-1.6 3.7-3.7 0-2-1.6-3.7-3.7-3.7-2 0-3.7 1.6-3.7 3.7s1.6 3.7 3.7 3.7m84.2-12.2v29.3c0 2.7-2.2 4.9-4.9 4.9h-4.9v4.9c0 1.3-1.1 2.4-2.4 2.4H105c-1.3 0-2.4-1.1-2.4-2.4V39H70.8v4.9c0 1.3-1.1 2.4-2.4 2.4h-4.9c-1.3 0-2.4-1.1-2.4-2.4V39H26.9v4.9c0 1.3-1.1 2.4-2.4 2.4H12.2c-1.3 0-2.4-1.1-2.4-2.4V39H4.9C2.2 39 0 36.8 0 34.1V4.8C0 2.1 2.2 0 4.9 0h119.6c2.7 0 4.9 2.1 4.9 4.8M22 39.1h-7.3v2.4H22v-2.4zm85.4 0v2.4h7.3v-2.4m9.8-34.2H4.9v29.3H61v-9.8c0-1.3 1.1-2.4 2.4-2.4h4.9c1.3 0 2.4 1.1 2.4 2.4v9.8h53.7V4.9z"/></symbol><symbol id="shape-icon-cancel" viewBox="0 0 512 512"><path d="M479.8 131.01L376.026 27.164 256 147.19 136.012 27.164 32.201 131.01l120.027 119.952L32.201 370.987l103.811 103.848L256 354.808l120.026 120.027L479.8 370.987 359.81 250.962 479.8 131.01z"/></symbol><symbol id="shape-icon-double-arrow-l" viewBox="0 0 17 20"><path d="M10.5.5l-.1-.1c-.1-.2-.3-.4-.4-.4-.2 0-.4.1-.5.3L.3 9.4c0 .1-.1.1-.1.2l-.2.2.1.2.1.1 2.3 2.3 7 7c.1.1.3.2.4.2.2 0 .6-.6.6-.6L1.2 9.8 10.5.5z"/><path d="M16.5.5l-.1-.1c-.1-.2-.3-.4-.4-.4-.2 0-.3.1-.4.3L6.3 9.4c0 .1-.1.1-.1.2l-.2.2.1.2.1.1 2.3 2.3 7 7c.1.1.3.2.4.2.2 0 .6-.6.6-.6L7.2 9.8 16.5.5z"/></symbol><symbol id="shape-icon-double-arrow-r" viewBox="0 0 17 20"><path d="M10.3 10l.2-.2-.1-.2-.1-.1L8 7.2l-7-7C.9.1.7 0 .6 0 .3 0 0 .6 0 .6l9.3 9.3L0 19.1l.1.1c.1.2.3.4.4.4.2 0 .3-.1.4-.3l9.2-9.1c.1-.1.2-.1.2-.2z"/><path d="M16.4 9.6L14 7.2l-7-7C6.9.1 6.7 0 6.6 0c-.3 0-.6.6-.6.6l9.3 9.3L6 19.1l.1.1c.1.2.3.4.4.4.2 0 .3-.1.4-.3l9.2-9.1.2-.2.2-.2-.1-.2z"/></symbol><symbol id="shape-icon-help-thin" viewBox="0 0 19 19"><path d="M9.5 19C4.3 19 0 14.7 0 9.5S4.3 0 9.5 0 19 4.3 19 9.5 14.7 19 9.5 19zm0-18C4.8 1 1 4.8 1 9.5S4.8 18 9.5 18 18 14.2 18 9.5 14.2 1 9.5 1z"/><path d="M8.8 11.2v-.4c0-.4.1-.7.2-1s.5-.6.9-.9c.4-.3.7-.5.8-.7s.2-.4.2-.6c0-.3-.1-.4-.3-.6s-.4-.2-.8-.2c-.6 0-1.3.2-2 .6L7.2 6c.8-.4 1.8-.7 2.7-.7.8 0 1.4.2 1.9.6s.7.9.7 1.5c0 .4-.1.8-.3 1.1s-.6.7-1.1 1.1c-.4.3-.6.5-.7.6s-.1.3-.1.6v.4H8.8zm-.2 2c0-.3.1-.6.3-.7s.4-.3.8-.3c.3 0 .6.1.8.3s.3.4.3.7c0 .3-.1.6-.3.7s-.4.3-.8.3c-.3 0-.6-.1-.8-.3s-.3-.4-.3-.7z"/></symbol><symbol id="shape-icon-information" viewBox="0 0 78.64 78.64"><path d="M39.32 0a39.32 39.32 0 1 0 39.32 39.32A39.36 39.36 0 0 0 39.32 0m0 76.26a36.94 36.94 0 1 1 36.94-36.94 37 37 0 0 1-36.94 36.94"/><path d="M37.89 18.66h2.98v31.58h-2.98zM37.89 55.81h2.98v4.17h-2.98z"/></symbol><symbol id="shape-icon-unhappy-customer" viewBox="0 0 32 19"><title>icon-serviceclient@1x</title><path d="M7.008 3.416c0 .657.224 1.229.667 1.717.442.484 1.052.728 1.828.728.679 0 1.255-.244 1.732-.728.473-.488.71-1.076.71-1.764 0-.689-.24-1.271-.721-1.736A2.359 2.359 0 0 0 9.502.924c-.789 0-1.398.246-1.836.74a2.538 2.538 0 0 0-.658 1.752m17.57-1.763a2.034 2.034 0 0 0-.454-.375c-.369-.229-.813-.355-1.351-.355-.654 0-1.232.24-1.722.722-.491.482-.739 1.055-.739 1.721 0 .456.145.887.43 1.294.098.142.211.279.344.415.513.522 1.074.785 1.688.785.766 0 1.365-.239 1.796-.72a2.492 2.492 0 0 0 .649-1.726c0-.685-.215-1.272-.641-1.761m-.623 9.982c-.373-.131-.746-.273-1.116-.388a21.741 21.741 0 0 0-4.938-.898 27.1 27.1 0 0 0-1.77-.06c-1.236 0-2.418.084-3.544.248-.981.14-1.921.355-2.837.619-.137.039-.279.068-.414.112-1.037.32-2.073.722-3.113 1.202a34.486 34.486 0 0 0-3.168 1.691c-1.212.721-1.961 1.291-2.254 1.705-.291.416-.434 1.008-.434 1.773 0 .547.15.82.442.82.087 0 .614-.232 1.583-.692.414-.196.867-.396 1.346-.599a45.562 45.562 0 0 1 2.074-.826c1.312-.492 2.865-.922 4.66-1.297a26.109 26.109 0 0 1 3.181-.45c.81-.067 1.634-.106 2.478-.106 1.596 0 3.129.127 4.604.366h.002c.344.058.69.112 1.027.183 1.789.364 3.344.799 4.67 1.297l.117.047c1.271.477 2.375.943 3.3 1.386.959.46 1.487.692 1.584.692.296 0 .442-.273.442-.82 0-.734-.151-1.314-.458-1.74-.306-.426-1.06-1.008-2.265-1.738-.08-.051-.16-.092-.244-.142a28.977 28.977 0 0 0-4.955-2.382"/></symbol><symbol id="shape-icon-warning" viewBox="0 0 88.2 81"><path d="M86.3 58.3l-28.1-49C54.7 3.4 49.5 0 44.1 0c-4.3 0-8.4 2.1-11.7 6-.9 1.1-1.7 2.2-2.5 3.5L24.4 19 2.9 56.2c-3.5 6-3.9 12.4-1.1 17.2 2.8 4.8 8.4 7.7 15.3 7.7H71c7 0 12.6-2.9 15.3-7.7 2.5-4.3 2.5-9.8 0-15.1M44.1 69.2c-2.8 0-5.1-2.3-5.1-5.1s2.3-5.1 5.1-5.1 5.1 2.3 5.1 5.1-2.3 5.1-5.1 5.1M45.2 55h-2.3c-3.1-19-4.7-28.7-4.7-30.2 0-1.8.6-3.2 1.8-4.3 1.2-1.1 2.5-1.7 4-1.7 1.6 0 3 .6 4.1 1.8 1.1 1.2 1.7 2.5 1.7 4.1.1 1.5-1.4 11.3-4.6 30.3"/></symbol></svg>