<svg xmlns="http://www.w3.org/2000/svg" xmlns:xlink="http://www.w3.org/1999/xlink" version="1.1" id="_x34_G" x="0px" y="0px" viewBox="0 0 616.727 402.707" enable-background="new 0 0 616.727 402.707" xml:space="preserve"><g><path d="M306.245 9.079h-75.123c-10.619 0.309-27.873 9.634-37.669 20.383c-0.061 0.09-0.09 0.104-174.447 178.9 c-8.527 9.786-10.07 13.063-11.772 25.961l-6.146 52.107c-0.32 2.6 0.2 4.9 1.6 6.413c1.661 1.9 4.2 2.1 5.5 2.1 h175.379c0 0-11.456 87.215-11.674 88.785c-0.317 2.7 0.3 5.1 1.7 6.604c1.229 1.3 3.2 2.1 5.4 2.075l0.887 0 h74.133c6.867-0.007 13.435-5.934 14.304-12.942c0.025-0.08 10.535-84.529 10.535-84.529h22.241c1.982 0 4.642-2.617 4.95-5.902 l6.039-64.614c0.096-1.149-0.116-1.853-0.264-2.162c-0.031 0-0.031 0-0.031 0h-23.88l25.444-204.435 c0.35-2.643-0.322-5.172-1.766-6.725C310.062 9.4 307.8 9.1 306.2 9.079z M192.967 222.414l-81.917 0.072l99.479-104.678 L192.967 222.414z" class="fourGSVG"/><path d="M614.975 193.718c-1.939-2.104-4.743-3.236-7.904-3.236H495.156c-3.571 0-7.102 3.186-7.579 6.8 l-7.351 57.012c-0.191 1.4 0.1 2.6 0.8 3.325c0.767 0.8 1.9 1 2.7 0.991h38.792c0 0-4.665 40.006-4.693 40.2 c-1.399 13.032-14.25 15.4-16.809 15.743l-0.106 0.027l-0.108 0.004c-8.948 0.71-23.928 1.006-34.959 1.141h-0.174l-0.196-0.01 c-14.638-1.162-26.851-6.713-35.396-16.076c-10.127-11.079-14.688-27.188-12.852-45.373l-0.005-0.04l0.024-0.012l10.526-91.565 c3.722-34.584 36.958-64.929 71.185-64.929l76.444-0.027c3.536 0 7.064-3.796 7.545-8.085l-0.007-0.049l0.021-0.014l9.349-77.454 c0.346-3.514-0.626-6.688-2.764-8.962C587.604 1.1 584.8 0 581.7 0H501.52c-81.419 0-152.141 63.469-161.005 144.5 l-0.02 0.027l0.004 0.032l-11.628 95.02c-2.25 21.17-0.145 42 6.2 61.801c6.423 20 16.8 37.9 30.9 53.4 c13.83 15.1 30.4 27 49.3 35.258c18.869 8.2 39.1 12.4 60.1 12.435c0.156 0 6.8 0.2 12.4 0.2 c18.889 0 56.364-1.488 95.007-11.421c6.473-1.788 11.688-7.55 12.688-14.032l22.139-174.279 C618.074 199.4 617.1 196 615 193.718z" class="fourGSVG"/></g></svg>