<?xml version="1.0" encoding="UTF-8" standalone="no"?>
<svg width="31px" height="31px" viewBox="0 0 31 31" version="1.1" xmlns="http://www.w3.org/2000/svg" xmlns:xlink="http://www.w3.org/1999/xlink" xmlns:sketch="http://www.bohemiancoding.com/sketch/ns">
    <!-- Generator: Sketch 3.1.1 (8761) - http://www.bohemiancoding.com/sketch -->
    <title>icon-3x-sans-frais@1x</title>
    <desc></desc>
    <defs></defs>
    <g id="Page-1" stroke="none" stroke-width="1"  fill-rule="evenodd" >
        <path d="M20.1406316,25.1090526 L22.0193684,28.3629474 C22.1541053,28.5978947 22.3991579,28.7292632 22.6492632,28.7292632 C22.7722105,28.7292632 22.8985263,28.6947368 23.0113684,28.6290526 C23.3591579,28.4294737 23.4778947,27.984 23.2791579,27.6362105 L21.3987368,24.3823158 C21.1983158,24.0353684 20.7545263,23.9174737 20.4058947,24.1170526 C20.0589474,24.3166316 19.9402105,24.7612632 20.1406316,25.1090526 L20.1406316,25.1090526 Z M14.6155789,26.1995789 L14.6155789,29.9578947 C14.6155789,30.3595789 14.9397895,30.6854737 15.3414737,30.6854737 C15.744,30.6854737 16.0673684,30.3595789 16.0673684,29.9578947 L16.0673684,26.1995789 C16.0673684,25.7978947 15.744,25.4711579 15.3414737,25.4711579 C14.9397895,25.4711579 14.6155789,25.7978947 14.6155789,26.1995789 L14.6155789,26.1995789 Z M7.40378947,27.6362105 C7.20421053,27.984 7.32210526,28.4269474 7.67073684,28.6290526 C7.78442105,28.6947368 7.90989474,28.7267368 8.03368421,28.7267368 C8.28378947,28.7267368 8.528,28.5953684 8.66273684,28.3629474 L10.5414737,25.1090526 C10.7418947,24.7637895 10.624,24.3191579 10.2753684,24.1170526 C9.92842105,23.9174737 9.48294737,24.0353684 9.28252632,24.3823158 L7.40378947,27.6362105 L7.40378947,27.6362105 Z M4.48336842,14.6172632 L0.726736842,14.6172632 C0.325894737,14.6172632 0,14.9431579 0,15.344 C0,15.744 0.325894737,16.0690526 0.726736842,16.0690526 L4.48336842,16.0690526 C4.88589474,16.0690526 5.21010526,15.744 5.21010526,15.344 C5.21010526,14.9431579 4.88589474,14.6172632 4.48336842,14.6172632 L4.48336842,14.6172632 Z M6.56757895,10.2770526 C6.76884211,9.93010526 6.64842105,9.48463158 6.30231579,9.28505263 L3.04673684,7.40547368 C2.69978947,7.20505263 2.25431579,7.32463158 2.05473684,7.67242105 C1.85431579,8.01936842 1.97305263,8.46484211 2.32084211,8.66526316 L5.57473684,10.5431579 C5.69010526,10.6088421 5.81557895,10.6408421 5.93684211,10.6408421 C6.18863158,10.6408421 6.43368421,10.5094737 6.56757895,10.2770526 L6.56757895,10.2770526 Z M6.56757895,20.4075789 C6.36631579,20.0614737 5.92168421,19.9435789 5.57473684,20.1431579 L2.32084211,22.0202105 C1.97389474,22.2206316 1.85431579,22.6669474 2.05473684,23.0138947 C2.18863158,23.2471579 2.43368421,23.376 2.68547368,23.376 C2.80673684,23.376 2.93305263,23.3482105 3.04673684,23.2783158 L6.30231579,21.4012632 C6.64842105,21.2016842 6.76884211,20.7545263 6.56757895,20.4075789 L6.56757895,20.4075789 Z M10.9136842,14.3334737 L10.3208421,14.3334737 C9.96463158,14.3334737 9.68336842,14.0522105 9.68336842,13.7111579 C9.68336842,13.3549474 9.96463158,13.0728421 10.3208421,13.0728421 L11.1494737,13.0728421 C11.728,11.0728421 13.2547368,9.63621053 15.3591579,9.63621053 C16.9296842,9.63621053 17.8778947,10.2585263 18.6484211,11.1477895 C18.7654737,11.2656842 18.8850526,11.4888421 18.8850526,11.7549474 C18.8850526,12.2282105 18.4858947,12.6138947 18.0092632,12.6138947 C17.7002105,12.6138947 17.4913684,12.4665263 17.3726316,12.3191579 C16.8109474,11.6378947 16.2332632,11.2656842 15.3153684,11.2656842 C14.2458947,11.2656842 13.4475789,11.9621053 13.0324211,13.0728421 L15.6690526,13.0728421 C16.0092632,13.0728421 16.2922105,13.3549474 16.2922105,13.7111579 C16.2922105,14.0522105 16.0092632,14.3334737 15.6690526,14.3334737 L12.7511579,14.3334737 C12.7216842,14.5397895 12.7216842,14.7629474 12.7216842,14.9852632 C12.7216842,15.1924211 12.7216842,15.3844211 12.7343158,15.5789474 L15.6690526,15.5789474 C16.0092632,15.5789474 16.2922105,15.8745263 16.2922105,16.2130526 C16.2922105,16.5709474 16.0092632,16.8522105 15.6690526,16.8522105 L13.0029474,16.8522105 C13.4172632,18.0395789 14.2618947,18.7326316 15.4324211,18.7326316 C16.3216842,18.7326316 16.8993684,18.3048421 17.4627368,17.6084211 C17.6109474,17.4307368 17.8181053,17.3111579 18.0993684,17.3111579 C18.5456842,17.3111579 18.9136842,17.6656842 18.9136842,18.1128421 C18.9136842,18.3334737 18.8252632,18.5271579 18.7376842,18.6298947 C17.936,19.6665263 16.944,20.3629474 15.4181053,20.3629474 C13.2244211,20.3629474 11.6833684,18.9566316 11.1208421,16.8522105 L10.3208421,16.8522105 C9.96463158,16.8522105 9.68336842,16.5709474 9.68336842,16.2130526 C9.68336842,15.8745263 9.96463158,15.5789474 10.3208421,15.5789474 L10.8976842,15.5789474 C10.8825263,15.3995789 10.8825263,15.2067368 10.8825263,15.0155789 C10.8825263,14.7924211 10.8825263,14.5549474 10.9136842,14.3334737 L10.9136842,14.3334737 Z M7.11578947,15.2909474 C7.11578947,19.7465263 10.7284211,23.3574737 15.1856842,23.3574737 C19.6412632,23.3574737 23.2522105,19.7465263 23.2522105,15.2909474 C23.2522105,10.8353684 19.6412632,7.22357895 15.1856842,7.22357895 C10.7284211,7.22357895 7.11578947,10.8353684 7.11578947,15.2909474 L7.11578947,15.2909474 Z M10.5414737,5.57557895 L8.66189474,2.32252632 C8.46147368,1.97389474 8.01768421,1.856 7.66905263,2.05726316 C7.32210526,2.25684211 7.20336842,2.70231579 7.40378947,3.04842105 L9.28252632,6.30315789 C9.41726316,6.53726316 9.66231579,6.66610526 9.91410526,6.66610526 C10.0353684,6.66610526 10.1616842,6.63494737 10.2753684,6.57010526 C10.624,6.36884211 10.7418947,5.92421053 10.5414737,5.57557895 L10.5414737,5.57557895 Z M16.0673684,4.48505263 L16.0673684,0.726736842 C16.0673684,0.325894737 15.744,0 15.3414737,0 C14.9397895,0 14.6155789,0.325894737 14.6155789,0.726736842 L14.6155789,4.48505263 C14.6155789,4.88589474 14.9397895,5.21094737 15.3414737,5.21094737 C15.744,5.21094737 16.0673684,4.88589474 16.0673684,4.48505263 L16.0673684,4.48505263 Z M23.2791579,3.04842105 C23.4795789,2.70231579 23.3625263,2.25684211 23.0138947,2.05726316 C22.6661053,1.85515789 22.2197895,1.97389474 22.0210526,2.32084211 L20.1406316,5.57557895 C19.9410526,5.92421053 20.0589474,6.36884211 20.4058947,6.57010526 C20.5212632,6.63494737 20.6467368,6.66610526 20.768,6.66610526 C21.0206316,6.66610526 21.264,6.53726316 21.3995789,6.30315789 L23.2791579,3.04842105 L23.2791579,3.04842105 Z M24.1145263,20.4075789 C23.9141053,20.7545263 24.032,21.2016842 24.3806316,21.4012632 L27.6353684,23.2783158 C27.7490526,23.3482105 27.8762105,23.3793684 27.9983158,23.3793684 C28.2492632,23.3793684 28.4917895,23.2471579 28.6282105,23.0138947 C28.8303158,22.6669474 28.7098947,22.2223158 28.3612632,22.0202105 L25.1065263,20.1431579 C24.7612632,19.9435789 24.3149474,20.0614737 24.1145263,20.4075789 L24.1145263,20.4075789 Z M28.6282105,7.67157895 C28.4303158,7.32463158 27.9831579,7.20421053 27.6362105,7.40547368 L24.3806316,9.28505263 C24.0345263,9.48463158 23.9141053,9.93010526 24.1145263,10.2770526 C24.2492632,10.5094737 24.4934737,10.6408421 24.7444211,10.6408421 C24.8690526,10.6408421 24.9928421,10.6088421 25.1082105,10.5431579 L28.3629474,8.66526316 C28.7098947,8.46315789 28.8303158,8.01936842 28.6282105,7.67157895 L28.6282105,7.67157895 Z M30.6829474,15.344 C30.6829474,14.9431579 30.3595789,14.6172632 29.9587368,14.6172632 L26.2004211,14.6172632 C25.7970526,14.6172632 25.4728421,14.9431579 25.4728421,15.344 C25.4728421,15.744 25.7970526,16.0690526 26.2004211,16.0690526 L29.9587368,16.0690526 C30.3595789,16.0690526 30.6829474,15.744 30.6829474,15.344 L30.6829474,15.344 Z" id="icon-3x-sans-frais"></path>
    </g>
</svg>