<?xml version="1.0" encoding="UTF-8" standalone="no"?>
<svg width="46px" height="17px" viewBox="0 0 46 17" version="1.1" xmlns="http://www.w3.org/2000/svg" xmlns:xlink="http://www.w3.org/1999/xlink" xmlns:sketch="http://www.bohemiancoding.com/sketch/ns">
    <!-- Generator: Sketch 3.1.1 (8761) - http://www.bohemiancoding.com/sketch -->
    <title>icon-eur-dom@1x</title>
    <desc></desc>
    <defs></defs>
    <g id="Page-1" stroke="none" stroke-width="1"  fill-rule="evenodd" >
        <g id="icon-eur-dom"  transform="translate(1.000000, 1.000000)">
            <path d="M19.8111864,11.7105714 C19.738678,11.6862857 19.6716271,11.6555238 19.6014576,11.6255714 C19.4985424,11.5826667 19.3987458,11.5357143 19.3036271,11.4822857 C19.2365763,11.4450476 19.1734237,11.4045714 19.1110508,11.3616667 C19.0221695,11.303381 18.9387458,11.2410476 18.86,11.1738571 C18.8023051,11.1244762 18.7469492,11.0759048 18.6939322,11.0232857 C18.6206441,10.949619 18.5535932,10.8719048 18.4888814,10.7901429 C18.4428814,10.7334762 18.397661,10.677619 18.356339,10.6160952 C18.2970847,10.5270476 18.2471864,10.4323333 18.1988475,10.336 C18.1668814,10.2728571 18.1317966,10.2137619 18.1052881,10.1481905 C18.0600678,10.0372857 18.0281017,9.92071429 17.9961356,9.80252381 C17.981322,9.74342857 17.9594915,9.68838095 17.9470169,9.62766667 C17.9127119,9.44471429 17.8908814,9.25609524 17.8908814,9.05938095 C17.8908814,8.97195238 17.894,8.88047619 17.9017966,8.78738095 C17.9049153,8.74609524 17.9127119,8.70319048 17.9173898,8.66109524 C17.9236271,8.60847619 17.9290847,8.55504762 17.9384407,8.50080952 C17.9470169,8.44980952 17.9610508,8.39880952 17.9727458,8.34780952 C17.9828814,8.30085714 17.9914576,8.25390476 18.0054915,8.20695238 C18.0203051,8.15190476 18.0421356,8.09847619 18.0608475,8.0442381 C18.0772203,7.99890476 18.0896949,7.9527619 18.1091864,7.9082381 C18.1310169,7.854 18.1598644,7.80138095 18.1863729,7.74714286 C18.2082034,7.70180952 18.2292542,7.65566667 18.2549831,7.60952381 C18.2838305,7.55852381 18.3204746,7.50833333 18.354,7.45814286 C18.3851864,7.41038095 18.4140339,7.36342857 18.4491186,7.31647619 C18.4849831,7.27033333 18.5294237,7.22419048 18.5691864,7.1772381 C18.6112881,7.12947619 18.6510508,7.08090476 18.6978305,7.0347619 C18.7407119,6.99185714 18.7913898,6.95219048 18.8381695,6.91090476 C18.8826102,6.8712381 18.9215932,6.83157143 18.9707119,6.79352381 C18.9948814,6.76519048 19.0135932,6.7457619 19.0299661,6.7287619 C18.9777288,6.60571429 18.9481017,6.4802381 18.9130169,6.35557143 C18.8919661,6.28271429 18.86,6.21066667 18.8444068,6.13619048 C18.8023051,5.93219048 18.7820339,5.72333333 18.7820339,5.50719048 C18.7820339,5.31209524 18.8062034,5.1307619 18.8405085,4.95509524 C18.8506441,4.90571429 18.862339,4.85957143 18.8748136,4.81180952 C18.9098983,4.67742857 18.9535593,4.54952381 19.0065763,4.42890476 C19.0206102,4.39490476 19.0330847,4.35928571 19.048678,4.32690476 C19.1196271,4.182 19.2038305,4.04842857 19.2989492,3.92457143 C19.3238983,3.89219048 19.3511864,3.86385714 19.3769153,3.83228571 C19.455661,3.74 19.5398644,3.65419048 19.6287458,3.57485714 C19.6646102,3.54328571 19.6989153,3.51171429 19.7355593,3.4817619 C19.8540678,3.38785714 19.9772542,3.29961905 20.1097966,3.22514286 C20.1292881,3.21461905 20.1511186,3.20652381 20.1706102,3.196 C20.2602712,3.14904762 20.3507119,3.10209524 20.4458305,3.06404762 L20.4458305,-0.0866190476 L-0.212067797,-0.0866190476 L-0.212067797,15.3906667 L20.4458305,15.3906667 L20.4458305,11.867619 C20.421661,11.864381 20.4006102,11.8570952 20.3764407,11.8530476 C20.3047119,11.8409048 20.2368814,11.8222857 20.1667119,11.8060952 C20.0458644,11.779381 19.9257966,11.7502381 19.8111864,11.7105714 L19.8111864,11.7105714 Z M4.15091525,7.63542857 L4.10023729,7.63219048 L4.08074576,7.58119048 L4.12830508,7.29866667 L3.92871186,7.09790476 L3.91623729,7.04528571 L3.956,7.01209524 L4.23044068,6.96919048 L4.35362712,6.7117619 L4.39650847,6.68342857 L4.44016949,6.7117619 L4.56257627,6.96919048 L4.83623729,7.01209524 L4.876,7.04528571 L4.86352542,7.09790476 L4.66549153,7.29866667 L4.71227119,7.58119048 L4.69277966,7.63219048 L4.6639322,7.64190476 L4.64132203,7.63542857 L4.39650847,7.50104762 L4.15091525,7.63542857 L4.15091525,7.63542857 Z M5.52,10.266381 L5.32040678,10.4671429 L5.3679661,10.7496667 L5.34847458,10.8006667 L5.31962712,10.810381 L5.29779661,10.8039048 L5.05142373,10.6711429 L4.80738983,10.8039048 L4.7559322,10.8006667 L4.73566102,10.7496667 L4.78322034,10.4671429 L4.58518644,10.266381 L4.5719322,10.2137619 L4.61091525,10.1805714 L4.88613559,10.1392857 L5.00854237,9.8802381 L5.05142373,9.85352381 L5.09508475,9.8802381 L5.21749153,10.1392857 L5.49271186,10.1805714 L5.53091525,10.2137619 L5.52,10.266381 L5.52,10.266381 Z M5.72972881,4.37952381 L5.53091525,4.58028571 L5.57769492,4.86361905 L5.55820339,4.91380952 L5.53013559,4.92352381 L5.50674576,4.91704762 L5.26115254,4.78266667 L5.01711864,4.91704762 L4.96566102,4.91380952 L4.94694915,4.86361905 L4.99294915,4.58028571 L4.79413559,4.37952381 L4.78322034,4.32933333 L4.82142373,4.29452381 L5.09664407,4.2532381 L5.21827119,3.995 L5.26115254,3.96666667 L5.30559322,3.995 L5.42877966,4.2532381 L5.70166102,4.29452381 L5.74220339,4.32933333 L5.72972881,4.37952381 L5.72972881,4.37952381 Z M7.31711864,12.4245714 L7.11830508,12.6253333 L7.16508475,12.9078571 L7.14637288,12.9588571 L7.11752542,12.9677619 L7.09491525,12.9620952 L6.85010169,12.8293333 L6.60450847,12.9620952 L6.55227119,12.9588571 L6.53355932,12.9078571 L6.58033898,12.6253333 L6.38230508,12.4245714 L6.36983051,12.3719524 L6.40959322,12.3387619 L6.68325424,12.2974762 L6.80722034,12.0384286 L6.85010169,12.0117143 L6.89298305,12.0384286 L7.01538983,12.2974762 L7.28983051,12.3387619 L7.32881356,12.3719524 L7.31711864,12.4245714 L7.31711864,12.4245714 Z M7.67732203,2.43666667 L7.47850847,2.63742857 L7.52450847,2.91995238 L7.50579661,2.96933333 L7.47694915,2.97904762 L7.45511864,2.97419048 L7.20874576,2.83980952 L6.96471186,2.97419048 L6.91325424,2.96933333 L6.89454237,2.91995238 L6.93976271,2.63742857 L6.74250847,2.43666667 L6.72925424,2.38404762 L6.76901695,2.3492381 L7.04267797,2.3087619 L7.16508475,2.05052381 L7.20874576,2.02219048 L7.25318644,2.05052381 L7.37481356,2.3087619 L7.6500339,2.3492381 L7.68823729,2.38404762 L7.67732203,2.43666667 L7.67732203,2.43666667 Z M10.4599322,13.515 L10.260339,13.7157619 L10.3078983,13.9990952 L10.2876271,14.0500952 L10.260339,14.059 L10.2377288,14.0525238 L9.99135593,13.9181429 L9.74732203,14.0525238 L9.69508475,14.0500952 L9.67559322,13.9990952 L9.72315254,13.7157619 L9.52511864,13.515 L9.51264407,13.4631905 L9.55084746,13.43 L9.82528814,13.3887143 L9.94847458,13.1296667 L9.99135593,13.1021429 L10.0350169,13.1296667 L10.1574237,13.3887143 L10.4326441,13.43 L10.4716271,13.4631905 L10.4599322,13.515 L10.4599322,13.515 Z M10.4599322,1.65709524 L10.260339,1.85947619 L10.3078983,2.14280952 L10.2876271,2.19138095 L10.260339,2.20109524 L10.2377288,2.1962381 L9.99135593,2.06185714 L9.74732203,2.1962381 L9.69508475,2.19138095 L9.67559322,2.14280952 L9.72315254,1.85947619 L9.52511864,1.65709524 L9.51264407,1.60609524 L9.55084746,1.57290476 L9.82528814,1.53080952 L9.94847458,1.27257143 L9.99135593,1.2442381 L10.0350169,1.27257143 L10.1574237,1.53080952 L10.4326441,1.57290476 L10.4716271,1.60609524 L10.4599322,1.65709524 L10.4599322,1.65709524 Z M12.5868475,2.38404762 L12.6266102,2.3492381 L12.9002712,2.3087619 L13.022678,2.05052381 L13.0671186,2.02219048 L13.1092203,2.05052381 L13.2324068,2.3087619 L13.5068475,2.3492381 L13.5450508,2.38404762 L13.5341356,2.43666667 L13.335322,2.63742857 L13.3821017,2.91995238 L13.3633898,2.96933333 L13.3337627,2.97904762 L13.3119322,2.97419048 L13.0671186,2.83980952 L12.8215254,2.97419048 L12.7700678,2.96933333 L12.7521356,2.91995238 L12.7973559,2.63742857 L12.599322,2.43666667 L12.5868475,2.38404762 L12.5868475,2.38404762 Z M13.6939661,12.5589524 L13.4959322,12.7597143 L13.5427119,13.0422381 L13.5232203,13.0932381 L13.4951525,13.1021429 L13.4717627,13.0964762 L13.2277288,12.9637143 L12.9813559,13.0964762 L12.930678,13.0932381 L12.9111864,13.0422381 L12.9579661,12.7597143 L12.7591525,12.5589524 L12.7474576,12.5063333 L12.7864407,12.4731429 L13.0608814,12.4318571 L13.1832881,12.1728095 L13.2277288,12.1460952 L13.2713898,12.1728095 L13.3930169,12.4318571 L13.666678,12.4731429 L13.7064407,12.5063333 L13.6939661,12.5589524 L13.6939661,12.5589524 Z M14.5149492,4.45238095 L14.5547119,4.41757143 L14.8283729,4.37628571 L14.9515593,4.11885714 L14.9944407,4.09052381 L15.0388814,4.11885714 L15.1605085,4.37628571 L15.4357288,4.41757143 L15.4747119,4.45238095 L15.4622373,4.505 L15.2642034,4.7057619 L15.3109831,4.98828571 L15.2914915,5.03766667 L15.2626441,5.04657143 L15.2408136,5.04252381 L14.9944407,4.90814286 L14.7496271,5.04252381 L14.6989492,5.03766667 L14.6794576,4.98828571 L14.7262373,4.7057619 L14.5282034,4.505 L14.5149492,4.45238095 L14.5149492,4.45238095 Z M15.6244068,10.3861905 L15.4255932,10.5869524 L15.4731525,10.8702857 L15.4528814,10.9188571 L15.4248136,10.9285714 L15.4022034,10.9220952 L15.1573898,10.7893333 L14.9117966,10.9220952 L14.8611186,10.9188571 L14.8408475,10.8702857 L14.8884068,10.5869524 L14.6895932,10.3861905 L14.6771186,10.334381 L14.7168814,10.2995714 L14.9905424,10.2582857 L15.1137288,10.0008571 L15.1573898,9.97171429 L15.2002712,10.0008571 L15.3218983,10.2582857 L15.5978983,10.2995714 L15.6361017,10.334381 L15.6244068,10.3861905 L15.6244068,10.3861905 Z M16.3050508,7.57633333 L16.1062373,7.77709524 L16.1537966,8.06042857 L16.1335254,8.10980952 L16.1054576,8.11871429 L16.0836271,8.11385714 L15.8372542,7.97947619 L15.591661,8.11385714 L15.5417627,8.10980952 L15.5222712,8.06042857 L15.5690508,7.77709524 L15.3710169,7.57633333 L15.3577627,7.52452381 L15.3967458,7.48971429 L15.6711864,7.44842857 L15.7943729,7.191 L15.8372542,7.16266667 L15.8809153,7.191 L16.003322,7.44842857 L16.2785424,7.48971429 L16.3167458,7.52452381 L16.3050508,7.57633333 L16.3050508,7.57633333 Z" id="Fill-1" ></path>
            <path d="M24.0205763,9.29414286 C24.2653898,8.93309524 24.5016271,8.54857143 24.7074576,8.17780952 C24.7682712,8.07014286 24.798678,7.95438095 24.798678,7.83619048 C24.798678,7.46461905 24.5016271,7.15619048 24.1422034,7.15619048 C23.8357966,7.15619048 23.6307458,7.37880952 23.5590169,7.5277619 C23.4046441,7.81514286 23.2518305,8.08066667 23.0881017,8.33728571 L22.1454915,7.36828571 C23.0265085,7.00561905 23.6408814,6.42114286 23.6408814,5.42138095 L23.6408814,5.40114286 C23.6408814,4.35766667 22.8417288,3.52709524 21.6231186,3.52709524 C20.24,3.52709524 19.4509831,4.46533333 19.4509831,5.48452381 L19.4509831,5.50719048 C19.4509831,6.018 19.5944407,6.48590476 19.9530847,6.99671429 C19.0510169,7.42171429 18.5598305,8.092 18.5598305,9.03914286 L18.5598305,9.05938095 C18.5598305,10.3780952 19.5944407,11.2086667 20.9674237,11.2086667 C21.8164746,11.2086667 22.5142712,10.8686667 23.0982373,10.3465238 L23.7016949,10.9747143 C23.8662034,11.1455238 24.009661,11.2086667 24.2240678,11.2086667 C24.6138983,11.2086667 24.9109492,10.9002381 24.9109492,10.4954762 C24.9109492,10.2728571 24.8181695,10.1125714 24.6762712,9.96442857 L24.0205763,9.29414286 L24.0205763,9.29414286 Z M20.8956949,5.56061905 C20.8956949,5.11295238 21.1724746,4.80533333 21.5911525,4.80533333 C21.9918983,4.80533333 22.268678,5.07085714 22.268678,5.49585714 L22.268678,5.51771429 C22.268678,5.99695238 21.9404407,6.26085714 21.3151525,6.5077619 C21.0181017,6.15561905 20.8956949,5.91195238 20.8956949,5.58166667 L20.8956949,5.56061905 L20.8956949,5.56061905 Z M21.1514237,9.86809524 C20.5674576,9.86809524 20.1472203,9.5167619 20.1472203,8.99461905 L20.1472203,8.97438095 C20.1472203,8.60280952 20.3421356,8.25147619 20.8239661,7.98433333 L22.1961695,9.42204762 C21.8687119,9.69890476 21.5202034,9.86809524 21.1514237,9.86809524 L21.1514237,9.86809524 Z" id="Fill-4" ></path>
            <path d="M28.1800678,4.43780952 L26.6223051,4.43780952 C26.2800339,4.43780952 26.0087119,4.71952381 26.0087119,5.07409524 L26.0087119,9.58152381 C26.0087119,9.93690476 26.2800339,10.218619 26.6223051,10.218619 L28.1800678,10.218619 C29.9304068,10.218619 31.139661,8.95414286 31.139661,7.32861905 L31.139661,7.31080952 C31.139661,5.68366667 29.9304068,4.43780952 28.1800678,4.43780952 L28.1800678,4.43780952 Z M29.858678,7.344 C29.858678,8.36885714 29.1827119,9.07071429 28.1800678,9.07071429 L27.2351186,9.07071429 L27.2351186,5.58571429 L28.1800678,5.58571429 C29.1827119,5.58571429 29.858678,6.3037619 29.858678,7.32861905 L29.858678,7.344 L29.858678,7.344 Z" id="Fill-5" ></path>
            <path d="M34.9459661,4.3382381 C33.2283729,4.3382381 31.9809153,5.68366667 31.9809153,7.32861905 L31.9809153,7.344 C31.9809153,8.98733333 33.2135593,10.3165714 34.9311525,10.3165714 C36.6487458,10.3165714 37.8969831,8.97114286 37.8969831,7.32861905 L37.8969831,7.31080952 C37.8969831,5.66828571 36.6635593,4.3382381 34.9459661,4.3382381 L34.9459661,4.3382381 Z M36.6167797,7.344 C36.6167797,8.33566667 35.9330169,9.14519048 34.9459661,9.14519048 C33.9612542,9.14519048 33.260339,8.31785714 33.260339,7.32861905 L33.260339,7.31080952 C33.260339,6.32157143 33.9441017,5.51204762 34.9311525,5.51204762 C35.9158644,5.51204762 36.6167797,6.33695238 36.6167797,7.32861905 L36.6167797,7.344 L36.6167797,7.344 Z" id="Fill-6" ></path>
            <path d="M43.9385763,4.40461905 L43.8044746,4.40461905 C43.557322,4.40461905 43.382678,4.51228571 43.2548136,4.72761905 L41.768,7.23714286 L40.2882034,4.73571429 C40.1782712,4.54547619 39.9942712,4.40461905 39.7323051,4.40461905 L39.5966441,4.40461905 C39.2559322,4.40461905 38.9846102,4.68633333 38.9846102,5.04090476 L38.9846102,9.64790476 C38.9846102,9.996 39.2465763,10.268 39.5818305,10.268 C39.9147458,10.268 40.1860678,9.996 40.1860678,9.64790476 L40.1860678,6.77490476 L41.2425085,8.46680952 C41.3688136,8.66595238 41.5294237,8.789 41.7516271,8.789 C41.9753898,8.789 42.133661,8.66595238 42.2615254,8.46680952 L43.3351186,6.74980952 L43.3351186,9.63171429 C43.3351186,9.97819048 43.6048814,10.268 43.9385763,10.268 C44.2808475,10.268 44.5506102,9.98628571 44.5506102,9.63171429 L44.5506102,5.04090476 C44.5506102,4.68633333 44.2808475,4.40461905 43.9385763,4.40461905" id="Fill-7" ></path>
        </g>
    </g>
</svg>