<?xml version="1.0" encoding="UTF-8" standalone="no"?>
<svg width="26px" height="12px" viewBox="0 0 26 12" version="1.1" xmlns="http://www.w3.org/2000/svg" xmlns:xlink="http://www.w3.org/1999/xlink" xmlns:sketch="http://www.bohemiancoding.com/sketch/ns">
    <!-- Generator: Sketch 3.1.1 (8761) - http://www.bohemiancoding.com/sketch -->
    <title>icon-message@1x</title>
    <desc></desc>
    <defs></defs>
    <g id="Page-1" stroke="none" stroke-width="1"  fill-rule="evenodd" >
        <path d="M20.17132,9.52745455 C18.15008,9.52745455 16.51156,7.80763636 16.51156,5.68745455 C16.51156,3.56781818 18.15008,1.848 20.17132,1.848 C22.19308,1.848 23.8316,3.56781818 23.8316,5.68745455 C23.8316,7.80763636 22.19308,9.52745455 20.17132,9.52745455 M1.74512,5.68745455 C1.74512,3.558 3.393,1.83 5.4236,1.83 C7.45368,1.83 9.10104,3.558 9.10104,5.68745455 C9.10104,7.76618182 7.53168,9.456 5.57076,9.53781818 L5.4236,9.53781818 L5.4236,9.54545455 C3.393,9.54545455 1.74512,7.81854545 1.74512,5.68745455 M20.17132,0 C17.17716,0 14.74876,2.54727273 14.74876,5.68745455 C14.74876,7.17490909 15.29632,8.52490909 16.18812,9.53781818 L9.40732,9.53781818 C10.29756,8.52490909 10.84668,7.17490909 10.84668,5.68745455 C10.84668,2.54727273 8.41776,0 5.4236,0 C2.42892,0 0,2.54727273 0,5.68745455 C0,8.82927273 2.42892,11.3765455 5.4236,11.3765455 L20.17132,11.3765455 C23.16652,11.3765455 25.5944,8.82927273 25.5944,5.68745455 C25.5944,2.54727273 23.16652,0 20.17132,0" id="icon-message"></path>
    </g>
</svg>