<?xml version="1.0" encoding="UTF-8" standalone="no"?>
<svg width="26px" height="26px" viewBox="0 0 26 26" version="1.1" xmlns="http://www.w3.org/2000/svg" xmlns:xlink="http://www.w3.org/1999/xlink" xmlns:sketch="http://www.bohemiancoding.com/sketch/ns">
    <!-- Generator: Sketch 3.1.1 (8761) - http://www.bohemiancoding.com/sketch -->
    <title>icon-updates@1x</title>
    <desc></desc>
    <defs></defs>
    <g id="Page-1" stroke="none" stroke-width="1"  fill-rule="evenodd" >
        <g id="icon-updates"  transform="translate(1.000000, 1.000000)">
            <path d="M12.3014211,-0.0868947368 C5.71657895,0.138894737 0.370842105,5.15415789 -0.117,11.4591579 L-0.117,12.7584737 C0.0540526316,13.5863684 0.811473684,14.2103684 1.71668421,14.2103684 C2.75121053,14.2103684 3.59005263,13.4009474 3.59005263,12.3999474 C3.59005263,7.50784211 7.70626316,3.52642105 12.7646316,3.52642105 C15.2804737,3.52642105 17.6738421,4.54589474 19.3884737,6.27147368 L16.4942632,9.06989474 L24.9422105,9.06989474 L24.9422105,0.896315789 L22.0315789,3.71252632 C19.7278421,1.42315789 16.5674737,0.0294210526 13.2203158,-0.0868947368 L12.3014211,-0.0868947368 Z M21.2002632,12.376 C21.2002632,17.2694737 17.0833684,21.2515789 12.0263684,21.2515789 C9.50847368,21.2515789 7.11578947,20.2307368 5.40321053,18.5058421 L8.29536842,15.7060526 L-0.117,15.7060526 L-0.117,23.8461053 L2.75736842,21.0634211 C4.92152632,23.2166316 7.84242105,24.5754737 10.9631053,24.8293158 L13.104,24.8293158 C19.7237368,24.2990526 24.9422105,18.9163684 24.9422105,12.376 C24.9422105,11.3777368 24.1040526,10.5662632 23.0715789,10.5662632 C22.0370526,10.5662632 21.2002632,11.3777368 21.2002632,12.376 Z" id="Fill-1" ></path>
        </g>
    </g>
</svg>