<?xml version="1.0" encoding="utf-8"?>
<!-- Generator: Adobe Illustrator 16.0.0, SVG Export Plug-In . SVG Version: 6.00 Build 0)  -->
<!DOCTYPE svg PUBLIC "-//W3C//DTD SVG 1.1//EN" "http://www.w3.org/Graphics/SVG/1.1/DTD/svg11.dtd">
<svg version="1.1" id="Calque_1" xmlns="http://www.w3.org/2000/svg" xmlns:xlink="http://www.w3.org/1999/xlink" x="0px" y="0px"
	 width="814px" height="166px" viewBox="0 0 814 166" enable-background="new 0 0 814 166" xml:space="preserve">
<g>
	<path d="M167.432,104.299v19.175h-10.596V73.503h14.561c6.79,0,11.814,1.236,15.073,3.708
		c3.258,2.473,4.888,6.227,4.888,11.262c0,2.939-0.809,5.554-2.427,7.844c-1.618,2.29-3.908,4.084-6.87,5.383
		c7.52,11.234,12.418,18.491,14.697,21.772H185l-11.929-19.175H167.432z M167.432,95.686h3.418c3.35,0,5.822-0.558,7.417-1.675
		c1.595-1.116,2.393-2.871,2.393-5.264c0-2.37-0.815-4.056-2.444-5.059c-1.629-1.002-4.153-1.504-7.571-1.504h-3.213V95.686z"/>
	<path d="M219.522,124.158c-6.152,0-10.96-1.697-14.424-5.093c-3.464-3.395-5.195-8.203-5.195-14.424
		c0-6.403,1.601-11.353,4.802-14.851c3.201-3.498,7.627-5.247,13.279-5.247c5.4,0,9.604,1.538,12.612,4.614
		s4.512,7.326,4.512,12.749v5.059h-24.644c0.114,2.962,0.991,5.275,2.632,6.938c1.641,1.664,3.942,2.495,6.904,2.495
		c2.301,0,4.478-0.239,6.528-0.718s4.192-1.242,6.426-2.29v8.066c-1.823,0.912-3.771,1.589-5.845,2.034
		C225.036,123.936,222.507,124.158,219.522,124.158z M218.052,91.96c-2.21,0-3.942,0.701-5.195,2.102
		c-1.253,1.401-1.971,3.39-2.153,5.964h14.629c-0.046-2.575-0.718-4.563-2.017-5.964S220.262,91.96,218.052,91.96z"/>
	<path d="M259.683,115.852c1.823,0,4.01-0.398,6.562-1.196v7.759c-2.598,1.162-5.788,1.743-9.57,1.743
		c-4.17,0-7.207-1.054-9.109-3.162c-1.903-2.107-2.854-5.269-2.854-9.485V93.088h-4.99v-4.409l5.742-3.486l3.008-8.066h6.665v8.135
		h10.698v7.827h-10.698v18.423c0,1.481,0.416,2.575,1.248,3.281C257.216,115.499,258.316,115.852,259.683,115.852z"/>
	<path d="M295.298,84.543c1.413,0,2.586,0.103,3.521,0.308l-0.786,9.775c-0.843-0.228-1.869-0.342-3.076-0.342
		c-3.327,0-5.919,0.854-7.776,2.563c-1.857,1.709-2.786,4.102-2.786,7.178v19.448H273.97V85.261h7.896l1.538,6.426h0.513
		c1.185-2.142,2.786-3.868,4.802-5.178C290.735,85.199,292.928,84.543,295.298,84.543z"/>
	<path d="M330.025,123.474l-2.017-5.195h-0.273c-1.755,2.21-3.561,3.743-5.417,4.597
		c-1.858,0.854-4.279,1.282-7.264,1.282c-3.669,0-6.558-1.048-8.664-3.145c-2.108-2.096-3.162-5.081-3.162-8.955
		c0-4.056,1.418-7.046,4.256-8.972c2.836-1.925,7.114-2.991,12.834-3.196l6.631-0.205V98.01c0-3.874-1.982-5.811-5.947-5.811
		c-3.054,0-6.643,0.923-10.767,2.769l-3.452-7.041c4.397-2.301,9.273-3.452,14.629-3.452c5.127,0,9.058,1.117,11.792,3.35
		c2.734,2.233,4.102,5.628,4.102,10.186v25.464H330.025z M326.949,105.769l-4.033,0.137c-3.031,0.091-5.287,0.638-6.768,1.641
		c-1.481,1.003-2.222,2.529-2.222,4.58c0,2.939,1.686,4.409,5.059,4.409c2.415,0,4.346-0.695,5.794-2.085
		c1.446-1.39,2.17-3.235,2.17-5.537V105.769z"/>
	<path d="M347.593,75.383c0-3.395,1.891-5.093,5.674-5.093c3.782,0,5.674,1.698,5.674,5.093
		c0,1.618-0.474,2.877-1.419,3.777c-0.945,0.9-2.364,1.35-4.255,1.35C349.484,80.51,347.593,78.801,347.593,75.383z
		 M358.462,123.474h-10.425V85.261h10.425V123.474z"/>
	<path d="M385.498,115.852c1.822,0,4.01-0.398,6.562-1.196v7.759c-2.598,1.162-5.787,1.743-9.57,1.743
		c-4.17,0-7.207-1.054-9.107-3.162c-1.904-2.107-2.855-5.269-2.855-9.485V93.088h-4.99v-4.409l5.742-3.486l3.008-8.066h6.666v8.135
		h10.697v7.827h-10.697v18.423c0,1.481,0.414,2.575,1.248,3.281C383.031,115.499,384.131,115.852,385.498,115.852z"/>
	<path d="M435.264,124.158c-6.152,0-10.961-1.697-14.424-5.093c-3.463-3.395-5.195-8.203-5.195-14.424
		c0-6.403,1.602-11.353,4.803-14.851c3.201-3.498,7.627-5.247,13.279-5.247c5.4,0,9.604,1.538,12.611,4.614
		s4.512,7.326,4.512,12.749v5.059h-24.643c0.113,2.962,0.99,5.275,2.631,6.938c1.641,1.664,3.941,2.495,6.904,2.495
		c2.301,0,4.479-0.239,6.529-0.718s4.191-1.242,6.426-2.29v8.066c-1.824,0.912-3.771,1.589-5.846,2.034
		S438.248,124.158,435.264,124.158z M433.795,91.96c-2.211,0-3.943,0.701-5.195,2.102c-1.254,1.401-1.973,3.39-2.154,5.964h14.629
		c-0.045-2.575-0.717-4.563-2.016-5.964S436.004,91.96,433.795,91.96z"/>
	<path d="M494.6,123.474h-10.424v-22.319c0-2.757-0.49-4.825-1.471-6.204c-0.98-1.378-2.541-2.068-4.682-2.068
		c-2.918,0-5.025,0.974-6.324,2.922s-1.947,5.178-1.947,9.69v17.979h-10.426V85.261h7.965l1.4,4.888h0.582
		c1.162-1.846,2.762-3.241,4.801-4.187c2.039-0.945,4.359-1.418,6.957-1.418c4.443,0,7.814,1.202,10.117,3.606
		c2.301,2.404,3.451,5.874,3.451,10.408V123.474z"/>
	<path d="M557.73,123.474h-10.426v-22.319c0-2.757-0.461-4.825-1.385-6.204c-0.922-1.378-2.375-2.068-4.357-2.068
		c-2.666,0-4.604,0.98-5.811,2.939c-1.207,1.96-1.811,5.184-1.811,9.673v17.979h-10.426V85.261h7.965l1.4,4.888h0.582
		c1.025-1.754,2.506-3.127,4.443-4.119c1.936-0.991,4.158-1.487,6.664-1.487c5.719,0,9.594,1.869,11.621,5.605h0.924
		c1.025-1.777,2.533-3.156,4.527-4.136c1.994-0.979,4.244-1.47,6.752-1.47c4.328,0,7.604,1.111,9.826,3.333
		c2.221,2.222,3.332,5.782,3.332,10.681v24.917h-10.459v-22.319c0-2.757-0.461-4.825-1.385-6.204
		c-0.922-1.378-2.375-2.068-4.357-2.068c-2.553,0-4.461,0.912-5.725,2.734c-1.266,1.823-1.896,4.717-1.896,8.682V123.474z"/>
	<path d="M616.52,123.474l-2.018-5.195h-0.273c-1.754,2.21-3.561,3.743-5.416,4.597
		c-1.859,0.854-4.279,1.282-7.264,1.282c-3.67,0-6.559-1.048-8.664-3.145c-2.109-2.096-3.162-5.081-3.162-8.955
		c0-4.056,1.418-7.046,4.256-8.972c2.836-1.925,7.113-2.991,12.834-3.196l6.631-0.205V98.01c0-3.874-1.982-5.811-5.947-5.811
		c-3.055,0-6.643,0.923-10.768,2.769l-3.451-7.041c4.396-2.301,9.273-3.452,14.629-3.452c5.127,0,9.057,1.117,11.791,3.35
		c2.734,2.233,4.102,5.628,4.102,10.186v25.464H616.52z M613.443,105.769l-4.033,0.137c-3.031,0.091-5.287,0.638-6.768,1.641
		c-1.482,1.003-2.223,2.529-2.223,4.58c0,2.939,1.686,4.409,5.059,4.409c2.416,0,4.346-0.695,5.795-2.085
		c1.445-1.39,2.17-3.235,2.17-5.537V105.769z"/>
	<path d="M667.789,85.261v5.298l-5.982,1.538c1.094,1.709,1.641,3.623,1.641,5.742c0,4.102-1.43,7.297-4.289,9.587
		s-6.83,3.435-11.912,3.435l-1.879-0.103l-1.539-0.171c-1.07,0.82-1.605,1.732-1.605,2.734c0,1.504,1.914,2.256,5.742,2.256h6.494
		c4.191,0,7.387,0.9,9.586,2.7c2.199,1.8,3.299,4.443,3.299,7.93c0,4.466-1.863,7.93-5.588,10.391
		c-3.727,2.461-9.074,3.691-16.047,3.691c-5.332,0-9.406-0.929-12.221-2.786c-2.814-1.857-4.221-4.46-4.221-7.81
		c0-2.302,0.719-4.227,2.154-5.776s3.543-2.654,6.322-3.315c-1.07-0.456-2.006-1.202-2.803-2.239
		c-0.797-1.037-1.195-2.136-1.195-3.298c0-1.458,0.42-2.671,1.264-3.64c0.844-0.968,2.062-1.919,3.658-2.854
		c-2.006-0.866-3.596-2.256-4.77-4.17s-1.76-4.17-1.76-6.768c0-4.17,1.355-7.394,4.068-9.673c2.711-2.278,6.584-3.418,11.621-3.418
		c1.07,0,2.34,0.097,3.811,0.291c1.469,0.194,2.41,0.336,2.82,0.427H667.789z M638.291,128.875c0,1.436,0.689,2.563,2.068,3.384
		s3.309,1.23,5.793,1.23c3.736,0,6.666-0.513,8.785-1.538s3.178-2.427,3.178-4.204c0-1.436-0.627-2.427-1.879-2.974
		c-1.254-0.547-3.191-0.82-5.811-0.82h-5.4c-1.914,0-3.516,0.45-4.803,1.35C638.936,126.203,638.291,127.393,638.291,128.875z
		 M642.086,97.771c0,2.074,0.473,3.714,1.418,4.922c0.945,1.208,2.387,1.812,4.324,1.812c1.959,0,3.395-0.604,4.307-1.812
		c0.91-1.208,1.367-2.848,1.367-4.922c0-4.603-1.893-6.904-5.674-6.904C644,90.867,642.086,93.168,642.086,97.771z"/>
	<path d="M698.346,123.474l-2.018-5.195h-0.273c-1.754,2.21-3.561,3.743-5.416,4.597
		c-1.859,0.854-4.279,1.282-7.264,1.282c-3.67,0-6.559-1.048-8.664-3.145c-2.109-2.096-3.162-5.081-3.162-8.955
		c0-4.056,1.418-7.046,4.256-8.972c2.836-1.925,7.113-2.991,12.834-3.196l6.631-0.205V98.01c0-3.874-1.982-5.811-5.947-5.811
		c-3.055,0-6.643,0.923-10.768,2.769l-3.451-7.041c4.396-2.301,9.273-3.452,14.629-3.452c5.127,0,9.057,1.117,11.791,3.35
		c2.734,2.233,4.102,5.628,4.102,10.186v25.464H698.346z M695.27,105.769l-4.033,0.137c-3.031,0.091-5.287,0.638-6.768,1.641
		c-1.482,1.003-2.223,2.529-2.223,4.58c0,2.939,1.686,4.409,5.059,4.409c2.416,0,4.346-0.695,5.795-2.085
		c1.445-1.39,2.17-3.235,2.17-5.537V105.769z"/>
	<path d="M743.018,112.126c0,3.919-1.361,6.904-4.084,8.955s-6.797,3.076-12.219,3.076
		c-2.781,0-5.15-0.188-7.109-0.564c-1.961-0.376-3.795-0.928-5.504-1.658v-8.613c1.938,0.912,4.119,1.675,6.545,2.29
		c2.428,0.615,4.564,0.923,6.41,0.923c3.781,0,5.674-1.094,5.674-3.281c0-0.82-0.252-1.487-0.752-2
		c-0.502-0.513-1.367-1.094-2.598-1.743s-2.871-1.407-4.922-2.273c-2.939-1.23-5.1-2.37-6.479-3.418
		c-1.379-1.048-2.381-2.25-3.008-3.606c-0.627-1.355-0.939-3.025-0.939-5.007c0-3.395,1.316-6.021,3.947-7.878
		c2.633-1.857,6.363-2.786,11.195-2.786c4.602,0,9.08,1.003,13.432,3.008l-3.145,7.52c-1.914-0.82-3.703-1.492-5.365-2.017
		c-1.664-0.524-3.361-0.786-5.094-0.786c-3.076,0-4.613,0.832-4.613,2.495c0,0.935,0.494,1.743,1.486,2.427
		c0.99,0.684,3.162,1.698,6.512,3.042c2.984,1.208,5.172,2.336,6.562,3.384c1.389,1.048,2.414,2.256,3.076,3.623
		C742.688,108.606,743.018,110.235,743.018,112.126z"/>
	<path d="M750.709,75.383c0-3.395,1.891-5.093,5.674-5.093c3.781,0,5.674,1.698,5.674,5.093
		c0,1.618-0.475,2.877-1.42,3.777c-0.945,0.9-2.363,1.35-4.254,1.35C752.6,80.51,750.709,78.801,750.709,75.383z M761.578,123.474
		h-10.426V85.261h10.426V123.474z"/>
	<path d="M807.789,123.474h-10.426v-22.319c0-2.757-0.49-4.825-1.469-6.204c-0.98-1.378-2.541-2.068-4.684-2.068
		c-2.916,0-5.023,0.974-6.322,2.922s-1.949,5.178-1.949,9.69v17.979h-10.424V85.261h7.963l1.402,4.888h0.58
		c1.162-1.846,2.764-3.241,4.803-4.187c2.039-0.945,4.357-1.418,6.955-1.418c4.443,0,7.816,1.202,10.117,3.606
		c2.301,2.404,3.453,5.874,3.453,10.408V123.474z"/>
</g>
<g>
	<path d="M66.121,39.59C44.896,39.59,26.272,48,15.53,67h12.752C36.776,58,48,50.37,63,49.584V58h6v-8.416
		C95,50.292,115.073,71,116.492,95H108v6h8.492C115.073,127,95,148.905,69,150.325V142h-6v7.614C48,148.81,36.094,142,27.591,131
		H14.54c10.566,17,29.699,29.139,51.582,29.139c33.346,0,60.303-26.932,60.303-60.275C126.424,66.522,99.467,39.59,66.121,39.59z"/>
	<path d="M56.899,30H61v5h9v-5h4.634C76.057,30,76,28.301,76,26.884V12.693C76,11.276,76.057,9,74.634,9H56.899
		C55.481,9,54,11.276,54,12.693v14.191C54,28.301,55.481,30,56.899,30z"/>
	<path d="M110.107,56.68l3.55-3.548l2.127,2.128c0.708,0.709,2.127,0.709,2.835,0l7.095-7.095
		c0.71-0.709,0.71-2.128,0-2.838l-8.511-8.511c-0.711-0.712-2.131-0.712-2.839,0l-7.097,7.092c-0.709,0.71-0.709,2.129,0,2.837
		l2.129,2.131l-3.546,3.544L110.107,56.68z"/>
	<g>
		<g>
			<path d="M45.547,124.148H11.812v-7.097l12.114-12.246c3.587-3.675,5.931-6.222,7.031-7.642
				c1.101-1.419,1.893-2.734,2.377-3.944c0.484-1.21,0.726-2.465,0.726-3.763c0-1.937-0.534-3.377-1.601-4.324
				s-2.492-1.419-4.274-1.419c-1.871,0-3.686,0.429-5.446,1.287c-1.761,0.858-3.598,2.08-5.513,3.664l-5.545-6.569
				c2.376-2.024,4.346-3.455,5.909-4.291c1.562-0.836,3.268-1.48,5.116-1.931s3.917-0.676,6.206-0.676
				c3.015,0,5.678,0.55,7.988,1.65c2.311,1.1,4.104,2.641,5.38,4.621s1.915,4.247,1.915,6.8c0,2.223-0.391,4.308-1.172,6.255
				c-0.781,1.948-1.992,3.945-3.631,5.991c-1.64,2.046-4.528,4.962-8.665,8.747l-6.206,5.843v0.462h21.026V124.148z"/>
			<path d="M87.04,124.148H76.972v-21.555c0-5.326-1.98-7.988-5.941-7.988c-2.817,0-4.853,0.958-6.107,2.872
				c-1.254,1.915-1.881,5.017-1.881,9.308v17.363H52.975V72.787h10.067V83.25c0,0.814-0.077,2.729-0.231,5.744l-0.231,2.971h0.528
				c2.245-3.609,5.81-5.414,10.695-5.414c4.335,0,7.625,1.167,9.87,3.499s3.367,5.678,3.367,10.035V124.148z"/>
		</g>
	</g>
</g>
</svg>
