<?xml version="1.0" encoding="UTF-8" standalone="no"?>
<svg width="31px" height="19px" viewBox="0 0 31 19" version="1.1" xmlns="http://www.w3.org/2000/svg" xmlns:xlink="http://www.w3.org/1999/xlink" xmlns:sketch="http://www.bohemiancoding.com/sketch/ns">
    <!-- Generator: Sketch 3.1.1 (8761) - http://www.bohemiancoding.com/sketch -->
    <title>icon-credit-card@1x</title>
    <desc></desc>
    <defs></defs>
    <g id="Page-1" stroke="none" stroke-width="1"  fill-rule="evenodd" >
        <path d="M29.7432727,0 L0.906181818,0 C0.406545455,0 0,0.407769231 0,0.910538462 L0,17.7489231 C0,18.2524231 0.406545455,18.6594615 0.906181818,18.6594615 L29.7432727,18.6594615 C30.2429091,18.6594615 30.6494545,18.2509615 30.6494545,17.7489231 L30.6494545,0.910538462 C30.6494545,0.407769231 30.2429091,0 29.7432727,0 L29.7432727,0 Z M16.0276364,5.53484615 L22.6727273,5.53484615 C23.6792727,5.53557692 24.4945455,6.35769231 24.4945455,7.36907692 C24.4945455,8.38192308 23.6792727,9.20330769 22.6727273,9.20330769 L22.6727273,9.20623077 L16.0276364,9.20623077 L16.0276364,5.53484615 L16.0276364,5.53484615 Z M15.9018182,9.20623077 L11.0210909,9.20623077 L11.0210909,9.43057692 L15.9018182,9.43057692 L15.9018182,9.78792308 C15.9018182,11.6309231 14.4123636,13.1260769 12.5774545,13.1260769 L9.47563636,13.1260769 C7.64218182,13.1260769 6.15418182,11.6309231 6.15418182,9.78792308 L6.15418182,8.89857692 C6.15418182,7.05338462 7.64218182,5.55896154 9.47563636,5.55896154 L12.5774545,5.55896154 C14.4123636,5.55896154 15.9018182,7.05338462 15.9018182,8.89857692 L15.9018182,9.20623077 L15.9018182,9.20623077 Z M16.0276364,13.1026923 L16.0276364,9.42838462 L22.6727273,9.42838462 L22.6727273,9.43057692 C23.6792727,9.43203846 24.4945455,10.2519615 24.4945455,11.2640769 C24.4945455,12.2761923 23.6792727,13.0983077 22.6727273,13.0997692 L22.6727273,13.1026923 L16.0276364,13.1026923 L16.0276364,13.1026923 Z" id="icon-credit-card"></path>
    </g>
</svg>