<?xml version="1.0" encoding="utf-8"?>
<!-- Generator: Adobe Illustrator 16.0.0, SVG Export Plug-In . SVG Version: 6.00 Build 0)  -->
<!DOCTYPE svg PUBLIC "-//W3C//DTD SVG 1.1//EN" "http://www.w3.org/Graphics/SVG/1.1/DTD/svg11.dtd">
<svg version="1.1" id="Layer_1" xmlns:sketch="http://www.bohemiancoding.com/sketch/ns"
	 xmlns="http://www.w3.org/2000/svg" xmlns:xlink="http://www.w3.org/1999/xlink" x="0px" y="0px" width="275px" height="173px"
	 viewBox="0 0 275 173" enable-background="new 0 0 275 173" xml:space="preserve">
<title>visa</title>
<desc></desc>
<g>
	<path fill="#FFFFFF" d="M0,34.285h275V138.4H0V34.285z"/>
	<path fill="#7E7E7E" fill-opacity="0.6" d="M0,173h275v-34.6H0V173z"/>
	<path fill="#454545" d="M0,34.6h275V0H0V34.6z"/>
	<path id="Shape" fill="#454545" d="M191.837,51.523c-3.854-1.487-9.894-3.083-17.435-3.083c-19.223,0-32.764,9.956-32.879,24.225
		c-0.107,10.548,9.668,16.431,17.047,19.942c7.572,3.599,10.117,5.894,10.08,9.106c-0.047,4.92-6.047,7.168-11.637,7.168
		c-7.787,0-11.924-1.112-18.312-3.853l-2.507-1.168l-2.73,16.434c4.543,2.049,12.946,3.824,21.67,3.916
		c20.449,0,33.724-9.842,33.875-25.079c0.073-8.351-5.11-14.705-16.333-19.944c-6.8-3.396-10.964-5.662-10.92-9.1
		c0-3.051,3.525-6.314,11.141-6.314c6.362-0.102,10.971,1.325,14.561,2.812l1.743,0.847L191.837,51.523"/>
	<path id="Shape_1_" fill="#454545" d="M241.723,49.786h-15.033c-4.655,0-8.142,1.307-10.186,6.087l-28.893,67.271h20.429
		c0,0,3.34-9.045,4.095-11.03c2.232,0,22.077,0.03,24.914,0.03c0.582,2.57,2.367,11,2.367,11h18.051L241.723,49.786L241.723,49.786z
		 M217.734,97.1c1.608-4.229,7.75-20.52,7.75-20.52c-0.114,0.195,1.598-4.25,2.58-7.006l1.314,6.329c0,0,3.725,17.522,4.504,21.197
		l-16.148,0.002V97.1z M101.836,123.122l12.163-73.406h19.454l-12.171,73.406H101.836L101.836,123.122z M85.52,49.769L66.474,99.826
		l-2.029-10.174C60.899,77.926,49.853,65.221,37.503,58.86l17.415,64.197l20.583-0.023l30.626-73.265L85.52,49.769"/>
	<path fill="#454545" fill-opacity="0.6" d="M48.805,49.724H17.436l-0.248,1.527c24.405,6.076,40.553,20.76,47.257,38.403
		l-6.821-33.733C56.446,51.273,53.031,49.886,48.805,49.724"/>
</g>
</svg>
