<?xml version="1.0" encoding="UTF-8" standalone="no"?>
<svg width="30px" height="18px" viewBox="0 0 30 18" version="1.1" xmlns="http://www.w3.org/2000/svg" xmlns:xlink="http://www.w3.org/1999/xlink" xmlns:sketch="http://www.bohemiancoding.com/sketch/ns">
    <!-- Generator: Sketch 3.1.1 (8761) - http://www.bohemiancoding.com/sketch -->
    <title>icon-password@1x</title>
    <desc></desc>
    <defs></defs>
    <g id="Page-1" stroke="none" stroke-width="1"  fill-rule="evenodd" >
        <g id="icon-password"  transform="translate(1.000000, 0.000000)">
            <path d="M16.534,8.05811111 C15.318,8.05811111 14.338,6.98566667 14.338,5.662 C14.338,4.86822222 14.712,4.20111111 15.254,3.76411111 C15.054,3.73033333 14.854,3.69866667 14.644,3.69866667 C12.44,3.69866667 10.648,5.64933333 10.648,8.05811111 C10.648,10.4668889 12.44,12.4196667 14.644,12.4196667 C16.85,12.4196667 18.638,10.4668889 18.638,8.05811111 C18.638,7.61055556 18.558,7.18411111 18.442,6.77666667 C18.072,7.52822222 17.368,8.05811111 16.534,8.05811111" id="Fill-1" ></path>
            <path d="M27.858,7.62744444 C25.566,4.89988889 23.252,3.04211111 20.98,1.87255556 C18.708,0.700888889 16.478,0.223777778 14.392,0.223777778 C10.538,0.225888889 7.202,1.83033333 4.724,3.53188889 C2.246,5.23977778 0.612,7.05533333 0.13,7.62744444 C-0.25,8.08344444 -0.22,8.78644444 0.194,9.19811111 C0.232,9.23822222 0.28,9.253 0.324,9.28466667 C0.348,9.33322222 0.334,9.39022222 0.37,9.43455556 C2.766,12.4323333 5.12,14.4611111 7.392,15.7404444 C9.666,17.0176667 11.864,17.5412222 13.9,17.5412222 C17.698,17.5391111 20.912,15.7467778 23.278,13.8573333 C24.458,12.9136667 25.434,11.9383333 26.17,11.134 C26.9,10.3317778 27.408,9.68577778 27.608,9.44933333 C27.646,9.40288889 27.634,9.33955556 27.66,9.28677778 C27.704,9.25511111 27.754,9.24033333 27.796,9.19811111 C28.208,8.78644444 28.236,8.08344444 27.858,7.62744444 L27.858,7.62744444 Z M14.334,15.3773333 C12.608,15.3752222 11.048,14.6131111 9.912,13.376 C8.78,12.1388889 8.08,10.4373333 8.08,8.55 C8.08,6.66266667 8.78,4.96111111 9.912,3.72188889 C10.156,3.458 10.426,3.22788889 10.704,3.00833333 C11.87,2.66 13.104,2.44677778 14.392,2.44677778 C15.548,2.44888889 16.75,2.641 17.988,3.02944444 C18.258,3.24266667 18.522,3.46644444 18.758,3.72188889 C19.892,4.96111111 20.59,6.66266667 20.59,8.55 C20.59,10.4373333 19.892,12.1388889 18.758,13.376 C17.624,14.6131111 16.064,15.3752222 14.334,15.3773333 L14.334,15.3773333 Z M1.804,8.93633333 C2.334,8.33255556 3.744,6.83366667 5.812,5.415 C6.45,4.97377778 7.152,4.55155556 7.894,4.16311111 C7.164,5.43822222 6.724,6.935 6.724,8.55 C6.724,11.3345556 7.99,13.7855556 9.916,15.2928889 C9.294,15.0585556 8.662,14.7841111 8.016,14.421 C6.05,13.3147778 3.962,11.5393333 1.804,8.93633333 L1.804,8.93633333 Z M25.206,10.0868889 C24.162,11.2332222 22.606,12.7384444 20.674,13.9438889 C20.324,14.1613333 19.948,14.3555556 19.576,14.5518889 C21.03,13.0382222 21.948,10.9165556 21.948,8.55 C21.948,6.99833333 21.532,5.56488889 20.856,4.32355556 C22.578,5.33688889 24.366,6.81677778 26.19,8.949 C25.94,9.25511111 25.63,9.62244444 25.206,10.0868889 L25.206,10.0868889 Z" id="Fill-2" ></path>
        </g>
    </g>
</svg>