<?xml version="1.0" encoding="utf-8"?>
<!-- Generator: Adobe Illustrator 21.0.0, SVG Export Plug-In . SVG Version: 6.00 Build 0)  -->
<svg version="1.1" id="Calque_1" xmlns="http://www.w3.org/2000/svg" xmlns:xlink="http://www.w3.org/1999/xlink" x="0px" y="0px"
	 viewBox="0 0 225.9 57.3" style="enable-background:new 0 0 225.9 57.3;" xml:space="preserve">
<g>
	<g>
		<g>
			<g>
				<g>
					<path fill="#0055A4" d="M122.8,37.2c0,11.3,8.3,19.7,19,19.7c10.9,0,19.3-9,19.2-20.2c0-9.1-7.8-19.2-18.8-19.2
						c-10,0-14.4,7-14.4,7V1.1h-4.9L122.8,37.2L122.8,37.2z M155.9,37.1c0,8.1-5.6,15.3-14.2,15.3l0,0c-7.8,0-14.2-6.9-14.2-15.3
						c0-8.5,7-15.3,14.2-15.3C149.5,21.8,155.9,28.7,155.9,37.1z"/>
					<path fill="#0055A4" d="M141.7,57.3L141.7,57.3c-11.1,0-19.4-8.7-19.4-20.1V0.6h5.9v22.5c1.7-2,6.2-6.1,14-6.1
						c11.3,0,19.3,10.4,19.3,19.7C161.4,48.2,152.8,57.3,141.7,57.3z M123.2,1.5v35.7c0,10.9,7.9,19.2,18.5,19.2
						c10.6,0,18.8-8.7,18.8-19.7c0-8.9-7.6-18.8-18.4-18.8c-9.6,0-14,6.7-14.1,6.8l-0.8,1.3V1.5L123.2,1.5L123.2,1.5z M141.7,52.9
						c-8.1,0-14.7-7.1-14.7-15.7c0-8.4,6.9-15.8,14.7-15.8l0,0c8.1,0,14.6,7,14.7,15.7C156.3,46.1,150.1,52.9,141.7,52.9z
						 M141.7,22.3c-7.3,0-13.8,7-13.8,14.8c0,8.2,6.2,14.8,13.8,14.8c7.9,0,13.8-6.4,13.7-14.9C155.4,28.9,149.2,22.3,141.7,22.3
						L141.7,22.3z"/>
				</g>
			</g>
			<g>
				<g>
					<path fill="#0055A4" d="M82.4,56.4h4.9V22.2h9.5v-4.1h-9.6v-1.5c0-9.3,2.7-14,12.6-11.3l1.2-4.1c-2.2-0.6-4-0.8-5.9-0.8
						c-7.7,0-12.6,5.4-12.6,16.2v1.5h-4.8v4.1h4.8v34.2H82.4L82.4,56.4z"/>
					<path fill="#0055A4" d="M87.8,56.8H82V22.6h-4.8v-5H82v-1C82,6,86.8,0,95.1,0c1.9,0,3.7,0.3,6,0.8l0.5,0.1l-1.4,5l-0.4-0.1
						c-4.5-1.3-7.6-1-9.5,0.9c-1.7,1.7-2.6,4.9-2.5,9.9v1h9.6v5h-9.5L87.8,56.8L87.8,56.8z M82.9,55.9h4V21.7h9.5v-3.2h-9.6v-1.9
						c0-5.3,0.9-8.7,2.8-10.6c2.1-2.1,5.3-2.5,10-1.3l0.9-3.2c-2.1-0.5-3.7-0.7-5.4-0.7c-7.7,0-12.2,5.7-12.2,15.7v1.9h-4.8v3.2h4.8
						V55.9z"/>
				</g>
			</g>
			<g>
				<g>
					<path fill="#0055A4" d="M166.8,56.3h5V32.9c0-7.7,2.4-10.9,9.8-10.9c1.9,0,4.2,0.3,6.8,1l1.1-4.5c-3-0.7-5.4-1-7.9-1
						c-10.9,0-14.8,5.5-14.8,14.7V56.3L166.8,56.3z"/>
					<path fill="#0055A4" d="M172.2,56.7h-5.9V32.2c0-10.4,4.8-15.2,15.2-15.2c2.7,0,5.1,0.3,8,1l0.5,0.1l-1.4,5.4l-0.4-0.1
						c-2.5-0.6-4.7-1-6.7-1c-6.9,0-9.3,2.7-9.3,10.4L172.2,56.7L172.2,56.7z M167.2,55.8h4v-23c0-8.3,2.8-11.4,10.2-11.4
						c1.9,0,4.1,0.3,6.5,0.9l0.9-3.6c-2.6-0.6-4.8-0.8-7.3-0.8c-9.9,0-14.3,4.4-14.3,14.3L167.2,55.8L167.2,55.8z"/>
				</g>
			</g>
			<g>
				<g>
					<rect x="107.8" y="18.1" fill="#0055A4" width="5" height="38.2"/>
					<path fill="#0055A4" d="M113.2,56.7h-5.9V17.6h5.9V56.7z M108.2,55.8h4V18.5h-4V55.8z"/>
				</g>
				<g>
					<path fill="#0055A4" d="M113.7,4.7c0-2-1.6-3.6-3.6-3.6s-3.6,1.6-3.6,3.6s1.6,3.6,3.6,3.6S113.7,6.7,113.7,4.7z"/>
					<path fill="#0055A4" d="M110.1,8.8c-2.2,0-4-1.8-4-4s1.8-4.1,4-4.1c2.3,0,4.1,1.8,4.1,4.1C114.2,6.9,112.3,8.8,110.1,8.8z
						 M110.1,1.6c-1.7,0-3.1,1.4-3.1,3.2s1.4,3.1,3.1,3.1c1.7,0,3.2-1.4,3.2-3.1C113.2,3,111.8,1.6,110.1,1.6z"/>
				</g>
			</g>
			<g>
				<g>
					<path fill="#0055A4" d="M208.5,17.4c-10.6,0-18.9,8.7-18.9,19.7c0,11.1,8.8,19.7,19.9,19.7c5.3,0,10.5-1.6,14-4.3l-2.2-3.5
						c-3.1,2.3-6.8,3.6-11.1,3.6c-10,0-15.3-6.9-15.7-14.6h24.2c5.4,0,7.3-2.3,6.4-7.7C224.1,23.2,216.5,17.4,208.5,17.4z
						 M219.2,33.9h-24.8c0.9-6.2,5.7-12.2,14.1-12.2l0,0c7.6,0,12.1,5.7,12.1,10.4C220.7,33.2,220.4,33.9,219.2,33.9z"/>
					<path fill="#0055A4" d="M209.5,57.3c-11.4,0-20.3-8.9-20.3-20.2s8.5-20.1,19.4-20.2c8.3,0,16,5.9,17.1,13.2c0.5,2.9,0.1,4.9-1,6.3
						c-1.1,1.3-3,1.9-5.9,1.9H195c0.5,6.9,5.4,13.7,15.2,13.7c4,0,7.7-1.2,10.8-3.5l0.4-0.3l2.7,4.3l-0.3,0.3
						C220.2,55.7,215,57.3,209.5,57.3z M208.5,17.9c-10.4,0-18.5,8.5-18.5,19.3s8.6,19.2,19.4,19.2c5.1,0,9.9-1.5,13.4-4l-1.7-2.8
						c-3.2,2.2-6.9,3.4-10.9,3.4c-10.7,0-15.8-7.5-16.2-15v-0.5h24.7c2.6,0,4.2-0.5,5.2-1.6c0.9-1.1,1.2-2.9,0.8-5.5
						C223.7,23.6,216.3,17.9,208.5,17.9z M219.2,34.4h-25.3l0.1-0.5c0.9-6.3,5.8-12.6,14.6-12.6l0,0c7.5,0,12.6,5.6,12.6,10.9
						C221.1,32.8,221.1,34.4,219.2,34.4z M194.9,33.5h24.3c0.7,0,1-0.2,1-1.4c0-4.2-4.1-10-11.7-10v-0.5v0.5
						C200.5,22.1,196,27.7,194.9,33.5z"/>
				</g>
			</g>
		</g>
		<g>
			<g>
				<path fill="#0055A4" d="M38,56.7c9.6,0,14.3-8.3,14.3-8.3v7.7h4.5V37.4c0-10.6-8.5-19.2-18.9-19.2c-10.3,0-18.9,9.2-18.9,20
					C19.1,48.5,27.1,56.7,38,56.7z M38,52.1c-7.7,0-13.9-6.6-13.9-14.7c0-8,6.4-14.7,13.9-14.7l0,0c7.7,0,13.9,6.6,13.9,14.7
					S45.6,52.1,38,52.1z"/>
				<path fill="#0055A4" d="M38,57.2c-11,0-19.4-8.2-19.4-19c0-11.1,8.8-20.4,19.4-20.4c10.7,0,19.3,8.8,19.4,19.7v19.2H52V50
					C50.1,52.2,45.4,57.2,38,57.2z M37.9,18.6c-10,0-18.5,9-18.4,19.5c0,10.3,8,18.1,18.5,18.1c9.2,0,13.9-8,13.9-8.1l0.9-1.5v9h3.6
					V37.3C56.4,27,48.1,18.6,37.9,18.6z M38,52.6c-7.9,0-14.4-6.8-14.4-15.1c0-4,1.5-7.7,4.3-10.7c2.7-2.9,6.4-4.5,10.1-4.5l0,0
					c7.9,0,14.4,6.8,14.4,15.1C52.3,45.7,45.9,52.6,38,52.6z M37.9,22.7v0.5c-3.4,0-6.9,1.6-9.4,4.2c-2.6,2.7-4,6.3-4,10
					c0,7.8,6.1,14.2,13.5,14.2s13.4-6.4,13.4-14.3c0-7.8-6.1-14.2-13.5-14.2V22.7z"/>
			</g>
		</g>
		<g>
			<g>
				<path fill="#0055A4" d="M0.4,2.4v41.4c0,6.1,1.1,12.9,10.2,12.9c2,0,4.4-0.4,6.4-1l-0.9-4.4c-8.4,2.2-11,0.4-10.9-9.3V2.3L0.4,2.4
					L0.4,2.4z"/>
				<path fill="#0055A4" d="M10.7,57.2C1.2,57.2,0,50.1,0,43.9V2h5.7v40.1c0,4.6,0.6,7.2,1.9,8.6c1.4,1.4,3.8,1.5,8.5,0.3l0.5-0.1
					l1.1,5.3l-0.4,0.1C15.1,56.8,12.7,57.2,10.7,57.2z M0.9,2.8v41c0,11,4.9,12.4,9.8,12.4c1.8,0,4-0.3,5.9-0.9l-0.7-3.5
					c-2,0.5-3.6,0.7-4.8,0.7C9.3,52.5,8,52,7,51.1c-1.5-1.5-2.2-4.3-2.2-9.2V2.8L0.9,2.8L0.9,2.8z"/>
			</g>
		</g>
	</g>
</g>
</svg>
