<?xml version="1.0" encoding="UTF-8" standalone="no"?>
<svg width="19px" height="32px" viewBox="0 0 19 32" version="1.1" xmlns="http://www.w3.org/2000/svg" xmlns:xlink="http://www.w3.org/1999/xlink" xmlns:sketch="http://www.bohemiancoding.com/sketch/ns">
    <!-- Generator: Sketch 3.1.1 (8761) - http://www.bohemiancoding.com/sketch -->
    <title>icon-screen-protection@1x</title>
    <desc></desc>
    <defs></defs>
    <g id="Page-1" stroke="none" stroke-width="1"  fill-rule="evenodd" >
        <path d="M16.7255882,0 L1.54794118,0 C1.03494118,0.103724138 0.19,0.428137931 0,1.46206897 L0,30.0722759 C0.100588235,30.5986207 0.448176471,31.5431724 1.67423529,31.6645517 L16.4137647,31.6645517 C16.8630588,31.6115862 17.9941176,31.3588966 18.1863529,30.1031724 L18.1863529,1.62648276 C18.107,1.14868966 17.8186471,0.220689655 16.7255882,0 L16.7255882,0 Z M10.8624118,1.0902069 C10.8624118,1.23917241 10.7417059,1.35834483 10.5874706,1.35834483 L8.11635294,1.35834483 L8.12082353,0.819862069 L10.5874706,0.819862069 C10.7417059,0.819862069 10.8624118,0.940137931 10.8624118,1.0902069 L10.8624118,1.0902069 Z M2.74158824,2.06013793 L6.31805882,2.06013793 L1.26405882,7.80248276 L1.26405882,3.51889655 C1.26405882,2.06013793 2.74158824,2.06013793 2.74158824,2.06013793 L2.74158824,2.06013793 Z M9.08758824,30.7751724 C8.33652941,30.7751724 7.72517647,30.0943448 7.69947059,29.3561379 C7.72517647,28.6223448 8.33652941,28.0353103 9.08758824,28.0353103 C9.85317647,28.0353103 10.4723529,28.6466207 10.4723529,29.4046897 C10.4723529,30.1616552 9.85317647,30.7751724 9.08758824,30.7751724 L9.08758824,30.7751724 Z M16.9904706,25.8052414 C16.9904706,27.2651034 15.5118235,27.2651034 15.5118235,27.2651034 L2.74158824,27.2651034 C1.26405882,27.2651034 1.26405882,25.8052414 1.26405882,25.8052414 L1.26405882,9.00744828 L5.11994118,9.04386207 C6.73270588,9.05931034 8.05264706,7.78151724 8.06829412,6.18924138 L8.10964706,2.06013793 L15.5118235,2.06013793 C16.9904706,2.06013793 16.9904706,3.42510345 16.9904706,3.42510345 L16.9904706,25.8052414 L16.9904706,25.8052414 Z" id="icon-screen-protection"></path>
    </g>
</svg>