<?xml version="1.0" encoding="UTF-8" standalone="no"?>
<svg width="32px" height="28px" viewBox="0 0 32 28" version="1.1" xmlns="http://www.w3.org/2000/svg" xmlns:xlink="http://www.w3.org/1999/xlink" xmlns:sketch="http://www.bohemiancoding.com/sketch/ns">
    <!-- Generator: Sketch 3.1.1 (8761) - http://www.bohemiancoding.com/sketch -->
    <title>icon-settings@1x</title>
    <desc></desc>
    <defs></defs>
    <g id="Page-1" stroke="none" stroke-width="1"  fill-rule="evenodd" >
        <g id="icon-settings"  transform="translate(1.000000, 0.000000)">
            <path d="M15.9142857,22.7756667 L17.8617143,20.0386667 L16.1714286,18.3131667 L13.4914286,20.3 C12.8605714,19.9103333 12.1851429,19.628 11.4891429,19.4553333 L10.968,16.1116667 L8.584,16.1116667 L8.06057143,19.4553333 C7.36571429,19.628 6.68914286,19.9126667 6.05714286,20.3 L3.37828571,18.3131667 L1.68685714,20.0386667 L3.63428571,22.7756667 C3.25371429,23.4196667 2.97714286,24.1103333 2.80685714,24.8185 L-0.465142857,25.3516667 L-0.467428571,27.4505 L6.65828571,27.4505 C6.57828571,27.1565 6.52114286,26.859 6.52114286,26.537 C6.52228571,24.6843333 7.99542857,23.1828333 9.80914286,23.1805 C11.6217143,23.1828333 13.096,24.6843333 13.0925714,26.537 C13.0948571,26.859 13.0354286,27.1565 12.9554286,27.4505 L20.0148571,27.4505 L20.0148571,25.3516667 L16.7405714,24.8185 C16.5714286,24.1103333 16.296,23.4196667 15.9142857,22.7756667" id="Fill-1" ></path>
            <path d="M30.2388571,12.1205 L30.24,9.68216667 L26.9657143,9.149 C26.7942857,8.43966667 26.5234286,7.7525 26.1382857,7.10733333 L28.0845714,4.37266667 L26.3965714,2.646 L23.7142857,4.63516667 C23.0822857,4.24316667 22.4057143,3.95966667 21.7131429,3.78466667 L21.1908571,0.446833333 L18.8034286,0.449166667 L18.2845714,3.78933333 C17.5874286,3.95966667 16.9131429,4.24316667 16.2811429,4.63283333 L13.6,2.646 L11.9108571,4.37266667 L13.856,7.10966667 C13.4765714,7.7525 13.2,8.43966667 13.0308571,9.15133333 L9.75885714,9.68216667 L9.75428571,12.1228333 L13.0308571,12.6513333 C13.2,13.3618333 13.4765714,14.0501667 13.8571429,14.6953333 L11.9108571,17.4311667 L13.6,19.159 L16.2811429,17.1675 C16.9131429,17.5595 17.5874286,17.8371667 18.2834286,18.0145 L18.8011429,21.3558333 L21.1965714,21.3558333 L21.712,18.0145 C22.4057143,17.8395 23.0822857,17.5571667 23.7131429,17.1698333 L26.3965714,19.159 L28.0845714,17.4311667 L26.1382857,14.693 C26.5177143,14.0501667 26.7942857,13.3618333 26.9657143,12.6513333 L30.2388571,12.1205 L30.2388571,12.1205 Z M20.0285714,14.2228333 C18.216,14.2228333 16.7428571,12.719 16.7428571,10.871 C16.7451429,9.016 18.2182857,7.51333333 20.0308571,7.51333333 C21.8457143,7.5145 23.3211429,9.016 23.3142857,10.871 C23.3211429,12.719 21.8457143,14.2228333 20.0285714,14.2228333 L20.0285714,14.2228333 Z" ></path>
        </g>
    </g>
</svg>