<?xml version="1.0" encoding="utf-8"?>
<!-- Generator: Adobe Illustrator 16.0.0, SVG Export Plug-In . SVG Version: 6.00 Build 0)  -->
<!DOCTYPE svg PUBLIC "-//W3C//DTD SVG 1.1//EN" "http://www.w3.org/Graphics/SVG/1.1/DTD/svg11.dtd">
<svg version="1.1" id="Layer_1" xmlns="http://www.w3.org/2000/svg" xmlns:xlink="http://www.w3.org/1999/xlink" x="0px" y="0px"
	 width="792px" height="612px" viewBox="0 0 792 612" enable-background="new 0 0 792 612" xml:space="preserve">
<circle cx="404.979" cy="305.955" r="240.888"/>
<path fill="#FFFFFF" d="M401.596,2C235.501,2,100.857,138.066,100.857,305.907c0,167.842,134.644,303.907,300.737,303.907
	c166.092,0,300.733-136.065,300.733-303.907C702.328,138.066,567.685,2,401.596,2z M403.409,544.657
	c-130.979,0-237.157-107.3-237.157-239.657c0-132.357,106.179-239.657,237.157-239.657c130.977,0,237.155,107.3,237.155,239.657
	C640.564,437.357,534.388,544.657,403.409,544.657z"/>
<path fill="#FFFFFF" d="M572.652,215.159l-79.026-79.082l-91.404,91.404l-91.375-91.404l-79.056,79.082l91.405,91.347
	l-91.405,91.404l79.056,79.084l91.375-91.405l91.404,91.405l79.026-79.084l-91.375-91.404L572.652,215.159z"/>
</svg>
