<?xml version="1.0" encoding="utf-8"?>
<!-- Generator: Adobe Illustrator 16.0.0, SVG Export Plug-In . SVG Version: 6.00 Build 0)  -->
<!DOCTYPE svg PUBLIC "-//W3C//DTD SVG 1.1//EN" "http://www.w3.org/Graphics/SVG/1.1/DTD/svg11.dtd">
<svg version="1.1" id="Layer_1" xmlns="http://www.w3.org/2000/svg" xmlns:xlink="http://www.w3.org/1999/xlink" x="0px" y="0px"
	 width="274.375px" height="76.833px" viewBox="323.875 1.167 274.375 76.833"
	 enable-background="new 323.875 1.167 274.375 76.833" xml:space="preserve">
	 <defs>
	 	<linearGradient id="SVGID_1_" gradientUnits="userSpaceOnUse" x1="731.762" y1="851.1797" x2="731.762" y2="776.168" gradientTransform="matrix(1 0 0 1 -231.0552 -774.1406)">
			<stop  offset="0.5" style="stop-color:#008356"/>
			<stop  offset="1" style="stop-color:#00AAA0"/>
		</linearGradient>
		<linearGradient id="SVGID_2_" gradientUnits="userSpaceOnUse" x1="663.5139" y1="851.1797" x2="663.5139" y2="776.168" gradientTransform="matrix(1 0 0 1 -231.0552 -774.1406)">
			<stop  offset="0.1779" style="stop-color:#007B9B"/>
			<stop  offset="1" style="stop-color:#37BDE9"/>
		</linearGradient>
		<linearGradient id="SVGID_3_" gradientUnits="userSpaceOnUse" x1="585.469" y1="851.1523" x2="585.469" y2="776.1406" gradientTransform="matrix(1 0 0 1 -231.0552 -774.1406)">
			<stop  offset="0.5" style="stop-color:#0079BF"/>
			<stop  offset="1" style="stop-color:#73CAEE"/>
		</linearGradient>
		<linearGradient id="SVGID_4_" gradientUnits="userSpaceOnUse" x1="802.0862" y1="851.1797" x2="802.0862" y2="776.291" gradientTransform="matrix(1 0 0 1 -231.0552 -774.1406)">
			<stop  offset="0.546" style="stop-color:#008F30"/>
			<stop  offset="1" style="stop-color:#A6C859"/>
		</linearGradient>
	 </defs>

<path fill="url(#SVGID_1_)" d="M500.653,2.028c5.171,0,10.039,0.985,14.593,2.945c4.547,1.963,8.537,4.649,11.947,8.064
	c3.411,3.417,6.105,7.399,8.078,11.953c1.954,4.554,2.938,9.424,2.938,14.602c0,5.182-0.984,10.051-2.938,14.602
	c-1.973,4.555-4.666,8.519-8.078,11.891c-3.41,3.378-7.4,6.048-11.947,8.014c-4.553,1.961-9.422,2.942-14.593,2.942
	c-5.185,0-10.052-0.981-14.607-2.942c-4.556-1.966-8.527-4.635-11.892-8.014c-3.378-3.372-6.047-7.336-8.01-11.891
	c-1.964-4.551-2.938-9.42-2.938-14.602c0-5.178,0.976-10.047,2.938-14.602c1.963-4.554,4.632-8.536,8.01-11.953
	c3.363-3.416,7.336-6.101,11.892-8.064C490.602,3.013,495.469,2.028,500.653,2.028z M481.916,39.709
	c0,2.591,0.496,5.025,1.483,7.305c0.974,2.275,2.331,4.278,4.06,6.002c1.727,1.729,3.726,3.086,6,4.062
	c2.28,0.987,4.712,1.476,7.309,1.476c2.586,0,5.021-0.486,7.291-1.476c2.287-0.978,4.28-2.332,6.01-4.062
	c1.729-1.724,3.073-3.727,4.063-6.002c0.985-2.279,1.479-4.713,1.479-7.305c0-2.59-0.494-5.021-1.479-7.303
	c-0.99-2.27-2.334-4.274-4.063-6c-1.729-1.729-3.723-3.081-6.01-4.062c-2.271-0.982-4.705-1.475-7.291-1.475
	c-2.598,0-5.028,0.493-7.309,1.475c-2.274,0.981-4.273,2.333-6,4.062c-1.729,1.726-3.086,3.73-4.06,6
	C482.411,34.688,481.916,37.12,481.916,39.709z"/>

<path fill="url(#SVGID_2_)" d="M456.359,4.618c-1.682-1.721-3.902-2.59-6.655-2.59c-2.667,0-4.923,0.791-6.763,2.355
	c-1.85,1.571-2.769,3.849-2.769,6.833v11.421c0,1.256-0.26,2.355-0.765,3.299c-0.519,0.941-1.146,1.727-1.887,2.355
	c-0.751,0.628-1.592,1.099-2.535,1.413c-0.939,0.314-1.804,0.473-2.591,0.473c-0.864,0-1.729-0.158-2.579-0.473
	c-0.874-0.313-1.695-0.784-2.479-1.413c-0.786-0.629-1.411-1.415-1.887-2.355c-0.469-0.944-0.705-2.043-0.705-3.299V11.215
	c0-2.982-0.921-5.262-2.761-6.833c-1.851-1.563-4.104-2.355-6.774-2.355c-2.749,0-4.972,0.869-6.662,2.59
	c-1.685,1.728-2.523,3.928-2.523,6.598v11.421c0,3.14,0.595,6.283,1.76,9.424c1.188,3.133,2.897,5.945,5.129,8.413
	c2.232,2.472,4.989,4.5,8.244,6.067c0.63,0.306,1.278,0.571,1.941,0.819v20.49c0,2.67,0.862,4.869,2.593,6.598
	c1.729,1.728,3.924,2.592,6.597,2.592c2.734,0,5.024-0.864,6.818-2.592c1.817-1.729,2.715-3.928,2.715-6.598V47.316
	c0.629-0.232,1.234-0.496,1.816-0.775c3.265-1.568,6.036-3.598,8.3-6.067c2.29-2.468,4.018-5.28,5.185-8.413
	c1.188-3.141,1.772-6.284,1.772-9.424V11.215C458.896,8.545,458.044,6.345,456.359,4.618z"/>

<path fill="url(#SVGID_3_)" d="M383.217,46.665c-0.729-1.915-1.626-3.698-2.703-5.341c-1.089-1.644-2.298-3.09-3.646-4.342
	c-1.348-1.249-2.648-2.271-3.903-3.052c1.165-1.486,2.243-3.229,3.229-5.229c0.987-1.989,1.479-4.356,1.479-7.1
	c0-3.595-0.807-6.646-2.423-9.153c-1.613-2.502-3.701-4.521-6.271-6.049c-2.567-1.525-5.44-2.641-8.625-3.342
	C357.157,2.352,353.936,2,350.707,2h-15.65c-2.974,0-5.441,0.843-7.413,2.523c-1.986,1.687-3.021,3.775-3.108,6.284v58.224
	c0,2.428,1.021,4.363,3.04,5.81c2.02,1.453,4.509,2.171,7.481,2.171h15.65c3.229,0,6.784-0.33,10.659-0.998
	c3.857-0.66,7.503-1.912,10.925-3.75c3.411-1.842,6.258-4.328,8.559-7.457c2.3-3.131,3.444-7.162,3.444-12.094
	C384.294,50.602,383.934,48.584,383.217,46.665z M342.876,15.994h11.621c0.81,0,1.523,0.168,2.132,0.494
	c0.604,0.333,1.109,0.742,1.514,1.217c0.405,0.481,0.71,1.026,0.91,1.633c0.2,0.612,0.312,1.166,0.312,1.671
	c0,0.561-0.112,1.115-0.312,1.678c-0.2,0.556-0.504,1.087-0.91,1.592c-0.403,0.509-0.908,0.915-1.514,1.217
	c-0.605,0.302-1.322,0.454-2.132,0.454h-11.621V15.994z M364.099,53.639c-0.312,0.861-0.783,1.688-1.409,2.473
	c-0.63,0.789-1.416,1.414-2.355,1.885c-0.943,0.473-2.042,0.709-3.299,0.709h-13.811v-15.43h13.811c1.257,0,2.354,0.254,3.299,0.765
	c0.939,0.511,1.727,1.14,2.355,1.884c0.626,0.747,1.097,1.59,1.409,2.53c0.314,0.944,0.474,1.806,0.474,2.59
	C364.572,51.908,364.413,52.773,364.099,53.639z"/>
<path fill="#0079BF" d="M398.887,76.973c-1.337,0-2.604-0.229-3.783-0.688c-1.167-0.451-2.206-1.072-3.082-1.847
	c-0.911-0.785-1.638-1.711-2.177-2.76c-0.559-1.096-0.854-2.285-0.854-3.527c0-1.627,0.526-3.176,1.55-4.602
	c0.493-0.678,1.075-1.307,1.749-1.886c-0.529-0.493-0.987-1.042-1.369-1.634c-0.415-0.652-0.751-1.348-0.985-2.062
	c-0.271-0.742-0.394-1.506-0.394-2.246c0-1.162,0.258-2.285,0.795-3.337c0.505-1.019,1.188-1.903,2.041-2.646
	c0.833-0.717,1.807-1.301,2.92-1.729c1.11-0.422,2.31-0.646,3.589-0.646c1.222,0,2.421,0.225,3.544,0.646
	c1.123,0.43,2.11,1.012,2.938,1.729c0.853,0.74,1.551,1.627,2.055,2.646c0.529,1.052,0.797,2.175,0.797,3.337
	c0,1.043-0.245,2.082-0.717,3.077c-0.448,0.976-1.122,1.875-1.975,2.659c-0.854,0.77-1.896,1.396-3.097,1.869
	c-0.01,0-0.022,0.002-0.022,0.002l4.801,3.762l3.39-2.76c0.458-0.395,1.03-0.602,1.66-0.602c1.446,0,2.468,0.977,2.468,2.371
	c0,0.523-0.18,1.024-0.539,1.49c-0.066,0.1-0.158,0.184-0.246,0.253l-0.044,0.046c0,0.006-0.024,0.016-0.024,0.022l-2.762,2.307
	l2.874,2.354c0.023,0.021,0.033,0.029,0.043,0.043c0.54,0.457,0.831,1.093,0.831,1.785c0,1.398-1.012,2.377-2.469,2.377
	c-0.628,0-1.188-0.209-1.659-0.598l-3.521-2.828c-0.572,0.438-1.122,0.826-1.613,1.164c-0.856,0.564-1.64,1.024-2.357,1.371
	c-0.763,0.371-1.503,0.646-2.195,0.82C400.311,76.885,399.579,76.973,398.887,76.973L398.887,76.973z M396.237,64.674
	c-0.604,0.371-1.122,0.814-1.523,1.33c-0.519,0.659-0.787,1.357-0.787,2.146c0,0.543,0.114,1.041,0.348,1.506
	c0.248,0.506,0.571,0.926,1.001,1.299c0.446,0.386,0.976,0.693,1.593,0.922c0.605,0.229,1.287,0.344,2.021,0.344
	c0.763,0,1.595-0.248,2.446-0.736c0.592-0.338,1.256-0.762,1.974-1.271L396.237,64.674L396.237,64.674z M398.887,52.118
	c-0.674,0-1.29,0.099-1.854,0.31c-0.548,0.192-1.021,0.463-1.392,0.795c-0.367,0.32-0.648,0.687-0.863,1.131
	c-0.202,0.422-0.304,0.865-0.304,1.367c0,0.5,0.091,0.934,0.282,1.328c0.202,0.42,0.471,0.771,0.832,1.086
	c0.39,0.338,0.872,0.619,1.434,0.834c0.552,0.209,1.188,0.326,1.886,0.348c0.651,0,1.242-0.098,1.773-0.301
	c0.535-0.197,1.007-0.473,1.389-0.805c0.358-0.312,0.652-0.684,0.854-1.129c0.203-0.416,0.313-0.863,0.313-1.361
	c0-0.502-0.11-0.945-0.313-1.367c-0.201-0.442-0.495-0.812-0.854-1.133c-0.382-0.332-0.854-0.602-1.389-0.802
	C400.144,52.217,399.535,52.118,398.887,52.118L398.887,52.118z"/>
<path fill="#0079BF" d="M398.887,76.973c-1.337,0-2.604-0.229-3.783-0.688c-1.167-0.451-2.206-1.072-3.082-1.847
	c-0.911-0.785-1.638-1.711-2.177-2.76c-0.559-1.096-0.854-2.285-0.854-3.527c0-1.627,0.526-3.176,1.55-4.602
	c0.493-0.678,1.075-1.307,1.749-1.886c-0.529-0.493-0.987-1.042-1.369-1.634c-0.415-0.652-0.751-1.348-0.985-2.062
	c-0.271-0.742-0.394-1.506-0.394-2.246c0-1.162,0.258-2.285,0.795-3.337c0.505-1.019,1.188-1.903,2.041-2.646
	c0.833-0.717,1.807-1.301,2.92-1.729c1.11-0.422,2.31-0.646,3.589-0.646c1.222,0,2.421,0.225,3.544,0.646
	c1.123,0.43,2.11,1.012,2.938,1.729c0.853,0.74,1.551,1.627,2.055,2.646c0.529,1.052,0.797,2.175,0.797,3.337
	c0,1.043-0.245,2.082-0.717,3.077c-0.448,0.976-1.122,1.875-1.975,2.659c-0.854,0.77-1.896,1.396-3.097,1.869
	c-0.01,0-0.022,0.002-0.022,0.002l4.801,3.762l3.39-2.76c0.458-0.395,1.03-0.602,1.66-0.602c1.446,0,2.468,0.977,2.468,2.371
	c0,0.523-0.18,1.024-0.539,1.49c-0.066,0.1-0.158,0.184-0.246,0.253l-0.044,0.046c0,0.006-0.024,0.016-0.024,0.022l-2.762,2.307
	l2.874,2.354c0.023,0.021,0.033,0.029,0.043,0.043c0.54,0.457,0.831,1.093,0.831,1.785c0,1.398-1.012,2.377-2.469,2.377
	c-0.628,0-1.188-0.209-1.659-0.598l-3.521-2.828c-0.572,0.438-1.122,0.826-1.613,1.164c-0.856,0.564-1.64,1.024-2.357,1.371
	c-0.763,0.371-1.503,0.646-2.195,0.82C400.311,76.885,399.579,76.973,398.887,76.973L398.887,76.973z M396.237,64.674
	c-0.604,0.371-1.122,0.814-1.523,1.33c-0.519,0.659-0.787,1.357-0.787,2.146c0,0.543,0.114,1.041,0.348,1.506
	c0.248,0.506,0.571,0.926,1.001,1.299c0.446,0.386,0.976,0.693,1.593,0.922c0.605,0.229,1.287,0.344,2.021,0.344
	c0.763,0,1.595-0.248,2.446-0.736c0.592-0.338,1.256-0.762,1.974-1.271L396.237,64.674L396.237,64.674z M398.887,52.118
	c-0.674,0-1.29,0.099-1.854,0.31c-0.548,0.192-1.021,0.463-1.392,0.795c-0.367,0.32-0.648,0.687-0.863,1.131
	c-0.202,0.422-0.304,0.865-0.304,1.367c0,0.5,0.091,0.934,0.282,1.328c0.202,0.42,0.471,0.771,0.832,1.086
	c0.39,0.338,0.872,0.619,1.434,0.834c0.552,0.209,1.188,0.326,1.886,0.348c0.651,0,1.242-0.098,1.773-0.301
	c0.535-0.197,1.007-0.473,1.389-0.805c0.358-0.312,0.652-0.684,0.854-1.129c0.203-0.416,0.313-0.863,0.313-1.361
	c0-0.502-0.11-0.945-0.313-1.367c-0.201-0.442-0.495-0.812-0.854-1.133c-0.382-0.332-0.854-0.602-1.389-0.802
	C400.144,52.217,399.535,52.118,398.887,52.118L398.887,52.118z"/>

<path fill="url(#SVGID_4_)" d="M570.968,58.316c0.785,0,1.648-0.16,2.591-0.476c0.943-0.313,1.785-0.784,2.535-1.409
	c0.74-0.631,1.37-1.416,1.886-2.356c0.505-0.944,0.764-2.044,0.764-3.3V11.333c0-2.984,0.918-5.261,2.771-6.832
	c1.84-1.564,4.093-2.35,6.766-2.35c2.749,0,4.968,0.863,6.652,2.585c1.682,1.729,2.533,3.927,2.533,6.597v39.444
	c0,3.142-0.581,6.281-1.773,9.425c-1.163,3.142-2.891,5.946-5.181,8.42c-2.267,2.474-5.037,4.494-8.303,6.063
	c-3.254,1.569-7.001,2.354-11.238,2.354c-4.24,0-7.987-0.785-11.241-2.354c-3.251-1.572-6.015-3.592-8.244-6.063
	c-2.231-2.474-3.938-5.278-5.127-8.42c-1.168-3.144-1.762-6.283-1.762-9.425V11.333c0-2.67,0.84-4.868,2.522-6.597
	c1.694-1.723,3.903-2.585,6.664-2.585c2.669,0,4.923,0.788,6.772,2.35c1.844,1.571,2.763,3.848,2.763,6.832v39.444
	c0,1.257,0.236,2.355,0.706,3.3c0.471,0.94,1.1,1.728,1.885,2.354c0.784,0.627,1.605,1.098,2.479,1.412
	C569.238,58.156,570.104,58.316,570.968,58.316z"/>
</svg>
