<?xml version="1.0" encoding="UTF-8" standalone="no"?>
<svg width="32px" height="30px" viewBox="0 0 32 30" version="1.1" xmlns="http://www.w3.org/2000/svg" xmlns:xlink="http://www.w3.org/1999/xlink" xmlns:sketch="http://www.bohemiancoding.com/sketch/ns">
    <!-- Generator: Sketch 3.1.1 (8761) - http://www.bohemiancoding.com/sketch -->
    <title>icon-internet-prize@1x</title>
    <desc></desc>
    <defs></defs>
    <g id="Page-1" stroke="none" stroke-width="1"  fill-rule="evenodd" >
        <g id="icon-internet-prize">
            <path d="M18.7332414,11.5773929 C18.4926897,11.5065357 18.0866207,11.4102143 17.5337931,11.4102143 C15.4206897,11.4102143 13.7158621,13.4086071 13.7158621,15.7468929 C13.7158621,16.8064286 14.2444138,17.577 15.3004138,17.577 C16.6929655,17.577 17.9663448,15.7945 18.230069,14.3009643 L18.7332414,11.5773929 L18.7332414,11.5773929 Z M20.0551724,21.9845357 C18.7332414,22.68425 17.3892414,22.9499643 15.7815172,22.9499643 C11.8422069,22.9499643 8.50537931,20.0581071 8.50537931,15.4324643 C8.50537931,10.4691429 11.9382069,6.18117857 17.2689655,6.18117857 C21.4466207,6.18117857 24.256,9.12175 24.256,13.144 C24.256,16.7566071 22.2388966,18.8767857 19.9823448,18.8767857 C19.0212414,18.8767857 18.134069,18.2268929 18.2057931,16.7566071 L18.1086897,16.7566071 C17.2689655,18.1781786 16.1644138,18.8767857 14.7244138,18.8767857 C13.3329655,18.8767857 12.1302069,17.7441786 12.1302069,15.8421071 C12.1302069,12.8539286 14.4838621,10.1325714 17.8206897,10.1325714 C18.8546207,10.1325714 19.766069,10.3495714 20.3906207,10.6374286 L19.5729655,14.9984643 C19.2143448,16.8307857 19.5012414,17.6722143 20.2957241,17.6965714 C21.5183448,17.7209286 22.8888276,16.0823571 22.8888276,13.2879286 C22.8888276,9.796 20.8,7.28942857 17.078069,7.28942857 C13.1641379,7.28942857 9.87365517,10.3982857 9.87365517,15.2885357 C9.87365517,19.3096786 12.4910345,21.793 16.0441379,21.793 C17.4146207,21.793 18.6868966,21.5029286 19.6711724,20.9493571 L20.0551724,21.9845357 L20.0551724,21.9845357 Z" id="Fill-1" ></path>
            <path d="M5.99062069,23.6784643 C3.63586207,23.8921429 2.59751724,22.2369643 1.36275862,20.7722143 C3.60165517,21.0888571 5.216,22.0819643 5.99062069,23.6784643" id="Fill-2" ></path>
            <path d="M26.3944828,23.6928571 C27.3555862,21.669 29.1608276,21.2626786 31.1028966,20.6825357 C29.8063448,22.2757143 28.7591724,23.8711071 26.3944828,23.6928571" id="Fill-3" ></path>
            <path d="M23.5806897,26.2558929 C25.033931,24.65275 26.9726897,24.8199286 28.8761379,24.7003571 C27.1172414,26.3942857 25.0052414,27.0198214 23.5806897,26.2558929" id="Fill-4" ></path>
            <path d="M8.91034483,26.3167857 C6.63944828,27.1382857 5.11558621,25.8960714 3.39531034,24.6937143 C5.42786207,24.8088571 7.34786207,24.6693571 8.91034483,26.3167857" id="Fill-5" ></path>
            <path d="M0.453517241,16.4145 C2.07668966,17.2880357 3.58289655,18.1615714 3.95365517,20.1333929 C2.35255172,20.46 1.14096552,18.4748929 0.453517241,16.4145" id="Fill-6" ></path>
            <path d="M28.4755862,20.2164286 C28.7646897,18.5634643 29.6926897,17.5504286 31.8609655,16.4820357 C31.6358621,18.3641786 30.0744828,20.1201071 28.4755862,20.2164286" id="Fill-7" ></path>
            <path d="M25.6827586,27.9365357 C23.8587586,28.5775714 22.0358621,29.2175 20.0805517,27.8944643 C22.0336552,26.8548571 23.8609655,27.5656429 25.6827586,27.9365357" id="Fill-8" ></path>
            <path d="M12.4866207,27.8745357 C10.537931,29.2473929 8.7062069,28.55875 6.87558621,27.9509286 C8.68855172,27.53575 10.4971034,26.8825357 12.4866207,27.8745357" id="Fill-9" ></path>
            <path d="M29.5172414,16.5451429 C29.2888276,14.4670357 30.4253793,13.3034286 31.8267586,12.1176786 C31.5354483,13.9068214 31.488,15.6616429 29.5172414,16.5451429" id="Fill-10" ></path>
            <path d="M0.556137931,12.0767143 C1.984,13.3266786 3.14924138,14.4825357 2.88551724,16.5119286 C0.910344828,15.6926429 0.905931034,13.9156786 0.556137931,12.0767143" id="Fill-11" ></path>
            <path d="M30.592,8.22385714 C31.0013793,10.7736071 30.7508966,11.8674643 29.6121379,12.6579643 C28.8485517,11.5165 29.1928276,9.89232143 30.592,8.22385714" id="Fill-12" ></path>
            <path d="M1.75117241,8.1685 C3.11724138,9.62771429 3.5177931,11.3327143 2.81931034,12.71775 C1.16965517,11.501 1.71255172,9.81039286 1.75117241,8.1685" id="Fill-13" ></path>
            <path d="M16.6212414,28.1945 C18.6681379,27.9586786 20.1633103,29.0602857 21.8383448,29.8729286 C19.9691034,30.2526786 17.7478621,29.5474286 16.6212414,28.1945" id="Fill-14" ></path>
            <path d="M15.7594483,28.1834286 C14.870069,29.5275 12.8353103,30.06225 10.5202759,29.9083571 C12.2361379,29.0481071 13.737931,27.9741786 15.7594483,28.1834286" id="Fill-15" ></path>
            <path d="M26.4110345,22.7861071 C25.929931,21.6247143 25.929931,21.6247143 26.6968276,18.1073214 C27.7318621,19.5366429 27.6171034,22.0897143 26.4110345,22.7861071" id="Fill-16" ></path>
            <path d="M5.7302069,17.9346071 C5.92110345,19.6451429 6.79282759,21.1464286 6.02482759,22.7595357 C4.81875862,22.2103929 4.68855172,19.8134286 5.7302069,17.9346071" id="Fill-17" ></path>
            <path d="M3.91503448,4.89135714 C4.80662069,6.31735714 4.75917241,7.98582143 3.79806897,9.08189286 C2.67806897,8.36889286 3.05765517,6.52328571 3.91503448,4.89135714" id="Fill-18" ></path>
            <path d="M28.4987586,4.81275 C29.5437241,7.27282143 29.5713103,8.13417857 28.6576552,9.09517857 C27.6777931,8.12753571 27.6071724,6.61407143 28.4987586,4.81275" id="Fill-19" ></path>
            <path d="M7.09406897,20.9781429 C7.77048276,22.568 9.02951724,23.7437857 8.66096552,25.4986071 C7.28937931,25.0502143 6.70234483,23.4559286 7.09406897,20.9781429" id="Fill-20" ></path>
            <path d="M28.2493793,19.4613571 C27.0852414,18.0508571 27.4692414,16.3779643 27.2364138,14.7892143 C28.6091034,15.9849286 29.056,17.9977143 28.2493793,19.4613571" id="Fill-21" ></path>
            <path d="M23.7572414,25.513 C23.3908966,23.7371429 24.6322759,22.5558214 25.2910345,21.0689286 C25.792,23.2079286 25.1773793,24.9516786 23.7572414,25.513" id="Fill-22" ></path>
            <path d="M4.16110345,19.4336786 C3.35448276,18.0519643 3.67227586,16.4753929 5.04827586,14.8213214 C5.35393103,16.4765 4.99531034,18.3918571 4.16110345,19.4336786" id="Fill-23" ></path>
            <path d="M11.9128276,27.2578571 C10.3944828,27.1371786 9.42124138,25.8174643 9.28551724,23.6352857 C10.3481379,24.8110714 11.7671724,25.5262857 11.9128276,27.2578571" id="Fill-24" ></path>
            <path d="M23.0488276,23.7747857 C23.0091034,25.7831429 22.0104828,27.1382857 20.5208276,27.2534286 C20.5892414,25.50525 22.1131034,24.85425 23.0488276,23.7747857" id="Fill-25" ></path>
            <path d="M27.0554483,6.18671429 C25.8096552,5.42167857 25.2667586,3.77535714 25.769931,2.26964286 C26.6416552,3.45096429 27.7936552,4.48503571 27.0554483,6.18671429" id="Fill-26" ></path>
            <path d="M6.66372414,2.35710714 C7.12386207,3.81742857 6.60965517,5.39289286 5.42124138,6.16457143 C4.6422069,5.25228571 5.32524138,3.65135714 6.66372414,2.35710714" id="Fill-27" ></path>
            <path d="M26.8678621,11.40025 C28.3884138,12.5893214 29.4653793,13.7861429 29.1751724,15.8133214 C27.6535172,14.7405 27.5873103,13.0100357 26.8678621,11.40025" id="Fill-28" ></path>
            <path d="M5.38703448,11.5962143 C4.83972414,13.0476786 4.71503448,14.7205714 3.24855172,15.83325 C2.93737931,13.8293214 3.98344828,12.6258571 5.38703448,11.5962143" id="Fill-29" ></path>
            <path d="M15.3147586,27.8280357 C13.7114483,28.0450357 12.6686897,27.28 12.0331034,25.4211071 C13.2402759,26.1053214 14.806069,26.15625 15.3147586,27.8280357" id="Fill-30" ></path>
            <path d="M17.0990345,27.8269286 C17.5977931,26.1529286 19.177931,26.10975 20.3608276,25.42 C19.8157241,27.2312857 18.7464828,28.0295357 17.0990345,27.8269286" id="Fill-31" ></path>
            <path d="M28.9401379,12.1010714 C27.4548966,11.4489643 26.8976552,10.0085714 25.9773793,8.79625 C27.6071724,9.06307143 28.9555862,10.5898214 28.9401379,12.1010714" id="Fill-32" ></path>
            <path d="M9.99062069,0.73625 C9.888,2.27960714 9.24137931,3.21735714 7.85986207,3.82185714 C7.33682759,2.86307143 8.23834483,1.67621429 9.99062069,0.73625" id="Fill-33" ></path>
            <path d="M22.368,0.726285714 C24.0308966,1.57657143 25.0074483,2.69921429 24.6013793,3.84842857 C23.136,3.32917857 22.5897931,2.17110714 22.368,0.726285714" id="Fill-34" ></path>
            <path d="M3.46041379,12.1198929 C3.24855172,10.7005357 4.96993103,9.05864286 6.432,8.77078571 C5.53931034,10.0262857 4.94013793,11.408 3.46041379,12.1198929" id="Fill-35" ></path>
            <path d="M27.9426207,8.71542857 C26.3216552,8.45303571 25.4455172,7.18867857 24.2361379,6.40260714 C25.7235862,6.21328571 27.4791724,7.29164286 27.9426207,8.71542857" id="Fill-36" ></path>
            <path d="M8.15889655,6.355 C6.96717241,7.16653571 6.09765517,8.46078571 4.52634483,8.70767857 C4.79668966,7.38796429 6.08993103,6.54432143 8.15889655,6.355" id="Fill-37" ></path>
            <path d="M26.0314483,6.16014286 C24.7514483,5.71507143 23.4692414,5.26889286 22.0270345,4.76625 C23.7892414,4.25917857 25.4775172,4.76514286 26.1351724,5.88335714 C26.0998621,5.97635714 26.0656552,6.06825 26.0314483,6.16014286" id="Fill-38" ></path>
            <path d="M10.5544828,2.3715 C10.8424828,0.682 12.2449655,0.699714286 13.4653793,0.215892857 C12.8507586,1.49796429 12.0286897,2.26189286 10.5544828,2.3715" id="Fill-39" ></path>
            <path d="M18.9815172,0.231392857 C20.1754483,0.694178571 21.5569655,0.68975 21.8416552,2.25082143 C20.7271724,2.45785714 19.689931,1.74264286 18.9815172,0.231392857" id="Fill-40" ></path>
            <path d="M6.22455172,5.97082143 C6.86234483,4.80832143 8.37186207,4.32782143 10.3326897,4.69428571 C8.91475862,5.21796429 7.73848276,6.05496429 6.22455172,5.97082143" id="Fill-41" ></path>
            <path d="M12.5958621,3.82407143 C11.2893793,3.88607143 9.984,3.94807143 8.67972414,4.00896429 C8.67531034,3.90378571 8.67089655,3.7975 8.66648276,3.69232143 C9.94537931,2.79885714 11.2651034,3.11328571 12.5936552,3.61371429 C12.5947586,3.68346429 12.5947586,3.75321429 12.5958621,3.82407143" id="Fill-42" ></path>
            <path d="M23.7164138,4.01892857 C22.4253793,3.95360714 21.1343448,3.88717857 19.7296552,3.81521429 C20.8982069,2.91289286 22.7950345,2.93614286 23.7362759,3.77092857 C23.7296552,3.85396429 23.7230345,3.93589286 23.7164138,4.01892857" id="Fill-43" ></path>
        </g>
    </g>
</svg>