<?xml version="1.0" encoding="utf-8"?>
<!-- Generator: Adobe Illustrator 16.0.0, SVG Export Plug-In . SVG Version: 6.00 Build 0)  -->
<!DOCTYPE svg PUBLIC "-//W3C//DTD SVG 1.1//EN" "http://www.w3.org/Graphics/SVG/1.1/DTD/svg11.dtd">
<svg version="1.1" id="Calque_1" xmlns="http://www.w3.org/2000/svg" xmlns:xlink="http://www.w3.org/1999/xlink" x="0px" y="0px"
	 width="113.333px" height="82.333px" viewBox="0 0 113.333 82.333" enable-background="new 0 0 113.333 82.333"
	 xml:space="preserve">
<path d="M112.258,12.88c-0.805-6.233-5.688-10.684-11.649-10.684h-0.184c-7.833,0-13.602,3.381-17.766,7.654
	L69.963,1.912c-0.858-0.534-1.832-0.806-2.811-0.806c-0.743,0-1.485,0.155-2.183,0.47L4.495,28.891
	c-2.666,1.206-3.854,4.345-2.648,7.011l19.047,42.197c0.578,1.281,1.642,2.281,2.956,2.777c0.605,0.229,1.239,0.341,1.874,0.341
	c0.745,0,1.489-0.157,2.182-0.468l60.486-27.313c1.615-0.729,2.758-2.219,3.049-3.967l2.678-16.208
	C108.889,29.248,113.158,19.853,112.258,12.88 M80.256,25.665c1.144,2.53,0.015,5.511-2.511,6.65
	c-0.67,0.304-1.373,0.445-2.063,0.445c-1.915,0-3.748-1.099-4.591-2.96c-1.137-2.527-0.01-5.5,2.516-6.643
	c0.301-0.136,0.608-0.229,0.916-0.303c-0.925,2.346-1.359,4.002-1.422,4.25c-0.36,1.419,0.497,2.837,1.917,3.198
	c1.392,0.354,2.858-0.497,3.219-1.917c0.016-0.057,0.433-1.593,1.334-3.784C79.83,24.925,80.077,25.268,80.256,25.665
	 M86.209,48.604L25.724,75.916L6.677,33.723L67.152,6.406l12.113,7.573c-1.465,2.088-2.616,4.181-3.516,6.086
	c-0.027,0-0.049-0.006-0.076-0.006c-1.094,0.001-2.159,0.23-3.16,0.685c-3.848,1.739-5.571,6.289-3.84,10.142
	c1.248,2.754,3.995,4.525,7.008,4.525c1.091,0,2.151-0.228,3.153-0.679c1.867-0.845,3.296-2.365,4.02-4.283
	c0.726-1.921,0.66-4.006-0.186-5.875c-0.455-1.006-1.118-1.877-1.916-2.582c0.807-1.626,1.844-3.394,3.114-5.136l6.88,4.299
	L86.209,48.604z M95.084,27.416l0.893-5.396c0.347-2.111-0.605-4.225-2.421-5.358l-6.128-3.83c3.277-3.016,7.552-5.3,13.08-5.383
	c3.305-0.079,6.022,2.45,6.494,6.084C107.582,18.028,104.68,24.071,95.084,27.416"/>
<path d="M21.456,35.633l4.802-2.162c0.95-0.427,1.677-0.708,2.18-0.839s0.995-0.153,1.478-0.068
	c0.481,0.085,0.939,0.282,1.373,0.589c0.435,0.308,0.768,0.72,1.002,1.238c0.253,0.563,0.334,1.148,0.242,1.754
	c-0.092,0.608-0.345,1.145-0.758,1.612c0.828-0.116,1.555-0.006,2.18,0.33c0.625,0.337,1.092,0.852,1.404,1.545
	c0.246,0.547,0.358,1.136,0.337,1.767s-0.183,1.199-0.484,1.705c-0.301,0.508-0.757,0.942-1.37,1.303
	c-0.385,0.226-1.347,0.691-2.889,1.398l-4.088,1.841L21.456,35.633z M24.781,36.54l1.251,2.777l1.59-0.716
	c0.944-0.426,1.525-0.703,1.743-0.834c0.393-0.236,0.654-0.526,0.785-0.871s0.108-0.711-0.065-1.099
	c-0.167-0.371-0.405-0.627-0.715-0.767c-0.31-0.141-0.678-0.144-1.104-0.011c-0.254,0.08-0.951,0.378-2.092,0.893L24.781,36.54z
	 M26.933,41.317l1.445,3.212l2.244-1.011c0.875-0.393,1.418-0.668,1.631-0.823c0.332-0.227,0.553-0.519,0.666-0.875
	c0.112-0.356,0.072-0.747-0.119-1.174c-0.162-0.36-0.389-0.627-0.676-0.799c-0.288-0.173-0.623-0.242-1.005-0.209
	c-0.382,0.034-1.125,0.301-2.229,0.797L26.933,41.317z"/>
<path d="M35.646,36.558c-0.552-1.225-0.831-2.333-0.839-3.328c-0.002-0.734,0.124-1.452,0.377-2.15
	c0.254-0.699,0.609-1.293,1.066-1.782c0.605-0.652,1.397-1.2,2.375-1.641c1.771-0.797,3.434-0.885,4.99-0.266
	c1.558,0.619,2.776,1.908,3.656,3.864c0.873,1.939,1.028,3.693,0.468,5.264c-0.562,1.57-1.725,2.751-3.488,3.546
	c-1.787,0.804-3.453,0.898-4.998,0.283S36.505,38.47,35.646,36.558 M38.107,35.351c0.612,1.359,1.391,2.249,2.335,2.669
	c0.944,0.419,1.898,0.411,2.866-0.022c0.968-0.437,1.604-1.143,1.91-2.118c0.307-0.977,0.146-2.16-0.48-3.552
	c-0.62-1.377-1.384-2.27-2.292-2.675c-0.909-0.405-1.863-0.383-2.863,0.067c-1,0.449-1.65,1.155-1.953,2.116
	C37.325,32.797,37.485,33.969,38.107,35.351"/>
<polygon points="51.718,36.457 46.311,24.444 48.671,23.382 57.198,29.191 53.587,21.169 55.841,20.154 
	61.249,32.167 58.814,33.263 50.445,27.608 53.972,35.442 "/>
<path d="M29.985,65.589l-5.407-12.012l3.893-1.752c1.476-0.664,2.464-1.037,2.966-1.119
	c0.77-0.129,1.522,0.003,2.258,0.397c0.736,0.394,1.319,1.069,1.75,2.026c0.332,0.738,0.478,1.417,0.437,2.04
	c-0.042,0.624-0.204,1.171-0.488,1.643c-0.282,0.474-0.616,0.853-1.001,1.138c-0.527,0.375-1.34,0.81-2.438,1.304l-1.581,0.712
	l2.04,4.531L29.985,65.589z M27.919,54.517l1.534,3.409l1.327-0.597c0.955-0.431,1.567-0.782,1.833-1.053s0.43-0.582,0.492-0.931
	c0.063-0.351,0.014-0.704-0.146-1.058c-0.197-0.438-0.487-0.741-0.872-0.909c-0.385-0.169-0.79-0.199-1.215-0.093
	c-0.314,0.075-0.908,0.31-1.782,0.703L27.919,54.517z"/>
<polygon points="41.077,60.596 35.714,48.682 38.139,47.59 42.593,57.48 48.624,54.766 49.534,56.789 "/>
<path d="M61.929,51.21l-2.639,1.188l-2.277-2.256l-4.801,2.161l0.236,3.175l-2.573,1.158l-0.729-14.119l2.565-1.154
	L61.929,51.21z M55.323,48.468l-3.661-3.713l0.384,5.189L55.323,48.468z"/>
<polygon points="63.072,50.695 57.664,38.683 60.024,37.62 68.552,43.43 64.941,35.406 67.194,34.393 72.603,46.405 
	70.169,47.501 61.8,41.848 65.326,49.681 "/>
</svg>
