<?xml version="1.0" encoding="utf-8"?>
<!-- Generator: Adobe Illustrator 15.1.0, SVG Export Plug-In . SVG Version: 6.00 Build 0)  -->
<!DOCTYPE svg PUBLIC "-//W3C//DTD SVG 1.1//EN" "http://www.w3.org/Graphics/SVG/1.1/DTD/svg11.dtd">
<svg version="1.1" id="Calque_1" xmlns:sketch="http://www.bohemiancoding.com/sketch/ns"
	 xmlns="http://www.w3.org/2000/svg" xmlns:xlink="http://www.w3.org/1999/xlink" x="0px" y="0px" width="176px" height="55px"
	 viewBox="0 0 176 55" enable-background="new 0 0 176 55" xml:space="preserve">
<title>fanion</title>
<desc>Created with Sketch.</desc>
<g sketch:type="MSLayerGroup">
	<path id="Imported-Layers" sketch:type="MSShapeGroup" fill="#46B491" d="M5.998,0.001C2.687,0.001,0,2.687,0,6.001v40
		c0-3.313,2.687-6,5.998-6L150.826,40c2.553,0,4.727-1.598,5.594-3.844l17.316-25.618c1.273-1.1,2.082-2.723,2.082-4.537
		c0-3.315-2.686-6.001-5.998-6.001C121.914,0,12.996,0,12.996,0.001H5.998z"/>
	<path sketch:type="MSShapeGroup" fill="#009F7F" d="M9,40H5.998C2.687,40,0,42.688,0,46v1.537c0,3.312,2.687,6.999,5.998,6.999
		L9,54.535V40L9,40z"/>
</g>
</svg>
