<?xml version="1.0" encoding="UTF-8" standalone="no"?>
<svg width="32px" height="29px" viewBox="0 0 32 29" version="1.1" xmlns="http://www.w3.org/2000/svg" xmlns:xlink="http://www.w3.org/1999/xlink" xmlns:sketch="http://www.bohemiancoding.com/sketch/ns">
    <!-- Generator: Sketch 3.1.1 (8761) - http://www.bohemiancoding.com/sketch -->
    <title>icon-bonplan@1x</title>
    <desc></desc>
    <defs></defs>
    <g id="Page-1" stroke="none" stroke-width="1"  fill-rule="evenodd" >
        <g id="icon-bonplan"  transform="translate(1.000000, 0.000000)">
            <path d="M28.4311111,16.330625 L27.2053333,16.330625 C28.2533333,16.330625 29.0977778,17.21875 29.0977778,18.3153125 C29.0977778,19.4028125 28.2533333,20.2909375 27.2053333,20.2909375 L25.9866667,20.2909375 C27.0266667,20.2909375 27.872,21.1790625 27.872,22.2665625 C27.872,23.363125 27.0266667,24.25125 25.9866667,24.25125 L24.7688889,24.25125 C25.8088889,24.25125 26.6533333,25.1303125 26.6533333,26.226875 C26.6533333,27.3234375 25.8088889,28.2025 24.7688889,28.2025 L12.3866667,28.2025 C12.3866667,28.2025 11.9786667,28.220625 11.48,28.1753125 C10.6266667,28.1028125 9.48,27.858125 9.48,27.0515625 L9.48,15.225 C9.48,15.225 16.3866667,11.4821875 16.3866667,3.389375 C16.3866667,3.389375 16.0577778,0.4803125 17.7733333,0.344375 L18.0222222,0.344375 C19.0186667,0.416875 19.792,1.4771875 20.28,2.9271875 C20.6808889,4.09625 20.8942222,5.51 20.8942222,6.8784375 C20.8942222,10.0321875 19.6675556,12.379375 19.6675556,12.379375 L28.4311111,12.379375 C29.4711111,12.379375 30.3164444,13.2675 30.3164444,14.355 C30.3164444,15.4425 29.4711111,16.330625 28.4311111,16.330625 M-0.377777778,14.065 L-0.377777778,14.2190625 L0.84,28.365625 L8.20888889,28.365625 L8.20888889,14.065 L-0.377777778,14.065 L-0.377777778,14.065 Z M6.24444444,25.320625 C6.14666667,25.70125 5.93422222,26.0365625 5.64088889,26.28125 C5.312,26.5621875 4.90311111,26.734375 4.44977778,26.734375 C3.40977778,26.734375 2.57422222,25.8825 2.57422222,24.83125 C2.57422222,23.7709375 3.40977778,22.9190625 4.44977778,22.9190625 C5.48,22.9190625 6.31644444,23.7709375 6.31644444,24.83125 C6.31644444,25.0034375 6.28888889,25.1665625 6.24444444,25.320625 L6.24444444,25.320625 Z" id="Fill-1" ></path>
        </g>
    </g>
</svg>