<?xml version="1.0" encoding="utf-8"?>
<!-- Generator: Adobe Illustrator 16.0.0, SVG Export Plug-In . SVG Version: 6.00 Build 0)  -->
<!DOCTYPE svg PUBLIC "-//W3C//DTD SVG 1.1//EN" "http://www.w3.org/Graphics/SVG/1.1/DTD/svg11.dtd">
<svg version="1.1" id="Layer_1" xmlns="http://www.w3.org/2000/svg" xmlns:xlink="http://www.w3.org/1999/xlink" x="0px" y="0px"
	 width="792px" height="612px" viewBox="0 0 792 612" enable-background="new 0 0 792 612" xml:space="preserve">
<circle cx="404.979" cy="305.955" r="240.888"/>
<path fill="#FFFFFF" d="M401.596,2C235.501,2,100.857,138.066,100.857,305.907c0,167.842,134.644,303.907,300.737,303.907
	c166.092,0,300.733-136.065,300.733-303.907C702.328,138.066,567.685,2,401.596,2z M403.409,544.657
	c-130.979,0-237.157-107.3-237.157-239.657c0-132.357,106.179-239.657,237.157-239.657c130.977,0,237.155,107.3,237.155,239.657
	C640.564,437.357,534.388,544.657,403.409,544.657z"/>
<path fill="#FFFFFF" d="M564.781,220.229l-74.099-74.15l-85.704,85.704l-85.676-85.704l-74.125,74.15l85.704,85.65l-85.704,85.704
	l74.125,74.151l85.676-85.705l85.704,85.705l74.099-74.151l-85.678-85.704L564.781,220.229z"/>
</svg>
