<?xml version="1.0" encoding="utf-8"?>
<!-- Generator: Adobe Illustrator 16.0.0, SVG Export Plug-In . SVG Version: 6.00 Build 0)  -->
<!DOCTYPE svg PUBLIC "-//W3C//DTD SVG 1.1//EN" "http://www.w3.org/Graphics/SVG/1.1/DTD/svg11.dtd">
<svg version="1.1" id="Layer_1" xmlns="http://www.w3.org/2000/svg" xmlns:xlink="http://www.w3.org/1999/xlink" x="0px" y="0px"
	 width="254px" height="254px" viewBox="0 0 254 254" enable-background="new 0 0 254 254" xml:space="preserve">
<g>
	<path d="M131.825,250.446l-0.36-8.127c0.864-0.043,1.728-0.089,2.586-0.149l0.554,8.118
		C133.683,250.353,132.757,250.405,131.825,250.446z M117.953,250.327c-0.922-0.066-1.842-0.134-2.763-0.214l0.699-8.106
		c0.862,0.074,1.727,0.136,2.595,0.196L117.953,250.327z M148.372,248.593l-1.441-8.01c0.854-0.156,1.704-0.319,2.552-0.489
		l1.615,7.976C150.192,248.255,149.285,248.43,148.372,248.593z M101.456,248.156c-0.913-0.179-1.823-0.374-2.728-0.575l1.786-7.942
		c0.838,0.191,1.682,0.371,2.529,0.534L101.456,248.156z M164.526,244.539l-2.502-7.745c0.825-0.265,1.645-0.54,2.46-0.828
		l2.676,7.688C166.287,243.955,165.407,244.255,164.526,244.539z M85.366,243.809c-0.875-0.308-1.748-0.614-2.616-0.934l2.811-7.639
		c0.818,0.3,1.638,0.592,2.464,0.88L85.366,243.809z M179.993,238.355l-3.523-7.34c0.78-0.369,1.557-0.751,2.327-1.142l3.675,7.262
		C181.651,237.55,180.825,237.961,179.993,238.355z M70.015,237.333c-0.834-0.418-1.66-0.844-2.48-1.282l3.826-7.185
		c0.761,0.409,1.53,0.804,2.302,1.191L70.015,237.333z M194.487,230.169l-4.479-6.792c0.726-0.481,1.445-0.965,2.161-1.456
		l4.608,6.71C196.021,229.148,195.257,229.661,194.487,230.169z M55.659,228.87c-0.765-0.522-1.526-1.054-2.278-1.594l4.741-6.617
		c0.705,0.509,1.413,1.001,2.129,1.493L55.659,228.87z M207.757,220.134l-5.329-6.149c0.652-0.569,1.3-1.139,1.941-1.723
		l5.464,6.026C209.148,218.916,208.453,219.527,207.757,220.134z M42.568,218.576c-0.691-0.62-1.375-1.246-2.05-1.887l5.583-5.919
		c0.628,0.596,1.264,1.18,1.904,1.755L42.568,218.576z M219.591,208.419l-6.104-5.382c0.576-0.653,1.144-1.309,1.706-1.971
		l6.208,5.26C220.806,207.027,220.202,207.725,219.591,208.419z M30.958,206.646c-0.6-0.699-1.191-1.415-1.774-2.129l6.307-5.142
		c0.547,0.667,1.101,1.338,1.661,1.992L30.958,206.646z M229.766,195.24l-6.764-4.522c0.484-0.726,0.961-1.452,1.431-2.185
		l6.854,4.388C230.788,193.702,230.281,194.469,229.766,195.24z M21.03,193.277c-0.498-0.775-0.986-1.554-1.468-2.338l6.927-4.271
		c0.456,0.744,0.918,1.479,1.387,2.209L21.03,193.277z M238.097,180.827l-7.3-3.604c0.382-0.775,0.755-1.555,1.121-2.342
		l7.384,3.429C238.909,179.157,238.506,179.994,238.097,180.827z M12.979,178.717c-0.394-0.839-0.776-1.68-1.15-2.529l7.45-3.278
		c0.347,0.791,0.704,1.573,1.067,2.353L12.979,178.717z M244.433,165.403l-7.72-2.578c0.275-0.819,0.54-1.646,0.799-2.482
		l7.775,2.405C245.01,163.639,244.725,164.521,244.433,165.403z M6.945,163.203c-0.278-0.885-0.545-1.77-0.803-2.665l7.821-2.258
		c0.239,0.839,0.488,1.663,0.747,2.485L6.945,163.203z M248.633,149.273l-7.994-1.522c0.16-0.846,0.312-1.699,0.455-2.552
		l8.027,1.334C248.97,147.449,248.807,148.361,248.633,149.273z M3.046,147.005c-0.154-0.912-0.299-1.826-0.434-2.738l8.05-1.192
		c0.129,0.858,0.264,1.719,0.409,2.57L3.046,147.005z M250.635,132.744l-8.126-0.435c0.046-0.866,0.084-1.734,0.111-2.603
		l8.134,0.264C250.725,130.898,250.684,131.82,250.635,132.744z M1.349,130.447c-0.033-0.925-0.055-1.848-0.068-2.776l8.138-0.105
		c0.011,0.865,0.033,1.728,0.064,2.591L1.349,130.447z M242.322,116.736c-0.066-0.865-0.146-1.728-0.232-2.591l8.099-0.806
		c0.093,0.916,0.175,1.838,0.246,2.759L242.322,116.736z M9.953,114.596l-8.102-0.779c0.088-0.929,0.188-1.844,0.298-2.766
		l8.079,0.964C10.128,112.873,10.036,113.732,9.953,114.596z M240.08,101.333c-0.182-0.842-0.375-1.686-0.574-2.521l7.915-1.896
		c0.214,0.898,0.42,1.806,0.615,2.71L240.08,101.333z M12.481,99.245l-7.925-1.859c0.213-0.905,0.435-1.802,0.667-2.697l7.879,2.035
		C12.886,97.561,12.678,98.399,12.481,99.245z M235.789,86.382c-0.294-0.816-0.597-1.627-0.91-2.433l7.59-2.941
		c0.334,0.866,0.66,1.733,0.975,2.609L235.789,86.382z M17.048,84.356l-7.603-2.904c0.332-0.87,0.674-1.732,1.026-2.595l7.532,3.083
		C17.675,82.74,17.357,83.546,17.048,84.356z M229.528,72.129c-0.398-0.764-0.808-1.526-1.221-2.279l7.128-3.926
		c0.445,0.81,0.884,1.626,1.313,2.447L229.528,72.129z M23.575,70.226l-7.139-3.904c0.442-0.812,0.895-1.616,1.354-2.416l7.06,4.047
		C24.418,68.707,23.993,69.463,23.575,70.226z M221.427,58.851c-0.499-0.705-1.004-1.403-1.517-2.098l6.542-4.844
		c0.549,0.748,1.091,1.5,1.624,2.254L221.427,58.851z M31.936,57.086l-6.56-4.817c0.547-0.747,1.105-1.487,1.669-2.219l6.453,4.958
		C32.971,55.692,32.45,56.386,31.936,57.086z M211.627,46.764c-0.591-0.635-1.188-1.26-1.789-1.886l5.849-5.658
		c0.645,0.667,1.279,1.335,1.906,2.013L211.627,46.764z M41.968,45.169l-5.869-5.637c0.645-0.668,1.295-1.331,1.955-1.987
		l5.731,5.781C43.173,43.935,42.567,44.549,41.968,45.169z M200.312,36.083c-0.671-0.552-1.348-1.103-2.03-1.643l5.049-6.385
		c0.723,0.571,1.439,1.155,2.151,1.742L200.312,36.083z M53.48,34.7l-5.06-6.374c0.725-0.577,1.455-1.145,2.191-1.701l4.917,6.485
		C54.84,33.629,54.157,34.16,53.48,34.7z M187.674,26.985c-0.739-0.455-1.481-0.912-2.232-1.356l4.155-6.999
		c0.795,0.471,1.585,0.954,2.366,1.44L187.674,26.985z M66.281,25.846l-4.176-6.987c0.793-0.473,1.59-0.938,2.393-1.394l4.024,7.072
		C67.771,24.966,67.023,25.401,66.281,25.846z M173.932,19.652c-0.79-0.355-1.586-0.704-2.383-1.043l3.166-7.498
		c0.857,0.366,1.706,0.736,2.554,1.118L173.932,19.652z M80.131,18.789l-3.193-7.487c0.846-0.36,1.695-0.714,2.55-1.059l3.038,7.55
		C81.724,18.115,80.925,18.45,80.131,18.789z M159.332,14.227c-0.828-0.249-1.661-0.487-2.498-0.715l2.142-7.853
		c0.894,0.244,1.782,0.498,2.669,0.764L159.332,14.227z M94.808,13.639l-2.169-7.841c0.894-0.249,1.793-0.488,2.695-0.716
		l1.974,7.895C96.472,13.188,95.637,13.411,94.808,13.639z M144.149,10.809c-0.856-0.138-1.714-0.26-2.576-0.376l1.082-8.063
		c0.92,0.122,1.836,0.253,2.747,0.396L144.149,10.809z M110.057,10.497l-1.11-8.064c0.918-0.123,1.841-0.238,2.764-0.346
		l0.913,8.086C111.765,10.274,110.909,10.38,110.057,10.497z M128.645,9.442c-0.863-0.021-1.73-0.032-2.6-0.032l-0.476,0.005V1.277
		l0.407-0.005c1.052,0.005,1.918,0.01,2.839,0.031L128.645,9.442z"/>
	<path fill-rule="evenodd" clip-rule="evenodd" d="M124.933,68.766c-32.692,0-59.194,26.477-59.194,59.133
		c0,32.66,26.502,59.133,59.194,59.133c32.69,0,59.191-26.473,59.191-59.133C184.124,95.242,157.623,68.766,124.933,68.766z
		 M125.723,173.364c-25.136,0-45.514-20.355-45.514-45.466c0-25.112,20.377-45.466,45.514-45.466
		c25.135,0,45.513,20.354,45.513,45.466C171.235,153.009,150.857,173.364,125.723,173.364z"/>
	<polygon points="142.088,109.79 124.944,126.932 107.777,109.763 95.512,122.026 124.944,151.459 154.353,122.052 	
		"/>
</g>
</svg>
