<?xml version="1.0" encoding="UTF-8" standalone="no"?>
<svg width="30px" height="30px" viewBox="0 0 30 30" version="1.1" xmlns="http://www.w3.org/2000/svg" xmlns:xlink="http://www.w3.org/1999/xlink" xmlns:sketch="http://www.bohemiancoding.com/sketch/ns">
    <!-- Generator: Sketch 3.1.1 (8761) - http://www.bohemiancoding.com/sketch -->
    <title>icon-password-hiden</title>
    <desc></desc>
    <defs></defs>
    <g id="Page-1" stroke="none" stroke-width="1"  fill-rule="evenodd" >
        <g id="icon-password-hiden"  transform="translate(0.000000, 1.000000)">
            <path d="M28.862,0.168 C28.47,-0.224 27.838,-0.224 27.448,0.168 L20.368,7.248 C18.57,6.566 16.812,6.256 15.146,6.256 C11.292,6.258 7.956,7.776 5.478,9.388 C3,11.008 1.366,12.728 0.886,13.27 C0.504,13.7 0.534,14.366 0.948,14.758 C0.986,14.794 1.036,14.81 1.078,14.838 C1.102,14.884 1.09,14.94 1.124,14.98 C3.198,17.438 5.238,19.174 7.224,20.392 L0.282,27.334 C-0.11,27.724 -0.11,28.358 0.282,28.748 C0.476,28.944 0.732,29.042 0.988,29.042 C1.244,29.042 1.5,28.944 1.696,28.748 L28.862,1.582 C29.252,1.19 29.252,0.558 28.862,0.168 L28.862,0.168 Z M10.666,9.568 C10.91,9.318 11.18,9.1 11.46,8.894 C12.624,8.562 13.86,8.36 15.146,8.36 C16.292,8.362 17.484,8.542 18.71,8.904 L15.112,12.504 C15.108,12.456 15.092,12.412 15.092,12.364 C15.092,11.612 15.466,10.98 16.008,10.566 C15.808,10.534 15.608,10.504 15.398,10.504 C13.194,10.504 11.402,12.352 11.402,14.634 C11.402,15.108 11.5,15.55 11.644,15.97 L9.888,17.728 C9.224,16.702 8.834,15.472 8.834,14.142 C8.834,12.354 9.534,10.742 10.666,9.568 L10.666,9.568 Z M2.558,14.51 C3.088,13.936 4.498,12.516 6.566,11.172 C7.206,10.754 7.906,10.354 8.65,9.986 C7.918,11.196 7.478,12.612 7.478,14.142 C7.478,15.85 8.026,17.408 8.924,18.692 L8.236,19.38 C6.426,18.322 4.524,16.754 2.558,14.51 Z M23.486,8.802 L21.944,10.344 C23.566,11.298 25.238,12.63 26.946,14.52 C26.694,14.81 26.386,15.158 25.962,15.598 C24.916,16.684 23.36,18.11 21.428,19.252 C21.078,19.458 20.704,19.644 20.33,19.828 C21.786,18.396 22.702,16.384 22.702,14.142 C22.702,12.818 22.352,11.592 21.79,10.5 L20.788,11.5 C21.14,12.308 21.344,13.198 21.344,14.142 C21.344,15.93 20.646,17.542 19.512,18.714 C18.38,19.886 16.818,20.608 15.088,20.61 C14.104,20.61 13.184,20.354 12.356,19.932 L10.384,21.906 C11.86,22.412 13.296,22.66 14.654,22.66 C18.454,22.658 21.666,20.96 24.032,19.17 C25.214,18.276 26.188,17.352 26.924,16.59 C27.654,15.83 28.162,15.218 28.362,14.994 C28.4,14.95 28.39,14.89 28.414,14.842 C28.46,14.81 28.51,14.796 28.55,14.758 C28.964,14.366 28.99,13.7 28.612,13.27 C26.908,11.346 25.19,9.884 23.486,8.802 Z M15.398,18.766 C17.604,18.766 19.394,16.916 19.394,14.634 C19.394,14.392 19.362,14.158 19.318,13.928 L14.572,18.676 C14.838,18.734 15.116,18.766 15.398,18.766 Z" id="Fill-1" ></path>
        </g>
    </g>
</svg>