<?xml version="1.0" encoding="UTF-8" standalone="no"?>
<svg width="32px" height="32px" viewBox="0 0 32 32" version="1.1" xmlns="http://www.w3.org/2000/svg" xmlns:xlink="http://www.w3.org/1999/xlink" xmlns:sketch="http://www.bohemiancoding.com/sketch/ns">
    <!-- Generator: Sketch 3.1.1 (8761) - http://www.bohemiancoding.com/sketch -->
    <title>icon-SAV@1x</title>
    <desc></desc>
    <defs></defs>
    <g id="Page-1" stroke="none" stroke-width="1"  fill-rule="evenodd" >
        <g id="icon-SAV">
            <path d="M10.0734118,4.71222857 L11.5708235,3.52 C12.2249412,3.0016 12.4818824,2.71634286 12.4818824,2.29211429 C12.4818824,1.86148571 12.1872941,1.62742857 11.7741176,1.62742857 C11.4428235,1.62742857 11.2094118,1.76548571 10.9157647,2.07268571 C10.8404706,2.15314286 10.7058824,2.2336 10.5251765,2.2336 C10.2315294,2.2336 9.99811765,2.00777143 9.99811765,1.7216 C9.99811765,1.59817143 10.0508235,1.46651429 10.1336471,1.37142857 C10.5552941,0.896 11.0512941,0.618057143 11.8494118,0.618057143 C12.9402353,0.618057143 13.6630588,1.23977143 13.6630588,2.19702857 L13.6630588,2.21165714 C13.6630588,3.06742857 13.2112941,3.49165714 12.2776471,4.19291429 L11.4202353,4.83657143 L13.2564706,4.83657143 C13.5350588,4.83657143 13.7609412,5.056 13.7609412,5.32662857 C13.7609412,5.59725714 13.5350588,5.80845714 13.2564706,5.80845714 L10.3971765,5.80845714 C10.0348235,5.80845714 9.77223529,5.61097143 9.77223529,5.27451429 C9.77223529,5.056 9.87670588,4.86582857 10.0734118,4.71222857" id="Fill-1" ></path>
            <path d="M17.1341176,4.70491429 L14.9665882,4.70491429 C14.6578824,4.70491429 14.4028235,4.48548571 14.4028235,4.1856 C14.4028235,3.95154286 14.4997647,3.7696 14.6738824,3.57211429 L16.9609412,0.991085714 C17.1802353,0.7424 17.3458824,0.610742857 17.6837647,0.610742857 C17.9924706,0.610742857 18.2409412,0.8448 18.2409412,1.14377143 L18.2409412,3.79062857 L18.5185882,3.79062857 C18.7821176,3.79062857 18.9929412,3.99542857 18.9929412,4.25142857 C18.9929412,4.50742857 18.7821176,4.70491429 18.5185882,4.70491429 L18.2409412,4.70491429 L18.2409412,5.3184 C18.2409412,5.61828571 17.9924706,5.85234286 17.6837647,5.85234286 C17.3750588,5.85234286 17.1341176,5.61828571 17.1341176,5.3184 L17.1341176,4.70491429 L17.1341176,4.70491429 Z M17.1341176,3.79062857 L17.1341176,2.19702857 L15.7355294,3.79062857 L17.1341176,3.79062857 L17.1341176,3.79062857 Z" id="Fill-2" ></path>
            <path d="M19.4098824,0.983771429 C19.4098824,0.676571429 19.6658824,0.427885714 19.9811765,0.427885714 C20.2974118,0.427885714 20.5534118,0.676571429 20.5534118,0.983771429 L20.5534118,2.44571429 C20.8169412,2.11657143 21.1557647,1.8176 21.7355294,1.8176 C22.6014118,1.8176 23.1049412,2.37257143 23.1049412,3.27222857 L23.1049412,5.29645714 C23.1049412,5.60365714 22.8489412,5.85234286 22.5327059,5.85234286 C22.2164706,5.85234286 21.9614118,5.60365714 21.9614118,5.29645714 L21.9614118,3.6224 C21.9614118,3.09577143 21.7044706,2.82514286 21.2687059,2.82514286 C20.832,2.82514286 20.5534118,3.09577143 20.5534118,3.6224 L20.5534118,5.29645714 C20.5534118,5.60365714 20.2974118,5.85234286 19.9811765,5.85234286 C19.6658824,5.85234286 19.4098824,5.60365714 19.4098824,5.29645714 L19.4098824,0.983771429" id="Fill-3" ></path>
            <path d="M3.50305882,16.0475429 L6.08847059,16.0475429 L6.08847059,16.5193143 L3.50305882,16.5193143 L3.50305882,16.0475429 Z M5.07858824,22.2336 L5.32235294,22.6413714 L7.56047059,21.3860571 L7.31764706,20.9782857 L5.07858824,22.2336 Z M15.9312941,26.0790857 L15.9312941,28.5933714 L16.1750588,28.5933714 L16.1731765,26.0790857 L15.9312941,26.0790857 Z M11.3421176,24.8841143 L10.9204706,24.6500571 L9.62823529,26.8251429 L10.048,27.0610286 L11.3421176,24.8841143 Z M5.32329412,9.92274286 L5.08047059,10.3305143 L7.31952941,11.5858286 L7.56141176,11.1789714 L5.32329412,9.92274286 Z M26.2588235,16.0475429 L28.8461176,16.0475429 L28.8461176,16.5193143 L26.2588235,16.5193143 L26.2588235,16.0475429 Z M24.7887059,21.3860571 L27.0277647,22.6413714 L27.2715294,22.2336 L25.0296471,20.9782857 L24.7887059,21.3860571 Z M16.1750588,28.5933714 L16.4178824,28.5933714 L16.4178824,26.0790857 L16.1750588,26.0790857 L16.1750588,28.5933714 Z M22.2992941,27.0610286 L22.72,26.8251429 L21.4287059,24.6500571 L21.0070588,24.8841143 L22.2992941,27.0610286 Z M24.7868235,11.1789714 L25.0296471,11.5858286 L27.2687059,10.3305143 L27.0258824,9.92274286 L24.7868235,11.1789714 Z" id="Fill-4" ></path>
            <path d="M23.7110588,10.2848 L21.0955294,13.1968 L18.3896471,10.9019429 L21.0051765,7.98994286 C20.7058824,7.92045714 20.4009412,7.89302857 20.0941176,7.89394286 C20.0865882,7.89394286 20.0781176,7.89302857 20.0705882,7.89302857 C19.0051765,7.90308571 17.9491765,8.33188571 17.1915294,9.17302857 C16.5628235,9.8752 16.2578824,10.7392 16.2503529,11.6022857 C16.2503529,11.6096 16.2484706,11.6178286 16.2484706,11.6251429 L16.2484706,11.6260571 C16.2475294,12.2157714 16.3802353,12.8036571 16.6578824,13.3385143 L9.88329412,20.8813714 C9.35435294,21.4665143 9.41835294,22.3588571 10.0216471,22.8690286 C10.6249412,23.3801143 11.5425882,23.3216 12.0677647,22.7337143 L18.8432941,15.1917714 C20.2889412,15.6772571 21.9538824,15.3042286 23.0230588,14.1156571 C24.0009412,13.0276571 24.2136471,11.5456 23.7110588,10.2848" id="Fill-14" ></path>
            <path d="M0.966588235,11.8537143 C0.435764706,13.5734857 0.244705882,15.3206857 0.336941176,17.0322286 L0.336941176,17.0541714 C0.483764706,19.7568 1.36564706,22.3579429 2.85458824,24.6034286 L4.65317647,22.8580571 C3.16047059,20.3986286 2.51105882,17.4820571 2.91011765,14.5572571 C2.91011765,14.5490286 2.912,14.5389714 2.91388235,14.5307429 C3.00611765,13.8669714 3.13976471,13.2032 3.34211765,12.5458286 C3.75247059,11.2128 4.39341176,9.94377143 5.24423529,8.77531429 L5.54635294,8.36022857 L7.52752941,10.0516571 L7.52847059,10.0516571 L7.54164706,10.0608 L7.54070588,10.0617143 L7.56141176,10.0790857 L7.568,10.0352 L7.55482353,10.048 L7.568,10.0352 L7.57364706,10.0077714 L7.55105882,10.0297143 L7.57364706,10.0077714 L8.55717647,4.0832 L1.97741176,5.312 L3.68376471,6.77028571 L3.42776471,7.10765714 C2.31623529,8.56137143 1.48705882,10.1595429 0.966588235,11.8537143 Z M4.66164706,22.8726857 L4.66258824,22.8726857 C4.65976471,22.8681143 4.656,22.8635429 4.65411765,22.8580571 L2.85458824,24.6034286 C2.85929412,24.608 2.86211765,24.6134857 2.86494118,24.6171429 L2.864,24.6180571 C4.17505882,26.5892571 5.95011765,28.2806857 8.11576471,29.5149714 L9.94258824,27.7394286 C7.69694118,26.5984 5.89552941,24.8950857 4.66164706,22.8726857 Z M12.3030588,28.6829714 C11.7515294,28.5220571 11.2056471,28.3273143 10.6823529,28.1005714 C10.4348235,27.9936 10.1995294,27.8683429 9.96047059,27.7467429 L9.95952941,27.7467429 C9.95388235,27.7449143 9.94823529,27.7412571 9.94258824,27.7394286 L8.11670588,29.5149714 C8.12141176,29.5168 8.12517647,29.5204571 8.13082353,29.5222857 C8.62588235,29.8038857 9.13411765,30.0681143 9.66682353,30.2985143 C10.2889412,30.5682286 10.9355294,30.8022857 11.5915294,30.9915429 C13.1425882,31.4432 14.7105882,31.6489143 16.2494118,31.6361143 L19.072,28.8969143 C16.9035294,29.3769143 14.5825882,29.3449143 12.3030588,28.6829714 Z M31.2922353,20.6692571 C31.7242353,19.2667429 31.936,17.8441143 31.9510588,16.4379429 L31.9510588,16.3949714 C31.9708235,13.6009143 31.2009412,10.8781714 29.7778824,8.51017143 C29.776,8.5056 29.7722353,8.50011429 29.7684706,8.49554286 C29.1162353,7.41028571 28.3322353,6.39634286 27.4155294,5.48845714 C26.9251765,5.00114286 26.3896471,4.5504 25.8277647,4.12617143 L24.1063529,5.87885714 C24.6767059,6.29394286 25.2112941,6.74468571 25.7016471,7.23565714 C26.6023529,8.13897143 27.3515294,9.16297143 27.9435294,10.2683429 C27.9454118,10.2729143 27.9491765,10.2774857 27.9510588,10.2838857 L27.952,10.2838857 C29.3731765,12.9371429 29.8607059,16.0539429 29.1491765,19.1140571 C29.1472941,19.1250286 29.1435294,19.1350857 29.1397647,19.1460571 C29.0757647,19.4230857 28.9995294,19.7019429 28.9157647,19.9789714 C27.4917647,24.6016 23.6301176,27.8738286 19.1030588,28.8877714 C19.0927059,28.8896 19.0832941,28.8932571 19.072,28.8969143 L16.2503529,31.6361143 C16.2569412,31.6361143 16.2644706,31.6379429 16.2710588,31.6379429 C23.0258824,31.5757714 29.2564706,27.2786286 31.2922353,20.6692571 Z" id="Fill-15" ></path>
        </g>
    </g>
</svg>