<?xml version="1.0" encoding="UTF-8" standalone="no"?>
<svg width="17px" height="32px" viewBox="0 0 17 32" version="1.1" xmlns="http://www.w3.org/2000/svg" xmlns:xlink="http://www.w3.org/1999/xlink" xmlns:sketch="http://www.bohemiancoding.com/sketch/ns">
    <!-- Generator: Sketch 3.1.1 (8761) - http://www.bohemiancoding.com/sketch -->
    <title>icon-bluetooth@1x</title>
    <desc></desc>
    <defs></defs>
    <g id="Page-1" stroke="none" stroke-width="1"  fill-rule="evenodd">
        <path d="M9.85263158,19.3316571 C10.908,20.3282286 11.9273684,21.2891429 13.0016842,22.3030857 C11.9842105,23.2137143 11.0169474,24.0804571 9.85263158,25.1245714 L9.85263158,19.3316571 L9.85263158,19.3316571 Z M9.81284211,6.0352 C10.8350526,7.26582857 11.7918947,8.41965714 12.7373684,9.56068571 C11.7303158,10.5782857 10.7801053,11.5355429 9.81284211,12.512 L9.81284211,6.0352 L9.81284211,6.0352 Z M7.15926316,12.5494857 C5.31757895,10.7428571 3.57821053,9.03862857 1.81136842,7.30514286 C1.17473684,7.99451429 0.596842105,8.62445714 0,9.27085714 C2.25473684,11.4688 4.44031579,13.6009143 6.65715789,15.7641143 C4.39105263,17.9885714 2.16663158,20.1764571 0.0161052632,22.2875429 C0.794842105,23.1213714 1.50631579,23.8820571 2.23010526,24.6582857 C3.87852632,22.8516571 5.52315789,21.0514286 7.30989474,19.0939429 L7.30989474,31.7906286 C10.5432632,28.5677714 13.6288421,25.4921143 16.7712632,22.3588571 C14.6633684,20.1956571 12.6075789,18.0873143 10.5205263,15.9460571 C12.5062105,13.7856 14.4843158,11.6315429 16.5268421,9.40708571 C13.4223158,6.29028571 10.3708421,3.22468571 7.15926316,0 L7.15926316,12.5494857 L7.15926316,12.5494857 Z" id="icon-bluetooth"></path>
    </g>
</svg>