<?xml version="1.0" encoding="utf-8"?>
<!-- Generator: Adobe Illustrator 16.0.0, SVG Export Plug-In . SVG Version: 6.00 Build 0)  -->
<!DOCTYPE svg PUBLIC "-//W3C//DTD SVG 1.1//EN" "http://www.w3.org/Graphics/SVG/1.1/DTD/svg11.dtd">
<svg version="1.1" id="Layer_1" xmlns="http://www.w3.org/2000/svg" xmlns:xlink="http://www.w3.org/1999/xlink" x="0px" y="0px"
	 width="254px" height="254px" viewBox="0 0 254 254" enable-background="new 0 0 254 254" xml:space="preserve">
<g>
	<path d="M133.852,251.758c-1.461,0-2.677-1.148-2.744-2.619c-0.069-1.519,1.101-2.806,2.617-2.878l0.658-0.034
		c1.547-0.058,2.817,1.068,2.905,2.584c0.089,1.518-1.069,2.815-2.582,2.904l-0.724,0.04
		C133.938,251.758,133.895,251.758,133.852,251.758z M120.062,251.75c-0.054,0-0.108-0.004-0.164-0.006l-0.689-0.04
		c-1.516-0.088-2.673-1.39-2.584-2.906c0.089-1.515,1.355-2.674,2.907-2.583l0.689,0.04c1.516,0.089,2.673,1.39,2.584,2.906
		C122.719,250.622,121.507,251.75,120.062,251.75z M148.238,250.122c-1.312,0-2.469-0.937-2.707-2.267
		c-0.266-1.496,0.73-2.924,2.225-3.189l0.682-0.12c1.504-0.269,2.924,0.731,3.19,2.226c0.263,1.494-0.731,2.922-2.228,3.188
		l-0.68,0.12C148.561,250.107,148.398,250.122,148.238,250.122z M105.68,250.087c-0.159,0-0.321-0.013-0.483-0.042l-0.714-0.13
		c-1.491-0.284-2.47-1.726-2.187-3.217c0.283-1.489,1.725-2.468,3.217-2.187l0.645,0.119c1.496,0.266,2.493,1.689,2.227,3.188
		C108.149,249.148,106.99,250.087,105.68,250.087z M162.331,246.785c-1.192,0-2.288-0.779-2.64-1.977
		c-0.428-1.459,0.41-2.988,1.867-3.414l0.633-0.188c1.443-0.453,2.983,0.374,3.432,1.827c0.439,1.453-0.377,2.992-1.831,3.433
		l-0.688,0.208C162.846,246.751,162.586,246.785,162.331,246.785z M91.591,246.732c-0.265,0-0.533-0.037-0.799-0.116l-0.697-0.218
		c-1.448-0.457-2.25-2.002-1.79-3.451c0.459-1.447,2.009-2.248,3.451-1.788l0.631,0.192c1.452,0.441,2.274,1.977,1.834,3.43
		C93.862,245.968,92.77,246.732,91.591,246.732z M175.93,241.805c-1.062,0-2.074-0.621-2.525-1.656
		c-0.604-1.396,0.039-3.014,1.429-3.616l0.601-0.263c1.381-0.623,3.01-0.002,3.631,1.385c0.623,1.385,0.004,3.013-1.379,3.631
		l-0.666,0.293C176.663,241.73,176.294,241.805,175.93,241.805z M77.992,241.725c-0.364,0-0.734-0.074-1.09-0.227l-0.66-0.293
		c-1.387-0.618-2.009-2.242-1.392-3.63c0.62-1.39,2.245-2.019,3.632-1.392l0.605,0.266c1.394,0.604,2.035,2.224,1.43,3.615
		C80.068,241.104,79.057,241.725,77.992,241.725z M188.829,235.244c-0.945,0-1.87-0.49-2.379-1.37
		c-0.765-1.313-0.317-2.995,0.995-3.758l0.562-0.331c1.308-0.776,2.995-0.352,3.772,0.945c0.781,1.305,0.355,2.992-0.947,3.772
		l-0.622,0.366C189.773,235.122,189.299,235.244,188.829,235.244z M65.089,235.136c-0.479,0-0.962-0.122-1.404-0.388l-0.601-0.355
		c-1.302-0.781-1.727-2.471-0.946-3.771c0.778-1.305,2.464-1.725,3.771-0.947l0.587,0.352c1.306,0.774,1.733,2.463,0.958,3.768
		C66.94,234.656,66.027,235.136,65.089,235.136z M200.869,227.203c-0.84,0-1.662-0.378-2.2-1.102
		c-0.915-1.213-0.668-2.937,0.547-3.848l0.528-0.398c1.205-0.928,2.934-0.696,3.854,0.512c0.924,1.206,0.692,2.932-0.514,3.854
		l-0.566,0.434C202.02,227.023,201.445,227.203,200.869,227.203z M53.057,227.066c-0.579,0-1.163-0.183-1.66-0.56l-0.578-0.44
		c-1.197-0.937-1.412-2.661-0.478-3.861c0.933-1.198,2.664-1.406,3.859-0.479l0.521,0.399c1.209,0.919,1.446,2.646,0.527,3.853
		C54.708,226.689,53.887,227.066,53.057,227.066z M211.875,217.803c-0.73,0-1.458-0.289-2-0.861
		c-1.043-1.107-0.991-2.848,0.113-3.89l0.462-0.444c1.09-1.056,2.829-1.039,3.888,0.049c1.064,1.088,1.041,2.828-0.047,3.889
		l-0.527,0.512C213.23,217.557,212.551,217.803,211.875,217.803z M42.063,217.643c-0.685,0-1.37-0.254-1.904-0.767l-0.511-0.496
		c-1.087-1.062-1.109-2.8-0.048-3.889c1.061-1.087,2.803-1.103,3.888-0.05l0.479,0.467c1.095,1.051,1.131,2.792,0.081,3.887
		C43.508,217.357,42.785,217.643,42.063,217.643z M221.718,207.064c-0.598,0-1.19-0.188-1.687-0.588
		c-1.176-0.959-1.413-2.615-0.458-3.793l0.431-0.527c0.949-1.186,2.686-1.369,3.868-0.413c1.181,0.952,1.367,2.682,0.41,3.866
		l-0.321,0.396C223.402,206.693,222.557,207.064,221.718,207.064z M32.253,206.992c-0.796,0-1.586-0.344-2.129-1.01l-0.449-0.549
		c-0.952-1.184-0.767-2.912,0.416-3.867c1.178-0.957,2.913-0.768,3.867,0.416l0.422,0.521c0.961,1.172,0.789,2.905-0.387,3.869
		C33.481,206.788,32.865,206.992,32.253,206.992z M230.218,195.454c-0.503,0-1.009-0.138-1.466-0.425
		c-1.281-0.81-1.67-2.506-0.857-3.791l0.371-0.586c0.805-1.283,2.506-1.674,3.789-0.858c1.287,0.808,1.672,2.504,0.861,3.791
		l-0.37,0.585C232.021,195.001,231.132,195.454,230.218,195.454z M23.768,195.264c-0.907,0-1.795-0.449-2.32-1.271l-0.37-0.581
		c-0.818-1.275-0.443-2.979,0.837-3.796c1.285-0.813,2.982-0.44,3.799,0.838l0.368,0.58c0.818,1.276,0.444,2.978-0.836,3.797
		C24.786,195.124,24.273,195.264,23.768,195.264z M237.288,182.807c-0.399,0-0.808-0.084-1.19-0.271
		c-1.367-0.658-1.943-2.301-1.285-3.671l0.293-0.612c0.65-1.374,2.287-1.954,3.664-1.307c1.369,0.65,1.953,2.291,1.307,3.664
		l-0.309,0.639C239.294,182.232,238.312,182.807,237.288,182.807z M16.726,182.618c-1.022,0-2.005-0.575-2.479-1.558l-0.303-0.635
		c-0.65-1.373-0.065-3.012,1.307-3.662c1.371-0.649,3.012-0.068,3.663,1.305l0.289,0.607c0.659,1.37,0.083,3.014-1.287,3.672
		C17.532,182.532,17.126,182.618,16.726,182.618z M242.805,169.41c-0.293,0-0.594-0.046-0.891-0.146
		c-1.438-0.494-2.203-2.057-1.712-3.492l0.217-0.644c0.483-1.438,2.052-2.21,3.483-1.731c1.438,0.482,2.214,2.041,1.731,3.481
		l-0.229,0.671C245.02,168.689,243.948,169.41,242.805,169.41z M11.234,169.221c-1.146,0-2.215-0.722-2.604-1.867l-0.222-0.651
		c-0.488-1.438,0.283-3.001,1.721-3.488c1.436-0.489,3,0.28,3.486,1.722l0.222,0.651c0.489,1.437-0.282,2.999-1.72,3.488
		C11.825,169.174,11.526,169.221,11.234,169.221z M246.686,155.449c-0.188,0-0.384-0.018-0.578-0.062
		c-1.482-0.316-2.432-1.781-2.113-3.267l0.141-0.659c0.307-1.484,1.752-2.447,3.256-2.13c1.483,0.31,2.436,1.765,2.129,3.252
		l-0.146,0.694C249.096,154.566,247.955,155.449,246.686,155.449z M7.378,155.261c-1.269,0-2.41-0.883-2.686-2.172L4.59,152.6
		c-0.313-1.482,0.618-3.041,2.103-3.354c1.476-0.312,2.922,0.537,3.236,2.025l0.141,0.662c0.318,1.484-0.628,2.948-2.113,3.266
		C7.763,155.242,7.568,155.261,7.378,155.261z M248.875,141.135c-0.086,0-0.173-0.003-0.259-0.012
		c-1.515-0.143-2.626-1.482-2.481-2.994l0.062-0.673c0.134-1.517,1.479-2.646,2.979-2.497c1.516,0.133,2.633,1.468,2.498,2.979
		l-0.062,0.701C251.477,140.064,250.277,141.135,248.875,141.135z M5.212,140.943c-1.403,0-2.601-1.069-2.735-2.492l-0.063-0.705
		c-0.133-1.514,0.986-2.848,2.499-2.979c1.556-0.16,2.847,0.987,2.979,2.5l0.061,0.668c0.143,1.512-0.968,2.853-2.48,2.996
		C5.386,140.941,5.298,140.943,5.212,140.943z M249.357,126.662c-1.485,0-2.711-1.19-2.746-2.686l-0.019-0.672
		c-0.045-1.517,1.146-2.784,2.669-2.83c1.49,0.002,2.782,1.152,2.827,2.668l0.021,0.703c0.035,1.521-1.168,2.781-2.688,2.815
		C249.402,126.662,249.381,126.662,249.357,126.662z M4.751,126.469c-0.022,0-0.043,0-0.066,0c-1.517-0.033-2.72-1.292-2.684-2.812
		l0.019-0.705c0.045-1.517,1.32-2.611,2.829-2.669c1.519,0.045,2.712,1.313,2.667,2.83l-0.019,0.674
		C7.464,125.28,6.239,126.469,4.751,126.469z M248.152,112.238c-1.34,0-2.51-0.979-2.717-2.344l-0.1-0.688
		c-0.223-1.503,0.814-2.899,2.321-3.12c1.491-0.244,2.897,0.816,3.116,2.32l0.104,0.677c0.219,1.505-0.816,2.904-2.318,3.126
		C248.425,112.227,248.29,112.238,248.152,112.238z M5.982,112.042c-0.134,0-0.269-0.008-0.404-0.029
		c-1.502-0.221-2.541-1.617-2.32-3.121l0.102-0.688c0.225-1.503,1.628-2.523,3.124-2.315c1.502,0.224,2.539,1.624,2.316,3.127
		l-0.101,0.676C8.497,111.06,7.324,112.042,5.982,112.042z M245.251,98.053c-1.209,0-2.313-0.8-2.653-2.023l-0.183-0.674
		c-0.397-1.466,0.467-2.974,1.935-3.372c1.48-0.403,2.976,0.47,3.375,1.933l0.178,0.659c0.4,1.463-0.461,2.977-1.922,3.38
		C245.734,98.021,245.49,98.053,245.251,98.053z M8.906,97.865c-0.238,0-0.479-0.031-0.72-0.098
		c-1.467-0.397-2.333-1.906-1.935-3.372l0.184-0.675c0.401-1.466,1.903-2.315,3.379-1.924c1.465,0.403,2.325,1.917,1.924,3.379
		l-0.179,0.658C11.226,97.059,10.118,97.865,8.906,97.865z M240.675,84.315c-1.089,0-2.12-0.652-2.554-1.729l-0.251-0.613
		c-0.574-1.404,0.095-3.013,1.498-3.59c1.409-0.572,3.016,0.093,3.587,1.495l0.271,0.667c0.565,1.409-0.119,3.009-1.533,3.573
		C241.359,84.253,241.016,84.315,240.675,84.315z M13.503,84.127c-0.34,0-0.685-0.062-1.021-0.196
		c-1.41-0.564-2.096-2.165-1.531-3.575l0.271-0.668c0.577-1.401,2.181-2.07,3.588-1.495c1.404,0.577,2.074,2.186,1.497,3.59
		l-0.25,0.614C15.626,83.474,14.595,84.127,13.503,84.127z M234.5,71.224c-0.967,0-1.902-0.51-2.406-1.417l-0.332-0.601
		c-0.736-1.33-0.255-3.002,1.07-3.738c1.337-0.732,3.008-0.249,3.738,1.074l0.334,0.602c0.736,1.326,0.255,3.001-1.072,3.738
		C235.408,71.114,234.953,71.224,234.5,71.224z M19.707,71.033c-0.45,0-0.906-0.109-1.329-0.343
		c-1.328-0.736-1.811-2.409-1.075-3.738l0.328-0.593c0.727-1.332,2.397-1.823,3.731-1.096c1.332,0.728,1.823,2.398,1.094,3.732
		l-0.341,0.622C21.614,70.521,20.675,71.033,19.707,71.033z M226.729,58.913c-0.821,0-1.623-0.373-2.146-1.104l-0.396-0.547
		c-0.892-1.23-0.619-2.949,0.612-3.84c1.235-0.895,2.952-0.615,3.841,0.612l0.317,0.441c0.884,1.234,0.647,3.018-0.588,3.902
		C227.87,58.735,227.292,58.913,226.729,58.913z M27.419,58.77c-0.553,0-1.111-0.167-1.595-0.513
		c-1.237-0.881-1.522-2.599-0.641-3.834l0.416-0.578c0.888-1.228,2.606-1.509,3.84-0.612c1.23,0.891,1.504,2.61,0.612,3.839
		l-0.39,0.545C29.123,58.37,28.277,58.77,27.419,58.77z M217.738,47.675c-0.747,0-1.488-0.301-2.031-0.897l-0.455-0.497
		c-1.031-1.12-0.955-2.857,0.161-3.885c1.114-1.034,2.856-0.956,3.882,0.158l0.473,0.518c1.024,1.12,0.944,2.86-0.178,3.882
		C219.064,47.438,218.396,47.675,217.738,47.675z M36.553,47.377c-0.653,0-1.298-0.22-1.803-0.683
		c-1.121-1.022-1.281-2.671-0.258-3.792c0.002-0.002,0.167-0.182,0.167-0.182l0.292-0.322c1.022-1.125,2.757-1.206,3.884-0.191
		c1.125,1.02,1.211,2.761,0.192,3.885l-0.311,0.342C38.152,47.049,37.348,47.377,36.553,47.377z M207.391,37.546
		c-0.647,0-1.299-0.229-1.816-0.69l-0.5-0.43c-1.147-0.991-1.279-2.728-0.286-3.877c0.989-1.149,2.729-1.278,3.879-0.291
		l0.547,0.478c1.142,1.005,1.248,2.742,0.239,3.88C208.908,37.232,208.152,37.546,207.391,37.546z M46.887,37.39
		c-0.769,0-1.533-0.319-2.077-0.948c-0.996-1.146-0.874-2.881,0.273-3.877l0.549-0.473c1.161-0.978,2.893-0.838,3.875,0.325
		c0.981,1.157,0.836,2.892-0.322,3.875l-0.496,0.425C48.168,37.17,47.526,37.39,46.887,37.39z M195.926,28.695
		c-0.533,0-1.074-0.156-1.551-0.48l-0.559-0.379c-1.26-0.852-1.59-2.561-0.738-3.819c0.854-1.257,2.561-1.585,3.816-0.738
		l0.584,0.396c1.252,0.856,1.576,2.568,0.721,3.822C197.668,28.276,196.805,28.695,195.926,28.695z M58.366,28.565
		c-0.879,0-1.743-0.42-2.275-1.201c-0.854-1.255-0.531-2.966,0.726-3.821l0.589-0.397c1.263-0.845,2.969-0.507,3.814,0.756
		c0.844,1.262,0.506,2.97-0.756,3.815l-0.552,0.373C59.438,28.412,58.9,28.565,58.366,28.565z M183.497,21.256
		c-0.433,0-0.865-0.099-1.269-0.311l-0.599-0.305c-1.353-0.691-1.888-2.346-1.2-3.7c0.69-1.353,2.348-1.885,3.699-1.201l0.635,0.327
		c1.348,0.7,1.873,2.36,1.172,3.708C185.443,20.716,184.488,21.256,183.497,21.256z M70.801,21.157c-0.993,0-1.952-0.54-2.442-1.482
		c-0.702-1.347-0.176-3.007,1.172-3.707l0.624-0.322c1.351-0.698,3.008-0.159,3.701,1.191c0.694,1.351,0.16,3.008-1.19,3.702
		l-0.6,0.309C71.661,21.058,71.227,21.157,70.801,21.157z M170.271,15.344c-0.32,0-0.644-0.056-0.961-0.174l-0.646-0.242
		c-1.427-0.531-2.147-2.113-1.617-3.537c0.529-1.423,2.111-2.143,3.536-1.617l0.645,0.241c1.428,0.531,2.148,2.113,1.619,3.537
		C172.434,14.66,171.384,15.344,170.271,15.344z M84.027,15.272c-1.112,0-2.16-0.682-2.574-1.786
		c-0.534-1.422,0.188-3.006,1.608-3.541l0.653-0.243c1.417-0.531,3.005,0.192,3.536,1.617c0.53,1.422-0.193,3.006-1.616,3.536
		l-0.642,0.241C84.675,15.215,84.349,15.272,84.027,15.272z M156.436,11.046c-0.218,0-0.442-0.026-0.662-0.081l-0.649-0.158
		c-1.476-0.354-2.39-1.837-2.034-3.314c0.354-1.477,1.848-2.378,3.312-2.035l0.69,0.168c1.474,0.364,2.373,1.854,2.011,3.328
		C158.79,10.208,157.668,11.046,156.436,11.046z M97.861,11c-1.235,0-2.359-0.838-2.667-2.091C94.83,7.435,95.73,5.945,97.205,5.58
		l0.69-0.167c1.477-0.341,2.96,0.557,3.313,2.034c0.354,1.477-0.557,2.96-2.034,3.315l-0.651,0.157C98.3,10.974,98.08,11,97.861,11z
		 M142.195,8.426c-0.111,0-0.225-0.007-0.336-0.021l-0.674-0.08c-1.509-0.177-2.588-1.544-2.41-3.052
		c0.177-1.509,1.559-2.587,3.051-2.41l0.703,0.083c1.504,0.185,2.576,1.557,2.394,3.065C144.751,7.406,143.566,8.426,142.195,8.426z
		 M112.104,8.402c-1.367,0-2.552-1.021-2.725-2.412c-0.186-1.506,0.885-2.88,2.393-3.067l0.701-0.083
		c1.489-0.194,2.873,0.901,3.052,2.411c0.177,1.507-0.901,2.874-2.41,3.051l-0.669,0.081C112.333,8.395,112.218,8.402,112.104,8.402
		z M127.741,7.501c-0.005,0-0.011,0-0.017,0L127.053,7.5l-0.494,0.001c-1.52,0-2.75-1.23-2.75-2.75c0-1.519,1.23-2.75,2.75-2.75
		L127.029,2l0.729,0.001c1.518,0.009,2.741,1.247,2.733,2.766C130.484,6.28,129.254,7.501,127.741,7.501z"/>
	<path d="M177.843,72.171H78.268c-3.931,0-7.112,3.185-7.112,7.112v99.575c0,3.932,3.181,7.112,7.112,7.112h99.575
		c3.931,0,7.112-3.181,7.112-7.112V79.283C184.955,75.355,181.773,72.171,177.843,72.171z M167.174,171.746h-60.456v3.556
		c0,1.966-1.59,3.557-3.556,3.557s-3.556-1.591-3.556-3.557v-3.556H88.937c-1.966,0-3.556-1.591-3.556-3.557
		c0-1.965,1.59-3.556,3.556-3.556h10.669v-3.557c0-1.966,1.59-3.556,3.556-3.556s3.556,1.59,3.556,3.556v3.557h60.456
		c1.966,0,3.557,1.591,3.557,3.556C170.73,170.155,169.14,171.746,167.174,171.746z M177.843,150.408H78.268V79.283h99.575V150.408z
		 M150.33,111.317c3.396,1.941,3.396,5.116,0,7.057l-37.438,21.393c-3.396,1.938-6.175,0.326-6.175-3.584V93.508
		c0-3.91,2.778-5.525,6.175-3.584L150.33,111.317z"/>
</g>
</svg>
