<?xml version="1.0" encoding="utf-8"?>
<!-- Generator: Adobe Illustrator 18.1.1, SVG Export Plug-In . SVG Version: 6.00 Build 0)  -->
<svg version="1.1" id="Calque_1" xmlns="http://www.w3.org/2000/svg" xmlns:xlink="http://www.w3.org/1999/xlink" x="0px" y="0px"
	 viewBox="0 0 460 158" enable-background="new 0 0 460 158" xml:space="preserve">
<g>
	<defs>
		<text id="SVGID_1_" transform="matrix(1 0 0 1 65.0115 98.5649)" font-family="'BrandonGrotesque-Bold'" font-size="42">les avantages</text>
	</defs>
	<clipPath id="SVGID_2_">
		<use xlink:href="#SVGID_1_"  overflow="visible"/>
	</clipPath>
	<g clip-path="url(#SVGID_2_)">
		<path fill="#14ABD9" d="M422,229.2c0-54.6-92.9-98.9-207.4-98.9c-114.5,0-207.4,44.3-207.4,98.9c0,54.6,92.9,98.8,207.4,98.8
			C329.1,328,422,283.7,422,229.2"/>
		<path opacity="0.6" fill="#0050A0" d="M74.1,391.7c44.4,30.6,132.3-19.4,196.2-111.7c64-92.3,79.8-191.8,35.4-222.4
			c-44.4-30.6-130.1,16.8-194,109.1C47.8,259.1,29.7,361.2,74.1,391.7"/>
		<linearGradient id="SVGID_3_" gradientUnits="userSpaceOnUse" x1="226.2999" y1="301.3334" x2="507.6528" y2="2.1167">
			<stop  offset="0" style="stop-color:#0050A0"/>
			<stop  offset="3.240114e-02" style="stop-color:#005AA7"/>
			<stop  offset="0.1147" style="stop-color:#0070B6"/>
			<stop  offset="0.2047" style="stop-color:#0082C2"/>
			<stop  offset="0.3028" style="stop-color:#0092CB"/>
			<stop  offset="0.4122" style="stop-color:#009DD2"/>
			<stop  offset="0.5389" style="stop-color:#01A5D6"/>
			<stop  offset="0.6988" style="stop-color:#11AAD9"/>
			<stop  offset="1" style="stop-color:#14ABD9"/>
		</linearGradient>
		<path fill="url(#SVGID_3_)" d="M399.3,409.3c-44.7,30.7-133-19.5-197.3-112.3c-64.3-92.8-80.3-192.9-35.6-223.6
			C211,42.6,297.1,90.2,361.4,183.1C425.7,275.9,443.9,378.5,399.3,409.3"/>
	</g>
</g>
</svg>
