<?xml version="1.0" encoding="utf-8"?>
<!-- Generator: Adobe Illustrator 16.0.0, SVG Export Plug-In . SVG Version: 6.00 Build 0)  -->
<!DOCTYPE svg PUBLIC "-//W3C//DTD SVG 1.1//EN" "http://www.w3.org/Graphics/SVG/1.1/DTD/svg11.dtd">
<svg version="1.1" id="Layer_1" xmlns="http://www.w3.org/2000/svg" xmlns:xlink="http://www.w3.org/1999/xlink" x="0px" y="0px"
	 width="1000px" height="1000px" viewBox="0 0 1000 1000" enable-background="new 0 0 1000 1000" xml:space="preserve">
<rect x="-252.987" y="494.578" transform="matrix(-0.7071 0.7071 -0.7071 -0.7071 1234.4197 488.685)" fill="#E9E9E9" width="1537.974" height="10.844"/>
<rect x="-287.987" y="494.578" transform="matrix(-0.7071 0.7071 -0.7071 -0.7071 1174.671 513.4337)" fill="#E9E9E9" width="1537.974" height="10.844"/>
<rect x="-322.987" y="494.578" transform="matrix(-0.7071 0.7071 -0.7071 -0.7071 1114.9222 538.1825)" fill="#E9E9E9" width="1537.974" height="10.844"/>
<rect x="-357.987" y="494.578" transform="matrix(-0.7071 0.7071 -0.7071 -0.7071 1055.1736 562.9313)" fill="#E9E9E9" width="1537.974" height="10.844"/>
<rect x="-393.987" y="494.578" transform="matrix(-0.7071 0.7071 -0.7071 -0.7071 993.7178 588.3871)" fill="#E9E9E9" width="1537.974" height="10.844"/>
<rect x="-428.987" y="494.578" transform="matrix(-0.7071 0.7071 -0.7071 -0.7071 933.9691 613.1359)" fill="#E9E9E9" width="1537.974" height="10.844"/>
<rect x="-463.987" y="494.578" transform="matrix(-0.7071 0.7071 -0.7071 -0.7071 874.2203 637.8846)" fill="#E9E9E9" width="1537.974" height="10.844"/>
<rect x="-498.987" y="494.578" transform="matrix(-0.7071 0.7071 -0.7071 -0.7071 814.4716 662.6334)" fill="#E9E9E9" width="1537.974" height="10.844"/>
<rect x="-524.987" y="482.578" transform="matrix(-0.7071 0.7071 -0.7071 -0.7071 761.6016 660.5329)" fill="#E9E9E9" width="1537.974" height="10.844"/>
<rect x="-559.987" y="482.578" transform="matrix(-0.7071 0.7071 -0.7071 -0.7071 701.8528 685.2817)" fill="#E9E9E9" width="1537.974" height="10.844"/>
<rect x="-594.987" y="482.578" transform="matrix(-0.7071 0.7071 -0.7071 -0.7071 642.1041 710.0304)" fill="#E9E9E9" width="1537.974" height="10.844"/>
<rect x="-629.987" y="482.578" transform="matrix(-0.7071 0.7071 -0.7071 -0.7071 582.3554 734.7792)" fill="#E9E9E9" width="1537.974" height="10.844"/>
<rect x="-665.987" y="482.578" transform="matrix(-0.7071 0.7071 -0.7071 -0.7071 520.8996 760.235)" fill="#E9E9E9" width="1537.974" height="10.844"/>
<rect x="-700.987" y="482.578" transform="matrix(-0.7071 0.7071 -0.7071 -0.7071 461.1509 784.9838)" fill="#E9E9E9" width="1537.974" height="10.844"/>
<rect x="-735.987" y="482.578" transform="matrix(-0.7071 0.7071 -0.7071 -0.7071 401.4022 809.7325)" fill="#E9E9E9" width="1537.974" height="10.844"/>
<rect x="-770.987" y="482.578" transform="matrix(-0.7071 0.7071 -0.7071 -0.7071 341.6534 834.4813)" fill="#E9E9E9" width="1537.974" height="10.844"/>
<rect x="-705.634" y="380.892" transform="matrix(-0.7071 0.7071 -0.7071 -0.7071 381.3166 614.6813)" fill="#E9E9E9" width="1537.975" height="10.843"/>
<rect x="-741.634" y="380.892" transform="matrix(-0.7071 0.7071 -0.7071 -0.7071 319.8608 640.1371)" fill="#E9E9E9" width="1537.975" height="10.843"/>
<rect x="-776.634" y="380.892" transform="matrix(-0.7071 0.7071 -0.7071 -0.7071 260.1121 664.8859)" fill="#E9E9E9" width="1537.975" height="10.843"/>
<rect x="-811.634" y="380.892" transform="matrix(-0.7071 0.7071 -0.7071 -0.7071 200.3634 689.6346)" fill="#E9E9E9" width="1537.974" height="10.843"/>
<rect x="-846.633" y="380.892" transform="matrix(-0.7071 0.7071 -0.7071 -0.7071 140.6151 714.3832)" fill="#E9E9E9" width="1537.974" height="10.844"/>
<rect x="-872.633" y="368.892" transform="matrix(-0.7071 0.7071 -0.7071 -0.7071 87.7451 712.2827)" fill="#E9E9E9" width="1537.974" height="10.844"/>
<rect x="-907.633" y="368.892" transform="matrix(-0.7071 0.7071 -0.7071 -0.7071 27.9963 737.0314)" fill="#E9E9E9" width="1537.974" height="10.844"/>
<rect x="-942.633" y="368.892" transform="matrix(-0.7071 0.7071 -0.7071 -0.7071 -31.7524 761.7802)" fill="#E9E9E9" width="1537.974" height="10.844"/>
<rect x="-977.633" y="368.892" transform="matrix(-0.7071 0.7071 -0.7071 -0.7071 -91.5011 786.5289)" fill="#E9E9E9" width="1537.974" height="10.844"/>
<rect x="-1013.633" y="368.892" transform="matrix(-0.7071 0.7071 -0.7071 -0.7071 -152.9569 811.9849)" fill="#E9E9E9" width="1537.974" height="10.844"/>
<rect x="-1048.634" y="368.892" transform="matrix(-0.7071 0.7071 -0.7071 -0.7071 -212.7056 836.7336)" fill="#E9E9E9" width="1537.974" height="10.844"/>
<rect x="-1083.634" y="368.892" transform="matrix(-0.7071 0.7071 -0.7071 -0.7071 -272.4543 861.4824)" fill="#E9E9E9" width="1537.974" height="10.844"/>
<rect x="-1118.634" y="368.892" transform="matrix(-0.7071 0.7071 -0.7071 -0.7071 -332.2031 886.2311)" fill="#E9E9E9" width="1537.974" height="10.844"/>
<rect x="255.012" y="554.168" transform="matrix(-0.7071 0.7071 -0.7071 -0.7071 2143.7666 231.2016)" fill="#E9E9E9" width="1537.975" height="10.844"/>
<rect x="220.012" y="554.168" transform="matrix(-0.7071 0.7071 -0.7071 -0.7071 2084.0176 255.9503)" fill="#E9E9E9" width="1537.975" height="10.844"/>
<rect x="185.012" y="554.168" transform="matrix(-0.7071 0.7071 -0.7071 -0.7071 2024.269 280.6991)" fill="#E9E9E9" width="1537.975" height="10.844"/>
<rect x="150.012" y="554.168" transform="matrix(-0.7071 0.7071 -0.7071 -0.7071 1964.5204 305.4478)" fill="#E9E9E9" width="1537.975" height="10.844"/>
<rect x="114.012" y="554.168" transform="matrix(-0.7071 0.7071 -0.7071 -0.7071 1903.0646 330.9037)" fill="#E9E9E9" width="1537.975" height="10.844"/>
<rect x="79.012" y="554.168" transform="matrix(-0.7071 0.7071 -0.7071 -0.7071 1843.3158 355.6525)" fill="#E9E9E9" width="1537.975" height="10.844"/>
<rect x="44.012" y="554.168" transform="matrix(-0.7071 0.7071 -0.7071 -0.7071 1783.5671 380.4013)" fill="#E9E9E9" width="1537.975" height="10.844"/>
<rect x="9.012" y="554.168" transform="matrix(-0.7071 0.7071 -0.7071 -0.7071 1723.8184 405.1501)" fill="#E9E9E9" width="1537.975" height="10.844"/>
<rect x="-16.988" y="542.168" transform="matrix(-0.7071 0.7071 -0.7071 -0.7071 1670.9484 403.0495)" fill="#E9E9E9" width="1537.975" height="10.844"/>
<rect x="-51.988" y="542.168" transform="matrix(-0.7071 0.7071 -0.7071 -0.7071 1611.1997 427.7983)" fill="#E9E9E9" width="1537.975" height="10.844"/>
<rect x="-86.988" y="542.168" transform="matrix(-0.7071 0.7071 -0.7071 -0.7071 1551.4509 452.5471)" fill="#E9E9E9" width="1537.975" height="10.844"/>
<rect x="347.013" y="854.707" transform="matrix(-0.7071 0.7071 -0.7071 -0.7071 2513.334 679.1992)" fill="#E9E9E9" width="1537.974" height="10.844"/>
<rect x="312.013" y="854.707" transform="matrix(-0.7071 0.7071 -0.7071 -0.7071 2453.5854 703.9479)" fill="#E9E9E9" width="1537.974" height="10.844"/>
<rect x="277.012" y="854.707" transform="matrix(-0.7071 0.7071 -0.7071 -0.7071 2393.8362 728.6972)" fill="#E9E9E9" width="1537.975" height="10.844"/>
<rect x="242.012" y="854.707" transform="matrix(-0.7071 0.7071 -0.7071 -0.7071 2334.0874 753.446)" fill="#E9E9E9" width="1537.975" height="10.844"/>
<rect x="206.012" y="854.707" transform="matrix(-0.7071 0.7071 -0.7071 -0.7071 2272.6318 778.9019)" fill="#E9E9E9" width="1537.975" height="10.844"/>
<rect x="171.012" y="854.707" transform="matrix(-0.7071 0.7071 -0.7071 -0.7071 2212.8831 803.6506)" fill="#E9E9E9" width="1537.975" height="10.844"/>
<rect x="136.012" y="854.707" transform="matrix(-0.7071 0.7071 -0.7071 -0.7071 2153.1343 828.3994)" fill="#E9E9E9" width="1537.975" height="10.844"/>
<rect x="101.012" y="854.707" transform="matrix(-0.7071 0.7071 -0.7071 -0.7071 2093.3857 853.1481)" fill="#E9E9E9" width="1537.975" height="10.844"/>
<rect x="75.012" y="842.707" transform="matrix(-0.7071 0.7071 -0.7071 -0.7071 2040.5156 851.0477)" fill="#E9E9E9" width="1537.975" height="10.844"/>
<rect x="40.012" y="842.707" transform="matrix(-0.7071 0.7071 -0.7071 -0.7071 1980.7668 875.7964)" fill="#E9E9E9" width="1537.975" height="10.844"/>
<rect x="5.012" y="842.707" transform="matrix(-0.7071 0.7071 -0.7071 -0.7071 1921.0181 900.5452)" fill="#E9E9E9" width="1537.975" height="10.844"/>
<rect x="-121.988" y="542.168" transform="matrix(-0.7071 0.7071 -0.7071 -0.7071 1491.7023 477.2958)" fill="#E9E9E9" width="1537.975" height="10.844"/>
<rect x="-157.988" y="542.168" transform="matrix(-0.7071 0.7071 -0.7071 -0.7071 1430.2465 502.7517)" fill="#E9E9E9" width="1537.975" height="10.844"/>
<rect x="-192.988" y="542.168" transform="matrix(-0.7071 0.7071 -0.7071 -0.7071 1370.4977 527.5005)" fill="#E9E9E9" width="1537.975" height="10.844"/>
<rect x="-227.988" y="542.168" transform="matrix(-0.7071 0.7071 -0.7071 -0.7071 1310.749 552.2493)" fill="#E9E9E9" width="1537.975" height="10.844"/>
<rect x="-262.988" y="542.168" transform="matrix(-0.7071 0.7071 -0.7071 -0.7071 1251.0002 576.998)" fill="#E9E9E9" width="1537.975" height="10.844"/>
</svg>
