<?xml version="1.0" encoding="UTF-8" standalone="no"?>
<svg width="42px" height="35px" viewBox="0 0 42 35" version="1.1" xmlns="http://www.w3.org/2000/svg" xmlns:xlink="http://www.w3.org/1999/xlink" xmlns:sketch="http://www.bohemiancoding.com/sketch/ns">
    <!-- Generator: Sketch 3.1.1 (8761) - http://www.bohemiancoding.com/sketch -->
    <title>icon-dual_sim@1x</title>
    <desc></desc>
    <defs></defs>
    <g id="Page-1" stroke="none" stroke-width="1"  fill-rule="evenodd" >
        <g id="icon-dual_sim"  transform="translate(0.000000, 1.000000)">
            <path d="M32.736,24.92 L33.876,24.508 C35.414,23.951 36.215,22.244 35.656,20.705 L35.227,19.521 L31.296,20.947 L32.736,24.92" id="Fill-2" ></path>
            <path d="M32.088,25.156 L32.163,25.129 L32.15,25.094 L32.149,25.095 L32.089,25.155 L32.088,25.156" id="Fill-3" ></path>
            <path d="M33.069,13.57 C32.51,12.029 30.803,11.232 29.264,11.789 L28.168,12.188 L29.61,16.164 L33.498,14.754 L33.069,13.57" id="Fill-4" ></path>
            <path d="M41.576,24.727 L34.808,5.938 C34.537,5.19 33.78,4.307 33.084,3.926 L26.921,0.569 L25.669,-0.113 C25.566,-0.169 25.453,-0.218 25.334,-0.262 C25.33,-0.263 25.327,-0.265 25.324,-0.267 C24.952,-0.4 24.511,-0.477 24.062,-0.477 C23.713,-0.477 23.394,-0.424 23.118,-0.336 C23.091,-0.327 23.057,-0.324 23.03,-0.314 L17.735,1.593 L15.857,0.57 L15.858,0.569 L14.605,-0.113 C14.182,-0.342 13.596,-0.477 12.998,-0.477 C12.659,-0.477 12.346,-0.425 12.074,-0.341 C12.04,-0.331 11.999,-0.326 11.967,-0.314 L1.48,3.463 C1.281,3.534 1.102,3.644 0.945,3.779 C0.765,3.935 0.614,4.126 0.509,4.35 C0.475,4.422 0.453,4.497 0.43,4.572 C0.36,4.791 0.336,5.018 0.358,5.244 C0.371,5.386 0.397,5.526 0.445,5.664 L3.178,13.25 L3.179,13.249 L9.977,32.123 C10.223,32.803 10.873,33.26 11.598,33.26 C11.796,33.26 11.991,33.225 12.178,33.158 L20.353,30.213 L21.041,32.123 C21.285,32.803 21.936,33.26 22.662,33.26 C22.859,33.26 23.055,33.225 23.24,33.158 L40.541,26.926 C41.433,26.606 41.896,25.617 41.576,24.727 L41.576,24.727 Z M22.662,32.281 C22.348,32.281 22.065,32.084 21.959,31.791 L21.271,29.882 L29.477,26.926 C30.041,26.723 30.433,26.253 30.563,25.709 L32.089,25.155 L32.149,25.095 L30.721,21.154 L29.398,21.634 L29.224,21.15 L35.052,19.037 L33.675,15.24 L29.455,16.769 C29.447,16.773 29.439,16.773 29.431,16.777 L27.854,17.349 L27.679,16.861 L29.037,16.369 L27.596,12.394 L26.246,12.884 L23.744,5.938 C23.475,5.19 22.717,4.307 22.02,3.926 L18.884,2.219 L23.362,0.606 C23.43,0.58 23.514,0.565 23.596,0.549 C23.738,0.522 23.893,0.502 24.062,0.502 C24.488,0.502 24.926,0.596 25.201,0.746 L32.615,4.783 C33.104,5.051 33.699,5.744 33.888,6.268 L40.656,25.057 C40.795,25.441 40.594,25.869 40.209,26.008 L22.91,32.238 C22.83,32.268 22.746,32.281 22.662,32.281 L22.662,32.281 Z M1.365,5.332 C1.299,5.147 1.309,4.945 1.395,4.766 C1.478,4.586 1.627,4.449 1.812,4.383 L12.298,0.606 C12.369,0.579 12.456,0.563 12.544,0.546 C12.684,0.521 12.834,0.502 12.998,0.502 C13.426,0.502 13.862,0.596 14.139,0.746 L21.553,4.783 C22.041,5.051 22.637,5.744 22.824,6.268 L29.594,25.057 C29.73,25.441 29.531,25.869 29.146,26.008 L11.846,32.238 C11.766,32.268 11.682,32.281 11.598,32.281 C11.284,32.281 11.002,32.084 10.897,31.791 L1.365,5.332 L1.365,5.332 Z" id="Fill-5" ></path>
            <path d="M17.973,16.369 L16.532,12.394 L12.645,13.805 L14.086,17.779 L17.973,16.369" id="Fill-7" ></path>
            <path d="M15.678,27.096 L16.727,26.715 L15.286,22.74 L11.443,24.133 L11.444,24.135 L12.519,23.744 L11.627,24.638 L11.873,25.316 C12.432,26.857 14.137,27.654 15.678,27.096" id="Fill-8" ></path>
            <path d="M11.444,24.135 L11.443,24.135 L11.626,24.638 L11.627,24.638 L12.519,23.744 L11.444,24.135" id="Fill-9" ></path>
            <path d="M24.164,19.521 L20.232,20.947 L21.674,24.92 L22.812,24.508 C24.351,23.951 25.151,22.244 24.593,20.705 L24.164,19.521" id="Fill-10" ></path>
            <path d="M21.025,25.155 L21.086,25.094 L19.658,21.154 L15.906,22.516 L17.347,26.49 L21.025,25.155" id="Fill-11" ></path>
            <path d="M21.025,25.155 L21.024,25.156 L21.1,25.129 L21.086,25.094 L21.025,25.155" id="Fill-12" ></path>
            <path d="M22.006,13.57 C21.447,12.029 19.738,11.232 18.199,11.789 L17.104,12.188 L18.547,16.164 L22.435,14.754 L22.006,13.57" id="Fill-13" ></path>
            <path d="M23.988,19.037 L22.611,15.24 L18.393,16.769 C18.385,16.773 18.377,16.773 18.367,16.777 L14.02,18.354 C13.887,18.402 13.737,18.334 13.688,18.199 L12.159,13.981 L11.065,14.377 C9.718,14.866 8.937,16.233 9.138,17.6 C9.167,17.794 9.215,17.989 9.285,18.182 L11.268,23.648 L23.988,19.037" id="Fill-14" ></path>
        </g>
    </g>
</svg>