<?xml version="1.0" encoding="utf-8"?>
<!-- Generator: Adobe Illustrator 15.0.0, SVG Export Plug-In . SVG Version: 6.00 Build 0)  -->
<!DOCTYPE svg PUBLIC "-//W3C//DTD SVG 1.1//EN" "http://www.w3.org/Graphics/SVG/1.1/DTD/svg11.dtd">
<svg version="1.1" id="Layer_1" xmlns="http://www.w3.org/2000/svg" xmlns:xlink="http://www.w3.org/1999/xlink" x="0px" y="0px"
	 width="26px" height="26px" viewBox="0 0 26 26" enable-background="new 0 0 26 26" xml:space="preserve">
<g>
	<circle cx="13.628" cy="18.388" r="2.426"/>
	<path d="M19.426,12.543c-0.036-0.037-0.074-0.07-0.111-0.104l-0.109-0.103c-0.018-0.019-0.038-0.033-0.061-0.051
		c-3.137-2.85-7.938-2.737-10.932,0.257l-0.351,0.352L7.376,13.38c-0.592,0.592-0.589,1.557,0.004,2.15
		c0.594,0.595,1.559,0.596,2.15,0.004l0.838-0.838c1.904-1.903,5.001-1.903,6.904-0.001l0.605,0.586
		c0.586,0.586,1.542,0.585,2.131-0.005c0.285-0.284,0.442-0.663,0.443-1.066c0.001-0.401-0.154-0.78-0.439-1.063L19.426,12.543z"/>
	<path d="M23.559,9.544l-0.504-0.504c-0.002-0.002-0.003-0.005-0.007-0.006l-0.398-0.4c-0.07-0.069-0.146-0.129-0.226-0.181
		C17.311,3.964,9.534,4.102,4.584,8.864C4.56,8.886,4.533,8.901,4.509,8.925l-0.91,0.911c-0.54,0.539-0.537,1.416,0.006,1.959
		c0.542,0.542,1.419,0.546,1.959,0.005l0.91-0.909c0.006-0.008,0.011-0.015,0.017-0.02c4.003-3.867,10.353-3.891,14.388-0.079
		l0.716,0.717c0.539,0.539,1.418,0.537,1.96-0.005C24.096,10.961,24.098,10.083,23.559,9.544z"/>
</g>
</svg>
