<?xml version="1.0" encoding="UTF-8" standalone="no"?>
<svg width="30px" height="32px" viewBox="0 0 30 32" version="1.1" xmlns="http://www.w3.org/2000/svg" xmlns:xlink="http://www.w3.org/1999/xlink" xmlns:sketch="http://www.bohemiancoding.com/sketch/ns">
    <!-- Generator: Sketch 3.1.1 (8761) - http://www.bohemiancoding.com/sketch -->
    <title>icon-accessoires@1x</title>
    <desc></desc>
    <defs></defs>
    <g id="Page-1" stroke="none" stroke-width="1"  fill-rule="evenodd" >
        <path d="M29.586091,13.5130178 C29.6802392,12.6547321 29.6515355,12.0650178 29.5447577,11.1793035 C28.6847947,4.09473207 21.394054,-0.854982221 13.2582762,0.123303494 C5.12135029,1.10044635 -0.776686743,7.63758921 0.0832762196,14.7210178 C0.165942886,15.4055892 0.309461405,16.0707321 0.509239183,16.7130178 L0.725091034,16.6467321 L3.1614614,21.8170178 C3.02483178,22.1781606 2.91001696,22.5541606 2.97890585,22.6570178 C3.12127622,22.8718749 6.58983178,30.3450178 7.23394289,30.5575892 C7.58068363,30.6741606 8.28449844,30.3553035 8.8654614,30.0364464 L9.20990585,30.6993035 C9.30635029,30.8844464 10.7415355,31.1461606 10.9298318,31.0501606 L12.7542392,30.2010178 C12.9436836,30.1038749 13.481017,29.5038749 13.2479429,29.0067321 C13.2479429,29.0067321 12.1193133,26.7461606 10.8437207,24.0455892 C9.57042437,21.3438749 8.00779474,18.8604464 8.00779474,18.8604464 C7.68631326,18.5415892 7.04335029,18.8958749 6.855054,18.9907321 L4.95601696,19.8798749 C4.80790585,19.9564464 4.61731326,20.7187321 4.57712807,21.2958749 L3.96172066,21.1621606 L1.69757252,16.3518749 L2.27968363,16.1770178 C2.11664659,15.6364464 1.99723918,15.0741606 1.92720215,14.4981606 C1.17631326,8.30158921 6.33494289,2.58616064 13.4534614,1.73016064 C20.5696836,0.875303494 26.9476466,5.20558921 27.7008318,11.4010178 C27.7834984,12.0890178 27.749054,13.2638749 27.749054,13.2638749 L28.3644614,13.3495892 L27.8673133,17.6044464 L27.4884244,17.8650178 C27.2335355,17.3461606 26.7685355,16.7118749 26.602054,16.6958749 L24.5055355,16.5884464 C24.2942762,16.5701606 23.564054,16.4833035 23.3883873,16.8993035 C23.3883873,16.8993035 22.8843503,19.7861606 22.7304984,22.7678749 C22.5743503,25.7484464 22.386054,28.2638749 22.386054,28.2638749 C22.3596466,28.8135892 23.0864244,29.1655892 23.2942392,29.1838749 L25.3092392,29.2855892 C25.5204984,29.3027321 26.7513133,28.5221606 26.7708318,28.3130178 L26.8351281,27.5724464 C27.4941651,27.6478749 28.268017,27.6764464 28.547017,27.4398749 C29.0602392,27.0010178 29.4345355,18.7770178 29.485054,18.5244464 C29.5126096,18.3838749 29.1762021,17.9964464 28.8719429,17.6810178 L29.3622021,13.4833035 L29.586091,13.5130178" id="icon-accessoires" ></path>
    </g>
</svg>