<svg xmlns="http://www.w3.org/2000/svg" xmlns:xlink="http://www.w3.org/1999/xlink" id="svg-bonus-sensation" style="width: 0; height: 0;">
	<g id="svg-13007" data-svg-name="svg-studio-plus" viewBox="0 0 612 792">
		<path d="M511.9,338.088h30.849V372h39.097l-0.039,30.803h-38.752v41.54h-30.926v-41.54
			H472V372H511.9V338.088z"/>
		<path d="M457.837,365.539c-15.332-35.278-65.763-39.365-90.716-10.995
			c0.611-5.702,1.222-11.404,1.832-17.105c-12.316,0-24.639,0-36.958,0c-1.017,8.45-2.036,16.902-3.054,25.352
			c-0.101,0-0.203,0-0.305,0c-7.577-15.232-17.504-25.541-46.521-25.541l-57.635,0.189c-2.342,17.816-4.684,35.637-7.025,53.452
			c-1.446,7.739-0.627,18.021-6.108,19.242c-2.376-0.009-3.305-0.414-4.887-0.916c-3.758-2.479,0.306-21.38,0.306-21.38
			c1.934-16.797,3.869-33.6,5.803-50.398c-34.409,0-68.829,0-103.238,0c-0.407,3.359-0.814,6.72-1.222,10.08
			c-0.102,0-0.204,0-0.306,0c-4.561-4.693-10.041-9.377-19.851-11.34c-26.564-5.315-50.529,20.013-42.153,45.854
			c1.904,5.875,5.327,10.254,9.164,13.745l-23.119,13.63c12.409,42.571,44.289,41.044,62.234,31.88
			c13.863-7.078,20.72-27.905,14.031-44.86c-1.902-4.822-9.469-13.478-9.469-13.478l10.996-9.469h14.967
			c0,0-6.274,47.65-9.125,71.473c12.216,0,25.01,0,37.226,0c2.952-23.618,5.905-47.816,8.857-71.435l10.079-0.038l-3.823,30.771
			c-1.196,25.01,15.277,37.607,30.481,41.254c23.891,5.73,38.846-7.402,44.204-13.688c-0.509,4.378-1.019,8.757-1.527,13.135
			l41.661,0.023c21.051,0.129,34.034-12.852,38.364-18.006c-0.713,5.701-1.425,11.976-2.138,17.677c0,0.102,0,0.204,0,0.306h36.652
			c1.12-8.756,2.239-17.512,3.36-26.268c1.526,2.442,3.054,4.887,4.581,7.33c4.863,6.673,11.889,12.168,19.892,15.615
			c31.01,13.356,60.843-1.58,72.655-23.861c3.588-6.766,5.229-14.605,6.721-23.52C464.614,382.958,460.846,372.462,457.837,365.539z
			 M93.143,378.368c-3.074-2.75-4.745-16.199-14.661-13.439c-5.21,1.72-5.401,9.737-2.138,11.912
			c4.377,2.443,8.756,4.887,13.134,7.331c8.802,5.958,19.854,19.321,12.523,37.568c-10.589,26.364-52.019,24.132-61.394-8.552
			c6.108-3.664,12.218-7.33,18.326-10.996c3.266,8.937,6.889,15.56,12.624,15.738c8.396,0.262,11.491-7.16,9.063-12.988
			c-3.149-7.561-22.268-9.592-27.795-25.047c-5.898-16.494,5.636-31.072,14.886-34.631c18.35-7.062,35.149,1.337,41.62,18.749
			L93.143,378.368z M225.703,436.096c-18.038,9.201-48.201-0.726-50.397-23.52c-1.437-14.896,4.849-46.426,4.849-46.426
			c-8.145,0-16.864,0-25.008,0c-2.953,23.821-5.905,47.65-8.858,71.473c-7.431,0-14.865,0-22.296,0
			c2.953-23.822,5.906-47.651,8.857-71.473c-6.617,0-13.236,0-19.854,0c0.814-7.126,1.629-14.255,2.444-21.381
			c29.726,0,59.462,0,89.188,0c-2.138,17.306-4.277,34.618-6.415,51.924c-1.75,10.346-0.076,18.953,8.553,20.77
			c5.863,1.235,11.353-1.769,13.439-4.581c3.999-5.39,3.448-13.904,4.888-21.991c1.934-15.372,3.869-30.75,5.803-46.121
			c7.431,0,14.865,0,22.297,0l-7.715,60.475C244.127,416.844,239.158,429.231,225.703,436.096z M284.679,437.841l-35.457,0.087
			c3.766-31.051,7.534-62.108,11.301-93.158l29.398,0.076c27.702,0.992,37.72,27.109,37.531,42.112
			C327.109,414.18,311.159,435.949,284.679,437.841z M349.406,437.623l-22.299,0.305l11.303-93.158h22.297
			C356.94,375.717,349.406,437.623,349.406,437.623z M451.422,410.438c-6.854,16.282-20.318,26.868-40.585,29.017
			c-37.089,3.933-59.531-32.186-47.076-65.975c5.406-14.662,20.104-28.711,42.15-30.543
			C444.191,340.301,465.762,376.381,451.422,410.438z"/>
		<path d="M408.886,364.736c-32.465,0-37.811,53.033-0.568,53.033
			C438.273,417.77,444.381,364.736,408.886,364.736z M405.301,410.438c-21.945-2.253-19.336-36.958,3.36-38.485
			C435.601,371.953,428.728,412.844,405.301,410.438z"/>
		<path d="M300.231,371.648c-4.37-6.73-20.159-5.498-20.159-5.498l-6.109,50.092
			c0,0,12.354,1.697,19.281-3.055c6.636-4.553,10.254-10.271,11.775-21.049C306.035,384.937,303.993,377.444,300.231,371.648z
			 M291.068,406.162c-2.247,1.798-5.212,1.917-8.553,2.75c1.324-11.811,2.647-23.622,3.971-35.432
			c2.138,0.407,4.277,0.814,6.415,1.222C301.87,380.291,297.167,401.278,291.068,406.162z"/>
	</g>
	<g id="svg-13008" data-svg-name="svg-equipe" viewBox="0 0 612 792">
		<g fill="#E42829">
			<path d="M164.047,340.662c6.289,0,12.579,0,18.867,0
				c-0.898,2.396-1.797,4.792-2.695,7.188h25.156l-5.391,15.273h-28.75c-2.695,6.588-5.391,13.178-8.086,19.766H191l-5.988,14.825
				l-28.451,0.149c0,0-5.97,13.813-10.483,23.659h28.75c0,0.299-6.289,15.273-6.289,15.273h-59.297
				c0-0.3,20.965-49.417,31.445-73.672c-2.995,0-5.99,0-8.984,0c1.797-5.09,4.492-10.183,6.289-15.273c8.085,0,15.274,0,23.359,0
				C162.25,345.454,163.149,343.058,164.047,340.662z"/>
			<path d="M46.352,346.951h42.227c0,0.3-21.863,50.015-32.344,74.571
				h27.852l-6.289,15.273H18.5c10.48-24.854,20.965-49.716,31.445-74.571h-9.883L46.352,346.951z"/>
			<path d="M96.664,346.951h29.648
				c-5.697,17.987-14.052,31.717-34.141,35.039l8.086-18.867h-9.883C90.375,362.823,96.664,346.951,96.664,346.951z"/>
			<path d="M304.203,346.951c13.176,0,26.355,0,39.531,0
				c0,4.835-28.75,65.586-28.75,65.586s-1.219,4.643,3.123,7.188c4.137,2.793,11.701,2.92,15.744-0.898
				c4.941,0,31.445-71.875,31.445-71.875c5.688,0,11.382,0,17.07,0c-4.492,10.481-25.381,59.598-29.873,70.079
				c0,0-7.637,19.766-33.916,19.766c-11.014,0-19.028-1.494-25.156-6.289c-17.688-13.842,10.574-52.979,14.375-68.282
				c-8.984,0-9.883,0.3-9.883,0C300.01,357.433,302.107,351.742,304.203,346.951z"/>
			<path d="M524.321,346.951c23.057,0,46.122,0,69.18,0
				c0,0.3-4.193,11.082-6.289,16.172h-29.648c-2.695,6.588-5.391,13.178-8.086,19.766c0,0,29.498,0,28.75,0
				c-1.797,4.492-3.594,9.883-5.391,14.375c-10.181,0-20.366,0-30.547,0c-3.294,8.384-6.589,16.771-9.883,25.156h28.75
				c-1.797,4.192-3.594,9.285-5.391,13.477c-19.764,0-39.533,0-59.297,0c0-0.3,30.547-72.774,30.547-72.774h-8.984
				C518.031,362.224,524.321,346.951,524.321,346.951z"/>
			<path d="M391.352,347.849c13.176,0,26.355,0,39.531,0
				c-12.876,29.646-25.757,59.299-38.633,88.946c-9.882,0-19.767,0-29.648,0c10.181-24.256,21.265-49.417,31.445-73.672h-8.984
				C387.158,358.032,389.256,352.939,391.352,347.849z"/>
			<path d="M253.802,347.517c-1.535,0-6.177,0.004-7.816,0.062
				c-26.953-0.062-39.914,26.506-44.204,35.309c-19.047,39.083,9.614,54.719,18.418,54.74l17.07,0.069l1.347,3.135h15.034
				l-4.252-6.732C281.967,429.271,312.379,347.517,253.802,347.517z M240.27,418.938c-0.898-1.498-3.189-5.495-4.087-6.991
				c0.305,0.475-10.592,5.644-10.592,5.644l2.358,4.492c-3.145,0-6.064,0-7.434-3.818v-6.289l18.103-41.104
				c1.909-5.84,6.401-9.066,8.535-9.066c1.468,0,7.3,0,7.3,0c4.043-0.019,7.075,3.799,7.075,9.053L240.27,418.938z"/>
			<path d="M498.266,347.849h-58.398
				c-2.096,4.792-6.289,14.974-6.289,15.273c3.294,0,6.589,0,9.883,0c-10.181,24.555-20.366,49.117-30.547,73.672
				c9.882,0,19.767,0,29.648,0c4.192-10.48,8.386-20.965,12.578-31.445c0,0,30.55,0,31.445,0c6.888,0.149,22.909-9.733,26.503-30.248
				C515.578,360.891,506.052,347.849,498.266,347.849z M474.906,390.974c-0.3,0.3-9.584,0-13.477,0
				c3.594-8.983,8.086-18.868,11.68-27.852h11.68C486.821,373.04,482.31,387.57,474.906,390.974z"/>
		</g>
	</g>
	<g id="svg-12808" data-svg-name="svg-btv" viewBox="0 0 612 792">
		<g>
			<path d="M142.574,298.967v166.518h322.182V298.967H142.574z M166.296,352.854v-32.667h21.164h20.611
			c23.187,0,36.557,12.696,36.557,32.457c0,7.815-3.873,15.809-9.979,21.726c15.267,5.612,22.194,18.168,22.194,32.694
			c0,23.544-17.18,39.646-50.2,39.646c-22.536,0-29.409-2.291-33.913-7.094c-4.499-4.81-6.433-12.329-6.433-23.192V352.854z
			 M295.658,412.257v-73.992h17.889v22.767h30.061v15.02h-30.061v32.362c-0.036,19.824,12.077,26.578,30.744,20.371l3.999,14.962
			C312.402,453.464,295.61,438.312,295.658,412.257z M262.943,434.528c-0.016-6.727,5.439-12.203,12.177-12.208
			c6.738-0.011,12.213,5.423,12.213,12.161c0.016,6.737-5.429,12.202-12.161,12.233C268.434,446.715,262.953,441.255,262.943,434.528z
			 M423.686,424.617c-3.349,13.212-10.549,22.093-25.452,22.093c-15.288,0-20.87-7.719-25.222-22.093
			c-6.391-21.206-19.593-63.649-19.593-63.649h19.709c0,0,13.974,46.368,19.219,62.376c1.335,4.068,2.408,7.031,6.517,7.031
			c4.126,0,5.619-1.98,6.859-7.031c5.601-22.661,16.032-62.376,16.032-62.376h18.621C440.376,360.968,429.062,403.411,423.686,424.617
			z M205.696,369.949H184.99v-17.442v-16.633h3.163h15.746c10.138,0,23.019,2.985,23.019,16.391
			C226.917,364.226,215.807,369.949,205.696,369.949z M187.901,427.486c-2.648-2.817-2.911-8.173-2.911-17.605v-24.228h25.22
			c19.776,0,27.68,9.513,27.68,22.583c0,14.294-10.032,22.193-27.56,22.193C195.342,430.429,190.412,430.167,187.901,427.486z
			 M456.105,475.708h-29.26c-5.401,0-9.754,4.354-9.754,9.763c0,5.391,4.353,9.753,9.754,9.753h29.26c5.4,0,9.753-4.362,9.753-9.753
			C465.858,480.069,461.495,475.708,456.105,475.708z M485.382,261.064H124.386c-10.773,0-19.516,8.75-19.516,19.516v224.396
			c0,10.773,8.733,19.516,19.516,19.516h97.199c-13.077,3.955-25.792,8.76-37.947,14.585c-4.858,2.321-6.909,8.154-4.579,13.014
			c2.339,4.849,8.155,6.926,13.022,4.569c33.486-16.065,71.496-24.555,109.904-24.555c40.539,0,80.464,9.481,115.485,27.398
			c1.427,0.741,2.936,1.075,4.434,1.075c3.55,0,6.964-1.933,8.688-5.301c2.447-4.786,0.569-10.685-4.234-13.132
			c-13.998-7.17-28.71-13.049-43.908-17.672h102.914c10.766,0,19.508-8.742,19.508-19.516V280.58
			C504.889,269.815,496.147,261.064,485.382,261.064z M485.382,504.976H124.386V280.58h360.996V504.976L485.382,504.976z"/>
		</g>
	</g>
	<g id="svg-12933" data-svg-name="svg-weillimite" viewBox="0 0 612 792">
		<g>
			<path d="M184.292,363.738h17.6v14.851h-17.6V363.738L184.292,363.738z M184.73,385.079h16.723v58.964H184.73
				V385.079z"/>
			<rect x="218.613" y="363.738" width="16.723" height="80.305"/>
			<rect x="251.852" y="363.738" width="16.724" height="80.305"/>
			<path d="M284.653,363.738h17.601v14.851h-17.601V363.738z M285.092,385.079h16.723v58.964h-16.723V385.079z"/>
			<path d="M317.562,385.079h16.722v8.361c3.848-4.948,8.907-9.458,17.382-9.458c7.698,0,13.529,3.409,16.611,9.351
				c5.167-6.05,11.329-9.351,19.36-9.351c12.428,0,19.907,7.479,19.907,21.673v38.39h-16.719v-32.89c0-7.924-3.521-11.994-9.79-11.994
				s-10.122,4.07-10.122,11.994v32.89h-16.718v-32.89c0-7.924-3.521-11.994-9.79-11.994c-6.274,0-10.122,4.07-10.122,11.994v32.89
				h-16.722V385.079L317.562,385.079z"/>
			<path d="M422.452,363.738h17.601v14.851h-17.601V363.738z M422.891,385.079h16.724v58.964h-16.724V385.079z"/>
			<path d="M458.111,427.32v-27.938h-7.04v-14.305h7.04v-15.069h16.719v15.07h13.864v14.305h-13.864v25.187
				c0,3.852,1.656,5.724,5.391,5.724c3.081,0,5.831-0.77,8.249-2.092v13.423c-3.52,2.088-7.586,3.408-13.193,3.408
				C465.039,445.033,458.111,440.962,458.111,427.32"/>
			<path d="M496.531,414.892v-0.221c0-16.83,11.984-30.691,29.146-30.691c19.696,0,28.717,15.291,28.717,32.012
				c0,1.317-0.117,2.858-0.225,4.399h-41.033c1.658,7.591,6.934,11.55,14.413,11.55c5.606,0,9.683-1.761,14.304-6.051l9.567,8.468
				c-5.5,6.822-13.417,11.005-24.086,11.005C509.617,445.363,496.531,432.932,496.531,414.892 M538.111,409.943
				c-0.986-7.482-5.394-12.54-12.434-12.54c-6.923,0-11.438,4.948-12.755,12.54H538.111z M531.069,359.121l14.412,6.27l-14.305,13.199
				h-12.315L531.069,359.121z"/>
			<path d="M184.174,276.107h15.212v12.835h-15.212V276.107z M184.553,294.552h14.451v50.961h-14.451V294.552z"/>
			<path d="M212.599,294.552h14.452v7.226c3.327-4.278,7.605-8.176,14.927-8.176c10.934,0,17.304,7.226,17.304,18.92
				v32.992H244.83v-28.428c0-6.846-3.232-10.363-8.747-10.363s-9.032,3.518-9.032,10.363v28.428h-14.452V294.552z"/>
			<path d="M274.204,331.061v-24.15h-6.086v-12.36h6.086v-13.025h14.451v13.025h11.979v12.36h-11.979v21.772
				c0,3.328,1.425,4.944,4.659,4.944c2.661,0,5.038-0.665,7.13-1.807v11.599c-3.043,1.807-6.562,2.948-11.41,2.948
				C280.194,346.368,274.204,342.85,274.204,331.061"/>
			<path d="M307.382,320.317v-0.19c0-14.546,10.363-26.525,25.195-26.525c17.019,0,24.814,13.215,24.814,27.667
				c0,1.141-0.095,2.472-0.19,3.803h-35.463c1.425,6.561,5.989,9.983,12.455,9.983c4.849,0,8.366-1.522,12.36-5.229l8.271,7.321
				c-4.753,5.895-11.6,9.507-20.822,9.507C318.696,346.653,307.382,335.91,307.382,320.317 M343.322,316.039
				c-0.856-6.465-4.659-10.839-10.744-10.839c-5.989,0-9.888,4.278-11.028,10.839H343.322z"/>
			<path d="M368.131,294.552h14.453v10.269c2.946-7.036,7.7-11.6,16.258-11.219v15.117h-0.761
				c-9.604,0-15.497,5.8-15.497,17.969v18.826h-14.453V294.552z"/>
			<path d="M407.871,294.552h14.452v7.226c3.327-4.278,7.605-8.176,14.926-8.176c10.935,0,17.305,7.226,17.305,18.92
				v32.992h-14.451v-28.428c0-6.846-3.232-10.363-8.747-10.363s-9.032,3.518-9.032,10.363v28.428h-14.452V294.552z"/>
			<path d="M464.628,320.317v-0.19c0-14.546,10.362-26.525,25.194-26.525c17.02,0,24.815,13.215,24.815,27.667
				c0,1.141-0.096,2.472-0.19,3.803h-35.464c1.426,6.561,5.988,9.983,12.454,9.983c4.85,0,8.368-1.522,12.361-5.229l8.271,7.321
				c-4.754,5.895-11.601,9.507-20.823,9.507C475.941,346.653,464.628,335.91,464.628,320.317 M500.566,316.039
				c-0.855-6.465-4.658-10.839-10.742-10.839c-5.99,0-9.889,4.278-11.029,10.839H500.566z"/>
			<path d="M527.754,331.061v-24.15h-6.085v-12.36h6.085v-13.025h14.451v13.025h11.98v12.36h-11.98v21.772
				c0,3.328,1.426,4.944,4.659,4.944c2.661,0,5.039-0.665,7.13-1.807v11.599c-3.042,1.807-6.561,2.948-11.409,2.948
				C533.744,346.368,527.754,342.85,527.754,331.061"/>
			<rect x="54.727" y="455.451" width="12.601" height="60.507"/>
			<path d="M77.041,493.99v-0.162c0-12.684,9.034-23.131,21.966-23.131c14.834,0,21.635,11.528,21.635,24.122
				c0,0.998-0.084,2.16-0.168,3.321H89.557c1.243,5.717,5.222,8.7,10.857,8.7c4.229,0,7.296-1.323,10.776-4.558l7.211,6.379
				c-4.145,5.143-10.111,8.289-18.152,8.289C86.905,516.951,77.041,507.59,77.041,493.99 M108.371,490.263
				c-0.746-5.635-4.06-9.449-9.364-9.449c-5.225,0-8.623,3.726-9.618,9.449H108.371z"/>
			<polygon points="151.27,471.528 164.033,471.528 171.161,498.47 179.534,471.364 190.393,471.364 198.846,498.552 
				206.143,471.528 218.659,471.528 204.818,516.289 193.461,516.289 184.923,489.022 176.219,516.289 164.945,516.289 	"/>
			<path d="M222.098,493.99v-0.162c0-12.684,9.034-23.131,21.966-23.131c14.835,0,21.635,11.528,21.635,24.122
				c0,0.998-0.084,2.16-0.169,3.321h-30.915c1.242,5.717,5.221,8.7,10.856,8.7c4.229,0,7.296-1.323,10.775-4.558l7.212,6.379
				c-4.145,5.143-10.111,8.289-18.152,8.289C231.963,516.951,222.098,507.59,222.098,493.99 M253.429,490.263
				c-0.747-5.635-4.061-9.449-9.365-9.449c-5.224,0-8.622,3.726-9.618,9.449H253.429z"/>
			<path d="M272.938,493.99v-0.162c0-12.684,9.033-23.131,21.966-23.131c14.834,0,21.631,11.528,21.631,24.122
				c0,0.998-0.081,2.16-0.165,3.321h-30.916c1.242,5.717,5.222,8.7,10.856,8.7c4.229,0,7.296-1.323,10.776-4.558l7.212,6.379
				c-4.145,5.143-10.112,8.289-18.153,8.289C282.803,516.951,272.938,507.59,272.938,493.99 M304.269,490.263
				c-0.747-5.635-4.06-9.449-9.365-9.449c-5.225,0-8.623,3.726-9.618,9.449H304.269z"/>
			<polygon points="325.93,455.451 338.531,455.451 338.531,487.692 353.285,471.528 368.37,471.528 351.463,489.022 
				368.951,515.959 354.362,515.959 343.007,497.721 338.531,502.447 338.531,515.959 325.93,515.959 	"/>
			<rect x="371.88" y="484.21" width="25.529" height="12.102"/>
			<path d="M405.053,493.99v-0.162c0-12.684,9.035-23.131,21.966-23.131c14.836,0,21.635,11.528,21.635,24.122
				c0,0.998-0.084,2.16-0.168,3.321H417.57c1.242,5.717,5.222,8.7,10.856,8.7c4.229,0,7.296-1.323,10.775-4.558l7.211,6.379
				c-4.144,5.143-10.11,8.289-18.151,8.289C414.918,516.951,405.053,507.59,405.053,493.99 M436.383,490.263
				c-0.746-5.635-4.059-9.449-9.364-9.449c-5.225,0-8.621,3.726-9.618,9.449H436.383z"/>
			<path d="M458.048,471.528h12.603v6.302c2.899-3.73,6.631-7.133,13.013-7.133c9.534,0,15.085,6.304,15.085,16.494
				v28.767H486.15v-24.783c0-5.966-2.817-9.038-7.626-9.038c-4.806,0-7.873,3.072-7.873,9.038v24.783h-12.603V471.528z"/>
			<path d="M507.728,493.828v-0.17c0-14.836,9.699-22.961,20.225-22.961c6.716,0,10.86,3.071,13.843,6.635v-21.881
				h12.598v60.507h-12.598v-6.386c-3.067,4.146-7.296,7.217-13.843,7.217C517.593,516.79,507.728,508.662,507.728,493.828
				 M541.96,493.828v-0.17c0-7.377-4.89-12.264-10.775-12.264s-10.859,4.807-10.859,12.264v0.17c0,7.377,4.974,12.27,10.859,12.27
				S541.96,501.205,541.96,493.828"/>
			<path d="M144.571,285.845c-0.771-5.156-5.608-8.705-10.804-7.928L62.51,288.574
				c-5.195,0.777-8.784,5.586-8.013,10.742l20.423,136.563c0.771,5.156,5.609,8.705,10.804,7.928l71.257-10.656
				c5.196-0.777,8.783-5.586,8.011-10.742L144.571,285.845z M91.094,290.177l14.114-2.11c1.299-0.194,2.444,0.266,2.639,1.564
				c0.195,1.299-0.767,2.074-2.065,2.269l-14.113,2.111c-1.299,0.194-2.444-0.267-2.637-1.565
				C88.837,291.146,89.796,290.371,91.094,290.177 M119.198,429.861c-3.896,0.583-7.528-2.104-8.111-6
				c-0.583-3.896,2.104-7.528,6-8.111c3.896-0.582,7.53,2.104,8.113,6.001C125.783,425.646,123.094,429.279,119.198,429.861
				 M150.879,406.633L81.886,416.95l-16.91-113.071l68.993-10.317L150.879,406.633z"/>
		</g>
	</g>
	<g id="svg-12785" data-svg-name="svg-canalplay" viewBox="0 0 612 792">
		<g>
			<rect x="297.95" y="421.468" transform="matrix(-0.9981 0.061 -0.061 -0.9981 864.5183 949.9191)" fill="#009FE3" width="239.595" height="133.396"/>
			<g>
				<path fill="#FFFFFF" d="M326.998,522.633v-7.595c2.25,1.06,4.643,1.894,7.174,2.503c2.533,0.609,4.892,0.912,7.074,0.912
					c3.203,0,5.567-0.607,7.09-1.825c1.522-1.219,2.284-2.853,2.284-4.904c0-1.849-0.701-3.417-2.098-4.701
					c-1.4-1.285-4.286-2.808-8.663-4.566c-4.494-1.827-7.657-3.913-9.486-6.258c-1.83-2.346-2.745-5.164-2.745-8.455
					c0-4.122,1.458-7.366,4.375-9.733c2.919-2.364,6.833-3.549,11.748-3.549c4.71,0,9.399,1.036,14.066,3.107l-2.544,6.589
					c-4.381-1.85-8.289-2.774-11.726-2.774c-2.617,0-4.603,0.571-5.956,1.709c-1.354,1.139-2.03,2.645-2.03,4.516
					c0,1.285,0.271,2.384,0.812,3.297c0.541,0.914,1.433,1.775,2.673,2.588c1.242,0.812,3.475,1.883,6.7,3.214
					c3.629,1.511,6.28,2.92,7.953,4.229c1.674,1.307,2.901,2.784,3.683,4.431c0.78,1.645,1.172,3.585,1.172,5.816
					c0,4.373-1.584,7.804-4.749,10.293c-3.164,2.488-7.531,3.731-13.1,3.731C335.123,525.206,330.554,524.349,326.998,522.633z"/>
				<path fill="#FFFFFF" d="M360.944,482.092v-6.921h37.105v6.921h-14.518v42.439h-8.069v-42.439H360.944z"/>
				<path fill="#FFFFFF" d="M392.539,524.531l18.468-49.563h8.778l18.469,49.563h-8.576l-4.929-13.742h-18.873l-4.829,13.742H392.539z
					 M408.238,503.868h14.384l-4.625-13.436c-0.337-0.901-0.805-2.318-1.401-4.255s-1.009-3.354-1.233-4.255
					c-0.607,2.77-1.496,5.797-2.667,9.083L408.238,503.868z"/>
				<path fill="#FFFFFF" d="M443.041,524.531v-49.36h13.843c6.323,0,11.005,1.19,14.044,3.571c3.038,2.378,4.558,5.972,4.558,10.775
					c0,6.141-3.118,10.515-9.352,13.125l13.845,21.889h-9.184l-11.719-19.785h-7.967v19.785H443.041z M451.11,498.13h5.605
					c3.758,0,6.48-0.702,8.169-2.103s2.533-3.479,2.533-6.238c0-2.803-0.912-4.813-2.735-6.034c-1.822-1.222-4.568-1.832-8.238-1.832
					h-5.334V498.13z"/>
				<path fill="#FFFFFF" d="M479.969,482.092v-6.921h37.106v6.921h-14.519v42.439h-8.069v-42.439H479.969z"/>
			</g>
			<g>
				<polygon fill="#000" points="443.475,336.038 443.475,238.887 66.394,238.887 66.394,359.49 143.778,359.49 143.778,459.187 482.872,459.187 
					482.872,336.038 		"/>
			</g>
			<path fill="#FFFFFF" d="M445.258,364.654l-13.088,24.059l-13.345-24.059h-20.531l24.06,40.869l-17.131,30.603h19.889l40.291-71.535
				h-20.209v0.064H445.258z M139.865,317.497c-0.257,0.128-0.643,0.128-0.643,0.128c0.513-0.128-4.94,2.502-11.805,2.952
				c-6.222,0.257-12.125-1.412-15.847-4.685c-5.582-4.683-8.211-12.446-5.774-21.557c2.758-10.458,12.126-14.627,20.081-15.077
				c0,0,10.458-0.77,19.441,5.582c1.411,0.899,1.54,0.771,1.54,0.771s0.513-0.258,0.513-0.899l2.759-14.5
				c0.514-1.54,0.256-1.732,0.256-1.732s-0.128-0.513-1.732-1.412c-2.951-1.989-7.057-3.272-7.057-3.272
				c-3.529-1.283-12.447-3.913-24.252-2.373c-9.303,1.284-18.798,6.415-24.83,13.538c-2.501,3.144-12.768,17.387-7.57,37.66
				c3.4,13.537,14.499,23.931,31.758,25.855c0,0,10.714,1.283,20.209-2.63c0.642-0.128,1.09-0.642,1.09-0.642s0.257-0.642,0.514-1.413
				l2.758-15.846c0.129-0.898-0.127-1.283-0.127-1.283S141.276,316.728,139.865,317.497z M304.687,265.465
				c0,0-0.128-0.129-0.513-0.129h-18.671c-0.256,0-0.256,0.129-0.256,0.129s-0.127,0.128-0.127,0.257l-5.775,38.687
				c-0.128,0.898-0.513,0.898-0.513,0.898s-0.257,0.128-0.642-0.642l-22.328-38.944c-0.128-0.257-0.256-0.257-0.256-0.257
				s-0.128-0.129-0.513-0.129h-19.89c-0.256,0-0.642,0.257-0.642,0.257s-0.128,0.129-0.256,0.514l-9.816,69.804
				c-0.127,0.256,0.256,0.77,0.256,0.77s0.129,0.128,0.513,0.128h17.9c0.256,0,0.513-0.128,0.513-0.128s0.129-0.129,0.129-0.642
				l6.224-43.243c0-0.256,0.128-0.256,0.128-0.256s0.128,0,0.256,0.129l24.829,44.012c0.128,0.128,0.128,0.128,0.128,0.128
				s0.258,0,0.643,0h17.898c0.514,0,0.642-0.128,0.642-0.128s0.129-0.256,0.258-0.642l10.072-70.446
				C304.687,265.593,304.687,265.465,304.687,265.465z M203.125,265.465c0,0-0.256-0.257-0.641-0.257h-22.392
				c-0.513,0-0.641,0-0.641,0s-0.257,0.128-0.514,0.514l-35.159,70.316c-0.127,0.257-0.127,0.642-0.127,0.642s0.127,0.257,0.641,0.128
				h20.21c0.256,0,0.641-0.128,0.641-0.128s0.129-0.129,0.256-0.514l4.813-10.458c0.257-0.641,0.641-0.898,0.641-0.898
				s0.258-0.512,0.771-0.512h24.701c0.128,0,0.256,0,0.256,0s0.129,0.127,0.129,0.512l2.759,11.228c0.127,0.642,0.127,0.77,0.127,0.77
				s0.257,0.129,0.642,0.129h17.387c0.128,0,0.257-0.129,0.257-0.129s0.127-0.128,0.127-0.257l-15.077-70.317
				C203.317,265.593,203.125,265.465,203.125,265.465z M194.271,308.643L194.271,308.643l-14.5,0.129
				c-0.514,0-0.642-0.129-0.642-0.129s-0.128-0.128,0.128-0.514l9.816-22.199c0.129-0.127,0.129-0.127,0.129-0.127
				s0.128,0,0.128,0.127l4.94,22.392C194.464,308.515,194.271,308.643,194.271,308.643z M350.56,265.786
				c-0.128-0.258-0.513-0.514-0.77-0.514H330.48c-0.259,0-0.642,0.256-0.77,0.514l-27.333,70.444c-0.128,0.258,0,0.514,0.258,0.514
				h18.671c0.255,0,0.641-0.127,0.768-0.514l4.558-11.484c0.126-0.256,0.513-0.512,0.767-0.512H352.1c0.257,0,0.641,0.256,0.771,0.512
				l4.36,11.357c0.13,0.257,0.516,0.514,0.773,0.514h18.797c0.257,0,0.513-0.257,0.257-0.514L350.56,265.786z M347.158,310.247h-14.24
				c-0.258,0-0.515-0.256-0.515-0.513l7.442-21.558c0.128-0.256,0.257-0.256,0.257,0l7.313,21.558
				C347.609,310.055,347.481,310.247,347.158,310.247z M423.7,318.138h-18.99c-0.259,0-0.643-0.257-0.643-0.641v-51.648
				c0-0.257-0.256-0.642-0.641-0.642h-20.532c-0.256,0-0.641,0.257-0.641,0.642v70.317c0,0.257,0.257,0.642,0.641,0.642H423.7
				c0.256,0,0.642-0.257,0.642-0.642V318.78C424.342,318.331,423.956,318.138,423.7,318.138z M306.74,364.654h-18.542l-8.854,71.536
				h39.842l1.86-15.525h-21.3L306.74,364.654z M352.74,364.654l-27.972,71.536h20.081l4.94-12.445h26.049l4.81,12.445h20.212
				l-27.525-71.536H352.74L352.74,364.654z M355.115,409.757l7.957-23.354l7.827,23.354H355.115z M252.014,364.654H221.41v7.955
				l18.669,10.842v-4.171h7.187c6.8,0,10.265,2.953,10.265,9.047c0,5.902-3.4,8.854-10.457,8.854h-4.684l-21.044,11.678v27.203h18.67
				v-23.354h12.767c16.489,0,24.573-8.726,24.573-24.7c0-7.444-2.373-13.345-7.187-17.902
				C265.871,366.257,259.712,364.654,252.014,364.654z"/>
			<path fill="#009FE3" d="M166.427,346.947v89.372l76.989-44.782L166.427,346.947z"/>
		</g>
	</g>
	<g id="svg-12764" data-svg-name="svg-spotify" viewBox="0 0 612 792">
		<g>
			<path fill="#1ED760" d="M111.996,306.277c-46.249,0-83.743,37.493-83.743,83.743c0,46.25,37.494,83.74,83.743,83.74
				c46.254,0,83.744-37.49,83.744-83.74c0-46.247-37.49-83.738-83.745-83.738L111.996,306.277z M150.4,427.057
				c-1.5,2.461-4.72,3.24-7.18,1.73c-19.662-12.01-44.414-14.73-73.564-8.07c-2.809,0.641-5.608-1.119-6.248-3.93
				c-0.644-2.811,1.109-5.61,3.926-6.25c31.899-7.288,59.263-4.15,81.337,9.34C151.13,421.387,151.91,424.598,150.4,427.057z
				 M160.65,404.255c-1.89,3.072-5.91,4.042-8.979,2.152c-22.51-13.837-56.823-17.843-83.448-9.761
				c-3.453,1.043-7.1-0.903-8.147-4.351c-1.04-3.453,0.906-7.093,4.354-8.144c30.413-9.228,68.222-4.757,94.072,11.128
				C161.57,397.17,162.54,401.189,160.65,404.255L160.65,404.255z M161.53,380.511c-26.989-16.031-71.52-17.505-97.288-9.684
				c-4.139,1.255-8.515-1.081-9.769-5.219c-1.254-4.14,1.08-8.513,5.221-9.771c29.581-8.98,78.757-7.245,109.83,11.202
				c3.73,2.209,4.95,7.016,2.74,10.733c-2.2,3.722-7.02,4.949-10.729,2.739H161.53z M256.09,383.583
				c-14.46-3.448-17.03-5.868-17.03-10.953c0-4.804,4.521-8.037,11.25-8.037c6.521,0,12.98,2.455,19.76,7.509
				c0.2,0.153,0.46,0.214,0.71,0.174c0.261-0.038,0.48-0.177,0.631-0.386l7.06-9.952c0.29-0.41,0.21-0.975-0.18-1.288
				c-8.07-6.473-17.15-9.62-27.771-9.62c-15.609,0-26.52,9.369-26.52,22.774c0,14.375,9.41,19.465,25.67,23.394
				c13.83,3.187,16.17,5.856,16.17,10.629c0,5.29-4.72,8.58-12.32,8.58c-8.439,0-15.33-2.851-23.03-9.511
				c-0.189-0.17-0.449-0.239-0.689-0.229c-0.26,0.021-0.49,0.14-0.65,0.33l-7.92,9.42c-0.33,0.399-0.29,0.979,0.09,1.319
				c8.96,8,19.98,12.221,31.881,12.221c16.819,0,27.689-9.189,27.689-23.42c0.03-12.007-7.16-18.657-24.77-22.941L256.09,383.583z
				 M318.95,369.323c-7.29,0-13.271,2.872-18.21,8.757v-6.624c0-0.523-0.421-0.949-0.94-0.949h-12.95
				c-0.52,0-0.939,0.426-0.939,0.949v73.601c0,0.521,0.42,0.95,0.939,0.95h12.95c0.52,0,0.94-0.43,0.94-0.95v-23.229
				c4.939,5.53,10.92,8.239,18.21,8.239c13.55,0,27.27-10.43,27.27-30.368c0.02-19.943-13.7-30.376-27.26-30.376L318.95,369.323
				L318.95,369.323z M331.159,399.698c0,10.149-6.249,17.239-15.209,17.239c-8.851,0-15.53-7.41-15.53-17.239
				c0-9.83,6.68-17.238,15.53-17.238C324.76,382.459,331.159,389.707,331.159,399.698L331.159,399.698z M381.369,369.323
				c-17.449,0-31.119,13.436-31.119,30.592c0,16.972,13.579,30.262,30.909,30.262c17.511,0,31.221-13.39,31.221-30.479
				c0-17.031-13.62-30.373-31.011-30.373V369.323z M381.369,417.037c-9.279,0-16.279-7.46-16.279-17.344
				c0-9.93,6.76-17.135,16.069-17.135c9.341,0,16.38,7.457,16.38,17.352C397.539,409.837,390.74,417.037,381.369,417.037z
				 M449.64,370.507h-14.25v-14.566c0-0.522-0.42-0.948-0.94-0.948h-12.95c-0.52,0-0.949,0.426-0.949,0.948v14.566h-6.221
				c-0.52,0-0.939,0.426-0.939,0.949v11.127c0,0.522,0.42,0.949,0.939,0.949h6.221v28.795c0,11.63,5.79,17.53,17.22,17.53
				c4.64,0,8.49-0.961,12.12-3.021c0.3-0.16,0.479-0.479,0.479-0.819v-10.601c0-0.319-0.17-0.63-0.449-0.8
				c-0.28-0.18-0.631-0.19-0.921-0.04c-2.489,1.25-4.899,1.83-7.6,1.83c-4.15,0-6.01-1.89-6.01-6.11v-26.76h14.25
				c0.52,0,0.939-0.426,0.939-0.949v-11.126c0.021-0.523-0.399-0.949-0.93-0.949L449.64,370.507L449.64,370.507z M499.28,370.564
				v-1.789c0-5.263,2.021-7.61,6.54-7.61c2.7,0,4.87,0.536,7.3,1.346c0.301,0.094,0.61,0.047,0.851-0.132
				c0.25-0.179,0.39-0.466,0.39-0.77v-10.91c0-0.417-0.26-0.786-0.67-0.909c-2.56-0.763-5.84-1.546-10.76-1.546
				c-11.95,0-18.28,6.734-18.28,19.467v2.74h-6.22c-0.521,0-0.95,0.426-0.95,0.948v11.184c0,0.522,0.43,0.949,0.95,0.949h6.22v44.405
				c0,0.529,0.43,0.949,0.95,0.949h12.939c0.53,0,0.95-0.42,0.95-0.949v-44.402h12.09l18.521,44.402c-2.101,4.66-4.17,5.59-6.99,5.59
				c-2.28,0-4.689-0.68-7.14-2.03c-0.23-0.12-0.511-0.14-0.75-0.07c-0.25,0.091-0.46,0.271-0.561,0.511l-4.39,9.629
				c-0.21,0.461-0.03,0.99,0.41,1.23c4.58,2.48,8.71,3.54,13.819,3.54c9.561,0,14.851-4.46,19.501-16.44l22.46-58.037
				c0.119-0.292,0.079-0.622-0.101-0.881c-0.17-0.257-0.46-0.412-0.77-0.412h-13.48c-0.41,0-0.77,0.257-0.899,0.636L537.4,410.637
				l-15.12-39.46c-0.14-0.367-0.49-0.61-0.88-0.61h-22.12V370.564L499.28,370.564z M470.499,370.507H457.55
				c-0.521,0-0.95,0.426-0.95,0.949v56.481c0,0.529,0.43,0.949,0.95,0.949h12.949c0.521,0,0.95-0.42,0.95-0.949V371.46
				c0-0.523-0.42-0.949-0.95-0.949V370.507z M464.1,344.788c-5.13,0-9.29,4.152-9.29,9.281c0,5.132,4.16,9.289,9.29,9.289
				s9.28-4.157,9.28-9.289C473.38,348.941,469.22,344.788,464.1,344.788z M577.52,388.668c-5.12,0-9.11-4.115-9.11-9.112
				c0-4.997,4.04-9.159,9.16-9.159s9.11,4.114,9.11,9.107C586.68,384.501,582.64,388.668,577.52,388.668L577.52,388.668z
				 M577.57,371.303c-4.67,0-8.2,3.71-8.2,8.253c0,4.542,3.511,8.201,8.15,8.201c4.67,0,8.2-3.707,8.2-8.253
				C585.72,374.963,582.209,371.303,577.57,371.303z M579.59,380.441l2.58,3.608h-2.181l-2.319-3.31h-1.99v3.31h-1.82v-9.564h4.26
				c2.23,0,3.69,1.137,3.69,3.051c0.01,1.568-0.9,2.526-2.21,2.905H579.59z M578.05,376.126h-2.37v3.025h2.37
				c1.18,0,1.89-0.579,1.89-1.514C579.94,376.653,579.23,376.126,578.05,376.126z"/>
		</g>
	</g>
</svg>
