<?xml version="1.0" encoding="utf-8"?>
<!-- Generator: Adobe Illustrator 16.0.0, SVG Export Plug-In . SVG Version: 6.00 Build 0)  -->
<!DOCTYPE svg PUBLIC "-//W3C//DTD SVG 1.1//EN" "http://www.w3.org/Graphics/SVG/1.1/DTD/svg11.dtd">
<svg version="1.1" id="Capa_1" xmlns="http://www.w3.org/2000/svg" xmlns:xlink="http://www.w3.org/1999/xlink" x="0px" y="0px"
	 width="64px" height="64px" viewBox="0 0 64 64" enable-background="new 0 0 64 64" xml:space="preserve">
<g>
	<path d="M19.353,31.888c2.656,1.693,5.916,2.853,9.033,1.771c1.122-0.39,2.043-1.037,2.792-1.844
		c0.73,1.226,1.208,2.316,1.568,3.637c1.398,7.457,0.808,14.821-1.733,21.356c-0.636,1.631,0.175,3.475,1.81,4.109
		c0.377,0.148,0.768,0.217,1.15,0.217c1.271,0,2.471-0.767,2.96-2.023c1.901-4.889,2.871-10.155,2.903-15.571
		c1.822,3.873,2.662,8.356,2.398,13.08c-0.098,1.752,1.244,3.25,2.995,3.346c0.06,0.005,0.119,0.007,0.179,0.007
		c1.674,0,3.074-1.31,3.168-3c0.445-8.033-1.74-15.572-6.177-21.404c-0.004-0.351-0.036-0.704-0.103-1.059
		c-0.469-2.472-1.411-4.984-2.717-7.264c4.606-0.655,9.152-3.129,10.393-7.57c0.884-3.162-4.018-4.502-4.9-1.351
		c-0.957,3.425-6.274,4.376-9.518,3.907c-3.664-2.646-8.441,1.365-7.398,5.155c-0.311,0.72-0.777,1.323-1.518,1.508
		c-1.704,0.426-3.334-0.509-4.725-1.396C19.143,25.731,16.597,30.13,19.353,31.888z"/>
	<circle cx="28.504" cy="14.264" r="5.467"/>
	<path d="M21.955,6c0,0,0.035-1.745-0.481-2.344c-0.513-0.599-1.329-0.744-1.813-0.325
		c-0.487,0.419-0.469,1.245,0.051,1.844C20.227,5.774,21.955,6,21.955,6z"/>
	<path d="M15.863,15.217c0.434,0.629,1.412,0.71,2.184,0.177c0.775-0.532,1.262-2.547,1.262-2.547
		s-2.057-0.263-2.828,0.268C15.705,13.647,15.431,14.589,15.863,15.217z"/>
	<path d="M19.695,8.292c0,0-1.595-1.508-2.587-1.534c-0.995-0.027-1.817,0.608-1.838,1.416
		c-0.022,0.808,0.767,1.487,1.759,1.512C18.021,9.712,19.695,8.292,19.695,8.292z"/>
</g>
</svg>
