<svg width="168" height="42" viewBox="0 0 168 42" xmlns="http://www.w3.org/2000/svg" xmlns:sketch="http://www.bohemiancoding.com/sketch/ns"><title>chronopost</title><desc></desc><g><path d="M72.059 13.661s10.842 3.974 20.703 5.151c9.861 1.178 9.763.883 9.763.883s-.883 2.11-13.54 1.668c0 0-7.66-.402-12.174-3.688-4.513-3.287-4.752-4.014-4.752-4.014" /><path d="M68.134 6.351s7.016 3.679 12.118 5.789 13.148 4.808 13.148 4.808-.344 1.079-11.676-1.913c-11.333-2.993-10.94-3.239-10.94-3.239s-2.895-2.404-2.65-5.445" /><path d="M68.233.022s12.853 10.548 16.189 11.774c0 0 .638.81-1.717-.171-2.355-.982-14.767-7.138-14.767-7.138s-.245-2.355.295-4.465" /><path d="M12.992 37.749l-1.325 4.023-9.469.137s-2.305-.971-1.422-3.375c.883-2.404 2.796-8.095 2.796-8.095s1.865-4.072 6.476-4.17c4.612-.098 6.967 0 6.967 0l-1.374 3.973h-6.231l-2.649 7.458 6.231.049" /><path d="M19.467 26.269h5.643l-2.11 5.789h4.023l1.962-5.74h5.495l-5.201 15.454h-5.592l2.011-5.887h-3.876l-2.109 5.838h-5.495l5.249-15.454" /><path d="M49.148 26.22h-11.283l-5.298 15.526 5.494.026s.883-2.6 1.422-4.415c.54-1.816 1.129-1.325 1.129-1.227 0 .098 1.276 5.593 1.276 5.593h5.838l-1.619-6.231c3.336-.932 4.317-3.483 4.317-3.483 3.042-5.789-1.276-5.789-1.276-5.789zm-4.415 7.113l-3.778-.049 1.227-3.63h3.876l-1.325 3.679z" /><path d="M67.398 41.575l5.25-15.208h4.12l2.748 6.231s.491 1.03.883-.344c.393-1.373 1.865-5.887 1.865-5.887h5.494l-5.2 15.356h-4.121l-2.699-6.28s-.245-1.423-.981.736c-.735 2.159-1.913 5.593-1.913 5.593l-5.446.049v-.246" /><path d="M152.492 30.047l1.325-3.729-7.139.049s-4.758.393-6.279 5.397c0 0-.54 1.913 2.158 3.385 2.699 1.472 3.582 1.864 3.582 1.864s.245.147.147.54c-.098.392-.147.49-.343.49h-7.261l-1.276 3.68h7.776s3.581-.294 5.348-3.336c1.766-3.042.515-4.17.515-4.17s.073-.344-1.472-1.178c-1.546-.834-4.048-2.109-4.048-2.109s-.196-.098-.22-.418c-.025-.318.294-.465.515-.441.221.025 6.672-.024 6.672-.024" /><path d="M155.117 26.318h12.804l-1.275 3.778h-3.68l-3.925 11.627h-5.592l3.875-11.481s.074-.171-.221-.171h-3.335l1.349-3.753" /><path d="M67.202 26.318s-5.052-.441-8.536.049c-3.483.491-5.249 3.68-5.249 3.68l-2.11 5.739-1.079 3.189c-.294 3.484 2.011 2.699 8.095 2.797 6.083.098 7.555-4.317 7.555-4.317s2.845-7.458 2.992-9.126c.147-1.667-1.668-2.011-1.668-2.011zm-7.064 11.725l-3.925-.025 2.748-8.069h3.973l-2.796 8.094z" /><path d="M103.334 26.269s-5.053-.441-8.536.049c-3.483.491-5.25 3.679-5.25 3.679l-2.108 5.741-1.08 3.189c-.295 3.483 2.011 2.698 8.095 2.796 6.083.098 7.555-4.317 7.555-4.317s2.845-7.457 2.992-9.125c.148-1.669-1.668-2.012-1.668-2.012zm-7.064 11.725l-3.925-.049 2.747-8.046h3.975l-2.797 8.095z" /><path d="M137.774 26.269s-5.053-.441-8.537.049c-3.483.491-5.248 3.679-5.248 3.679l-2.11 5.741-1.08 3.189c-.294 3.483 2.012 2.698 8.095 2.796 6.084.098 7.556-4.317 7.556-4.317s2.845-7.457 2.992-9.125c.148-1.669-1.668-2.012-1.668-2.012zm-7.064 11.725l-3.925-.049 2.747-8.046h3.974l-2.796 8.095z" /><path d="M120.432 26.318h-11.529l-5.25 15.405h5.544l1.276-3.68h3.385c3.924-.343 4.66-1.57 5.641-2.551.982-.981 1.619-3.091 1.619-3.091 2.895-5.985-.686-6.083-.686-6.083zm-5.299 8.193h-3.483l1.717-4.759h3.385l-1.619 4.759z"/></g></svg>