<svg width="149" height="118" viewBox="0 0 149 118" xmlns="http://www.w3.org/2000/svg" xmlns:sketch="http://www.bohemiancoding.com/sketch/ns"><title>laposte</title><desc></desc><g><path d="M50.517 99.525h8.523c1.858 0 3.434.179 5.064 1.271 1.276.826 2.13 2.357 1.796 4.298-.459 2.552-3.516 5.412-8.327 5.412h-5.422l-1.243 7.037h-3.571l3.18-18.018zm2.095 8.397h5.28c2.646 0 4.185-1.483 4.432-2.9.221-1.222-.278-1.951-1.077-2.406-.725-.411-1.438-.509-2.467-.509h-5.153l-1.015 5.815z" /><path d="M91.928 113.168c1.602 1.082 3.847 1.791 6.367 1.791 2.906 0 4.838-1.014 5.105-2.508.208-1.26-.562-2.223-2.651-2.425-1.046-.102-1.849-.204-3.046-.329-3.986-.429-5.815-2.446-5.355-5.056.545-3.091 3.726-5.268 8.597-5.268 2.893 0 5.348.788 7.293 1.87l-2.38 2.255c-1.567-.83-3.473-1.391-5.569-1.391-2.172 0-4.082.865-4.391 2.588-.175 1.002.608 2.016 2.941 2.299.614.073 1.486.176 2.597.28 4.325.397 5.968 2.728 5.528 5.177-.585 3.317-4.126 5.244-9.185 5.244-3.461 0-6.379-.81-8.55-2.484l2.699-2.043" /><path d="M117.752 101.956h-6.439l.422-2.431h16.464l-.429 2.431h-6.459l-2.741 15.587h-3.566l2.748-15.587" /><path d="M87.262 102.616c-.834-1.563-3.088-3.243-6.795-3.243h-1.608c-3.699 0-6.531 1.68-7.938 3.243-.937 1.057-1.29 1.591-2.064 5.92-.762 4.329-.589 4.858-.015 5.917.849 1.568 3.088 3.242 6.798 3.242h1.604c3.7 0 6.533-1.674 7.94-3.242.955-1.059 1.306-1.588 2.062-5.917.764-4.329.593-4.863.016-5.92m-5.665 11.031c-.864.707-2.189 1.312-3.868 1.312h-1.612c-1.685 0-2.799-.605-3.398-1.312-.775-.909-.947-1.422-.293-5.111.648-3.693 1.012-4.207 2.092-5.115.847-.703 2.179-1.314 3.869-1.314h1.603c1.685 0 2.797.611 3.399 1.314.769.908.949 1.422.295 5.115-.659 3.689-1.002 4.202-2.087 5.111" /><path d="M135.514 103.56c.853-.704 2.174-1.313 3.861-1.313h8.539l.484-2.747h-8.539c-3.697 0-6.544 1.677-7.937 3.256-.953 1.059-1.283 1.427-2.045 5.769-.766 4.34-.566 4.705.006 5.768.853 1.568 3.098 3.247 6.807 3.247h8.525l.484-2.739h-8.541c-1.674 0-2.793-.613-3.4-1.312-.676-.815-.91-1.186-.506-3.828h11.697l.405-2.427h-11.668c.509-2.51.88-2.873 1.828-3.674" /><path d="M35.949 102.616c-.845-1.563-3.096-3.243-6.805-3.243h-.196c-3.702 0-6.538 1.68-7.938 3.243-.944 1.057-1.301 1.591-2.06 5.92l-1.595 9.004h3.558l1.279-7.2h9.852l-1.272 7.2h3.566l1.591-9.004c.767-4.329.598-4.863.02-5.92m-11.344.805c.849-.703 2.183-1.314 3.869-1.314h.193c1.681 0 2.805.611 3.407 1.314.717.854.912 1.363.398 4.485h-9.848c.587-3.122.961-3.631 1.981-4.485" /><path d="M.121 113.644c.322-1.816 2.491-14.14 2.491-14.14h3.566s-2.053 11.803-2.363 13.309c-.388 1.892.102 1.98 1.549 1.98h9.569l-.463 2.75h-11.677c-2.983 0-2.958-2.371-2.672-3.899" /><path d="M129.891 23.931c-1.36-3.796-3.547-7.263-6.286-10.199-1.228-1.3-2.578-2.507-4.027-3.637-10.152-7.833-23.791-10.128-36.318-9.381-7.498.442-15.36 2.049-23.196 4.896-1.949.711-3.838 1.481-5.683 2.303-1.366.611-2.703 1.26-4.016 1.921-7.062 3.624-13.25 8.059-18.306 13.004-1.438 1.396-2.79 2.835-4.028 4.306-2.474 2.899-4.693 6.117-6.51 9.544-4.47 8.488-6.355 18.254-2.927 27.56 1.031 2.798 2.459 5.372 4.25 7.687 1.693 2.2 3.703 4.183 5.976 5.946 4.967 3.823 11.205 6.554 18.233 8.093 1.293.279 2.599.511 3.947.715 8.924 1.326 18.914.806 29.064-1.773 2.743-.694 5.514-1.544 8.274-2.558 4.574-1.664 8.881-3.661 12.869-5.935 5.762-3.264 10.844-7.097 15.137-11.279 2.133-2.073 4.058-4.233 5.785-6.459 7.517-9.75 12.09-22.691 7.762-34.754zm-83.307 3.111c5.01-.028 48.039-.217 50.75-.18 5.119.068 4.965 3.281 2.58 6.475-.981 1.327-1.334 1.799-2.27 2.949l-33.052.361c-4.524-4.051-13.164-7.364-18.393-9.226-.982-.387-.408-.387.385-.379zm41.814 21.136l-6.537 8.391c-.916 1.232-2.658 3.164-5.111 3.261l-39.904 1.276c-.254.004-.182-.16-.075-.199l51.506-12.982c.28-.091.287.082.121.253zm34.575-9.79c-33.19 6.274-57.936 13.304-95.249 22.734-.216.044-.351-.257-.066-.375 21.574-8.121 27.67-11.341 30.342-13.006 5.209-3.224 7.701-6.582 7.474-8.919l57.491-1.04c1.638.023 1.027.454.008.606z" /></g></svg>