<?xml version="1.0" encoding="UTF-8" standalone="no"?>
<svg width="33px" height="25px" viewBox="0 0 33 25" version="1.1" xmlns="http://www.w3.org/2000/svg" xmlns:xlink="http://www.w3.org/1999/xlink" xmlns:sketch="http://www.bohemiancoding.com/sketch/ns">
    <!-- Generator: Sketch 3.1.1 (8761) - http://www.bohemiancoding.com/sketch -->
    <title>icon-500stores@1x</title>
    <desc></desc>
    <defs></defs>
    <g id="Page-1" stroke="none" stroke-width="1"  fill-rule="evenodd" >
        <g id="icon-500stores"  transform="translate(1.000000, 1.000000)">
            <path d="M28.4494884,22.671 C28.3624186,22.6095 28.3013953,22.497 28.3013953,22.3725 C28.3013953,22.16625 28.4651163,22.0065 28.6697674,22.0065 C28.7717209,22.0065 28.8431628,22.04325 28.8945116,22.08 C29.1653953,22.28025 29.4623256,22.40325 29.8098605,22.40325 C30.132093,22.40325 30.3270698,22.27425 30.3270698,22.0635 L30.3270698,22.053 C30.3270698,21.85275 30.2035349,21.7485 29.6052093,21.59475 C28.8848372,21.40875 28.4189767,21.20775 28.4189767,20.4915 L28.4189767,20.48175 C28.4189767,19.82775 28.9406512,19.39425 29.6714419,19.39425 C30.1060465,19.39425 30.4855814,19.5075 30.807814,19.71375 C30.8941395,19.7655 30.9812093,19.8735 30.9812093,20.02875 C30.9812093,20.23425 30.8167442,20.39325 30.612093,20.39325 C30.5354419,20.39325 30.4744186,20.373 30.4126512,20.33775 C30.1529302,20.1825 29.9073488,20.09475 29.6610233,20.09475 C29.3596279,20.09475 29.2011163,20.23425 29.2011163,20.40975 L29.2011163,20.42025 C29.2011163,20.65725 29.3544186,20.73525 29.9735814,20.89425 C30.7006512,21.08475 31.1092093,21.34725 31.1092093,21.97575 L31.1092093,21.9855 C31.1092093,22.70175 30.5659535,23.10375 29.7942326,23.10375 C29.323907,23.10375 28.8491163,22.95975 28.4494884,22.671 L28.4494884,22.671 Z M25.0946977,22.65525 L25.0946977,19.84275 C25.0946977,19.6215 25.2688372,19.446 25.4883721,19.446 L27.4723721,19.446 C27.6673488,19.446 27.8258605,19.60575 27.8258605,19.8015 C27.8258605,19.998 27.6673488,20.15175 27.4723721,20.15175 L25.8768372,20.15175 L25.8768372,20.883 L27.2424186,20.883 C27.4366512,20.883 27.595907,21.04425 27.595907,21.2385 C27.595907,21.435 27.4366512,21.58875 27.2424186,21.58875 L25.8768372,21.58875 L25.8768372,22.34625 L27.4976744,22.34625 C27.691907,22.34625 27.851907,22.506 27.851907,22.70175 C27.851907,22.89825 27.691907,23.0535 27.4976744,23.0535 L25.4883721,23.0535 C25.2688372,23.0535 25.0946977,22.878 25.0946977,22.65525 L25.0946977,22.65525 Z M21.172093,21.507 L21.172093,19.812 C21.172093,19.58925 21.3469767,19.41525 21.5657674,19.41525 C21.7853023,19.41525 21.9594419,19.58925 21.9594419,19.812 L21.9594419,21.486 C21.9594419,22.074 22.2511628,22.3785 22.7326512,22.3785 C23.211907,22.3785 23.5043721,22.08375 23.5043721,21.513 L23.5043721,19.812 C23.5043721,19.58925 23.6770233,19.41525 23.8973023,19.41525 C24.1175814,19.41525 24.2909767,19.58925 24.2909767,19.812 L24.2909767,21.48225 C24.2909767,22.5735 23.6822326,23.10975 22.7214884,23.10975 C21.76,23.10975 21.172093,22.569 21.172093,21.507 L21.172093,21.507 Z M18.5845581,21.66675 C18.5845581,21.46125 18.7475349,21.29025 18.952186,21.29025 C19.0593488,21.29025 19.1307907,21.32625 19.2126512,21.39825 L19.6063256,21.7545 C19.6688372,21.61125 19.7045581,21.4395 19.7045581,21.2595 L19.7045581,21.249 C19.7045581,20.631 19.2543256,20.115 18.6202791,20.115 C17.9854884,20.115 17.5456744,20.6205 17.5456744,21.2385 L17.5456744,21.249 C17.5456744,21.867 17.995907,22.383 18.6299535,22.383 C18.804093,22.383 18.9626047,22.35225 19.1002791,22.28475 L18.7266977,21.96525 C18.6455814,21.89325 18.5845581,21.795 18.5845581,21.66675 L18.5845581,21.66675 Z M16.7226047,21.2595 L16.7226047,21.249 C16.7226047,20.22375 17.5263256,19.3845 18.6299535,19.3845 C19.7350698,19.3845 20.5276279,20.21325 20.5276279,21.2385 L20.5276279,21.249 C20.5276279,21.63 20.4085581,21.9855 20.2098605,22.28475 L20.3631628,22.41375 C20.4450233,22.4865 20.5060465,22.58325 20.5060465,22.71225 C20.5060465,22.91925 20.3430698,23.08875 20.1384186,23.08875 C20.0305116,23.08875 19.9389767,23.04225 19.8779535,22.98225 L19.6829767,22.806 C19.3823256,23.001 19.0191628,23.115 18.6202791,23.115 C17.5151628,23.115 16.7226047,22.28475 16.7226047,21.2595 L16.7226047,21.2595 Z M15.1992558,19.812 C15.1992558,19.58925 15.3726512,19.41525 15.592186,19.41525 C15.8124651,19.41525 15.9858605,19.58925 15.9858605,19.812 L15.9858605,22.6875 C15.9858605,22.90875 15.8124651,23.08425 15.592186,23.08425 C15.3726512,23.08425 15.1992558,22.90875 15.1992558,22.6875 L15.1992558,19.812 L15.1992558,19.812 Z M12.6816744,20.178 L11.9255814,20.178 C11.7268837,20.178 11.5624186,20.013 11.5624186,19.812 C11.5624186,19.611 11.7268837,19.446 11.9255814,19.446 L14.2258605,19.446 C14.4260465,19.446 14.5890233,19.611 14.5890233,19.812 C14.5890233,20.013 14.4260465,20.178 14.2258605,20.178 L13.4697674,20.178 L13.4697674,22.6875 C13.4697674,22.90875 13.2956279,23.08425 13.076093,23.08425 C12.855814,23.08425 12.6816744,22.90875 12.6816744,22.6875 L12.6816744,20.178 L12.6816744,20.178 Z M7.92632558,21.507 L7.92632558,19.812 C7.92632558,19.58925 8.10046512,19.41525 8.32,19.41525 C8.53953488,19.41525 8.71367442,19.58925 8.71367442,19.812 L8.71367442,21.486 C8.71367442,22.074 9.00613953,22.3785 9.48688372,22.3785 C9.96688372,22.3785 10.2578605,22.08375 10.2578605,21.513 L10.2578605,19.812 C10.2578605,19.58925 10.432,19.41525 10.6515349,19.41525 C10.8710698,19.41525 11.0452093,19.58925 11.0452093,19.812 L11.0452093,21.48225 C11.0452093,22.5735 10.4364651,23.10975 9.47572093,23.10975 C8.51423256,23.10975 7.92632558,22.569 7.92632558,21.507 L7.92632558,21.507 Z M6.45804651,21.2595 L6.45804651,21.249 C6.45804651,20.631 6.00781395,20.115 5.37376744,20.115 C4.73972093,20.115 4.29990698,20.6205 4.29990698,21.2385 L4.29990698,21.249 C4.29990698,21.867 4.75013953,22.383 5.38418605,22.383 C6.01897674,22.383 6.45804651,21.8775 6.45804651,21.2595 L6.45804651,21.2595 Z M3.47683721,21.2595 L3.47683721,21.249 C3.47683721,20.22375 4.28055814,19.3845 5.38418605,19.3845 C6.48855814,19.3845 7.28111628,20.21325 7.28111628,21.2385 L7.28111628,21.249 C7.28111628,22.27425 6.47813953,23.115 5.37376744,23.115 C4.26939535,23.115 3.47683721,22.28475 3.47683721,21.2595 L3.47683721,21.2595 Z M1.64539535,22.3575 C1.99293023,22.3575 2.20353488,22.233 2.20353488,21.96525 L2.20353488,21.95475 C2.20353488,21.71325 2.02344186,21.564 1.62083721,21.564 L0.709953488,21.564 L0.709953488,22.3575 L1.64539535,22.3575 L1.64539535,22.3575 Z M1.43627907,20.90475 C1.78455814,20.90475 2.00334884,20.79075 2.00334884,20.52225 L2.00334884,20.5125 C2.00334884,20.27475 1.81953488,20.142 1.48688372,20.142 L0.709953488,20.142 L0.709953488,20.90475 L1.43627907,20.90475 L1.43627907,20.90475 Z M-0.0565581395,19.84275 C-0.0565581395,19.6215 0.116837209,19.446 0.336372093,19.446 L1.60446512,19.446 C2.01451163,19.446 2.336,19.5585 2.54065116,19.7655 C2.70362791,19.9305 2.78548837,20.1315 2.78548837,20.379 L2.78548837,20.38875 C2.78548837,20.79675 2.57116279,21.02325 2.31516279,21.16725 C2.72967442,21.32625 2.98567442,21.5685 2.98567442,22.053 L2.98567442,22.0635 C2.98567442,22.72275 2.4535814,23.0535 1.64539535,23.0535 L0.336372093,23.0535 C0.116837209,23.0535 -0.0565581395,22.878 -0.0565581395,22.65525 L-0.0565581395,19.84275 L-0.0565581395,19.84275 Z M28.3266977,11.29275 L28.3266977,11.259 C28.3266977,9.1845 27.3227907,7.617 25.8314419,7.617 C24.340093,7.617 23.368186,9.1365 23.368186,11.22675 L23.368186,11.259 C23.368186,13.35075 24.3564651,14.90175 25.8634419,14.90175 C27.3704186,14.90175 28.3266977,13.3665 28.3266977,11.29275 L28.3266977,11.29275 Z M20.808186,11.29275 L20.808186,11.259 C20.808186,7.944 22.8494884,5.34675 25.8634419,5.34675 C28.8617674,5.34675 30.888186,7.91175 30.888186,11.22675 L30.888186,11.259 C30.888186,14.5755 28.8617674,17.172 25.8314419,17.172 C22.8011163,17.172 20.808186,14.60775 20.808186,11.29275 L20.808186,11.29275 Z M17.1453023,11.29275 L17.1453023,11.259 C17.1453023,9.1845 16.1406512,7.617 14.6500465,7.617 C13.1586977,7.617 12.1860465,9.1365 12.1860465,11.22675 L12.1860465,11.259 C12.1860465,13.35075 13.1743256,14.90175 14.6820465,14.90175 C16.1890233,14.90175 17.1453023,13.3665 17.1453023,11.29275 L17.1453023,11.29275 Z M9.62604651,11.29275 L9.62604651,11.259 C9.62604651,7.944 11.6673488,5.34675 14.6820465,5.34675 C17.6803721,5.34675 19.7060465,7.91175 19.7060465,11.22675 L19.7060465,11.259 C19.7060465,14.5755 17.6803721,17.172 14.6500465,17.172 C11.6189767,17.172 9.62604651,14.60775 9.62604651,11.29275 L9.62604651,11.29275 Z M0.972651163,16.09425 C0.680186047,15.882 0.469581395,15.555 0.469581395,15.1305 C0.469581395,14.47725 1.00465116,13.9215 1.65283721,13.9215 C1.94381395,13.9215 2.13953488,14.004 2.33302326,14.15025 C3.03032558,14.65725 3.69488372,14.886 4.48818605,14.886 C5.54195349,14.886 6.31962791,14.3145 6.31962791,13.3005 L6.31962791,13.26825 C6.31962791,12.28875 5.49432558,11.71725 4.31106977,11.71725 C3.3547907,11.71725 2.93283721,12.0105 2.59274419,12.0105 C2.23702326,12.0105 1.96093023,11.8635 1.45786047,11.505 C1.11776744,11.259 0.972651163,10.91625 1.00465116,10.4925 L1.23088372,6.621 C1.26362791,6.01725 1.7332093,5.54325 2.33302326,5.54325 L7.26027907,5.54325 C7.86009302,5.54325 8.36167442,6.0495 8.36167442,6.65325 C8.36167442,7.2585 7.86009302,7.7475 7.26027907,7.7475 L3.43516279,7.7475 L3.30567442,9.72375 C3.75888372,9.6105 4.16446512,9.52875 4.79627907,9.52875 C7.03255814,9.52875 8.76725581,10.60725 8.76725581,13.1865 L8.76725581,13.22025 C8.76725581,15.6375 7.03255814,17.172 4.53804651,17.172 C2.96483721,17.172 1.87906977,16.7475 0.972651163,16.09425 L0.972651163,16.09425 Z" id="Fill-1" ></path>
            <path d="M4.92204651,0.79275 L5.55683721,0.79275 C5.96837209,0.79275 6.22437209,0.9915 6.22437209,1.362 L6.22437209,1.3725 C6.22437209,1.6965 5.984,1.944 5.57246512,1.944 L4.92204651,1.944 L4.92204651,0.79275 L4.92204651,0.79275 Z M4.51125581,0.04425 C4.28055814,0.04425 4.09897674,0.22725 4.09897674,0.45825 L4.09897674,3.429 C4.09897674,3.65925 4.28055814,3.84225 4.51125581,3.84225 C4.74046512,3.84225 4.92204651,3.65925 4.92204651,3.429 L4.92204651,2.6805 L5.54567442,2.6805 C6.38437209,2.6805 7.05786047,2.22975 7.05786047,1.35675 L7.05786047,1.34625 C7.05786047,0.57675 6.5175814,0.04425 5.6267907,0.04425 L4.51125581,0.04425 L4.51125581,0.04425 Z M7.66437209,0.426 L7.66437209,3.39675 C7.66437209,3.627 7.84595349,3.8115 8.07590698,3.8115 L10.0085581,3.8115 C10.2169302,3.8115 10.3821395,3.64425 10.3821395,3.435 C10.3821395,3.22425 10.2169302,3.057 10.0085581,3.057 L8.48595349,3.057 L8.48595349,0.426 C8.48595349,0.195 8.30437209,0.012 8.07590698,0.012 C7.84595349,0.012 7.66437209,0.195 7.66437209,0.426 L7.66437209,0.426 Z M13.2383256,0.426 L13.2383256,2.20125 C13.2383256,2.799 12.9332093,3.10575 12.4308837,3.10575 C11.9293023,3.10575 11.6249302,2.78775 11.6249302,2.175 L11.6249302,0.426 C11.6249302,0.195 11.4433488,0.012 11.2141395,0.012 C10.984186,0.012 10.8026047,0.195 10.8026047,0.426 L10.8026047,2.1975 C10.8026047,3.3045 11.4173023,3.87 12.4212093,3.87 C13.4243721,3.87 14.0606512,3.3105 14.0606512,2.16975 L14.0606512,0.426 C14.0606512,0.195 13.8783256,0.012 13.6498605,0.012 C13.4191628,0.012 13.2383256,0.195 13.2383256,0.426 L13.2383256,0.426 Z M14.7892093,1.125 L14.7892093,1.137 C14.7892093,1.884 15.2751628,2.09325 16.0290233,2.28825 C16.6526512,2.4495 16.7821395,2.5575 16.7821395,2.7675 L16.7821395,2.77725 C16.7821395,2.9985 16.5782326,3.1335 16.2418605,3.1335 C15.8794419,3.1335 15.5698605,3.003 15.2863256,2.79525 C15.2327442,2.757 15.1575814,2.71875 15.0511628,2.71875 C14.8375814,2.71875 14.6671628,2.886 14.6671628,3.10125 C14.6671628,3.23025 14.7311628,3.34725 14.8212093,3.41325 C15.2386977,3.71325 15.7350698,3.8655 16.2254884,3.8655 C17.032186,3.8655 17.5992558,3.4455 17.5992558,2.697 L17.5992558,2.6865 C17.5992558,2.03025 17.1713488,1.755 16.4130233,1.5555 C15.7670698,1.3905 15.6063256,1.308 15.6063256,1.0605 L15.6063256,1.05 C15.6063256,0.867 15.7722791,0.72225 16.0870698,0.72225 C16.3430698,0.72225 16.6005581,0.813 16.872186,0.97575 C16.936186,1.0125 17.000186,1.03275 17.079814,1.03275 C17.2933953,1.03275 17.4653023,0.867 17.4653023,0.65175 C17.4653023,0.4905 17.3737674,0.378 17.2837209,0.324 C16.9473488,0.108 16.5514419,-0.0105 16.0974884,-0.0105 C15.3346977,-0.0105 14.7892093,0.4425 14.7892093,1.125 L14.7892093,1.125 Z M20.823814,0.7005 L21.4786977,0.7005 C22.1730233,0.7005 22.6411163,1.182 22.6411163,1.869 L22.6411163,1.881 C22.6411163,2.5695 22.1730233,3.04125 21.4786977,3.04125 L20.823814,3.04125 L20.823814,0.7005 L20.823814,0.7005 Z M20.4011163,-0.072 C20.1644651,-0.072 19.9769302,0.117 19.9769302,0.35625 L19.9769302,3.384 C19.9769302,3.6225 20.1644651,3.8115 20.4011163,3.8115 L21.4786977,3.8115 C22.6902326,3.8115 23.5266977,2.96175 23.5266977,1.869 L23.5266977,1.8585 C23.5266977,0.7665 22.6902326,-0.072 21.4786977,-0.072 L20.4011163,-0.072 L20.4011163,-0.072 Z M24.7062326,-0.072 C24.4695814,-0.072 24.2835349,0.117 24.2835349,0.35625 L24.2835349,3.384 C24.2835349,3.6225 24.4695814,3.8115 24.7062326,3.8115 L26.8688372,3.8115 C27.0786977,3.8115 27.2483721,3.64425 27.2483721,3.4335 C27.2483721,3.22275 27.0786977,3.051 26.8688372,3.051 L25.1237209,3.051 L25.1237209,2.23575 L26.5934884,2.23575 C26.8026047,2.23575 26.9730233,2.07 26.9730233,1.8585 C26.9730233,1.64775 26.8026047,1.47675 26.5934884,1.47675 L25.1237209,1.47675 L25.1237209,0.6885 L26.8413023,0.6885 C27.0511628,0.6885 27.2208372,0.52125 27.2208372,0.3105 C27.2208372,0.10125 27.0511628,-0.072 26.8413023,-0.072 L24.7062326,-0.072 L24.7062326,-0.072 Z" id="Fill-3" ></path>
        </g>
    </g>
</svg>