<?xml version="1.0" encoding="utf-8"?>
<!-- Generator: Adobe Illustrator 16.0.0, SVG Export Plug-In . SVG Version: 6.00 Build 0)  -->
<!DOCTYPE svg PUBLIC "-//W3C//DTD SVG 1.1//EN" "http://www.w3.org/Graphics/SVG/1.1/DTD/svg11.dtd">
<svg version="1.1" id="Layer_1" xmlns="http://www.w3.org/2000/svg" xmlns:xlink="http://www.w3.org/1999/xlink" x="0px" y="0px"
	 width="61px" height="12px" viewBox="42.938 0.562 61 12" enable-background="new 42.938 0.562 61 12" xml:space="preserve">
<g>
	<g>
		<g>
			<path d="M91.753,4.644c-2.094,0.004-3.785,1.705-3.78,3.795c0.006,2.149,1.795,3.877,3.965,3.777
				c1.93-0.087,3.517-1.674,3.606-3.604C95.646,6.438,93.907,4.641,91.753,4.644z M91.764,10.785
				c-1.271,0.004-2.303-1.049-2.306-2.348c-0.002-1.299,1.024-2.354,2.297-2.356c1.271-0.002,2.304,1.048,2.306,2.349
				C94.062,9.727,93.034,10.783,91.764,10.785z"/>
			<path d="M62.466,6.094c-1.475,0.002-2.198,1.123-2.196,2.712v3.301h-1.611V8.811c-0.006-2.581,1.671-4.161,3.982-4.164
				c2.293-0.006,3.647,1.666,3.647,4.15v3.311h-1.61v-3.31C64.675,7.254,64.072,6.09,62.466,6.094z"/>
			<path d="M99.834,6.094c-1.477,0.002-2.197,1.123-2.195,2.712v3.301h-1.611V8.811c-0.006-2.58,1.67-4.16,3.981-4.164
				c2.294-0.006,3.647,1.666,3.647,4.15v3.311h-1.612v-3.31C102.043,7.254,101.439,6.09,99.834,6.094z"/>
			<path d="M80.407,8.428c-0.007-2.091-1.703-3.782-3.796-3.779c-2.09,0.005-3.782,1.821-3.778,3.912
				c0.005,2.092,1.701,3.666,3.794,3.662c0.887-0.002,1.895-0.445,2.337-1.053v0.938l1.443,0.002V8.428z M76.625,10.785
				c-1.247,0.004-2.262-1.049-2.264-2.346c-0.004-1.297,1.007-2.353,2.255-2.354c1.245-0.003,2.26,1.047,2.264,2.347
				C78.881,9.729,77.872,10.783,76.625,10.785z"/>
			<path d="M80.884,2.794v6.433c-0.004,2.267,1.457,3.584,4.576,2.738l-0.349-1.301c-1.623,0.539-2.676-0.048-2.672-1.771
				c0,0,0-1.816,0-2.829h2.613V4.759h-2.613V2.794H80.884z"/>
			<g>
				<path d="M86.939,3.179c0.338-0.078,0.611-0.354,0.688-0.692c0.14-0.613-0.323-1.154-0.914-1.154
					c-0.516,0.001-0.937,0.421-0.935,0.938C85.779,2.861,86.327,3.321,86.939,3.179z"/>
				<polygon points="87.494,12.107 87.494,4.761 85.939,4.761 85.938,12.107 				"/>
			</g>
			<path d="M46.813,10.711c1.43,0,1.956-0.941,1.956-1.744c0-2.376-5.553-1.426-5.553-4.979c0-1.678,1.052-3.114,3.578-3.114
				c1.12,0,2.106,0.202,3.102,0.507l-0.37,1.505C48.393,2.538,47.62,2.38,46.564,2.38c-1.182,0-1.639,0.653-1.639,1.288
				c0,2.523,5.61,1.66,5.61,5.041c0,1.975-1.232,3.514-3.632,3.514c-1.151,0-2.587-0.214-3.679-0.816l0.53-1.434
				C44.916,10.527,45.828,10.711,46.813,10.711z"/>
			<path d="M68.38,6.654c0-0.394,0.302-0.717,1.147-0.717c0.754,0,1.521,0.22,2.179,0.583l0.465-1.266
				c-0.698-0.381-1.582-0.61-2.463-0.61c-1.985,0-2.858,1.05-2.858,2.17c0,2.504,4.229,1.767,4.229,3.138
				c0,0.511-0.486,0.979-1.488,0.979c-0.773,0-1.529-0.224-2.322-0.652l-0.5,1.207c0.836,0.508,1.824,0.736,2.896,0.736
				c1.887,0,2.909-1.027,2.909-2.348C72.57,7.191,68.38,7.873,68.38,6.654z"/>
			<path d="M58.091,7.271c-0.336-1.575-1.674-2.629-3.362-2.626c-2.088,0.005-3.717,1.702-3.714,3.792
				c0.004,2.149,1.729,3.785,3.893,3.785c1.081,0,2.194-0.347,2.934-1.015l-0.735-1.128c-0.547,0.504-1.256,0.753-2.062,0.753
				c-1.188,0-2.343-0.899-2.509-1.927c0,0,2.959,0,4.253,0C58.118,8.906,58.34,8.447,58.091,7.271z M56.282,7.66
				c-0.271,0-3.704,0-3.704,0c0.316-0.92,1.125-1.577,2.152-1.579c1-0.001,1.605,0.521,1.803,1.2
				C56.604,7.527,56.576,7.66,56.282,7.66z"/>
		</g>
	</g>
</g>
</svg>
