<?xml version="1.0" encoding="utf-8"?>
<!-- Generator: Adobe Illustrator 16.0.0, SVG Export Plug-In . SVG Version: 6.00 Build 0)  -->
<!DOCTYPE svg PUBLIC "-//W3C//DTD SVG 1.1//EN" "http://www.w3.org/Graphics/SVG/1.1/DTD/svg11.dtd">
<svg version="1.1" id="Layer_1" xmlns="http://www.w3.org/2000/svg" xmlns:xlink="http://www.w3.org/1999/xlink" x="0px" y="0px"
	 width="38.079px" height="42.014px" viewBox="0 0 38.079 42.014" enable-background="new 0 0 38.079 42.014" xml:space="preserve">
<g>
	<g>
		<defs>
			<rect id="SVGID_1_" y="0" width="38.079" height="42.014"/>
		</defs>
		<clipPath id="SVGID_2_">
			<use xlink:href="#SVGID_1_"  overflow="visible"/>
		</clipPath>
		<path clip-path="url(#SVGID_2_)" d="M38.079,10.633c0,0.623-0.512,1.135-1.135,1.135h-7.047
			c-0.623,0-1.133-0.512-1.133-1.135V3.586c0-0.625,0.51-1.135,1.133-1.135h7.047c0.623,0,1.135,0.51,1.135,1.135V10.633z"/>
	</g>
	<g>
		<defs>
			<rect id="SVGID_3_" y="0" width="38.079" height="42.014"/>
		</defs>
		<clipPath id="SVGID_4_">
			<use xlink:href="#SVGID_3_"  overflow="visible"/>
		</clipPath>
		<path clip-path="url(#SVGID_4_)" d="M38.079,10.633c0,0.623-0.512,1.135-1.135,1.135h-7.047
			c-0.623,0-1.133-0.512-1.133-1.135V3.586c0-0.625,0.51-1.135,1.133-1.135h7.047c0.623,0,1.135,0.51,1.135,1.135V10.633z"/>
	</g>
	<g>
		<defs>
			<rect id="SVGID_5_" y="0" width="38.079" height="42.014"/>
		</defs>
		<clipPath id="SVGID_6_">
			<use xlink:href="#SVGID_5_"  overflow="visible"/>
		</clipPath>
		<path clip-path="url(#SVGID_6_)" d="M20.297,39.408c0,1.356-1.113,2.471-2.472,2.471H2.472
			C1.112,41.879,0,40.766,0,39.408V24.053c0-1.359,1.112-2.471,2.472-2.471h15.353c1.359,0,2.472,1.11,2.472,2.471V39.408z"/>
	</g>
</g>
<g display="none">
	<g display="inline">
		<defs>
			<path id="SVGID_7_" d="M2.471,21.582c-1.359,0-2.47,1.112-2.47,2.471v15.355c0,1.357,1.111,2.471,2.47,2.471h15.354
				c1.358,0,2.472-1.112,2.472-2.471V24.053c0-1.357-1.113-2.471-2.472-2.471H2.471z"/>
		</defs>
		<clipPath id="SVGID_8_">
			<use xlink:href="#SVGID_7_"  overflow="visible"/>
		</clipPath>
		<polygon clip-path="url(#SVGID_8_)" fill="#00C4B3" points="10.622,42.014 2.338,42.014 28.676,0.814 36.959,0.814 		"/>
	</g>
</g>
<g>
	<g>
		<defs>
			<rect id="SVGID_9_" y="0" width="38.079" height="42.014"/>
		</defs>
		<clipPath id="SVGID_10_">
			<use xlink:href="#SVGID_9_"  overflow="visible"/>
		</clipPath>
		<path clip-path="url(#SVGID_10_)" d="M20.297,39.408c0,1.356-1.113,2.471-2.472,2.471H2.472
			C1.112,41.879,0,40.766,0,39.408V24.053c0-1.359,1.112-2.471,2.472-2.471h15.353c1.359,0,2.472,1.11,2.472,2.471V39.408z"/>
	</g>
	<g>
		<defs>
			<rect id="SVGID_11_" y="0" width="38.079" height="42.014"/>
		</defs>
		<clipPath id="SVGID_12_">
			<use xlink:href="#SVGID_11_"  overflow="visible"/>
		</clipPath>
		<path clip-path="url(#SVGID_12_)" d="M31.547,30.439c0,0.625-0.51,1.136-1.133,1.136H23.37
			c-0.623,0-1.133-0.511-1.133-1.136v-7.047c0-0.623,0.51-1.135,1.133-1.135h7.045c0.623,0,1.133,0.512,1.133,1.135V30.439z"/>
	</g>
	<g>
		<defs>
			<rect id="SVGID_13_" y="0" width="38.079" height="42.014"/>
		</defs>
		<clipPath id="SVGID_14_">
			<use xlink:href="#SVGID_13_"  overflow="visible"/>
		</clipPath>
		<path clip-path="url(#SVGID_14_)" d="M31.547,30.439c0,0.625-0.51,1.136-1.133,1.136H23.37
			c-0.623,0-1.133-0.511-1.133-1.136v-7.047c0-0.623,0.51-1.135,1.133-1.135h7.045c0.623,0,1.133,0.512,1.133,1.135V30.439z"/>
	</g>
	<g>
		<defs>
			<rect id="SVGID_15_" y="0" width="38.079" height="42.014"/>
		</defs>
		<clipPath id="SVGID_16_">
			<use xlink:href="#SVGID_15_"  overflow="visible"/>
		</clipPath>
		<path clip-path="url(#SVGID_16_)" d="M24.264,18.248c0,0.858-0.702,1.562-1.561,1.562h-9.711
			c-0.859,0-1.564-0.703-1.564-1.562V8.537c0-0.859,0.705-1.563,1.564-1.563h9.711c0.857,0,1.561,0.704,1.561,1.563V18.248z"/>
	</g>
	<g>
		<defs>
			<rect id="SVGID_17_" y="0" width="38.079" height="42.014"/>
		</defs>
		<clipPath id="SVGID_18_">
			<use xlink:href="#SVGID_17_"  overflow="visible"/>
		</clipPath>
		<path clip-path="url(#SVGID_18_)" d="M24.264,18.248c0,0.858-0.702,1.562-1.561,1.562h-9.711
			c-0.859,0-1.564-0.703-1.564-1.562V8.537c0-0.859,0.705-1.563,1.564-1.563h9.711c0.857,0,1.561,0.704,1.561,1.563V18.248z"/>
	</g>
	<g>
		<defs>
			<rect id="SVGID_19_" y="0" width="38.079" height="42.014"/>
		</defs>
		<clipPath id="SVGID_20_">
			<use xlink:href="#SVGID_19_"  overflow="visible"/>
		</clipPath>
		<path clip-path="url(#SVGID_20_)" d="M26.564,4.801c0,0.367-0.3,0.666-0.666,0.666h-4.137
			c-0.367,0-0.666-0.299-0.666-0.666V0.666C21.096,0.297,21.395,0,21.762,0h4.137c0.366,0,0.666,0.297,0.666,0.666L26.564,4.801
			L26.564,4.801z"/>
	</g>
	<g>
		<defs>
			<rect id="SVGID_21_" y="0" width="38.079" height="42.014"/>
		</defs>
		<clipPath id="SVGID_22_">
			<use xlink:href="#SVGID_21_"  overflow="visible"/>
		</clipPath>
		<path clip-path="url(#SVGID_22_)" d="M26.665,4.801c0,0.367-0.301,0.666-0.666,0.666h-4.137
			c-0.367,0-0.666-0.299-0.666-0.666V0.666C21.196,0.297,21.495,0,21.862,0h4.137c0.365,0,0.666,0.297,0.666,0.666V4.801z"/>
	</g>
</g>
</svg>
