<?xml version="1.0" encoding="utf-8"?>
<!-- Generator: Adobe Illustrator 19.0.0, SVG Export Plug-In . SVG Version: 6.00 Build 0)  -->
<svg version="1.1" id="Layer_1" xmlns="http://www.w3.org/2000/svg" xmlns:xlink="http://www.w3.org/1999/xlink" x="0px" y="0px"
	 viewBox="-155 337.1 879.8 167.7" style="enable-background:new -155 337.1 879.8 167.7;" xml:space="preserve">
<style type="text/css">
	.st0{fill:#009DCC;}
</style>
<g>
	<g>
		<path class="st0" d="M310,441.2h9.2v-32c0-19.4,10-31.5,26.2-31.5c16.8,0,26.2,11.1,26.2,31.4v32.1h9.3v-31.6
			c0-24.7-12.1-40.1-33.5-40.1c-25,0-37.4,15.8-37.3,40.3L310,441.2L310,441.2z"/>
	</g>
	<g>
		<path class="st0" d="M644.4,441.2h9.2v-32c0-19.4,10-31.5,26.1-31.5c16.9,0,26.2,11.1,26.3,31.4v32.1h9.3v-31.6
			c0-24.7-12.1-40.1-33.6-40.1c-24.9,0-37.3,15.8-37.3,40.3V441.2z"/>
	</g>
	<g>
		<path class="st0" d="M472.8,442.6c18.2,0,27.1-15.8,27.1-15.8v14.4l8.6,0V406c0-20.1-16.1-36.5-35.8-36.5
			c-19.5,0-35.8,17.4-35.8,37.9C437,427.1,452.2,442.6,472.8,442.6 M472.8,433.9c-14.6,0-26.4-12.6-26.4-27.8
			c0-15.2,12.2-27.9,26.3-27.9h0.1c14.5,0,26.3,12.4,26.3,27.8C499.1,421.3,487.3,433.9,472.8,433.9"/>
	</g>
	<g>
		<path class="st0" d="M385.5,436.9c6.3,3.3,14.8,5.6,24.3,5.6c14.8,0,24.9-8.4,24.9-21.5c0-13.2-9.7-17.2-23.2-21.3
			c-8.4-2.4-15.9-4.7-15.9-12.3c0-3.1,1.3-10.1,13.4-10.1c7.3,0,13.3,1.6,19.5,4.6l2.4-7.6c-6.4-3.4-13.9-4.9-20.2-4.9
			c-16.9,0-24.3,8.9-24.3,19.6c0,11.7,9.6,15.4,22.7,19.2c9.2,2.6,16.7,5.3,16.7,13.6c0,6.6-5.2,12.8-16.6,12.8
			c-7,0-14.9-2.1-21-5.7L385.5,436.9z"/>
	</g>
	<g>
		<path class="st0" d="M513.1,350.2v64.3c0,9.2,2.1,16.5,6.6,21.3c6.7,6.9,17,8.6,31.9,4.9l-1.8-7.8c-18.5,4.8-27.4-1.3-27.4-21V378
			h25.8v-7.6h-25.8v-20.2H513.1z"/>
	</g>
	<g>
		<rect x="554.5" y="370.4" class="st0" width="9.2" height="70.8"/>
	</g>
	<g>
		<path class="st0" d="M565.5,345.7c0-3.8-3-6.7-6.7-6.7c-3.7,0-6.6,2.9-6.6,6.7c0,3.6,3,6.6,6.6,6.6
			C562.5,352.3,565.5,349.4,565.5,345.7"/>
	</g>
	<g>
		<path class="st0" d="M604.1,369.5c-19.8,0-35.8,16.4-35.8,36.6c0,20.1,16,36.5,35.8,36.5c19.8,0,35.8-16.4,35.8-36.5
			C639.8,385.9,623.8,369.5,604.1,369.5 M604.1,434.5c-15.1,0-27.3-12.9-27.3-28.5c0-15.8,12.2-28.5,27.3-28.5
			c15.1,0,27.3,12.7,27.3,28.5C631.4,421.6,619.2,434.5,604.1,434.5"/>
	</g>
	<g>
		<path class="st0" d="M171.7,435.9c8.5,4,17,6.6,31.5,6.6c17.4,0,32-10.8,32-29.7c0-15.7-12.5-22.7-27.2-28
			c-13.1-4.8-26.5-9.7-26.5-23.4c0-8.8,6-15.8,19.7-15.8c10.1,0,17,1.5,26.3,4.2l2.2-8.7c-9.7-2.7-18.1-4-26.8-4
			c-18.9,0-30.8,10.3-30.8,25.5c0,15.1,10.3,22.4,28.1,29.3c12.3,4.8,25.2,8.9,25.2,21.6c0,11.4-7.4,20.6-23.1,20.6
			c-10,0-17.7-2.2-27.5-6.5L171.7,435.9z"/>
	</g>
	<g>
		<path class="st0" d="M274,369.5c-19.7,0-35,16.2-35,36.6c0,20.5,16.1,36.5,36.9,36.5c9.8,0,19.2-3.1,25.9-8l-4-6.6
			c-5.8,4.3-12.8,6.7-20.5,6.7c-18.6,0-28.4-13-29.1-27.1H293c10.1,0,13.5-4.2,11.9-14.1C302.9,380.1,288.9,369.5,274,369.5
			 M293.8,400H248c1.6-11.4,10.6-22.6,26-22.7h0c14.2,0,22.5,10.5,22.5,19.3C296.5,398.7,296.1,400,293.8,400"/>
	</g>
	<g>
		<path class="st0" d="M-98.1,382.3c5.1-5,8.3-11.6,8.3-18.1c0-16.5-11.1-27.1-30.5-27.1h-17.2H-155v27.2v53
			c0,9.1,1.6,15.3,5.4,19.3c3.8,4,9.5,5.9,28.3,5.9c27.5,0,41.8-13.4,41.8-33C-79.6,397.4-85.3,387-98.1,382.3 M-139.4,364.1v-13.9
			h2.6h13.1c8.4,0,19.2,2.5,19.2,13.7c0,10-9.2,14.7-17.7,14.7h-17.2C-139.4,378.6-139.4,364.1-139.4,364.1z M-118.3,429
			c-12.5,0-16.6-0.2-18.7-2.4c-2.2-2.3-2.4-6.8-2.4-14.7v-20.2h21c16.5,0,23.1,7.9,23.1,18.8C-95.4,422.4-103.7,429-118.3,429"/>
	</g>
	<g>
		<path class="st0" d="M-73.2,339.7v66.5c0,20.1,16.2,36.4,36.3,36.3c20.1,0,36.4-17.5,36.3-37.6c0-20.1-15.1-35.2-35.2-35.2
			c-8.5,0-18.2,4.3-22.4,10.1c0,0,0-32.9,0-40.2H-73.2L-73.2,339.7z M-36.9,428.8c-12,0-21.7-10.1-21.8-22.6
			c0-12.5,9.7-22.6,21.7-22.6c12,0,21.7,10.1,21.8,22.5C-15.3,418.6-25,428.7-36.9,428.8"/>
	</g>
	<g>
		<path class="st0" d="M133.5,406.2c10.1-5.8,16.9-17.6,15.6-35h-14.7c1.1,16.3-6.4,28.9-19,28.9c-12.6,0-20-12.8-19.2-28.9H81.7
			c-1.4,16.9,5.1,28.7,15.7,35.2c-10.5,6.2-16.9,17.8-15.7,35.2h14.7c-0.7-17.7,5.9-28.9,19-28.9c13.1,0,19.9,11.4,19.2,28.9h14.5
			C150.6,423.4,143.9,412,133.5,406.2"/>
	</g>
	<g>
		<path class="st0" d="M42.2,369.5c-20.2,0-36.5,16.4-36.5,36.6c0,20.2,16.4,36.5,36.6,36.5c20.2,0,36.5-16.4,36.5-36.7
			C78.8,385.8,62.4,369.4,42.2,369.5 M42.3,428.7c-12.3,0-22.2-10.1-22.2-22.7c0-12.5,9.9-22.7,22.2-22.7
			c12.3,0,22.2,10.1,22.2,22.6C64.5,418.5,54.6,428.7,42.3,428.7"/>
	</g>
	<g>
		<polygon class="st0" points="311.2,504.3 311.2,476.2 301.2,476.2 301.2,470.4 328.1,470.4 328.1,476.2 318,476.2 318,504.3 		"/>
	</g>
	<g>
		<path class="st0" d="M332.5,504.3v-33.9h14.4c3.6,0,6.2,0.3,7.9,0.9c1.6,0.6,3,1.7,3.9,3.2s1.5,3.3,1.5,5.3c0,2.5-0.7,4.6-2.2,6.3
			c-1.5,1.7-3.7,2.7-6.7,3.1c1.5,0.9,2.7,1.8,3.7,2.8c1,1,2.3,2.9,3.9,5.5l4.1,6.6h-8.2l-4.9-7.4c-1.8-2.6-3-4.3-3.6-5
			c-0.6-0.7-1.3-1.2-2.1-1.4c-0.7-0.3-1.9-0.4-3.4-0.4h-1.4v14.1L332.5,504.3L332.5,504.3z M339.3,484.8h5.1c3.3,0,5.3-0.1,6.1-0.4
			c0.8-0.3,1.5-0.8,1.9-1.4c0.5-0.7,0.7-1.5,0.7-2.5c0-1.1-0.3-2.1-0.9-2.8c-0.6-0.7-1.5-1.1-2.6-1.3c-0.6-0.1-2.2-0.1-5-0.1h-5.3
			L339.3,484.8L339.3,484.8z"/>
	</g>
	<g>
		<path class="st0" d="M366.6,504.3v-33.9h25.1v5.7h-18.3v7.5h17v5.7h-17v9.2h18.9v5.7L366.6,504.3L366.6,504.3z M383.1,468.5H379
			l-6.4-6.9h7.3L383.1,468.5z"/>
	</g>
	<g>
		<path class="st0" d="M396.4,493.3l6.6-0.6c0.4,2.2,1.2,3.9,2.4,4.9c1.2,1,2.9,1.6,5,1.6c2.2,0,3.9-0.5,5-1.4
			c1.1-0.9,1.7-2,1.7-3.3c0-0.8-0.2-1.5-0.7-2c-0.5-0.6-1.3-1.1-2.5-1.5c-0.8-0.3-2.6-0.8-5.5-1.5c-3.7-0.9-6.2-2-7.7-3.3
			c-2.1-1.9-3.1-4.1-3.1-6.8c0-1.7,0.5-3.3,1.5-4.8c1-1.5,2.4-2.6,4.2-3.4c1.8-0.8,4.1-1.2,6.7-1.2c4.2,0,7.4,0.9,9.6,2.8
			c2.1,1.9,3.3,4.3,3.4,7.5l-6.8,0.3c-0.3-1.7-0.9-3-1.9-3.8s-2.4-1.1-4.3-1.1c-2,0-3.5,0.4-4.7,1.2c-0.7,0.5-1.1,1.2-1.1,2.1
			c0,0.8,0.3,1.5,1,2.1c0.9,0.7,3,1.5,6.3,2.3c3.3,0.8,5.8,1.6,7.4,2.4c1.6,0.8,2.8,2,3.7,3.4c0.9,1.5,1.4,3.3,1.4,5.4
			c0,1.9-0.5,3.8-1.6,5.4c-1.1,1.7-2.6,3-4.6,3.8c-2,0.8-4.4,1.2-7.4,1.2c-4.3,0-7.6-1-9.9-3C398.3,499.9,396.9,497.1,396.4,493.3"
			/>
	</g>
	<g>
		<polygon class="st0" points="442.9,504.3 442.9,470.4 449.7,470.4 449.7,483.8 463.1,483.8 463.1,470.4 469.9,470.4 469.9,504.3 
			463.1,504.3 463.1,489.5 449.7,489.5 449.7,504.3 		"/>
	</g>
	<g>
		<path class="st0" d="M507.5,504.3h-7.4l-3-7.7h-13.5l-2.8,7.7h-7.2l13.2-33.9h7.2L507.5,504.3z M494.9,490.9l-4.7-12.6l-4.6,12.6
			H494.9z"/>
	</g>
	<g>
		<path class="st0" d="M511.1,470.4h6.8v18.3c0,2.9,0.1,4.8,0.3,5.7c0.3,1.4,1,2.5,2.1,3.3c1.1,0.8,2.6,1.3,4.5,1.3
			c1.9,0,3.4-0.4,4.4-1.2c1-0.8,1.6-1.8,1.8-2.9c0.2-1.2,0.3-3.1,0.3-5.7v-18.7h6.8v17.8c0,4.1-0.2,6.9-0.6,8.6
			c-0.4,1.7-1.1,3.1-2,4.2c-1,1.2-2.3,2.1-4,2.8c-1.7,0.7-3.8,1-6.5,1c-3.2,0-5.7-0.4-7.4-1.1c-1.7-0.7-3-1.7-4-2.9
			c-1-1.2-1.6-2.4-1.9-3.8c-0.4-1.9-0.7-4.8-0.7-8.6L511.1,470.4L511.1,470.4z"/>
	</g>
	<g>
		<polygon class="st0" points="552.9,504.3 552.9,476.2 542.9,476.2 542.9,470.4 569.8,470.4 569.8,476.2 559.8,476.2 559.8,504.3 
					"/>
	</g>
	<g>
		<path class="st0" d="M587.3,470.4h12.5c2.8,0,5,0.2,6.4,0.6c2,0.6,3.7,1.6,5.1,3.1c1.4,1.5,2.5,3.3,3.2,5.5c0.7,2.2,1.1,4.8,1.1,8
			c0,2.8-0.3,5.2-1,7.2c-0.8,2.5-2.1,4.5-3.6,6c-1.2,1.2-2.8,2.1-4.8,2.7c-1.5,0.5-3.5,0.7-6.1,0.7h-12.9L587.3,470.4L587.3,470.4z
			 M594.1,476.2v22.4h5.1c1.9,0,3.3-0.1,4.1-0.3c1.1-0.3,2-0.7,2.8-1.4c0.7-0.7,1.3-1.8,1.8-3.3s0.7-3.6,0.7-6.2
			c0-2.6-0.2-4.6-0.7-6s-1.1-2.5-1.9-3.3c-0.8-0.8-1.9-1.3-3.2-1.6c-1-0.2-2.8-0.3-5.6-0.3L594.1,476.2L594.1,476.2z"/>
	</g>
	<g>
		<path class="st0" d="M621.5,504.3v-33.9h25.1v5.7h-18.3v7.5h17v5.7h-17v9.2h18.9v5.7L621.5,504.3L621.5,504.3z M630.2,468.5
			l3.2-6.9h7.3l-6.3,6.9H630.2z"/>
	</g>
	<g>
		<path class="st0" d="M653,470.4h13.5c2.7,0,4.7,0.1,6,0.3c1.3,0.2,2.5,0.7,3.5,1.4c1,0.7,1.9,1.6,2.6,2.8c0.7,1.2,1,2.5,1,4
			c0,1.6-0.4,3-1.3,4.4c-0.9,1.3-2,2.3-3.5,3c2.1,0.6,3.6,1.6,4.8,3.1c1.1,1.4,1.7,3.1,1.7,5.1c0,1.5-0.4,3-1.1,4.5
			c-0.7,1.5-1.7,2.6-2.9,3.5c-1.2,0.9-2.8,1.4-4.6,1.6c-1.1,0.1-3.9,0.2-8.2,0.2H653L653,470.4L653,470.4z M659.9,476.1v7.8h4.5
			c2.7,0,4.3,0,5-0.1c1.2-0.1,2.1-0.5,2.8-1.2c0.7-0.7,1-1.6,1-2.6c0-1-0.3-1.9-0.9-2.6c-0.6-0.7-1.4-1.1-2.6-1.2
			c-0.7-0.1-2.6-0.1-5.8-0.1H659.9z M659.9,489.5v9.1h6.3c2.5,0,4-0.1,4.7-0.2c1-0.2,1.8-0.6,2.5-1.4s1-1.7,1-2.9
			c0-1-0.2-1.9-0.7-2.6c-0.5-0.7-1.2-1.2-2.1-1.5c-0.9-0.3-3-0.5-6.1-0.5H659.9z"/>
	</g>
	<g>
		<rect x="687" y="470.4" class="st0" width="6.8" height="33.9"/>
	</g>
	<g>
		<polygon class="st0" points="707.9,504.3 707.9,476.2 697.9,476.2 697.9,470.4 724.8,470.4 724.8,476.2 714.8,476.2 714.8,504.3 
					"/>
	</g>
</g>
</svg>
