<?xml version="1.0" encoding="UTF-8" standalone="no"?>
<svg width="42px" height="32px" viewBox="0 0 42 32" version="1.1" xmlns="http://www.w3.org/2000/svg" xmlns:xlink="http://www.w3.org/1999/xlink" xmlns:sketch="http://www.bohemiancoding.com/sketch/ns">
    <!-- Generator: Sketch 3.1.1 (8761) - http://www.bohemiancoding.com/sketch -->
    <title>icon-internet-modem-gps@1x</title>
    <desc></desc>
    <defs></defs>
    <g id="Page-1" stroke="none" stroke-width="1"  fill-rule="evenodd" >
        <g id="icon-internet-modem-gps"  transform="translate(0.000000, 1.000000)">
            <path d="M41.4925,17.1297778 L36.000125,2.06488889 C35.8785,1.84977778 35.599375,1.47288889 35.100625,1.47288889 C35.048125,1.47288889 34.993,1.47822222 34.93525,1.48711111 L27.13025,4.424 C26.886125,4.57688889 26.515125,4.912 26.61575,5.496 L32.136125,20.6328889 C32.288375,20.8915556 32.650625,21.3235556 33.3025,21.1502222 L40.882625,18.2995556 C41.103125,18.1848889 41.635125,17.8328889 41.4925,17.1297778 L41.4925,17.1297778 Z M39.570125,16.1466667 L34.3035,18.128 L33.004125,18.6168889 C32.88425,18.6622222 32.778375,18.6817778 32.68125,18.6817778 C32.16325,18.6817778 31.962,18.1306667 31.962,18.1306667 L27.66225,6.34133333 C27.381375,5.56888889 28.14175,5.28177778 28.14175,5.28177778 L29.999375,4.58311111 L34.70775,2.81155556 C35.468125,2.52533333 35.7315,3.24711111 35.7315,3.24711111 L40.04875,15.088 C40.3305,15.8604444 39.570125,16.1466667 39.570125,16.1466667 L39.570125,16.1466667 Z" id="Fill-1" ></path>
            <path d="M18.83175,6.96888889 C19.08375,7.96977778 19.592125,8.86755556 20.286875,9.57333333 C20.479375,9.76977778 20.79175,9.768 20.98425,9.57333333 C21.177625,9.37777778 21.177625,9.06133333 20.98425,8.86577778 C20.27025,8.13866667 19.812625,7.16888889 19.691875,6.09511111 C19.67175,5.92 19.639375,5.74933333 19.639375,5.56888889 C19.639375,4.27822222 20.153,3.11555556 20.98425,2.272 C21.177625,2.07377778 21.177625,1.75911111 20.98425,1.56177778 C20.888875,1.464 20.76375,1.41422222 20.636,1.41422222 C20.510875,1.41422222 20.384875,1.464 20.286875,1.56177778 C19.278875,2.58577778 18.652375,4.00444444 18.652375,5.56888889 C18.652375,6.05333333 18.71975,6.52 18.83175,6.96888889" id="Fill-2" ></path>
            <path d="M24.229625,6.62044444 C24.80275,6.62044444 25.265625,6.15022222 25.265625,5.56888889 C25.265625,4.98666667 24.80275,4.51644444 24.229625,4.51644444 C23.657375,4.51644444 23.193625,4.98577778 23.193625,5.56888889 C23.193625,6.15022222 23.657375,6.62044444 24.229625,6.62044444" id="Fill-3" ></path>
            <path d="M18.718875,11.1671111 C18.91225,11.3617778 19.222875,11.3617778 19.417125,11.1671111 C19.60875,10.9697778 19.607,10.6533333 19.41625,10.4577778 L19.41625,10.4613333 C18.727625,9.76088889 18.193875,8.90933333 17.85,7.96622222 C17.57875,7.21866667 17.422125,6.41333333 17.422125,5.56888889 C17.422125,3.65511111 18.1825,1.92977778 19.41625,0.676444444 C19.60875,0.481777778 19.60875,0.164444444 19.417125,-0.032 C19.319125,-0.129777778 19.193125,-0.177777778 19.06625,-0.177777778 C18.939375,-0.177777778 18.81425,-0.129777778 18.718875,-0.032 C17.3075,1.39822222 16.43425,3.38311111 16.43425,5.56888889 C16.43425,6.69511111 16.671375,7.76711111 17.089625,8.73866667 C17.4825,9.64977778 18.0355,10.4746667 18.718875,11.1671111" id="Fill-4" ></path>
            <path d="M20.747125,5.56888889 C20.747125,6.54222222 21.137375,7.43111111 21.765625,8.07022222 C21.959,8.26666667 22.27225,8.26666667 22.46475,8.07022222 C22.656375,7.87555556 22.656375,7.55822222 22.46475,7.36177778 L22.46475,7.36355556 C22.0115,6.90044444 21.73325,6.272 21.73325,5.56888889 C21.73325,4.86577778 22.0115,4.23555556 22.46475,3.77333333 C22.619625,3.61688889 22.64325,3.38222222 22.54875,3.19377778 C22.526,3.14844444 22.502375,3.10311111 22.46475,3.06488889 C22.3685,2.96622222 22.24075,2.91733333 22.115625,2.91733333 C21.989625,2.91733333 21.86275,2.96622222 21.765625,3.06488889 C21.27125,3.56888889 20.9335,4.22844444 20.8075,4.96177778 C20.77425,5.16088889 20.747125,5.36088889 20.747125,5.56888889" id="Fill-5" ></path>
            <path d="M5.04525,28.1884444 L26.936,28.1884444 C27.454875,28.1884444 27.874,27.7626667 27.874,27.2373333 L27.874,13.8933333 C27.874,13.3671111 27.454875,12.9404444 26.936,12.9404444 L5.04525,12.9404444 C4.52725,12.9404444 4.10725,13.3671111 4.10725,13.8933333 L4.10725,27.2373333 C4.10725,27.7626667 4.52725,28.1884444 5.04525,28.1884444 L5.04525,28.1884444 Z M5.3585,14.2106667 L26.62275,14.2106667 L26.62275,26.9191111 L5.3585,26.9191111 L5.3585,14.2106667 Z" id="Fill-6" ></path>
            <path d="M18.18075,29.1413333 L18.18075,29.4613333 C18.18075,29.6346667 18.039875,29.7768889 17.8675,29.7768889 L14.114625,29.7768889 C14.086625,29.7768889 14.0595,29.7671111 14.034125,29.7608889 C13.901125,29.7226667 13.801375,29.6062222 13.801375,29.4613333 L13.801375,29.1413333 L0.35525,29.1413333 L0.35525,29.7768889 C0.35525,29.7768889 0.35525,30.5822222 1.08325,30.7128889 L30.89625,30.7128889 C31.626,30.5822222 31.626,29.7768889 31.626,29.7768889 L31.626,29.1413333 L18.18075,29.1413333" id="Fill-7" ></path>
        </g>
    </g>
</svg>