<?xml version="1.0" encoding="UTF-8" standalone="no"?>
<svg width="36px" height="16px" viewBox="0 0 36 16" version="1.1" xmlns="http://www.w3.org/2000/svg" xmlns:xlink="http://www.w3.org/1999/xlink" xmlns:sketch="http://www.bohemiancoding.com/sketch/ns">
    <!-- Generator: Sketch 3.1.1 (8761) - http://www.bohemiancoding.com/sketch -->
    <title>icon-meilleuresoffres@1x</title>
    <desc></desc>
    <defs></defs>
    <g id="Page-1" stroke="none" stroke-width="1"  fill-rule="evenodd" >
        <g id="icon-meilleuresoffres">
            <path d="M7.8615,0.0886666667 C4.96285714,0.0886666667 2.86007143,2.14133333 2.06485714,5 L0.921214286,5 C0.431357143,5 0.0424285714,5.4 0.0424285714,5.90933333 C0.0424285714,6.396 0.431357143,6.798 0.921214286,6.798 L1.73764286,6.798 C1.6965,7.11533333 1.6965,7.45466667 1.6965,7.772 C1.6965,8.04666667 1.6965,8.32133333 1.71707143,8.576 L0.921214286,8.576 C0.431357143,8.576 0.0424285714,9 0.0424285714,9.48733333 C0.0424285714,9.99466667 0.431357143,10.3966667 0.921214286,10.3966667 L2.02371429,10.3966667 C2.79835714,13.4026667 4.92171429,15.4153333 7.94378571,15.4153333 C10.0446429,15.4153333 11.4139286,14.4186667 12.5145,12.936 C12.6372857,12.788 12.7600714,12.5133333 12.7600714,12.1966667 C12.7600714,11.56 12.2502857,11.0526667 11.6363571,11.0526667 C11.2487143,11.0526667 10.9639286,11.2226667 10.7595,11.4753333 C9.98421429,12.4713333 9.18835714,13.0833333 7.96435714,13.0833333 C6.35078571,13.0833333 5.18785714,12.0893333 4.61507143,10.3966667 L8.29028571,10.3966667 C8.75892857,10.3966667 9.14785714,9.99466667 9.14785714,9.48733333 C9.14785714,9 8.75892857,8.576 8.29028571,8.576 L4.24864286,8.576 C4.22742857,8.29933333 4.22742857,8.02666667 4.22742857,7.72933333 C4.22742857,7.41266667 4.22742857,7.09466667 4.26792857,6.798 L8.29028571,6.798 C8.75892857,6.798 9.14785714,6.396 9.14785714,5.90933333 C9.14785714,5.4 8.75892857,5 8.29028571,5 L4.65621429,5 C5.229,3.412 6.33021429,2.416 7.80042857,2.416 C9.06557143,2.416 9.86207143,2.94533333 10.6367143,3.91866667 C10.8006429,4.13133333 11.0867143,4.34333333 11.5155,4.34333333 C12.168,4.34333333 12.7195714,3.792 12.7195714,3.11533333 C12.7195714,2.73333333 12.5556429,2.416 12.393,2.246 C11.3322857,0.977333333 10.0247143,0.0886666667 7.8615,0.0886666667" id="Fill-1" fill-opacity="0.300000012" ></path>
            <path d="M17.8180714,1.848 C15.5854286,1.848 13.9660714,3.43 13.3534286,5.63266667 L12.4720714,5.63266667 C12.096,5.63266667 11.7983571,5.94133333 11.7983571,6.33133333 C11.7983571,6.70733333 12.096,7.016 12.4720714,7.016 L13.1020714,7.016 C13.0705714,7.26066667 13.0705714,7.52333333 13.0705714,7.768 C13.0705714,7.978 13.0705714,8.19 13.086,8.386 L12.4720714,8.386 C12.096,8.386 11.7983571,8.71333333 11.7983571,9.08733333 C11.7983571,9.47933333 12.096,9.788 12.4720714,9.788 L13.3212857,9.788 C13.9197857,12.1033333 15.5539286,13.6533333 17.8810714,13.6533333 C19.5004286,13.6533333 20.5534286,12.8873333 21.4026429,11.746 C21.4971429,11.6306667 21.5916429,11.4186667 21.5916429,11.174 C21.5916429,10.6853333 21.1982143,10.2933333 20.7263571,10.2933333 C20.4280714,10.2933333 20.2082143,10.4246667 20.0500714,10.6186667 C19.4522143,11.3866667 18.8395714,11.8593333 17.8971429,11.8593333 C16.6551429,11.8593333 15.7596429,11.0933333 15.3186429,9.788 L18.1478571,9.788 C18.5104286,9.788 18.8087143,9.47933333 18.8087143,9.08733333 C18.8087143,8.71333333 18.5104286,8.386 18.1478571,8.386 L15.0357857,8.386 C15.0190714,8.174 15.0190714,7.962 15.0190714,7.73333333 C15.0190714,7.48933333 15.0190714,7.24466667 15.0518571,7.016 L18.1478571,7.016 C18.5104286,7.016 18.8087143,6.70733333 18.8087143,6.33133333 C18.8087143,5.94133333 18.5104286,5.63266667 18.1478571,5.63266667 L15.3495,5.63266667 C15.7898571,4.408 16.6390714,3.642 17.7711429,3.642 C18.7450714,3.642 19.359,4.05066667 19.9568571,4.8 C20.0828571,4.96333333 20.3020714,5.12533333 20.6331429,5.12533333 C21.1358571,5.12533333 21.5601429,4.70066667 21.5601429,4.18 C21.5601429,3.88666667 21.4335,3.642 21.3087857,3.51133333 C20.4910714,2.53333333 19.4856429,1.848 17.8180714,1.848" id="Fill-2" fill-opacity="0.5" ></path>
            <path d="M30.8005714,4.68066667 C29.6395714,4.68066667 28.7980714,5.50533333 28.4785714,6.64866667 L28.0202143,6.64866667 C27.8254286,6.64866667 27.6698571,6.81 27.6698571,7.014 C27.6698571,7.208 27.8254286,7.36933333 28.0202143,7.36933333 L28.3480714,7.36933333 C28.3326429,7.49733333 28.3326429,7.632 28.3326429,7.76 C28.3326429,7.86933333 28.3326429,7.98 28.3403571,8.08066667 L28.0202143,8.08066667 C27.8254286,8.08066667 27.6698571,8.25066667 27.6698571,8.44666667 C27.6698571,8.65066667 27.8254286,8.81 28.0202143,8.81 L28.4625,8.81 C28.7736429,10.0146667 29.6228571,10.8186667 30.834,10.8186667 C31.6755,10.8186667 32.2238571,10.4206667 32.6648571,9.82866667 C32.7137143,9.768 32.7625714,9.65866667 32.7625714,9.53133333 C32.7625714,9.27733333 32.5587857,9.07333333 32.3132143,9.07333333 C32.1576429,9.07333333 32.0438571,9.14133333 31.9615714,9.24266667 C31.6510714,9.64066667 31.3322143,9.88733333 30.8417143,9.88733333 C30.1956429,9.88733333 29.7302143,9.48933333 29.5013571,8.81 L30.9715714,8.81 C31.1612143,8.81 31.3161429,8.65066667 31.3161429,8.44666667 C31.3161429,8.25066667 31.1612143,8.08066667 30.9715714,8.08066667 L29.3541429,8.08066667 C29.3457857,7.972 29.3457857,7.86066667 29.3457857,7.74133333 C29.3457857,7.61666667 29.3457857,7.48933333 29.3631429,7.36933333 L30.9715714,7.36933333 C31.1612143,7.36933333 31.3161429,7.208 31.3161429,7.014 C31.3161429,6.81 31.1612143,6.64866667 30.9715714,6.64866667 L29.5167857,6.64866667 C29.7469286,6.012 30.1879286,5.614 30.7774286,5.614 C31.2827143,5.614 31.6022143,5.826 31.9133571,6.216 C31.9782857,6.30133333 32.0920714,6.386 32.2643571,6.386 C32.526,6.386 32.7471429,6.16533333 32.7471429,5.89533333 C32.7471429,5.74133333 32.6815714,5.614 32.6153571,5.54733333 C32.1904286,5.03866667 31.6677857,4.68066667 30.8005714,4.68066667" id="Fill-3" fill-opacity="0.899999976" ></path>
            <path d="M35.9029286,8.89533333 C35.6592857,9.22066667 35.3584286,9.44066667 34.8949286,9.44066667 C34.2282857,9.44066667 33.7602857,8.998 33.5886429,8.33333333 L33.345,8.33333333 C33.237,8.33333333 33.1508571,8.24666667 33.1508571,8.13333333 C33.1508571,8.02666667 33.237,7.93333333 33.345,7.93333333 L33.5211429,7.93333333 C33.5166429,7.87666667 33.5166429,7.816 33.5166429,7.754 C33.5166429,7.68466667 33.5166429,7.61 33.5262857,7.53933333 L33.345,7.53933333 C33.237,7.53933333 33.1508571,7.45066667 33.1508571,7.34333333 C33.1508571,7.23266667 33.237,7.14333333 33.345,7.14333333 L33.5963571,7.14333333 C33.7725,6.51333333 34.236,6.06066667 34.8762857,6.06066667 C35.3532857,6.06066667 35.6419286,6.25666667 35.8759286,6.53533333 C35.9125714,6.574 35.9479286,6.64466667 35.9479286,6.72933333 C35.9479286,6.87666667 35.8270714,6.998 35.6830714,6.998 C35.5872857,6.998 35.5249286,6.95133333 35.4882857,6.90533333 C35.3172857,6.69133333 35.1424286,6.574 34.8627857,6.574 C34.5394286,6.574 34.2957857,6.794 34.1691429,7.14333333 L34.9695,7.14333333 C35.0736429,7.14333333 35.1610714,7.23266667 35.1610714,7.34333333 C35.1610714,7.45066667 35.0736429,7.53933333 34.9695,7.53933333 L34.083,7.53933333 C34.0746429,7.606 34.0746429,7.67666667 34.0746429,7.74533333 C34.0746429,7.812 34.0746429,7.87266667 34.0785,7.93333333 L34.9695,7.93333333 C35.0736429,7.93333333 35.1610714,8.02666667 35.1610714,8.13333333 C35.1610714,8.24666667 35.0736429,8.33333333 34.9695,8.33333333 L34.1601429,8.33333333 C34.2861429,8.70933333 34.5432857,8.92733333 34.8987857,8.92733333 C35.1687857,8.92733333 35.3436429,8.792 35.5152857,8.572 C35.5609286,8.51733333 35.6245714,8.47866667 35.7100714,8.47866667 C35.8444286,8.47866667 35.9575714,8.59 35.9575714,8.73133333 C35.9575714,8.802 35.9299286,8.86266667 35.9029286,8.89533333" id="Fill-4" ></path>
            <path d="M25.0354286,3.622 C23.4739286,3.622 22.3399286,4.72933333 21.9111429,6.26866667 L21.2952857,6.26866667 C21.0304286,6.26866667 20.8221429,6.48466667 20.8221429,6.75733333 C20.8221429,7.02 21.0304286,7.23666667 21.2952857,7.23666667 L21.7356429,7.23666667 C21.7131429,7.408 21.7131429,7.59 21.7131429,7.762 C21.7131429,7.91133333 21.7131429,8.05866667 21.7240714,8.196 L21.2952857,8.196 C21.0304286,8.196 20.8221429,8.424 20.8221429,8.68533333 C20.8221429,8.96 21.0304286,9.176 21.2952857,9.176 L21.8886429,9.176 C22.3065,10.796 23.4514286,11.8813333 25.0791429,11.8813333 C26.2125,11.8813333 26.9492143,11.344 27.5432143,10.546 C27.6087857,10.4646667 27.6737143,10.3153333 27.6737143,10.1453333 C27.6737143,9.80466667 27.3998571,9.52933333 27.0700714,9.52933333 C26.8611429,9.52933333 26.7062143,9.62066667 26.5962857,9.758 C26.1797143,10.2933333 25.749,10.6246667 25.0907143,10.6246667 C24.2215714,10.6246667 23.5941429,10.0886667 23.2862143,9.176 L25.2662143,9.176 C25.5188571,9.176 25.7277857,8.96 25.7277857,8.68533333 C25.7277857,8.424 25.5188571,8.196 25.2662143,8.196 L23.0875714,8.196 C23.0772857,8.04666667 23.0772857,7.89933333 23.0772857,7.73933333 C23.0772857,7.56733333 23.0772857,7.396 23.0991429,7.23666667 L25.2662143,7.23666667 C25.5188571,7.23666667 25.7277857,7.02 25.7277857,6.75733333 C25.7277857,6.48466667 25.5188571,6.26866667 25.2662143,6.26866667 L23.3080714,6.26866667 C23.6166429,5.412 24.21,4.87666667 25.0013571,4.87666667 C25.6847143,4.87666667 26.1122143,5.16133333 26.5313571,5.68666667 C26.6187857,5.8 26.7730714,5.91333333 27.0032143,5.91333333 C27.3548571,5.91333333 27.6525,5.616 27.6525,5.25266667 C27.6525,5.046 27.5650714,4.87666667 27.477,4.786 C26.9042143,4.10066667 26.2009286,3.622 25.0354286,3.622" id="Fill-5" fill-opacity="0.699999988" ></path>
        </g>
    </g>
</svg>