<?xml version="1.0" encoding="UTF-8" standalone="no"?>
<svg width="36px" height="13px" viewBox="0 0 36 13" version="1.1" xmlns="http://www.w3.org/2000/svg" xmlns:xlink="http://www.w3.org/1999/xlink">
    <desc></desc>
    <defs></defs>
    <g id="Page-1" stroke="none" stroke-width="1"  fill-rule="evenodd" >
        <g id="icon-box">
            <path d="M4.284,4.5435 C4.78646809,4.5435 5.19395745,4.108 5.19395745,3.5685 C5.19395745,3.0281875 4.78646809,2.5910625 4.284,2.5910625 C3.78153191,2.5910625 3.3732766,3.0281875 3.3732766,3.5685 C3.3732766,4.108 3.78153191,4.5435 4.284,4.5435 Z M9.41438298,4.5313125 C9.43506383,4.5329375 9.45191489,4.5443125 9.47259574,4.5443125 C9.97506383,4.5443125 10.3825532,4.1071875 10.3825532,3.5685 C10.3825532,3.549 10.3733617,3.5335625 10.3718298,3.514875 C10.3450213,3.0005625 9.95744681,2.5910625 9.47259574,2.5910625 C8.97089362,2.5910625 8.56340426,3.0281875 8.56340426,3.5685 C8.56340426,4.08525 8.94102128,4.4971875 9.41438298,4.5313125 Z M6.87829787,4.5435 C7.38153191,4.5435 7.78748936,4.108 7.78748936,3.5685 C7.78748936,3.1955625 7.58604255,2.8819375 7.30187234,2.7178125 C7.17395745,2.6430625 7.03455319,2.5910625 6.87829787,2.5910625 C6.37582979,2.5910625 5.96910638,3.0281875 5.96910638,3.5685 C5.96910638,3.74075 6.0227234,3.895125 6.09625532,4.0373125 C6.25174468,4.3346875 6.53744681,4.5435 6.87829787,4.5435 Z M34.434383,0.1161875 C34.2781277,0.078 34.1080851,0.0560625 33.9227234,0.0560625 L2.07421277,0.0560625 C1.27531915,0.0560625 0.0865531915,0.6248125 0.0865531915,2.1905 L0.0865531915,9.0341875 C0.0865531915,9.4063125 0.193787234,9.852375 0.425106383,10.244 L1.47217021,9.0975625 C1.4706383,9.0748125 1.46297872,9.05775 1.46221277,9.0341875 L1.46221277,2.1905 C1.46221277,1.7671875 1.67131915,1.545375 2.07421277,1.5348125 L33.9227234,1.5348125 C34.3187234,1.5348125 34.524,1.7590625 34.5354894,2.1905 L34.5354894,9.0341875 C34.5354894,9.4583125 34.325617,9.680125 33.9165957,9.693125 L18.9735319,9.693125 L18.9735319,7.917 L17.0517447,7.917 L17.0517447,9.693125 L2.07421277,9.693125 C1.7027234,9.693125 1.50357447,9.485125 1.47217021,9.098375 L0.425106383,10.244 C0.728425532,10.755875 1.24774468,11.17025 2.07421277,11.17025 L17.0517447,11.17025 L17.0517447,12.7749375 L18.9735319,12.7749375 L18.9735319,11.17025 L33.9227234,11.17025 C34.721617,11.17025 35.9119149,10.6006875 35.9119149,9.0341875 L35.9119149,2.1905 C35.9119149,1.441375 35.5059574,0.3745625 34.434383,0.1161875 Z" id="Fill-1" ></path>
        </g>
    </g>
</svg>