<?xml version="1.0" encoding="utf-8"?>
<!-- Generator: Adobe Illustrator 16.0.0, SVG Export Plug-In . SVG Version: 6.00 Build 0)  -->
<!DOCTYPE svg PUBLIC "-//W3C//DTD SVG 1.1//EN" "http://www.w3.org/Graphics/SVG/1.1/DTD/svg11.dtd">
<svg version="1.1" xmlns="http://www.w3.org/2000/svg" xmlns:xlink="http://www.w3.org/1999/xlink" x="0px" y="0px"
	 width="340.158px" height="119.055px" viewBox="0 0 340.158 119.055" enable-background="new 0 0 340.158 119.055"
	 xml:space="preserve">
<g id="Calque_5" display="none">
	<rect x="-2801.867" y="-1228.962" display="inline" width="6066.188" height="2494.475"/>
</g>
<g id="Calque_7">
</g>
<g id="contour_blanc" display="none">
	<path display="inline" fill="#FFFFFF" d="M936.719,624.491c-113.75,0-222.453-21.984-323.125-65.328
		c-99.969-43.094-188.141-102.547-262.062-176.734c-74.094-73.953-133.516-162.094-176.469-261.828
		c-43.266-100.219-65.234-208.922-65.234-323.016c0-113.969,21.953-222.656,65.25-323.047
		c42.812-99.391,102.094-187.766,176.156-262.672c73.812-74.938,162.109-134.906,262.359-178.094
		c100.891-43.375,209.578-65.359,323.125-65.359c113.469,0,222.078,21.984,322.844,65.328
		c100,43.172,188.484,102.953,263.156,177.766c74.859,74.953,134.672,163.406,177.75,262.859
		c43.391,101.188,65.297,209.812,65.297,323.219c0,113.547-21.906,222.188-65.141,322.891
		c-43.375,100.109-103.328,188.297-178.375,262.5c-74.625,73.859-162.969,133.125-262.547,176.141
		C1159.016,602.507,1050.375,624.491,936.719,624.491L936.719,624.491z"/>
	<path display="inline" fill="#FFFFFF" d="M2291.891,624.491c-97.25,0-185.531-18.797-262.328-55.828
		c-75.188-36.312-139.531-83.797-191.297-141.141c-51.547-57.156-91.609-122.906-119.109-195.469
		c-27.125-73.141-40.75-146.562-40.75-218.922V-747.04c0-78.469,27.141-147.812,78.5-200.531
		c52.609-53.516,122.969-81.641,203.797-81.641c76.641,0,143.406,23.609,198.484,70.172c41.484,35.391,90.469,100.594,90.469,212
		V13.132c0,10.375,1.781,15.062,2.547,16.609c2.859,5.734,5.766,8.5,7.969,10.266c6.094,4.875,11.844,8.25,17.562,10.312
		c5.641,2.078,9.969,2.922,14.156,2.922c0.922,0,6.094-0.172,16.516-3.672c5.781-1.922,10.438-4.5,14.812-8.172
		c3.828-3.25,7.812-8.406,11.547-15.234c0.922-1.75,1.766-6.828,1.766-13.031V-747.04c0-111.641,49.234-176.859,90.547-211.891
		c54.781-46.609,121.594-70.281,198.453-70.281c80.969,0,151.312,28.188,203.438,81.5c51.609,53.016,78.797,122.344,78.797,200.672
		V13.132c0,73.422-13.766,147.062-40.969,218.891c-26.938,72.547-67.75,138.875-121.047,196.469
		c-52.016,56.797-116.578,104.109-191.562,140.203C2477.438,605.726,2389.172,624.491,2291.891,624.491L2291.891,624.491z"/>
	<path display="inline" fill="#FFFFFF" d="M-380.843,624.491c-78.969,0-148.656-27.922-201.516-80.75
		c-52.844-52.797-80.797-122.5-80.797-201.547V15.116c-65.578-34.578-122.391-78.25-169.172-130.047
		c-51.438-56.891-91.516-122.625-119.094-195.359c-27.156-73.078-40.781-146.516-40.781-218.922v-220.094
		c0-78.516,27.156-147.875,78.547-200.562c52.625-53.562,122.984-81.719,203.703-81.719c76.562,0,143.344,23.641,198.516,70.234
		c41.516,35.453,90.5,100.656,90.5,212.047v220.094c0,10.719,1.938,15.438,2.531,16.625c2.859,5.703,5.719,8.438,7.875,10.156
		c6.219,5,11.969,8.375,17.656,10.422c5.594,2.047,9.938,2.891,14.156,2.891c0.953,0,6.172-0.172,16.594-3.656
		c5.672-1.891,10.312-4.453,14.688-8.141c3.797-3.219,7.922-8.562,11.656-15.375c0.875-1.641,1.688-6.734,1.688-12.922v-220.094
		c0-111.609,49.234-176.828,90.531-211.891c54.938-46.688,121.719-70.391,198.438-70.391c80.922,0,151.297,28.234,203.484,81.609
		c51.609,53,78.812,122.344,78.812,200.672v220.094c0,73.438-13.781,147.062-40.969,218.875
		c-27.078,72.781-67.922,139.062-121.172,196.453C28.704-63.306-27.453-20.29-91.89,13.897v328.297
		c0,80.188-29.406,150.516-85.047,203.391C-230.453,597.054-301.109,624.491-380.843,624.491L-380.843,624.491z"/>
	<path display="inline" fill="#FFFFFF" d="M-2254.734,623.944c-79.609,0-148.797-20.719-205.656-61.641
		c-66.891-47.953-102.344-116.25-102.344-197.406V-759.04l0.078-1.859c2.734-77.703,36.25-146.016,96.922-197.547
		c57.281-48.844,128.328-73.688,211-73.688h301.625c69.625,0,139.812,7.719,208.625,22.922
		c71.875,15.844,138.266,41.641,197.297,76.703c63.219,37.547,115.531,88,155.516,149.953c42.156,65.406,63.5,143.922,63.5,233.453
		c0,69.016-13.281,130.797-39.484,183.609c-5.094,10.312-10.328,20.375-15.719,30.188c2.016,1.828,4.031,3.672,6.047,5.547
		c31.594,29.328,60.656,63.859,86.344,102.594c24.875,37.984,45.875,79.391,62.734,123.562
		c18.438,49.391,27.656,100.969,27.656,154.047c0,117.625-29.219,217-86.828,295.391
		c-53.484,72.766-120.703,131.297-199.766,173.953c-75.875,40.797-157.516,68.812-242.781,83.391
		c-79.766,13.781-154.906,20.766-223.141,20.766H-2254.734z M-1831.171,60.71c10.328,0,15.062-1.797,16.609-2.578
		c5.719-2.859,8.453-5.719,10.188-7.891c4.859-6.078,8.422-12.141,10.547-17.984c1.828-5.031,2.734-9.625,2.734-13.938
		c0-0.922-0.172-6.094-3.688-16.672c-1.844-5.516-4.375-10.062-7.953-14.328c-3.5-4.156-8.453-7.969-15.016-11.531
		c-1.75-0.938-6.219-1.984-13.422-1.984h-160.953V60.71H-1831.171z"/>
</g>
<g id="logo_plus_dense_1_">
	<g>
		<path d="M219.106,11.558c6.375,0,12.379,1.216,17.99,3.63c5.604,2.42,10.525,5.73,14.73,9.943
			c4.203,4.21,7.523,9.119,9.955,14.734c2.408,5.614,3.625,11.616,3.625,17.998c0,6.39-1.217,12.392-3.625,17.999
			c-2.432,5.615-5.752,10.503-9.955,14.659c-4.205,4.163-9.127,7.455-14.73,9.875c-5.611,2.42-11.615,3.631-17.99,3.631
			c-6.389,0-12.391-1.211-18.006-3.631s-10.512-5.712-14.658-9.875c-4.164-4.156-7.455-9.044-9.873-14.659
			c-2.422-5.607-3.625-11.609-3.625-17.999c0-6.382,1.203-12.384,3.625-17.998c2.418-5.615,5.709-10.524,9.873-14.734
			c4.146-4.213,9.043-7.523,14.658-9.943C206.715,12.774,212.717,11.558,219.106,11.558z M196.012,58.01
			c0,3.194,0.609,6.195,1.826,9.004c1.201,2.806,2.875,5.274,5.004,7.398c2.129,2.129,4.592,3.806,7.398,5.005
			c2.809,1.219,5.809,1.819,9.006,1.819c3.191,0,6.193-0.601,8.988-1.819c2.818-1.199,5.279-2.876,7.41-5.005
			c2.131-2.124,3.789-4.593,5.006-7.398c1.219-2.809,1.828-5.81,1.828-9.004c0-3.192-0.609-6.189-1.828-9.003
			c-1.217-2.799-2.875-5.269-5.006-7.397c-2.131-2.131-4.592-3.798-7.41-5.007c-2.795-1.209-5.797-1.817-8.988-1.817
			c-3.197,0-6.197,0.608-9.006,1.817c-2.807,1.209-5.27,2.876-7.398,5.007c-2.129,2.129-3.803,4.599-5.004,7.397
			C196.622,51.82,196.012,54.817,196.012,58.01z"/>
		<path d="M164.508,14.752c-2.077-2.122-4.813-3.194-8.204-3.194c-3.29,0-6.069,0.975-8.338,2.904
			c-2.282,1.938-3.416,4.744-3.416,8.422v14.078c0,1.549-0.317,2.904-0.939,4.067c-0.638,1.16-1.412,2.129-2.324,2.902
			c-0.926,0.774-1.963,1.355-3.126,1.743c-1.159,0.388-2.224,0.58-3.194,0.58c-1.064,0-2.129-0.192-3.179-0.58
			c-1.078-0.388-2.09-0.969-3.058-1.743c-0.969-0.773-1.74-1.742-2.324-2.902c-0.58-1.163-0.869-2.519-0.869-4.067V22.884
			c0-3.678-1.134-6.485-3.402-8.422c-2.283-1.929-5.061-2.904-8.354-2.904c-3.388,0-6.125,1.072-8.212,3.194
			c-2.076,2.129-3.113,4.84-3.113,8.132v14.078c0,3.871,0.733,7.744,2.171,11.618c1.466,3.863,3.569,7.327,6.32,10.369
			c2.752,3.05,6.152,5.547,10.166,7.481c0.774,0.375,1.574,0.706,2.391,1.01v25.259c0,3.293,1.064,6.005,3.195,8.132
			c2.129,2.128,4.84,3.197,8.132,3.197c3.374,0,6.194-1.069,8.407-3.197c2.241-2.127,3.346-4.839,3.346-8.132V67.387
			c0.776-0.285,1.521-0.611,2.241-0.956c4.024-1.935,7.441-4.432,10.233-7.481c2.822-3.042,4.951-6.506,6.389-10.369
			c1.467-3.874,2.185-7.747,2.185-11.618V22.884C167.632,19.592,166.581,16.882,164.508,14.752z"/>
		<path d="M74.341,66.585c-0.899-2.36-2.006-4.559-3.333-6.583c-1.342-2.026-2.833-3.811-4.494-5.353
			c-1.662-1.542-3.264-2.802-4.812-3.762c1.437-1.832,2.766-3.981,3.981-6.445c1.218-2.453,1.825-5.37,1.825-8.754
			c0-4.43-0.995-8.192-2.987-11.283c-1.99-3.084-4.562-5.573-7.73-7.454c-3.167-1.881-6.708-3.255-10.634-4.121
			c-3.943-0.871-7.912-1.307-11.894-1.307H14.972c-3.664,0-6.708,1.039-9.14,3.113C3.382,16.715,2.109,19.288,2,22.38v71.771
			c0,2.994,1.259,5.381,3.748,7.165c2.488,1.791,5.56,2.677,9.224,2.677h19.292c3.982,0,8.365-0.408,13.139-1.232
			c4.756-0.813,9.249-2.356,13.468-4.623c4.205-2.269,7.716-5.334,10.55-9.189c2.837-3.86,4.247-8.833,4.247-14.91
			C75.668,71.439,75.225,68.95,74.341,66.585z M24.611,28.776h14.326c0.998,0,1.881,0.207,2.628,0.607
			c0.746,0.408,1.368,0.915,1.867,1.501c0.499,0.595,0.873,1.265,1.121,2.011c0.25,0.756,0.387,1.439,0.387,2.062
			c0,0.691-0.137,1.376-0.387,2.068c-0.248,0.685-0.622,1.339-1.121,1.963c-0.499,0.628-1.121,1.128-1.867,1.501
			c-0.747,0.373-1.63,0.561-2.628,0.561H24.611V28.776z M50.775,75.181c-0.387,1.062-0.967,2.079-1.741,3.047
			c-0.775,0.97-1.743,1.743-2.904,2.325c-1.162,0.577-2.517,0.871-4.065,0.871H25.04V62.407h17.024c1.549,0,2.904,0.311,4.065,0.94
			s2.129,1.404,2.904,2.323c0.774,0.922,1.354,1.958,1.741,3.119s0.582,2.227,0.582,3.193
			C51.356,73.049,51.162,74.112,50.775,75.181z"/>
		<path d="M93.656,103.943c-1.647,0-3.21-0.282-4.663-0.85c-1.438-0.556-2.722-1.321-3.801-2.277
			c-1.123-0.966-2.02-2.107-2.682-3.401c-0.692-1.349-1.052-2.813-1.052-4.347c0-2.008,0.649-3.915,1.909-5.672
			c0.608-0.837,1.327-1.611,2.157-2.322c-0.651-0.608-1.217-1.287-1.688-2.017c-0.513-0.805-0.925-1.662-1.215-2.541
			c-0.334-0.919-0.484-1.859-0.484-2.771c0-1.433,0.317-2.816,0.98-4.115c0.623-1.253,1.466-2.346,2.517-3.259
			c1.025-0.885,2.226-1.603,3.598-2.13c1.368-0.523,2.849-0.795,4.426-0.795c1.504,0,2.986,0.271,4.368,0.795
			c1.382,0.527,2.6,1.245,3.623,2.13c1.052,0.913,1.909,2.006,2.531,3.259c0.652,1.299,0.982,2.683,0.982,4.115
			c0,1.285-0.303,2.564-0.885,3.793c-0.553,1.203-1.383,2.312-2.434,3.278c-1.051,0.948-2.338,1.722-3.818,2.305
			c-0.013,0-0.027,0.004-0.027,0.004l5.918,4.634l4.177-3.4c0.567-0.486,1.271-0.741,2.045-0.741c1.785,0,3.044,1.206,3.044,2.926
			c0,0.645-0.221,1.265-0.664,1.838c-0.083,0.118-0.195,0.223-0.304,0.311l-0.055,0.056c0,0.007-0.028,0.021-0.028,0.028
			l-3.402,2.844l3.541,2.904c0.028,0.021,0.041,0.033,0.054,0.05c0.666,0.565,1.024,1.346,1.024,2.202
			c0,1.723-1.245,2.929-3.043,2.929c-0.774,0-1.464-0.259-2.047-0.735l-4.342-3.485c-0.705,0.538-1.382,1.017-1.99,1.431
			c-1.053,0.698-2.02,1.267-2.906,1.695c-0.94,0.457-1.853,0.795-2.708,1.01C95.411,103.833,94.513,103.943,93.656,103.943
			L93.656,103.943z M90.392,88.78c-0.747,0.461-1.384,1.009-1.88,1.644c-0.638,0.809-0.971,1.675-0.971,2.645
			c0,0.671,0.141,1.286,0.429,1.858c0.305,0.621,0.705,1.14,1.232,1.603c0.551,0.472,1.201,0.851,1.964,1.134
			c0.746,0.283,1.588,0.425,2.489,0.425c0.938,0,1.964-0.305,3.014-0.908c0.73-0.416,1.549-0.939,2.433-1.566L90.392,88.78
			L90.392,88.78z M93.656,73.305c-0.831,0-1.591,0.124-2.283,0.381c-0.677,0.241-1.259,0.573-1.716,0.981
			c-0.455,0.394-0.802,0.843-1.064,1.396c-0.248,0.519-0.374,1.064-0.374,1.683c0,0.615,0.112,1.153,0.348,1.638
			c0.248,0.52,0.58,0.953,1.023,1.34c0.481,0.415,1.077,0.763,1.769,1.025c0.678,0.261,1.466,0.407,2.324,0.435
			c0.803,0,1.533-0.124,2.186-0.372c0.663-0.245,1.243-0.583,1.713-0.992c0.443-0.386,0.804-0.842,1.052-1.395
			c0.25-0.51,0.387-1.063,0.387-1.679c0-0.618-0.137-1.164-0.387-1.683c-0.248-0.545-0.609-1.002-1.052-1.396
			c-0.47-0.408-1.05-0.74-1.713-0.988C95.205,73.429,94.457,73.305,93.656,73.305L93.656,73.305z"/>
		<path d="M93.656,103.943c-1.647,0-3.21-0.282-4.663-0.85c-1.438-0.556-2.722-1.321-3.801-2.277
			c-1.123-0.966-2.02-2.107-2.682-3.401c-0.692-1.349-1.052-2.813-1.052-4.347c0-2.008,0.649-3.915,1.909-5.672
			c0.608-0.837,1.327-1.611,2.157-2.322c-0.651-0.608-1.217-1.287-1.688-2.017c-0.513-0.805-0.925-1.662-1.215-2.541
			c-0.334-0.919-0.484-1.859-0.484-2.771c0-1.433,0.317-2.816,0.98-4.115c0.623-1.253,1.466-2.346,2.517-3.259
			c1.025-0.885,2.226-1.603,3.598-2.13c1.368-0.523,2.849-0.795,4.426-0.795c1.504,0,2.986,0.271,4.368,0.795
			c1.382,0.527,2.6,1.245,3.623,2.13c1.052,0.913,1.909,2.006,2.531,3.259c0.652,1.299,0.982,2.683,0.982,4.115
			c0,1.285-0.303,2.564-0.885,3.793c-0.553,1.203-1.383,2.312-2.434,3.278c-1.051,0.948-2.338,1.722-3.818,2.305
			c-0.013,0-0.027,0.004-0.027,0.004l5.918,4.634l4.177-3.4c0.567-0.486,1.271-0.741,2.045-0.741c1.785,0,3.044,1.206,3.044,2.926
			c0,0.645-0.221,1.265-0.664,1.838c-0.083,0.118-0.195,0.223-0.304,0.311l-0.055,0.056c0,0.007-0.028,0.021-0.028,0.028
			l-3.402,2.844l3.541,2.904c0.028,0.021,0.041,0.033,0.054,0.05c0.666,0.565,1.024,1.346,1.024,2.202
			c0,1.723-1.245,2.929-3.043,2.929c-0.774,0-1.464-0.259-2.047-0.735l-4.342-3.485c-0.705,0.538-1.382,1.017-1.99,1.431
			c-1.053,0.698-2.02,1.267-2.906,1.695c-0.94,0.457-1.853,0.795-2.708,1.01C95.411,103.833,94.513,103.943,93.656,103.943
			L93.656,103.943z M90.392,88.78c-0.747,0.461-1.384,1.009-1.88,1.644c-0.638,0.809-0.971,1.675-0.971,2.645
			c0,0.671,0.141,1.286,0.429,1.858c0.305,0.621,0.705,1.14,1.232,1.603c0.551,0.472,1.201,0.851,1.964,1.134
			c0.746,0.283,1.588,0.425,2.489,0.425c0.938,0,1.964-0.305,3.014-0.908c0.73-0.416,1.549-0.939,2.433-1.566L90.392,88.78
			L90.392,88.78z M93.656,73.305c-0.831,0-1.591,0.124-2.283,0.381c-0.677,0.241-1.259,0.573-1.716,0.981
			c-0.455,0.394-0.802,0.843-1.064,1.396c-0.248,0.519-0.374,1.064-0.374,1.683c0,0.615,0.112,1.153,0.348,1.638
			c0.248,0.52,0.58,0.953,1.023,1.34c0.481,0.415,1.077,0.763,1.769,1.025c0.678,0.261,1.466,0.407,2.324,0.435
			c0.803,0,1.533-0.124,2.186-0.372c0.663-0.245,1.243-0.583,1.713-0.992c0.443-0.386,0.804-0.842,1.052-1.395
			c0.25-0.51,0.387-1.063,0.387-1.679c0-0.618-0.137-1.164-0.387-1.683c-0.248-0.545-0.609-1.002-1.052-1.396
			c-0.47-0.408-1.05-0.74-1.713-0.988C95.205,73.429,94.457,73.305,93.656,73.305L93.656,73.305z"/>
		<path d="M305.786,80.947c0.971,0,2.035-0.195,3.193-0.584c1.164-0.387,2.203-0.967,3.129-1.741
			c0.912-0.774,1.688-1.743,2.322-2.904c0.621-1.162,0.941-2.517,0.941-4.065V23.029c0-3.68,1.131-6.485,3.414-8.421
			c2.27-1.93,5.049-2.898,8.342-2.898c3.389,0,6.125,1.064,8.199,3.188c2.074,2.129,3.125,4.84,3.125,8.131v48.623
			c0,3.869-0.719,7.744-2.184,11.617c-1.439,3.871-3.568,7.33-6.391,10.38c-2.791,3.049-6.211,5.537-10.232,7.475
			c-4.01,1.935-8.631,2.904-13.859,2.904c-5.225,0-9.844-0.97-13.855-2.904c-4.008-1.938-7.41-4.426-10.164-7.475
			c-2.75-3.05-4.854-6.509-6.32-10.38c-1.438-3.873-2.172-7.748-2.172-11.617V23.029c0-3.291,1.037-6.002,3.113-8.131
			c2.086-2.124,4.812-3.188,8.215-3.188c3.291,0,6.07,0.968,8.352,2.898c2.27,1.936,3.4,4.742,3.4,8.421v48.623
			c0,1.549,0.293,2.903,0.871,4.065c0.582,1.161,1.357,2.13,2.326,2.904c0.965,0.774,1.979,1.354,3.057,1.741
			C303.657,80.752,304.721,80.947,305.786,80.947z"/>
	</g>
</g>
</svg>
