<?xml version="1.0" encoding="utf-8"?>
<!-- Generator: Adobe Illustrator 15.1.0, SVG Export Plug-In . SVG Version: 6.00 Build 0)  -->
<!DOCTYPE svg PUBLIC "-//W3C//DTD SVG 1.1//EN" "http://www.w3.org/Graphics/SVG/1.1/DTD/svg11.dtd">
<svg version="1.1" id="Layer_1" xmlns="http://www.w3.org/2000/svg" xmlns:xlink="http://www.w3.org/1999/xlink" x="0px" y="0px"
	 width="792px" height="612px" viewBox="0 0 792 612" enable-background="new 0 0 792 612" xml:space="preserve">
<g>
	<path fill="#030104" d="M466.197,159.264v54.191c28.323,21.251,46.611,55.078,46.611,93.209
		c0,64.348-52.152,116.484-116.499,116.484c-64.349,0-116.5-52.137-116.5-116.484c0-38.131,18.288-71.958,46.597-93.209v-54.191
		c-55.1,26.165-93.201,82.337-93.201,147.4c0,90.066,73.022,163.081,163.104,163.081c90.065,0,163.097-73.015,163.097-163.081
		C559.406,241.601,521.311,185.429,466.197,159.264z"/>
	<path fill="#030104" d="M419.599,283.418V143.486c0-12.836-10.319-23.231-23.29-23.231c-12.889,0-23.299,10.551-23.299,23.231
		v139.932c0,12.844,10.343,23.246,23.299,23.246C409.204,306.664,419.599,296.105,419.599,283.418z"/>
</g>
</svg>
