<?xml version="1.0" encoding="utf-8"?>
<!-- Generator: Adobe Illustrator 16.0.0, SVG Export Plug-In . SVG Version: 6.00 Build 0)  -->
<!DOCTYPE svg PUBLIC "-//W3C//DTD SVG 1.1//EN" "http://www.w3.org/Graphics/SVG/1.1/DTD/svg11.dtd">
<svg version="1.1" id="Calque_1" xmlns="http://www.w3.org/2000/svg" xmlns:xlink="http://www.w3.org/1999/xlink" x="0px" y="0px"
	 width="63.375px" height="82px" viewBox="0 0 63.375 82" enable-background="new 0 0 63.375 82" xml:space="preserve">
<path d="M42.188,43.581c0,1.96,1.587,3.547,3.542,3.547c1.961,0,3.545-1.587,3.545-3.547V21.719
	c0-1.96-1.584-3.547-3.545-3.547c-1.955,0-3.542,1.587-3.542,3.547V43.581z"/>
<path d="M19.67,43.581c0,1.96,1.588,3.547,3.545,3.547c1.961,0,3.545-1.587,3.545-3.547V26.709
	c0-1.962-0.965-3.547-3.545-3.547c-2.582,0-3.545,1.585-3.545,3.547V43.581z"/>
<path d="M30.873,43.581c0,1.96,1.585,3.547,3.545,3.547s3.547-1.587,3.547-3.547v-12.08
	c0-1.96-1.587-3.547-3.547-3.547s-3.545,1.587-3.545,3.547V43.581z"/>
<path d="M59.058,0.75H9.071c-2.411,0-4.196,2.362-4.196,4.77v1.782v0.13v41.711c1-0.936,2-1.741,4-2.363V9.383V6.998
	V5.75h50v70.863L35.479,59.259c0.363,1.495,0.702,4.05,0.702,5.656c0,0.137,0.046,0.271,0.043,0.406l19.917,14.58
	c0.797,0.7,1.823,1.088,2.901,1.088c0.542,0,0.808-0.1,1.432-0.342c1.623-0.692,2.401-2.271,2.401-4.023V5.52
	C62.875,3.112,61.47,0.75,59.058,0.75"/>
<path d="M32.518,66.455l0.003-3.704l-5.079-0.81c-0.266-1.077-0.687-2.123-1.282-3.101l3.019-4.156l-2.619-2.624
	l-4.159,3.022c-0.981-0.595-2.029-1.023-3.102-1.289l-0.812-5.073l-3.701,0.003l-0.807,5.075c-1.081,0.261-2.126,0.689-3.104,1.279
	l-4.158-3.018l-2.621,2.624l3.017,4.157c-0.588,0.977-1.017,2.022-1.28,3.103l-5.074,0.807L0.75,66.46l5.08,0.801
	c0.264,1.081,0.692,2.128,1.282,3.108l-3.019,4.154l2.621,2.625l4.158-3.025c0.979,0.595,2.023,1.332,3.104,1.599l0.803,5.388h3.715
	l0.799-5.388c1.076-0.265,2.124-0.853,3.104-1.44l4.16,2.946l2.619-2.666l-3.019-4.177c0.589-0.978,1.017-2.033,1.282-3.114
	L32.518,66.455z M16.685,69.357c-2.648,0-4.802-2.154-4.802-4.8c0.002-2.654,2.155-4.805,4.806-4.806
	c2.649,0.002,4.805,2.151,4.796,4.806C21.493,67.203,19.338,69.357,16.685,69.357"/>
<g>
	<defs>
		<path id="SVGID_1_" d="M11.883,64.557c0.001-2.653,2.156-4.806,4.805-4.806c2.65,0.002,4.806,2.152,4.797,4.806
			c0.009,2.646-2.146,4.802-4.801,4.802C14.036,69.358,11.883,67.203,11.883,64.557 M14.785,48.724L13.979,53.8
			c-1.082,0.261-2.128,0.689-3.105,1.279l-4.158-3.019l-2.621,2.623l3.018,4.158c-0.59,0.977-1.019,2.022-1.282,3.103L0.757,62.75
			l-0.006,3.709l5.078,0.802c0.264,1.081,0.692,2.127,1.283,3.108l-3.019,4.155l2.621,2.624l4.158-3.026
			c0.978,0.596,2.023,1.332,3.105,1.599l0.802,5.391h3.715l0.8-5.391c1.075-0.264,2.123-0.851,3.102-1.438l4.161,2.946l2.62-2.666
			l-3.02-4.178c0.591-0.976,1.018-2.034,1.283-3.115l5.075-0.815l0.003-3.704l-5.078-0.808c-0.266-1.078-0.687-2.124-1.283-3.103
			l3.02-4.156l-2.62-2.623l-4.158,3.023c-0.981-0.595-2.029-1.023-3.102-1.289l-0.812-5.074L14.785,48.724z"/>
	<clipPath id="SVGID_2_">
		<use xlink:href="#SVGID_1_"  overflow="visible"/>
	</clipPath>
	</defs>
	<rect x="-35.068" y="39.626" clip-path="url(#SVGID_2_)" width="94.601" height="66.765"/>
</g>
</svg>
