<?xml version="1.0" encoding="UTF-8" standalone="no"?>
<svg width="33px" height="11px" viewBox="0 0 33 11" version="1.1" xmlns="http://www.w3.org/2000/svg" xmlns:xlink="http://www.w3.org/1999/xlink" xmlns:sketch="http://www.bohemiancoding.com/sketch/ns">
    <!-- Generator: Sketch 3.1.1 (8761) - http://www.bohemiancoding.com/sketch -->
    <title>icon-avis@1x</title>
    <desc></desc>
    <defs></defs>
    <g id="Page-1" stroke="none" stroke-width="1"  fill-rule="evenodd" >
        <g id="icon-avis"  transform="translate(1.000000, 0.000000)">
            <path d="M19.6547692,3.60541176 L17.2018462,3.21847059 L16.1058462,0.806235294 C15.9636923,0.494352941 15.6713846,0.296352941 15.3507692,0.296352941 C15.0307692,0.296352941 14.7378462,0.494352941 14.5963077,0.806235294 L13.4996923,3.21847059 L11.0467692,3.60541176 C10.7304615,3.65523529 10.4670769,3.89658824 10.368,4.22723529 C10.3403077,4.31976471 10.3267692,4.41552941 10.3267692,4.51 C10.3267692,4.752 10.416,4.98947059 10.5803077,5.16417647 L12.3556923,7.04194118 L11.936,9.69358824 C11.9286154,9.74470588 11.9243077,9.79647059 11.9243077,9.84823529 C11.9243077,10.1368235 12.0510769,10.4131176 12.2713846,10.5871765 C12.4178462,10.7023529 12.592,10.7612353 12.7655385,10.7612353 C12.8996923,10.7612353 13.0344615,10.7269412 13.1575385,10.6564118 L15.3507692,9.405 L17.5446154,10.6564118 C17.6676923,10.7269412 17.8024615,10.7612353 17.936,10.7612353 C18.1107692,10.7618824 18.2843077,10.7023529 18.4301538,10.5871765 C18.6510769,10.4131176 18.7778462,10.1368235 18.7778462,9.84823529 C18.7778462,9.79647059 18.7741538,9.74470588 18.7655385,9.69294118 L18.3470769,7.04194118 L20.1212308,5.16417647 C20.2861538,4.98947059 20.3747692,4.752 20.3747692,4.51 C20.3747692,4.41552941 20.3618462,4.31976471 20.3341538,4.22723529 C20.2350769,3.89658824 19.9710769,3.65523529 19.6547692,3.60541176 L19.6547692,3.60541176 Z M19.5987692,4.58247059 L17.6836923,6.60905882 C17.5963077,6.70223529 17.5550769,6.83747059 17.576,6.96882353 L18.0283077,9.83076471 L18.0295385,9.84823529 C18.0295385,9.87994118 18.0153846,9.911 17.9913846,9.92976471 C17.9747692,9.94270588 17.9556923,9.94852941 17.936,9.94852941 L17.8929231,9.93752941 L15.5249231,8.58647059 C15.4707692,8.55541176 15.4110769,8.53988235 15.3507692,8.53988235 C15.2910769,8.53988235 15.2313846,8.55541176 15.1766154,8.58647059 L12.8098462,9.93752941 L12.7655385,9.94852941 C12.7464615,9.94852941 12.7273846,9.94270588 12.7113846,9.92976471 C12.6861538,9.911 12.6726154,9.87994118 12.6726154,9.84823529 L12.6738462,9.83076471 L13.1261538,6.96882353 C13.1464615,6.83747059 13.1064615,6.70223529 13.0178462,6.60905882 L11.1033846,4.58247059 C11.0849231,4.56305882 11.0744615,4.53652941 11.0744615,4.51 L11.0793846,4.47894118 L11.0793846,4.47829412 C11.0898462,4.44141176 11.12,4.41488235 11.1550769,4.40905882 L13.8018462,3.99170588 C13.9230769,3.97294118 14.0295385,3.88882353 14.0836923,3.76976471 L15.2670769,1.166 C15.2830769,1.13105882 15.3156923,1.10905882 15.3507692,1.10905882 C15.3870769,1.10905882 15.4190769,1.13105882 15.4350769,1.166 L16.6184615,3.76976471 C16.6732308,3.88882353 16.7790769,3.97294118 16.9003077,3.99170588 L19.5470769,4.40905882 C19.5827692,4.41488235 19.6116923,4.44141176 19.6227692,4.47829412 L19.6270769,4.51 C19.6270769,4.53652941 19.6172308,4.56305882 19.5987692,4.58247059 L19.5987692,4.58247059 Z" id="Fill-1" ></path>
            <path d="M8.77661538,4.00788235 L6.12984615,3.58923529 L4.94584615,0.986117647 C4.86707692,0.812058824 4.704,0.702705882 4.52615385,0.702705882 C4.34830769,0.702705882 4.18646154,0.812058824 4.10769231,0.986117647 L2.92369231,3.58923529 L0.276923077,4.00788235 C0.100923077,4.03505882 -0.0455384615,4.169 -0.100307692,4.35341176 C-0.155692308,4.53652941 -0.109538462,4.73841176 0.0178461538,4.87364706 L1.93292308,6.90023529 L1.48061538,9.76152941 C1.45046154,9.95176471 1.52307692,10.1452353 1.66707692,10.2584706 C1.74830769,10.3225294 1.84492308,10.3548824 1.94092308,10.3548824 C2.01538462,10.3548824 2.09107692,10.3361176 2.15938462,10.2972941 L4.52615385,8.94623529 L6.89415385,10.2972941 C6.96246154,10.3361176 7.03692308,10.3548824 7.112,10.3548824 C7.20861538,10.3548824 7.30523077,10.3225294 7.38646154,10.2584706 C7.52984615,10.1452353 7.60307692,9.95176471 7.57353846,9.76152941 L7.12,6.90023529 L9.03630769,4.87364706 C9.16369231,4.73841176 9.20923077,4.53652941 9.15384615,4.35341176 C9.09907692,4.169 8.95261538,4.03505882 8.77661538,4.00788235" id="Fill-2" ></path>
            <path d="M31.2006154,4.50935294 C31.2006154,4.41552941 31.1876923,4.31976471 31.16,4.22788235 C31.0603077,3.89723529 30.7969231,3.65588235 30.48,3.60605882 L28.0276923,3.21847059 L26.9316923,0.806882353 C26.7895385,0.494352941 26.4966154,0.297 26.1766154,0.297 C25.856,0.297 25.5630769,0.494352941 25.4215385,0.806882353 L24.3249231,3.21847059 L21.8726154,3.60605882 C21.5556923,3.65588235 21.2923077,3.89723529 21.1932308,4.22788235 L21.1932308,4.22723529 C21.1655385,4.31976471 21.152,4.41552941 21.152,4.50935294 C21.152,4.752 21.2418462,4.98882353 21.4061538,5.16417647 L23.1815385,7.04129412 L22.7618462,9.69358824 C22.7532308,9.74405882 22.7501538,9.79647059 22.7501538,9.84758824 C22.7501538,10.1368235 22.8763077,10.4131176 23.0966154,10.5871765 L23.1009231,10.5904118 C23.2467692,10.7036471 23.4184615,10.7612353 23.5913846,10.7612353 C23.7249231,10.7612353 23.8590769,10.7269412 23.9833846,10.6564118 L26.1766154,9.405 L28.3704615,10.6564118 C28.4929231,10.7269412 28.6270769,10.7612353 28.7612308,10.7612353 C28.936,10.7612353 29.1095385,10.7023529 29.256,10.5871765 C29.4763077,10.4131176 29.6030769,10.1368235 29.6030769,9.84758824 C29.6030769,9.79647059 29.6,9.74405882 29.5913846,9.69358824 L29.1723077,7.04129412 L30.9464615,5.16417647 C31.112,4.98882353 31.2006154,4.752 31.2006154,4.50935294 L31.2006154,4.50935294 Z M30.424,4.58247059 L28.368,6.75852941 L28.8535385,9.83076471 L28.8547692,9.84758824 C28.8547692,9.87929412 28.8406154,9.911 28.8166154,9.92976471 C28.8006154,9.94335294 28.7809231,9.94852941 28.7612308,9.94917647 L28.7181538,9.93817647 L26.1766154,8.48747059 L23.6350769,9.93752941 L23.5913846,9.94852941 C23.5723077,9.94852941 23.5526154,9.94270588 23.5366154,9.92976471 L23.536,9.92976471 C23.512,9.911 23.4978462,9.87929412 23.4978462,9.84758824 L23.4990769,9.83141176 L23.4990769,9.83076471 L23.9846154,6.75852941 L21.9292308,4.58247059 C21.9095385,4.56305882 21.9003077,4.53652941 21.9003077,4.50935294 L21.9052308,4.47829412 C21.9156923,4.44205882 21.9452308,4.41488235 21.9809231,4.40970588 L24.8221538,3.96129412 L26.0923077,1.16535294 C26.1083077,1.13105882 26.1403077,1.10905882 26.1766154,1.10905882 C26.2129231,1.10905882 26.2436923,1.13105882 26.2609231,1.16535294 L27.5310769,3.96129412 L30.3723077,4.40970588 C30.408,4.41488235 30.4375385,4.44205882 30.448,4.47829412 L30.4523077,4.50935294 C30.4523077,4.53652941 30.4424615,4.56241176 30.424,4.58247059 L30.424,4.58247059 Z" id="Fill-4" ></path>
        </g>
    </g>
</svg>