<?xml version="1.0" encoding="utf-8"?>
<!-- Generator: Adobe Illustrator 16.0.0, SVG Export Plug-In . SVG Version: 6.00 Build 0)  -->
<!DOCTYPE svg PUBLIC "-//W3C//DTD SVG 1.1//EN" "http://www.w3.org/Graphics/SVG/1.1/DTD/svg11.dtd">
<svg version="1.1" id="Layer_1" xmlns="http://www.w3.org/2000/svg" xmlns:xlink="http://www.w3.org/1999/xlink" x="0px" y="0px"
	 width="254px" height="254px" viewBox="0 0 254 254" enable-background="new 0 0 254 254" xml:space="preserve">
<g>
	<path fill-rule="evenodd" clip-rule="evenodd" d="M127.424,1C58.068,1,1.847,57.167,1.847,126.452
		c0,69.282,56.222,125.45,125.577,125.45c69.353,0,125.576-56.168,125.576-125.45C253,57.167,196.776,1,127.424,1z M237.514,175.466
		l-16.161,5.213l3.567,16.604l-16.896,1.743l0.035,16.985l-16.886-1.812l-3.496,16.615l-16.141-5.278l-6.876,15.528l-14.688-8.526
		l-9.954,13.764l-12.597-11.394l-12.598,11.394l-9.953-13.764l-14.69,8.526l-6.874-15.528l-16.142,5.278l-3.495-16.615
		l-16.886,1.812l0.036-16.985l-16.895-1.743l3.565-16.604l-16.162-5.213l6.941-15.501l-14.726-8.461l10.011-13.718L6.913,126.452
		l12.645-11.337L9.546,101.396l14.726-8.462l-6.941-15.5l16.162-5.213l-3.565-16.604l16.895-1.74l-0.036-16.983l16.886,1.81
		l3.495-16.618l16.142,5.282l6.874-15.529l14.69,8.523l9.953-13.761l12.598,11.391L140.02,6.601l9.954,13.761l14.688-8.523
		l6.876,15.529l16.141-5.282l3.496,16.618l16.886-1.81l-0.035,16.983l16.896,1.74l-3.567,16.604l16.161,5.213l-6.943,15.5
		l14.729,8.462l-10.013,13.718l12.646,11.337l-12.646,11.334l10.013,13.718l-14.729,8.461L237.514,175.466z"/>
	<path d="M149.442,82.375h-44.041c-3.668,0-6.67,3-6.67,6.672v85.431c0,3.672,3.002,6.676,6.67,6.676h44.041
		c3.666,0,6.671-3,6.671-6.674V89.047C156.113,85.375,153.108,82.375,149.442,82.375z M120.378,87.184h14.09
		c0.446,0,0.808,0.361,0.808,0.811c0,0.445-0.361,0.807-0.808,0.807h-14.09c-0.445,0-0.808-0.362-0.808-0.807
		C119.57,87.545,119.933,87.184,120.378,87.184z M127.423,177.819c-1.843,0-3.337-1.493-3.337-3.339
		c0-1.845,1.495-3.332,3.337-3.332c1.841,0,3.335,1.487,3.335,3.332C130.758,176.326,129.264,177.819,127.423,177.819z
		 M151.472,168.807h-48.097V92.955h48.097V168.807z"/>
</g>
</svg>
