<?xml version="1.0" encoding="utf-8"?>
<!-- Generator: Adobe Illustrator 16.0.0, SVG Export Plug-In . SVG Version: 6.00 Build 0)  -->
<!DOCTYPE svg PUBLIC "-//W3C//DTD SVG 1.1//EN" "http://www.w3.org/Graphics/SVG/1.1/DTD/svg11.dtd">
<svg version="1.1" id="Layer_1" xmlns="http://www.w3.org/2000/svg" xmlns:xlink="http://www.w3.org/1999/xlink" x="0px" y="0px"
	 width="47px" height="81px" viewBox="0 0 47 81" enable-background="new 0 0 47 81" xml:space="preserve">
<g>
	<defs>
		<rect id="SVGID_1_" width="47" height="81"/>
		<clipPath id="SVGID_2_">
			<use xlink:href="#SVGID_1_"  overflow="visible"/>
		</clipPath>
	</defs>
	
	<path clip-path="url(#SVGID_2_)" d="M47,4.871C47,2.181,44.867,0,42.155,0H4.974C2.262,0,0,2.181,0,4.871v71.258
		C0,78.819,2.262,81,4.974,81h37.181C44.867,81,47,78.819,47,76.129V4.871z M20.071,2h7.364c0.679,0,1.229,0.822,1.229,1.5
		S28.113,5,27.435,5h-7.364c-0.678,0-1.227-0.822-1.227-1.5S19.393,2,20.071,2 M23.753,76.052c-2.034,0-3.682-1.648-3.682-3.681
		c0-2.033,1.648-3.682,3.682-3.682c2.033,0,3.682,1.648,3.682,3.682C27.435,74.403,25.786,76.052,23.753,76.052 M42,66H5V7h37V66z"
		/>
</g>
</svg>
