<?xml version="1.0" encoding="UTF-8" standalone="no"?>
<svg width="36px" height="23px" viewBox="0 0 36 23" version="1.1" xmlns="http://www.w3.org/2000/svg" xmlns:xlink="http://www.w3.org/1999/xlink" xmlns:sketch="http://www.bohemiancoding.com/sketch/ns">
    <!-- Generator: Sketch 3.1.1 (8761) - http://www.bohemiancoding.com/sketch -->
    <title>icon-paiement-secure@1x</title>
    <desc></desc>
    <defs></defs>
    <g id="Page-1" stroke="none" stroke-width="1"  fill-rule="evenodd" >
        <g id="icon-paiement-secure"  transform="translate(1.000000, 0.000000)">
            <path d="M29.5784151,16.6805758 C29.5784151,16.3564848 29.3223396,16.0930303 29.0064906,16.0930303 C28.6906415,16.0930303 28.434566,16.3564848 28.434566,16.6805758 C28.434566,16.9029091 28.5581887,17.0959697 28.7361509,17.1949394 L28.5262642,18.4808485 L29.486717,18.4808485 L29.2768302,17.1949394 C29.4561509,17.0959697 29.5784151,16.9029091 29.5784151,16.6805758" id="Fill-1" ></path>
            <path d="M29.0064906,13.3274545 C28.4223396,13.3274545 27.9468679,13.8146364 27.9468679,14.4140303 L27.9468679,15.1123939 L30.065434,15.1123939 L30.065434,14.4140303 C30.065434,13.8146364 29.5899623,13.3274545 29.0064906,13.3274545" id="Fill-2" ></path>
            <path d="M22.361434,16.5084242 C22.361434,12.8841818 25.1361509,9.91927273 28.6206792,9.71227273 L28.6206792,1.0050303 C28.6206792,0.525515152 28.2409811,0.136606061 27.7743396,0.136606061 L0.841584906,0.136606061 C0.374943396,0.136606061 -0.00475471698,0.525515152 -0.00475471698,1.0050303 L-0.00475471698,17.0646061 C-0.00475471698,17.5448182 0.374943396,17.9330303 0.841584906,17.9330303 L22.5095094,17.9330303 C22.4137358,17.4730303 22.361434,16.997 22.361434,16.5084242 L22.361434,16.5084242 Z M14.9644528,5.41545455 L21.170717,5.41545455 C22.1107925,5.41615152 22.8722264,6.20024242 22.8722264,7.16484848 C22.8722264,8.13084848 22.1107925,8.91493939 21.170717,8.91493939 L21.170717,8.9170303 L14.9644528,8.9170303 L14.9644528,5.41545455 L14.9644528,5.41545455 Z M14.8469434,8.9170303 L10.2885283,8.9170303 L10.2885283,9.131 L14.8469434,9.131 L14.8469434,9.47181818 C14.8469434,11.2295758 13.4558491,12.6555758 11.7421132,12.6555758 L8.84513208,12.6555758 C7.13275472,12.6555758 5.74301887,11.2295758 5.74301887,9.47181818 L5.74301887,8.62360606 C5.74301887,6.86375758 7.13275472,5.43845455 8.84513208,5.43845455 L11.7421132,5.43845455 C13.4558491,5.43845455 14.8469434,6.86375758 14.8469434,8.62360606 L14.8469434,8.9170303 L14.8469434,8.9170303 Z M21.170717,12.6332727 L14.9644528,12.6332727 L14.9644528,9.12890909 L21.170717,9.12890909 L21.170717,9.131 C22.1107925,9.13239394 22.8722264,9.91439394 22.8722264,10.879697 C22.8722264,11.845 22.1107925,12.6290909 21.170717,12.6304848 L21.170717,12.6332727 L21.170717,12.6332727 Z" id="Fill-3" ></path>
            <path d="M29.0064906,10.3897273 C25.7169057,10.3897273 23.0406792,13.1343939 23.0406792,16.5084242 C23.0406792,19.8838485 25.7169057,22.6299091 29.0064906,22.6299091 C32.2953962,22.6299091 34.9709434,19.8838485 34.9709434,16.5084242 C34.9709434,13.1343939 32.2953962,10.3897273 29.0064906,10.3897273 L29.0064906,10.3897273 Z M31.6996981,18.9777879 C31.6996981,19.4370909 31.3363019,19.8106667 30.8900377,19.8106667 L27.1229434,19.8106667 C26.6753208,19.8106667 26.3112453,19.4370909 26.3112453,18.9777879 L26.3112453,15.5953939 C26.3112453,15.1730303 26.6196226,14.8238485 27.0176604,14.7708788 L27.0176604,14.4147273 C27.0176604,13.2898182 27.9101887,12.374 29.0064906,12.374 C30.1021132,12.374 30.9939623,13.2898182 30.9939623,14.4147273 L30.9939623,14.7708788 C31.3913208,14.8238485 31.6996981,15.1730303 31.6996981,15.5953939 L31.6996981,18.9777879 L31.6996981,18.9777879 Z" id="Fill-4" ></path>
        </g>
    </g>
</svg>