<?xml version="1.0" encoding="utf-8"?>
<!-- Generator: Adobe Illustrator 16.0.0, SVG Export Plug-In . SVG Version: 6.00 Build 0)  -->
<!DOCTYPE svg PUBLIC "-//W3C//DTD SVG 1.1//EN" "http://www.w3.org/Graphics/SVG/1.1/DTD/svg11.dtd">
<svg version="1.1" id="Layer_1" xmlns="http://www.w3.org/2000/svg" xmlns:xlink="http://www.w3.org/1999/xlink" x="0px" y="0px"
	 width="104px" height="13px" viewBox="0 0 104 13" enable-background="new 0 0 104 13" xml:space="preserve">
<g>
	<g>
		<g>
			<path d="M91.753,4.644c-2.094,0.004-3.785,1.705-3.781,3.796c0.006,2.149,1.796,3.876,3.966,3.777
				c1.929-0.087,3.516-1.674,3.606-3.603C95.647,6.438,93.907,4.641,91.753,4.644z M91.764,10.785
				c-1.271,0.004-2.303-1.049-2.306-2.348c-0.002-1.298,1.025-2.354,2.297-2.356c1.271-0.002,2.303,1.048,2.305,2.348
				C94.062,9.727,93.034,10.783,91.764,10.785z"/>
			<path d="M62.466,6.094c-1.475,0.002-2.199,1.123-2.196,2.713v3.301h-1.612V8.81C58.653,6.23,60.329,4.65,62.64,4.647
				c2.293-0.006,3.648,1.666,3.648,4.15v3.311h-1.611v-3.31C64.675,7.254,64.072,6.09,62.466,6.094z"/>
			<path d="M99.834,6.094c-1.476,0.002-2.198,1.123-2.196,2.713v3.301h-1.611V8.81c-0.005-2.579,1.671-4.159,3.982-4.163
				c2.293-0.006,3.647,1.666,3.647,4.15v3.311h-1.612v-3.31C102.043,7.254,101.44,6.09,99.834,6.094z"/>
			<path d="M80.407,8.428c-0.006-2.091-1.703-3.782-3.795-3.779c-2.091,0.005-3.783,1.821-3.779,3.912
				c0.005,2.092,1.701,3.665,3.794,3.662c0.887-0.002,1.895-0.445,2.337-1.053v0.938l1.443,0.001V8.428z M76.625,10.785
				c-1.247,0.004-2.261-1.048-2.263-2.345c-0.004-1.298,1.006-2.353,2.254-2.355c1.246-0.003,2.26,1.047,2.264,2.346
				C78.881,9.729,77.872,10.783,76.625,10.785z"/>
			<path d="M80.884,2.794v6.433c-0.004,2.266,1.457,3.583,4.576,2.738l-0.348-1.301c-1.623,0.539-2.676-0.048-2.673-1.771
				c0,0,0-1.817,0-2.829h2.614V4.759h-2.614V2.794H80.884z"/>
			<g>
				<path d="M86.94,3.179c0.338-0.078,0.611-0.354,0.688-0.692c0.139-0.613-0.324-1.154-0.914-1.154
					c-0.516,0.001-0.936,0.421-0.934,0.938C85.78,2.861,86.327,3.321,86.94,3.179z"/>
				<polygon points="87.494,12.107 87.494,4.761 85.939,4.761 85.938,12.107 				"/>
			</g>
			<path d="M46.813,10.711c1.43,0,1.956-0.941,1.956-1.744c0-2.376-5.553-1.426-5.553-4.979c0-1.678,1.052-3.114,3.578-3.114
				c1.12,0,2.106,0.202,3.102,0.507l-0.37,1.505c-1.133-0.348-1.906-0.506-2.962-0.506c-1.182,0-1.639,0.653-1.639,1.288
				c0,2.523,5.61,1.66,5.61,5.041c0,1.975-1.232,3.514-3.632,3.514c-1.151,0-2.587-0.214-3.679-0.817l0.53-1.433
				C44.916,10.528,45.828,10.711,46.813,10.711z"/>
			<path d="M68.38,6.654c0-0.394,0.301-0.717,1.148-0.717c0.753,0,1.521,0.22,2.178,0.583l0.465-1.266
				c-0.699-0.381-1.582-0.61-2.463-0.61c-1.986,0-2.858,1.05-2.858,2.17c0,2.505,4.228,1.767,4.228,3.138
				c0,0.511-0.486,0.979-1.488,0.979c-0.774,0-1.529-0.223-2.322-0.652l-0.5,1.207c0.835,0.508,1.824,0.736,2.895,0.736
				c1.887,0,2.91-1.027,2.91-2.347C72.571,7.192,68.38,7.873,68.38,6.654z"/>
			<path d="M58.091,7.272c-0.336-1.575-1.674-2.63-3.362-2.627c-2.089,0.005-3.718,1.702-3.715,3.792
				c0.004,2.15,1.729,3.785,3.893,3.785c1.081,0,2.195-0.346,2.934-1.014l-0.735-1.128c-0.547,0.504-1.257,0.753-2.062,0.753
				c-1.188,0-2.343-0.899-2.509-1.927c0,0,2.959,0,4.253,0C58.118,8.907,58.34,8.448,58.091,7.272z M56.282,7.66
				c-0.271,0-3.704,0-3.704,0c0.317-0.92,1.125-1.577,2.153-1.579c1-0.001,1.605,0.521,1.802,1.2
				C56.604,7.527,56.576,7.66,56.282,7.66z"/>
		</g>
	</g>
	<g>
		<g>
			<g>
				<path d="M28.206,12.237c1.973,0,2.941-1.704,2.941-1.704v1.58l0.928,0.001V8.273c-0.004-2.176-1.743-3.946-3.876-3.946
					c-2.109,0.004-3.882,1.881-3.876,4.097C24.326,10.562,25.979,12.237,28.206,12.237z M28.204,11.299
					c-1.578,0-2.858-1.352-2.859-3.011c-0.004-1.634,1.318-3.019,2.848-3.022h0.006c1.571,0,2.851,1.35,2.854,3.01
					C31.055,9.939,29.777,11.295,28.204,11.299z"/>
			</g>
			<g>
				<path d="M36.215,2.253v6.934c-0.002,1,0.223,1.801,0.726,2.316c0.721,0.735,1.837,0.922,3.449,0.538l-0.198-0.864
					c-2.002,0.528-2.973-0.115-2.969-2.256V5.26h2.792V4.438h-2.792V2.253H36.215L36.215,2.253z"/>
			</g>
			<g>
				<path d="M21.722,12.117h0.982V5.26h1.912V4.441h-1.922l-0.001-0.294c-0.003-1.871,0.548-2.819,2.54-2.264l0.232-0.817
					c-0.444-0.11-0.812-0.167-1.19-0.167c-1.543,0-2.539,1.088-2.539,3.246v0.295h-0.971V5.26h0.958L21.722,12.117L21.722,12.117
					L21.722,12.117z"/>
			</g>
			<g>
				<path d="M15.386,12.117h0.998V7.41c0-1.555,0.482-2.184,1.962-2.184c0.397,0,0.853,0.063,1.363,0.195l0.228-0.904
					c-0.608-0.142-1.073-0.19-1.584-0.19c-2.185,0-2.968,1.1-2.968,2.956V12.117L15.386,12.117L15.386,12.117z"/>
			</g>
			<g>
				<rect x="33.481" y="4.444" width="0.999" height="7.67"/>
				<path d="M34.671,1.758c0-0.399-0.324-0.724-0.724-0.724c-0.399,0-0.724,0.325-0.724,0.724c0,0.4,0.324,0.724,0.724,0.724
					C34.347,2.481,34.671,2.158,34.671,1.758z"/>
			</g>
			<path d="M10.688,4.337c-2.138,0-3.871,1.768-3.871,3.95c0,2.182,1.732,3.95,3.871,3.95s3.872-1.769,3.872-3.95
				C14.56,6.105,12.826,4.337,10.688,4.337z M10.688,11.363c-1.634,0-2.958-1.377-2.958-3.076c0-1.7,1.324-3.077,2.958-3.077
				c1.633,0,2.957,1.377,2.957,3.077S12.321,11.363,10.688,11.363z"/>
			<path d="M1.798,12.117v-5.39h4.544V5.847H1.8c0,0,0-1.741,0-2.863c0-0.939,0.216-1.291,1.125-1.291c0.715,0,3.913,0,3.913,0
				v-0.93c0,0-2.926,0-3.94,0c-1.557,0-2.122,0.685-2.122,2.141c0,1.136,0,1.685,0,9.213H1.798z"/>
		</g>
	</g>
</g>
</svg>
