<?xml version="1.0" encoding="utf-8"?>
<!-- Generator: Adobe Illustrator 16.0.0, SVG Export Plug-In . SVG Version: 6.00 Build 0)  -->
<!DOCTYPE svg PUBLIC "-//W3C//DTD SVG 1.1//EN" "http://www.w3.org/Graphics/SVG/1.1/DTD/svg11.dtd">
<svg version="1.1" id="Layer_6" xmlns="http://www.w3.org/2000/svg" xmlns:xlink="http://www.w3.org/1999/xlink" x="0px" y="0px"
	 width="100px" height="100px" viewBox="0 0 100 100" enable-background="new 0 0 100 100" xml:space="preserve">
<path d="M74.919,65.133C81.1,59.48,84.58,52.393,85.523,44.08c1.978-17.414-10.521-33.781-27.808-36.435
	c-1.685-0.258-3.387-0.381-5.081-0.567c-0.121,0-0.24,0-0.361,0c-1.812,0.188-3.646,0.269-5.439,0.582
	c-8.987,1.567-16.188,6.066-21.573,13.424c-3.34,4.57-5.406,9.699-6.025,15.314c-1.211,11.001,2.089,20.499,10.021,28.266
	c5.463,5.346,12.092,8.408,19.686,9.133C58.841,74.736,67.57,71.855,74.919,65.133z M44.926,68.652
	c-3.422-0.868-6.468-2.303-9.118-4.127c1.43-0.401,3.614-1.279,3.812-6.82c0.276-7.759-0.97-9.421-1.663-9.421
	c-0.691,0-1.107-0.555-3.325,1.939c-2.217,2.493-3.325,1.248-3.464-0.416c-0.139-1.662-1.801-4.123-2.493-1.576
	c-0.478,1.753-1.544,3.807-2.39,5.281c-1.596-3.229-2.53-6.633-2.74-9.901c0.422-0.177,0.859-0.333,1.275-0.539
	c1.859-0.935,2.949-2.399,3.031-4.521c0.06-1.556,0.318-1.875,1.909-2.224c1.669-0.362,2.199-1.113,1.731-2.755
	c-0.314-1.094-0.827-2.134-1.297-3.179c-0.488-1.091-0.814-2.168-0.563-3.407c0.226-1.113,0.192-2.25-0.827-3.186
	c0.949-1.079,1.825-2.125,2.762-3.115c0.44-0.466,0.811-0.297,0.947,0.357c0.032,0.161,0.027,0.33,0.064,0.488
	c0.345,1.458,1.244,1.793,2.419,0.901c0.196-0.149,0.368-0.36,0.589-0.438c0.371-0.129,0.792-0.295,1.154-0.234
	c1.265,0.215,1.474,0.064,1.361-1.188c-0.082-0.886,0.229-1.221,1.105-1.18c0.3,0.015,0.598,0.076,0.898,0.083
	c0.948,0.014,1.541-0.703,1.308-1.62c-0.121-0.475-0.384-0.911-0.496-1.386c-0.085-0.351-0.196-0.899-0.017-1.077
	c0.725-0.711,1.504-1.395,2.359-1.935c1.543-0.972,3.102-0.261,4.635,0.1c0.164,1.251,0.336,1.42,1.528,1.066
	c1.421-0.423,2.77-1.016,3.738-2.237c0.121-0.154,0.412-0.274,0.607-0.253c1.463,0.167,2.926,0.358,4.383,0.586
	c0.211,0.035,0.539,0.316,0.535,0.477c-0.006,0.28-0.189,0.766-0.363,0.796c-0.475,0.083-1.023,0.082-1.465-0.088
	c-0.601-0.233-1.114-0.689-1.7-0.98c-0.71-0.352-1.224-0.092-1.425,0.674c-0.239,0.908,0.084,1.676,0.824,2.149
	c1.008,0.642,2.113,1.13,3.158,1.719c0.732,0.41,1.485,0.817,2.135,1.339c0.523,0.42,0.889,1.073,0.471,1.744
	c-0.385,0.623-1.07,0.476-1.639,0.276c-0.584-0.207-1.137-0.511-1.68-0.816c-0.332-0.184-0.605-0.474-0.932-0.672
	c-0.646-0.395-0.992-0.261-1.239,0.443c-0.416,1.184-1.208,1.458-2.269,0.771c-0.457-0.297-0.871-0.672-1.348-0.93
	c-0.706-0.38-1.462,0.025-1.53,0.764c-0.1,1.085-0.353,1.296-1.427,1.177c-0.635-0.072-1.267-0.166-1.901-0.251
	c-0.057,0.065-0.11,0.128-0.168,0.193c0.223,0.413,0.351,0.937,0.685,1.212c0.517,0.419,1.153,0.716,1.774,0.981
	c0.902,0.385,1.715,0.617,1.747,0.67c0,0-1.269,0.512-0.599,0.702c1.102,0.312,2.77,2.099,0.374,1.357
	c-0.431-0.13-0.869-0.236-1.473-0.4c0.503,1.516,1.568,2.112,2.624,2.677c3.156,1.69,3.265,5.736,1.654,7.812
	c-0.349,0.452-0.64,0.958-0.887,1.473c-0.288,0.593-0.268,1.303,0.301,1.616c0.383,0.209,1.153,0.165,1.494-0.097
	c0.829-0.634,1.582-1.407,2.234-2.23c0.83-1.044,1.426-2.285,2.304-3.279c2.836-3.212,6.039-2.504,8.779-0.087
	c0.692,0.612,0.602,1.166-0.163,1.67c-0.271,0.176-0.569,0.325-0.873,0.447c-1.217,0.492-2.441,0.962-3.66,1.451
	c-0.249,0.101-0.506,0.218-0.714,0.386c-0.421,0.339-0.446,0.701,0.106,0.92c0.401,0.161,0.832,0.255,1.258,0.349
	c0.801,0.172,1.646,0.221,2.392,0.523c0.431,0.176,0.927,0.712,0.983,1.139c0.05,0.364-0.436,0.864-0.782,1.199
	c-0.261,0.249-0.698,0.303-1.021,0.501c-0.449,0.272-0.935,0.538-1.285,0.917c-0.59,0.641-1.01,0.801-1.776,0.371
	c-0.739-0.411-1.451-0.872-2.164-1.327c-0.847-0.539-1.005-0.473-1.493,0.393c-0.607,1.077-1.441,1.963-2.798,1.723
	c-0.97-0.173-1.89-0.621-2.833-0.938c-0.643-0.217-1.275-0.534-1.936-0.612c-1.352-0.163-2.385,0.98-2.463,2.563
	c-0.076,1.584,0.656,2.769,1.775,3.798c1.095,1.009,1.685,2.163,1.181,3.729c-0.536,1.666,0.035,3.097,1.311,4.205
	c0.883,0.769,1.861,1.437,2.836,2.093c1.143,0.765,3.044,4.969,2.625,6.45c-0.08,0.276-0.104,0.314-0.083,0.615
	c0.108,1.577,0.919,1.301,2.328,1.547c0.797,0.14,0.718-1.547,0.901-2.317c0.174-0.741,0.174-1.563,0.059-2.322
	c-0.113-0.745-0.463-1.452-0.719-2.175c-0.532-1.512-0.146-2.797,0.963-3.895c0.486-0.479,1.017-0.914,1.518-1.383
	c1.812-1.695,2.693-3.83,2.79-6.272c0.048-1.231-0.556-1.791-1.774-1.906c-0.258-0.025-0.512-0.059-0.768-0.088
	c0.145-1.024,0.52-1.411,1.52-1.474c0.949-0.06,1.5-0.595,1.867-1.378c0.172-0.365,0.2-0.793,0.346-1.173
	c0.342-0.907,0.582-1.891,1.115-2.673c0.481-0.705,0.875-1.314,0.856-2.21c-0.009-0.419,0.292-0.906,0.585-1.254
	c0.66-0.784,1.393-1.51,2.117-2.239c0.283-0.286,0.625-0.516,1.094-0.896c0.033,0.717,0.034,1.182,0.079,1.64
	c0.063,0.65,0.071,1.327,0.278,1.931c0.117,0.338,0.611,0.787,0.896,0.76c0.361-0.034,0.881-0.443,0.977-0.789
	c0.175-0.634,0.221-1.367,0.088-2.011c-0.629-3.025-0.896-6.059-0.543-9.134c0.13-1.127,0.285-2.249,0.443-3.497
	c5.903,6.943,8.732,19.562,2.924,30.712C71.332,65.945,57.99,71.97,44.926,68.652z M15.828,89.469c0,2.139,6.008,3.873,13.422,3.873
	c7.413,0,13.421-1.734,13.421-3.873c0-2.017-5.347-3.671-12.174-3.854c-0.005-9.582,4.189-10.678,4.734-10.778
	c2.058,1.044,4.217,1.92,6.474,2.595c3.642,1.09,7.362,1.629,11.061,1.629c6.284,0,12.508-1.559,18.195-4.627
	c0.607-0.328,0.833-1.084,0.506-1.689c-0.328-0.608-1.085-0.832-1.689-0.506c-8.445,4.559-18.16,5.555-27.356,2.805
	c-9.193-2.749-16.77-8.915-21.326-17.359c-4.56-8.447-5.555-18.164-2.806-27.357c2.75-9.194,8.914-16.768,17.36-21.326
	c0.607-0.327,0.834-1.084,0.506-1.691c-0.326-0.609-1.084-0.831-1.688-0.505c-9.032,4.874-15.627,12.974-18.567,22.807
	c-2.938,9.833-1.875,20.224,3,29.256c0.649,1.203,1.359,2.359,2.119,3.473c0.463,1.671,3.996,14.865,2.99,23.565
	C19.2,86.496,15.829,87.869,15.828,89.469z M28.008,85.616c-0.5,0.014-0.993,0.034-1.472,0.062
	c0.578-6.043-0.711-13.664-1.819-18.73c2.313,2.468,4.938,4.609,7.819,6.381C30.497,74.689,28.005,77.936,28.008,85.616z"/>
</svg>
