<?xml version="1.0" encoding="UTF-8" standalone="no"?>
<svg width="24px" height="34px" viewBox="0 0 24 34" version="1.1" xmlns="http://www.w3.org/2000/svg" xmlns:xlink="http://www.w3.org/1999/xlink" xmlns:sketch="http://www.bohemiancoding.com/sketch/ns">
    <!-- Generator: Sketch 3.1.1 (8761) - http://www.bohemiancoding.com/sketch -->
    <title>icon-estimation@1x</title>
    <desc></desc>
    <defs></defs>
    <g id="Page-1" stroke="none" stroke-width="1"  fill-rule="evenodd" >
        <g id="icon-estimation">
            <path d="M17.5927273,7.37438298 C18.1098182,7.50821277 18.3898182,7.98348936 18.2618182,8.47178723 L18.2290909,8.59838298 C18.1010909,9.08668085 17.624,9.36591489 17.1069091,9.23208511 C16.5905455,9.09825532 16.3098182,8.62370213 16.4385455,8.13468085 L16.4712727,8.00953191 C16.5985455,7.51906383 17.0749091,7.2412766 17.5927273,7.37438298 M17.832,6.4592766 C17.5418182,6.38404255 17.3825455,6.11565957 17.4210909,5.81617021 L17.5767273,4.70429787 C17.6152727,4.35344681 17.8821818,4.15451064 18.232,4.20442553 C19.448,4.39902128 20.2225455,4.11617021 20.4290909,3.32621277 L20.4356364,3.30161702 C20.6203636,2.59774468 20.2050909,1.96910638 19.296,1.7332766 C18.6283636,1.56110638 18.0232727,1.65804255 17.4007273,1.97923404 C17.248,2.04795745 17.0647273,2.07978723 16.888,2.03421277 C16.4967273,1.93293617 16.2632727,1.53795745 16.3621818,1.16106383 C16.4116364,0.973702128 16.5389091,0.792851064 16.7549091,0.687957447 C17.5876364,0.233659574 18.5403636,0.0383404255 19.7018182,0.337829787 C21.4683636,0.795021277 22.4116364,2.08340426 22.0007273,3.65174468 L21.9934545,3.67706383 C21.5803636,5.25842553 20.2450909,5.6772766 18.7818182,5.55212766 L18.5810909,6.11710638 C18.4589091,6.37970213 18.1978182,6.55404255 17.9076364,6.47880851 L17.832,6.4592766 Z M20.9243636,9.21038298 C20.8850909,9.1792766 20.8741818,9.12285106 20.9163636,9.0606383 L21.3643636,8.39004255 C21.4101818,8.32276596 21.4967273,8.30395745 21.5745455,8.35676596 C22.1498182,8.75680851 22.7410909,8.78719149 23.1185455,8.31480851 L23.1265455,8.30468085 C23.4450909,7.9053617 23.4007273,7.32229787 22.9010909,6.92659574 C22.5294545,6.63217021 22.1083636,6.5786383 21.6516364,6.66110638 C21.6029091,6.67123404 21.5534545,6.6632766 21.5141818,6.63289362 C21.4509091,6.58225532 21.4363636,6.49978723 21.4872727,6.43685106 C21.5105455,6.40719149 21.544,6.38548936 21.5825455,6.37680851 C22.0872727,6.27553191 22.5956364,6.31965957 23.0901818,6.71029787 C23.736,7.22174468 23.8101818,7.97914894 23.3934545,8.5 L23.3854545,8.51012766 C22.9025455,9.11417021 22.1752727,9.06353191 21.5534545,8.68229787 L21.0814545,9.19229787 C21.0305455,9.24655319 20.9730909,9.2487234 20.9338182,9.21761702 L20.9243636,9.21038298 Z M20.5789091,9.65238298 C20.672,9.72617021 20.6850909,9.84842553 20.6123636,9.94102128 L20.5061818,10.0719574 C20.4327273,10.1645532 20.3098182,10.1790213 20.2167273,10.105234 C20.1236364,10.0314468 20.1098182,9.90919149 20.184,9.81659574 L20.2894545,9.68565957 C20.3629091,9.59306383 20.4858182,9.57859574 20.5789091,9.65238298 L20.5789091,9.65238298 Z M14.4225455,7.8706383 C14.1687273,7.90753191 14.0109091,8.12021277 14.0465455,8.36038298 L14.0552727,8.42187234 C14.0916364,8.66204255 14.3047273,8.81829787 14.5592727,8.78068085 C14.8123636,8.74378723 14.9709091,8.53182979 14.9338182,8.29165957 L14.9250909,8.22944681 C14.8930909,8.01387234 14.7170909,7.86485106 14.4974545,7.86485106 C14.472,7.86485106 14.4472727,7.86629787 14.4225455,7.8706383 M14.0247273,4.3693617 C13.4552727,4.4532766 13.072,4.71804255 12.7905455,5.07468085 C12.7149091,5.16076596 12.6916364,5.26421277 12.7054545,5.35680851 C12.7338182,5.542 12.9112727,5.67293617 13.1032727,5.644 C13.1898182,5.63170213 13.264,5.58323404 13.3185455,5.5246383 C13.5330909,5.26565957 13.7810909,5.10940426 14.1090909,5.06165957 C14.5549091,4.99582979 14.8574545,5.19621277 14.9083636,5.54055319 L14.9112727,5.55285106 C14.968,5.94059574 14.68,6.20897872 14.1069091,6.35148936 C13.9425455,6.39417021 13.8618182,6.53234043 13.9112727,6.69438298 L14.0523636,7.21451064 C14.0916364,7.35340426 14.2123636,7.44238298 14.3549091,7.42140426 L14.3927273,7.41489362 C14.5338182,7.3946383 14.6174545,7.26876596 14.6218182,7.13059574 L14.6043636,6.84268085 C15.2734545,6.62493617 15.7832727,6.19089362 15.6669091,5.41540426 L15.6654545,5.40310638 C15.5650909,4.73034043 15.048,4.34548936 14.3403636,4.34548936 C14.2385455,4.34548936 14.1338182,4.35344681 14.0247273,4.3693617" id="Fill-1" ></path>
            <path d="M3.54763636,31.5527234 L3.43418182,30.464 C3.40436364,30.1775319 3.61309091,29.9207234 3.90109091,29.8910638 L5.75927273,29.6986383 C6.048,29.6689787 6.30472727,29.8773191 6.336,30.1637872 L6.44872727,31.2525106 C6.47854545,31.5389787 6.26909091,31.7950638 5.98109091,31.8254468 L4.12436364,32.0171489 C4.10618182,32.0193191 4.08654545,32.0200426 4.06909091,32.0200426 C3.80436364,32.0200426 3.576,31.820383 3.54763636,31.5527234 M7.46763636,31.1468936 L7.35272727,30.0588936 C7.32290909,29.7717021 7.53309091,29.515617 7.82036364,29.4859574 L9.67854545,29.2942553 C9.96654545,29.2638723 10.2254545,29.4722128 10.2552727,29.7586809 L10.3687273,30.8466809 C10.3985455,31.1338723 10.1883636,31.3906809 9.90036364,31.4203404 L8.04363636,31.6120426 C8.02472727,31.6142128 8.00654545,31.6149362 7.98836364,31.6149362 C7.72363636,31.6149362 7.49527273,31.416 7.46763636,31.1468936 M11.3861818,30.7417872 L11.272,29.6530638 C11.2421818,29.3665957 11.4523636,29.1105106 11.7403636,29.0801277 L13.5970909,28.8884255 C13.8858182,28.858766 14.144,29.0671064 14.1730909,29.3535745 L14.288,30.4415745 C14.3178182,30.7280426 14.1083636,30.9841277 13.8203636,31.0145106 L11.9621818,31.2069362 C11.944,31.2091064 11.9265455,31.2091064 11.9069091,31.2091064 C11.6414545,31.2091064 11.4138182,31.0101702 11.3861818,30.7417872 M3.23781818,28.5911064 L3.12436364,27.502383 C3.09454545,27.2159149 3.30327273,26.9591064 3.592,26.9294468 L5.44872727,26.7362979 C5.73818182,26.7073617 5.99563636,26.9149787 6.02545455,27.2014468 L6.13890909,28.2908936 C6.16945455,28.5773617 5.95927273,28.8334468 5.67127273,28.8638298 L3.81381818,29.0555319 C3.79636364,29.0569787 3.77745455,29.0584255 3.75927273,29.0584255 C3.49381818,29.0584255 3.26618182,28.858766 3.23781818,28.5911064 M7.15709091,28.1852766 L7.04436364,27.0965532 C7.01381818,26.8093617 7.22254545,26.554 7.51054545,26.523617 L9.36872727,26.3319149 C9.65672727,26.3015319 9.91563636,26.5091489 9.944,26.7963404 L10.0589091,27.8850638 C10.0887273,28.1722553 9.87854545,28.4283404 9.59127273,28.458 L7.73381818,28.6489787 C7.71490909,28.6518723 7.69672727,28.6525957 7.67927273,28.6525957 C7.41236364,28.6525957 7.18545455,28.4529362 7.15709091,28.1852766 M11.0770909,27.7794468 L10.9629091,26.6914468 C10.9323636,26.4042553 11.1418182,26.1488936 11.4298182,26.1185106 L13.2887273,25.9268085 C13.576,25.8964255 13.8341818,26.104766 13.864,26.391234 L13.9781818,27.4799574 C14.008,27.7664255 13.7992727,28.023234 13.5105455,28.0528936 L11.6523636,28.2453191 C11.6341818,28.246766 11.616,28.2474894 11.5978182,28.2474894 C11.3316364,28.2474894 11.1047273,28.0485532 11.0770909,27.7794468 M15.312,30.4017872 L14.8829091,26.2928511 C14.8530909,26.0071064 15.0632727,25.7517447 15.3505455,25.7213617 L17.1316364,25.537617 C17.4196364,25.507234 17.6785455,25.7148511 17.7083636,26.0005957 L18.1374545,30.1095319 C18.1672727,30.3952766 17.9578182,30.6506383 17.6698182,30.6810213 L15.8887273,30.8640426 C15.8698182,30.8669362 15.8516364,30.8676596 15.8341818,30.8676596 C15.568,30.8676596 15.3403636,30.6687234 15.312,30.4017872 M2.91272727,25.4768511 L2.79927273,24.3888511 C2.76945455,24.1016596 2.97818182,23.8448511 3.26618182,23.8151915 L5.12436364,23.6234894 C5.41163636,23.5938298 5.66981818,23.8014468 5.69963636,24.0886383 L5.81309091,25.1766383 C5.84363636,25.4638298 5.63418182,25.7206383 5.34690909,25.7495745 L3.48945455,25.942 C3.47054545,25.9441702 3.45236364,25.9448936 3.43418182,25.9448936 C3.16872727,25.9448936 2.93963636,25.745234 2.91272727,25.4768511 M6.832,25.0717447 L6.71781818,23.9830213 C6.688,23.6965532 6.89745455,23.4404681 7.18545455,23.4100851 L9.04363636,23.218383 C9.33163636,23.188 9.58981818,23.3963404 9.61963636,23.6828085 L9.73381818,24.7715319 C9.76363636,25.058 9.55345455,25.3148085 9.26545455,25.3444681 L7.40872727,25.5368936 C7.38981818,25.5383404 7.37163636,25.5390638 7.35272727,25.5390638 C7.08727273,25.5390638 6.86036364,25.3401277 6.832,25.0717447 M10.7505455,24.6659149 L10.6370909,23.5779149 C10.6072727,23.2914468 10.8174545,23.0346383 11.1054545,23.0049787 L12.9621818,22.8125532 C13.2509091,22.7828936 13.5083636,22.991234 13.5381818,23.2777021 L13.6523636,24.3657021 C13.6829091,24.6521702 13.4727273,24.9089787 13.184,24.9386383 L11.3265455,25.1310638 C11.3090909,25.133234 11.2901818,25.1339574 11.272,25.1339574 C11.0065455,25.1339574 10.7789091,24.9342979 10.7505455,24.6659149 M14.6698182,24.2608085 L14.5563636,23.1728085 C14.5265455,22.885617 14.7352727,22.6288085 15.024,22.5998723 L16.8829091,22.4067234 C17.1701818,22.3777872 17.4283636,22.5854043 17.4581818,22.8725957 L17.5716364,23.9605957 C17.6014545,24.2477872 17.3927273,24.5038723 17.1047273,24.5342553 L15.2465455,24.7259574 C15.2276364,24.7281277 15.2109091,24.7288511 15.1927273,24.7288511 C14.9265455,24.7288511 14.6981818,24.5291915 14.6698182,24.2608085 M2.49236364,21.4518298 L2.37818182,20.3631064 C2.34836364,20.0766383 2.55781818,19.8205532 2.84509091,19.7901702 L4.70254545,19.5984681 C4.99127273,19.5680851 5.24945455,19.7764255 5.27927273,20.0628936 L5.39272727,21.151617 C5.42254545,21.4380851 5.21381818,21.6948936 4.92581818,21.7245532 L3.06763636,21.9169787 C3.04945455,21.9184255 3.032,21.9191489 3.01309091,21.9191489 C2.74763636,21.9191489 2.51927273,21.7202128 2.49236364,21.4518298 M6.41090909,21.046 L6.29745455,19.9587234 C6.26690909,19.6715319 6.47636364,19.4147234 6.76509091,19.3857872 L8.62254545,19.1926383 C8.91127273,19.1637021 9.16945455,19.3713191 9.19781818,19.6585106 L9.312,20.7465106 C9.34181818,21.0329787 9.13309091,21.2897872 8.84436364,21.3194468 L6.98763636,21.5118723 C6.96945455,21.5140426 6.95127273,21.514766 6.93309091,21.514766 C6.66690909,21.514766 6.43927273,21.3151064 6.41090909,21.046 M10.3301818,20.641617 L10.2167273,19.5528936 C10.1869091,19.2664255 10.3956364,19.009617 10.6843636,18.9799574 L12.5418182,18.7875319 C12.8305455,18.7578723 13.0872727,18.9662128 13.1178182,19.2526809 L13.2312727,20.3414043 C13.2618182,20.6278723 13.0523636,20.8839574 12.7650909,20.9143404 L10.9069091,21.1060426 C10.8887273,21.1082128 10.8698182,21.1089362 10.8516364,21.1089362 C10.5861818,21.1089362 10.3578182,20.9092766 10.3301818,20.641617 M14.2494545,20.2357872 L14.136,19.1470638 C14.1069091,18.8605957 14.3163636,18.6045106 14.6043636,18.5741277 L16.4610909,18.3824255 C16.7490909,18.3520426 17.0065455,18.560383 17.0378182,18.8475745 L17.1512727,19.9355745 C17.1810909,20.2220426 16.9723636,20.4788511 16.6843636,20.5085106 L14.8261818,20.7009362 C14.8065455,20.702383 14.7890909,20.7031064 14.7709091,20.7031064 C14.5054545,20.7031064 14.2778182,20.5041702 14.2494545,20.2357872 M2.10327273,17.7306383 L1.75927273,14.4398723 C1.72945455,14.1534043 1.93818182,13.8958723 2.22690909,13.8669362 L15.8414545,12.4584681 C16.1301818,12.4288085 16.3876364,12.6371489 16.4174545,12.923617 L16.7621818,16.214383 C16.792,16.5008511 16.5832727,16.7576596 16.2938182,16.7880426 L2.67927273,18.1957872 C2.65963636,18.1979574 2.64290909,18.1986809 2.624,18.1986809 C2.35854545,18.1986809 2.13018182,17.9990213 2.10327273,17.7306383 M15.7229091,10.2180851 L2.56654545,11.5795319 C0.991272727,11.7422979 -0.145454545,13.2021277 0.0254545455,14.8413617 L1.74763636,31.3118298 C1.89018182,32.6790638 2.89890909,33.7381277 4.14472727,33.9565957 L5.16654545,33.9565957 L18.0647273,32.6226383 C19.64,32.4598723 20.7767273,30.9993191 20.6058182,29.3608085 L18.8843636,12.8910638 C18.7229091,11.352383 17.4654545,10.2043404 16.0094545,10.2043404 C15.9141818,10.2043404 15.8189091,10.2094043 15.7229091,10.2180851" id="Fill-7" ></path>
        </g>
    </g>
</svg>