<?xml version="1.0" encoding="UTF-8" standalone="no"?>
<svg width="26px" height="18px" viewBox="0 0 26 18" version="1.1" xmlns="http://www.w3.org/2000/svg" xmlns:xlink="http://www.w3.org/1999/xlink" xmlns:sketch="http://www.bohemiancoding.com/sketch/ns">
    <!-- Generator: Sketch 3.1.1 (8761) - http://www.bohemiancoding.com/sketch -->
    <title>icon-email@1x</title>
    <desc></desc>
    <defs></defs>
    <g id="Page-1" stroke="none" stroke-width="1"  fill-rule="evenodd" >
        <path d="M18.1205138,9.00163073 L23.9270253,4.60355137 L23.9875182,13.4005255 L18.1205138,9.00163073 L18.1205138,9.00163073 Z M23.8495943,15.8017757 C23.8342695,15.8213444 23.8149118,15.8384671 23.795554,15.8564051 C23.7826489,15.8629281 23.77297,15.8735278 23.7600649,15.8833122 C23.739094,15.8979888 23.7181231,15.91185 23.6955391,15.9248958 C23.682634,15.9314187 23.6697288,15.9403878 23.6576302,15.9436492 C23.6326265,15.9550643 23.6019768,15.9648487 23.576973,15.9738177 C23.5608416,15.9754485 23.5511627,15.9803406 23.5390641,15.9836021 C23.4971224,15.9917558 23.4584069,15.9999094 23.4116258,15.9999094 L2.68998571,15.9917558 C2.64643082,15.9917558 2.60126279,15.9868636 2.56254734,15.9770792 C2.54883562,15.9754485 2.53512389,15.9697409 2.52302531,15.963218 C2.4947953,15.9566951 2.47059814,15.9485414 2.44640098,15.938757 C2.42946297,15.9330495 2.41736439,15.9216344 2.40445924,15.9134807 C2.38348837,15.9036963 2.3625175,15.8914658 2.33993348,15.8767893 C2.3278349,15.8686356 2.31412318,15.8580359 2.30363774,15.8466208 C2.28589316,15.8303135 2.26572886,15.8131908 2.24879085,15.7976989 C2.24556456,15.7911759 2.24072513,15.7862837 2.23749884,15.7813916 L9.55229989,10.2491393 C9.55229989,10.2491393 11.0154214,11.6898895 13.0205593,11.6898895 C15.024084,11.6915202 16.4646215,10.2507701 16.4646215,10.2507701 L23.8592732,15.7895452 C23.8560469,15.7944374 23.8528206,15.7976989 23.8495943,15.8017757 L23.8495943,15.8017757 Z M2.00601269,4.59865918 L7.88188938,8.9975539 L2.07053845,13.3891103 L2.00601269,4.59865918 L2.00601269,4.59865918 Z M2.15119564,2.19088603 C2.16490737,2.17784019 2.18265195,2.16234825 2.19797682,2.14767168 C2.21491483,2.1354412 2.22540026,2.12239536 2.24233827,2.11261098 C2.261696,2.09874977 2.27944058,2.08896539 2.29718517,2.07755028 C2.31251003,2.06858126 2.33025462,2.06205834 2.34638606,2.05227396 C2.36655036,2.04085885 2.3883278,2.03841276 2.41091181,2.0302591 C2.42704325,2.02699764 2.44640098,2.01721326 2.46172585,2.0139518 C2.49156901,2.00905961 2.51657274,2.00661352 2.54560933,2.00661352 C2.55932105,2.00416742 2.57303278,2.00172133 2.58593793,2.00172133 L23.3140306,2.00742888 C23.3253226,2.00661352 23.3390343,2.01069034 23.352746,2.01232107 C23.380976,2.0139518 23.4100126,2.01558253 23.4350164,2.01884399 C23.4519544,2.02373618 23.4705055,2.0302591 23.4874435,2.0351513 C23.509221,2.04248958 23.531805,2.04738177 23.5527759,2.05716615 C23.5705205,2.0653198 23.5834256,2.07591955 23.6011702,2.08244247 C23.6205279,2.09385758 23.6414988,2.10527269 23.6576302,2.1191339 C23.6729551,2.13054901 23.6850537,2.14196412 23.6987654,2.15093314 C23.7181231,2.16724044 23.750386,2.20067041 23.750386,2.20067041 C23.7552254,2.20719333 23.7568386,2.21127016 23.7632911,2.21616235 L15.489476,8.46185903 C15.489476,8.46185903 14.161052,9.54955608 13.0036213,9.54874071 C11.8437708,9.54629462 10.4984088,8.45615148 10.4984088,8.45615148 L2.14071021,2.21127016 C2.14474307,2.20719333 2.14716278,2.20067041 2.15119564,2.19088603 L2.15119564,2.19088603 Z M23.2987057,0.00733828592 L2.57303278,0 C1.91003063,0 1.30671481,0.251132452 0.851001654,0.663707193 C0.632420654,0.862656278 0.443682817,1.09666606 0.304952441,1.3575829 C0.108148884,1.72775865 -0.00315804546,2.14604095 6.82423562e-05,2.59693785 L0.093630589,15.3924624 C0.103309452,16.827505 1.27122564,17.9918463 2.70208429,17.9934771 L23.4293704,18 C24.0552702,18 24.6263231,17.7733285 25.0723574,17.4039681 C25.6442169,16.9294256 26.0063678,16.2078275 25.9999152,15.4006161 L25.9071594,2.6050915 C25.8974805,1.16841819 24.7295643,0.00733828592 23.2987057,0.00733828592 Z" id="icon-email"></path>
    </g>
</svg>