<?xml version="1.0" encoding="utf-8"?>
<!-- Generator: Adobe Illustrator 16.0.0, SVG Export Plug-In . SVG Version: 6.00 Build 0)  -->
<!DOCTYPE svg PUBLIC "-//W3C//DTD SVG 1.1//EN" "http://www.w3.org/Graphics/SVG/1.1/DTD/svg11.dtd">
<svg version="1.1" id="Layer_1" xmlns="http://www.w3.org/2000/svg" xmlns:xlink="http://www.w3.org/1999/xlink" x="0px" y="0px"
	 width="64.195px" height="80.967px" viewBox="0 0 64.195 80.967" enable-background="new 0 0 64.195 80.967" xml:space="preserve">
<path d="M51.52,13.615V0l12.637,14.869H53.07C52.016,14.869,51.52,14.67,51.52,13.615"/>
<path d="M59.465,74.43c0,0.998-0.811,1.807-1.809,1.807H6.542c-0.999,0-1.812-0.809-1.812-1.807V6.543
	c0-0.995,0.812-1.808,1.812-1.808h35.995v11.336c0,4.569,3.097,7.638,7.701,7.638h9.227V74.43z M64.195,24.049v-5.072H50.238
	c-1.998,0-2.971-0.952-2.971-2.905V0.008H6.542C2.935,0.008,0,2.939,0,6.543V74.43c0,3.604,2.935,6.537,6.542,6.537h9.398h0.192
	h41.523c3.607,0,6.539-2.934,6.539-6.537V28.779"/>
<path d="M18.303,41h-1.51v3h1.343c0.811,0,1.379,0.031,1.707-0.25c0.328-0.283,0.491-0.557,0.491-0.996
	c0-0.428-0.142-0.9-0.426-1.197C19.623,41.26,19.088,41,18.303,41"/>
<path d="M31.931,42h-1.138v7h1.119c0.877,0,1.502-0.07,1.873-0.266c0.372-0.193,0.663-0.52,0.873-1.006
	c0.211-0.484,0.315-1.266,0.315-2.354c0-1.441-0.235-2.236-0.705-2.77C33.799,42.075,33.02,42,31.931,42"/>
<path d="M4.793,56h55V34h-55V56z M23.188,45.889C22.361,46.663,21.102,47,19.406,47h-2.613v5h-4V39h7.078
	c1.521,0,2.66,0.135,3.418,0.856c0.758,0.726,1.137,1.617,1.137,2.953C24.426,44.182,24.013,45.118,23.188,45.889 M38.698,48.68
	c-0.331,0.801-0.79,1.471-1.378,2.012c-0.588,0.543-1.218,0.83-1.893,1.01C34.507,51.95,33.672,52,32.924,52h-6.131V39h6.131
	c1.23,0,2.225-0.062,2.982,0.272c0.757,0.334,1.384,0.7,1.879,1.324c0.494,0.625,0.854,1.294,1.076,2.125
	c0.223,0.828,0.334,1.678,0.334,2.605C39.195,46.78,39.029,47.879,38.698,48.68 M51.793,41h-6v3h5v3h-5v5h-4V39h10V41z"/>
</svg>
