<?xml version="1.0" encoding="utf-8"?>
<!-- Generator: Adobe Illustrator 16.0.0, SVG Export Plug-In . SVG Version: 6.00 Build 0)  -->
<!DOCTYPE svg PUBLIC "-//W3C//DTD SVG 1.1//EN" "http://www.w3.org/Graphics/SVG/1.1/DTD/svg11.dtd">
<svg version="1.1" id="Calque_1" xmlns="http://www.w3.org/2000/svg" xmlns:xlink="http://www.w3.org/1999/xlink" x="0px" y="0px"
	 width="244.98px" height="315.589px" viewBox="0 0 244.98 315.589" enable-background="new 0 0 244.98 315.589"
	 xml:space="preserve">
<g>
	<g id="Calque_5">
		<path fill="#1ED760" d="M40.047,280.484c-8.089-1.929-9.528-3.283-9.528-6.128c0-2.688,2.529-4.496,6.293-4.496
			c3.647,0,7.264,1.373,11.056,4.201c0.115,0.086,0.258,0.12,0.4,0.097c0.142-0.021,0.267-0.099,0.35-0.216l3.95-5.567
			c0.162-0.229,0.118-0.545-0.102-0.722c-4.513-3.62-9.595-5.382-15.534-5.382c-8.734,0-14.835,5.241-14.835,12.741
			c0,8.042,5.263,10.89,14.356,13.088c7.741,1.782,9.047,3.276,9.047,5.946c0,2.959-2.642,4.799-6.893,4.799
			c-4.723,0-8.573-1.592-12.881-5.322c-0.107-0.092-0.253-0.134-0.39-0.126c-0.143,0.013-0.272,0.078-0.363,0.187l-4.43,5.271
			c-0.186,0.219-0.162,0.545,0.054,0.734c5.013,4.476,11.178,6.84,17.831,6.84c9.411,0,15.492-5.143,15.492-13.102
			c0.018-6.72-4.006-10.439-13.857-12.836L40.047,280.484z"/>
		<path fill="#1ED760" d="M75.214,272.505c-4.079,0-7.426,1.607-10.185,4.899v-3.706c0-0.293-0.237-0.531-0.529-0.531h-7.243
			c-0.293,0-0.528,0.238-0.528,0.531v41.178c0,0.293,0.236,0.531,0.528,0.531H64.5c0.292,0,0.529-0.238,0.529-0.531v-12.998
			c2.76,3.097,6.105,4.609,10.185,4.609c7.58,0,15.253-5.835,15.253-16.988c0.012-11.158-7.663-16.994-15.244-16.994H75.214z
			 M82.045,289.5c0,5.68-3.499,9.644-8.509,9.644c-4.953,0-8.688-4.144-8.688-9.644s3.735-9.645,8.688-9.645
			C78.465,279.855,82.046,283.91,82.045,289.5L82.045,289.5z"/>
		<path fill="#1ED760" d="M110.135,272.505c-9.763,0-17.41,7.518-17.41,17.115c0,9.494,7.595,16.932,17.29,16.932
			c9.797,0,17.468-7.492,17.468-17.053C127.483,279.971,119.863,272.507,110.135,272.505L110.135,272.505z M110.135,299.201
			c-5.192,0-9.107-4.173-9.107-9.703c0-5.556,3.779-9.586,8.987-9.586c5.226,0,9.167,4.172,9.167,9.707
			C119.182,295.171,115.378,299.201,110.135,299.201L110.135,299.201z"/>
		<path fill="#1ED760" d="M148.329,273.167h-7.97v-8.148c0-0.292-0.236-0.529-0.529-0.529h-7.242c-0.293,0-0.53,0.237-0.53,0.529
			v8.148h-3.483c-0.291,0-0.528,0.238-0.528,0.531v6.225c0,0.293,0.236,0.531,0.528,0.531h3.483v16.107
			c0,6.509,3.239,9.809,9.629,9.809c2.598,0,4.754-0.537,6.785-1.688c0.164-0.092,0.267-0.27,0.267-0.459v-5.928
			c0-0.184-0.095-0.356-0.252-0.451c-0.158-0.1-0.354-0.104-0.516-0.024c-1.396,0.702-2.744,1.026-4.253,1.026
			c-2.323,0-3.36-1.055-3.36-3.42v-14.969h7.97c0.293,0,0.528-0.238,0.528-0.531v-6.225c0.011-0.293-0.225-0.531-0.521-0.531
			L148.329,273.167z"/>
		<path fill="#1ED760" d="M176.1,273.201v-1.002c0-2.943,1.129-4.257,3.661-4.257c1.51,0,2.723,0.3,4.08,0.753
			c0.167,0.053,0.343,0.026,0.479-0.074c0.14-0.1,0.219-0.261,0.219-0.431v-6.104c0-0.232-0.149-0.439-0.375-0.508
			c-1.435-0.428-3.271-0.865-6.02-0.865c-6.69,0-10.227,3.767-10.227,10.891v1.533h-3.479c-0.292,0-0.531,0.238-0.531,0.529v6.258
			c0,0.291,0.239,0.531,0.531,0.531h3.479V305.3c0,0.293,0.236,0.531,0.528,0.531h7.243c0.293,0,0.531-0.238,0.531-0.531v-24.844
			h6.763l10.358,24.84c-1.176,2.609-2.332,3.129-3.91,3.129c-1.276,0-2.62-0.381-3.994-1.133c-0.129-0.071-0.283-0.084-0.422-0.041
			c-0.139,0.049-0.256,0.152-0.313,0.287l-2.455,5.385c-0.117,0.256-0.017,0.554,0.229,0.686c2.562,1.389,4.876,1.98,7.735,1.98
			c5.349,0,8.305-2.491,10.91-9.193l12.566-32.471c0.062-0.163,0.044-0.348-0.057-0.493c-0.1-0.144-0.26-0.229-0.436-0.229h-7.54
			c-0.226,0-0.428,0.144-0.502,0.355l-7.724,22.064l-8.462-22.078c-0.076-0.205-0.274-0.342-0.494-0.342h-12.375L176.1,273.201z"/>
		<path fill="#1ED760" d="M159.999,273.167h-7.243c-0.293,0-0.53,0.238-0.53,0.531V305.3c0,0.293,0.237,0.531,0.53,0.531h7.243
			c0.292,0,0.531-0.238,0.531-0.531v-31.598c0-0.293-0.235-0.531-0.532-0.531L159.999,273.167z"/>
		<path fill="#1ED760" d="M156.418,258.781c-2.869,0-5.197,2.322-5.197,5.191c0,2.871,2.328,5.197,5.197,5.197
			c2.868,0,5.194-2.326,5.194-5.197c0-2.869-2.327-5.191-5.192-5.191H156.418L156.418,258.781z"/>
		<path fill="#1ED760" d="M219.871,283.33c-2.867,0-5.097-2.303-5.097-5.099s2.26-5.124,5.124-5.124
			c2.867,0,5.097,2.303,5.097,5.096C224.995,280.998,222.735,283.33,219.871,283.33L219.871,283.33z M219.899,273.615
			c-2.611,0-4.586,2.075-4.586,4.616c0,2.54,1.961,4.588,4.56,4.588c2.61,0,4.588-2.073,4.588-4.616c0-2.541-1.964-4.588-4.56-4.588
			H219.899z M221.029,278.726l1.442,2.02h-1.217l-1.298-1.853h-1.116v1.853h-1.018v-5.352h2.386c1.243,0,2.061,0.636,2.061,1.707
			c0.006,0.877-0.504,1.413-1.236,1.625H221.029L221.029,278.726z M220.168,276.312h-1.327v1.691h1.327
			c0.662,0,1.059-0.323,1.059-0.846C221.226,276.607,220.829,276.312,220.168,276.312L220.168,276.312L220.168,276.312z"/>
	</g>
	<g id="Calque_4">
		<path fill="#1ED760" d="M122.49,0C54.842,0,0,54.841,0,122.488c0,67.655,54.842,122.493,122.49,122.493
			c67.651,0,122.49-54.838,122.49-122.493c0-67.644-54.836-122.483-122.491-122.483L122.49,0z M178.663,176.664
			c-2.2,3.609-6.9,4.739-10.498,2.541c-28.764-17.58-64.968-21.551-107.605-11.811c-4.109,0.941-8.204-1.635-9.141-5.741
			c-0.94-4.109,1.624-8.204,5.742-9.14c46.66-10.667,86.684-6.076,118.969,13.652c3.599,2.209,4.739,6.904,2.53,10.502
			L178.663,176.664z M193.656,143.316c-2.77,4.495-8.647,5.905-13.136,3.145c-32.918-20.235-83.113-26.096-122.058-14.274
			c-5.051,1.526-10.385-1.321-11.918-6.363c-1.521-5.051,1.327-10.375,6.369-11.911c44.485-13.498,99.786-6.959,137.598,16.275
			C195.002,132.952,196.42,138.833,193.656,143.316L193.656,143.316z M194.943,108.586C155.459,85.137,90.331,82.981,52.639,94.421
			c-6.054,1.836-12.453-1.581-14.287-7.634c-1.834-6.055,1.58-12.452,7.637-14.292C89.256,59.36,161.184,61.898,206.635,88.88
			c5.443,3.231,7.229,10.262,4.003,15.699C207.42,110.023,200.37,111.818,194.943,108.586L194.943,108.586L194.943,108.586z"/>
	</g>
</g>
</svg>
