<?xml version="1.0" encoding="UTF-8" standalone="no"?>
<svg width="18px" height="32px" viewBox="0 0 18 32" version="1.1" xmlns="http://www.w3.org/2000/svg" xmlns:xlink="http://www.w3.org/1999/xlink" xmlns:sketch="http://www.bohemiancoding.com/sketch/ns">
    <!-- Generator: Sketch 3.1.1 (8761) - http://www.bohemiancoding.com/sketch -->
    <title>icon-phone-password@1x</title>
    <desc></desc>
    <defs></defs>
    <g id="Page-1" stroke="none" stroke-width="1"  fill-rule="evenodd" >
        <g id="icon-phone-password"  transform="translate(0.000000, 1.000000)">
            <path d="M10.1403,14.0595556 C9.5931,14.0595556 9.1521,13.608 9.1521,13.0506667 C9.1521,12.7164444 9.3204,12.4355556 9.5643,12.2515556 C9.4743,12.2373333 9.3843,12.224 9.2898,12.224 C8.298,12.224 7.4916,13.0453333 7.4916,14.0595556 C7.4916,15.0737778 8.298,15.896 9.2898,15.896 C10.2825,15.896 11.0871,15.0737778 11.0871,14.0595556 C11.0871,13.8711111 11.0511,13.6915556 10.9989,13.52 C10.8324,13.8364444 10.5156,14.0595556 10.1403,14.0595556" id="Fill-1" ></path>
            <path d="M15.2361,13.8782222 C14.2047,12.7297778 13.1634,11.9475556 12.141,11.4551111 C11.1186,10.9617778 10.1151,10.7608889 9.1764,10.7608889 C7.4421,10.7617778 5.9409,11.4373333 4.8258,12.1537778 C3.7107,12.8728889 2.9754,13.6373333 2.7585,13.8782222 C2.5875,14.0702222 2.601,14.3662222 2.7873,14.5395556 C2.8044,14.5564444 2.826,14.5626667 2.8458,14.576 C2.8566,14.5964444 2.8512,14.6204444 2.8665,14.6391111 C3.9447,15.9013333 5.004,16.7555556 6.0264,17.2942222 C7.0497,17.8311111 8.0388,18.0524444 8.955,18.0524444 C10.665,18.0515556 12.1104,17.2968889 13.1751,16.5013333 C13.707,16.104 14.1453,15.6933333 14.4765,15.3546667 C14.805,15.0168889 15.0336,14.7448889 15.1236,14.6453333 C15.1407,14.6257778 15.1353,14.5991111 15.147,14.5768889 C15.1668,14.5635556 15.1893,14.5573333 15.2082,14.5395556 C15.3945,14.3662222 15.4062,14.0702222 15.2361,13.8782222 L15.2361,13.8782222 Z M9.1503,17.1413333 C8.3736,17.1404444 7.6716,16.8195556 7.1604,16.2986667 C6.651,15.7777778 6.336,15.0613333 6.336,14.2666667 C6.336,13.472 6.651,12.7555556 7.1604,12.2337778 C7.2702,12.1226667 7.3917,12.0257778 7.5168,11.9333333 C8.0415,11.7866667 8.5968,11.6968889 9.1764,11.6968889 C9.6966,11.6977778 10.2375,11.7777778 10.7946,11.9422222 C10.9161,12.032 11.0349,12.1253333 11.1411,12.2337778 C11.6514,12.7555556 11.9655,13.472 11.9655,14.2666667 C11.9655,15.0613333 11.6514,15.7777778 11.1411,16.2986667 C10.6317,16.8195556 9.9288,17.1404444 9.1503,17.1413333 L9.1503,17.1413333 Z M3.5118,14.4293333 C3.7503,14.1751111 4.3848,13.544 5.3154,12.9466667 C5.6025,12.7608889 5.9184,12.5831111 6.2523,12.4195556 C5.9238,12.9564444 5.7258,13.5866667 5.7258,14.2666667 C5.7258,15.4391111 6.2955,16.4711111 7.1622,17.1057778 C6.8823,17.0071111 6.5979,16.8915556 6.3072,16.7386667 C5.4225,16.2728889 4.4829,15.5253333 3.5118,14.4293333 L3.5118,14.4293333 Z M14.0436,14.9137778 C13.5729,15.3964444 12.8727,16.0302222 12.0033,16.5368889 C11.8458,16.6293333 11.6775,16.7111111 11.5092,16.7937778 C12.1635,16.1564444 12.5766,15.2631111 12.5766,14.2666667 C12.5766,13.6133333 12.3894,13.0097778 12.0852,12.4871111 C12.8601,12.9137778 13.6656,13.5368889 14.4864,14.4346667 C14.373,14.5635556 14.2344,14.7173333 14.0436,14.9137778 L14.0436,14.9137778 Z" id="Fill-2" ></path>
            <path d="M17.6139,18.768 L17.6139,7.48355556 L17.6148,2.27555556 L17.6148,1.52 C17.6148,1.52 17.6148,-0.403555556 15.732,-0.403555556 L2.1582,-0.403555556 C2.1582,-0.403555556 0.999,-0.398222222 0.5004,0.531555556 C0.3627,0.788444444 0.2736,1.10755556 0.2736,1.52 L0.2736,28.848 C0.2736,28.848 0.2736,30.5511111 1.8432,30.752 L15.957,30.752 C16.4565,30.6808889 17.6148,30.3546667 17.6148,28.848 L17.6148,28.5386667 L17.6139,28.5386667 L17.6139,18.768 L17.6139,18.768 Z M7.5168,0.447111111 L10.3707,0.447111111 C10.5147,0.447111111 10.6308,0.565333333 10.6308,0.710222222 C10.6308,0.857777778 10.5147,0.974222222 10.3707,0.974222222 L7.5168,0.974222222 C7.3728,0.974222222 7.2567,0.857777778 7.2567,0.710222222 C7.2567,0.565333333 7.3728,0.447111111 7.5168,0.447111111 L7.5168,0.447111111 Z M8.9433,29.8844444 C8.8047,29.8844444 8.6733,29.8524444 8.5455,29.8044444 C8.1747,29.6693333 7.8759,29.3564444 7.7301,28.9724444 L7.7031,28.8915556 C7.6617,28.7608889 7.632,28.6293333 7.6284,28.4915556 C7.6509,27.7697778 8.2305,27.1911111 8.9442,27.1911111 C9.0729,27.1911111 9.1926,27.216 9.3105,27.2488889 C9.8577,27.4133333 10.2618,27.9244444 10.2618,28.5386667 C10.2618,29.2835556 9.6723,29.8844444 8.9433,29.8844444 L8.9433,29.8844444 Z M16.452,11.7084444 L16.452,25.0008889 C16.452,25.9057778 15.8931,26.2382222 15.48,26.3617778 L15.4809,26.3617778 C15.2397,26.4346667 15.0498,26.4346667 15.0498,26.4346667 L2.9133,26.4346667 C2.6163,26.4346667 2.3913,26.3617778 2.2068,26.2577778 L2.2059,26.2577778 C1.5228,25.88 1.5111,25.0008889 1.5111,25.0008889 L1.5111,3.09866667 C1.5111,2.56266667 1.7082,2.22666667 1.9539,2.01777778 L1.9539,2.01777778 C2.3652,1.66488889 2.9142,1.66488889 2.9142,1.66488889 L15.0489,1.664 C16.4511,1.664 16.4511,3.00444444 16.4511,3.00444444 L16.4511,3.464 L16.452,6.29511111 L16.452,11.7084444 L16.452,11.7084444 Z" id="Fill-3" ></path>
        </g>
    </g>
</svg>