<?xml version="1.0" encoding="UTF-8" standalone="no"?>
<svg width="34px" height="25px" viewBox="0 0 34 25" version="1.1" xmlns="http://www.w3.org/2000/svg" xmlns:xlink="http://www.w3.org/1999/xlink" xmlns:sketch="http://www.bohemiancoding.com/sketch/ns">
    <!-- Generator: Sketch 3.1.1 (8761) - http://www.bohemiancoding.com/sketch -->
    <title>icon-messages@1x</title>
    <desc></desc>
    <defs></defs>
    <g id="Page-1" stroke="none" stroke-width="1"  fill-rule="evenodd" >
        <path d="M1,11.3142222 C1,17.0097037 8.02147368,21.6267407 16.6850526,21.6267407 C17.9591579,21.6267407 19.1877895,21.5168519 20.3751579,21.3268889 C21.2366316,22.7077407 23.3326316,23.3176667 25.2046316,23.5059259 L27.72,23.5059259 C28.6471579,23.3883704 29.0370526,23.1370741 28.2917895,22.8942963 C26.9444211,22.4547407 26.1545263,20.9750741 25.7157895,19.7364815 C29.5128421,17.9731481 32.0728421,15.1364815 32.3456842,11.8909259 L32.3456842,10.7358148 C31.8901053,5.30781481 25.0530526,1 16.6850526,1 C8.02147368,1 1,5.61788889 1,11.3142222" id="icon-messages" stroke="#0065A6" stroke-width="2"  transform="translate(17.000000, 12.500000) scale(-1, 1) translate(-17.000000, -12.500000) "></path>
    </g>
</svg>