<?xml version="1.0" encoding="UTF-8"?>
<!-- Generator: Adobe Illustrator 16.0.0, SVG Export Plug-In . SVG Version: 6.00 Build 0)  -->
<!DOCTYPE svg PUBLIC "-//W3C//DTD SVG 1.1//EN" "http://www.w3.org/Graphics/SVG/1.1/DTD/svg11.dtd">
<svg version="1.1" id="Layer_1" xmlns="http://www.w3.org/2000/svg" xmlns:xlink="http://www.w3.org/1999/xlink" x="0px" y="0px" width="1100px" height="445px" viewBox="0 0 1100 445" enable-background="new 0 0 1100 445" xml:space="preserve">
<g id="g13" transform="translate(244.234, -269.743)">
	<g id="g3918">
		<path id="path15" fill="#FFFFFF" d="M239,304v360h580V304H239z"/>
		<g id="g3770" transform="translate(144.245, 72.362)">
			<g id="g4018" transform="translate(-172.59, -95.4751)">
				<g id="g4030" transform="translate(33.9671, 28.4589)">
					<g id="g3933" transform="translate(138.424, 82.569)">
					</g>
					<path id="path19-8" fill="#FFFFFF" d="M-52.508,628.392c-18.133-2.202-34.789-12.871-42.814-27.425       c-8.182-14.837-8.928-22.608-8.447-87.935c0.373-50.601,0.504-53.773,2.509-61.02c4.781-17.272,14.038-29.054,28.409-36.154       c19.723-9.746,40.979-8.474,59.589,3.565c11.848,7.664,19.047,18.747,22.889,35.232c1.702,7.302,1.864,12.886,1.864,64       c0,62.136-0.302,65.727-6.664,79.19C-1.3,610.82-15.159,622.249-29.62,626.26C-35.984,628.024-47.049,629.055-52.508,628.392z        M-36.618,587.808c6.946-5.298,6.995-5.732,7.379-65.598c0.299-46.494,0.133-54.395-1.279-60.739       c-1.901-8.548-5.237-12.631-11.754-14.386c-8.438-2.272-16.167,2.557-18.844,11.773c-2.062,7.099-2.04,112.568,0.024,119.682       c1.545,5.324,6.569,11.16,10.291,11.954C-45.963,591.528-40.017,590.401-36.618,587.808L-36.618,587.808z M65.492,628.435       c-10.053-1.339-15.92-5.218-19.947-13.188c-5.055-10.007-5.053-9.948-5.053-109.59v-93h20.277h20.278l0.428,85.714       c0.465,93.121,0.327,90.947,5.9,92.347c5.118,1.284,10.777-1.459,17.839-8.648l6.766-6.887l0.256-81.263l0.256-81.263       l20.25-0.271l20.25-0.271v106.44v106.441l-2.75,0.565c-3.318,0.682-34.026,0.637-36.5-0.053       c-1.512-0.422-1.75-1.801-1.75-10.14v-9.651l-5.75,5.599C93.011,624.2,78.732,630.198,65.492,628.435L65.492,628.435z        M-197.631,624.957c-0.851-1.376-0.723-83.646,0.147-95.3c1.117-14.942,0.324-26.69-10.402-56.733       c-3.482-9.753-10.193-29.512-14.39-42.858c-30.313-96.419-28.274-89.9-25.378-89.924c19.968-0.17,42.913-0.052,43.18,0.216       c0.192,0.192,6.684,23.738,14.426,52.325c7.742,28.586,14.204,52.382,14.36,52.879c0.156,0.498,4.7-16.152,10.099-37       c11.318-43.703,17.668-67.832,17.911-68.054c0.506-0.463,6.135-0.57,24.529-0.466l20.359,0.115l-0.448,3.25       c-0.367,2.657-14.258,49.315-28.806,96.75c-1.603,5.225-5.654,18.725-9.003,30c-3.35,11.275-7.411,24.668-9.025,29.763       l-2.936,9.262v57.92c0,54.313-0.109,57.951-1.75,58.399C-158.408,626.5-196.981,626.01-197.631,624.957z"/>
					<path id="path19" fill="#2F2F2F" stroke="#2F2F2F" d="M-52.041,625.446c-18.133-2.202-34.789-12.871-42.814-27.425       c-8.182-14.837-8.928-22.608-8.446-87.936c0.373-50.6,0.503-53.772,2.509-61.019c4.781-17.272,14.038-29.054,28.409-36.154       c19.723-9.746,40.979-8.474,59.589,3.565c11.847,7.664,19.047,18.747,22.889,35.232c1.702,7.302,1.864,12.886,1.864,64       c0,62.136-0.302,65.727-6.664,79.19c-6.129,12.973-19.987,24.401-34.449,28.412C-35.517,625.078-46.582,626.109-52.041,625.446       L-52.041,625.446z M-36.151,584.862c6.946-5.297,6.995-5.732,7.38-65.598c0.299-46.494,0.133-54.395-1.279-60.739       c-1.902-8.548-5.238-12.631-11.754-14.386c-8.438-2.272-16.167,2.557-18.844,11.773c-2.062,7.099-2.04,112.568,0.024,119.681       c1.545,5.325,6.569,11.161,10.291,11.955C-45.495,588.582-39.55,587.456-36.151,584.862L-36.151,584.862L-36.151,584.862z        M65.959,625.489c-10.054-1.339-15.921-5.218-19.947-13.188c-5.056-10.007-5.053-9.948-5.053-109.59v-93h20.277h20.277       l0.429,85.715c0.465,93.12,0.327,90.946,5.9,92.346c5.118,1.284,10.777-1.459,17.839-8.647l6.766-6.888l0.256-81.263       l0.256-81.263l20.25-0.271l20.25-0.271v106.441v106.44l-2.75,0.565c-3.318,0.682-34.026,0.637-36.5-0.053       c-1.512-0.422-1.75-1.801-1.75-10.14v-9.651l-5.75,5.599C93.478,621.254,79.2,627.252,65.959,625.489L65.959,625.489       L65.959,625.489z M-197.165,622.01c-0.851-1.376-0.723-83.647,0.148-95.3c1.117-14.941-1.393-26.689-12.12-56.733       c-3.482-9.753-9.764-28.653-13.96-42c-30.313-96.419-28.704-90.758-25.807-90.783c19.967-0.17,44.629-0.052,44.897,0.216       c0.192,0.192,6.684,23.738,14.426,52.325c7.742,28.586,14.204,52.382,14.36,52.879c0.156,0.498,4.7-16.152,10.099-37       c11.317-43.703,17.668-67.832,17.911-68.054c0.506-0.463,6.136-0.57,24.529-0.466l20.359,0.115l-0.448,3.25       c-0.367,2.657-14.258,49.315-28.806,96.75c-1.603,5.225-5.654,18.725-9.003,30c-3.349,11.275-7.41,24.668-9.025,29.762       l-2.936,9.262v57.922c0,54.312-0.109,57.95-1.75,58.398C-157.941,623.553-196.513,623.063-197.165,622.01z"/>
					
						<linearGradient id="path17_1_" gradientUnits="userSpaceOnUse" x1="-806.213" y1="-255.2249" x2="-806.213" y2="175.1691" gradientTransform="matrix(1 0 0 -1 1328.856 442.897)">
						<stop offset="0" style="stop-color:#912420"/>
						<stop offset="1" style="stop-color:#CF332D"/>
					</linearGradient>
					<path id="path17" fill="url(#path17_1_)" d="M450.831,708.273c-23.375-0.414-51.049-1.062-61.5-1.438       c-70.166-2.524-118.339-5.222-127.964-7.167c-13.72-2.771-29.052-12.056-37.95-22.979       c-14.262-17.507-21.856-38.749-25.545-71.445c-8.576-76.016-8.387-164.644,0.511-238c3.896-32.127,13.591-55.353,29.863-71.547       c9.286-9.242,18.208-14.416,30.108-17.459c25.748-6.585,227.352-11.83,349.977-9.104c70.83,1.574,147.369,4.838,167.713,7.151       c26.309,2.992,44.779,16.617,57.564,42.459c9.65,19.512,12.756,34.7,16.66,81.5c3.094,37.079,3.828,60.162,3.277,102.942       c-0.66,51.201-3.916,96.296-8.781,121.62c-5.141,26.763-17.312,49.585-33.029,61.933       c-12.145,9.542-25.076,13.798-45.404,14.946c-6.049,0.342-13.699,0.83-17,1.085c-11.738,0.907-74.547,3.454-109,4.421       C589.124,708.626,499.548,709.138,450.831,708.273L450.831,708.273z"/>
					<path id="rect3947" opacity="0.753" enable-background="new    " d="M252.702,345.034v19v18.969l22.25,0.281l22.25,0.281       l0.25,120.5c0.136,66.274,0.454,121.051,0.719,121.75c0.37,0.982,5.005,1.209,20.28,1l19.75-0.25l0.5-121.5l0.5-121.5       l22.781-0.281l22.781-0.281l-0.281-18.719l-0.281-18.719l-65.75-0.281L252.702,345.034z M538.701,345.065v141v141h18h18v-9.5       c0-6.297,0.389-9.5,1.125-9.5c0.611,0,4.656,3.318,9,7.406c14,13.17,26.129,16.807,41.25,12.344       c5.795-1.711,12.861-8.625,16.031-15.688c6.086-13.562,6.094-13.88,6.094-90.062c0-62.542-0.15-70.251-1.719-77       c-5.027-21.638-15.998-31.111-34.406-29.719c-10.322,0.78-18.457,4.89-28.188,14.281c-4.229,4.08-8.025,7.437-8.438,7.438       c-0.412,0-0.75-20.7-0.75-46v-46h-18H538.701z M736.826,415.128c-5.859,0.12-11.723,1.169-17.344,3.219       c-19.391,7.07-30.848,19.812-35.469,39.5c-1.633,6.958-1.812,13.216-1.812,64.219c0,62.553,0.229,65.106,6.625,77.906       c11.395,22.804,39.941,34.695,65.875,27.438c19.262-5.391,32.588-18.533,37.594-37.094c0.855-3.172,1.805-12.163,2.125-20       l0.594-14.25h-18.531h-18.531l-0.469,12.75c-0.52,14.521-2.008,19.495-7.281,24.125c-5.627,4.941-15.961,5.282-22.688,0.75       c-7.996-5.389-9.994-14.499-9.594-44.125l0.281-21l38.375-0.281l38.375-0.25l-0.531-31.25       c-0.588-34.845-1.314-40.134-7.188-52.5C778.527,425.954,757.753,414.699,736.826,415.128z M393.701,418.065v90.531       c0,98.587,0.105,100.712,5.625,110.219c6.031,10.385,20.189,13.639,35.094,8.062c7.197-2.693,15.631-8.519,22.75-15.75       c3.283-3.334,6.545-6.062,7.25-6.062c0.965,0,1.281,2.723,1.281,11v11h18h18v-104.5v-104.5h-18h-18v80.625v80.594l-7.75,7.719       c-6.152,6.115-8.74,7.958-12.531,9c-6.445,1.771-10.498,0.556-13.156-3.969c-2.006-3.414-2.045-4.949-2.312-88.719       l-0.281-85.25h-17.969H393.701z M738.294,447.69c8.035,0,13.1,3.092,16.531,10.062c2.176,4.417,2.416,6.28,2.719,22.562       l0.312,17.75h-19.594c-16.896,0-19.699-0.241-20.219-1.594c-0.928-2.418,0.365-30.452,1.594-34.531       C722.523,452.355,728.642,447.69,738.294,447.69z M594.169,450.034c5.65-0.203,10.512,2.39,13.125,7.656       c1.82,3.666,1.943,6.958,2.156,62.875c0.205,53.647,0.068,59.443-1.5,63.969c-1.205,3.475-2.752,5.662-5.125,7.25       c-5.996,4.011-14.701,2.73-22.625-3.312l-3.5-2.656v-63.75v-63.781l3.5-2.656C584.898,452.045,589.775,450.191,594.169,450.034       z"/>
					
						<linearGradient id="rect3947-6_1_" gradientUnits="userSpaceOnUse" x1="-804.9987" y1="-2.6218" x2="-804.9987" y2="-378.6588" gradientTransform="matrix(1 0 0 -1 1328.856 442.897)">
						<stop offset="0" style="stop-color:#FFFFFF"/>
						<stop offset="1" style="stop-color:#B3B3B3"/>
					</linearGradient>
					<path id="rect3947-6" fill="url(#rect3947-6_1_)" stroke="#FFFFFF" d="M252.702,340.177v19v18.969l22.25,0.281l22.25,0.281       l0.25,120.5c0.136,66.275,0.454,121.051,0.719,121.75c0.37,0.982,5.005,1.21,20.28,1l19.75-0.25l0.5-121.5l0.5-121.5       l22.781-0.281l22.781-0.281l-0.281-18.719l-0.281-18.719l-65.75-0.281L252.702,340.177L252.702,340.177z M538.701,340.208v141       v141h18h18v-9.5c0-6.297,0.389-9.5,1.125-9.5c0.611,0,4.656,3.319,9,7.406c14,13.171,26.129,16.808,41.25,12.344       c5.795-1.71,12.861-8.625,16.031-15.688c6.086-13.562,6.094-13.879,6.094-90.062c0-62.542-0.15-70.251-1.719-77       c-5.027-21.638-15.998-31.111-34.406-29.719c-10.322,0.781-18.457,4.891-28.188,14.281c-4.229,4.081-8.025,7.438-8.438,7.438       c-0.412,0-0.75-20.7-0.75-46v-46h-18H538.701L538.701,340.208z M736.826,410.27c-5.859,0.12-11.723,1.17-17.344,3.219       c-19.391,7.07-30.848,19.813-35.469,39.5c-1.633,6.958-1.812,13.216-1.812,64.219c0,62.554,0.229,65.107,6.625,77.906       c11.395,22.804,39.941,34.695,65.875,27.438c19.262-5.391,32.588-18.533,37.594-37.094c0.855-3.172,1.805-12.162,2.125-20       l0.594-14.25h-18.531h-18.531l-0.469,12.75c-0.52,14.521-2.008,19.495-7.281,24.125c-5.627,4.941-15.961,5.282-22.688,0.75       c-7.996-5.389-9.994-14.499-9.594-44.125l0.281-21l38.375-0.281l38.375-0.25l-0.531-31.25       c-0.588-34.844-1.314-40.134-7.188-52.5C778.527,421.097,757.753,409.842,736.826,410.27L736.826,410.27z M393.701,413.208       v90.531c0,98.587,0.105,100.712,5.625,110.219c6.031,10.385,20.189,13.639,35.094,8.062c7.197-2.693,15.631-8.518,22.75-15.75       c3.283-3.334,6.545-6.062,7.25-6.062c0.965,0,1.281,2.724,1.281,11v11h18h18v-104.5v-104.5h-18h-18v80.625v80.594l-7.75,7.719       c-6.152,6.116-8.74,7.958-12.531,9c-6.445,1.771-10.498,0.556-13.156-3.969c-2.006-3.414-2.045-4.949-2.312-88.719       l-0.281-85.25h-17.969H393.701L393.701,413.208z M738.294,442.833c8.035,0,13.1,3.093,16.531,10.062       c2.176,4.418,2.416,6.28,2.719,22.562l0.312,17.75h-19.594c-16.896,0-19.699-0.241-20.219-1.594       c-0.928-2.417,0.365-30.452,1.594-34.531C722.523,447.498,728.642,442.833,738.294,442.833z M594.169,445.177       c5.65-0.203,10.512,2.391,13.125,7.656c1.82,3.666,1.943,6.958,2.156,62.875c0.205,53.647,0.068,59.443-1.5,63.969       c-1.205,3.475-2.752,5.663-5.125,7.25c-5.996,4.012-14.701,2.73-22.625-3.312l-3.5-2.656v-63.75v-63.781l3.5-2.656       C584.898,447.188,589.775,445.334,594.169,445.177L594.169,445.177z"/>
				</g>
			</g>
		</g>
	</g>
</g>
</svg>