<?xml version="1.0" encoding="UTF-8" standalone="no"?>
<svg width="26px" height="32px" viewBox="0 0 26 32" version="1.1" xmlns="http://www.w3.org/2000/svg" xmlns:xlink="http://www.w3.org/1999/xlink" xmlns:sketch="http://www.bohemiancoding.com/sketch/ns">
    <!-- Generator: Sketch 3.1.1 (8761) - http://www.bohemiancoding.com/sketch -->
    <title>icon-music@1x</title>
    <desc></desc>
    <defs></defs>
    <g id="Page-1" stroke="none" stroke-width="1"  fill-rule="evenodd" >
        <path d="M25.168,4.10979168 C25.182,3.66279168 25.168,3.27979168 25.142,2.92279168 L25.129,2.30079168 C25.113,2.30679168 25.097,2.31479168 25.082,2.31879168 C24.609,-0.843208324 22.447,0.146791676 22.447,0.146791676 L10.447,5.23079168 C8.394,5.91679168 7.894,8.40679168 7.771,9.51579168 L7.732,9.53779168 L7.732,24.6137917 L7.76,24.6427917 C6.587,24.0957917 4.845,24.1837917 3.171,25.0157917 C1.421,25.8887917 0.232,27.3127917 0,28.6407917 L0,29.5547917 C0.035,29.7347917 0.091,29.9107917 0.17,30.0787917 C0.935,31.6687917 3.516,31.9887917 5.939,30.7897917 C7.957,29.7917917 9.223,28.0527917 9.144,26.5787917 L9.172,26.6117917 L9.172,11.0607917 L23.771,4.71579168 L24.012,15.0687917 C22.843,14.5687917 21.146,14.6757917 19.512,15.4847917 C17.092,16.6857917 15.747,18.9457917 16.514,20.5477917 C17.277,22.1367917 19.855,22.4577917 22.275,21.2557917 C24.048,20.3797917 25.238,18.9277917 25.447,17.5887917 L25.168,4.10979168" id="icon-music"></path>
    </g>
</svg>