<?xml version="1.0" encoding="UTF-8" standalone="no"?>
<svg width="32px" height="39px" viewBox="0 0 32 39" version="1.1" xmlns="http://www.w3.org/2000/svg" xmlns:xlink="http://www.w3.org/1999/xlink" xmlns:sketch="http://www.bohemiancoding.com/sketch/ns">
    <!-- Generator: Sketch 3.1.1 (8761) - http://www.bohemiancoding.com/sketch -->
    <title>icon-upload datas@1x</title>
    <desc></desc>
    <defs></defs>
    <g id="Page-1" stroke="none" stroke-width="1"  fill-rule="evenodd" >
        <g id="icon-upload-datas"  transform="translate(1.000000, 0.000000)">
            <path d="M29.9638857,1.72435714 L25.2032,1.72435714 C24.7808,1.72435714 24.4370286,2.07442857 24.4370286,2.5025 L24.4370286,7.3385 C24.4370286,7.76657143 24.7808,8.11664286 25.2032,8.11664286 L29.9638857,8.11664286 C30.3853714,8.11664286 30.7300571,7.76657143 30.7300571,7.3385 L30.7300571,2.5025 C30.7300571,2.07442857 30.3853714,1.72435714 29.9638857,1.72435714" id="Fill-1" ></path>
            <path d="M26.0361143,14.5832143 L21.2736,14.5832143 C20.8521143,14.5832143 20.5074286,14.9332857 20.5074286,15.3613571 L20.5074286,20.1964286 C20.5074286,20.6235714 20.8521143,20.9736429 21.2736,20.9736429 L26.0361143,20.9736429 C26.4576,20.9736429 26.8022857,20.6235714 26.8022857,20.1964286 L26.8022857,15.3613571 C26.8022857,14.9332857 26.4576,14.5832143 26.0361143,14.5832143" id="Fill-2" ></path>
            <path d="M20.3401143,13.6379286 C20.9216,13.6379286 21.3961143,13.156 21.3961143,12.5654286 L21.3961143,5.90107143 C21.3961143,5.31142857 20.9216,4.8295 20.3401143,4.8295 L13.7782857,4.8295 C13.1968,4.8295 12.7213714,5.31142857 12.7213714,5.90107143 L12.7213714,7.46571429 L1.32297143,7.46571429 C1.03405714,7.52421429 0.6336,7.66535714 0.32,7.98107143 C0.106971429,8.19371429 -0.0676571429,8.4825 -0.139885714,8.88735714 L-0.139885714,36.7361429 C-0.128914286,36.7992857 -0.112457143,36.868 -0.0932571429,36.9413571 C-0.0905142857,36.9506429 -0.0859428571,36.9617857 -0.0841142857,36.9710714 C-0.0658285714,37.0342143 -0.0448,37.0982857 -0.0192,37.1642143 C-0.0118857143,37.1865 1.74582571e-14,37.2078571 0.00914285714,37.2301429 C0.032,37.2858571 0.0576,37.3425 0.0877714286,37.3982143 C0.101485714,37.4260714 0.119771429,37.453 0.136228571,37.4799286 C0.1664,37.5300714 0.196571429,37.5802143 0.233142857,37.6275714 C0.255085714,37.6582143 0.2816,37.6860714 0.306285714,37.7148571 C0.342857143,37.7594286 0.382171429,37.8012143 0.425142857,37.8420714 C0.455314286,37.8708571 0.489142857,37.8977857 0.522971429,37.9247143 C0.5696,37.9609286 0.618057143,37.9962143 0.669257143,38.0277857 C0.708571429,38.0537857 0.751542857,38.0751429 0.794514286,38.0965 C0.852114286,38.1252857 0.910628571,38.1512857 0.974628571,38.1735714 C1.02308571,38.1912143 1.07337143,38.2060714 1.12548571,38.22 C1.15931429,38.2292857 1.18765714,38.2432143 1.22422857,38.2506429 L1.27817143,38.2506429 C1.33394286,38.2599286 1.38331429,38.2775714 1.44274286,38.2831429 L15.3892571,38.2831429 C15.4468571,38.2766429 15.5154286,38.2655 15.5913143,38.2506429 L15.5977143,38.2506429 C15.7293714,38.2237143 15.8848,38.1782143 16.0448,38.1095 C16.0621714,38.1011429 16.0804571,38.0918571 16.0969143,38.0835 C16.1618286,38.0537857 16.2249143,38.0194286 16.288,37.9804286 C16.3126857,37.9665 16.3355429,37.9488571 16.3611429,37.9330714 C16.4169143,37.8940714 16.4717714,37.8504286 16.5248,37.8030714 C16.5504,37.7817143 16.5750857,37.7575714 16.5988571,37.7343571 C16.6500571,37.6832857 16.6966857,37.6257143 16.7424,37.5653571 C16.7634286,37.5365714 16.7844571,37.5096429 16.8054857,37.4780714 C16.8502857,37.4084286 16.8896,37.3295 16.9252571,37.2459286 C16.9380571,37.2171429 16.9536,37.1902143 16.9664,37.1595714 C17.0102857,37.0397857 17.0468571,36.9107143 17.0678857,36.7658571 L17.0678857,28.0493571 L17.5268571,28.0493571 C18.4466286,28.0493571 19.1981714,27.2851429 19.1981714,26.351 L19.1981714,15.8145 C19.1981714,14.8822143 18.4466286,14.1189286 17.5268571,14.1189286 L17.0678857,14.1189286 L17.0678857,13.6379286 L20.3401143,13.6379286 L20.3401143,13.6379286 Z M9.87885714,8.788 L7.03725714,8.788 C6.8928,8.788 6.77851429,8.67007143 6.77851429,8.52521429 C6.77851429,8.38128571 6.8928,8.26428571 7.03725714,8.26428571 L9.87885714,8.26428571 C10.0233143,8.26428571 10.1376,8.38128571 10.1376,8.52521429 C10.1376,8.64407143 10.0534857,8.72671429 9.94651429,8.76014286 C9.92274286,8.76757143 9.90537143,8.788 9.87885714,8.788 L9.87885714,8.788 Z M9.66582857,35.5661429 C9.73348571,35.7258571 9.76914286,35.9013571 9.76914286,36.0852143 C9.76914286,36.8215714 9.18217143,37.4205 8.45714286,37.4205 C8.27977143,37.4205 8.11062857,37.3787143 7.95611429,37.3053571 C7.49257143,37.0843571 7.16434286,36.5782857 7.14605714,36.0387857 C7.16434286,35.503 7.49257143,35.0470714 7.95611429,34.8520714 C8.11062857,34.788 8.27977143,34.7527143 8.45714286,34.7527143 C9.00114286,34.7527143 9.46742857,35.0879286 9.66582857,35.5661429 L9.66582857,35.5661429 Z M15.9369143,14.1189286 L7.15154286,14.1189286 C6.23268571,14.1189286 5.48205714,14.8822143 5.48205714,15.8145 L5.48205714,26.351 C5.48205714,27.2851429 6.23268571,28.0493571 7.15154286,28.0493571 L15.9369143,28.0493571 L15.9369143,32.5817143 C15.9369143,34.0033571 14.5362286,34.0033571 14.5362286,34.0033571 L2.45485714,34.0033571 C2.35154286,34.0033571 2.27108571,33.982 2.18422857,33.9671429 C1.06971429,33.7879286 1.05508571,32.5817143 1.05508571,32.5817143 L1.05508571,10.8912143 C1.05508571,9.64785714 2.12662857,9.49278571 2.39451429,9.47328571 C2.432,9.4705 2.45485714,9.4705 2.45485714,9.4705 L12.7213714,9.4705 L12.7213714,12.5654286 C12.7213714,13.156 13.1968,13.6379286 13.7782857,13.6379286 L15.9369143,13.6379286 L15.9369143,14.1189286 L15.9369143,14.1189286 Z" id="Fill-3" ></path>
            <path d="M19.7723429,3.79321429 L22.5682286,3.79321429 C22.816,3.79321429 23.0180571,3.58892857 23.0180571,3.33635714 L23.0180571,0.497714286 C23.0180571,0.246071429 22.816,0.0408571429 22.5682286,0.0408571429 L19.7723429,0.0408571429 C19.5254857,0.0408571429 19.3225143,0.246071429 19.3225143,0.497714286 L19.3225143,3.33635714 C19.3225143,3.58892857 19.5254857,3.79321429 19.7723429,3.79321429" id="Fill-4" ></path>
        </g>
    </g>
</svg>