<?xml version="1.0" encoding="UTF-8" standalone="no"?>
<svg width="32px" height="23px" viewBox="0 0 32 23" version="1.1" xmlns="http://www.w3.org/2000/svg" xmlns:xlink="http://www.w3.org/1999/xlink" xmlns:sketch="http://www.bohemiancoding.com/sketch/ns">
    <!-- Generator: Sketch 3.1.1 (8761) - http://www.bohemiancoding.com/sketch -->
    <title>icon-camera@1x</title>
    <desc></desc>
    <defs></defs>
    <g id="Page-1" stroke="none" stroke-width="1"  fill-rule="evenodd" >
        <g id="icon-camera"  transform="translate(1.000000, 0.000000)">
            <path d="M15.1157895,21.0041111 C10.4774737,21.0058148 6.69305263,17.198037 6.70147368,12.5375556 C6.70989474,7.87196296 10.5061053,4.05055556 15.1208421,4.06248148 C19.7145263,4.07185185 23.4711579,7.85918519 23.5056842,12.5128519 C23.5418947,17.1597037 19.744,21.0041111 15.1157895,21.0041111 M30.5675789,4.42962963 C30.5667368,3.01555556 29.7296842,2.17903704 28.3284211,2.17733333 C26.6551579,2.17392593 24.9827368,2.17222222 23.3111579,2.18074074 C23.0366316,2.18244444 22.8833684,2.14240741 22.7915789,1.81614815 C22.5355789,0.917444444 21.8088421,0.368851852 20.8614737,0.365444444 C17.024,0.351814815 13.1865263,0.351814815 9.34905263,0.365444444 C8.42021053,0.368851852 7.67494737,0.907222222 7.43494737,1.76248148 C7.33305263,2.12707407 7.168,2.185 6.848,2.18244444 C5.22778947,2.16881481 3.60926316,2.17733333 1.98905263,2.17733333 C0.440421053,2.17733333 -0.357894737,2.97551852 -0.357894737,4.5327037 L-0.357894737,20.3439259 C-0.357894737,21.936037 0.440421053,22.7478519 2.00673684,22.7478519 L15.1031579,22.7478519 C19.5023158,22.7478519 23.904,22.7495556 28.3048421,22.7461481 C29.7313684,22.7461481 30.5667368,21.8994074 30.5675789,20.4538148 C30.5709474,15.1127037 30.5701053,9.77244444 30.5675789,4.42962963" id="Fill-1" ></path>
            <path d="M15.1865263,7.11551852 C12.1221053,7.107 9.72884211,9.46918519 9.71957895,12.5137037 C9.70947368,15.5386296 12.0943158,17.9681111 15.0778947,17.9732222 C18.0749474,17.9791852 20.4842105,15.5735556 20.4917895,12.563963 C20.4993684,9.55777778 18.1288421,7.12318519 15.1865263,7.11551852 L15.1865263,7.11551852 Z M18.8858947,12.9524074 C18.8269474,13.000963 18.7477895,13.0375926 18.6442105,13.0563333 C18.5288421,13.0776296 18.4362105,13.0716667 18.3595789,13.0452593 C18.3595789,13.0444074 18.3587368,13.0444074 18.3578947,13.0435556 C18.1313684,12.9643333 18.0538947,12.7028148 18.0008421,12.4242593 C17.7229474,10.9633333 16.6602105,10.0765556 15.2572632,10.0935926 C14.8235789,10.1378889 14.4412632,10.0850741 14.4235789,9.591 C14.4067368,9.12333333 14.8008421,9.07307407 15.1545263,9.04155556 L15.1553684,9.04155556 C16.9549474,8.88055556 18.8446316,10.4624444 19.0349474,12.2794444 C19.0627368,12.5452222 19.0627368,12.8067407 18.8858947,12.9524074 L18.8858947,12.9524074 Z" id="Fill-2" ></path>
        </g>
    </g>
</svg>