<?xml version="1.0" encoding="utf-8"?>
<!-- Generator: Adobe Illustrator 16.0.0, SVG Export Plug-In . SVG Version: 6.00 Build 0)  -->
<!DOCTYPE svg PUBLIC "-//W3C//DTD SVG 1.1//EN" "http://www.w3.org/Graphics/SVG/1.1/DTD/svg11.dtd">
<svg version="1.1" id="Layer_1" xmlns="http://www.w3.org/2000/svg" xmlns:xlink="http://www.w3.org/1999/xlink" x="0px" y="0px"
	 width="254px" height="254px" viewBox="0 0 254 254" enable-background="new 0 0 254 254" xml:space="preserve">
<g>
	<path d="M126.632,238.768c-61.831,0-112.134-50.252-112.134-112.021c0-61.771,50.303-112.025,112.134-112.025
		c61.83,0,112.137,50.254,112.137,112.025C238.769,188.516,188.462,238.768,126.632,238.768z M126.632,17.309
		c-60.402,0-109.546,49.093-109.546,109.438c0,60.342,49.144,109.435,109.546,109.435c60.405,0,109.548-49.093,109.548-109.435
		C236.18,66.402,187.037,17.309,126.632,17.309z"/>
	<path d="M135.639,250c-1.326,0-2.456-1.014-2.575-2.357c-0.128-1.427,0.924-2.683,2.348-2.809l0.533-0.044
		c1.413-0.123,2.675,0.966,2.781,2.391c0.105,1.428-0.955,2.664-2.381,2.771l-0.018,0.003l-0.458,0.035
		C135.792,249.998,135.713,250,135.639,250z M117.634,250c-0.063,0-0.127-0.002-0.192-0.008l-0.258-0.018
		c-1.425-0.106-2.624-1.358-2.52-2.781c0.104-1.425,1.176-2.517,2.642-2.4l0.515,0.039c1.425,0.103,2.495,1.345,2.391,2.771
		C120.112,248.965,118.978,250,117.634,250z M99.318,247.237c-0.19,0-0.383-0.021-0.577-0.064l-0.533-0.124
		c-1.39-0.334-2.246-1.731-1.911-3.123c0.335-1.386,1.739-2.24,3.122-1.91l0.47,0.108c1.394,0.319,2.268,1.704,1.95,3.101
		C101.565,246.425,100.499,247.237,99.318,247.237z M154.169,247.184c-1.191,0-2.333-0.779-2.614-1.963
		c-0.329-1.391,0.408-2.754,1.796-3.09c1.392-0.327,3.035,0.463,3.371,1.852c0.336,1.387-0.267,2.727-1.656,3.064l-0.283,0.067
		C154.577,247.162,154.372,247.184,154.169,247.184z M81.624,241.7c-0.314,0-0.635-0.059-0.946-0.181l-0.519-0.206
		c-1.322-0.545-1.952-2.061-1.406-3.382c0.545-1.322,2.059-1.938,3.379-1.405l0.441,0.176c1.331,0.524,1.984,2.028,1.46,3.356
		C83.633,241.078,82.657,241.7,81.624,241.7z M171.816,241.618c-1.041,0-2.057-0.581-2.46-1.57c-0.541-1.319-0.03-2.777,1.288-3.324
		c0.005,0,0.248-0.101,0.255-0.104c1.317-0.526,2.949,0.054,3.486,1.373c0.541,1.318,0.031,2.777-1.289,3.323
		c-0.005,0-0.248,0.101-0.256,0.103C172.514,241.551,172.163,241.618,171.816,241.618z M188.246,233.53
		c-0.894,0-1.759-0.462-2.238-1.288c-0.718-1.234-0.3-2.819,0.935-3.537l0.403-0.243c1.223-0.743,2.816-0.347,3.554,0.879
		c0.738,1.224,0.346,2.815-0.88,3.554l-0.475,0.284C189.136,233.416,188.685,233.53,188.246,233.53z M64.995,233.514
		c-0.452,0-0.91-0.118-1.325-0.365l-0.41-0.243c-1.238-0.712-1.663-2.295-0.949-3.534c0.714-1.241,2.291-1.668,3.534-0.95
		l0.48,0.284c1.227,0.735,1.626,2.321,0.892,3.55C66.734,233.064,65.877,233.514,64.995,233.514z M203.415,222.914
		c-0.738,0-1.475-0.317-1.985-0.926c-0.917-1.096-0.774-2.729,0.322-3.646l0.42-0.346c1.109-0.905,2.74-0.743,3.641,0.362
		c0.909,1.104,0.746,2.735-0.36,3.64l-0.378,0.312C204.592,222.716,204.001,222.914,203.415,222.914z M49.815,222.889
		c-0.578,0-1.158-0.191-1.64-0.586l-0.406-0.333c-1.102-0.911-1.255-2.543-0.344-3.645c0.91-1.098,2.544-1.258,3.643-0.345
		l0.389,0.318c1.106,0.905,1.268,2.535,0.361,3.643C51.307,222.565,50.564,222.889,49.815,222.889z M216.803,210.113
		c-0.622,0-1.246-0.223-1.741-0.674c-1.058-0.961-1.132-2.601-0.172-3.656l0.318-0.354c0.944-1.074,2.58-1.177,3.652-0.229
		c1.071,0.944,1.174,2.579,0.229,3.652l-0.372,0.413C218.207,209.826,217.507,210.113,216.803,210.113z M36.331,210.045
		c-0.674,0-1.337-0.273-1.832-0.828c-0.001-0.002-0.126-0.14-0.126-0.14l-0.208-0.236c-0.957-1.062-0.871-2.698,0.192-3.653
		c1.062-0.958,2.7-0.873,3.654,0.19l0.23,0.259c0.949,1.066,0.915,2.77-0.151,3.72C37.578,209.812,36.951,210.045,36.331,210.045z
		 M228.097,195.427c-0.487,0-0.979-0.137-1.42-0.429c-1.192-0.782-1.525-2.389-0.738-3.583l0.273-0.419
		c0.776-1.198,2.38-1.546,3.578-0.761c1.198,0.776,1.543,2.38,0.765,3.581l-0.294,0.443
		C229.767,195.016,228.938,195.427,228.097,195.427z M25.147,195.396c-0.847,0-1.678-0.415-2.173-1.178l-0.27-0.415
		c-0.788-1.19-0.46-2.799,0.733-3.584c1.198-0.787,2.8-0.462,3.586,0.734l0.293,0.443c0.778,1.2,0.437,2.804-0.763,3.582
		C26.119,195.261,25.629,195.396,25.147,195.396z M237.023,179.188c-0.351,0-0.707-0.072-1.051-0.225
		c-1.304-0.581-1.892-2.109-1.311-3.416l0.219-0.484c0.586-1.304,2.119-1.885,3.423-1.296c1.304,0.591,1.88,2.121,1.294,3.423
		l-0.207,0.459C238.96,178.613,238.015,179.188,237.023,179.188z M16.234,179.17c-0.985,0-1.927-0.567-2.359-1.524l-0.219-0.485
		c-0.578-1.307,0.013-2.833,1.319-3.411c1.307-0.584,2.833,0.007,3.415,1.319l0.2,0.449c0.589,1.301,0.01,2.833-1.292,3.423
		C16.951,179.096,16.59,179.17,16.234,179.17z M9.808,161.646c-1.098,0-2.079-0.661-2.39-1.784l-0.07-0.252
		c-0.378-1.379,0.396-2.925,1.772-3.304c1.377-0.381,2.769,0.304,3.149,1.68c0,0,0.068,0.251,0.069,0.253
		c0.378,1.379-0.396,2.925-1.773,3.305C10.313,161.613,10.058,161.646,9.808,161.646z M243.327,161.634
		c-0.206,0-0.417-0.027-0.626-0.086c-1.374-0.376-2.221-1.673-1.845-3.05c0-0.003,0.067-0.254,0.067-0.256
		c0.38-1.374,1.833-2.316,3.212-1.934c1.381,0.377,2.225,1.673,1.851,3.052c-0.002,0.002-0.069,0.252-0.069,0.252
		C245.595,160.782,244.494,161.634,243.327,161.634z M6.342,143.584c-1.292,0-2.409-0.966-2.567-2.282l-0.062-0.534
		c-0.156-1.42,0.869-2.698,2.289-2.855c1.439-0.155,2.7,0.869,2.857,2.29l0.057,0.487c0.169,1.418-0.844,2.706-2.264,2.876
		C6.548,143.578,6.444,143.584,6.342,143.584z M246.916,143.546c-0.096,0-0.196-0.008-0.294-0.019
		c-1.42-0.166-2.44-1.412-2.272-2.832l0.055-0.493c0.159-1.421,1.446-2.435,2.858-2.29c1.421,0.157,2.443,1.436,2.286,2.855
		l-0.049,0.451C249.343,142.541,248.216,143.546,246.916,143.546z M247.675,125.079c-1.386,0-2.532-1.098-2.586-2.493l-0.016-0.513
		c-0.055-1.43,1.061-2.631,2.49-2.681c1.423-0.119,2.628,1.062,2.68,2.489l0.02,0.514c0.054,1.428-1.062,2.628-2.492,2.681
		C247.739,125.079,247.706,125.079,247.675,125.079z M5.59,125.079c-0.031,0-0.064,0-0.095-0.004
		c-1.43-0.049-2.544-1.25-2.493-2.681l0.02-0.516c0.053-1.428,1.308-2.593,2.681-2.49c1.429,0.051,2.544,1.252,2.493,2.683
		l-0.019,0.515C8.124,123.981,6.977,125.079,5.59,125.079z M245.628,106.673c-1.218,0-2.305-0.864-2.54-2.105l-0.096-0.496
		c-0.271-1.402,0.644-2.762,2.05-3.032c1.404-0.283,2.76,0.645,3.033,2.047l0.099,0.516c0.265,1.405-0.659,2.76-2.061,3.025
		C245.948,106.659,245.787,106.673,245.628,106.673z M7.639,106.671c-0.156,0-0.318-0.015-0.478-0.043
		c-1.406-0.263-2.331-1.615-2.069-3.021l0.103-0.53c0.276-1.403,1.624-2.316,3.039-2.04c1.403,0.278,2.315,1.638,2.038,3.041
		l-0.092,0.48C9.949,105.802,8.861,106.671,7.639,106.671z M240.785,88.794c-1.066,0-2.067-0.665-2.441-1.729l-0.166-0.47
		c-0.486-1.344,0.214-2.826,1.56-3.312c1.342-0.487,2.826,0.215,3.309,1.563l0.181,0.5c0.476,1.351-0.234,2.826-1.582,3.301
		C241.36,88.75,241.068,88.794,240.785,88.794z M12.486,88.776c-0.292,0-0.587-0.047-0.876-0.151
		c-1.345-0.485-2.043-1.967-1.559-3.311l0.169-0.478c0.479-1.347,1.958-2.05,3.303-1.575c1.347,0.475,2.054,1.953,1.577,3.303
		l-0.179,0.498C14.542,88.12,13.547,88.776,12.486,88.776z M233.26,71.884c-0.927,0-1.82-0.499-2.288-1.371l-0.23-0.42
		c-0.688-1.251-0.233-2.825,1.021-3.515c1.254-0.688,2.826-0.235,3.513,1.019l0.264,0.48c0.672,1.261,0.196,2.828-1.067,3.503
		C234.085,71.785,233.668,71.884,233.26,71.884z M20.027,71.849c-0.416,0-0.837-0.101-1.229-0.314
		c-1.257-0.679-1.724-2.249-1.044-3.507l0.257-0.468c0.688-1.251,2.262-1.708,3.515-1.021c1.252,0.688,1.709,2.263,1.02,3.514
		l-0.239,0.442C21.837,71.357,20.948,71.849,20.027,71.849z M223.225,56.323c-0.783,0-1.554-0.351-2.062-1.024l-0.312-0.409
		c-0.865-1.138-0.643-2.763,0.495-3.627c1.142-0.863,2.763-0.645,3.628,0.498l0.31,0.409c0.863,1.138,0.641,2.763-0.496,3.627
		C224.32,56.151,223.771,56.323,223.225,56.323z M30.073,56.275c-0.544,0-1.095-0.172-1.562-0.526
		c-1.139-0.864-1.362-2.489-0.498-3.626l0.331-0.435c0.878-1.128,2.505-1.334,3.632-0.453c1.128,0.877,1.332,2.502,0.456,3.632
		l-0.296,0.384C31.627,55.923,30.855,56.275,30.073,56.275z M210.937,42.46c-0.646,0-1.295-0.243-1.799-0.73l-0.361-0.346
		c-1.032-0.989-1.063-2.629-0.077-3.66c0.988-1.028,2.63-1.061,3.66-0.075l0.38,0.366c1.024,0.993,1.054,2.631,0.057,3.66
		C212.29,42.196,211.614,42.46,210.937,42.46z M42.372,42.42c-0.68,0-1.36-0.269-1.868-0.796c-0.99-1.031-0.955-2.672,0.075-3.661
		l0.354-0.341c1.018-0.998,2.658-0.981,3.659,0.039c1.001,1.021,0.984,2.66-0.038,3.659l-0.391,0.379
		C43.662,42.18,43.016,42.42,42.372,42.42z M196.688,30.619c-0.516,0-1.03-0.151-1.487-0.47l-0.418-0.295
		c-1.17-0.821-1.451-2.436-0.632-3.606c0.823-1.168,2.438-1.454,3.605-0.63l0.423,0.296c1.167,0.822,1.452,2.437,0.628,3.607
		C198.305,30.235,197.501,30.619,196.688,30.619z M56.625,30.586c-0.814,0-1.616-0.385-2.121-1.1
		c-0.821-1.169-0.54-2.785,0.631-3.606l0.395-0.28c1.163-0.833,2.779-0.567,3.612,0.585c0.837,1.161,0.574,2.778-0.586,3.615
		l-0.445,0.316C57.657,30.434,57.14,30.586,56.625,30.586z M180.801,21.083c-0.396,0-0.798-0.091-1.172-0.281l-0.432-0.214
		c-1.283-0.632-1.812-2.181-1.183-3.465c0.632-1.281,2.182-1.807,3.468-1.18l0.489,0.245c1.276,0.647,1.784,2.206,1.14,3.48
		C182.649,20.564,181.743,21.083,180.801,21.083z M72.503,21.063c-0.954,0-1.869-0.528-2.322-1.438
		c-0.634-1.282-0.11-2.833,1.17-3.468l0.428-0.214c1.272-0.657,2.83-0.152,3.484,1.122c0.65,1.271,0.148,2.831-1.123,3.483
		l-0.489,0.245C73.282,20.977,72.888,21.063,72.503,21.063z M163.639,14.09c-0.25,0-0.506-0.036-0.757-0.113l-0.534-0.17
		c-1.36-0.437-2.108-1.897-1.666-3.258c0.438-1.357,1.891-2.11,3.259-1.665l0.453,0.145c1.368,0.417,2.136,1.862,1.72,3.229
		C165.771,13.372,164.747,14.09,163.639,14.09z M89.655,14.083c-1.091,0-2.105-0.696-2.46-1.788
		c-0.444-1.36,0.299-2.821,1.659-3.263l0.525-0.167c1.362-0.419,2.815,0.342,3.239,1.707c0.423,1.364-0.34,2.815-1.705,3.237
		l-0.456,0.147C90.189,14.042,89.921,14.083,89.655,14.083z M145.615,9.814c-0.14,0-0.28-0.011-0.42-0.034l-0.477-0.073
		c-1.412-0.212-2.388-1.529-2.179-2.942c0.212-1.415,1.536-2.378,2.943-2.179l0.543,0.084c1.412,0.229,2.369,1.562,2.139,2.972
		C147.958,8.912,146.859,9.814,145.615,9.814z M107.911,9.772c-1.261,0-2.454-0.884-2.663-2.15
		c-0.231-1.411,0.602-2.722,2.012-2.952l0.285-0.045c1.411-0.246,2.853,0.72,3.078,2.127c0.224,1.408-0.611,2.714-2.018,2.945
		c-0.005,0-0.255,0.04-0.261,0.04C108.2,9.76,108.055,9.772,107.911,9.772z M127.148,8.337h-1.003c-1.43,0-2.588-1.158-2.588-2.588
		c0-1.43,1.158-2.588,2.588-2.588h1.003c1.429,0,2.588,1.158,2.588,2.588C129.736,7.18,128.577,8.337,127.148,8.337z"/>
	<g>
		<path d="M132.19,88.308c3.545,0,5.898-2.476,6.42-5.94l1.783-14.243c0-3.28-2.875-5.939-6.42-5.939h-15.396
			c-3.546,0-6.421,2.659-6.421,5.939l1.783,14.243c0.446,3.877,2.875,5.94,6.421,5.94c2.722,0,3.317-0.826,6.289-0.826
			C129.846,87.481,130.373,88.308,132.19,88.308"/>
		<polygon points="139.995,127.448 109.916,143.363 109.075,148.407 140.701,131.677 		"/>
		<polygon points="137.003,109.491 113.488,121.931 110.373,140.622 139.614,125.152 		"/>
		<polygon points="113.945,119.189 136.62,107.193 135.983,103.369 114.705,114.626 		"/>
		<path d="M107.078,169.264l3.425,4.07l34.132-18.056l-3.17-19.009l-33.304,17.619l-1.083,6.498
			C106.808,161.713,104.818,166.811,107.078,169.264"/>
		<path d="M117.29,181.403l6.509,7.739c2.259,2.448,2.708,2.448,4.969,0l16.72-19.879
			c0.826-0.897,1.074-2.094,1.049-3.334L117.29,181.403z"/>
		<path d="M135.218,98.776l-1.179-7.071c-2.259-2.452-13.253-2.452-15.514,0l-2.907,17.44L135.218,98.776z"/>
		<path d="M145.487,160.387l-0.086-0.516l-31.988,16.924l2.422,2.877l30.402-16.084
			C145.956,162.271,145.573,161.091,145.487,160.387"/>
	</g>
</g>
</svg>
