<?xml version="1.0" encoding="UTF-8" standalone="no"?>
<svg width="32px" height="25px" viewBox="0 0 32 25" version="1.1" xmlns="http://www.w3.org/2000/svg" xmlns:xlink="http://www.w3.org/1999/xlink" xmlns:sketch="http://www.bohemiancoding.com/sketch/ns">
    <!-- Generator: Sketch 3.1.1 (8761) - http://www.bohemiancoding.com/sketch -->
    <title>icon-tv4G-btv@1x</title>
    <desc></desc>
    <defs></defs>
    <g id="Page-1" stroke="none" stroke-width="1"  fill-rule="evenodd" >
        <g id="icon-tv4G-btv">
            <path d="M10.0501333,12.0185714 C10.0501333,11.7435714 9.82471111,11.5178571 9.55164444,11.5178571 L6.39146667,11.5178571 C6.11768889,11.5178571 5.89297778,11.7435714 5.89297778,12.0185714 C5.89297778,12.2935714 6.11768889,12.5192857 6.39146667,12.5192857 L7.4304,12.5192857 L7.4304,15.9535714 C7.4304,16.2564286 7.66933333,16.4964286 7.97084444,16.4964286 C8.27377778,16.4964286 8.512,16.2564286 8.512,15.9535714 L8.512,12.5192857 L9.55164444,12.5192857 C9.82471111,12.5192857 10.0501333,12.2935714 10.0501333,12.0185714 M12.0504889,16.1021429 C12.1628444,16.37 12.3669333,16.5314286 12.6613333,16.5314286 L12.7317333,16.5314286 C13.0261333,16.5314286 13.2309333,16.37 13.3432889,16.1021429 L14.9504,12.2371429 C14.9781333,12.1742857 15.0065778,12.0821429 15.0065778,11.9971429 C15.0065778,11.7014286 14.7683556,11.4757143 14.4725333,11.4757143 C14.2129778,11.4757143 14.0238222,11.6442857 13.9534222,11.8214286 L12.7111111,15.0514286 L11.4816,11.8564286 C11.3976889,11.6378571 11.2149333,11.4757143 10.9347556,11.4757143 C10.6325333,11.4757143 10.3936,11.7085714 10.3936,12.0121429 C10.3936,12.1035714 10.4220444,12.1871429 10.4568889,12.2721429 L12.0504889,16.1021429 M21.6832,14.9521429 C21.6832,14.705 21.4869333,14.5085714 21.2416,14.5085714 L20.9806222,14.5085714 L20.9806222,11.9557143 C20.9806222,11.6664286 20.7495111,11.4407143 20.4615111,11.4407143 C20.1457778,11.4407143 19.9914667,11.5678571 19.7873778,11.8078571 L17.6540444,14.2964286 C17.4919111,14.4864286 17.4008889,14.6635714 17.4008889,14.8885714 C17.4008889,15.1785714 17.6398222,15.3885714 17.9278222,15.3885714 L19.9495111,15.3885714 L19.9495111,15.9821429 C19.9495111,16.2707143 20.1735111,16.4964286 20.4615111,16.4964286 C20.7495111,16.4964286 20.9806222,16.2707143 20.9806222,15.9821429 L20.9806222,15.3885714 L21.2416,15.3885714 C21.4869333,15.3885714 21.6832,15.1992857 21.6832,14.9521429 L21.6832,14.9521429 Z M19.9495111,14.5085714 L18.6439111,14.5085714 L19.9495111,12.9714286 L19.9495111,14.5085714 L19.9495111,14.5085714 Z M24.5973333,16.5385714 C25.3347556,16.5385714 25.9164444,16.2928571 26.3168,16.0457143 C26.5763556,15.89 26.6958222,15.6721429 26.6958222,15.3542857 L26.6958222,14.1557143 C26.6958222,13.8528571 26.4576,13.6128571 26.1553778,13.6128571 L24.9194667,13.6128571 C24.6599111,13.6128571 24.4501333,13.8235714 24.4501333,14.0842857 C24.4501333,14.3464286 24.6599111,14.5507143 24.9194667,14.5507143 L25.6497778,14.5507143 L25.6497778,15.255 C25.376,15.4528571 25.0254222,15.5521429 24.6321778,15.5521429 C23.7610667,15.5521429 23.1445333,14.8892857 23.1445333,13.9864286 L23.1445333,13.9714286 C23.1445333,13.1328571 23.7681778,12.435 24.5546667,12.435 C25.0183111,12.435 25.3347556,12.5614286 25.6291556,12.7728571 C25.7059556,12.8292857 25.8040889,12.8864286 25.9598222,12.8864286 C26.2542222,12.8864286 26.4931556,12.6464286 26.4931556,12.3507143 C26.4931556,12.1392857 26.3736889,11.9907143 26.2677333,11.9135714 C25.8254222,11.6028571 25.3347556,11.4328571 24.5895111,11.4328571 C23.1011556,11.4328571 22.0138667,12.5835714 22.0138667,13.9864286 L22.0138667,14.0007143 C22.0138667,15.46 23.0663111,16.5385714 24.5973333,16.5385714 M7.5904,17.7985714 C6.62968889,17.7985714 5.93208889,18.5264286 5.93208889,19.415 L5.93208889,19.4235714 C5.93208889,20.3107143 6.62115556,21.0292857 7.58044444,21.0292857 C8.54044444,21.0292857 9.23804444,20.3021429 9.23804444,19.415 L9.23804444,19.4057143 C9.23804444,18.5164286 8.54968889,17.7985714 7.5904,17.7985714 L7.5904,17.7985714 Z M8.52266667,19.4235714 C8.52266667,19.9592857 8.14008889,20.3957143 7.5904,20.3957143 C7.03857778,20.3957143 6.64817778,19.9492857 6.64817778,19.415 L6.64817778,19.4057143 C6.64817778,18.87 7.02933333,18.4328571 7.58044444,18.4328571 C8.13155556,18.4328571 8.52266667,18.8792857 8.52266667,19.415 L8.52266667,19.4235714 L8.52266667,19.4235714 Z M11.8684444,17.8528571 L10.1269333,17.8528571 C9.93635556,17.8528571 9.78488889,18.0035714 9.78488889,18.1957143 L9.78488889,20.6592857 C9.78488889,20.8521429 9.93635556,21.0028571 10.1269333,21.0028571 C10.3182222,21.0028571 10.4696889,20.8521429 10.4696889,20.6592857 L10.4696889,19.7664286 L11.6686222,19.7664286 C11.8421333,19.7664286 11.9808,19.6285714 11.9808,19.4542857 C11.9808,19.28 11.8421333,19.1414286 11.6686222,19.1414286 L10.4696889,19.1414286 L10.4696889,18.4778571 L11.8684444,18.4778571 C12.0419556,18.4778571 12.1806222,18.3378571 12.1806222,18.1635714 C12.1806222,17.9907143 12.0419556,17.8528571 11.8684444,17.8528571 M14.7214222,17.8528571 L12.9806222,17.8528571 C12.7886222,17.8528571 12.6371556,18.0035714 12.6371556,18.1957143 L12.6371556,20.6592857 C12.6371556,20.8521429 12.7886222,21.0028571 12.9806222,21.0028571 C13.1704889,21.0028571 13.3219556,20.8521429 13.3219556,20.6592857 L13.3219556,19.7664286 L14.5223111,19.7664286 C14.6951111,19.7664286 14.8330667,19.6285714 14.8330667,19.4542857 C14.8330667,19.28 14.6951111,19.1414286 14.5223111,19.1414286 L13.3219556,19.1414286 L13.3219556,18.4778571 L14.7214222,18.4778571 C14.8949333,18.4778571 15.0336,18.3378571 15.0336,18.1635714 C15.0336,17.9907143 14.8949333,17.8528571 14.7214222,17.8528571 M17.5793778,20.365 L16.1706667,20.365 L16.1706667,19.7078571 L17.3568,19.7078571 C17.5260444,19.7078571 17.6632889,19.5742857 17.6632889,19.4057143 C17.6632889,19.235 17.5260444,19.0971429 17.3568,19.0971429 L16.1706667,19.0971429 L16.1706667,18.4635714 L17.5566222,18.4635714 C17.7258667,18.4635714 17.8638222,18.33 17.8638222,18.1592857 C17.8638222,17.9907143 17.7258667,17.8514286 17.5566222,17.8514286 L15.8336,17.8514286 C15.6416,17.8514286 15.4908444,18.005 15.4908444,18.1957143 L15.4908444,20.6328571 C15.4908444,20.8242857 15.6416,20.9764286 15.8336,20.9764286 L17.5793778,20.9764286 C17.7479111,20.9764286 17.8858667,20.8421429 17.8858667,20.6721429 C17.8858667,20.5035714 17.7479111,20.365 17.5793778,20.365 M19.8279111,17.8528571 L18.7477333,17.8528571 C18.5571556,17.8528571 18.4056889,18.0035714 18.4056889,18.1957143 L18.4056889,20.6592857 C18.4056889,20.8521429 18.5571556,21.0028571 18.7477333,21.0028571 C18.9390222,21.0028571 19.0904889,20.8521429 19.0904889,20.6592857 L19.0904889,19.9757143 L19.6366222,19.9757143 L20.3029333,20.8242857 C20.3832889,20.9271429 20.4856889,21.0028571 20.6407111,21.0028571 C20.8056889,21.0028571 20.9649778,20.8771429 20.9649778,20.6857143 C20.9649778,20.5785714 20.9208889,20.5071429 20.8540444,20.4221429 L20.3790222,19.8435714 C20.7559111,19.6857143 21.0012444,19.3828571 21.0012444,18.8921429 L21.0012444,18.8821429 C21.0012444,18.5892857 20.9073778,18.3421429 20.7345778,18.1692857 C20.5304889,17.9642857 20.2232889,17.8528571 19.8279111,17.8528571 L19.8279111,17.8528571 Z M20.3079111,18.9285714 C20.3079111,19.1907143 20.1166222,19.3692857 19.7831111,19.3692857 L19.0904889,19.3692857 L19.0904889,18.4721429 L19.7696,18.4721429 C20.1031111,18.4721429 20.3079111,18.6242857 20.3079111,18.9185714 L20.3079111,18.9285714 L20.3079111,18.9285714 Z M23.6231111,17.8528571 L21.6234667,17.8528571 C21.4499556,17.8528571 21.3084444,17.995 21.3084444,18.1692857 C21.3084444,18.3421429 21.4499556,18.4857143 21.6234667,18.4857143 L22.2805333,18.4857143 L22.2805333,20.6592857 C22.2805333,20.8521429 22.432,21.0028571 22.6225778,21.0028571 C22.8138667,21.0028571 22.9653333,20.8521429 22.9653333,20.6592857 L22.9653333,18.4857143 L23.6231111,18.4857143 C23.7959111,18.4857143 23.9388444,18.3421429 23.9388444,18.1692857 C23.9388444,17.995 23.7959111,17.8528571 23.6231111,17.8528571 M26.4625778,20.365 L25.0538667,20.365 L25.0538667,19.7078571 L26.24,19.7078571 C26.4092444,19.7078571 26.5457778,19.5742857 26.5457778,19.4057143 C26.5457778,19.235 26.4092444,19.0971429 26.24,19.0971429 L25.0538667,19.0971429 L25.0538667,18.4635714 L26.4405333,18.4635714 C26.6090667,18.4635714 26.7470222,18.33 26.7470222,18.1592857 C26.7470222,17.9907143 26.6090667,17.8514286 26.4405333,17.8514286 L24.7160889,17.8514286 C24.5248,17.8514286 24.3733333,18.005 24.3733333,18.1957143 L24.3733333,20.6328571 C24.3733333,20.8242857 24.5248,20.9764286 24.7160889,20.9764286 L26.4625778,20.9764286 C26.6304,20.9764286 26.7690667,20.8421429 26.7690667,20.6721429 C26.7690667,20.5035714 26.6304,20.365 26.4625778,20.365" id="Fill-1" ></path>
            <path d="M31.4197333,0.353571429 C31.2405333,0.266428571 31.0250667,0.342142857 30.9376,0.522857143 L28.0213333,6.58285714 L26.6332444,1.61214286 C26.5792,1.41928571 26.3808,1.30714286 26.1873778,1.36142857 C25.9960889,1.415 25.8830222,1.615 25.9377778,1.80857143 L27.5448889,7.565 L2.04586667,7.565 C2.04586667,7.565 0.251022222,7.565 0.184177778,9.33428571 L0.184177778,22.9685714 C0.199822222,23.2378571 0.3328,24.4428571 1.50897778,24.725 L28.9415111,24.725 C29.4933333,24.5964286 30.3608889,24.1921429 30.3608889,22.9157143 L30.3608889,9.43714286 C30.3608889,9.43714286 30.3608889,7.565 28.4970667,7.565 L28.352,7.565 L31.5889778,0.837857143 C31.6750222,0.657857143 31.5996444,0.440714286 31.4197333,0.353571429 L31.4197333,0.353571429 Z M29.0247111,14.7585714 C29.0247111,14.6157143 29.1399111,14.5014286 29.2814222,14.5014286 C29.4229333,14.5014286 29.5374222,14.6157143 29.5374222,14.7585714 L29.5374222,17.5928571 C29.5374222,17.7357143 29.4229333,17.85 29.2814222,17.85 C29.1399111,17.85 29.0247111,17.7357143 29.0247111,17.5928571 L29.0247111,14.7585714 L29.0247111,14.7585714 Z M2.34453333,17.4842857 C1.62346667,17.4842857 1.04106667,16.8971429 1.04106667,16.1742857 C1.04106667,15.4671429 1.68746667,14.8907143 2.39004444,14.8671429 C3.08906667,14.8907143 3.648,15.4671429 3.648,16.1742857 C3.648,16.8971429 3.06417778,17.4842857 2.34453333,17.4842857 L2.34453333,17.4842857 Z M28.3584,10.1892857 L28.3584,22.2371429 C28.3584,23.6307143 27.0606222,23.6307143 27.0606222,23.6307143 L5.76924444,23.6307143 C4.38115556,23.6307143 4.38115556,22.2371429 4.38115556,22.2371429 L4.38115556,10.1892857 C4.38115556,8.79428571 5.76924444,8.79428571 5.76924444,8.79428571 L26.9703111,8.79428571 C28.3584,8.79428571 28.3584,10.1892857 28.3584,10.1892857 L28.3584,10.1892857 Z" id="Fill-12" ></path>
        </g>
    </g>
</svg>