<?xml version="1.0" encoding="UTF-8" standalone="no"?>
<svg width="32px" height="18px" viewBox="0 0 32 18" version="1.1" xmlns="http://www.w3.org/2000/svg" xmlns:xlink="http://www.w3.org/1999/xlink" xmlns:sketch="http://www.bohemiancoding.com/sketch/ns">
    <!-- Generator: Sketch 3.1.1 (8761) - http://www.bohemiancoding.com/sketch -->
    <title>icon-delivery@1x</title>
    <desc></desc>
    <defs></defs>
    <g id="Page-1" stroke="none" stroke-width="1"  fill-rule="evenodd" >
        <g id="icon-delivery"  transform="translate(1.000000, 0.000000)">
            <path d="M6.51054545,12.708 C5.08145455,12.708 3.92290909,13.88775 3.92290909,15.345 C3.92290909,16.80225 5.08145455,17.982 6.51054545,17.982 C7.93963636,17.982 9.09890909,16.80225 9.09890909,15.345 C9.09890909,13.88775 7.93963636,12.708 6.51054545,12.708 L6.51054545,12.708 Z M6.51054545,17.0445 C5.59127273,17.0445 4.84290909,16.2825 4.84290909,15.345 C4.84290909,14.409 5.59127273,13.6455 6.51054545,13.6455 C7.42981818,13.6455 8.17818182,14.409 8.17818182,15.345 C8.17818182,16.2825 7.42981818,17.0445 6.51054545,17.0445 L6.51054545,17.0445 Z M23.6443636,12.708 C22.216,12.708 21.0567273,13.88775 21.0567273,15.345 C21.0567273,16.80225 22.216,17.982 23.6443636,17.982 C25.0734545,17.982 26.232,16.80225 26.232,15.345 C26.232,13.88775 25.0734545,12.708 23.6443636,12.708 L23.6443636,12.708 Z M23.6443636,17.0445 C22.7243636,17.0445 21.976,16.2825 21.976,15.345 C21.976,14.409 22.7243636,13.6455 23.6443636,13.6455 C24.5643636,13.6455 25.3134545,14.409 25.3134545,15.345 C25.3134545,16.2825 24.5643636,17.0445 23.6443636,17.0445 Z M29.7061818,8.5155 L22.0741818,1.5915 C20.8698182,0.3345 18.656,0.00525 18.656,0.00525 L2.98763636,0.00525 C0.288727273,0.00525 -0.226909091,3.159 -0.226909091,3.159 L-0.226909091,12.93525 C-0.226909091,14.9085 1.25818182,15.3465 1.25818182,15.3465 L3.37745455,15.3465 C3.46836364,12.26175 6.35854545,12.05925 6.35854545,12.05925 C9.86254545,11.99775 9.84727273,15.3465 9.84727273,15.3465 L20.512,15.3465 C20.6785455,11.87475 23.7410909,12.04875 23.7410909,12.04875 C26.9352727,12.36375 26.9818182,15.3465 26.9818182,15.3465 L27.6087273,15.3465 C27.6087273,15.3465 32.5665455,13.389 29.7061818,8.5155 Z M18.7607273,7.67625 L18.7607273,3.12375 L22.5505455,3.12375 L27.7323636,7.67625 L18.7607273,7.67625 L18.7607273,7.67625 Z" id="Fill-1" ></path>
        </g>
    </g>
</svg>