<?xml version="1.0" encoding="utf-8"?>
<!-- Generator: Adobe Illustrator 16.0.0, SVG Export Plug-In . SVG Version: 6.00 Build 0)  -->
<!DOCTYPE svg PUBLIC "-//W3C//DTD SVG 1.1//EN" "http://www.w3.org/Graphics/SVG/1.1/DTD/svg11.dtd">
<svg version="1.1" id="Layer_1" xmlns="http://www.w3.org/2000/svg" xmlns:xlink="http://www.w3.org/1999/xlink" x="0px" y="0px"
	 width="115px" height="80px" viewBox="0 0 115 80" enable-background="new 0 0 115 80" xml:space="preserve">
<path d="M15,47.528c-2.739,0-5-2.222-5-4.96V27.482c-2,0.707-4.859-0.432-5.884-2.739c-1.113-2.503,0.047-5.434,2.551-6.546
	l6.394-2.834c1.533-0.684,3.29-0.542,4.699,0.374c1.408,0.915,2.24,2.48,2.24,4.159v22.674C20,45.307,17.739,47.528,15,47.528z"/>
<path d="M59.113,40.23C53.09,40.23,48,35.192,48,28.761V17.06c0-1.957,1.543-3.543,3.5-3.543S55,15.103,55,17.06v11.701
	c0,2.5,2.029,4.384,4.113,4.384c2.252,0,3.887-2.205,3.887-4.384V17.06c0-1.957,1.543-3.543,3.5-3.543S70,15.103,70,17.06v11.701
	C70,35.3,65.108,40.23,59.113,40.23z"/>
<path fill="#00ABC4" d="M36.172,66.696c-6.211,0-12.862-4.934-12.862-12.276c0-6.927,5.77-12.561,12.862-12.561
	c2.538,0,5.644,0.289,7.148,2.548c0.775,1.162,0.929,2.598,0.411,3.839c-0.753,1.805-2.828,2.657-4.633,1.905
	c-0.604-0.251-1.101-0.651-1.468-1.14c-0.332-0.036-0.805-0.066-1.458-0.066c-2.79,0-5.777,2.2-5.777,5.475
	c0,2.971,3.05,5.191,5.777,5.191c1.109,0,1.8-0.457,1.804-0.461c1.394-1.373,3.638-1.356,5.01,0.038
	c1.372,1.396,1.355,3.639-0.04,5.01C42.523,64.616,40.206,66.696,36.172,66.696z"/>
<path d="M99.625,40.207C93.198,40.207,88,35.076,88,28.526v-2.325c0-6.549,5.198-11.68,11.625-11.68
	c6.287,0,11.375,5.131,11.375,11.68v2.325C111,35.076,105.912,40.207,99.625,40.207z M99.625,21.607
	c-2.496,0-4.625,1.975-4.625,4.594v2.325c0,2.619,2.129,4.594,4.625,4.594c2.709,0,4.375-2.311,4.375-4.594v-2.325
	C104,23.918,102.334,21.607,99.625,21.607z"/>
<path fill="#00ABC4" d="M57.125,67.76C50.698,67.76,46,62.588,46,55.985v-2.352c0-6.603,4.698-11.774,11.125-11.774
	C63.518,41.859,68,46.922,68,53.634v2.352C68,62.697,63.518,67.76,57.125,67.76z M57.125,48.945c-2.495,0-4.125,2.017-4.125,4.688
	v2.352c0,2.672,1.63,4.688,4.125,4.688c2.836,0,3.875-2.431,3.875-4.688v-2.352C61,51.375,59.961,48.945,57.125,48.945z"/>
<path d="M77.5,40.442c-1.957,0-3.5-1.586-3.5-3.543V17.769C74,15.812,75.487,14,77.444,14h7.794c1.957,0,3.543,1.543,3.543,3.5
	S87.195,21,85.238,21H81v15.899C81,38.856,79.457,40.442,77.5,40.442z"/>
<path d="M42.292,30.657c-1.491-0.596-3.143-0.108-4.091,1.087c-0.233,0.076-0.747-0.003-1.676-0.003
	c-2.245,0-4.676-0.741-5.663-3.741h6.194c1.174,0,2.125-0.826,2.125-2c0-1.175-0.951-2-2.125-2H30.9c1.005-2,3.37-3.47,5.625-3.47
	c0.72,0,1.233,0.072,1.586,0.114c0.37,0.509,0.879,0.944,1.502,1.204c1.807,0.752,3.88-0.092,4.633-1.898
	c0.511-1.228,0.352-2.701-0.416-3.853c-1.526-2.291-4.706-2.582-7.306-2.582c-7.287,0-13.215,5.789-13.215,12.903
	c0,7.541,6.833,12.607,13.215,12.607c5.788,0,7.389-2.881,7.741-3.764C44.993,33.445,44.108,31.383,42.292,30.657z"/>
<path fill="#00ABC4" d="M95.734,42.994c-2.762,0-5.116,0.976-7,2.59c-1.839-1.621-4.221-2.59-6.985-2.59
	c-1.625,0-3.118,0.345-4.485,0.948c-0.649-0.762-1.623-1.255-2.702-1.255c-1.957,0-3.562,1.586-3.562,3.542v7.251v7.629v1.298
	c0,1.957,1.543,3.543,3.5,3.543s3.5-1.586,3.5-3.543v-1.298V53.48c0-1.971,1.496-3.4,3.615-3.4c2.529,0,3.385,1.832,3.385,3.4v8.927
	c0,1.957,1.543,3.543,3.5,3.543s3.5-1.586,3.5-3.543V53.48c0-1.971,1.496-3.4,3.615-3.4c2.529,0,3.385,1.832,3.385,3.4v8.927
	c0,1.957,1.543,3.543,3.5,3.543s3.5-1.586,3.5-3.543V53.48C106,47.502,101.729,42.994,95.734,42.994z"/>
<circle fill="#00ABC4" cx="14.914" cy="61.404" r="5.609"/>
</svg>
