<svg width="242" height="201" viewBox="0 0 242 201" xmlns="http://www.w3.org/2000/svg" xmlns:sketch="http://www.bohemiancoding.com/sketch/ns"><title>relaiscolis</title><desc></desc><g ><path d="M155.133 12.67c-2.967 9.9-1.543 18.794 4.668 26.72 4.511 5.757 10.511 9.235 17.745 10.318 17.532 2.624 32.827-11.093 32.497-28.714 1.362.594 2.668 1.12 3.937 1.724 6.603 3.146 12.581 7.176 17.494 12.647 4.788 5.332 7.895 11.522 9.494 18.527 1.051 4.603 1.098 9.249.87 13.886-.216 4.405-1.108 8.744-2.452 13.07-.14-.257-.281-.418-.321-.602-1.139-5.215-4.44-8.357-9.439-9.885-3.363-1.027-6.746-1.994-10.071-3.133-1.014-.348-2.025-1.031-2.755-1.822-1.612-1.742-1.13-4.617.952-6.161 2.296-1.704 5.059-2.214 7.77-2.77 1.743-.356 3.546-.419 5.288-.777.61-.126 1.447-.653 1.582-1.157.134-.499-.329-1.438-.813-1.76-.823-.548-1.845-.988-2.821-1.083-6.965-.677-13.825-.398-20.344 2.571-3.901 1.776-6.133 4.868-6.56 9.017-.707 6.871 2.269 10.804 8.976 12.617 3.455.934 6.893 1.962 10.261 3.165 1.128.403 2.238 1.31 2.971 2.278 2.094 2.762 1.147 5.746-2.176 7.259-3.12 1.421-6.448 2.107-9.813 2.643-1.406.224-2.822.423-4.203.757-.939.227-1.922.714-1.919 1.831.002.969.699 1.732 1.655 1.974 1.29.326 2.624.693 3.936.681 3.019-.027 6.039-.229 9.053-.442 3.545-.25 7.028-.898 10.348-2.185 1.531-.593 2.958-1.457 4.615-2.29-.951 1.953-1.825 3.84-2.776 5.686-4.115 7.98-9.134 15.356-14.768 22.341-4.874 6.042-10.195 11.66-15.847 16.956-9.108 8.536-18.999 16.065-29.635 22.615-9.619 5.923-19.674 10.955-30.232 14.978-7.48 2.85-15.135 5.133-22.971 6.747-3.736.77-7.536 1.238-11.315 1.783-5.715.824-11.471 1.14-17.234.931-3.869-.14-7.733-.541-11.588-.935-8.065-.825-15.851-2.852-23.438-5.667-9.361-3.473-17.994-8.272-25.71-14.604-12.678-10.403-21.939-23.21-26.795-39-1.296-4.217-2.287-8.513-2.555-12.945-.134-2.215-.466-4.43-.425-6.64.042-2.322.423-4.638.654-6.956.407-4.092 1.489-8.021 2.892-11.869 2.47-6.772 6.133-12.85 10.654-18.446 9.122-11.293 20.648-19.56 33.269-26.425 15.762-8.575 32.526-14.576 49.884-18.94 7.112-1.788 14.299-3.298 21.49-4.741 3.945-.792 7.96-1.273 11.961-1.73 5.042-.576 10.1-1.014 15.155-1.453 2.886-.251 5.783-.387 8.905-.59zm-7.932 63.94l-.067-.462c-2.475.314-4.987.46-7.418.981-4.06.868-7.387 2.857-9.078 6.92-.995 2.39-.925 4.897-.816 7.399.182 4.19 2.02 7.48 5.659 9.602 4.216 2.458 8.806 2.214 13.421 1.6 3.321-.441 6.436-1.56 9.546-2.737 1.953-.739 3.897-.798 5.855.246.749.4 1.763.442 2.648.413 1.542-.05 3.073-.337 4.615-.425 1.887-.107 3.395-1.56 3.366-3.456-.022-1.431-.114-2.865-.247-4.29-.455-4.87-.848-9.749-1.449-14.602-.384-3.099-.902-6.208-1.7-9.222-1.356-5.126-4.809-8.52-9.929-9.608-3.379-.717-6.957-.66-10.445-.655-4.671.006-9.23.919-13.615 2.555-.999.373-2.239.705-2.199 2.166.024.903 1.22 1.649 2.781 1.803.27.026.55-.044.826-.07 3.718-.349 7.428-1.048 11.176-.384 2.416.428 4.676 1.29 5.888 3.586 1.926 3.648 1.661 6.428-2.853 7.667-1.932.53-3.973.661-5.965.973zm-67.843 31.932c2.955-.327 5.949-.459 8.855-1.038 2.57-.512 5.076-1.43 7.537-2.361.821-.311 1.495-1.155 2.081-1.881.262-.325.361-1.153.139-1.406-.301-.343-1.004-.537-1.495-.476-4.462.555-8.923 1.136-13.431.889-2.684-.147-5.255-.766-7.409-2.527-1.95-1.594-2.802-3.796-2.837-6.18-.029-2.009 1.333-3.309 3.196-4.022 4.11-1.573 8.482-1.381 12.749-1.862 2.639-.298 5.311-.292 7.958-.527 2.457-.219 4.18-1.591 4.651-3.935.276-1.372.274-2.892-.001-4.265-.91-4.549-3.517-8.083-7.265-10.685-6.81-4.73-14.33-5.493-22.153-3.285-5.656 1.596-10.272 4.862-13.496 9.845-3.739 5.778-3.761 12.022-1.914 18.392 1.736 5.992 5.333 10.471 11.117 13.02 3.719 1.638 7.643 2.24 11.718 2.304zm1.875 54.102c1.345-.113 2.692-.208 4.035-.341 4.805-.477 9.172-2.08 12.825-5.293 4.697-4.131 6.808-9.333 5.735-15.554-.88-5.1-3.641-9.094-7.998-11.916-6.223-4.03-12.919-4.42-19.869-2.401-4.114 1.194-7.799 3.172-10.669 6.435-3.277 3.725-4.505 8.054-3.937 12.996.58 5.038 2.71 9.157 6.785 12.175 3.873 2.868 8.327 3.902 13.093 3.899zm32.997-57.473c1.949-.148 4.219-.202 6.452-.523 2.1-.302 3.612-1.369 3.379-4.038-.231-2.649-.493-5.296-.71-7.945-.264-3.208-.464-6.421-.748-9.626l-1.163-12.215c-.286-3.248-.48-6.504-.752-9.753-.378-4.516-.806-9.028-1.182-13.544-.214-2.575-1.507-3.837-4.072-3.795-1.271.022-2.544.126-3.811.245-1.302.123-2.616.222-3.893.486-2.05.424-2.902 1.829-2.834 3.55.085 2.129.458 4.244.656 6.37.345 3.706.649 7.414.972 11.121l.963 10.995c.4 4.575.799 9.15 1.197 13.726l.956 10.996c.264 3.038 1.273 3.969 4.59 3.95zm-83.37 7.548c1.731-.142 3.029-.108 4.254-.389 1.281-.294 2.554-.775 3.715-1.392 1.027-.546 1.317-1.63 1.208-2.789-.316-3.353-.629-6.706-.934-10.06-.193-2.132-.48-4.264-.525-6.4-.056-2.607-.271-5.291.229-7.814 1.384-6.98 6.688-9.884 12.93-11.564 1.403-.377 2.896-.416 4.298-.795 1.456-.393 1.698-1.707.528-2.69-.561-.472-1.263-.848-1.964-1.072-3.91-1.252-7.88-1.619-11.943-.764-6.698 1.41-12.153 4.714-15.99 10.454-2.211 3.306-3.111 7.054-3.141 10.983-.015 2.008.287 4.019.457 6.028.157 1.852.321 3.704.498 5.554.304 3.186.657 6.369.917 9.559.113 1.398.624 2.435 1.965 2.76 1.275.309 2.625.303 3.498.391zm167.341-19.195c0-.275.041-.798-.007-1.313-.38-4.113-.795-8.223-1.162-12.337-.28-3.13-.484-6.266-.762-9.396-.366-4.124-.803-8.241-1.148-12.367-.176-2.097-1.414-3.418-3.54-3.345-2.506.085-5.022.22-7.507.534-2.215.281-3.614 1.455-3.389 4.04.09 1.03.162 2.061.247 3.091.171 2.055.332 4.112.52 6.166.296 3.233.627 6.463.914 9.697l.505 6.519c.295 3.311.712 6.613.914 9.929.157 2.568 1.44 4.014 4.029 3.931 2.179-.07 4.363-.225 6.524-.502 3.485-.448 4.158-1.963 3.862-4.647zm-40.724 62.392c1.509-.116 2.972-.254 4.439-.336 3.404-.188 6.742-.758 9.92-1.987 3.596-1.39 5.99-3.982 6.417-7.872.436-3.965-1.092-7.237-4.388-9.592-2.116-1.512-4.643-1.946-7.066-2.649-2.198-.637-4.5-1.033-6.335-2.55-1.052-.869-1.536-1.959-1.133-3.357.477-1.654 1.689-2.565 3.184-3.143 2.673-1.034 5.465-1.513 8.315-1.785.672-.064 1.289-.708 1.931-1.086-.439-.599-.759-1.414-1.349-1.74-.715-.395-1.652-.43-2.503-.526-5.536-.624-10.935-.157-16.053 2.215-5.339 2.475-7.086 10.478-2.814 14.836 1.711 1.745 3.926 2.255 6.127 2.929 2.778.851 5.567 1.716 8.243 2.833 1.648.689 2.42 2.293 2.336 4.096-.08 1.715-1.284 2.786-2.754 3.262-2.503.81-5.084 1.383-7.642 2.013-1.337.33-2.721.489-4.029.897-.464.145-1.068.8-1.069 1.223 0 .504.504 1.089.931 1.486.314.292.845.425 1.298.479 1.336.159 2.681.243 3.994.354zm-41.957-46.18c-.909.058-2.308.073-3.685.249-2.583.332-3.964.809-3.627 4.078.187 1.812.338 3.629.481 5.445.178 2.252.299 4.509.502 6.758.285 3.151.651 6.294.931 9.446.207 2.329.305 4.668.503 6.999.377 4.454.801 8.904 1.184 13.357.173 2.006 1.248 3.283 3.23 3.113 1.854-.159 3.706-.367 5.563-.462 2.47-.127 3.154-1.842 2.966-3.709-.318-3.155-.661-6.309-.938-9.469-.281-3.202-.461-6.413-.746-9.615-.361-4.068-.796-8.129-1.174-12.196-.332-3.556-.591-7.118-.954-10.67-.29-2.85-.989-3.422-4.236-3.324zm-67.012 55.796c1.353-.139 2.44-.144 3.475-.379 2.367-.536 4.73-1.114 7.051-1.82 1.102-.335 1.676-1.606 1.386-2.709-.079-.298-.614-.737-.859-.69-2.761.524-5.461.061-8.111-.558-4.193-.98-7.539-3.102-9.069-7.418-.735-2.075-.699-4.212-.627-6.349.076-2.295.71-4.455 2.031-6.35 2.844-4.079 7.132-5.291 11.75-5.74.886-.086 1.582-.206 1.79-1.168.207-.957-.342-1.918-1.336-2.225-.748-.232-1.534-.438-2.308-.46-2.172-.061-4.354-.134-6.518.005-3.461.222-6.798.901-9.636 3.152-2.873 2.279-5.474 4.774-6.693 8.338-.885 2.59-1.233 5.233-.919 8.027.338 3.014 1.045 5.853 2.836 8.285 3.96 5.377 9.656 7.38 15.757 8.059zm87.354-8.205c1.853-.186 3.709-.339 5.556-.567 1.405-.174 2.33-1.277 2.311-2.722-.01-.79-.143-1.578-.213-2.368-.402-4.585-.817-9.168-1.199-13.755-.345-4.152-.632-8.31-.987-12.461-.232-2.714-.991-3.866-3.802-3.715-1.823.098-3.644.276-5.456.499-1.407.173-2.42 1.06-2.488 2.165-.065 1.073-.055 2.161.036 3.232.275 3.234.623 6.461.908 9.694.195 2.211.302 4.43.503 6.64.287 3.149.805 6.289.886 9.441.068 2.666 1.096 4.195 3.945 3.917zm-7.515-44.043c-.357 3.268 2.923 5.994 5.676 6.094 3.53.127 6.365-2.771 6.36-5.979-.005-3.492-2.588-6.05-6.068-6.133-3.345-.079-6.254 2.877-5.968 6.018zm46.992 2.929c2.811.232 6.257-2.175 6.312-6.196.047-3.42-2.846-6.287-6.271-6.291-3.435-.005-6.208 2.816-6.207 6.315.001 3.502 2.667 6.171 6.166 6.172z" /><path d="M205.172 20.823c-.056 11.409-9.065 20.744-20.759 20.704-11.573-.039-20.649-9.104-20.674-20.662-.025-11.659 9.112-20.745 20.687-20.769 11.701-.025 20.688 9.294 20.746 20.727" /><path d="M187.323 160.307c1.818.218 2.959.881 3.783 2.04.622.874 1.174 1.798 1.77 2.691.642.963.146 1.452-.662 1.995-.863.582-1.391.469-1.928-.386-.654-1.041-1.338-2.071-2.1-3.035-.569-.72-1.305-1.196-2.274-.571-.973.627-.819 1.512-.412 2.312.59 1.161 1.274 2.282 2.012 3.356.666.969.035 1.304-.637 1.754-.735.493-1.396.828-2.019-.121-.652-.994-1.272-2.011-1.971-2.971-.598-.821-1.362-1.366-2.433-.776-.842.464-1.043 1.344-.432 2.51.588 1.12 1.281 2.19 1.99 3.241.809 1.201-.339 1.417-.919 1.86-.591.452-1.154.558-1.663-.289-1.042-1.733-2.184-3.406-3.305-5.09-.494-.742-.377-1.255.381-1.759 1.001-.665 1.932-1.436 2.899-2.155.287-.213.571-.532.891-.581 1.968-.307 3.197-1.682 4.59-2.904.725-.636 1.819-.85 2.439-1.121" /><path d="M46.763 188.113c.792-.855 1.547-1.748 2.392-2.546.421-.398 1.048-.929 1.511-.868 1.482.198 1.672.83.673 2.01-1.237 1.46-2.541 2.864-3.83 4.28-.58.637-1.261.933-2.117.511-.884-.437-1.917-.736-1.733-2.067.119-.86.265-1.718.331-2.582.037-.475-.068-.96-.11-1.44-.452.231-.984.377-1.341.71-.667.621-1.202 1.38-1.846 2.027-.97.973-1.9.325-2.792-.172-.793-.443-.963-1.132-.809-2.021.318-1.83.504-3.684.841-5.51.092-.5.002-1.504.992-1.21.763.226 1.772.403 1.456 1.729-.303 1.272-.432 2.585-.637 3.88l.428.219c.764-.753 1.532-1.502 2.292-2.258 1.442-1.437 1.482-1.412 3.262-.572.931.439 1.164 1.104 1.004 2.033-.155.895-.305 1.791-.42 2.692-.037.297.043.61.069.915l.384.24" /><path d="M25.701 176.197c1.045-.774 2.139-1.492 3.123-2.337 1.066-.915 1.794-.177 2.619.347.806.512 1.124 1.089.762 2.096-.42 1.167-.623 2.411-.92 3.622l.377.289c.979-.755 1.987-1.475 2.926-2.277.539-.461 1.009-.711 1.701-.333 1.133.62 1.207 1.127.207 1.943-1.452 1.186-2.919 2.352-4.364 3.545-.947.782-1.827.677-2.815.021-1.042-.692-1.25-1.555-.862-2.66.273-.783.582-1.556.801-2.354.089-.327-.018-.708-.036-1.065-.349.096-.76.106-1.036.304-.742.533-1.42 1.154-2.136 1.724-.9.717-1.766.646-2.711-.006-.961-.664-1.263-1.424-.882-2.546.572-1.682 1.021-3.406 1.606-5.084.193-.555.281-1.465 1.269-1.199 1.003.269 1.407 1.103 1.086 2.068-.275.825-.576 1.642-.823 2.475-.119.401-.139.831-.205 1.247l.313.18" /><path d="M55.791 191.433c.265-.251.574-.47.786-.759.398-.544.728-1.136 1.108-1.694 1.142-1.677 2.053-1.93 3.765-.875.371.229.598.892.658 1.383.156 1.276.183 2.568.262 3.854l.439.158c.704-1.007 1.517-1.956 2.079-3.036.541-1.04 1.252-1.055 2.151-.75.599.203.832.587.45 1.176-1.19 1.834-2.336 3.7-3.598 5.483-.661.933-1.848.989-3.099.27-1.07-.614-.965-1.718-.963-2.735.002-.59.17-1.186.122-1.768-.029-.34-.337-.657-.519-.984-.268.202-.61.352-.792.614-.569.815-1.046 1.694-1.618 2.507-.723 1.029-1.685.939-2.751.559-.995-.354-1.294-.997-1.267-2 .054-1.979-.016-3.962.045-5.94.011-.361.55-1.036.595-1.016.652.297 1.74.057 1.762 1.212.026 1.386.006 2.773.006 4.159l.379.182" /><path d="M171.769 170.452c2.284-.248 3.811 1.385 4.304 2.728.638 1.735-.021 3.681-1.66 4.945-1.447 1.116-2.999 1.885-4.923 1.452-3.096-.697-4.354-4.372-2.3-6.779 1.473-1.729 2.683-2.348 4.579-2.346zm-2.835 4.273c-.004 1.401 1.109 2.686 2.325 2.685 1.154-.001 2.245-1.061 2.24-2.175-.007-1.339-1.173-2.63-2.384-2.638-1.297-.008-2.177.851-2.181 2.128z" /><path d="M131.472 195.646c-2.336 0-3.748-1.08-4.393-3.363-.481-1.702.356-3.474 2.172-4.595 2.26-1.395 4.989-1.318 6.589.186 2.059 1.936 1.901 5.026-.485 6.541-1.125.715-2.498 1.039-3.759 1.54l-.124-.309zm.575-2.154c1.289.01 2.345-.981 2.33-2.187-.016-1.335-1.136-2.617-2.286-2.618-1.285 0-2.288.988-2.276 2.245.014 1.493.935 2.55 2.232 2.56z" /><path d="M96.694 193.183c1.417-1.227 2.992-1.273 4.546-1.056 1.792.25 2.615 1.143 2.852 2.975.177 1.376.189 2.773.283 4.16.059.869-.33 1.331-1.199 1.172-1.438-.264-2.776.151-4.158.406-1.172.216-2.484.015-3.043-1.112-.389-.784-.404-1.931-.172-2.805.341-1.284 1.684-1.26 2.76-1.461.348-.065.748.074 1.069-.039.416-.146.777-.45 1.162-.686-.348-.414-.621-1.013-1.065-1.195-.513-.211-1.18-.018-1.775-.07-.425-.037-.84-.189-1.26-.289zm2.785 6.099c1.012.069 1.747-.514 1.763-1.463.014-.843-.55-1.179-1.295-1.201-.906-.028-1.508.386-1.597 1.352-.076.817.282 1.279 1.129 1.312z" /><path d="M87.763 200.071c-.318.194-.628.539-.955.558-1.621.09-3.262.257-4.79-.545-1.613-.847-2.378-2.52-2.115-4.675.177-1.442 1.628-2.951 3.203-3.331 2.322-.558 4.751.388 5.591 2.259.233.52.379 1.188.26 1.72-.089.399-.635.926-1.033.978-.81.106-1.657-.073-2.489-.13-.357-.024-.752-.139-1.064-.029-.403.143-1 .432-1.044.728-.063.417.181 1.107.516 1.306.581.345 1.325.44 2.014.571.611.117 1.239.139 1.859.202l.047.388zm-2.892-6.603c-.854.018-1.549.194-1.626 1.197-.096 1.26.962 1.208 1.632 1.162.519-.036 1.351-.596 1.422-1.026.144-.873-.598-1.278-1.428-1.333z" /><path d="M152.316 183.188c.439 0 .99-.169 1.294.033.751.502 1.609 1.055 2.012 1.807.444.828.126 1.918-.739 2.42-1.282.744-2.678 1.299-4.052 1.872-.196.081-.539-.193-.814-.303.141-.243.225-.569.435-.716.647-.454 1.383-.788 1.998-1.278.24-.192.385-.709.312-1.015-.05-.21-.541-.414-.852-.444-.712-.068-1.435-.003-2.152-.039-1.022-.052-1.805-.444-2.205-1.488-.401-1.045-.177-2.007.677-2.535 1.148-.708 2.457-1.164 3.723-1.662.2-.078.538.196.811.306-.189.216-.344.482-.575.635-.46.305-1.024.479-1.425.84-.279.252-.47.724-.473 1.099-.001.148.601.359.952.436.342.075.714.016 1.073.016v.016" /><path d="M116.863 191.288c-.621.173-1.286.26-1.851.545-.48.242-.845.711-1.261 1.08.44.275.853.62 1.327.806.657.257 1.52.209 2.004.628.632.546 1.287 1.394 1.357 2.164.058.646-.561 1.762-1.138 1.977-1.449.54-3.042.705-4.586.967-.18.031-.417-.266-.627-.411.193-.216.346-.538.587-.629.698-.264 1.454-.38 2.14-.668.321-.134.789-.593.739-.792-.088-.353-.468-.735-.821-.895-.524-.236-1.129-.297-1.702-.418-1.074-.227-1.969-.675-2.162-1.884-.199-1.243.351-2.239 1.644-2.694.957-.337 1.985-.519 2.997-.631.44-.048.918.25 1.379.391l-.026.464" /><path d="M93.812 194.81c0 1.6-.023 3.201.007 4.8.022 1.142-.684 1.29-1.572 1.281-.888-.01-1.567-.183-1.554-1.31.038-3.079.018-6.159.049-9.238.012-1.243.291-1.381 1.766-1.43 1.111-.036 1.359.474 1.32 1.458-.058 1.478-.015 2.96-.016 4.439" /><path d="M142.779 191.428c.021 1.269-1.007 1.074-1.627 1.292-.476.168-1.03.175-1.282-.624-.951-3.021-1.994-6.013-3.006-9.015-.405-1.2.27-1.547 1.275-1.876 1.024-.336 1.318.063 1.594.929.93 2.918 1.922 5.817 2.888 8.724.073.222.125.451.158.57" /><path d="M164.498 174.846c-.38.346-.732.731-1.146 1.031-.935.678-1.569 1.551-1.34 2.715.213 1.085.612 2.279 1.877 2.492.88.148 1.831-.145 2.752-.218.28-.023.567.028.851.046-.056.283-.013.665-.182.834-2.088 2.081-5.979 2.257-7.516-.413-.98-1.702-.888-3.354.281-4.88 1.042-1.358 2.493-1.959 4.164-1.961l.259.354" /><path d="M127.166 195.89c-.332.434-.497.848-.799 1.012-1.768.964-3.576.936-5.294-.096-1.582-.95-1.946-2.498-1.814-4.227.141-1.836 2.134-3.6 4.223-3.625.659-.008 1.32.239 1.981.369-.513.33-1.001.708-1.543.979-1.177.587-1.926 1.731-1.767 2.812.245 1.673 1.184 2.637 2.758 2.768.619.052 1.245.008 2.255.008" /><path d="M80.032 192.694c-.827.055-1.474.018-2.083.152-1.718.378-2.375 1.397-2.615 3.87-.038.393-.08.788-.166 1.172-.353 1.589-.948 1.924-2.444 1.267-.3-.132-.637-.661-.607-.974.122-1.295.362-2.579.589-3.862.468-2.649 4.222-4.161 6.817-2.463.214.14.298.479.509.838" /><path d="M107.68 191.572c.883-.137 1.215.285 1.283 1.27.125 1.806.381 3.606.652 5.398.211 1.393-.021 1.701-1.722 1.928-.925.123-1.267-.337-1.361-1.612-.129-1.733-.29-3.465-.511-5.189-.197-1.536-.009-1.798 1.659-1.795" /><path d="M145.554 191.092c-.121-.134-.505-.391-.644-.744-.754-1.905-1.393-3.857-2.18-5.748-.455-1.093.088-1.39.946-1.699.903-.325 1.57-.387 1.947.732.577 1.718 1.246 3.404 1.872 5.105.581 1.575.079 2.311-1.941 2.354" /><path d="M158.509 186.042c-.832.019-1.59-.725-1.563-1.579.029-.926.541-1.447 1.457-1.524.869-.073 1.625.626 1.648 1.477.024.848-.695 1.607-1.542 1.626" /><path d="M105.575 189.486c.048-.683.44-1.26 1.435-1.273.981-.014 1.656.57 1.665 1.453.008.789-.841 1.699-1.614 1.579-.813-.127-1.49-.533-1.486-1.759" /><path d="M68.416 198.549c-.802-.118-1.457-.435-1.476-1.453-.018-.946.589-1.655 1.452-1.677.773-.02 1.672.816 1.602 1.596-.079.876-.566 1.449-1.578 1.534" /><path d="M141.573 181.07c.005-.95.475-1.469 1.436-1.494.856-.021 1.679.752 1.582 1.562-.103.865-.615 1.459-1.527 1.533-.864.069-1.493-.644-1.491-1.601" /><path d="M159.333 87.068c.163 6.119-4.186 9.481-9.555 9.195-3.158-.168-6.435-2.127-6.937-6.027-.516-3.998 2.635-8.459 6.61-9.293 1.856-.389 3.69-.371 5.522.21 3.183 1.01 4.362 2.576 4.36 5.915" /><path d="M77.89 84.385c-1.3-.107-2.174-.154-3.041-.254-3.448-.396-4.292-2.854-4.529-5.473-.249-2.756.98-4.89 3.248-6.35 2.97-1.913 6.149-2.595 9.594-1.276 3.159 1.21 5.238 4.024 4.854 7.106-.344 2.766-1.774 4.839-5.719 5.637-1.583.32-3.205.448-4.407.61" /><path d="M92.526 144.394c-.028 5.071-2.804 8.654-6.282 9.808-7.131 2.366-12.848-1.644-13.565-8.99-.297-3.046.153-5.87 2.035-8.305 2.362-3.057 5.697-4.025 9.348-3.554 4.189.54 6.646 3.271 7.794 7.207.361 1.238.454 2.554.67 3.834" /><path d="M178.576 113.311c-1.396 1.521-3.187 1.858-5.152.969-1.771-.801-3.046-2.95-2.788-4.697.305-2.068 1.874-3.829 3.707-4.164 2.331-.424 4.389.621 5.355 2.719.853 1.855.394 3.914-1.164 5.215-.366-.821-.79-1.623-1.071-2.472-.137-.412-.171-1.012.036-1.351.394-.646.861-1.314.283-1.922-.461-.486-1.213-.9-1.867-.953-1.16-.094-2.344.111-3.766.208.214 2.211.403 4.322.65 6.426.021.185.457.485.646.449.284-.055.663-.315.743-.57.125-.399-.021-.875.052-1.301.053-.311.23-.801.427-.841.317-.064.736.116 1.035.311.249.161.464.465.561.75.393 1.159 1.192 1.478 2.313 1.224" /><path d="M173.396 108.381c.804-.391 1.315-.853 1.634-.745.505.169.882.721 1.313 1.11-.507.363-.986.935-1.533 1.009-.324.043-.753-.7-1.414-1.374" /></g></svg>