<?xml version="1.0" encoding="utf-8"?>
<!-- Generator: Adobe Illustrator 16.0.0, SVG Export Plug-In . SVG Version: 6.00 Build 0)  -->
<!DOCTYPE svg PUBLIC "-//W3C//DTD SVG 1.1//EN" "http://www.w3.org/Graphics/SVG/1.1/DTD/svg11.dtd">
<svg version="1.1" id="Calque_1" xmlns="http://www.w3.org/2000/svg" xmlns:xlink="http://www.w3.org/1999/xlink" x="0px" y="0px"
	 width="342.959px" height="88.209px" viewBox="0 0 342.959 88.209" enable-background="new 0 0 342.959 88.209"
	 xml:space="preserve">
<g id="Calque_2">
	<g>
			<defs>
			<linearGradient id="SVGID_1_" gradientUnits="userSpaceOnUse" x1="121.1833" y1="10.2139" x2="233.55" y2="10.2139" gradientTransform="matrix(1 0 0 -1 52.3999 18.2188)">
			<stop  offset="0" style="stop-color:#FFFFFF"/>
			<stop  offset="0.164" style="stop-color:#FCFDFE"/>
			<stop  offset="0.2957" style="stop-color:#F2F6FA"/>
			<stop  offset="0.4163" style="stop-color:#E1EBF4"/>
			<stop  offset="0.5302" style="stop-color:#C9DAEB"/>
			<stop  offset="0.6395" style="stop-color:#AAC5E0"/>
			<stop  offset="0.7453" style="stop-color:#84ACD2"/>
			<stop  offset="0.8482" style="stop-color:#588DC1"/>
			<stop  offset="0.9464" style="stop-color:#256BAE"/>
			<stop  offset="1" style="stop-color:#0656A3"/>
		</linearGradient>
		</defs>
		<path fill="url(#SVGID_1_)" d="M285.95,8.005c0,2.629-2.132,4.762-4.763,4.762H178.345c-2.631,0-4.762-2.132-4.762-4.762l0,0
			c0-2.629,2.131-4.762,4.762-4.762h102.844C283.819,3.243,285.95,5.375,285.95,8.005L285.95,8.005z"/>
		
			<defs>
			<linearGradient id="SVGID_2_" gradientUnits="userSpaceOnUse" x1="180.0579" y1="-4.5361" x2="288.425" y2="-4.5361" gradientTransform="matrix(1 0 0 -1 52.3999 18.2188)">
			<stop  offset="0" style="stop-color:#FFFFFF"/>
			<stop  offset="0.2281" style="stop-color:#FCFDFE"/>
			<stop  offset="0.3654" style="stop-color:#F4F8FB"/>
			<stop  offset="0.4786" style="stop-color:#E6EEF6"/>
			<stop  offset="0.5788" style="stop-color:#D1E0EE"/>
			<stop  offset="0.6703" style="stop-color:#B7CEE4"/>
			<stop  offset="0.7556" style="stop-color:#97B8D8"/>
			<stop  offset="0.836" style="stop-color:#709ECA"/>
			<stop  offset="0.9125" style="stop-color:#4480BA"/>
			<stop  offset="0.9835" style="stop-color:#135FA8"/>
			<stop  offset="1" style="stop-color:#0656A3"/>
		</linearGradient>
		</defs>
		<path fill="url(#SVGID_2_)" d="M340.824,22.755c0,2.629-2.131,4.762-4.762,4.762H237.22c-2.631,0-4.762-2.132-4.762-4.762l0,0
			c0-2.629,2.131-4.762,4.762-4.762h98.844C338.694,17.993,340.824,20.125,340.824,22.755L340.824,22.755z"/>
		
			<defs>
			<linearGradient id="SVGID_3_" gradientUnits="userSpaceOnUse" x1="137.1833" y1="-18.6611" x2="272.55" y2="-18.6611" gradientTransform="matrix(1 0 0 -1 52.3999 18.2188)">
			<stop  offset="0" style="stop-color:#FFFFFF"/>
			<stop  offset="0.1997" style="stop-color:#FCFDFE"/>
			<stop  offset="0.3351" style="stop-color:#F3F7FB"/>
			<stop  offset="0.4514" style="stop-color:#E4EDF5"/>
			<stop  offset="0.557" style="stop-color:#CEDEED"/>
			<stop  offset="0.6553" style="stop-color:#B3CBE3"/>
			<stop  offset="0.7482" style="stop-color:#90B4D6"/>
			<stop  offset="0.837" style="stop-color:#6898C7"/>
			<stop  offset="0.9201" style="stop-color:#3A79B6"/>
			<stop  offset="1" style="stop-color:#0656A3"/>
		</linearGradient>
			</defs>
		<path fill="url(#SVGID_3_)" d="M324.949,36.88c0,2.629-2.131,4.762-4.762,4.762H194.345c-2.631,0-4.762-2.132-4.762-4.762l0,0
			c0-2.629,2.131-4.762,4.762-4.762h125.844C322.819,32.118,324.949,34.25,324.949,36.88L324.949,36.88z"/>
			
			<defs>
			<linearGradient id="SVGID_4_" gradientUnits="userSpaceOnUse" x1="174.3079" y1="-32.6611" x2="236.675" y2="-32.6611" gradientTransform="matrix(1 0 0 -1 52.3999 18.2188)">
			<stop  offset="0" style="stop-color:#FFFFFF"/>
			<stop  offset="0.164" style="stop-color:#FCFDFE"/>
			<stop  offset="0.2957" style="stop-color:#F2F6FA"/>
			<stop  offset="0.4163" style="stop-color:#E1EBF4"/>
			<stop  offset="0.5302" style="stop-color:#C9DAEB"/>
			<stop  offset="0.6395" style="stop-color:#AAC5E0"/>
			<stop  offset="0.7453" style="stop-color:#84ACD2"/>
			<stop  offset="0.8482" style="stop-color:#588DC1"/>
			<stop  offset="0.9464" style="stop-color:#256BAE"/>
			<stop  offset="1" style="stop-color:#0656A3"/>
		</linearGradient>
	</defs>
		<path fill="url(#SVGID_4_)" d="M289.075,50.88c0,2.629-2.132,4.762-4.763,4.762H231.47c-2.631,0-4.762-2.133-4.762-4.762l0,0
			c0-2.629,2.131-4.762,4.762-4.762h52.844C286.944,46.118,289.075,48.251,289.075,50.88L289.075,50.88z"/>
	</g>
</g>
<path fill="#0056A4" d="M144.509,16.986c-7.781,0-12.246,4.065-13.985,6.086V0.601h-5.859v36.571
	c0,11.472,8.345,20.123,19.411,20.123c11.072-0.024,19.729-9.094,19.705-20.64C163.768,27.351,155.849,16.986,144.509,16.986
	 M144.039,51.994c-7.582,0-13.759-6.653-13.771-14.831c-0.011-7.898,6.428-14.836,13.776-14.848c7.566,0,13.729,6.636,13.738,14.795
	C157.796,45.58,151.9,51.979,144.039,51.994"/>
<path fill="#0056A4" d="M103.518,0.849C101.143,0.254,99.335,0,97.479,0C89.15,0,84.373,6.065,84.373,16.64v1.011h-4.845v4.991
	h4.776v34.212h5.829V22.642h9.518V17.65H90.07l-0.006-1.007c-0.005-5.028,0.804-8.183,2.546-9.929
	c1.886-1.889,4.971-2.172,9.501-0.9l0.44,0.124l1.429-4.975L103.518,0.849z"/>
<path fill="#0056A4" d="M191.935,18.001c-2.904-0.677-5.297-0.966-7.999-0.966c-10.396,0-15.234,4.829-15.234,15.196V56.75h5.878
	V32.865c0-7.702,2.44-10.433,9.326-10.433c1.973,0,4.216,0.323,6.673,0.957l0.446,0.115l1.367-5.396L191.935,18.001z"/>
<rect x="109.692" y="17.64" fill="#0056A4" width="5.88" height="39.111"/>
<path fill="#0056A4" d="M112.45,0.647c-2.233,0-4.051,1.828-4.051,4.076c0,2.232,1.817,4.048,4.051,4.048
	c2.251,0,4.079-1.816,4.079-4.048C116.53,2.476,114.701,0.647,112.45,0.647"/>
<path fill="#0056A4" d="M228.049,30.179c-1.146-7.269-8.832-13.184-17.133-13.184c-10.88,0.033-19.395,8.893-19.377,20.173
	c0.026,11.299,8.965,20.149,20.343,20.149c5.443,0,10.652-1.62,14.293-4.447l0.328-0.251l-2.686-4.308l-0.399,0.293
	c-3.074,2.264-6.805,3.461-10.788,3.461c-9.833,0-14.693-6.787-15.23-13.671h23.754c2.839,0,4.76-0.635,5.879-1.94
	C228.179,35.116,228.503,33.121,228.049,30.179 M210.893,22.144v-0.46l0.022,0.46c7.604,0,11.656,5.779,11.656,9.949
	c0,1.179-0.244,1.378-0.98,1.378h-24.278C198.352,27.759,202.878,22.159,210.893,22.144"/>
<path fill="#0056A4" d="M40.31,17.681C29.794,17.707,20.93,27.066,20.95,38.12c0.022,10.859,8.362,19.049,19.396,19.049
	c7.453,0,12.082-4.912,13.882-7.286v6.688l5.442,0.004v-19.19C59.651,26.521,50.967,17.681,40.31,17.681 M40.284,22.72l0.033,0.458
	c7.402,0,13.438,6.38,13.454,14.223c0.011,7.856-6.016,14.259-13.433,14.272c-7.425,0-13.473-6.379-13.481-14.219
	c-0.008-3.726,1.417-7.285,4.015-10.031c2.544-2.689,5.976-4.235,9.413-4.245L40.284,22.72z"/>
<path fill="#0056A4" d="M18.924,50.799l-0.471,0.126c-4.646,1.229-7.034,1.131-8.48-0.318c-1.315-1.319-1.897-3.955-1.89-8.552
	V1.928H2.347v41.914c0,6.212,1.216,13.347,10.7,13.347c2.006,0,4.454-0.379,6.548-1.013l0.401-0.12L18.924,50.799z"/>
<g>
	<g>
		<path fill="#0056A4" d="M0.84,80.411l0.819-0.835c0.173-0.157,0.331-0.126,0.473,0.016c0.204,0.222,0.52,0.505,1.039,0.505
			c0.614,0,1.26-0.505,1.26-1.592v-7.433c0-0.158,0.126-0.3,0.299-0.3h1.48c0.173,0,0.299,0.142,0.299,0.3v7.433
			c0,2.189-1.464,3.449-3.307,3.449c-1.37,0-2.125-0.818-2.394-1.15C0.73,80.678,0.746,80.521,0.84,80.411z"/>
	</g>
	<g>
		<path fill="#0056A4" d="M9.234,71.072c0-0.158,0.143-0.3,0.3-0.3h1.495c0.174,0,0.3,0.142,0.3,0.3v6.44
			c0,1.338,0.914,2.394,2.283,2.394c1.37,0,2.301-1.056,2.301-2.378v-6.456c0-0.158,0.126-0.3,0.298-0.3h1.497
			c0.156,0,0.298,0.142,0.298,0.3v6.551c0,2.394-1.905,4.331-4.395,4.331c-2.472,0-4.378-1.938-4.378-4.331L9.234,71.072
			L9.234,71.072z"/>
	</g>
	<g>
		<path fill="#0056A4" d="M20.371,80.254l0.565-0.978c0.126-0.221,0.395-0.221,0.536-0.109c0.079,0.047,1.354,0.977,2.378,0.977
			c0.819,0,1.435-0.535,1.435-1.213c0-0.804-0.679-1.354-2-1.89c-1.481-0.601-2.961-1.543-2.961-3.401
			c0-1.402,1.038-3.022,3.543-3.022c1.605,0,2.835,0.817,3.149,1.054c0.157,0.096,0.204,0.363,0.094,0.521l-0.598,0.896
			c-0.126,0.188-0.362,0.315-0.551,0.188c-0.126-0.077-1.323-0.865-2.189-0.865c-0.896,0-1.386,0.599-1.386,1.104
			c0,0.739,0.583,1.242,1.858,1.764c1.527,0.615,3.292,1.527,3.292,3.561c0,1.621-1.402,3.117-3.623,3.117
			c-1.984,0-3.149-0.93-3.465-1.229C20.308,80.584,20.229,80.505,20.371,80.254z"/>
	</g>
	<g>
		<path fill="#0056A4" d="M34.736,70.616c3.15,0,5.67,2.533,5.67,5.685c0,2.142-1.244,4.031-3.071,5.04l1.969,3.102
			c0.142,0.221,0,0.473-0.251,0.473h-1.669c-0.063,0-0.205-0.063-0.252-0.157l-1.686-2.85c-0.252,0.03-0.52,0.047-0.709,0.047
			c-3.148,0-5.652-2.504-5.652-5.653C29.083,73.149,31.587,70.616,34.736,70.616z M34.736,79.906c1.985,0,3.623-1.622,3.623-3.605
			c0-1.985-1.638-3.639-3.623-3.639c-1.983,0-3.604,1.653-3.604,3.639C31.131,78.284,32.752,79.906,34.736,79.906z"/>
	</g>
	<g>
		<path fill="#0056A4" d="M42.628,71.072c0-0.158,0.142-0.3,0.299-0.3h1.496c0.173,0,0.299,0.142,0.299,0.3v6.44
			c0,1.338,0.914,2.394,2.284,2.394s2.3-1.056,2.3-2.378v-6.456c0-0.158,0.126-0.3,0.298-0.3h1.497c0.157,0,0.298,0.142,0.298,0.3
			v6.551c0,2.394-1.904,4.331-4.394,4.331c-2.472,0-4.378-1.938-4.378-4.331L42.628,71.072L42.628,71.072z"/>
	</g>
	<g>
		<path fill="#0056A4" d="M53.622,74.914c-0.11-0.108-0.078-0.267,0.031-0.362c0.157-0.109,1.071-0.818,1.071-1.921
			c-0.016,0-0.22,0.079-0.472,0.079c-0.583,0-1.057-0.458-1.057-1.04c0-0.583,0.474-1.054,1.119-1.054
			c0.567,0,1.308,0.393,1.308,1.684c0,1.544-1.008,2.488-1.418,2.852c-0.125,0.095-0.236,0.109-0.362-0.017L53.622,74.914z"/>
	</g>
	<g>
		<path fill="#0056A4" d="M56.046,81.388l4.896-10.6c0.048-0.094,0.126-0.172,0.269-0.172h0.158c0.157,0,0.22,0.078,0.268,0.172
			l4.851,10.6c0.096,0.204-0.031,0.409-0.268,0.409h-1.37c-0.236,0-0.347-0.095-0.457-0.315l-0.771-1.7h-4.709l-0.771,1.7
			c-0.063,0.158-0.205,0.315-0.457,0.315h-1.371C56.078,81.797,55.952,81.592,56.046,81.388z M59.621,68.489
			c-0.142-0.063-0.204-0.236-0.095-0.426l0.441-0.818c0.078-0.143,0.284-0.126,0.409-0.047l2.583,1.543
			c0.079,0.047,0.158,0.172,0.095,0.299l-0.283,0.552c-0.063,0.142-0.173,0.204-0.394,0.11L59.621,68.489z M62.849,78.032
			l-1.575-3.465h-0.047l-1.543,3.465H62.849z"/>
	</g>
</g>
<g>
	<path fill="#0056A4" d="M77.644,69.929c0.236-0.066,0.404,0.019,0.471,0.236l0.388,0.993c0.084,0.2,0.017,0.387-0.303,0.487
		c-0.791,0.252-3.182,1.381-3.703,3.23c0.286-0.168,1.127-0.471,1.918-0.471c1.683,0,3.434,1.244,3.434,3.652
		c0,2.119-1.734,3.854-3.804,3.854c-2.644,0-4.006-2.12-4.006-4.645C72.039,72.353,76.196,70.399,77.644,69.929z M77.947,78.024
		c0-1.077-0.857-1.969-1.936-1.969c-1.111,0-1.767,0.857-1.953,1.463c0,1.146,0.606,2.476,1.969,2.476
		C77.088,79.994,77.947,79.085,77.947,78.024z"/>
	<path fill="#0056A4" d="M81.416,76.021c0-3.686,1.548-5.891,4.241-5.891c2.692,0,4.24,2.205,4.24,5.891
		c0,3.688-1.548,5.892-4.24,5.892C82.964,81.912,81.416,79.708,81.416,76.021z M87.693,76.021c0-2.489-0.739-3.903-2.035-3.903
		c-1.297,0-2.037,1.414-2.037,3.903c0,2.508,0.74,3.905,2.037,3.905C86.953,79.926,87.693,78.528,87.693,76.021z"/>
</g>
<g>
	<path fill="#0056A4" d="M96.28,70.282c0-0.168,0.135-0.319,0.32-0.319h6.851c0.186,0,0.319,0.151,0.319,0.319v1.381
		c0,0.168-0.134,0.318-0.319,0.318h-4.981v3.164h4.157c0.168,0,0.319,0.151,0.319,0.32v1.381c0,0.168-0.15,0.318-0.319,0.318h-4.157
		v4.259c0,0.168-0.152,0.319-0.32,0.319H96.6c-0.186,0-0.32-0.151-0.32-0.319V70.282z"/>
</g>
<g>
	<path fill="#0056A4" d="M111.294,69.795c3.366,0,6.059,2.709,6.059,6.075c0,3.365-2.692,6.042-6.059,6.042
		s-6.042-2.677-6.042-6.042C105.252,72.504,107.928,69.795,111.294,69.795z M111.294,79.726c2.121,0,3.871-1.733,3.871-3.854
		c0-2.12-1.75-3.888-3.871-3.888s-3.854,1.768-3.854,3.888C107.439,77.991,109.173,79.726,111.294,79.726z"/>
	<path fill="#0056A4" d="M119.897,70.282c0-0.168,0.151-0.319,0.32-0.319h1.565c0.168,0,0.319,0.151,0.319,0.319v11.143
		c0,0.168-0.15,0.319-0.319,0.319h-1.565c-0.168,0-0.32-0.151-0.32-0.319V70.282z"/>
</g>
<g>
	<path fill="#0056A4" d="M124.812,80.095l0.606-1.043c0.135-0.236,0.421-0.236,0.571-0.117c0.085,0.051,1.448,1.043,2.543,1.043
		c0.875,0,1.531-0.572,1.531-1.297c0-0.857-0.724-1.447-2.138-2.02c-1.582-0.641-3.164-1.648-3.164-3.635
		c0-1.498,1.111-3.231,3.787-3.231c1.716,0,3.029,0.875,3.366,1.127c0.168,0.103,0.219,0.388,0.101,0.556l-0.64,0.959
		c-0.135,0.203-0.388,0.338-0.589,0.203c-0.136-0.084-1.414-0.927-2.34-0.927c-0.959,0-1.48,0.64-1.48,1.179
		c0,0.791,0.623,1.33,1.986,1.885c1.632,0.656,3.518,1.634,3.518,3.805c0,1.732-1.498,3.332-3.871,3.332
		c-2.121,0-3.366-0.992-3.703-1.313C124.745,80.448,124.661,80.364,124.812,80.095z"/>
</g>
<g>
	<path fill="#0056A4" d="M138.667,70.282c0-0.168,0.134-0.319,0.319-0.319h3.955c2.07,0,3.771,1.683,3.771,3.72
		c0,2.088-1.7,3.786-3.753,3.786h-2.104v3.956c0,0.168-0.151,0.319-0.319,0.319h-1.549c-0.186,0-0.319-0.151-0.319-0.319V70.282
		L138.667,70.282z M142.807,75.416c0.942,0,1.733-0.758,1.733-1.751c0-0.925-0.791-1.632-1.733-1.632h-1.952v3.383H142.807z"/>
</g>
<g>
	<path fill="#0056A4" d="M148.968,70.282c0-0.168,0.134-0.319,0.32-0.319h1.548c0.168,0,0.32,0.151,0.32,0.319v9.441h4.292
		c0.185,0,0.319,0.151,0.319,0.319v1.381c0,0.168-0.135,0.319-0.319,0.319h-6.16c-0.187,0-0.32-0.151-0.32-0.319V70.282
		L148.968,70.282z"/>
</g>
<g>
	<path fill="#0056A4" d="M157.47,70.282c0-0.168,0.151-0.319,0.32-0.319h1.599c0.187,0,0.32,0.151,0.32,0.319v6.884
		c0,1.431,0.977,2.56,2.439,2.56c1.464,0,2.458-1.129,2.458-2.543v-6.899c0-0.168,0.135-0.319,0.32-0.319h1.599
		c0.168,0,0.32,0.151,0.32,0.319v7.002c0,2.559-2.037,4.628-4.696,4.628c-2.642,0-4.679-2.069-4.679-4.628L157.47,70.282
		L157.47,70.282z"/>
</g>
<g>
	<path fill="#0056A4" d="M169.371,80.095l0.605-1.043c0.135-0.236,0.421-0.236,0.572-0.117c0.084,0.051,1.447,1.043,2.541,1.043
		c0.875,0,1.532-0.572,1.532-1.297c0-0.857-0.725-1.447-2.139-2.02c-1.582-0.641-3.164-1.648-3.164-3.635
		c0-1.498,1.111-3.231,3.787-3.231c1.718,0,3.029,0.875,3.366,1.127c0.168,0.103,0.219,0.388,0.102,0.556l-0.641,0.959
		c-0.135,0.203-0.387,0.338-0.589,0.203c-0.135-0.084-1.414-0.927-2.34-0.927c-0.959,0-1.48,0.64-1.48,1.179
		c0,0.791,0.623,1.33,1.986,1.885c1.632,0.656,3.517,1.634,3.517,3.805c0,1.732-1.497,3.332-3.869,3.332
		c-2.121,0-3.367-0.992-3.703-1.313C169.304,80.448,169.219,80.364,169.371,80.095z"/>
</g>
<g>
	<path fill="#0056A4" d="M183.241,70.282c0-0.168,0.135-0.319,0.319-0.319h4.813c2.02,0,3.669,1.615,3.669,3.618
		c0,1.549-1.026,2.811-2.491,3.4l2.306,4.273c0.118,0.219,0,0.488-0.286,0.488h-1.767c-0.151,0-0.236-0.084-0.27-0.151l-2.238-4.46
		h-1.868v4.292c0,0.168-0.151,0.319-0.32,0.319h-1.548c-0.186,0-0.319-0.151-0.319-0.319V70.282z M188.189,75.332
		c0.894,0,1.666-0.774,1.666-1.717c0-0.894-0.772-1.634-1.666-1.634h-2.743v3.351H188.189L188.189,75.332z"/>
</g>
<g>
	<path fill="#0056A4" d="M193.257,81.308l5.234-11.328c0.051-0.101,0.135-0.185,0.285-0.185h0.168c0.169,0,0.236,0.084,0.286,0.185
		l5.185,11.328c0.102,0.219-0.033,0.438-0.286,0.438h-1.464c-0.253,0-0.37-0.102-0.488-0.337l-0.824-1.817h-5.032l-0.824,1.817
		c-0.067,0.169-0.22,0.337-0.488,0.337h-1.464C193.29,81.744,193.156,81.524,193.257,81.308z M200.527,77.722l-1.683-3.703h-0.051
		l-1.649,3.703H200.527z"/>
</g>
<g>
	<path fill="#0056A4" d="M206.269,70.282c0-0.168,0.135-0.319,0.32-0.319h3.955c2.069,0,3.77,1.683,3.77,3.72
		c0,2.088-1.699,3.786-3.753,3.786h-2.104v3.956c0,0.168-0.151,0.319-0.32,0.319h-1.548c-0.187,0-0.32-0.151-0.32-0.319V70.282z
		 M210.409,75.416c0.941,0,1.732-0.758,1.732-1.751c0-0.925-0.791-1.632-1.732-1.632h-1.952v3.383H210.409z"/>
	<path fill="#0056A4" d="M216.571,70.282c0-0.168,0.151-0.319,0.32-0.319h1.565c0.168,0,0.318,0.151,0.318,0.319v11.143
		c0,0.168-0.15,0.319-0.318,0.319h-1.565c-0.169,0-0.32-0.151-0.32-0.319V70.282z"/>
	<path fill="#0056A4" d="M222.176,70.282c0-0.168,0.135-0.319,0.304-0.319h3.988c3.248,0,5.907,2.644,5.907,5.874
		c0,3.266-2.659,5.907-5.907,5.907h-3.988c-0.169,0-0.304-0.151-0.304-0.319V70.282z M226.266,79.69
		c2.188,0,3.787-1.649,3.787-3.854c0-2.188-1.599-3.838-3.787-3.838h-1.918v7.69h1.918V79.69z"/>
</g>
<g>
	<path fill="#0056A4" d="M234.937,70.282c0-0.168,0.135-0.319,0.32-0.319h6.85c0.187,0,0.32,0.151,0.32,0.319v1.381
		c0,0.168-0.135,0.318-0.32,0.318h-4.98v2.762h4.157c0.168,0,0.318,0.15,0.318,0.318v1.396c0,0.186-0.15,0.32-0.318,0.32h-4.157
		v2.945h4.98c0.187,0,0.32,0.15,0.32,0.318v1.381c0,0.168-0.135,0.319-0.32,0.319h-6.85c-0.187,0-0.32-0.151-0.32-0.319V70.282z"/>
</g>
<g>
	<path fill="#0056A4" d="M254.076,69.795c3.365,0,6.059,2.709,6.059,6.075c0,2.289-1.329,4.309-3.282,5.386l2.104,3.315
		c0.15,0.236,0,0.505-0.271,0.505h-1.784c-0.066,0-0.219-0.067-0.27-0.168l-1.801-3.046c-0.27,0.033-0.556,0.05-0.757,0.05
		c-3.366,0-6.042-2.677-6.042-6.042C248.033,72.504,250.71,69.795,254.076,69.795z M254.076,79.726c2.119,0,3.87-1.733,3.87-3.854
		c0-2.12-1.751-3.888-3.87-3.888c-2.121,0-3.854,1.768-3.854,3.888S251.955,79.726,254.076,79.726z"/>
</g>
<g>
	<path fill="#0056A4" d="M262.527,70.282c0-0.168,0.151-0.319,0.319-0.319h1.6c0.186,0,0.319,0.151,0.319,0.319v6.884
		c0,1.431,0.978,2.56,2.44,2.56c1.465,0,2.457-1.129,2.457-2.543v-6.899c0-0.168,0.135-0.319,0.319-0.319h1.6
		c0.168,0,0.319,0.151,0.319,0.319v7.002c0,2.559-2.036,4.628-4.695,4.628c-2.644,0-4.68-2.069-4.68-4.628L262.527,70.282
		L262.527,70.282z"/>
</g>
<g>
	<path fill="#0056A4" d="M275.118,70.282c0-0.168,0.135-0.319,0.319-0.319h6.851c0.186,0,0.319,0.151,0.319,0.319v1.381
		c0,0.168-0.135,0.318-0.319,0.318h-4.981v2.762h4.157c0.168,0,0.319,0.15,0.319,0.318v1.396c0,0.186-0.151,0.32-0.319,0.32h-4.157
		v2.945h4.981c0.186,0,0.319,0.15,0.319,0.318v1.381c0,0.168-0.135,0.319-0.319,0.319h-6.851c-0.186,0-0.319-0.151-0.319-0.319
		V70.282z"/>
</g>
<g>
	<path fill="#0056A4" d="M289.04,70.282c0-0.168,0.135-0.319,0.319-0.319h1.549c0.169,0,0.319,0.151,0.319,0.319v9.441h4.292
		c0.186,0,0.319,0.151,0.319,0.319v1.381c0,0.168-0.135,0.319-0.319,0.319h-6.16c-0.186,0-0.319-0.151-0.319-0.319V70.282z"/>
</g>
<g>
	<path fill="#0056A4" d="M296.464,74.39c-0.117-0.117-0.084-0.285,0.034-0.388c0.168-0.117,1.145-0.875,1.145-2.053
		c-0.019,0-0.236,0.084-0.505,0.084c-0.623,0-1.128-0.488-1.128-1.111c0-0.622,0.505-1.127,1.195-1.127
		c0.604,0,1.396,0.42,1.396,1.802c0,1.648-1.077,2.658-1.515,3.045c-0.135,0.103-0.253,0.118-0.388-0.017L296.464,74.39z"/>
</g>
<g>
	<path fill="#0056A4" d="M299.056,81.308l5.233-11.328c0.052-0.101,0.136-0.185,0.286-0.185h0.168c0.169,0,0.236,0.084,0.286,0.185
		l5.185,11.328c0.102,0.219-0.033,0.438-0.286,0.438h-1.464c-0.253,0-0.37-0.102-0.488-0.337l-0.824-1.817h-5.032l-0.824,1.817
		c-0.067,0.169-0.22,0.337-0.488,0.337h-1.464C299.089,81.744,298.954,81.524,299.056,81.308z M306.325,77.722l-1.683-3.703h-0.051
		l-1.649,3.703H306.325z"/>
	<path fill="#0056A4" d="M312.084,70.282c0-0.168,0.135-0.319,0.304-0.319h3.988c3.247,0,5.906,2.644,5.906,5.874
		c0,3.266-2.659,5.907-5.906,5.907h-3.988c-0.169,0-0.304-0.151-0.304-0.319V70.282z M316.174,79.69
		c2.188,0,3.787-1.649,3.787-3.854c0-2.188-1.6-3.838-3.787-3.838h-1.918v7.69h1.918V79.69z"/>
	<path fill="#0056A4" d="M324.154,80.095l0.605-1.043c0.135-0.236,0.421-0.236,0.571-0.117c0.084,0.051,1.447,1.043,2.542,1.043
		c0.875,0,1.531-0.572,1.531-1.297c0-0.857-0.724-1.447-2.138-2.02c-1.582-0.641-3.164-1.648-3.164-3.635
		c0-1.498,1.11-3.231,3.787-3.231c1.717,0,3.029,0.875,3.366,1.127c0.168,0.103,0.219,0.388,0.101,0.556l-0.64,0.959
		c-0.136,0.203-0.388,0.338-0.589,0.203c-0.136-0.084-1.414-0.927-2.341-0.927c-0.959,0-1.479,0.64-1.479,1.179
		c0,0.791,0.622,1.33,1.984,1.885c1.634,0.656,3.519,1.634,3.519,3.805c0,1.732-1.497,3.332-3.871,3.332
		c-2.12,0-3.365-0.992-3.702-1.313C324.087,80.448,324.003,80.364,324.154,80.095z"/>
</g>
<g>
	<path fill="#0056A4" d="M334.305,70.282c0-0.168,0.135-0.319,0.32-0.319h1.548c0.169,0,0.319,0.151,0.319,0.319v9.441h4.292
		c0.186,0,0.319,0.151,0.319,0.319v1.381c0,0.168-0.135,0.319-0.319,0.319h-6.159c-0.187,0-0.32-0.151-0.32-0.319V70.282z"/>
</g>
</svg>
