<?xml version="1.0" encoding="UTF-8" standalone="no"?>
<svg width="32px" height="25px" viewBox="0 0 32 25" version="1.1" xmlns="http://www.w3.org/2000/svg" xmlns:xlink="http://www.w3.org/1999/xlink" xmlns:sketch="http://www.bohemiancoding.com/sketch/ns">
    <!-- Generator: Sketch 3.1.1 (8761) - http://www.bohemiancoding.com/sketch -->
    <title>icon-SMS-MMS@1x</title>
    <desc></desc>
    <defs></defs>
    <g id="Page-1" stroke="none" stroke-width="1"  fill-rule="evenodd" >
        <g id="icon-SMS-MMS"  transform="translate(1.000000, 1.000000)">
            <path d="M10.1595152,7.309 C10.1595152,11.076 14.7161212,14.131 20.3374545,14.131 C21.1636364,14.131 21.9607273,14.057 22.7306667,13.932 C23.2901818,14.844 24.649697,15.248 25.8637576,15.373 L27.4957576,15.373 C28.0989091,15.295 28.352,15.129 27.8671515,14.969 C26.9934545,14.678 26.4814545,13.699 26.1953939,12.879 C28.6021818,11.74 30.2419394,9.922 30.4824242,7.838 L30.4824242,6.777 C30.0790303,3.258 25.6901818,0.486 20.3374545,0.486 C14.7161212,0.486 10.1595152,3.541 10.1595152,7.309" id="Fill-1" ></path>
            <path d="M22.7917576,19.705 L17.7580606,16.113 C17.5243636,15.873 17.1461818,15.873 16.9124848,16.115 L15.6935758,17.373 C14.4339394,18.672 10.4756364,15.434 9.19078788,14.109 C7.90884848,12.787 4.7689697,8.705 6.02860606,7.406 L7.24848485,6.148 C7.48024242,5.908 7.48024242,5.518 7.24848485,5.277 L3.76533333,0.084 C3.53260606,-0.156 3.15636364,-0.156 2.92072727,0.084 L0.536242424,1.744 C-0.504242424,2.818 -2.2710303,6.613 7.09624242,16.271 C16.4606061,25.932 20.1435152,24.107 21.1820606,23.035 L21.184,23.035 L22.7917576,20.576 C23.0264242,20.334 23.0264242,19.945 22.7917576,19.705" id="Fill-2" ></path>
        </g>
    </g>
</svg>