<?xml version="1.0" encoding="UTF-8" standalone="no"?>
<svg width="31px" height="33px" viewBox="0 0 31 33" version="1.1" xmlns="http://www.w3.org/2000/svg" xmlns:xlink="http://www.w3.org/1999/xlink" xmlns:sketch="http://www.bohemiancoding.com/sketch/ns">
    <!-- Generator: Sketch 3.1.1 (8761) - http://www.bohemiancoding.com/sketch -->
    <title>icon-support-48h@1x</title>
    <desc></desc>
    <defs></defs>
    <g id="Page-1" stroke="none" stroke-width="1"  fill-rule="evenodd" >
        <g id="icon-support-48h"  transform="translate(0.000000, 1.000000)">
            <path d="M17.4170256,29.0616 L17.7542564,30.5928 L18.0438974,30.5296 L17.7140513,29 L17.4170256,29.0616 Z M15.9573333,29.272 L16.1271795,30.828 L16.4209231,30.7968 L16.2568205,29.2416 L15.9573333,29.272 Z M15.9573333,1.7472 L16.2568205,1.7768 L16.4209231,0.2224 L16.1271795,0.1912 L15.9573333,1.7472 Z M27.585641,21.036 L29.0486154,21.6728 L28.9288205,21.9384 L27.4650256,21.3032 L27.585641,21.036 Z M26.1374359,23.5432 L27.4338462,24.46 L27.2590769,24.6984 L25.9593846,23.78 L26.1374359,23.5432 Z M18.8504615,28.704 L19.3476923,30.1928 L19.6291282,30.1 L19.1335385,28.6152 L18.8504615,28.704 Z M28.6506667,17.1576 L30.2449231,17.32 L30.2761026,17.0312 L28.6818462,16.868 L28.6506667,17.1576 Z M28.4028718,18.5776 L29.9733333,18.9008 L30.0348718,18.6176 L28.4668718,18.2936 L28.4028718,18.5776 Z M21.1577436,29.5128 L20.8886154,29.632 L20.2346667,28.2032 L20.5078974,28.084 L21.1577436,29.5128 Z M25.2184615,24.6728 L26.4082051,25.7176 L26.2104615,25.9344 L25.0166154,24.8872 L25.2184615,24.6728 Z M23.9876923,27.8832 L23.7489231,28.056 L22.8045128,26.7912 L23.0482051,26.62 L23.9876923,27.8832 Z M24.1862564,25.7008 L25.2553846,26.8624 L25.0363077,27.0592 L23.9622564,25.8976 L24.1862564,25.7008 Z M28.4028718,12.5696 L28.4668718,12.8544 L30.0348718,12.5304 L29.9733333,12.2464 L28.4028718,12.5696 Z M25.0182564,6.2592 L26.2121026,5.2144 L26.4098462,5.4304 L25.2201026,6.4744 L25.0182564,6.2592 Z M17.4170256,2.0848 L17.7140513,2.1472 L18.0455385,0.6168 L17.7542564,0.556 L17.4170256,2.0848 Z M28.0073846,11.1832 L28.1001026,11.4616 L29.6237949,10.9768 L29.5310769,10.7 L28.0073846,11.1832 Z M25.9610256,7.3672 L27.2574359,6.4504 L27.4338462,6.684 L26.1349744,7.6032 L25.9610256,7.3672 Z M23.9622564,5.2504 L25.0363077,4.0912 L25.2586667,4.2832 L24.1862564,5.4464 L23.9622564,5.2504 Z M22.8053333,4.356 L23.7464615,3.0936 L23.9909744,3.264 L23.0473846,4.5296 L22.8053333,4.356 Z M18.8504615,2.4424 L19.1335385,2.5352 L19.6291282,1.0448 L19.3460513,0.956 L18.8504615,2.4424 Z M20.2354872,2.944 L20.8869744,1.5168 L21.1610256,1.6336 L20.5095385,3.0648 L20.2354872,2.944 Z M27.4642051,9.8448 L28.9271795,9.208 L29.0486154,9.4744 L27.585641,10.1104 L27.4642051,9.8448 Z M12.8402051,30.7968 L13.1372308,30.828 L13.3070769,29.2728 L13.0075897,29.2416 L12.8402051,30.7968 Z M28.6506667,13.9912 L28.6810256,14.2816 L30.2761026,14.1168 L30.2424615,13.8288 L28.6506667,13.9912 Z M11.2205128,30.532 L11.5109744,30.5936 L11.8465641,29.0648 L11.553641,28.9992 L11.2205128,30.532 Z M9.63528205,30.1016 L9.91917949,30.192 L10.4147692,28.7048 L10.1308718,28.6152 L9.63528205,30.1016 Z M9.03138462,28.204 L8.3774359,29.6312 L8.10338462,29.5136 L8.75733333,28.084 L9.03138462,28.204 Z M6.46071795,26.7928 L5.51712821,28.0552 L5.27507692,27.8832 L6.21702564,26.6192 L6.46071795,26.7928 Z M5.30215385,25.8984 L4.22892308,27.0568 L4.00574359,26.8624 L5.07897436,25.7008 L5.30215385,25.8984 Z M4.24615385,24.8896 L3.05558974,25.9352 L2.85292308,25.7192 L4.04594872,24.6728 L4.24615385,24.8896 Z M3.30502564,23.78 L2.00697436,24.6984 L1.83220513,24.4648 L3.12861538,23.5432 L3.30502564,23.78 Z M28.0615385,19.924 L29.5860513,20.4072 L29.6795897,20.1296 L28.1534359,19.6472 L28.0615385,19.924 Z M14.6338462,3.4872 C14.3745641,3.4872 14.1669744,3.3408 14.1669744,3.16 L14.1669744,0.2136 C14.1669744,0.0328 14.3745641,-0.1136 14.6338462,-0.1136 C14.8906667,-0.1136 15.0998974,0.0328 15.0998974,0.2136 L15.0998974,3.16 C15.0998974,3.3408 14.8906667,3.4872 14.6338462,3.4872 Z M3.87446154,21.348 C4.01887179,21.556 4.01476923,21.8048 3.86461538,21.9048 L1.408,23.5336 C1.25702564,23.632 1.01825641,23.5448 0.873846154,23.3376 C0.728615385,23.1304 0.732717949,22.8808 0.883692308,22.7816 L3.33866667,21.1528 C3.48964103,21.0528 3.72841026,21.1408 3.87446154,21.348 Z M14.6338462,31.1048 C14.3745641,31.1048 14.1669744,30.9592 14.1669744,30.7792 L14.1669744,27.8496 C14.1669744,27.6696 14.3745641,27.524 14.6338462,27.524 C14.8906667,27.524 15.0998974,27.6696 15.0998974,27.8496 L15.0998974,30.7792 C15.0998974,30.9592 14.8906667,31.1048 14.6338462,31.1048 Z M26.8955897,15.6392 C26.8955897,15.3872 27.0457436,15.184 27.2328205,15.184 L30.2687179,15.184 C30.4541538,15.184 30.6051282,15.3872 30.6051282,15.6392 C30.6051282,15.8904 30.4541538,16.0944 30.2687179,16.0944 L27.2328205,16.0944 C27.0457436,16.0944 26.8955897,15.8904 26.8955897,15.6392 Z M25.7624615,21.8624 C25.8970256,21.648 26.1202051,21.5424 26.2596923,21.6256 L28.5415385,22.992 C28.6818462,23.076 28.6859487,23.3176 28.5505641,23.532 C28.416,23.7464 28.193641,23.8512 28.0533333,23.7672 L25.7714872,22.4008 C25.632,22.3176 25.6270769,22.0752 25.7624615,21.8624 Z M21.0034872,25.9536 C21.2356923,25.8448 21.4826667,25.8744 21.5556923,26.0192 L22.7265641,28.3896 C22.7987692,28.5352 22.6691282,28.7408 22.4369231,28.8512 C22.2047179,28.9592 21.9585641,28.9312 21.886359,28.7848 L20.7138462,26.4152 C20.641641,26.2696 20.7712821,26.064 21.0034872,25.9536 Z M25.3645128,9.4112 C25.246359,9.188 25.278359,8.9432 25.4334359,8.8656 L27.9770256,7.5952 C28.1337436,7.5176 28.3552821,7.6352 28.4717949,7.8584 C28.5899487,8.0816 28.5595897,8.3272 28.4028718,8.4048 L25.8601026,9.6752 C25.7025641,9.7528 25.4818462,9.6352 25.3645128,9.4112 Z M6.82092308,28.964 C6.5985641,28.8376 6.49435897,28.608 6.58707692,28.4512 L8.11405128,25.896 C8.20676923,25.7392 8.46358974,25.7144 8.68594872,25.8408 C8.90912821,25.968 9.01333333,26.1968 8.91979487,26.3536 L7.39364103,28.9088 C7.30092308,29.0656 7.04410256,29.0904 6.82092308,28.964 Z M20.5710769,5.0952 C20.3626667,4.9488 20.2797949,4.7128 20.3864615,4.568 L22.1275897,2.212 C22.2342564,2.0672 22.4894359,2.0688 22.6994872,2.216 C22.9078974,2.3624 22.9915897,2.5992 22.8849231,2.7432 L21.1437949,5.1 C21.0371282,5.244 20.7811282,5.2424 20.5710769,5.0952 Z" id="Fill-1"></path>
            <path d="M2.53043516,16.6060813 C3.18563516,16.6060813 3.64472088,16.2584242 3.64472088,15.6745385 L3.64472088,15.6656242 C3.64472088,15.1485956 3.30597802,14.912367 2.64632088,14.7519099 C2.04460659,14.6092813 1.90197802,14.5023099 1.90197802,14.2616242 L1.90197802,14.2527099 C1.90197802,14.0476813 2.08917802,13.882767 2.41009231,13.882767 C2.65523516,13.882767 2.88700659,13.9629956 3.12769231,14.1189956 C3.17226374,14.1457385 3.21683516,14.1591099 3.27032088,14.1591099 C3.41294945,14.1591099 3.52883516,14.0476813 3.52883516,13.9050527 C3.52883516,13.7980813 3.47089231,13.7223099 3.40849231,13.6866527 C3.12769231,13.4994527 2.81123516,13.3969385 2.41900659,13.3969385 C1.79946374,13.3969385 1.35374945,13.7668813 1.35374945,14.3017385 L1.35374945,14.3106527 C1.35374945,14.8856242 1.72814945,15.0817385 2.39226374,15.2421956 C2.97169231,15.3759099 3.09649231,15.4962527 3.09649231,15.7191099 L3.09649231,15.7280242 C3.09649231,15.9597956 2.88254945,16.1202527 2.54380659,16.1202527 C2.20506374,16.1202527 1.92872088,16.004367 1.67020659,15.7993385 C1.63454945,15.7725956 1.58552088,15.7503099 1.50974945,15.7503099 C1.36712088,15.7503099 1.25123516,15.8617385 1.25123516,16.004367 C1.25123516,16.0935099 1.29580659,16.1692813 1.35820659,16.2138527 C1.70586374,16.472367 2.10700659,16.6060813 2.53043516,16.6060813 L2.53043516,16.6060813 Z M5.77909231,16.6149956 C6.73737802,16.6149956 7.41486374,15.879567 7.41486374,15.0015099 L7.41486374,14.9925956 C7.41486374,14.1145385 6.74629231,13.3880242 5.78800659,13.3880242 C4.82972088,13.3880242 4.15223516,14.1234527 4.15223516,15.0015099 L4.15223516,15.0104242 C4.15223516,15.8884813 4.82080659,16.6149956 5.77909231,16.6149956 L5.77909231,16.6149956 Z M5.78800659,16.1068813 C5.16846374,16.1068813 4.72720659,15.6076813 4.72720659,15.0015099 L4.72720659,14.9925956 C4.72720659,14.3864242 5.15954945,13.8916813 5.77909231,13.8916813 C6.39863516,13.8916813 6.83989231,14.3953385 6.83989231,15.0015099 L6.83989231,15.0104242 C6.83989231,15.6165956 6.40754945,16.1068813 5.78800659,16.1068813 L5.78800659,16.1068813 Z M9.35757802,16.6105385 C10.1732352,16.6105385 10.699178,16.1425385 10.699178,15.2109956 L10.699178,13.6911099 C10.699178,13.539567 10.5788352,13.4192242 10.4272923,13.4192242 C10.2712923,13.4192242 10.1509495,13.539567 10.1509495,13.6911099 L10.1509495,15.2377385 C10.1509495,15.8127099 9.85232088,16.1024242 9.36649231,16.1024242 C8.87620659,16.1024242 8.57757802,15.7948813 8.57757802,15.2154527 L8.57757802,13.6911099 C8.57757802,13.539567 8.45723516,13.4192242 8.30569231,13.4192242 C8.14969231,13.4192242 8.02934945,13.539567 8.02934945,13.6911099 L8.02934945,15.2377385 C8.02934945,16.1425385 8.54637802,16.6105385 9.35757802,16.6105385 L9.35757802,16.6105385 Z M12.5438352,16.6060813 C13.1990352,16.6060813 13.6581209,16.2584242 13.6581209,15.6745385 L13.6581209,15.6656242 C13.6581209,15.1485956 13.319378,14.912367 12.6597209,14.7519099 C12.0580066,14.6092813 11.915378,14.5023099 11.915378,14.2616242 L11.915378,14.2527099 C11.915378,14.0476813 12.102578,13.882767 12.4234923,13.882767 C12.6686352,13.882767 12.9004066,13.9629956 13.1410923,14.1189956 C13.1856637,14.1457385 13.2302352,14.1591099 13.2837209,14.1591099 C13.4263495,14.1591099 13.5422352,14.0476813 13.5422352,13.9050527 C13.5422352,13.7980813 13.4842923,13.7223099 13.4218923,13.6866527 C13.1410923,13.4994527 12.8246352,13.3969385 12.4324066,13.3969385 C11.8128637,13.3969385 11.3671495,13.7668813 11.3671495,14.3017385 L11.3671495,14.3106527 C11.3671495,14.8856242 11.7415495,15.0817385 12.4056637,15.2421956 C12.9850923,15.3759099 13.1098923,15.4962527 13.1098923,15.7191099 L13.1098923,15.7280242 C13.1098923,15.9597956 12.8959495,16.1202527 12.5572066,16.1202527 C12.2184637,16.1202527 11.9421209,16.004367 11.6836066,15.7993385 C11.6479495,15.7725956 11.5989209,15.7503099 11.5231495,15.7503099 C11.3805209,15.7503099 11.2646352,15.8617385 11.2646352,16.004367 C11.2646352,16.0935099 11.3092066,16.1692813 11.3716066,16.2138527 C11.7192637,16.472367 12.1204066,16.6060813 12.5438352,16.6060813 L12.5438352,16.6060813 Z M16.6432066,16.6060813 C17.3251495,16.6060813 17.8332637,16.2584242 17.8332637,15.7012813 L17.8332637,15.692367 C17.8332637,15.3224242 17.6148637,15.099567 17.2716637,14.943567 C17.5346352,14.8053956 17.7262923,14.5959099 17.7262923,14.2482527 L17.7262923,14.2393385 C17.7262923,13.757967 17.2672066,13.3969385 16.6432066,13.3969385 C16.0192066,13.3969385 15.5601209,13.7624242 15.5601209,14.2393385 L15.5601209,14.2482527 C15.5601209,14.5959099 15.751778,14.8053956 16.0147495,14.943567 C15.6626352,15.0906527 15.4531495,15.3268813 15.4531495,15.7012813 L15.4531495,15.7101956 C15.4531495,16.2495099 15.9612637,16.6060813 16.6432066,16.6060813 L16.6432066,16.6060813 Z M16.6432066,14.7608242 C16.3222923,14.7608242 16.0860637,14.569167 16.0860637,14.2972813 L16.0860637,14.288367 C16.0860637,14.0521385 16.3089209,13.8560242 16.6432066,13.8560242 C16.9774923,13.8560242 17.2003495,14.0521385 17.2003495,14.2928242 L17.2003495,14.3017385 C17.2003495,14.569167 16.9641209,14.7608242 16.6432066,14.7608242 L16.6432066,14.7608242 Z M16.6432066,16.1469956 C16.2331495,16.1469956 15.9924637,15.9330527 15.9924637,15.6789956 L15.9924637,15.6700813 C15.9924637,15.3848242 16.2732637,15.1976242 16.6432066,15.1976242 C17.0131495,15.1976242 17.2984066,15.3848242 17.2984066,15.6700813 L17.2984066,15.6789956 C17.2984066,15.9375099 17.0532637,16.1469956 16.6432066,16.1469956 L16.6432066,16.1469956 Z M18.4477495,16.3119099 C18.4477495,16.4634527 18.5680923,16.5837956 18.7240923,16.5837956 C18.8756352,16.5837956 18.995978,16.4634527 18.995978,16.3119099 L18.995978,15.2466527 L20.4846637,15.2466527 L20.4846637,16.3119099 C20.4846637,16.4634527 20.6050066,16.5837956 20.7565495,16.5837956 C20.9125495,16.5837956 21.0328923,16.4634527 21.0328923,16.3119099 L21.0328923,13.6911099 C21.0328923,13.539567 20.9125495,13.4192242 20.7565495,13.4192242 C20.6050066,13.4192242 20.4846637,13.539567 20.4846637,13.6911099 L20.4846637,14.7385385 L18.995978,14.7385385 L18.995978,13.6911099 C18.995978,13.539567 18.8756352,13.4192242 18.7240923,13.4192242 C18.5680923,13.4192242 18.4477495,13.539567 18.4477495,13.6911099 L18.4477495,16.3119099 Z M0.274538494,11.9417929 C0.274538494,12.0442064 0.355866814,12.1255347 0.461292414,12.1255347 C0.563705854,12.1255347 0.645034174,12.0442064 0.645034174,11.9417929 L0.645034174,10.1706429 C0.645034174,10.0682294 0.563705854,9.9869011 0.461292414,9.9869011 C0.355866814,9.9869011 0.274538494,10.0682294 0.274538494,10.1706429 L0.274538494,11.9417929 Z M1.20850809,11.9448051 C1.20850809,12.0442064 1.28983641,12.1255347 1.39224985,12.1255347 C1.49165113,12.1255347 1.57297945,12.0442064 1.57297945,11.9448051 L1.57297945,10.6074061 L2.65735705,12.0110726 C2.70856377,12.0773401 2.76278265,12.1225225 2.85013529,12.1225225 L2.86519609,12.1225225 C2.96760953,12.1225225 3.04592569,12.0411942 3.04592569,11.9387808 L3.04592569,10.1676307 C3.04592569,10.0682294 2.96459737,9.9869011 2.86218393,9.9869011 C2.76278265,9.9869011 2.68145433,10.0682294 2.68145433,10.1676307 L2.68145433,11.4628595 L1.62719833,10.098351 C1.57599161,10.0350957 1.52478489,9.98991326 1.43442009,9.98991326 L1.39526201,9.98991326 C1.28983641,9.98991326 1.20850809,10.0742537 1.20850809,10.1766672 L1.20850809,11.9448051 Z M4.10640601,11.9417929 C4.10640601,12.0442064 4.19074649,12.1255347 4.29315993,12.1255347 C4.39557337,12.1255347 4.47991385,12.0442064 4.47991385,11.9417929 L4.47991385,10.3453481 L4.99499321,10.3453481 C5.08837017,10.3453481 5.16367417,10.267032 5.16367417,10.173655 C5.16367417,10.0802781 5.08837017,10.0019619 4.99499321,10.0019619 L3.59433881,10.0019619 C3.49794969,10.0019619 3.42264569,10.0802781 3.42264569,10.173655 C3.42264569,10.267032 3.49794969,10.3453481 3.59433881,10.3453481 L4.10640601,10.3453481 L4.10640601,11.9417929 Z M5.72714809,12.1104739 L6.96815801,12.1104739 C7.05852281,12.1104739 7.13382681,12.0381821 7.13382681,11.9448051 C7.13382681,11.8544403 7.05852281,11.7791363 6.96815801,11.7791363 L5.91088985,11.7791363 L5.91088985,11.2128502 L6.81755001,11.2128502 C6.90791481,11.2128502 6.98321881,11.1405584 6.98321881,11.0501936 C6.98321881,10.9568166 6.90791481,10.8815126 6.81755001,10.8815126 L5.91088985,10.8815126 L5.91088985,10.3332995 L6.95309721,10.3332995 C7.04346201,10.3332995 7.11876601,10.2610077 7.11876601,10.1676307 C7.11876601,10.0772659 7.04346201,10.0019619 6.95309721,10.0019619 L5.72714809,10.0019619 C5.62172249,10.0019619 5.54039417,10.0832902 5.54039417,10.1887158 L5.54039417,11.92372 C5.54039417,12.0291456 5.62172249,12.1104739 5.72714809,12.1104739 L5.72714809,12.1104739 Z M7.55874137,11.9417929 C7.55874137,12.0442064 7.64006969,12.1255347 7.74549529,12.1255347 C7.84790873,12.1255347 7.92923705,12.0442064 7.92923705,11.9417929 L7.92923705,11.3755069 L8.39612185,11.3755069 L8.90818905,12.0291456 C8.95035929,12.0863766 9.00457817,12.1255347 9.08891865,12.1255347 C9.17928345,12.1255347 9.26663609,12.056255 9.26663609,11.9538416 C9.26663609,11.8966105 9.24253881,11.8574525 9.20639289,11.8122701 L8.80276345,11.303215 C9.08590649,11.2158624 9.28169689,11.0110355 9.28169689,10.6736736 L9.28169689,10.6676493 C9.28169689,10.4839075 9.21844153,10.3272752 9.10699161,10.2128131 C8.97144441,10.0802781 8.76360537,10.0019619 8.49853529,10.0019619 L7.74549529,10.0019619 C7.64006969,10.0019619 7.55874137,10.0832902 7.55874137,10.1887158 L7.55874137,11.9417929 Z M7.92923705,11.0471814 L7.92923705,10.3393238 L8.46841369,10.3393238 C8.74252025,10.3393238 8.90517689,10.4628224 8.90517689,10.6887344 L8.90517689,10.6947587 C8.90517689,10.9086221 8.73649593,11.0471814 8.47142585,11.0471814 L7.92923705,11.0471814 Z M10.2868288,12.1405955 L10.3079139,12.1405955 C10.4133395,12.1405955 10.4826192,12.0833645 10.5217773,11.9899875 L11.2627686,10.2429347 C11.2718051,10.2218496 11.2808416,10.191728 11.2808416,10.1646185 C11.2808416,10.0652173 11.1995133,9.9869011 11.0970998,9.9869011 C11.0097472,9.9869011 10.9434797,10.0441321 10.9193824,10.1073875 L10.3018896,11.6405769 L9.69343325,10.1194361 C9.66331165,10.04112 9.60005629,9.9869011 9.50366717,9.9869011 C9.39824157,9.9869011 9.31691325,10.0682294 9.31691325,10.1676307 C9.31691325,10.2007645 9.32594973,10.2278739 9.33799837,10.2549833 L10.0759776,11.9899875 C10.1151357,12.0833645 10.1844153,12.1405955 10.2868288,12.1405955 L10.2868288,12.1405955 Z M11.8593763,12.1104739 L13.1003862,12.1104739 C13.190751,12.1104739 13.266055,12.0381821 13.266055,11.9448051 C13.266055,11.8544403 13.190751,11.7791363 13.1003862,11.7791363 L12.0431181,11.7791363 L12.0431181,11.2128502 L12.9497782,11.2128502 C13.040143,11.2128502 13.115447,11.1405584 13.115447,11.0501936 C13.115447,10.9568166 13.040143,10.8815126 12.9497782,10.8815126 L12.0431181,10.8815126 L12.0431181,10.3332995 L13.0853254,10.3332995 C13.1756902,10.3332995 13.2509942,10.2610077 13.2509942,10.1676307 C13.2509942,10.0772659 13.1756902,10.0019619 13.0853254,10.0019619 L11.8593763,10.0019619 C11.7539507,10.0019619 11.6726224,10.0832902 11.6726224,10.1887158 L11.6726224,11.92372 C11.6726224,12.0291456 11.7539507,12.1104739 11.8593763,12.1104739 L11.8593763,12.1104739 Z M13.6909696,11.9448051 C13.6909696,12.0442064 13.7722979,12.1255347 13.8747113,12.1255347 C13.9741126,12.1255347 14.0554409,12.0442064 14.0554409,11.9448051 L14.0554409,10.6074061 L15.1398185,12.0110726 C15.1910253,12.0773401 15.2452441,12.1225225 15.3325968,12.1225225 L15.3476576,12.1225225 C15.450071,12.1225225 15.5283872,12.0411942 15.5283872,11.9387808 L15.5283872,10.1676307 C15.5283872,10.0682294 15.4470589,9.9869011 15.3446454,9.9869011 C15.2452441,9.9869011 15.1639158,10.0682294 15.1639158,10.1676307 L15.1639158,11.4628595 L14.1096598,10.098351 C14.0584531,10.0350957 14.0072464,9.98991326 13.9168816,9.98991326 L13.8777235,9.98991326 C13.7722979,9.98991326 13.6909696,10.0742537 13.6909696,10.1766672 L13.6909696,11.9448051 Z M16.5888675,11.9417929 C16.5888675,12.0442064 16.673208,12.1255347 16.7756214,12.1255347 C16.8780349,12.1255347 16.9623753,12.0442064 16.9623753,11.9417929 L16.9623753,10.3453481 L17.4774547,10.3453481 C17.5708317,10.3453481 17.6461357,10.267032 17.6461357,10.173655 C17.6461357,10.0802781 17.5708317,10.0019619 17.4774547,10.0019619 L16.0768003,10.0019619 C15.9804112,10.0019619 15.9051072,10.0802781 15.9051072,10.173655 C15.9051072,10.267032 15.9804112,10.3453481 16.0768003,10.3453481 L16.5888675,10.3453481 L16.5888675,11.9417929 Z M18.0439408,11.9417929 C18.0439408,12.0442064 18.1252691,12.1255347 18.2306947,12.1255347 C18.3331081,12.1255347 18.4144365,12.0442064 18.4144365,11.9417929 L18.4144365,10.1706429 C18.4144365,10.0682294 18.3331081,9.9869011 18.2306947,9.9869011 C18.1252691,9.9869011 18.0439408,10.0682294 18.0439408,10.1706429 L18.0439408,11.9417929 Z M19.9839718,12.1466198 C20.6315862,12.1466198 21.0894345,11.6496134 21.0894345,11.0562179 L21.0894345,11.0501936 C21.0894345,10.4567981 20.6376105,9.96581598 19.9899961,9.96581598 C19.3423817,9.96581598 18.8845334,10.4628224 18.8845334,11.0562179 L18.8845334,11.0622422 C18.8845334,11.6556377 19.3363574,12.1466198 19.9839718,12.1466198 L19.9839718,12.1466198 Z M19.9899961,11.8032336 C19.5713059,11.8032336 19.2731021,11.4658717 19.2731021,11.0562179 L19.2731021,11.0501936 C19.2731021,10.6405398 19.5652816,10.3061901 19.9839718,10.3061901 C20.4026621,10.3061901 20.7008659,10.6465641 20.7008659,11.0562179 L20.7008659,11.0622422 C20.7008659,11.471896 20.4086864,11.8032336 19.9899961,11.8032336 L19.9899961,11.8032336 Z M21.5384464,11.9448051 C21.5384464,12.0442064 21.6197747,12.1255347 21.7221881,12.1255347 C21.8215894,12.1255347 21.9029177,12.0442064 21.9029177,11.9448051 L21.9029177,10.6074061 L22.9872953,12.0110726 C23.0385021,12.0773401 23.0927209,12.1225225 23.1800736,12.1225225 L23.1951344,12.1225225 C23.2975478,12.1225225 23.375864,12.0411942 23.375864,11.9387808 L23.375864,10.1676307 C23.375864,10.0682294 23.2945357,9.9869011 23.1921222,9.9869011 C23.0927209,9.9869011 23.0113926,10.0682294 23.0113926,10.1676307 L23.0113926,11.4628595 L21.9571366,10.098351 C21.9059299,10.0350957 21.8547232,9.98991326 21.7643584,9.98991326 L21.7252003,9.98991326 C21.6197747,9.98991326 21.5384464,10.0742537 21.5384464,10.1766672 L21.5384464,11.9448051 Z M6.83247888,20.7200516 C7.17598848,20.7200516 7.45079616,20.6022769 7.64708736,20.4714161 C7.74196144,20.4125287 7.78776272,20.3307407 7.78776272,20.2162375 L7.78776272,19.6044633 C7.78776272,19.4899601 7.69943168,19.4016291 7.58492848,19.4016291 L6.94698208,19.4016291 C6.84883648,19.4016291 6.76704848,19.4801455 6.76704848,19.5782911 C6.76704848,19.6764367 6.84883648,19.7516817 6.94698208,19.7516817 L7.39845184,19.7516817 L7.39845184,20.1802508 C7.25777648,20.2849395 7.06148528,20.3536414 6.84556496,20.3536414 C6.3777376,20.3536414 6.0669432,20.0068603 6.0669432,19.5357614 L6.0669432,19.5292183 C6.0669432,19.0908347 6.38755216,18.7211529 6.80957824,18.7211529 C7.05821376,18.7211529 7.21851824,18.7931263 7.36573664,18.9010865 C7.39845184,18.9239871 7.43771008,18.9468878 7.4900544,18.9468878 C7.60128608,18.9468878 7.68961712,18.8552852 7.68961712,18.7473251 C7.68961712,18.6688086 7.64708736,18.6131927 7.60782912,18.5837491 C7.39845184,18.4332591 7.16944544,18.3514711 6.82593584,18.3514711 C6.13564512,18.3514711 5.64491712,18.8945435 5.64491712,19.5357614 L5.64491712,19.5423044 C5.64491712,20.2096945 6.116016,20.7200516 6.83247888,20.7200516 L6.83247888,20.7200516 Z M8.15407296,20.5106743 C8.15407296,20.615363 8.23586096,20.697151 8.3405496,20.697151 C8.42560912,20.697151 8.49431104,20.6513497 8.52702624,20.5695617 L8.72004592,20.1279065 L9.83236272,20.1279065 L10.0188394,20.5564756 C10.0548261,20.6415351 10.1202565,20.697151 10.2151306,20.697151 C10.3230907,20.697151 10.4048787,20.6120915 10.4048787,20.5041313 C10.4048787,20.4779591 10.3983357,20.4485155 10.3819781,20.4190718 L9.53138288,18.5215902 C9.4855816,18.4201731 9.40706512,18.3580142 9.29256192,18.3580142 L9.2729328,18.3580142 C9.1584296,18.3580142 9.0766416,18.4201731 9.03084032,18.5215902 L8.18024512,20.4190718 C8.16388752,20.451787 8.15407296,20.4812307 8.15407296,20.5106743 L8.15407296,20.5106743 Z M8.87380736,19.7713108 L9.27620432,18.8454707 L9.67860128,19.7713108 L8.87380736,19.7713108 Z M10.8398909,20.4975883 C10.8398909,20.6088199 10.9282219,20.697151 11.0427251,20.697151 C11.1539568,20.697151 11.2422878,20.6088199 11.2422878,20.4975883 L11.2422878,19.8825425 L11.7493734,19.8825425 L12.3055318,20.5924623 C12.3513331,20.6546212 12.4102205,20.697151 12.501823,20.697151 C12.5999686,20.697151 12.6948427,20.621906 12.6948427,20.5106743 C12.6948427,20.4485155 12.6686706,20.4059857 12.6294123,20.3569129 L12.1910286,19.804026 C12.4985515,19.7091519 12.7112003,19.4866886 12.7112003,19.1202783 L12.7112003,19.1137353 C12.7112003,18.9141726 12.6424984,18.7440535 12.5214522,18.6197358 C12.3742338,18.4757889 12.1484989,18.3907294 11.8606051,18.3907294 L11.0427251,18.3907294 C10.9282219,18.3907294 10.8398909,18.4790604 10.8398909,18.5935636 L10.8398909,20.4975883 Z M11.2422878,19.5259468 L11.2422878,18.7571396 L11.8278899,18.7571396 C12.1255982,18.7571396 12.3022603,18.8912719 12.3022603,19.1366359 L12.3022603,19.143179 C12.3022603,19.3754569 12.1190552,19.5259468 11.8311614,19.5259468 L11.2422878,19.5259468 Z M13.0480669,20.5106743 C13.0480669,20.615363 13.1298549,20.697151 13.2345435,20.697151 C13.319603,20.697151 13.388305,20.6513497 13.4210202,20.5695617 L13.6140398,20.1279065 L14.7263566,20.1279065 L14.9128333,20.5564756 C14.94882,20.6415351 15.0142504,20.697151 15.1091245,20.697151 C15.2170846,20.697151 15.2988726,20.6120915 15.2988726,20.5041313 C15.2988726,20.4779591 15.2923296,20.4485155 15.275972,20.4190718 L14.4253768,18.5215902 C14.3795755,18.4201731 14.301059,18.3580142 14.1865558,18.3580142 L14.1669267,18.3580142 C14.0524235,18.3580142 13.9706355,18.4201731 13.9248342,18.5215902 L13.074239,20.4190718 C13.0578814,20.451787 13.0480669,20.4812307 13.0480669,20.5106743 L13.0480669,20.5106743 Z M13.7678013,19.7713108 L14.1701982,18.8454707 L14.5725952,19.7713108 L13.7678013,19.7713108 Z M15.7338848,20.5008598 C15.7338848,20.6088199 15.8222158,20.697151 15.9334475,20.697151 C16.0414077,20.697151 16.1297387,20.6088199 16.1297387,20.5008598 L16.1297387,19.0483049 L17.3074859,20.5728332 C17.3631018,20.6448067 17.4219891,20.6938795 17.5168632,20.6938795 L17.5332208,20.6938795 C17.6444525,20.6938795 17.729512,20.6055484 17.729512,20.4943167 L17.729512,18.570663 C17.729512,18.4627028 17.641181,18.3743718 17.5299493,18.3743718 C17.4219891,18.3743718 17.3336581,18.4627028 17.3336581,18.570663 L17.3336581,19.9774166 L16.1886261,18.495418 C16.1330102,18.4267161 16.0773944,18.3776433 15.9792488,18.3776433 L15.936719,18.3776433 C15.8222158,18.3776433 15.7338848,18.4692459 15.7338848,18.5804775 L15.7338848,20.5008598 Z M18.880987,20.4975883 C18.880987,20.6088199 18.9725896,20.697151 19.0838213,20.697151 C19.195053,20.697151 19.2866555,20.6088199 19.2866555,20.4975883 L19.2866555,18.7636827 L19.8460854,18.7636827 C19.9475026,18.7636827 20.0292906,18.6786231 20.0292906,18.577206 C20.0292906,18.4757889 19.9475026,18.3907294 19.8460854,18.3907294 L18.3248286,18.3907294 C18.22014,18.3907294 18.138352,18.4757889 18.138352,18.577206 C18.138352,18.6786231 18.22014,18.7636827 18.3248286,18.7636827 L18.880987,18.7636827 L18.880987,20.4975883 Z M20.4610312,20.4975883 C20.4610312,20.6088199 20.5493622,20.697151 20.6638654,20.697151 C20.7750971,20.697151 20.8634282,20.6088199 20.8634282,20.4975883 L20.8634282,18.5739345 C20.8634282,18.4627028 20.7750971,18.3743718 20.6638654,18.3743718 C20.5493622,18.3743718 20.4610312,18.4627028 20.4610312,18.5739345 L20.4610312,20.4975883 Z M21.934342,20.6807934 L23.2822083,20.6807934 C23.3803539,20.6807934 23.4621419,20.6022769 23.4621419,20.5008598 C23.4621419,20.4027142 23.3803539,20.3209262 23.2822083,20.3209262 L22.1339047,20.3209262 L22.1339047,19.7058804 L23.1186323,19.7058804 C23.2167779,19.7058804 23.2985659,19.6273639 23.2985659,19.5292183 C23.2985659,19.4278012 23.2167779,19.3460132 23.1186323,19.3460132 L22.1339047,19.3460132 L22.1339047,18.7505966 L23.2658507,18.7505966 C23.3639963,18.7505966 23.4457843,18.6720801 23.4457843,18.570663 C23.4457843,18.4725174 23.3639963,18.3907294 23.2658507,18.3907294 L21.934342,18.3907294 C21.8198388,18.3907294 21.7315078,18.4790604 21.7315078,18.5935636 L21.7315078,20.4779591 C21.7315078,20.5924623 21.8198388,20.6807934 21.934342,20.6807934 L21.934342,20.6807934 Z" id="SOUS-8H"></path>
        </g>
    </g>
</svg>