<svg width="31" height="32" viewBox="0 0 31 32" xmlns="http://www.w3.org/2000/svg"><title>icon-home-support@1x</title><g id="Page-1" fill-rule="evenodd"><g id="icon-home-support"><path d="M7.485 15.476l5.372 4.742c-.068-.573-4.737-4.708-5.372-4.742" id="Fill-1"/><path d="M9.233 14.46c-.284-.252-.532-.32-.812.003-.267.31-.145.54.117.766.492.427.98.862 1.47 1.295 1.018.898 2.03 1.803 3.064 2.684.135.115.406.176.575.127.16-.046.263-.273.42-.456-.147-.183-.25-.355-.394-.483-1.475-1.314-2.96-2.62-4.437-3.936" id="Fill-2"/><path d="M10.783 25.435c-.546.04-1.143.658-1.16 1.203-.017.403.23.653.645.655.578.006 1.233-.66 1.218-1.24-.01-.356-.34-.645-.703-.618" id="Fill-3"/><path d="M23.728 18.002c-.917 1.067-2.05 1.33-3.367.948-.29-.082-.5-.044-.73.142-.478.393-.972.774-1.47 1.14-.107.082-.277.155-.393.13-.93-.2-1.3-1.354-.672-2.06.08-.086.158-.173.243-.253.584-.52.857-1.038.604-1.91-.316-1.103.126-2.106 1.08-2.818.875-.653 1.84-.718 2.845-.423.04.06.08.12.116.18-.43.392-.88.77-1.297 1.178-.564.558-.51 1.25.13 1.893.692.7 1.397.784 1.985.21.43-.416.825-.87 1.26-1.33.516.92.234 2.31-.332 2.972M22.86 28.17c-.675-.393-1.337-.755-1.964-1.166-.172-.11-.29-.36-.353-.572-.15-.516-.437-.905-.85-1.258-1.52-1.297-3.012-2.624-4.512-3.945-.193-.17-.348-.178-.632-.157-.458.038-1.058-.082-1.397-.373-2.003-1.71-3.953-3.48-5.902-5.256-.145-.133-.24-.47-.175-.65.282-.783.853-1.344 1.58-1.75.315-.176.54.004.763.198 1.662 1.44 3.327 2.88 4.988 4.32.528.46 1.145.847 1.33 1.587.043.16.154.364.096.478-.223.445.09.634.35.866 1.42 1.28 2.826 2.58 4.272 3.834.338.294.783.523 1.216.63.493.118.84.317 1.1.75.29.487.648.936 1.01 1.448l-.918 1.014m-7.687-4.798c-1.003 1.21-1.99 2.437-3.062 3.585-.454.49-1.053.895-1.66 1.186-.87.418-1.81-.267-1.807-1.455.02-.438.374-.96.833-1.373 1.17-1.055 2.38-2.066 3.578-3.092.072-.062.178-.144.258-.134.71.086 1.468.09 1.887.808.07.12.057.37-.027.474m14.852-9.9C28.745 12.206 17.155.717 17.155.717c-.404-.4-.934-.6-1.464-.6-.527 0-1.055.2-1.46.6 0 0-11.592 11.49-12.873 12.755-1.147 1.14-.772 2.897.754 2.897h1.674v13.457c0 .922.754 1.67 1.684 1.67h20.448c.93 0 1.685-.748 1.685-1.67V16.37h1.67c1.527 0 1.903-1.76.755-2.898" id="Fill-4"/><path d="M14.796 18.2l-5.44-4.816c.084.608 4.785 4.768 5.44 4.815" id="Fill-5"/></g></g></svg>