<?xml version="1.0" encoding="utf-8"?>
<!-- Generator: Adobe Illustrator 16.0.0, SVG Export Plug-In . SVG Version: 6.00 Build 0)  -->
<!DOCTYPE svg PUBLIC "-//W3C//DTD SVG 1.1//EN" "http://www.w3.org/Graphics/SVG/1.1/DTD/svg11.dtd">
<svg version="1.1" id="Layer_1" xmlns="http://www.w3.org/2000/svg" xmlns:xlink="http://www.w3.org/1999/xlink" x="0px" y="0px"
	 width="40.312px" height="12.312px" viewBox="0.312 0.375 40.312 12.312" enable-background="new 0.312 0.375 40.312 12.312"
	 xml:space="preserve">
<g>
	<g>
		<g>
			<g>
				<path d="M28.206,12.236c1.973,0,2.941-1.703,2.941-1.703v1.58h0.928v-3.84c-0.004-2.176-1.743-3.946-3.876-3.946
					c-2.109,0.004-3.882,1.881-3.876,4.097C24.326,10.562,25.979,12.236,28.206,12.236z M28.204,11.299
					c-1.578,0-2.858-1.352-2.859-3.011c-0.004-1.634,1.318-3.019,2.848-3.022h0.006c1.571,0,2.851,1.35,2.854,3.009
					C31.055,9.939,29.777,11.295,28.204,11.299z"/>
			</g>
			<g>
				<path d="M36.215,2.253v6.935c-0.002,1,0.223,1.801,0.726,2.315c0.721,0.735,1.837,0.922,3.449,0.538l-0.198-0.863
					c-2.002,0.527-2.973-0.115-2.969-2.257V5.26h2.792V4.438h-2.792V2.253H36.215L36.215,2.253z"/>
			</g>
			<g>
				<path d="M21.722,12.117h0.982V5.26h1.912V4.441h-1.922l-0.001-0.294c-0.003-1.871,0.548-2.819,2.54-2.264l0.232-0.817
					c-0.444-0.11-0.812-0.167-1.19-0.167c-1.543,0-2.539,1.088-2.539,3.246V4.44h-0.971v0.82h0.958L21.722,12.117L21.722,12.117
					L21.722,12.117z"/>
			</g>
			<g>
				<path d="M15.386,12.117h0.998V7.41c0-1.555,0.482-2.184,1.962-2.184c0.397,0,0.853,0.063,1.363,0.195l0.228-0.904
					c-0.608-0.142-1.073-0.19-1.584-0.19c-2.185,0-2.968,1.1-2.968,2.956v4.834H15.386L15.386,12.117z"/>
			</g>
			<g>
				<rect x="33.481" y="4.444" width="0.999" height="7.669"/>
				<path d="M34.671,1.758c0-0.399-0.324-0.724-0.724-0.724c-0.399,0-0.724,0.325-0.724,0.724c0,0.4,0.324,0.724,0.724,0.724
					C34.347,2.481,34.671,2.158,34.671,1.758z"/>
			</g>
			<path d="M10.688,4.337c-2.138,0-3.871,1.768-3.871,3.95c0,2.182,1.732,3.949,3.871,3.949s3.872-1.768,3.872-3.949
				C14.56,6.105,12.826,4.337,10.688,4.337z M10.688,11.363c-1.634,0-2.958-1.377-2.958-3.076c0-1.7,1.324-3.077,2.958-3.077
				c1.633,0,2.957,1.377,2.957,3.077C13.645,9.986,12.321,11.363,10.688,11.363z"/>
			<path d="M1.798,12.117v-5.39h4.544v-0.88H1.8c0,0,0-1.741,0-2.863c0-0.939,0.216-1.291,1.125-1.291c0.715,0,3.913,0,3.913,0
				v-0.93c0,0-2.926,0-3.94,0c-1.557,0-2.122,0.685-2.122,2.141c0,1.136,0,1.685,0,9.213H1.798z"/>
		</g>
	</g>
</g>
</svg>
