<?xml version="1.0" encoding="iso-8859-1"?>
<!-- Generator: Adobe Illustrator 17.1.0, SVG Export Plug-In . SVG Version: 6.00 Build 0)  -->
<!DOCTYPE svg PUBLIC "-//W3C//DTD SVG 1.1//EN" "http://www.w3.org/Graphics/SVG/1.1/DTD/svg11.dtd">
<svg version="1.1" id="Capa_1" xmlns="http://www.w3.org/2000/svg" xmlns:xlink="http://www.w3.org/1999/xlink" x="0px" y="0px"
	 viewBox="0 0 64 64" style="enable-background:new 0 0 64 64;" xml:space="preserve">
<g>
	<path d="M39.318,4.591h-15.66c-2.641,0-6.121,1.513-7.924,3.443l-2.16,2.314c-1.791,1.917-3.193,5.476-3.193,8.102v31.944
		c0,2.831,2.303,5.135,5.135,5.135h23.803c2.83,0,5.135-2.304,5.135-5.135V9.726C44.453,6.894,42.148,4.591,39.318,4.591z
		 M42.953,50.395c0,2.004-1.631,3.635-3.635,3.635H15.516c-2.004,0-3.635-1.631-3.635-3.635V18.45c0-2.256,1.252-5.432,2.789-7.078
		l2.16-2.314c1.527-1.636,4.592-2.967,6.828-2.967h15.66c2.004,0,3.635,1.631,3.635,3.635V50.395z"/>
	<path d="M37.73,31.866H16.521c-1.416,0-2.568,1.151-2.568,2.567v14.373c0,1.416,1.152,2.567,2.568,2.567H37.73
		c1.416,0,2.566-1.151,2.566-2.567V34.434C40.297,33.018,39.146,31.866,37.73,31.866z M28.793,32.616h3.646c0.552,0,1,0.448,1,1
		v3.123c0,1.002-0.814,1.816-1.816,1.816h-2.83c-0.552,0-1-0.448-1-1v-3.939C27.793,33.064,28.241,32.616,28.793,32.616z
		 M22.539,32.616h3.504c0.552,0,1,0.448,1,1v3.939c0,0.552-0.448,1-1,1h-3.504c-0.552,0-1-0.448-1-1v-3.939
		C21.539,33.064,21.987,32.616,22.539,32.616z M16.521,32.616h3.268c0.552,0,1,0.448,1,1v3.939c0,0.552-0.448,1-1,1h-4.086
		c-0.552,0-1-0.448-1-1v-3.122C14.703,33.432,15.519,32.616,16.521,32.616z M20.008,50.624h-3.486c-1.002,0-1.818-0.815-1.818-1.817
		v-1.668c0-0.552,0.448-1,1-1h4.305c0.552,0,1,0.448,1,1v2.485C21.008,50.176,20.56,50.624,20.008,50.624z M26.262,50.624h-3.504
		c-0.552,0-1-0.448-1-1v-2.485c0-0.552,0.448-1,1-1h3.504c0.552,0,1,0.448,1,1v2.485C27.262,50.176,26.814,50.624,26.262,50.624z
		 M32.439,50.624h-3.428c-0.552,0-1-0.448-1-1v-2.485c0-0.552,0.448-1,1-1h3.428c0.552,0,1,0.448,1,1v2.485
		C33.439,50.176,32.992,50.624,32.439,50.624z M37.73,50.624h-2.541c-0.552,0-1-0.448-1-1v-2.485c0-0.552,0.448-1,1-1h3.357
		c0.552,0,1,0.448,1,1v1.668C39.547,49.809,38.732,50.624,37.73,50.624z M38.547,45.389H15.703c-0.552,0-1-0.448-1-1v-4.083
		c0-0.552,0.448-1,1-1h15.92c1.414,0,2.566-1.151,2.566-2.566v-3.123c0-0.552,0.448-1,1-1h2.541c1.002,0,1.816,0.815,1.816,1.817
		v9.955C39.547,44.941,39.099,45.389,38.547,45.389z"/>
</g>
</svg>
