<?xml version="1.0" encoding="UTF-8" standalone="no"?>
<svg width="31px" height="28px" viewBox="0 0 31 28" version="1.1" xmlns="http://www.w3.org/2000/svg" xmlns:xlink="http://www.w3.org/1999/xlink" xmlns:sketch="http://www.bohemiancoding.com/sketch/ns">
    <!-- Generator: Sketch 3.1.1 (8761) - http://www.bohemiancoding.com/sketch -->
    <title>icon_search-phone@1x</title>
    <desc></desc>
    <defs></defs>
    <g id="Page-1" stroke="none" stroke-width="1"  fill-rule="evenodd" >
        <g id="icon_search-phone"  transform="translate(0.000000, 1.000000)">
            <path d="M29.8602667,18.0255385 L19.8730667,13.5983077 C19.5754667,13.4421538 19.2522667,13.4109231 18.9450667,13.4723077 C19.7578667,10.71 18.544,7.66661538 15.9104,6.30430769 C15.6245333,6.15461538 15.3290667,6.03938462 15.0336,5.94138462 L15.0336,1.23092308 C14.9685333,0.830307692 14.7317333,0.0506153846 13.8357333,-0.133538462 L1.3856,-0.133538462 C1.184,-0.0926153846 0.9216,-0.00323076923 0.685866667,0.168 C0.594133333,0.234769231 0.514133333,0.327384615 0.4352,0.423230769 C0.398933333,0.467384615 0.354133333,0.495384615 0.322133333,0.547076923 C0.308266667,0.567538462 0.306133333,0.599846154 0.293333333,0.621384615 C0.218666667,0.757076923 0.1504,0.904615385 0.116266667,1.092 L0.116266667,25.0912308 C0.1984,25.5327692 0.4832,26.3243077 1.488,26.4255385 L13.5786667,26.4255385 C13.9477333,26.3824615 14.8746667,26.1703077 15.0336,25.116 L15.0336,17.5150769 C16.1536,17.1424615 17.1733333,16.4607692 17.9253333,15.4807692 C18.0544,15.7661538 18.2688,16.0127692 18.5653333,16.1678462 L27.952,21.7807692 C28.9813333,22.3116923 30.2389333,21.9024615 30.7669333,20.8664615 C31.2917333,19.8304615 30.8874667,18.5575385 29.8602667,18.0255385 L29.8602667,18.0255385 Z M9.02506667,0.779692308 C9.02506667,0.905692308 8.92586667,1.00584615 8.80213333,1.00584615 L6.33813333,1.00584615 C6.21333333,1.00584615 6.11306667,0.905692308 6.11306667,0.779692308 C6.11306667,0.765692308 6.12586667,0.757076923 6.12906667,0.743076923 L6.13013333,0.742 C6.13866667,0.697846154 6.14933333,0.652615385 6.1792,0.620307692 C6.2208,0.580461538 6.27626667,0.554615385 6.33813333,0.554615385 L8.80213333,0.554615385 C8.92586667,0.554615385 9.02506667,0.655846154 9.02506667,0.779692308 L9.02506667,0.779692308 Z M7.56906667,25.6803077 C6.9536,25.6803077 6.4544,25.1095385 6.432,24.4903077 C6.4544,23.8753846 6.9536,23.3821538 7.56906667,23.3821538 C8.19733333,23.3821538 8.70613333,23.8969231 8.70613333,24.5312308 C8.70613333,25.1655385 8.19733333,25.6803077 7.56906667,25.6803077 L7.56906667,25.6803077 Z M14.0544,21.5104615 L14.0544,21.5104615 C14.0544,22.736 12.8394667,22.736 12.8394667,22.736 L2.3648,22.736 C1.152,22.736 1.152,21.5104615 1.152,21.5104615 L1.152,2.81938462 C1.152,2.35953846 1.32266667,2.07307692 1.536,1.89430769 C1.8912,1.59492308 2.3648,1.59492308 2.3648,1.59492308 L12.8394667,1.59492308 C14.0544,1.59492308 14.0544,2.73969231 14.0544,2.73969231 L14.0544,5.70123077 C11.5541333,5.31892308 8.98453333,6.55092308 7.76533333,8.94815385 C6.24,11.9495385 7.41226667,15.6293846 10.3850667,17.1704615 C11.5626667,17.7789231 12.8394667,17.9404615 14.0544,17.752 L14.0544,21.5104615 L14.0544,21.5104615 Z M17.1861333,13.8287692 C16.0416,16.0795385 13.3066667,16.968 11.0784,15.8124615 C8.848,14.6558462 7.96906667,11.8967692 9.11253333,9.64492308 C10.2549333,7.39415385 12.9898667,6.50461538 15.2224,7.66123077 C17.4496,8.81784615 18.3306667,11.578 17.1861333,13.8287692 L17.1861333,13.8287692 Z" id="Fill-2" ></path>
        </g>
    </g>
</svg>