<?xml version="1.0" encoding="UTF-8" standalone="no"?>
<svg width="19px" height="33px" viewBox="0 0 19 33" version="1.1" xmlns="http://www.w3.org/2000/svg" xmlns:xlink="http://www.w3.org/1999/xlink" xmlns:sketch="http://www.bohemiancoding.com/sketch/ns">
    <!-- Generator: Sketch 3.1.1 (8761) - http://www.bohemiancoding.com/sketch -->
    <title>icon-avantages-mobile@1x</title>
    <desc></desc>
    <defs></defs>
    <g id="Page-1" stroke="none" stroke-width="1"  fill-rule="evenodd" >
        <g id="icon-avantages-mobile"  transform="translate(1.000000, 1.000000)">
            <path d="M8.6792,22.0286512 C8.76964,22.0465116 8.85324,22.056186 8.92088,22.056186 C8.987,22.056186 9.06832,22.0472558 9.15572,22.0293953 C9.06832,22.0465116 8.987,22.0554419 8.92088,22.0554419 C8.85324,22.0554419 8.76964,22.0465116 8.6792,22.0286512 M12.28312,20.2098605 C11.38252,20.8826047 10.46292,21.4385116 9.64972,21.8493023 C9.8876,21.7294884 10.13308,21.5977674 10.38616,21.4533953 C10.99872,21.1051163 11.64624,20.6861395 12.28312,20.2098605 M4.87692,19.6740465 L4.8792,19.6762791 C5.86188,20.4904186 6.91144,21.1691163 7.84852,21.6699535 C6.91068,21.1676279 5.86112,20.4896744 4.8792,19.6755349 L4.87692,19.6740465 M3.07496,17.9058605 C3.42076,18.3188837 3.80152,18.7133023 4.20128,19.083907 C3.80152,18.7125581 3.42152,18.3188837 3.07496,17.9058605 M1.80044,15.9665116 C1.90228,16.180093 2.01476,16.3906977 2.13788,16.5968372 C2.20476,16.7099535 2.27468,16.8215814 2.34764,16.9324651 C2.42516,17.0507907 2.50648,17.1683721 2.59008,17.2852093 C2.50648,17.1683721 2.42516,17.0507907 2.34764,16.9317209 C2.14168,16.6184186 1.95776,16.296186 1.80044,15.9665116 M1.78904,15.9426977 C1.79284,15.9493953 1.79588,15.956093 1.79892,15.9635349 C1.79588,15.956093 1.79284,15.9493953 1.78904,15.9426977 M1.7784,15.9188837 C1.77916,15.9211163 1.77992,15.9233488 1.78144,15.9255814 C1.77992,15.9233488 1.77916,15.9211163 1.7784,15.9188837 M1.672,15.68 C1.67352,15.6829767 1.67428,15.6852093 1.6758,15.688186 C1.67428,15.6852093 1.67352,15.6829767 1.672,15.68 M1.65832,15.6465116 C1.66136,15.6532093 1.66364,15.659907 1.66668,15.6673488 C1.66364,15.659907 1.66136,15.6532093 1.65832,15.6465116 M1.3604,14.7453023 C1.38852,14.8584186 1.41892,14.9693023 1.45236,15.0779535 C1.51088,15.2684651 1.57928,15.4567442 1.6568,15.6435349 C1.58004,15.4567442 1.51164,15.2684651 1.45312,15.0772093 C1.41968,14.9685581 1.38852,14.8576744 1.3604,14.7453023 M17.52332,13.0470698 L17.50204,14.859907 C17.46328,15.0303256 17.41692,15.2 17.36524,15.3674419 C17.32952,15.4857674 17.29,15.6048372 17.24668,15.7231628 C17.2178,15.8020465 17.1874,15.8809302 17.15548,15.959814 C17.05516,16.2068837 16.9404,16.4546977 16.80892,16.7010233 L16.75724,16.8007442 C16.65236,16.9942326 16.53684,17.1877209 16.41524,17.3804651 C16.40384,17.3968372 16.3932,17.4139535 16.3818,17.4310698 L16.35444,17.4727442 C16.34912,17.4816744 16.34304,17.4898605 16.33772,17.4987907 C16.3362,17.5010233 16.33468,17.5032558 16.33316,17.5054884 C16.32936,17.512186 16.3248,17.5181395 16.32024,17.5248372 C16.31872,17.527814 16.31644,17.5307907 16.31416,17.5337674 C16.31036,17.5397209 16.30656,17.5456744 16.30276,17.5516279 C16.30124,17.5538605 16.29896,17.5568372 16.29744,17.5590698 C16.29288,17.5657674 16.28908,17.5717209 16.28452,17.5784186 C16.283,17.5813953 16.28072,17.5836279 16.2792,17.5858605 C16.2678,17.6037209 16.25564,17.6208372 16.24424,17.6379535 C16.24272,17.640186 16.2412,17.6424186 16.23968,17.643907 C16.23512,17.6506047 16.23056,17.6573023 16.226,17.664 C16.22448,17.6669767 16.2222,17.6699535 16.22068,17.672186 C16.21612,17.6781395 16.21232,17.6833488 16.20852,17.6893023 C16.20624,17.6922791 16.20396,17.6952558 16.20168,17.6989767 C16.19788,17.7049302 16.19332,17.7108837 16.18952,17.7168372 C16.18724,17.719814 16.18572,17.7220465 16.1842,17.7250233 C16.17812,17.7332093 16.17204,17.7421395 16.16596,17.7503256 C16.1652,17.751814 16.16368,17.7533023 16.16292,17.7547907 C16.1576,17.7622326 16.15304,17.7689302 16.14772,17.7756279 C16.1462,17.7786047 16.14392,17.7815814 16.1424,17.783814 C16.13784,17.7897674 16.13328,17.7964651 16.12948,17.8024186 C16.1272,17.8046512 16.12492,17.8076279 16.1234,17.8106047 C16.11884,17.8173023 16.11428,17.8232558 16.10972,17.8299535 C16.1082,17.832186 16.10668,17.8336744 16.10516,17.835907 C16.09984,17.844093 16.09376,17.8515349 16.08844,17.8589767 C16.08768,17.8604651 16.08692,17.8612093 16.08616,17.8626977 C16.08008,17.8708837 16.074,17.8790698 16.06792,17.888 C16.06564,17.8909767 16.0626,17.8946977 16.06032,17.8976744 C16.05652,17.9028837 16.05348,17.9073488 16.04968,17.9125581 C16.04664,17.9162791 16.0436,17.9207442 16.04132,17.9244651 C16.03752,17.9296744 16.03372,17.9341395 16.02992,17.9393488 C16.02764,17.9430698 16.02536,17.9460465 16.02232,17.9497674 C16.01852,17.9549767 16.01396,17.9609302 16.01016,17.9661395 C16.00788,17.9691163 16.0056,17.972093 16.00408,17.9750698 C15.99116,17.992186 15.97824,18.0093023 15.96456,18.0271628 C15.9638,18.0286512 15.96304,18.0301395 15.96152,18.0308837 C15.9562,18.0383256 15.95088,18.0457674 15.9448,18.0532093 C15.94404,18.0554419 15.94252,18.0569302 15.941,18.0584186 C15.93568,18.0658605 15.9296,18.0740465 15.92428,18.0814884 C15.92276,18.0822326 15.922,18.0837209 15.92124,18.0844651 C15.62788,18.4706977 15.29956,18.8524651 14.93704,19.2267907 C14.84052,19.3272558 14.74172,19.4277209 14.63988,19.5266977 C14.47724,19.6859535 14.30852,19.8437209 14.13372,20 C14.12992,20.0029767 14.12612,20.0066977 14.12308,20.0096744 C14.11852,20.0133953 14.11472,20.0171163 14.11016,20.0208372 C13.99616,20.1220465 13.88064,20.2225116 13.76132,20.3229767 L13.7294,20.3497674 L13.63288,20.4301395 L13.61996,20.4413023 C13.585,20.4703256 13.5508,20.4986047 13.51584,20.5268837 C12.72468,21.172093 11.83928,21.7793488 10.94704,22.2906047 C10.63468,22.4699535 10.32004,22.6381395 10.0092,22.7914419 C9.6786,22.9573953 9.27124,23.0556279 8.92088,23.0556279 L8.9034,23.0556279 L8.90112,23.0556279 C8.72024,23.0541395 8.52416,23.0251163 8.33188,22.9767442 C8.32124,22.9737674 8.31136,22.9715349 8.30072,22.9685581 C8.13732,22.9231628 7.97696,22.8643721 7.83104,22.7914419 C6.74728,22.2548837 5.62704,21.5456744 4.63068,20.7702326 C4.49768,20.6667907 4.36696,20.5618605 4.23928,20.456186 L4.22332,20.4450233 L4.218,20.4413023 L4.21496,20.439814 L4.20812,20.4323721 L4.19596,20.4204651 C4.1306,20.3661395 4.06524,20.311814 4.0014,20.2574884 C3.72096,20.0178605 3.45496,19.7745116 3.20264,19.5289302 C3.20112,19.5266977 3.1996,19.5252093 3.19732,19.5237209 C3.19732,19.5229767 3.19656,19.5229767 3.19656,19.5222326 C3.03392,19.3629767 2.87736,19.2022326 2.72764,19.0407442 C2.2496,18.5287442 1.83464,18.004093 1.48732,17.4727442 C1.34976,17.2643721 1.22512,17.0582326 1.11036,16.8461395 C1.00548,16.6578605 0.90972,16.468093 0.82232,16.2783256 C0.70452,16.0193488 0.60192,15.7596279 0.5168,15.5006512 C0.51604,15.4984186 0.51528,15.4969302 0.51528,15.4946977 C0.513,15.488 0.50996,15.4805581 0.50768,15.4731163 C0.5054,15.464186 0.50236,15.4545116 0.49932,15.4455814 C0.49856,15.444093 0.49856,15.4426047 0.4978,15.4411163 C0.48944,15.4165581 0.48184,15.3912558 0.47424,15.3666977 C0.47348,15.3629767 0.47196,15.36 0.4712,15.3562791 L0.47196,13.879814 L0.4712,15.3555349 C0.47196,15.3592558 0.47348,15.3629767 0.47424,15.3666977 C0.69008,16.0699535 1.0298,16.7784186 1.48504,17.4727442 C2.1546,18.4915349 3.06508,19.4827907 4.19596,20.4204651 L4.218,20.4420465 L4.23852,20.456186 C5.3276,21.3536744 6.60212,22.1826977 7.83104,22.7914419 C8.16392,22.9581395 8.57204,23.0556279 8.92088,23.0556279 C9.272,23.0556279 9.67936,22.9581395 10.01072,22.7914419 C11.24648,22.1804651 12.52784,21.3462326 13.6192,20.4420465 L13.76056,20.3237209 C14.83748,19.4165581 15.70844,18.455814 16.35444,17.4727442 C16.80968,16.7806512 17.15168,16.0706977 17.36524,15.3674419 C17.41768,15.1992558 17.46328,15.0295814 17.5028,14.8584186 L17.52332,13.0470698 M17.46784,11.7499535 L17.4686,11.7499535 C17.4686,11.7499535 17.4686,11.7499535 17.46784,11.7499535 M0.5206,11.2885581 C0.50844,11.3213023 0.49704,11.3540465 0.48488,11.3867907 L0.5206,11.2885581 M17.15776,10.9015814 C17.1722,10.9328372 17.18664,10.964093 17.20032,10.9953488 L17.22844,11.060093 C17.30672,11.2424186 17.37284,11.4299535 17.43136,11.6226977 C17.44276,11.6606512 17.45416,11.6993488 17.4648,11.7380465 C17.4002,11.5051163 17.32116,11.2781395 17.22768,11.0586047 C17.20488,11.0057674 17.18208,10.9536744 17.15776,10.9015814 M1.11036,10.1462326 C0.91504,10.4342326 0.74784,10.7386047 0.6118,11.0586047 C0.58064,11.1315349 0.55176,11.2052093 0.52364,11.2796279 C0.55252,11.2059535 0.58064,11.1322791 0.61332,11.060093 L0.65664,10.9581395 C0.7828,10.6768372 0.93404,10.4074419 1.1058,10.1529302 L1.11036,10.1469767 L1.11036,10.1462326 M12.42752,8.79702326 C12.01484,8.79702326 11.59836,8.86474419 11.19176,9.00762791 C11.18948,9.00837209 11.1872,9.00911628 11.18492,9.00986047 C11.18036,9.01209302 11.17504,9.0135814 11.17048,9.01506977 C11.16364,9.01804651 11.1568,9.02027907 11.14996,9.02251163 C11.14844,9.02325581 11.14768,9.02325581 11.14692,9.024 C10.58452,9.22865116 10.04188,9.57618605 9.55092,10.0844651 C9.3632,10.2794419 9.18232,10.4982326 9.01056,10.7415814 L8.92088,10.8055814 L8.82968,10.7415814 C8.82208,10.7304186 8.81448,10.72 8.80764,10.7095814 L8.80688,10.7095814 C8.79244,10.6887442 8.77724,10.667907 8.7628,10.647814 L8.76204,10.6470698 C8.75444,10.6373953 8.7476,10.6269767 8.74,10.6173023 C8.74,10.6165581 8.73924,10.6165581 8.73924,10.615814 C8.7324,10.6061395 8.7248,10.5972093 8.71796,10.5882791 C8.7172,10.5867907 8.71644,10.5853023 8.71492,10.583814 C8.70884,10.5756279 8.70276,10.5674419 8.69668,10.5592558 C8.6944,10.5570233 8.69288,10.5547907 8.69136,10.5525581 C8.68604,10.5451163 8.67996,10.5376744 8.67464,10.5309767 C8.67236,10.5272558 8.66932,10.5235349 8.66628,10.5205581 C8.66248,10.5146047 8.65716,10.5086512 8.65336,10.5026977 C8.64956,10.4982326 8.64576,10.4937674 8.64196,10.4885581 C8.63816,10.484093 8.63512,10.4796279 8.63132,10.4751628 C8.62676,10.4692093 8.6222,10.4632558 8.61688,10.4573023 C8.6146,10.4543256 8.61232,10.4513488 8.60928,10.4476279 C8.6032,10.440186 8.59788,10.4334884 8.5918,10.4260465 C8.59028,10.4245581 8.58876,10.4223256 8.588,10.4208372 C7.6722,9.29339535 6.52992,8.79702326 5.41424,8.79702326 C5.14824,8.79702326 4.88376,8.82530233 4.62384,8.88037209 C4.54708,8.896 4.47032,8.91460465 4.39432,8.93469767 C3.59632,9.15423256 2.85684,9.62232558 2.27772,10.2883721 C2.07936,10.5153488 1.91216,10.7549767 1.77232,11.0020465 L1.7708,11.0042791 C1.68948,11.147907 1.6188,11.2937674 1.5542,11.4433488 C1.47364,11.6353488 1.40676,11.8303256 1.35432,12.0275349 C1.34292,12.0684651 1.33228,12.1093953 1.3224,12.1503256 C1.28896,12.2857674 1.26236,12.4219535 1.2426,12.5581395 C1.2312,12.6325581 1.22208,12.7054884 1.21448,12.7784186 C1.20916,12.8297674 1.2046,12.8811163 1.2008,12.9317209 C1.19016,13.0656744 1.18484,13.1996279 1.18484,13.3328372 C1.18484,13.6215814 1.20764,13.9088372 1.24868,14.1886512 C1.26996,14.3293023 1.29656,14.4699535 1.32772,14.6076279 C1.29656,14.4699535 1.27072,14.3300465 1.2502,14.1886512 C1.11568,13.2933953 1.17876,12.3296744 1.55648,11.4426047 C1.72824,11.04 1.9646,10.6485581 2.27848,10.2883721 C3.097,9.34623256 4.2408,8.79702326 5.41424,8.79702326 C6.63024,8.79702326 7.87816,9.38716279 8.82968,10.7415814 L8.92088,10.8055814 L9.01284,10.7415814 C9.9636,9.38716279 11.21152,8.79702326 12.42752,8.79702326 C13.60096,8.79702326 14.744,9.34623256 15.56328,10.2883721 C15.87716,10.6485581 16.11352,11.04 16.28604,11.4426047 C16.66224,12.3296744 16.72608,13.2933953 16.5908,14.1886512 C16.54596,14.4945116 16.47756,14.7929302 16.38864,15.0772093 C16.1918,15.7209302 15.8802,16.3415814 15.49336,16.9317209 C15.3064,17.2167442 15.10196,17.4950698 14.88156,17.7659535 C15.10272,17.495814 15.30868,17.2182326 15.49564,16.9324651 C15.60204,16.7694884 15.70312,16.6035349 15.7966,16.4353488 C16.0436,15.9970233 16.24652,15.543814 16.39016,15.0779535 C16.4768,14.7936744 16.54596,14.4945116 16.59308,14.1871628 C16.66148,13.7317209 16.67744,13.2591628 16.62804,12.788093 C16.60904,12.6072558 16.58016,12.4264186 16.54064,12.2470698 C16.53988,12.2433488 16.53912,12.2403721 16.53836,12.2373953 C16.5376,12.2329302 16.53684,12.2284651 16.53608,12.224 C16.52316,12.1659535 16.50872,12.107907 16.49352,12.0498605 C16.49124,12.0424186 16.48972,12.0349767 16.48744,12.0275349 C16.48744,12.0267907 16.48668,12.0260465 16.48668,12.0260465 C16.43348,11.8288372 16.36736,11.6338605 16.28604,11.4426047 C16.188,11.2141395 16.06944,10.9893953 15.92808,10.7713488 C15.92276,10.763907 15.91744,10.7557209 15.91288,10.7475349 C15.80876,10.5897674 15.69324,10.4364651 15.56404,10.2883721 C15.45004,10.1566512 15.3292,10.0338605 15.2038,9.91776744 C14.86484,9.60595349 14.4856,9.35367442 14.08204,9.16762791 C14.07824,9.16613953 14.0752,9.16465116 14.0714,9.16316279 C14.0676,9.16167442 14.06456,9.15944186 14.06076,9.15795349 C13.54472,8.92353488 12.98992,8.79702326 12.42752,8.79702326 M14.58744,8.29469767 C15.2418,8.608 15.84068,9.06344186 16.34152,9.63944186 C16.51252,9.83739535 16.66984,10.0465116 16.80892,10.2660465 C16.85072,10.3307907 16.89176,10.3962791 16.93052,10.4632558 C16.7618,10.1715349 16.56496,9.89618605 16.34152,9.63869767 C15.84068,9.06269767 15.24104,8.608 14.58744,8.29469767 M14.56388,8.28353488 C14.57072,8.28651163 14.57832,8.29023256 14.58516,8.29395349 C14.57832,8.29023256 14.57072,8.28651163 14.56388,8.28353488 M14.54108,8.27237209 C14.54488,8.27460465 14.54944,8.27683721 14.554,8.27832558 C14.54944,8.27683721 14.54488,8.27460465 14.54108,8.27237209 M14.51828,8.26195349 C14.5198,8.26269767 14.52056,8.26344186 14.52208,8.26344186 C14.52056,8.26344186 14.5198,8.26269767 14.51828,8.26195349 M10.42492,8.23367442 C9.88228,8.48223256 9.37688,8.83423256 8.92088,9.28297674 L8.9262,9.27925581 C9.38144,8.83274419 9.88456,8.48223256 10.42492,8.23367442 M10.4424,8.22548837 C10.44088,8.22623256 10.43936,8.22697674 10.43784,8.22772093 C10.43936,8.22697674 10.44088,8.22623256 10.4424,8.22548837 M7.02544,8.0744186 C7.34768,8.18976744 7.65928,8.34009302 7.95568,8.52465116 C8.29616,8.73302326 8.61992,8.9867907 8.92088,9.28372093 L8.92088,9.28297674 C8.3562,8.72855814 7.71628,8.32074419 7.02544,8.0744186 M7.00948,8.06846512 L7.01024,8.06846512 C7.01024,8.06846512 7.01024,8.06846512 7.00948,8.06846512 M14.0258,8.06474419 C14.03188,8.06623256 14.0372,8.06846512 14.04328,8.07069767 C14.0372,8.06846512 14.03188,8.06623256 14.0258,8.06474419 M5.41196,7.79683721 C3.94364,7.79683721 2.51864,8.46734884 1.501,9.63869767 C1.48428,9.6587907 1.4668,9.67813953 1.45008,9.69823256 L1.501,9.63944186 C2.51788,8.46809302 3.94364,7.79683721 5.41272,7.79683721 C5.41272,7.79683721 5.41272,7.79683721 5.41196,7.79683721 M12.4298,7.79683721 L12.42828,7.79683721 C12.96788,7.79683721 13.5014,7.88688372 14.01136,8.05953488 C13.5014,7.88688372 12.96788,7.79683721 12.4298,7.79683721" id="Fill-1" ></path>
            <path d="M11.19176,9.00762791 C11.59836,8.86474419 12.01484,8.79702326 12.42752,8.79702326 C12.98992,8.79702326 13.54472,8.92353488 14.06076,9.15795349 C14.06456,9.15944186 14.0676,9.16167442 14.0714,9.16316279 C14.0752,9.16465116 14.07824,9.16613953 14.08204,9.16762791 C14.4856,9.35367442 14.86484,9.60595349 15.2038,9.91776744 C15.3292,10.0338605 15.45004,10.1566512 15.56404,10.2883721 C15.69324,10.4364651 15.80876,10.5897674 15.91288,10.7475349 C15.91744,10.7557209 15.92276,10.763907 15.92808,10.7713488 C16.06944,10.9893953 16.188,11.2141395 16.28604,11.4426047 C16.36736,11.6338605 16.43348,11.8288372 16.48668,12.0253023 C16.48668,12.0260465 16.48744,12.0267907 16.48744,12.0275349 C16.48972,12.0349767 16.49124,12.0424186 16.49352,12.0498605 C16.50872,12.107907 16.52316,12.1659535 16.53608,12.224 C16.53684,12.2284651 16.5376,12.2329302 16.53836,12.2373953 C16.53912,12.2403721 16.53988,12.2433488 16.54064,12.2470698 C16.58016,12.4264186 16.60904,12.6072558 16.62804,12.788093 C16.67744,13.2591628 16.66148,13.7317209 16.59308,14.1871628 C16.54596,14.4945116 16.4768,14.7936744 16.39016,15.0779535 C16.24652,15.543814 16.0436,15.9970233 15.7966,16.4353488 C15.70312,16.6035349 15.60204,16.7694884 15.49564,16.9324651 C15.30868,17.2182326 15.10272,17.495814 14.88156,17.7659535 C14.35336,18.4156279 13.7408,19.019907 13.09556,19.5668837 L12.9618,19.6755349 C12.73836,19.8608372 12.51112,20.0386977 12.28312,20.2098605 C11.64624,20.6861395 10.99872,21.1051163 10.38616,21.4533953 C10.13308,21.5977674 9.8876,21.7294884 9.64972,21.8493023 C9.61628,21.8664186 9.5836,21.8827907 9.55016,21.8991628 C9.424,21.9609302 9.2834,22.0048372 9.15572,22.0293953 C9.06832,22.0472558 8.987,22.056186 8.92088,22.056186 C8.85324,22.056186 8.76964,22.0465116 8.6792,22.0286512 C8.5538,22.0033488 8.41548,21.960186 8.2916,21.8991628 C8.1472,21.8277209 7.999,21.7510698 7.84852,21.6699535 C6.91144,21.1691163 5.86188,20.4904186 4.8792,19.6762791 L4.87692,19.6740465 L4.86856,19.6695814 C4.64208,19.4813023 4.41864,19.2863256 4.20128,19.083907 C3.80152,18.7133023 3.42076,18.3188837 3.07496,17.9058605 C2.90472,17.7034419 2.74284,17.495814 2.59008,17.2852093 C2.50648,17.1683721 2.42516,17.0507907 2.34764,16.9324651 C2.27468,16.8215814 2.20476,16.7099535 2.13788,16.5968372 C2.01476,16.3906977 1.90228,16.180093 1.80044,15.9665116 C1.80044,15.9657674 1.79968,15.9642791 1.79892,15.9635349 C1.79588,15.956093 1.79284,15.9493953 1.78904,15.9426977 C1.78676,15.9367442 1.78372,15.9307907 1.78144,15.9255814 C1.77992,15.9233488 1.77916,15.9211163 1.7784,15.9188837 C1.74268,15.8422326 1.70848,15.7655814 1.6758,15.688186 C1.67428,15.6852093 1.67352,15.6829767 1.672,15.68 C1.67048,15.6755349 1.6682,15.6710698 1.66668,15.6673488 C1.66364,15.659907 1.66136,15.6532093 1.65832,15.6465116 C1.65756,15.6457674 1.65756,15.6442791 1.6568,15.6435349 C1.57928,15.4567442 1.51088,15.2684651 1.45236,15.0779535 C1.41892,14.9693023 1.38852,14.8584186 1.3604,14.7453023 C1.349,14.699907 1.3376,14.6537674 1.32772,14.6076279 C1.29656,14.4699535 1.26996,14.3293023 1.24868,14.1886512 C1.20764,13.9088372 1.18484,13.6215814 1.18484,13.3328372 C1.18484,13.1996279 1.19016,13.0656744 1.2008,12.9317209 C1.2046,12.8811163 1.20916,12.8297674 1.21448,12.7784186 C1.22208,12.7054884 1.2312,12.6325581 1.2426,12.5581395 C1.26236,12.4219535 1.28896,12.2857674 1.3224,12.1503256 C1.33228,12.1093953 1.34292,12.0684651 1.35432,12.0275349 C1.40676,11.8303256 1.47364,11.6353488 1.5542,11.4433488 C1.6188,11.2937674 1.68948,11.147907 1.7708,11.0042791 L1.77232,11.0020465 C1.91216,10.7549767 2.07936,10.5153488 2.27772,10.2883721 C2.85684,9.62232558 3.59632,9.15423256 4.39432,8.93469767 C4.47032,8.91460465 4.54708,8.896 4.62384,8.88037209 C4.88376,8.82530233 5.14824,8.79702326 5.41424,8.79702326 C6.52992,8.79702326 7.6722,9.29339535 8.588,10.4208372 C8.58876,10.4223256 8.59028,10.4245581 8.5918,10.4260465 C8.59788,10.4334884 8.6032,10.440186 8.60928,10.4476279 C8.61232,10.4513488 8.6146,10.4543256 8.61688,10.4573023 C8.6222,10.4632558 8.62676,10.4692093 8.63132,10.4751628 C8.63512,10.4796279 8.63816,10.484093 8.64196,10.4885581 C8.64576,10.4937674 8.64956,10.4982326 8.65336,10.5026977 C8.65716,10.5086512 8.66248,10.5146047 8.66628,10.5205581 C8.66932,10.5235349 8.67236,10.5272558 8.67464,10.5309767 C8.67996,10.5376744 8.68604,10.5451163 8.69136,10.5525581 C8.69288,10.5547907 8.6944,10.5570233 8.69668,10.5592558 C8.70276,10.5674419 8.70884,10.5756279 8.71492,10.583814 C8.71644,10.5853023 8.7172,10.5867907 8.71796,10.5882791 C8.7248,10.5972093 8.7324,10.6061395 8.73924,10.615814 C8.73924,10.6165581 8.74,10.6165581 8.74,10.6173023 C8.7476,10.6269767 8.75444,10.6373953 8.76204,10.6470698 C8.76204,10.6470698 8.76204,10.6470698 8.7628,10.647814 C8.77724,10.667907 8.79244,10.6887442 8.80688,10.7095814 L8.80764,10.7095814 C8.81448,10.72 8.82208,10.7304186 8.82968,10.7415814 L8.92088,10.8055814 L9.01056,10.7415814 C9.18232,10.4982326 9.3632,10.2794419 9.55092,10.0844651 C10.04188,9.57618605 10.58452,9.22865116 11.14692,9.024 C11.14768,9.02325581 11.14844,9.02325581 11.14996,9.02251163 C11.1568,9.02027907 11.16364,9.01804651 11.17048,9.01506977 C11.17504,9.0135814 11.18036,9.01209302 11.18492,9.00986047 C11.1872,9.00911628 11.18948,9.00837209 11.19176,9.00762791 M5.41272,7.79683721 L5.41272,7.79683721 C3.94364,7.79683721 2.51788,8.46809302 1.501,9.63944186 L1.45008,9.69823256 C1.32924,9.84260465 1.21524,9.99218605 1.11036,10.1462326 L1.11036,10.1469767 L1.1058,10.1529302 C0.93404,10.4074419 0.7828,10.6768372 0.65664,10.9581395 L0.61332,11.060093 C0.58064,11.1322791 0.55252,11.2059535 0.52364,11.2796279 C0.52288,11.2826047 0.52136,11.2855814 0.5206,11.2885581 L0.48488,11.3867907 C0.48108,11.3986977 0.47728,11.4098605 0.47348,11.4217674 L0.4712,15.3562791 C0.47196,15.36 0.47348,15.3629767 0.47424,15.3666977 C0.48184,15.3912558 0.48944,15.4165581 0.4978,15.4411163 C0.49856,15.4426047 0.49856,15.444093 0.49932,15.4455814 C0.50236,15.4545116 0.5054,15.464186 0.50768,15.4731163 C0.50996,15.4805581 0.513,15.488 0.51528,15.4946977 C0.51528,15.4969302 0.51604,15.4984186 0.5168,15.5006512 C0.60192,15.7596279 0.70452,16.0193488 0.82232,16.2783256 C0.90972,16.468093 1.00548,16.6578605 1.11036,16.8461395 C1.22512,17.0582326 1.34976,17.2643721 1.48732,17.4727442 C1.83464,18.004093 2.2496,18.5287442 2.72764,19.0407442 C2.87736,19.2022326 3.03392,19.3629767 3.19656,19.5222326 C3.19656,19.5229767 3.19732,19.5229767 3.19732,19.5237209 C3.1996,19.5252093 3.20112,19.5266977 3.20264,19.5289302 C3.45496,19.7745116 3.72096,20.0178605 4.0014,20.2574884 C4.06524,20.311814 4.1306,20.3661395 4.19596,20.4204651 L4.20812,20.4323721 L4.21496,20.439814 L4.218,20.4413023 L4.22332,20.4450233 L4.23928,20.456186 C4.36696,20.5618605 4.49768,20.6667907 4.63068,20.7702326 C5.62704,21.5456744 6.74728,22.2548837 7.83104,22.7914419 C7.97696,22.8643721 8.13732,22.9231628 8.30072,22.9685581 C8.31136,22.9715349 8.32124,22.9737674 8.33188,22.9767442 C8.52416,23.0251163 8.72024,23.0541395 8.90112,23.0556279 L8.9034,23.0556279 L8.92088,23.0556279 C9.27124,23.0556279 9.6786,22.9573953 10.0092,22.7914419 C10.32004,22.6381395 10.63468,22.4699535 10.94704,22.2906047 C11.83928,21.7793488 12.72468,21.172093 13.51584,20.5268837 C13.5508,20.4986047 13.585,20.4703256 13.61996,20.4413023 L13.63288,20.4301395 L13.7294,20.3497674 L13.76132,20.3229767 C13.88064,20.2225116 13.99616,20.1220465 14.11016,20.0208372 C14.11472,20.0171163 14.11852,20.0133953 14.12308,20.0096744 C14.12612,20.0066977 14.12992,20.0029767 14.13372,20 C14.30852,19.8437209 14.47724,19.6859535 14.63988,19.5266977 C14.74172,19.4277209 14.84052,19.3272558 14.93704,19.2267907 C15.29956,18.8524651 15.62788,18.4706977 15.92124,18.0844651 C15.922,18.0837209 15.92276,18.0822326 15.92428,18.0814884 C15.9296,18.0740465 15.93568,18.0658605 15.941,18.0584186 C15.94252,18.0569302 15.94404,18.0554419 15.9448,18.0532093 C15.95088,18.0457674 15.9562,18.0383256 15.96152,18.0308837 C15.96304,18.0301395 15.9638,18.0286512 15.96456,18.0271628 C15.97824,18.0093023 15.99116,17.992186 16.00408,17.9750698 C16.0056,17.972093 16.00788,17.9691163 16.01016,17.9661395 C16.01396,17.9609302 16.01852,17.9549767 16.02232,17.9497674 C16.02536,17.9460465 16.02764,17.9430698 16.02992,17.9393488 C16.03372,17.9341395 16.03752,17.9296744 16.04132,17.9244651 C16.0436,17.9207442 16.04664,17.9162791 16.04968,17.9125581 C16.05348,17.9073488 16.05652,17.9028837 16.06032,17.8976744 C16.0626,17.8946977 16.06564,17.8909767 16.06792,17.888 C16.074,17.8790698 16.08008,17.8708837 16.08616,17.8626977 C16.08692,17.8612093 16.08768,17.8604651 16.08844,17.8589767 C16.09376,17.8515349 16.09984,17.844093 16.10516,17.835907 C16.10668,17.8336744 16.1082,17.832186 16.10972,17.8299535 C16.11428,17.8232558 16.11884,17.8173023 16.1234,17.8106047 C16.12492,17.8076279 16.1272,17.8046512 16.12948,17.8024186 C16.13328,17.7964651 16.13784,17.7897674 16.1424,17.783814 C16.14392,17.7815814 16.1462,17.7786047 16.14772,17.7756279 C16.15304,17.7689302 16.1576,17.7622326 16.16292,17.7547907 C16.16368,17.7533023 16.1652,17.751814 16.16596,17.7503256 C16.17204,17.7421395 16.17812,17.7332093 16.1842,17.7250233 C16.18572,17.7220465 16.18724,17.719814 16.18952,17.7168372 C16.19332,17.7108837 16.19788,17.7049302 16.20168,17.6989767 C16.20396,17.6952558 16.20624,17.6922791 16.20852,17.6893023 C16.21232,17.6833488 16.21612,17.6781395 16.22068,17.672186 C16.2222,17.6699535 16.22448,17.6669767 16.226,17.664 C16.23056,17.6573023 16.23512,17.6506047 16.23968,17.643907 C16.2412,17.6424186 16.24272,17.640186 16.24424,17.6379535 C16.25564,17.6208372 16.2678,17.6037209 16.2792,17.5858605 C16.28072,17.5836279 16.283,17.5813953 16.28452,17.5784186 C16.28908,17.5717209 16.29288,17.5657674 16.29744,17.5590698 C16.29896,17.5568372 16.30124,17.5538605 16.30276,17.5516279 C16.30656,17.5456744 16.31036,17.5397209 16.31416,17.5337674 C16.31644,17.5307907 16.31872,17.527814 16.32024,17.5248372 C16.3248,17.5181395 16.32936,17.512186 16.33316,17.5054884 C16.33468,17.5032558 16.3362,17.5010233 16.33772,17.4987907 C16.34304,17.4898605 16.34912,17.4816744 16.35444,17.4727442 L16.3818,17.4310698 C16.3932,17.4139535 16.40384,17.3968372 16.41524,17.3804651 C16.53684,17.1877209 16.65236,16.9942326 16.75724,16.8007442 L16.80892,16.7010233 C16.9404,16.4546977 17.05516,16.2068837 17.15548,15.959814 C17.1874,15.8809302 17.2178,15.8020465 17.24668,15.7231628 C17.29,15.6048372 17.32952,15.4857674 17.36524,15.3674419 C17.41692,15.2 17.46328,15.0303256 17.50204,14.859907 L17.53472,12.0171163 C17.51496,11.9270698 17.49292,11.8385116 17.4686,11.7499535 C17.4686,11.7499535 17.4686,11.7499535 17.46784,11.7499535 C17.46708,11.7454884 17.46556,11.7417674 17.4648,11.7380465 C17.45416,11.6993488 17.44276,11.6606512 17.43136,11.6226977 C17.37284,11.4299535 17.30672,11.2424186 17.22844,11.060093 L17.20032,10.9953488 C17.18664,10.964093 17.1722,10.9328372 17.15776,10.9015814 C17.0886,10.752 17.0126,10.6053953 16.93052,10.4632558 C16.89176,10.3962791 16.85072,10.3307907 16.80892,10.2660465 C16.66984,10.0465116 16.51252,9.83739535 16.34152,9.63944186 C15.84068,9.06344186 15.2418,8.608 14.58744,8.29469767 C14.58668,8.29395349 14.58592,8.29395349 14.58516,8.29395349 C14.57832,8.29023256 14.57072,8.28651163 14.56388,8.28353488 C14.56008,8.28204651 14.55704,8.27981395 14.554,8.27832558 C14.54944,8.27683721 14.54488,8.27460465 14.54108,8.27237209 C14.535,8.26939535 14.52816,8.2664186 14.52208,8.26344186 C14.52056,8.26344186 14.5198,8.26269767 14.51828,8.26195349 C14.36248,8.19051163 14.2044,8.12651163 14.04328,8.07069767 C14.0372,8.06846512 14.03188,8.06623256 14.0258,8.06474419 C14.02048,8.06251163 14.01592,8.06102326 14.01136,8.05953488 C13.5014,7.88688372 12.96788,7.79683721 12.42828,7.79683721 C11.73288,7.79683721 11.06408,7.94344186 10.4424,8.22548837 C10.44088,8.22623256 10.43936,8.22697674 10.43784,8.22772093 C10.43328,8.2292093 10.42948,8.23144186 10.42492,8.23367442 C9.88456,8.48223256 9.38144,8.83274419 8.9262,9.27925581 L8.92088,9.28297674 L8.92088,9.28372093 C8.61992,8.9867907 8.29616,8.73302326 7.95568,8.52465116 C7.65928,8.34009302 7.34768,8.18976744 7.02544,8.0744186 C7.02088,8.07218605 7.01556,8.07069767 7.01024,8.06846512 C7.01024,8.06846512 7.01024,8.06846512 7.00948,8.06846512 C6.5018,7.88911628 5.966,7.79683721 5.41272,7.79683721" id="Fill-2" fill-opacity="0.600000024" ></path>
            <path d="M3.34248,3.29153488 C2.36056,3.29153488 1.41892,3.55869767 0.47804,3.83553488 L0.47652,5.64911628 L0.47652,5.64986047 L0.57,5.53823256 C1.0222,5.31646512 1.49492,5.14827907 1.97904,5.03739535 C1.9798,5.03739535 1.98056,5.03739535 1.98056,5.03665116 C1.99196,5.0344186 2.0026,5.03218605 2.01324,5.02995349 C2.01552,5.0292093 2.0178,5.02846512 2.02008,5.02846512 C2.02768,5.02623256 2.03604,5.02474419 2.04364,5.02325581 C2.04972,5.02176744 2.05504,5.02027907 2.06036,5.01953488 C2.06644,5.01804651 2.07176,5.01655814 2.07708,5.01581395 C2.31724,4.9652093 2.56044,4.928 2.8044,4.9064186 L4.38216,3.36223256 C4.05232,3.3175814 3.7164,3.29302326 3.37516,3.29153488 L3.3744,3.29153488 L3.34248,3.29153488 Z M14.49852,3.29153488 C14.31992,3.29153488 14.14208,3.29748837 13.965,3.31013953 C12.08628,3.43888372 10.3512,4.2507907 8.92164,5.65432558 L8.92088,5.65432558 C8.60928,5.34846512 8.284,5.07088372 7.94504,4.82232558 L7.94428,4.82232558 C7.93896,4.81786047 7.93288,4.81339535 7.9268,4.80893023 C7.9192,4.80297674 7.91084,4.79776744 7.90324,4.79181395 C7.90096,4.79032558 7.89944,4.78883721 7.8964,4.78734884 C6.83316,4.01860465 5.64452,3.53339535 4.38216,3.36223256 L2.80516,4.9064186 C2.86444,4.9012093 2.92372,4.89674419 2.983,4.89302326 L2.98604,4.89302326 C2.99668,4.89227907 3.00656,4.89153488 3.0172,4.89153488 C3.02176,4.8907907 3.02632,4.8907907 3.03164,4.8907907 C3.03696,4.89004651 3.04228,4.89004651 3.04684,4.89004651 C3.05064,4.88930233 3.05444,4.88930233 3.05824,4.88930233 C3.15248,4.88483721 3.24672,4.88260465 3.34172,4.88260465 C5.27516,4.88260465 7.2618,5.82102326 8.77572,7.97395349 L8.92088,8.07739535 L9.06528,7.97395349 C10.49256,5.94381395 12.33936,4.99348837 14.16716,4.89227907 L15.73656,3.35627907 C15.3596,3.31088372 14.97808,3.29451163 14.60112,3.29227907 L14.592,3.29227907 C14.58516,3.29227907 14.57756,3.29227907 14.57072,3.29153488 L14.54184,3.29153488 L14.53348,3.29153488 L14.49852,3.29153488 Z M15.73656,3.35627907 L14.16716,4.89302326 C14.27736,4.88632558 14.38908,4.88260465 14.49852,4.88260465 C15.52376,4.88260465 16.53456,5.1467907 17.4534,5.63051163 C17.50736,5.66027907 17.55904,5.75553488 17.60388,5.90586047 L17.53472,12.0171163 C17.5408,12.0424186 17.54612,12.0669767 17.55144,12.0930233 C17.57956,12.2292093 17.60388,12.3683721 17.62288,12.5082791 C17.62744,12.5417674 17.632,12.5752558 17.6358,12.6094884 L17.73992,12.5075349 L17.73992,6.61432558 C17.7004,6.32186047 17.65632,6.0852093 17.60692,5.91627907 C17.60692,5.91627907 17.60692,5.91627907 17.60692,5.91553488 C17.60616,5.91255814 17.60464,5.9095814 17.60388,5.90586047 L17.62364,3.94195349 C17.6168,3.93748837 17.6092,3.93302326 17.6016,3.92930233 C17.03464,3.60037209 16.39396,3.43516279 15.73656,3.35627907 Z M17.4002,20.2865116 C16.81728,20.8937674 16.20016,21.472 15.55796,22.0115349 C15.48956,22.0703256 15.41812,22.1276279 15.34744,22.1871628 C14.44,22.9387907 13.4976,23.6167442 12.5742,24.2098605 C11.6508,24.8037209 10.74792,25.312 9.92028,25.7213023 C9.68848,25.8373953 9.424,25.9110698 9.19676,25.9453023 C9.09568,25.9609302 9.0022,25.9683721 8.92164,25.9683721 C8.66324,25.9683721 8.25892,25.8894884 7.92072,25.7213023 C7.7748,25.6491163 7.62736,25.5739535 7.47688,25.495814 C6.87192,25.1817674 6.23428,24.8178605 5.58296,24.4115349 L4.40876,25.5627907 C4.5372,25.6453953 4.6664,25.7265116 4.79636,25.8076279 C4.9172,25.8820465 5.0388,25.9564651 5.15964,26.0293953 C5.17484,26.0383256 5.18852,26.0465116 5.20144,26.0546977 C5.22348,26.0673488 5.23336,26.0733023 5.24324,26.0792558 C5.26984,26.0948837 5.27668,26.0993488 5.28352,26.1030698 C5.2934,26.1090233 5.30328,26.1149767 5.31316,26.1209302 C5.8254,26.4245581 6.33384,26.7066047 6.83924,26.9663256 C6.85672,26.9752558 6.86356,26.9789767 6.8704,26.9819535 C6.97604,27.0362791 7.08244,27.0898605 7.18884,27.1426977 C7.3188,27.2066977 7.4556,27.2647442 7.5962,27.3153488 C8.03016,27.4723721 8.50212,27.5609302 8.92164,27.5609302 C9.47872,27.5609302 10.12548,27.4046512 10.65444,27.1426977 C12.6198,26.1707907 14.65736,24.8424186 16.39548,23.4024186 L16.5452,23.2788837 L16.61968,23.2171163 C16.8948,22.9849302 17.14104,22.7311628 17.41768,22.5168372 L17.442,20.2232558 L17.4002,20.2865116 Z M0.46892,19.9047442 L0.46892,22.5585116 C0.56772,22.592 0.65588,22.6433488 0.73796,22.7066047 C0.86792,22.8063256 0.98192,22.9343256 1.09744,23.0623256 C1.19548,23.1709767 1.29428,23.2788837 1.40372,23.3704186 L1.4402,23.403907 L1.47364,23.4292093 C2.38792,24.1830698 3.38352,24.9049302 4.40876,25.5627907 L5.58296,24.4115349 C4.56,23.7722791 3.50436,23.0243721 2.49204,22.1871628 L2.48672,22.1826977 L2.47684,22.176 C2.22376,21.9661395 1.97372,21.7503256 1.72824,21.5293023 C1.3794,21.2174884 1.03892,20.8945116 0.70908,20.5611163 C0.62168,20.471814 0.54264,20.244093 0.46892,19.9047442 Z M0.46892,18.3054884 L0.2698,18.5004651 C0.3268,19.0645581 0.39292,19.5408372 0.46816,19.8973023 L0.46892,18.4267907 L0.46892,18.3054884" id="Fill-18" fill-opacity="0.300000012" ></path>
            <path d="M7.5354,28.9503256 C7.56124,28.2217674 8.16924,27.6405581 8.92012,27.6405581 C9.68392,27.6405581 10.30484,28.2470698 10.30484,28.9957209 C10.30484,29.7466047 9.68392,30.3538605 8.92012,30.3538605 C8.16924,30.3538605 7.56124,29.6826047 7.5354,28.9503256 M1.1096,25.4310698 L1.1096,3.3652093 C1.1096,1.91925581 2.58476,1.91925581 2.58476,1.91925581 L15.33528,1.91925581 C16.8112,1.91925581 16.8112,3.27069767 16.8112,3.27069767 L16.8112,25.4310698 C16.8112,26.8770233 15.33528,26.8770233 15.33528,26.8770233 L2.58476,26.8770233 C1.1096,26.8770233 1.1096,25.4310698 1.1096,25.4310698 M7.14704,0.958511628 C7.14704,0.811162791 7.27016,0.690604651 7.42064,0.690604651 L10.42112,0.690604651 C10.56932,0.690604651 10.69168,0.811162791 10.69168,0.958511628 C10.69168,1.10511628 10.56932,1.22567442 10.42112,1.22567442 L7.42064,1.22567442 C7.27016,1.22567442 7.14704,1.10511628 7.14704,0.958511628 M1.78828,-0.165209302 C1.78828,-0.165209302 -0.19152,-0.165209302 -0.19152,1.77265116 L-0.19152,29.3082791 C-0.19152,29.3082791 -0.19152,30.5168372 0.7828,31.0258605 L16.9974,31.0258605 C17.26796,30.9008372 17.54156,30.7066047 17.73992,30.4037209 L17.73992,0.721116279 C17.47924,0.264930233 16.986,-0.165209302 16.05196,-0.165209302 L1.78828,-0.165209302" id="Fill-48" ></path>
            <path d="M8.92164,11.6770233 C8.31972,11.0861395 7.58024,10.7683721 6.7792,10.7683721 C5.88316,10.7683721 5.01296,11.1791628 4.39128,11.8935814 C4.16556,12.1533023 3.98164,12.4457674 3.84788,12.7605581 C3.59328,13.3626047 3.515,14.0532093 3.6214,14.7579535 C3.65256,14.9700465 3.69892,15.1813953 3.76428,15.3905116 C3.895,15.8176744 4.10248,16.2507907 4.38292,16.6764651 C4.7918,17.2971163 5.34736,17.9013953 6.03516,18.4766512 L6.05036,18.4870698 L6.06252,18.496 C6.72676,19.0452093 7.505,19.5512558 8.25436,19.9226047 C8.46032,20.0223256 8.70732,20.0826047 8.92164,20.0826047 C9.1352,20.0826047 9.38372,20.0223256 9.58588,19.9226047 C10.3398,19.5505116 11.12108,19.04 11.78988,18.4870698 L11.87576,18.4156279 C12.5324,17.8619535 13.0644,17.2755349 13.45884,16.6764651 C13.73776,16.2507907 13.94524,15.8184186 14.07596,15.3905116 C14.1398,15.1828837 14.18844,14.9707907 14.22188,14.7579535 C14.32676,14.0532093 14.24772,13.3626047 13.99236,12.7605581 C13.85708,12.4442791 13.67544,12.1533023 13.452,11.8935814 C12.82804,11.1791628 11.9586,10.7683721 11.06104,10.7683721 C10.26304,10.7683721 9.51976,11.0861395 8.92164,11.6770233 M8.9756,12.5663256 C10.11712,10.9410233 11.9586,11.1181395 12.97472,12.2894884 C13.167,12.5090233 13.3114,12.7471628 13.41704,12.9942326 C13.64656,13.5352558 13.68532,14.123907 13.604,14.6701395 C13.57664,14.8569302 13.53332,15.0392558 13.47936,15.2126512 C13.35928,15.6070698 13.17004,15.9851163 12.93444,16.3453023 C12.54532,16.9384186 12.02624,17.4824186 11.46916,17.9534884 L11.38632,18.0212093 C10.69092,18.5964651 9.94004,19.0630698 9.30392,19.3778605 C9.17472,19.4403721 9.02044,19.4731163 8.92164,19.4731163 C8.82132,19.4731163 8.66856,19.4403721 8.53556,19.3778605 C7.89944,19.0630698 7.1516,18.5964651 6.45392,18.0212093 L6.4486,18.0152558 C5.86112,17.5307907 5.31468,16.9652093 4.90808,16.3453023 C4.67172,15.9851163 4.48248,15.6070698 4.36088,15.2126512 C4.30844,15.0392558 4.26588,14.8569302 4.237,14.6701395 C4.15492,14.123907 4.1952,13.5352558 4.42624,12.9942326 C4.5296,12.7471628 4.67476,12.5090233 4.86552,12.2894884 C5.88468,11.1181395 7.72236,10.9410233 8.8654,12.5663256 L8.92164,12.6050233 L8.9756,12.5663256" id="Fill-49" ></path>
            <path d="M8.9756,12.5663256 C10.11712,10.9410233 11.9586,11.1181395 12.97472,12.2887442 C13.167,12.5097674 13.3114,12.7464186 13.41704,12.9942326 C13.64732,13.5352558 13.68532,14.123907 13.604,14.6701395 C13.57588,14.856186 13.53332,15.0392558 13.47936,15.2126512 C13.35928,15.6070698 13.17004,15.9851163 12.93444,16.3453023 C12.54456,16.9384186 12.02548,17.4824186 11.46916,17.9542326 L11.38632,18.0219535 C10.69092,18.5964651 9.93928,19.063814 9.30392,19.3778605 C9.17472,19.4403721 9.02044,19.4723721 8.92088,19.4723721 C8.82132,19.4723721 8.66856,19.4403721 8.53556,19.3778605 C7.89944,19.063814 7.1516,18.5964651 6.45392,18.0219535 L6.4486,18.0152558 C5.86112,17.5307907 5.3124,16.9644651 4.90808,16.3453023 C4.67172,15.9851163 4.48248,15.6070698 4.36088,15.2126512 C4.30844,15.0392558 4.26588,14.856186 4.23776,14.6701395 C4.15492,14.123907 4.1952,13.5352558 4.42548,12.9942326 C4.5296,12.7464186 4.67476,12.5097674 4.86552,12.2887442 C5.88468,11.1181395 7.72236,10.9410233 8.8654,12.5663256 L8.92088,12.6050233 L8.9756,12.5663256 L8.9756,12.5663256 Z M6.78148,10.7683721 C5.88316,10.7683721 5.01296,11.1784186 4.39128,11.8935814 C4.16556,12.1540465 3.9824,12.4457674 3.84788,12.7613023 C3.59328,13.3626047 3.515,14.0532093 3.62064,14.7572093 C3.65256,14.9693023 3.70044,15.1813953 3.76504,15.3905116 C3.895,15.8169302 4.10248,16.2507907 4.38292,16.6764651 C4.7918,17.2971163 5.3466,17.9021395 6.03592,18.4766512 L6.06252,18.496 C6.72828,19.0452093 7.505,19.5512558 8.25436,19.9226047 C8.45956,20.0223256 8.70808,20.0826047 8.92088,20.0826047 C9.1352,20.0826047 9.38372,20.0223256 9.58588,19.9226047 C10.3398,19.5505116 11.12108,19.04 11.78988,18.4870698 L11.87576,18.4156279 C12.53164,17.8619535 13.0644,17.2755349 13.45884,16.6764651 C13.73776,16.2507907 13.94524,15.8184186 14.07596,15.3905116 C14.1398,15.1821395 14.18844,14.9700465 14.22112,14.7572093 C14.326,14.0532093 14.24772,13.3626047 13.9916,12.7613023 C13.85784,12.4435349 13.67544,12.1525581 13.452,11.8935814 C12.82804,11.1784186 11.9586,10.7683721 11.06104,10.7683721 C10.26152,10.7683721 9.51976,11.0853953 8.92088,11.6770233 C8.31972,11.0853953 7.57948,10.7683721 6.78148,10.7683721 Z" id="Fill-50" ></path>
        </g>
    </g>
</svg>