<?xml version="1.0" encoding="utf-8"?>
<!-- Generator: Adobe Illustrator 16.0.0, SVG Export Plug-In . SVG Version: 6.00 Build 0)  -->
<!DOCTYPE svg PUBLIC "-//W3C//DTD SVG 1.1//EN" "http://www.w3.org/Graphics/SVG/1.1/DTD/svg11.dtd">
<svg version="1.1" id="Calque_1" xmlns="http://www.w3.org/2000/svg" xmlns:xlink="http://www.w3.org/1999/xlink" x="0px" y="0px"
	 width="1350px" height="350px" viewBox="0 0 1350 350" enable-background="new 0 0 1350 350" xml:space="preserve">
<g>
	<g>
		<path d="M1251.176,142.609c-43.082,0.089-77.885,35.085-77.806,78.14c0.108,44.229,36.948,79.774,81.603,77.736
			c39.7-1.8,72.366-34.447,74.235-74.136C1331.325,179.525,1295.523,142.541,1251.176,142.609z M1251.404,269.013
			c-26.161,0.059-47.396-21.59-47.445-48.313c-0.049-26.726,21.107-48.45,47.256-48.499c26.16-0.055,47.414,21.575,47.453,48.32
			C1298.697,247.226,1277.562,268.953,1251.404,269.013z"/>
		<g>
			<path d="M1154.095,149.466c-10.91-2.549-19.964-3.637-30.265-3.637c-40.584,0-60.315,19.664-60.315,60.117v94.28
				h30.818v-91.974c0-25.595,6.863-33.398,29.369-33.398c6.809,0,14.621,1.127,23.228,3.35l6.165,1.592l7.27-28.864
				L1154.095,149.466z"/>
			<path d="M976.566,61.145H890.17v239.324h29.275V211.04h52.927c45.09,0,90.588-23.425,90.588-75.754v-0.645
				C1062.96,89.994,1029.049,61.145,976.566,61.145z M919.445,88.486h55.187c37.326,0,58.732,17.174,58.732,47.122v0.645
				c0,28.57-24.121,47.767-60.022,47.767h-53.896V88.486z"/>
		</g>
	</g>
	<path d="M581.232,300.115c40.618,0,60.537-35.07,60.537-35.07v32.538l19.098,0.01v-79.052
		c-0.078-44.8-35.881-81.23-79.783-81.23c-43.418,0.094-79.893,38.715-79.783,84.326
		C501.389,265.638,535.411,300.115,581.232,300.115z M581.192,280.79c-32.469,0-58.827-27.801-58.836-61.962
		c-0.079-33.624,27.138-62.132,58.608-62.191h0.129c32.331,0,58.678,27.791,58.747,61.955
		C639.87,252.82,613.573,280.71,581.192,280.79z"/>
	<path d="M746.072,94.63v142.722c-0.05,20.591,4.578,37.059,14.943,47.671c14.834,15.142,37.819,18.969,70.98,11.067
		l-4.074-17.772c-41.213,10.869-61.18-2.394-61.101-46.424v-75.375h57.471v-16.917h-57.471V94.63H746.072z"/>
	<path d="M447.795,297.652h20.215V156.518h39.343v-16.853h-39.57l-0.029-6.062
		c-0.059-38.497,11.294-58.025,52.269-46.592l4.788-16.809c-9.13-2.26-16.715-3.421-24.489-3.421
		c-31.767,0-52.249,22.381-52.249,66.808v6.077h-19.979v16.853h19.702V297.652z"/>
	<path d="M317.383,297.652h20.542v-96.884c0-31.997,9.92-44.943,40.382-44.943c8.179,0,17.555,1.301,28.068,4.016
		l4.688-18.604c-12.512-2.922-22.095-3.926-32.608-3.926c-44.96,0-61.071,22.634-61.071,60.846V297.652z"/>
	<rect x="689.815" y="139.719" width="20.542" height="157.875"/>
	<path d="M714.295,84.429c0-8.204-6.667-14.89-14.895-14.89c-8.229,0-14.895,6.687-14.895,14.89
		c0,8.244,6.665,14.899,14.895,14.899C707.628,99.328,714.295,92.672,714.295,84.429z"/>
	<path d="M220.687,137.524c-44.001,0-79.665,36.375-79.665,81.285c0,44.901,35.664,81.307,79.665,81.307
		c44.011,0,79.685-36.406,79.685-81.307C300.372,173.899,264.698,137.524,220.687,137.524z M220.687,282.125
		c-33.626,0-60.874-28.345-60.874-63.316c0-34.974,27.247-63.314,60.874-63.314c33.617,0,60.864,28.34,60.864,63.314
		C281.551,253.78,254.304,282.125,220.687,282.125z"/>
	<path d="M37.729,297.652v-110.93h93.53v-18.139H37.759c0,0,0-35.827,0-58.916c0-19.33,4.451-26.575,23.143-26.575
		c14.727,0,80.525,0,80.525,0V63.96c0,0-60.221,0-81.089,0c-32.035,0-43.675,14.104-43.675,44.071c0,23.371,0,34.67-0.01,189.621
		H37.729z"/>
</g>
</svg>
