<?xml version="1.0" encoding="UTF-8" standalone="no"?>
<svg width="34px" height="35px" viewBox="0 0 34 35" version="1.1" xmlns="http://www.w3.org/2000/svg" xmlns:xlink="http://www.w3.org/1999/xlink" xmlns:sketch="http://www.bohemiancoding.com/sketch/ns">
    <!-- Generator: Sketch 3.1.1 (8761) - http://www.bohemiancoding.com/sketch -->
    <title>icon-uploaddownload@1x</title>
    <desc></desc>
    <defs></defs>
    <g id="Page-1" stroke="none" stroke-width="1"  fill-rule="evenodd" >
        <g id="icon-uploaddownload"  transform="translate(1.000000, 0.000000)">
            <path d="M17.826,32.65 L18.192,34.362 L18.509,34.292 L18.148,32.581 L17.826,32.65" id="Fill-1" ></path>
            <path d="M16.233,32.886 L16.418,34.625 L16.737,34.591 L16.56,32.852 L16.233,32.886" id="Fill-2" ></path>
            <path d="M16.233,2.107 L16.56,2.14 L16.737,0.402 L16.418,0.368 L16.233,2.107" id="Fill-3" ></path>
            <path d="M28.911,23.676 L30.505,24.388 L30.376,24.685 L28.778,23.975 L28.911,23.676" id="Fill-4" ></path>
            <path d="M27.332,26.479 L28.745,27.504 L28.554,27.772 L27.138,26.744 L27.332,26.479" id="Fill-5" ></path>
            <path d="M19.387,32.251 L19.931,33.915 L20.235,33.813 L19.696,32.149 L19.387,32.251" id="Fill-6" ></path>
            <path d="M30.071,19.339 L31.81,19.52 L31.843,19.198 L30.105,19.016 L30.071,19.339" id="Fill-7" ></path>
            <path d="M29.802,20.927 L31.515,21.29 L31.58,20.973 L29.871,20.608 L29.802,20.927" id="Fill-8" ></path>
            <path d="M21.903,33.155 L21.61,33.287 L20.897,31.691 L21.194,31.557 L21.903,33.155" id="Fill-9" ></path>
            <path d="M26.331,27.743 L27.626,28.912 L27.411,29.153 L26.11,27.982 L26.331,27.743" id="Fill-10" ></path>
            <path d="M24.989,31.333 L24.727,31.525 L23.698,30.111 L23.964,29.92 L24.989,31.333" id="Fill-11" ></path>
            <path d="M25.206,28.893 L26.372,30.19 L26.132,30.411 L24.96,29.111 L25.206,28.893" id="Fill-12" ></path>
            <path d="M29.802,14.21 L29.87,14.529 L31.58,14.165 L31.515,13.847 L29.802,14.21" id="Fill-13" ></path>
            <path d="M26.112,7.152 L27.413,5.983 L27.63,6.226 L26.333,7.394 L26.112,7.152" id="Fill-14" ></path>
            <path d="M17.826,2.486 L18.148,2.555 L18.511,0.844 L18.192,0.776 L17.826,2.486" id="Fill-15" ></path>
            <path d="M29.371,12.659 L29.472,12.97 L31.134,12.428 L31.031,12.119 L29.371,12.659" id="Fill-16" ></path>
            <path d="M27.14,8.393 L28.552,7.367 L28.746,7.628 L27.329,8.656 L27.14,8.393" id="Fill-17" ></path>
            <path d="M24.96,6.025 L26.132,4.729 L26.374,4.944 L25.206,6.244 L24.96,6.025" id="Fill-18" ></path>
            <path d="M23.698,5.025 L24.726,3.613 L24.993,3.804 L23.964,5.219 L23.698,5.025" id="Fill-19" ></path>
            <path d="M19.387,2.885 L19.696,2.989 L20.237,1.323 L19.928,1.224 L19.387,2.885" id="Fill-20" ></path>
            <path d="M20.897,3.446 L21.608,1.85 L21.907,1.981 L21.196,3.581 L20.897,3.446" id="Fill-21" ></path>
            <path d="M28.778,11.162 L30.373,10.45 L30.507,10.748 L28.911,11.459 L28.778,11.162" id="Fill-22" ></path>
            <path d="M12.835,34.59 L13.159,34.625 L13.344,32.885 L13.019,32.852 L12.835,34.59" id="Fill-23" ></path>
            <path d="M30.071,15.799 L30.105,16.124 L31.845,15.94 L31.809,15.616 L30.071,15.799" id="Fill-24" ></path>
            <path d="M11.069,34.294 L11.387,34.362 L11.752,32.653 L11.433,32.58 L11.069,34.294" id="Fill-25" ></path>
            <path d="M9.341,33.813 L9.651,33.915 L10.19,32.251 L9.881,32.15 L9.341,33.813" id="Fill-26" ></path>
            <path d="M8.683,31.691 L7.97,33.287 L7.671,33.154 L8.384,31.558 L8.683,31.691" id="Fill-27" ></path>
            <path d="M5.88,30.113 L4.852,31.525 L4.587,31.333 L5.614,29.919 L5.88,30.113" id="Fill-28" ></path>
            <path d="M4.617,29.113 L3.447,30.409 L3.204,30.191 L4.373,28.892 L4.617,29.113" id="Fill-29" ></path>
            <path d="M3.465,27.985 L2.167,29.153 L1.948,28.912 L3.247,27.742 L3.465,27.985" id="Fill-30" ></path>
            <path d="M2.44,26.744 L1.025,27.771 L0.833,27.509 L2.249,26.479 L2.44,26.744" id="Fill-31" ></path>
            <path d="M29.43,22.433 L31.091,22.973 L31.194,22.663 L29.53,22.123 L29.43,22.433" id="Fill-32" ></path>
            <path d="M14.79,4.054 C14.509,4.054 14.281,3.891 14.281,3.689 L14.281,0.393 C14.281,0.191 14.509,0.028 14.79,0.028 C15.071,0.028 15.298,0.191 15.298,0.393 L15.298,3.689 C15.298,3.891 15.071,4.054 14.79,4.054" id="Fill-33" ></path>
            <path d="M3.06,24.025 C3.218,24.257 3.213,24.536 3.049,24.646 L0.372,26.469 C0.208,26.58 -0.054,26.482 -0.212,26.25 C-0.37,26.018 -0.364,25.739 -0.2,25.627 L2.477,23.806 C2.642,23.695 2.901,23.792 3.06,24.025" id="Fill-34" ></path>
            <path d="M14.79,34.935 C14.509,34.935 14.281,34.772 14.281,34.571 L14.281,31.295 C14.281,31.094 14.509,30.931 14.79,30.931 C15.071,30.931 15.298,31.094 15.298,31.295 L15.298,34.571 C15.298,34.772 15.071,34.935 14.79,34.935" id="Fill-35" ></path>
            <path d="M28.159,17.642 C28.159,17.36 28.323,17.132 28.526,17.132 L31.836,17.132 C32.038,17.132 32.204,17.36 32.204,17.642 C32.204,17.922 32.038,18.15 31.836,18.15 L28.526,18.15 C28.323,18.15 28.159,17.922 28.159,17.642" id="Fill-36" ></path>
            <path d="M26.923,24.6 C27.07,24.36 27.313,24.243 27.466,24.335 L29.953,25.864 C30.106,25.958 30.11,26.228 29.963,26.466 C29.815,26.707 29.573,26.824 29.421,26.731 L26.933,25.203 C26.781,25.109 26.776,24.838 26.923,24.6" id="Fill-37" ></path>
            <path d="M21.734,29.175 C21.989,29.054 22.257,29.086 22.335,29.249 L23.614,31.898 C23.692,32.061 23.551,32.292 23.298,32.414 C23.044,32.536 22.776,32.504 22.698,32.341 L21.419,29.691 C21.341,29.528 21.482,29.297 21.734,29.175" id="Fill-38" ></path>
            <path d="M26.489,10.678 C26.36,10.428 26.396,10.155 26.565,10.067 L29.337,8.647 C29.508,8.56 29.749,8.691 29.877,8.941 C30.006,9.191 29.972,9.465 29.802,9.553 L27.028,10.973 C26.858,11.06 26.616,10.928 26.489,10.678" id="Fill-39" ></path>
            <path d="M6.273,32.541 C6.03,32.399 5.917,32.143 6.018,31.967 L7.683,29.11 C7.784,28.935 8.063,28.908 8.307,29.049 C8.55,29.191 8.663,29.447 8.562,29.622 L6.898,32.479 C6.796,32.655 6.516,32.682 6.273,32.541" id="Fill-40" ></path>
            <path d="M21.265,5.852 C21.036,5.688 20.946,5.423 21.061,5.262 L22.96,2.627 C23.076,2.465 23.354,2.468 23.583,2.632 C23.812,2.796 23.902,3.061 23.785,3.222 L21.888,5.857 C21.77,6.019 21.492,6.016 21.265,5.852" id="Fill-41" ></path>
            <path d="M7.751,8.534 C7.675,8.535 7.602,8.565 7.548,8.622 L3.184,13.088 C3.13,13.144 3.1,13.218 3.1,13.295 L3.148,17.464 C3.148,17.584 3.221,17.688 3.331,17.732 C3.438,17.775 3.562,17.749 3.645,17.665 L6.063,15.189 L6.124,20.371 C6.126,20.532 6.259,20.662 6.417,20.659 L9.362,20.626 C9.523,20.625 9.65,20.493 9.648,20.332 L9.589,15.148 L12.063,17.568 C12.148,17.651 12.274,17.674 12.382,17.629 C12.488,17.583 12.559,17.476 12.559,17.358 L12.511,13.19 C12.509,13.111 12.479,13.039 12.423,12.983 L7.958,8.617 C7.904,8.564 7.831,8.534 7.757,8.534 L7.751,8.534" id="Fill-42" ></path>
            <path d="M20.145,12.791 L17.203,12.874 C17.042,12.878 16.917,13.012 16.921,13.173 L17.065,18.354 L14.552,15.975 C14.466,15.894 14.341,15.873 14.233,15.922 C14.126,15.969 14.058,16.077 14.062,16.194 L14.179,20.363 C14.181,20.441 14.214,20.514 14.269,20.565 L18.806,24.859 C18.862,24.912 18.937,24.939 19.013,24.936 C19.091,24.934 19.164,24.904 19.218,24.848 L23.507,20.307 C23.56,20.251 23.589,20.177 23.587,20.099 L23.47,15.93 C23.466,15.814 23.392,15.708 23.282,15.668 C23.173,15.624 23.048,15.654 22.966,15.74 L20.589,18.255 L20.442,13.074 C20.438,12.917 20.311,12.79 20.153,12.79 C20.153,12.79 20.149,12.791 20.145,12.791" id="Fill-47" ></path>
        </g>
    </g>
</svg>