<?xml version="1.0" encoding="UTF-8" standalone="no"?>
<svg width="32px" height="28px" viewBox="0 0 32 28" version="1.1" xmlns="http://www.w3.org/2000/svg" xmlns:xlink="http://www.w3.org/1999/xlink" xmlns:sketch="http://www.bohemiancoding.com/sketch/ns">
    <!-- Generator: Sketch 3.1.1 (8761) - http://www.bohemiancoding.com/sketch -->
    <title>icon-question@1x</title>
    <desc></desc>
    <defs></defs>
    <g id="Page-1" stroke="none" stroke-width="1"  fill-rule="evenodd" >
        <g id="icon-question">
            <path d="M20.3726222,14.3381538 C22.8060444,13.1865641 24.4928,11.1633846 24.4928,7.84861538 L24.4928,7.77251282 C24.4928,3.48851282 21.5146667,0.692820513 17.0062222,0.290051282 L14.6922667,0.290051282 C11.8961778,0.537025641 9.77848889,1.68287179 8.06044444,3.31907692 C7.5456,3.76492308 7.32586667,4.35794872 7.32586667,4.91651282 C7.32586667,6.02861538 8.24391111,6.95620513 9.38311111,6.95620513 C9.89795556,6.95620513 10.3758222,6.73364103 10.7441778,6.43641026 C12.2147556,5.10102564 13.7948444,4.396 15.744,4.396 C18.3900444,4.396 19.9715556,5.84338462 19.9715556,7.92112821 L19.9715556,7.99579487 C19.9715556,10.3341538 18.0593778,11.6695385 14.6040889,12.0048205 C13.6120889,12.1153846 13.0232889,12.8584615 13.1704889,13.86 L13.5374222,17.0512821 C13.6476444,17.905641 14.2727111,18.5374359 15.1189333,18.5374359 L15.3393778,18.5374359 C16.1856,18.5374359 16.7729778,17.8690256 16.9201778,17.0512821 L17.0673778,15.3447179 C18.2535111,15.1386667 19.3742222,14.8105641 20.3719111,14.3381538 L20.3726222,14.3381538 Z M15.9196444,21.3704615 C15.6679111,21.2957949 15.4033778,21.2455385 15.1189333,21.2455385 C13.6120889,21.2455385 12.5091556,22.3597949 12.5091556,23.8071795 L12.5091556,24.177641 C12.5091556,24.8158974 12.7324444,25.3809231 13.1008,25.8224615 C13.5687111,26.3831795 14.2755556,26.7392821 15.1189333,26.7392821 C16.6257778,26.7392821 17.7287111,25.6257436 17.7287111,24.177641 L17.7287111,23.8071795 C17.7287111,22.6333333 16.9969778,21.6899487 15.9196444,21.3704615 Z M24.8952889,25.4153846 C24.8135111,25.3794872 24.7281778,25.3608205 24.6464,25.3608205 C24.4273778,25.3608205 24.2261333,25.4886154 24.1272889,25.7140513 L23.9345778,26.1548718 C23.7980444,26.4643077 23.9239111,26.7924103 24.2311111,26.9302564 C24.5368889,27.0659487 24.8632889,26.9395897 24.9991111,26.6301538 L25.1911111,26.1907692 C25.3269333,25.8813333 25.2017778,25.5532308 24.8952889,25.4153846 Z M29.6490667,15.4653333 C28.9493333,15.1523077 28.2887111,15.0180513 27.6600889,15.0180513 C27.3976889,15.0180513 27.1431111,15.0474872 26.8906667,15.0905641 C26.3388444,15.1860513 25.8090667,15.3684103 25.2970667,15.6211282 C25.1982222,15.6742564 25.1214222,15.7582564 25.0794667,15.8551795 C24.9870222,16.0669744 25.0830222,16.2859487 25.2928,16.38 C25.4215111,16.4367179 25.5630222,16.4230769 25.6867556,16.3598974 C25.8673778,16.2744615 26.0472889,16.2026667 26.2279111,16.1380513 C27.2376889,15.7754872 28.2488889,15.7331282 29.2878222,16.2005128 C30.9326222,16.9349744 31.4730667,18.5209231 30.8864,19.8555897 L30.8714667,19.8878974 C30.1781333,21.4681026 28.544,21.8076923 26.6872889,21.1134359 C26.4384,21.0222564 26.2151111,21.1364103 26.1383111,21.3546667 L25.3937778,23.533641 C25.3233778,23.7368205 25.3937778,23.8861538 25.5232,23.9435897 L25.5552,23.9572308 C25.6839111,24.0146667 25.8396444,23.9672821 25.9413333,23.7791795 L26.8636444,22.0302564 C28.8341333,22.6390769 30.8551111,22.2578462 31.7411556,20.2389744 L31.7553778,20.2059487 C31.8670222,19.9510769 31.9466667,19.6904615 31.9943111,19.4276923 L31.9943111,18.2344615 C31.7880889,17.1087179 30.9966222,16.0684103 29.6490667,15.4653333 Z M8.45226667,17.1632821 C7.8592,15.7525128 6.68657778,15.022359 5.27288889,15.022359 C4.63288889,15.022359 3.94382222,15.1709744 3.23697778,15.4753846 C1.74293333,16.1172308 0.8832,17.1252308 0.369066667,18.3134359 C0.224,18.6077949 0.2368,18.9122051 0.339911111,19.1584615 C0.548266667,19.6495385 1.12711111,19.8850256 1.62986667,19.669641 C1.85671111,19.5712821 2.02595556,19.3817436 2.13262222,19.1814359 C2.53368889,18.312 3.10044444,17.7017436 3.96088889,17.332 C5.12995556,16.8308718 6.09706667,17.1690256 6.48391111,18.0872821 L6.49671111,18.1195897 C6.93262222,19.152 6.33671111,20.1054359 4.87324444,20.9073846 C4.45511111,21.1443077 4.33422222,21.5851282 4.58524444,22.0001026 L5.34257778,23.3390769 C5.54951111,23.6937436 5.94204444,23.8552821 6.31608889,23.6937436 L6.41351111,23.6528205 C6.78684444,23.4934359 6.92195556,23.086359 6.8352,22.6965128 L6.58275556,21.9153846 C8.25244444,20.8305641 9.33688889,19.2611282 8.46648889,17.1970256 L8.45226667,17.1632821 Z M8.44942222,25.5266667 C8.25031111,25.0564103 7.82293333,24.7807179 7.34506667,24.7807179 C7.1744,24.7807179 6.99662222,24.8158974 6.82026667,24.8898462 C6.15395556,25.1755897 5.87448889,25.8770256 6.144,26.5167179 L6.21297778,26.6804103 C6.38008889,27.0774359 6.71075556,27.3351795 7.09617778,27.4069744 L7.53848889,27.4069744 C7.63875556,27.3897436 7.74115556,27.3588718 7.84142222,27.3157949 C8.50773333,27.0293333 8.7872,26.3300513 8.51768889,25.690359 L8.44942222,25.5266667 Z" id="Fill-1" ></path>
        </g>
    </g>
</svg>