<?xml version="1.0" encoding="UTF-8" standalone="no"?>
<svg width="32px" height="24px" viewBox="0 0 32 24" version="1.1" xmlns="http://www.w3.org/2000/svg" xmlns:xlink="http://www.w3.org/1999/xlink" xmlns:sketch="http://www.bohemiancoding.com/sketch/ns">
    <!-- Generator: Sketch 3.1.1 (8761) - http://www.bohemiancoding.com/sketch -->
    <title>icon-keyboard@1x</title>
    <desc></desc>
    <defs></defs>
    <g id="Page-1" stroke="none" stroke-width="1"  fill-rule="evenodd" >
        <g id="icon-keyboard"  transform="translate(1.000000, 1.000000)">
            <path d="M6.59466667,14.9403429 C5.306,14.9403429 5.306,13.6141714 5.306,13.6141714 L5.306,2.1648 C5.306,0.839314286 6.59466667,0.839314286 6.59466667,0.839314286 L26.27,0.839314286 C27.5586667,0.839314286 27.5586667,2.1648 27.5586667,2.1648 L27.5586667,13.6141714 C27.5586667,14.9403429 26.354,14.9403429 26.354,14.9403429 L6.59466667,14.9403429 L6.59466667,14.9403429 Z M2.20666667,7.8528 C2.20666667,7.1808 2.80533333,6.63291429 3.458,6.61028571 C4.10666667,6.63291429 4.626,7.1808 4.626,7.8528 C4.626,8.53988571 4.084,9.09737143 3.416,9.09737143 C2.748,9.09737143 2.20666667,8.53988571 2.20666667,7.8528 L2.20666667,7.8528 Z M28.6533333,6.50674286 L28.6533333,9.2016 C28.6533333,9.33668571 28.5466667,9.44502857 28.4153333,9.44502857 C28.2846667,9.44502857 28.178,9.33668571 28.178,9.2016 L28.178,6.50674286 C28.178,6.37165714 28.2846667,6.26194286 28.4153333,6.26194286 C28.5466667,6.26194286 28.6533333,6.37165714 28.6533333,6.50674286 L28.6533333,6.50674286 Z M29.4173333,14.2587429 L29.4173333,1.4496 C29.4173333,1.4496 29.4173333,-0.328457143 27.6886667,-0.328457143 L3.13866667,-0.328457143 C3.13866667,-0.328457143 1.40933333,-0.328457143 1.40933333,1.4496 L1.40933333,14.2587429 C1.40933333,14.2587429 1.40933333,16.0361143 3.13866667,16.0361143 L27.6886667,16.0361143 C27.6886667,16.0361143 29.4173333,16.0361143 29.4173333,14.2587429 L29.4173333,14.2587429 Z" id="Fill-1" ></path>
            <path d="M5.89866667,19.1540571 C5.89866667,19.4242286 5.68533333,19.6422857 5.42266667,19.6422857 L3.52,19.6422857 C3.258,19.6422857 3.04466667,19.4242286 3.04466667,19.1540571 C3.04466667,18.8832 3.258,18.6651429 3.52,18.6651429 L5.42266667,18.6651429 C5.68533333,18.6651429 5.89866667,18.8832 5.89866667,19.1540571" id="Fill-2" ></path>
            <path d="M9.42866667,19.1540571 C9.42866667,19.4242286 9.21533333,19.6422857 8.95333333,19.6422857 L7.05,19.6422857 C6.788,19.6422857 6.57466667,19.4242286 6.57466667,19.1540571 C6.57466667,18.8832 6.788,18.6651429 7.05,18.6651429 L8.95333333,18.6651429 C9.21533333,18.6651429 9.42866667,18.8832 9.42866667,19.1540571" id="Fill-3" ></path>
            <path d="M12.9586667,19.1540571 C12.9586667,19.4242286 12.7453333,19.6422857 12.4833333,19.6422857 L10.58,19.6422857 C10.318,19.6422857 10.1046667,19.4242286 10.1046667,19.1540571 C10.1046667,18.8832 10.318,18.6651429 10.58,18.6651429 L12.4833333,18.6651429 C12.7453333,18.6651429 12.9586667,18.8832 12.9586667,19.1540571" id="Fill-4" ></path>
            <path d="M16.488,19.1540571 C16.488,19.4242286 16.2753333,19.6422857 16.0126667,19.6422857 L14.11,19.6422857 C13.848,19.6422857 13.6346667,19.4242286 13.6346667,19.1540571 C13.6346667,18.8832 13.848,18.6651429 14.11,18.6651429 L16.0126667,18.6651429 C16.2753333,18.6651429 16.488,18.8832 16.488,19.1540571" id="Fill-5" ></path>
            <path d="M20.0186667,19.1540571 C20.0186667,19.4242286 19.8053333,19.6422857 19.542,19.6422857 L17.6406667,19.6422857 C17.378,19.6422857 17.1646667,19.4242286 17.1646667,19.1540571 C17.1646667,18.8832 17.378,18.6651429 17.6406667,18.6651429 L19.542,18.6651429 C19.8053333,18.6651429 20.0186667,18.8832 20.0186667,19.1540571" id="Fill-6" ></path>
            <path d="M23.5486667,19.1540571 C23.5486667,19.4242286 23.336,19.6422857 23.072,19.6422857 L21.1706667,19.6422857 C20.908,19.6422857 20.6946667,19.4242286 20.6946667,19.1540571 C20.6946667,18.8832 20.908,18.6651429 21.1706667,18.6651429 L23.072,18.6651429 C23.336,18.6651429 23.5486667,18.8832 23.5486667,19.1540571" id="Fill-7" ></path>
            <path d="M27.0786667,19.1540571 C27.0786667,19.4242286 26.866,19.6422857 26.6033333,19.6422857 L24.7006667,19.6422857 C24.438,19.6422857 24.2246667,19.4242286 24.2246667,19.1540571 C24.2246667,18.8832 24.438,18.6651429 24.7006667,18.6651429 L26.6033333,18.6651429 C26.866,18.6651429 27.0786667,18.8832 27.0786667,19.1540571" id="Fill-8" ></path>
            <path d="M4.186,20.6537143 C4.186,20.9245714 3.97333333,21.1426286 3.71,21.1426286 L1.808,21.1426286 C1.54533333,21.1426286 1.33266667,20.9245714 1.33266667,20.6537143 C1.33266667,20.3835429 1.54533333,20.1648 1.808,20.1648 L3.71,20.1648 C3.97333333,20.1648 4.186,20.3835429 4.186,20.6537143" id="Fill-9" ></path>
            <path d="M7.716,20.6537143 C7.716,20.9245714 7.50333333,21.1426286 7.24066667,21.1426286 L5.338,21.1426286 C5.07533333,21.1426286 4.86266667,20.9245714 4.86266667,20.6537143 C4.86266667,20.3835429 5.07533333,20.1648 5.338,20.1648 L7.24066667,20.1648 C7.50333333,20.1648 7.716,20.3835429 7.716,20.6537143" id="Fill-10" ></path>
            <path d="M11.2466667,20.6537143 C11.2466667,20.9245714 11.0333333,21.1426286 10.7706667,21.1426286 L8.868,21.1426286 C8.60533333,21.1426286 8.39266667,20.9245714 8.39266667,20.6537143 C8.39266667,20.3835429 8.60533333,20.1648 8.868,20.1648 L10.7706667,20.1648 C11.0333333,20.1648 11.2466667,20.3835429 11.2466667,20.6537143" id="Fill-11" ></path>
            <path d="M14.7766667,20.6537143 C14.7766667,20.9245714 14.5633333,21.1426286 14.3,21.1426286 L12.3986667,21.1426286 C12.136,21.1426286 11.9226667,20.9245714 11.9226667,20.6537143 C11.9226667,20.3835429 12.136,20.1648 12.3986667,20.1648 L14.3,20.1648 C14.5633333,20.1648 14.7766667,20.3835429 14.7766667,20.6537143" id="Fill-12" ></path>
            <path d="M18.3066667,20.6537143 C18.3066667,20.9245714 18.0933333,21.1426286 17.83,21.1426286 L15.9286667,21.1426286 C15.666,21.1426286 15.4526667,20.9245714 15.4526667,20.6537143 C15.4526667,20.3835429 15.666,20.1648 15.9286667,20.1648 L17.83,20.1648 C18.0933333,20.1648 18.3066667,20.3835429 18.3066667,20.6537143" id="Fill-13" ></path>
            <path d="M21.8366667,20.6537143 C21.8366667,20.9245714 21.624,21.1426286 21.3613333,21.1426286 L19.458,21.1426286 C19.196,21.1426286 18.9833333,20.9245714 18.9833333,20.6537143 C18.9833333,20.3835429 19.196,20.1648 19.458,20.1648 L21.3613333,20.1648 C21.624,20.1648 21.8366667,20.3835429 21.8366667,20.6537143" id="Fill-14" ></path>
            <path d="M25.3666667,20.6537143 C25.3666667,20.9245714 25.1533333,21.1426286 24.8913333,21.1426286 L22.988,21.1426286 C22.726,21.1426286 22.5126667,20.9245714 22.5126667,20.6537143 C22.5126667,20.3835429 22.726,20.1648 22.988,20.1648 L24.8913333,20.1648 C25.1533333,20.1648 25.3666667,20.3835429 25.3666667,20.6537143" id="Fill-15" ></path>
            <path d="M28.854,20.6537143 C28.854,20.9245714 28.6413333,21.1426286 28.378,21.1426286 L26.476,21.1426286 C26.2126667,21.1426286 26,20.9245714 26,20.6537143 C26,20.3835429 26.2126667,20.1648 26.476,20.1648 L28.378,20.1648 C28.6413333,20.1648 28.854,20.3835429 28.854,20.6537143" id="Fill-16" ></path>
            <path d="M2.728,22.2850286 C2.728,22.5545143 2.51533333,22.7739429 2.252,22.7739429 L0.349333333,22.7739429 C0.0866666667,22.7739429 -0.125333333,22.5545143 -0.125333333,22.2850286 C-0.125333333,22.0141714 0.0866666667,21.7961143 0.349333333,21.7961143 L2.252,21.7961143 C2.51533333,21.7961143 2.728,22.0141714 2.728,22.2850286" id="Fill-17" ></path>
            <path d="M6.258,22.2850286 C6.258,22.5545143 6.044,22.7739429 5.78266667,22.7739429 L3.87933333,22.7739429 C3.61733333,22.7739429 3.404,22.5545143 3.404,22.2850286 C3.404,22.0141714 3.61733333,21.7961143 3.87933333,21.7961143 L5.78266667,21.7961143 C6.044,21.7961143 6.258,22.0141714 6.258,22.2850286" id="Fill-18" ></path>
            <path d="M9.788,22.2850286 C9.788,22.5545143 9.57466667,22.7739429 9.31266667,22.7739429 L7.40933333,22.7739429 C7.14733333,22.7739429 6.934,22.5545143 6.934,22.2850286 C6.934,22.0141714 7.14733333,21.7961143 7.40933333,21.7961143 L9.31266667,21.7961143 C9.57466667,21.7961143 9.788,22.0141714 9.788,22.2850286" id="Fill-19" ></path>
            <path d="M13.3186667,22.2850286 C13.3186667,22.5545143 13.1046667,22.7739429 12.842,22.7739429 L10.9393333,22.7739429 C10.6773333,22.7739429 10.464,22.5545143 10.464,22.2850286 C10.464,22.0141714 10.6773333,21.7961143 10.9393333,21.7961143 L12.842,21.7961143 C13.1046667,21.7961143 13.3186667,22.0141714 13.3186667,22.2850286" id="Fill-20" ></path>
            <path d="M16.848,22.2850286 C16.848,22.5545143 16.6346667,22.7739429 16.372,22.7739429 L14.4693333,22.7739429 C14.2073333,22.7739429 13.994,22.5545143 13.994,22.2850286 C13.994,22.0141714 14.2073333,21.7961143 14.4693333,21.7961143 L16.372,21.7961143 C16.6346667,21.7961143 16.848,22.0141714 16.848,22.2850286" id="Fill-21" ></path>
            <path d="M20.378,22.2850286 C20.378,22.5545143 20.1646667,22.7739429 19.9026667,22.7739429 L17.9993333,22.7739429 C17.7373333,22.7739429 17.524,22.5545143 17.524,22.2850286 C17.524,22.0141714 17.7373333,21.7961143 17.9993333,21.7961143 L19.9026667,21.7961143 C20.1646667,21.7961143 20.378,22.0141714 20.378,22.2850286" id="Fill-22" ></path>
            <path d="M23.908,22.2850286 C23.908,22.5545143 23.6946667,22.7739429 23.432,22.7739429 L21.5293333,22.7739429 C21.2666667,22.7739429 21.054,22.5545143 21.054,22.2850286 C21.054,22.0141714 21.2666667,21.7961143 21.5293333,21.7961143 L23.432,21.7961143 C23.6946667,21.7961143 23.908,22.0141714 23.908,22.2850286" id="Fill-23" ></path>
            <path d="M27.3953333,22.2850286 C27.3953333,22.5545143 27.1826667,22.7739429 26.92,22.7739429 L25.0173333,22.7739429 C24.7546667,22.7739429 24.542,22.5545143 24.542,22.2850286 C24.542,22.0141714 24.7546667,21.7961143 25.0173333,21.7961143 L26.92,21.7961143 C27.1826667,21.7961143 27.3953333,22.0141714 27.3953333,22.2850286" id="Fill-24" ></path>
            <path d="M30.8193333,22.2850286 C30.8193333,22.5545143 30.6073333,22.7739429 30.3446667,22.7739429 L28.442,22.7739429 C28.1793333,22.7739429 27.9666667,22.5545143 27.9666667,22.2850286 C27.9666667,22.0141714 28.1793333,21.7961143 28.442,21.7961143 L30.3446667,21.7961143 C30.6073333,21.7961143 30.8193333,22.0141714 30.8193333,22.2850286" id="Fill-25" ></path>
        </g>
    </g>
</svg>