<?xml version="1.0" encoding="utf-8"?>
<!-- Generator: Adobe Illustrator 19.0.0, SVG Export Plug-In . SVG Version: 6.00 Build 0)  -->
<svg version="1.1" id="Layer_1" xmlns="http://www.w3.org/2000/svg" xmlns:xlink="http://www.w3.org/1999/xlink" x="0px" y="0px"
	 viewBox="-581 409.1 27.1 23.7" style="enable-background:new -581 409.1 27.1 23.7;" xml:space="preserve">
<style type="text/css">
	.st0{fill:#0065A6;}
</style>
<g>
	<g>
		<path class="st0" d="M-567.9,422.7L-567.9,422.7c-0.2-1.1-0.9-1.8-1.7-1.7c-0.8,0.1-1.2,1-1,2.1l0,0c0.2,1.1,0.8,1.8,1.7,1.7
			C-568.1,424.7-567.8,423.8-567.9,422.7"/>
	</g>
	<g>
		<path class="st0" d="M-562,421.7c-0.2-1.1-0.9-1.8-1.6-1.7c-0.8,0.1-1.2,1-1,2.1l0,0c0.2,1.1,0.8,1.8,1.7,1.7
			C-562.2,423.7-561.8,422.8-562,421.7L-562,421.7"/>
	</g>
	<g>
		<path class="st0" d="M-575.3,412.1c1.4,0.8,2.4,1.9,3,3l-6.2,2.5l-1.2,0.5l-0.8,0.3c-0.8,0.3-0.5,1.1-0.5,1.1l1.2,3l1.2,2.9
			l2.8,6.9c0.3,0.8,1.1,0.5,1.1,0.5l10.6-4.2l1.1-0.4l8.4-3.4c0.8-0.3,0.5-1.1,0.5-1.1l-5.2-12.8c-0.3-0.8-1.1-0.5-1.1-0.5l-2.6,1
			l-1.9,0.7l-6.1,2.4c-0.5-0.9-1.1-1.8-1.9-2.5c0,0-1-0.9-3-1.9c-1.5-0.7-2.8-1-2.8-1c-0.4-0.1-0.8,0.2-0.9,0.6
			c-0.1,0.3,0.1,0.6,0.4,0.8C-579.2,410.5-576.9,411.2-575.3,412.1 M-575.6,424.9l-1.5,0.2c-0.3,0.1-0.7-0.2-0.7-0.5
			c-0.1-0.3,0.2-0.7,0.5-0.7l1.5-0.2c0.3-0.1,0.7,0.2,0.7,0.5C-575,424.5-575.2,424.9-575.6,424.9 M-572.7,426.6
			c-0.4,0.1-0.7-0.2-0.8-0.5l-0.7-4.2l-0.5,0.2c-0.1,0-0.2,0.1-0.2,0.1c-0.3,0-0.6-0.2-0.7-0.5c0-0.3,0.1-0.5,0.3-0.6l0.8-0.4
			c0.2-0.1,0.4-0.2,0.6-0.2l0,0c0.4-0.1,0.7,0.2,0.8,0.5l0.8,4.8C-572.1,426.2-572.3,426.5-572.7,426.6 M-571.7,416.8
			c0.1,0.3,0.1,0.6,0.1,0.9c0,0.4,0.4,0.7,0.8,0.7h0c0.4,0,0.8-0.4,0.7-0.8c0-0.3,0-0.6-0.1-0.9c0.2,0.1,0.3,0.3,0.4,0.5
			c0.2,0.6-0.1,1.3-0.7,1.5c-0.6,0.2-1.3-0.1-1.5-0.7C-572.2,417.6-572.1,417.2-571.7,416.8 M-568.8,426c-1.6,0.3-2.9-0.9-3.2-2.7
			l0,0c-0.3-1.7,0.6-3.3,2.2-3.5c1.6-0.3,2.9,0.9,3.2,2.7l0,0C-566.3,424.2-567.1,425.8-568.8,426 M-562.8,425
			c-1.6,0.3-2.9-0.9-3.2-2.7l0,0c-0.3-1.7,0.6-3.3,2.2-3.5c1.6-0.3,2.9,0.9,3.2,2.7l0,0C-560.3,423.2-561.2,424.8-562.8,425
			 M-557.2,420.6c-0.2,0.4-0.5,0.6-1,0.7c-0.8,0.1-1.4-0.3-1.7-0.9l-0.2,0c-0.1,0-0.3-0.1-0.3-0.2c0-0.1,0-0.1,0-0.2
			c0-0.1,0.1-0.1,0.2-0.1l0.2,0c0,0,0-0.1,0-0.2c0-0.1,0-0.1,0-0.2l-0.2,0c-0.1,0-0.3-0.1-0.3-0.2c0-0.1,0.1-0.3,0.2-0.3l0.2,0
			c0.1-0.7,0.5-1.2,1.3-1.4c0.4-0.1,0.7,0,0.9,0.1c0.1,0,0.2,0.1,0.2,0.2c0.1,0,0.1,0.1,0.2,0.2c0,0.2-0.1,0.4-0.3,0.4
			c-0.1,0-0.1,0-0.2,0c0,0-0.1,0-0.1-0.1c-0.1-0.1-0.2-0.1-0.3-0.2c-0.1,0-0.2,0-0.3,0c-0.3,0.1-0.5,0.2-0.6,0.5l0.7-0.1
			c0.1,0,0.3,0.1,0.3,0.2c0,0,0,0.1,0,0.1c0,0.1-0.1,0.2-0.2,0.2l-0.8,0.1c0,0,0,0.1,0,0.1c0,0,0,0.1,0,0.1c0,0.1,0,0.1,0,0.2
			l0.8-0.1c0.1,0,0.3,0.1,0.3,0.2c0,0.1,0,0.1,0,0.2c0,0.1-0.1,0.1-0.2,0.1l-0.7,0.1c0.2,0.3,0.4,0.4,0.8,0.4c0.3,0,0.4-0.2,0.5-0.4
			c0,0,0.1-0.1,0.1-0.1c0,0,0.1,0,0.1-0.1c0.1,0,0.2,0,0.3,0.1c0.1,0.1,0.1,0.1,0.1,0.2C-557.1,420.5-557.2,420.5-557.2,420.6"/>
	</g>
</g>
</svg>
