<?xml version="1.0" encoding="utf-8"?>
<!-- Generator: Adobe Illustrator 16.0.0, SVG Export Plug-In . SVG Version: 6.00 Build 0)  -->
<!DOCTYPE svg PUBLIC "-//W3C//DTD SVG 1.1//EN" "http://www.w3.org/Graphics/SVG/1.1/DTD/svg11.dtd">
<svg version="1.1" id="Layer_1" xmlns="http://www.w3.org/2000/svg" xmlns:xlink="http://www.w3.org/1999/xlink" x="0px" y="0px"
	 width="865px" height="270px" viewBox="0 0 865 270" enable-background="new 0 0 865 270" xml:space="preserve">
<g>
	<g>
		<path fill="#009BCD" d="M123.499,94.244c-6.447-7.517-15.753-9.481-23.369-9.489s-16.923,1.972-23.368,9.489
			c-6.434,7.493-7.359,17.375-7.359,27.015c0,9.642,0.925,20.861,7.359,28.357c6.445,7.514,15.753,9.496,23.368,9.486
			c7.615-0.008,16.922-1.973,23.369-9.486c6.434-7.496,7.359-18.129,7.359-28.357S129.933,101.736,123.499,94.244z M115.18,141.975
			c-3.643,4.617-9.179,6.42-15.05,6.42s-11.407-1.803-15.05-6.42c-3.675-4.656-4.113-12.405-4.113-20.716
			c0-8.312,0.438-14.721,4.113-19.377c3.643-4.618,9.179-6.406,15.05-6.406s11.407,1.789,15.05,6.406
			c3.675,4.657,4.114,11.075,4.114,19.377C119.294,129.562,118.855,137.318,115.18,141.975z"/>
		<path fill="#009BCD" d="M194.431,92.042c0-3.1-2.512-5.611-5.61-5.611c-3.099,0-5.611,2.511-5.611,5.611l-0.009,52.725
			c0,0.955-0.699,1.83-1.422,2.127c-0.723,0.295-3.832,1.51-14.425,1.51c-5.313,0-10.944-2.121-14.39-6.676
			c-3.475-4.596-3.894-12.6-3.894-20.791l-0.001-28.895c0-3.1-2.512-5.611-5.61-5.611c-3.099,0-5.611,2.511-5.611,5.611
			l-0.004,28.873c0,10.09,0.637,20.928,7.193,28.862c5.726,6.93,15.314,9.359,22.318,9.359c4.444,0,14.167,0.309,22.929-2.951
			c2.411-0.807,4.132-3.939,4.132-6.621L194.431,92.042z"/>
		<path fill="#009BCD" d="M389.055,92.042c0-3.1-2.512-5.611-5.61-5.611c-3.099,0-5.611,2.511-5.611,5.611l-0.009,52.725
			c0,0.955-0.699,1.83-1.422,2.127c-0.723,0.295-3.833,1.51-14.425,1.51c-5.313,0-10.944-2.121-14.39-6.676
			c-3.475-4.596-3.894-12.6-3.894-20.791l-0.001-28.895c0-3.1-2.512-5.611-5.61-5.611c-3.099,0-5.611,2.511-5.611,5.611
			l-0.004,28.873c0,10.09,0.637,20.928,7.193,28.862c5.727,6.93,15.314,9.359,22.318,9.359c4.444,0,14.167,0.309,22.929-2.951
			c2.411-0.807,4.132-3.939,4.132-6.621L389.055,92.042z"/>
		<path fill="#009BCD" d="M323.761,94.977c0-2.453-1.45-4.565-3.537-5.528c-9.48-4.073-20.232-4.671-25.096-4.671
			c-7.403,0-16.923,1.923-23.367,9.339c-6.434,7.392-7.359,18.699-7.359,28.79c0,10.091,0.925,19.39,7.359,26.785
			c6.444,7.416,15.73,9.42,23.367,9.42c7.029,0,14.785-3.152,17.238-5.816v9.637c0,5.176-1.235,9.26-3.723,12.131
			c-2.459,2.842-5.952,4.283-10.379,4.283c-2.923,0-5.947-0.385-8.991-1.133c-3.026-0.746-8.158-3.191-9.977-4.066
			c-1.819-0.875-5.187-0.203-6.716,2.26c-1.529,2.461-0.512,6.137,1.895,7.459c2.407,1.324,5.464,3.133,11.876,4.787
			c4.091,1.055,8.1,1.549,11.912,1.549c4.183,0,7.918-0.672,11.103-2.08c3.186-1.404,5.873-3.346,7.983-5.764
			c2.105-2.408,3.719-5.342,4.797-8.703c1.072-3.334,1.615-6.947,1.615-10.723L323.761,94.977z M312.219,135.814
			c0,4.043-1.704,6.764-3.613,8.561c-2.357,2.211-7.605,4.025-13.477,4.025c-5.871,0-11.406-1.689-15.049-6.246
			c-3.676-4.594-4.114-11.057-4.114-19.248c0-8.192,0.438-16.661,4.114-21.255c3.643-4.556,9.3-6.187,15.049-6.187
			c4.459,0,10.53,0.967,15.593,2.752c0.873,0.304,1.498,1.134,1.498,2.11V135.814z"/>
		<path fill="#009BCD" d="M504.435,99.754c0.398,0.102,0.814,0.156,1.244,0.155c2.785,0,5.047-2.265,5.047-5.06
			c0.002-0.063-0.004-0.125-0.004-0.188c0-1.627-1.027-4.03-3.008-5.26c-4.885-3.382-12.338-4.65-18.826-4.65
			c-6.496,0-13.365,1.642-17.633,4.879c-4.318,3.279-6.506,7.903-6.506,13.741c0,10.701,7.912,18.479,23.52,21.7
			c6.895,1.445,14.41,4.993,14.41,11.135c0,3.1-1.477,6.469-3.986,8.285c-4.021,2.924-9.832,3.506-12.688,3.527
			c-3.77,0.031-9.684-0.789-14.668-3.582c-0.215-0.15-0.447-0.277-0.688-0.406c-0.77-0.422-1.652-0.662-2.592-0.662
			c-2.984,0-5.404,2.426-5.404,5.424c0,1.275,0.438,2.447,1.172,3.373c0.445,0.605,1.002,1.15,1.668,1.566
			c6.738,4.664,16.334,5.367,20.697,5.367c4.121,0,8.119-0.852,12.533-2.219c3.17-0.984,5.918-2.418,8.176-4.271
			c2.254-1.855,4.047-4.125,5.324-6.744c1.279-2.627,2.191-6.525,2.191-9.658c0-14.354-12.744-20.029-23.867-22.197
			c-9.449-1.961-14.236-6.017-14.236-10.639c0-1.338,0.332-2.505,0.988-3.474c0.678-0.988,1.543-1.78,2.584-2.354
			c1.068-0.587,2.32-1.021,3.715-1.293c1.43-0.272,3.021-0.423,5.289-0.414c3.201,0.013,10.01,1.459,12.949,2.912
			C502.659,99.154,503.54,99.533,504.435,99.754z"/>
		<path fill="#009BCD" d="M54.257,94.116c-6.445-7.416-15.729-9.361-23.367-9.361c-7.028,0-14.783,3.089-17.238,5.758l0-33.638
			c0-3.144-2.547-5.691-5.689-5.691c-3.144,0-5.69,2.547-5.69,5.691l-0.015,91.842c0,2.709,1.69,5.023,4.076,5.947
			c9.343,3.869,19.785,4.434,24.556,4.434c7.406,0,16.922-1.9,23.367-9.314c6.436-7.395,7.361-17.75,7.361-27.841
			S60.693,101.508,54.257,94.116z M45.94,142.246c-3.644,4.555-9.301,6.164-15.051,6.164c-4.489,0-10.612-0.951-15.697-2.758h0.004
			c-0.811-0.264-1.396-1.025-1.396-1.922v-35.739c0-4.041,1.703-6.765,3.611-8.558c2.358-2.213,7.606-3.946,13.478-3.946
			c5.872,0,11.407,1.608,15.051,6.164c3.675,4.594,4.112,12.1,4.112,20.292C50.053,130.134,49.615,137.652,45.94,142.246z"/>
		<path fill="#009BCD" d="M234.235,139.826c-0.315,0.666-0.984,1.09-1.707,1.086c-0.878-0.008-1.514-0.926-1.751-1.266
			c-1.785-2.555-15.727-41.202-18.75-49.6c-1.055-2.845-4.261-4.317-7.101-3.268c-2.833,1.047-4.312,4.237-3.278,7.081
			l18.123,48.064c2.126,5.684,5.189,8.906,9.683,10.52l-11.016,29.178c-1.091,2.875,0.355,6.09,3.232,7.182
			c2.876,1.092,6.092-0.354,7.183-3.229l34.708-91.675c1.053-2.835-0.393-6.028-3.199-7.103c-2.83-1.084-6.066,0.36-7.151,3.211
			L234.235,139.826z"/>
		<path fill="#009BCD" d="M451.993,94.116c-8.072-9.46-21.037-9.375-23.69-9.36c-2.455,0.014-15.282,0.076-23.046,9.36
			c-3.517,4.206-4.911,8.814-5.875,12.88c-1.212,5.114-1.371,9.833-1.371,14.89c0,9.512,0.813,20.458,7.247,27.853
			c6.444,7.414,15.753,9.361,23.367,9.361c8.415,0,17.573-0.697,24.309-5.346c1.311-0.812,2.213-2.135,2.662-3.406
			c0.219-0.578,0.34-1.205,0.34-1.859c0-2.893-2.342-5.232-5.23-5.232c-0.674,0-1.309,0.146-1.908,0.357
			c-0.338,0.119-0.766,0.377-1.709,0.879c-4.977,2.783-9.727,4.074-18.463,3.873c-5.871,0-11.406-1.607-15.049-6.164
			c-3.403-4.254-3.916-11.02-3.991-18.504h43.851c3.285,0,5.947-2.661,5.947-5.944C459.384,101.754,451.993,94.116,451.993,94.116z
			 M409.874,113.487c-0.024-1.199-0.176-9.559,6.669-14.674c4.181-3.124,8.749-3.332,11.538-3.332c2.788,0,8.059-0.109,12.692,3.406
			c6.846,5.196,6.912,13.439,6.889,14.6H409.874z"/>
	</g>
	<g>
		<path fill="#EB5B00" d="M731.024,263.418c22.773,15.727,67.834-9.969,100.637-57.482c32.807-47.51,40.938-98.718,18.166-114.444
			c-22.779-15.727-66.703,8.657-99.51,56.171C717.515,195.172,708.255,247.691,731.024,263.418z"/>
		<path fill="#0053A5" d="M674.218,263.418c-22.773,15.727-67.834-9.969-100.637-57.482c-32.807-47.51-40.938-98.718-18.166-114.444
			c22.779-15.727,66.703,8.657,99.51,56.171C687.728,195.172,696.987,247.691,674.218,263.418z"/>
		<ellipse fill="#009BCD" cx="702.603" cy="52.002" rx="104.645" ry="50.042"/>
	</g>
	<g>
		<g>
			<path fill="#009BCD" d="M339.933,189.162h-1.339c-0.489,0-0.882-0.35-0.882-0.791v-13.52h-4.36c-0.488,0-0.884-0.354-0.884-0.789
				v-1.262c0-0.434,0.396-0.783,0.884-0.783h11.845c0.488,0,0.886,0.35,0.886,0.783v1.262c0,0.436-0.398,0.789-0.886,0.789h-4.381
				v13.52C340.816,188.812,340.419,189.162,339.933,189.162z"/>
		</g>
		<g>
			<path fill="#009BCD" d="M399.29,189.162h-10.677c-0.493,0-0.883-0.35-0.883-0.791v-15.57c0-0.434,0.39-0.783,0.883-0.783h1.333
				c0.495,0,0.891,0.35,0.891,0.783v13.527h8.454c0.488,0,0.89,0.35,0.89,0.785v1.258
				C400.179,188.812,399.778,189.162,399.29,189.162z"/>
		</g>
		<g>
			<path fill="#009BCD" d="M424.714,189.162H414.04c-0.488,0-0.885-0.35-0.885-0.791v-15.57c0-0.434,0.396-0.783,0.885-0.783h10.675
				c0.492,0,0.891,0.35,0.891,0.783v1.262c0,0.436-0.398,0.789-0.891,0.789h-8.453v4.279h7.066c0.496,0,0.887,0.352,0.887,0.777
				v1.203c0,0.43-0.391,0.779-0.887,0.779h-7.066v4.438h8.453c0.492,0,0.891,0.35,0.891,0.785v1.258
				C425.605,188.812,425.207,189.162,424.714,189.162z"/>
		</g>
		<g>
			<path fill="#009BCD" d="M371.542,189.162h-10.677c-0.488,0-0.881-0.35-0.881-0.791v-15.57c0-0.434,0.394-0.783,0.881-0.783
				h10.677c0.493,0,0.89,0.35,0.89,0.783v1.262c0,0.436-0.397,0.789-0.89,0.789h-8.455v4.279h7.068c0.495,0,0.885,0.352,0.885,0.777
				v1.203c0,0.43-0.391,0.779-0.885,0.779h-7.068v4.438h8.455c0.493,0,0.89,0.35,0.89,0.785v1.258
				C372.432,188.812,372.034,189.162,371.542,189.162z"/>
		</g>
		<g>
			<path fill="#009BCD" d="M509.853,189.162h-1.336c-0.49,0-0.893-0.35-0.893-0.791v-8.418l-3.635,8.713
				c-0.143,0.281-0.469,0.465-0.818,0.465h-1.328c-0.352,0-0.664-0.18-0.811-0.465l-3.742-8.775v8.48c0,0.441-0.4,0.791-0.881,0.791
				h-1.34c-0.486,0-0.883-0.35-0.883-0.791v-15.57c0-0.434,0.396-0.783,0.883-0.783h1.34c0.338,0,0.656,0.176,0.799,0.459
				l5.314,12.57l5.184-12.564c0.135-0.283,0.459-0.465,0.811-0.465h1.336c0.488,0,0.883,0.35,0.883,0.783v15.57
				C510.735,188.812,510.341,189.162,509.853,189.162z"/>
		</g>
		<path fill="#009BCD" d="M479.214,173.551c-1.355-1.203-3.24-1.805-5.123-1.807c-1.881,0.002-3.766,0.604-5.125,1.807
			c-1.932,1.709-2.221,3.48-2.221,7.014c0,3.537,0.289,5.305,2.221,7.012c1.367,1.205,3.18,1.863,5.125,1.863
			c1.947,0,3.758-0.658,5.123-1.863c1.934-1.707,2.221-3.475,2.221-7.012C481.435,177.031,481.147,175.26,479.214,173.551z
			 M476.847,185.777c-0.713,0.641-1.734,0.961-2.756,0.961s-2.041-0.32-2.762-0.961c-1.01-0.896-1.416-1.844-1.416-5.213
			s0.406-4.324,1.416-5.211c0.725-0.639,1.703-0.998,2.762-0.998c1.057,0,2.041,0.359,2.756,0.998
			c1.018,0.887,1.422,1.842,1.422,5.211S477.864,184.881,476.847,185.777z"/>
		<path fill="#009BCD" d="M452.903,183.971l-1.381-0.219c-0.412-0.064-0.82,0.141-0.973,0.49c-0.227,0.713-0.574,1.158-1.059,1.578
			c-0.717,0.639-1.701,0.998-2.758,0.998c-1.059,0-2.041-0.359-2.76-0.998c-1.014-0.889-1.418-1.842-1.418-5.211
			s0.404-4.354,1.418-5.242c0.719-0.639,1.701-0.998,2.76-0.998c1.057,0,2.041,0.359,2.758,0.998
			c0.484,0.42,0.832,0.863,1.059,1.576c0.152,0.354,0.561,0.553,0.973,0.492l1.381-0.217c0.266-0.045,0.488-0.188,0.629-0.395
			c0.146-0.201,0.166-0.463,0.08-0.688c-0.322-0.982-0.861-1.785-1.758-2.57c-1.355-1.205-3.236-1.807-5.121-1.807
			c-1.883,0-3.768,0.602-5.125,1.807c-1.932,1.707-2.221,3.48-2.221,7.012c0,3.533,0.289,5.338,2.221,7.037
			c1.357,1.207,3.242,1.809,5.125,1.809c1.885,0,3.766-0.602,5.121-1.809c0.896-0.781,1.436-1.582,1.758-2.564
			c0.086-0.227,0.066-0.486-0.08-0.691C453.392,184.158,453.169,184.016,452.903,183.971z"/>
	</g>
</g>
<rect id="_x3C_Slice_x3E_" x="0.834" y="2.04" fill="none" width="862" height="268"/>
</svg>