<?xml version="1.0" encoding="utf-8"?>
<!-- Generator: Adobe Illustrator 16.0.2, SVG Export Plug-In . SVG Version: 6.00 Build 0)  -->
<!DOCTYPE svg PUBLIC "-//W3C//DTD SVG 1.1//EN" "http://www.w3.org/Graphics/SVG/1.1/DTD/svg11.dtd">
<svg version="1.1" id="Layer_1" xmlns="http://www.w3.org/2000/svg" xmlns:xlink="http://www.w3.org/1999/xlink" x="0px" y="0px"
	 width="122px" height="60px" viewBox="0 0 122 60" enable-background="new 0 0 122 60" xml:space="preserve">
<g id="svg-13007">
	<rect y="13" display="none" stroke="#000000" stroke-miterlimit="10" width="122" height="34"/>
	<path stroke="#000000" stroke-miterlimit="10" d="M103.559,18.896h6.449V27h8.176l-0.009,6.5h-8.103v8h-6.467v-8h-8.392V27h8.345
		V18.896L103.559,18.896z"/>
	<path stroke="#000000" stroke-miterlimit="10" d="M92.254,24.636c-3.205-7.377-13.75-8.23-18.967-2.299
		c0.127-1.192,0.255-2.384,0.383-3.577c-2.574,0-5.152,0-7.729,0c-0.213,1.767-0.426,3.535-0.639,5.301c-0.021,0-0.041,0-0.064,0
		c-1.586-3.185-3.659-5.341-9.727-5.341L43.46,18.76c-0.489,3.725-0.979,7.451-1.469,11.177c-0.302,1.618-0.13,3.767-1.277,4.023
		c-0.497-0.002-0.69-0.087-1.021-0.19c-0.786-0.52,0.064-4.472,0.064-4.472c0.404-3.512,0.809-7.025,1.212-10.538
		c-7.194,0-14.391,0-21.585,0c-0.085,0.703-0.171,1.405-0.255,2.108c-0.021,0-0.043,0-0.064,0c-0.954-0.981-2.1-1.96-4.15-2.371
		c-5.555-1.111-10.566,4.185-8.814,9.587c0.398,1.229,1.114,2.144,1.916,2.874l-4.834,2.851c2.595,8.9,9.261,8.582,13.013,6.666
		c2.898-1.479,4.333-5.836,2.934-9.381c-0.398-1.008-1.98-2.818-1.98-2.818l2.299-1.98h3.129c0,0-1.312,9.964-1.908,14.944
		c2.554,0,5.229,0,7.784,0c0.617-4.938,1.234-9.998,1.852-14.936l2.107-0.009l-0.799,6.434c-0.25,5.229,3.194,7.863,6.374,8.627
		c4.995,1.199,8.122-1.549,9.242-2.86c-0.106,0.915-0.213,1.83-0.319,2.746l8.711,0.005c4.401,0.025,7.114-2.688,8.021-3.766
		c-0.148,1.19-0.299,2.504-0.447,3.695c0,0.021,0,0.043,0,0.063h7.662c0.236-1.829,0.471-3.659,0.703-5.49
		c0.319,0.512,0.641,1.021,0.959,1.531c1.017,1.396,2.485,2.546,4.158,3.266c6.483,2.793,12.721-0.33,15.191-4.986
		c0.749-1.416,1.093-3.057,1.404-4.918C93.672,28.278,92.884,26.083,92.254,24.636z M16.001,27.318
		c-0.643-0.575-0.992-3.387-3.066-2.809c-1.088,0.359-1.129,2.035-0.446,2.49c0.915,0.511,1.831,1.023,2.746,1.533
		c1.841,1.247,4.151,4.041,2.619,7.855C15.64,41.898,6.978,41.432,5.017,34.6c1.277-0.768,2.555-1.533,3.832-2.301
		c0.683,1.869,1.44,3.254,2.64,3.291c1.755,0.055,2.402-1.496,1.895-2.716c-0.659-1.581-4.656-2.005-5.812-5.237
		c-1.233-3.448,1.179-6.496,3.113-7.241c3.837-1.477,7.349,0.28,8.702,3.92L16.001,27.318z M43.718,39.389
		c-3.771,1.924-10.079-0.152-10.538-4.918c-0.3-3.115,1.014-9.707,1.014-9.707c-1.703,0-3.526,0-5.229,0
		c-0.618,4.979-1.235,9.962-1.852,14.943c-1.554,0-3.108,0-4.662,0c0.617-4.98,1.234-9.961,1.852-14.943c-1.384,0-2.767,0-4.151,0
		c0.17-1.491,0.34-2.981,0.511-4.471c6.215,0,12.432,0,18.648,0c-0.447,3.619-0.894,7.238-1.341,10.855
		c-0.366,2.164-0.016,3.963,1.789,4.344c1.226,0.258,2.374-0.37,2.809-0.957c0.837-1.129,0.722-2.907,1.022-4.598
		c0.405-3.214,0.81-6.43,1.213-9.644c1.554,0,3.108,0,4.663,0l-1.614,12.646C47.57,35.363,46.531,37.953,43.718,39.389z
		 M56.049,39.753l-7.414,0.019c0.787-6.492,1.575-12.984,2.362-19.479l6.147,0.016c5.792,0.208,7.885,5.668,7.847,8.806
		C64.921,34.807,61.585,39.357,56.049,39.753z M69.582,39.707l-4.662,0.064l2.364-19.479h4.661
		C71.158,26.764,69.582,39.707,69.582,39.707z M90.913,34.021c-1.435,3.406-4.248,5.619-8.485,6.067
		c-7.756,0.821-12.447-6.729-9.844-13.795c1.131-3.065,4.203-6.003,8.813-6.386C89.4,19.358,93.911,26.903,90.913,34.021z"/>
	<path stroke="#000000" stroke-miterlimit="10" d="M82.02,24.468c-6.789,0-7.906,11.088-0.119,11.088
		C88.164,35.557,89.441,24.468,82.02,24.468z M81.27,34.021c-4.588-0.469-4.043-7.728,0.703-8.045
		C87.604,25.977,86.168,34.525,81.27,34.021z"/>
	<path stroke="#000000" stroke-miterlimit="10" d="M59.301,25.914c-0.914-1.408-4.215-1.149-4.215-1.149l-1.277,10.473
		c0,0,2.583,0.354,4.031-0.639c1.388-0.953,2.145-2.148,2.463-4.403C60.515,28.692,60.087,27.125,59.301,25.914z M57.385,33.13
		c-0.47,0.375-1.089,0.399-1.788,0.574c0.277-2.47,0.553-4.939,0.83-7.408c0.447,0.085,0.894,0.171,1.341,0.255
		C59.643,27.721,58.661,32.107,57.385,33.13z"/>
</g>
</svg>
