<?xml version="1.0" encoding="utf-8"?>
<!-- Generator: Adobe Illustrator 16.0.0, SVG Export Plug-In . SVG Version: 6.00 Build 0)  -->
<!DOCTYPE svg PUBLIC "-//W3C//DTD SVG 1.1//EN" "http://www.w3.org/Graphics/SVG/1.1/DTD/svg11.dtd">
<svg version="1.1" id="Layer_1" xmlns:sketch="http://www.bohemiancoding.com/sketch/ns"
	 xmlns="http://www.w3.org/2000/svg" xmlns:xlink="http://www.w3.org/1999/xlink" x="0px" y="0px" width="32px" height="19px"
	 viewBox="0 0 32 19" enable-background="new 0 0 32 19" xml:space="preserve">
<title>icon-serviceclient@1x</title>
<desc></desc>
<g id="Page-1">
	<g id="icon-serviceclient" transform="translate(0.000000, 1.000000)">
		<path id="Fill-1" d="M7.008,2.416c0,0.657,0.224,1.229,0.667,1.717c0.442,0.484,1.052,0.728,1.828,0.728
			c0.679,0,1.255-0.244,1.732-0.728c0.473-0.488,0.71-1.076,0.71-1.764c0-0.689-0.24-1.271-0.721-1.736
			c-0.479-0.475-1.055-0.709-1.722-0.709c-0.789,0-1.398,0.246-1.836,0.74C7.227,1.153,7.008,1.74,7.008,2.416 M24.578,0.653
			c-0.133-0.15-0.287-0.271-0.454-0.375c-0.369-0.229-0.813-0.355-1.351-0.355c-0.654,0-1.232,0.24-1.722,0.722
			c-0.491,0.482-0.739,1.055-0.739,1.721c0,0.456,0.145,0.887,0.43,1.294c0.098,0.142,0.211,0.279,0.344,0.415
			c0.513,0.522,1.074,0.785,1.688,0.785c0.766,0,1.365-0.239,1.796-0.72c0.433-0.483,0.649-1.055,0.649-1.726
			C25.219,1.729,25.004,1.142,24.578,0.653 M23.955,10.635c-0.373-0.131-0.746-0.273-1.116-0.388
			c-1.551-0.479-3.196-0.778-4.938-0.898c-0.582-0.038-1.17-0.06-1.77-0.06c-1.236,0-2.418,0.084-3.544,0.248
			c-0.981,0.14-1.921,0.355-2.837,0.619c-0.137,0.039-0.279,0.068-0.414,0.112c-1.037,0.32-2.073,0.722-3.113,1.202
			c-1.039,0.484-2.094,1.047-3.168,1.691c-1.212,0.721-1.961,1.291-2.254,1.705c-0.291,0.416-0.434,1.008-0.434,1.773
			c0,0.547,0.15,0.82,0.442,0.82c0.087,0,0.614-0.232,1.583-0.692c0.414-0.196,0.867-0.396,1.346-0.599
			c0.635-0.271,1.323-0.548,2.074-0.826c1.312-0.492,2.865-0.922,4.66-1.297c1.026-0.215,2.09-0.359,3.181-0.45
			c0.81-0.067,1.634-0.106,2.478-0.106c1.596,0,3.129,0.127,4.604,0.366h0.002c0.344,0.058,0.69,0.112,1.027,0.183
			c1.789,0.364,3.344,0.799,4.67,1.297c0.04,0.016,0.076,0.031,0.117,0.047c1.271,0.477,2.375,0.943,3.3,1.386
			c0.959,0.46,1.487,0.692,1.584,0.692c0.296,0,0.442-0.273,0.442-0.82c0-0.734-0.151-1.314-0.458-1.74
			c-0.306-0.426-1.06-1.008-2.265-1.738c-0.08-0.051-0.16-0.092-0.244-0.142c-1.674-1-3.324-1.789-4.955-2.382"/>
	</g>
</g>
</svg>
