<?xml version="1.0" encoding="utf-8"?>
<!-- Generator: Adobe Illustrator 16.0.0, SVG Export Plug-In . SVG Version: 6.00 Build 0)  -->
<!DOCTYPE svg PUBLIC "-//W3C//DTD SVG 1.1//EN" "http://www.w3.org/Graphics/SVG/1.1/DTD/svg11.dtd">
<svg version="1.1" id="TV" xmlns="http://www.w3.org/2000/svg" xmlns:xlink="http://www.w3.org/1999/xlink" x="0px" y="0px"
	 width="120px" height="72px" viewBox="0 0 120 72" enable-background="new 0 0 120 72" xml:space="preserve">
<g>
	<path d="M86.771,68.743H32.809c-0.899,0-1.629,0.729-1.629,1.629S31.909,72,32.809,72h53.964
		c0.898,0,1.629-0.729,1.629-1.628S87.672,68.743,86.771,68.743z"/>
	<path d="M111.829,0H7.75C6.553,0,5.579,0.973,5.579,2.171v61.144c0,1.201,0.974,2.172,2.171,2.172h104.079
		c1.2,0,2.171-0.971,2.171-2.172V2.171C114,0.973,113.029,0,111.829,0z M110.743,62.229H8.836V3.257h101.907V62.229z"/>
	<rect x="12.093" y="6.514" fill="#0065A6" width="95.384" height="52.458"/>
</g>
</svg>
