<?xml version="1.0" encoding="UTF-8" standalone="no"?>
<svg width="20px" height="32px" viewBox="0 0 20 32" version="1.1" xmlns="http://www.w3.org/2000/svg" xmlns:xlink="http://www.w3.org/1999/xlink" xmlns:sketch="http://www.bohemiancoding.com/sketch/ns">
    <!-- Generator: Sketch 3.1.1 (8761) - http://www.bohemiancoding.com/sketch -->
    <title>icon-financement-mobile@1x</title>
    <desc></desc>
    <defs></defs>
    <g id="Page-1" stroke="none" stroke-width="1"  fill-rule="evenodd" >
        <g id="icon-financement-mobile"  transform="translate(1.000000, 0.000000)">
            <path d="M1.10333333,10.9904 L0.255833333,11.8032 L1.10333333,12.6168 L1.10333333,10.9904 Z M18.3466667,11.036 L18.3466667,2.7336 L18.3483333,2.7328 L18.3483333,1.9736 C18.3475,1.9736 18.3483333,0.036 16.33,0.036 L10.0783333,0.036 L11.2958333,1.2064 L10.0783333,0.0376 L1.79333333,0.0376 C1.79333333,0.0376 0.551666667,0.0424 0.0191666667,0.9784 C-0.128333333,1.236 -0.223333333,1.556 -0.223333333,1.9736 L-0.223333333,20.564 L1.10333333,19.2888 L1.10333333,12.6168 L0.255833333,11.8032 L0.255,11.8024 L1.10333333,10.9904 L1.10333333,3.5624 C1.10333333,3.0216 1.31333333,2.684 1.57583333,2.4752 C2.01666667,2.1184 2.60583333,2.1184 2.60583333,2.1184 L15.5991667,2.1184 C17.1025,2.1184 17.1025,3.4672 17.1025,3.4672 L17.1025,25.6112 C17.1025,26.52 16.5058333,26.8544 16.0625,26.98 C15.8058333,27.0528 15.5991667,27.0528 15.5991667,27.0528 L2.60583333,27.0528 C2.28666667,27.0528 2.04416667,26.98 1.8475,26.8752 C1.11333333,26.4952 1.10333333,25.6112 1.10333333,25.6112 L1.10333333,19.2904 L-0.223333333,20.564 L-0.223333333,29.4832 C-0.223333333,29.4832 -0.223333333,31.1968 1.45666667,31.4 L5.77916667,31.4 L6.7425,30.4768 L5.78083333,31.4 L9.62583333,31.4 L8.63416667,30.4472 C8.2375,30.3096 7.91833333,29.9936 7.76083333,29.608 C7.74916667,29.5816 7.7425,29.5528 7.73083333,29.5264 C7.6875,29.3952 7.65583333,29.2624 7.65166667,29.1232 C7.6775,28.3968 8.2975,27.8152 9.06083333,27.8152 C9.1975,27.8152 9.3275,27.8392 9.45333333,27.8736 C10.0391667,28.0392 10.4733333,28.5544 10.4733333,29.1704 C10.4733333,29.9216 9.84083333,30.5264 9.06083333,30.5264 C8.91083333,30.5264 8.76916667,30.4936 8.63416667,30.4472 L9.6275,31.4 L16.5741667,31.4 C17.1058333,31.328 18.3483333,31 18.3483333,29.4832 L18.3483333,19.3344 L18.3466667,19.3352 L18.3466667,11.036 Z M10.5908333,1.4232 L7.53416667,1.4232 C7.38083333,1.4232 7.25583333,1.3064 7.25583333,1.1576 C7.25583333,1.0128 7.38083333,0.892 7.53416667,0.892 L10.5908333,0.892 C10.7425,0.892 10.8691667,1.0128 10.8691667,1.1576 C10.8691667,1.3064 10.7425,1.4232 10.5908333,1.4232 L10.5908333,1.4232 Z" id="Fill-1" ></path>
            <path d="M2.5,14.6528 L4.18583333,14.6528 C4.25,14.6528 4.305,14.6312 4.35583333,14.6016 C4.44833333,14.5464 4.51333333,14.452 4.51333333,14.3392 C4.51333333,14.2664 4.48416667,14.2032 4.44083333,14.1504 C4.38166667,14.076 4.29166667,14.0248 4.18583333,14.0248 L2.5,14.0248 C2.32083333,14.0248 2.1725,14.1656 2.1725,14.3392 C2.1725,14.44 2.22666667,14.5264 2.30416667,14.584 C2.35916667,14.6248 2.425,14.6528 2.5,14.6528 Z M3.21416667,11.4608 L4.67583333,12.2704 C4.72833333,12.3 4.785,12.3128 4.84083333,12.3128 C4.9525,12.3128 5.06333333,12.256 5.12166667,12.156 C5.16416667,12.0872 5.1725,12.0096 5.15583333,11.9368 C5.13833333,11.852 5.0875,11.7744 5.00333333,11.728 L3.54333333,10.9184 C3.49083333,10.8888 3.43416667,10.8768 3.38083333,10.8768 C3.26666667,10.8768 3.1575,10.9328 3.09583333,11.0344 C3.05,11.1088 3.0425,11.1952 3.06583333,11.2728 C3.0875,11.3496 3.13916667,11.4184 3.21416667,11.4608 Z M6.78666667,18.12 C6.76583333,18.1088 6.74166667,18.1096 6.71833333,18.1024 C6.6875,18.0936 6.65833333,18.0784 6.6275,18.0784 C6.51333333,18.0784 6.40333333,18.136 6.34083333,18.236 L5.49833333,19.6376 C5.4425,19.732 5.4475,19.8408 5.495,19.932 C5.5225,19.9856 5.56,20.0352 5.61833333,20.0672 C5.67083333,20.0936 5.72583333,20.1096 5.77916667,20.1096 C5.85583333,20.1096 5.92416667,20.076 5.98333333,20.0296 C6.0125,20.0064 6.045,19.9856 6.06416667,19.9528 L6.90916667,18.548 C6.97583333,18.4352 6.96083333,18.2992 6.885,18.2024 C6.85833333,18.1696 6.82583333,18.1416 6.78666667,18.12 Z M11.3391667,10.5576 C11.3883333,10.5856 11.4433333,10.6 11.4991667,10.6 C11.6116667,10.6 11.7216667,10.5424 11.7841667,10.4424 L12.6266667,9.0408 C12.6466667,9.0088 12.6541667,8.9744 12.6608333,8.9408 C12.6875,8.8128 12.6316667,8.6808 12.5083333,8.6128 C12.4558333,8.5848 12.3991667,8.5704 12.3433333,8.5704 C12.2316667,8.5704 12.1208333,8.6264 12.0625,8.7264 L11.2175,10.1296 C11.1491667,10.2408 11.1633333,10.3768 11.2408333,10.4744 C11.2666667,10.5072 11.2991667,10.536 11.3391667,10.5576 Z M11.7825,18.236 C11.7608333,18.2 11.7266667,18.176 11.6933333,18.152 C11.6358333,18.1088 11.5708333,18.0784 11.4975,18.0784 C11.4708333,18.0784 11.4441667,18.0928 11.4175,18.1 C11.39,18.1064 11.3625,18.1064 11.3358333,18.12 C11.1816667,18.2064 11.1258333,18.3984 11.2175,18.548 L12.0625,19.9528 C12.0833333,19.9888 12.1175,20.012 12.15,20.036 C12.2066667,20.0792 12.2725,20.1096 12.3433333,20.1096 C12.3991667,20.1096 12.4541667,20.0936 12.5083333,20.0672 C12.5466667,20.0456 12.5791667,20.0168 12.6041667,19.9848 C12.6583333,19.916 12.6775,19.828 12.6625,19.7416 C12.6558333,19.7064 12.6466667,19.672 12.6266667,19.6392 L11.7825,18.236 Z M13.6116667,14.3392 C13.6116667,14.5128 13.7583333,14.6528 13.9383333,14.6528 L15.625,14.6528 C15.76,14.6528 15.8758333,14.5736 15.925,14.4616 C15.9416667,14.424 15.9508333,14.3824 15.9508333,14.3392 C15.9508333,14.1656 15.8041667,14.0248 15.625,14.0248 L13.9383333,14.0248 C13.7583333,14.0248 13.6116667,14.1656 13.6116667,14.3392 Z M13.09,12.2392 C13.1475,12.2824 13.2125,12.3128 13.2858333,12.3128 C13.34,12.3128 13.3966667,12.3 13.4491667,12.2704 L14.9091667,11.4608 C14.9591667,11.4336 14.9933333,11.3936 15.0208333,11.3488 C15.0808333,11.2544 15.09,11.1344 15.0275,11.0344 C14.9866667,10.964 14.9183333,10.9248 14.845,10.9016 C14.8125,10.8912 14.78,10.8768 14.7458333,10.8768 C14.7383333,10.8768 14.7316667,10.8816 14.725,10.8824 C14.6758333,10.8848 14.6291667,10.8928 14.5833333,10.9168 L13.1216667,11.728 C13.0866667,11.748 13.0583333,11.7736 13.035,11.8016 C13.0325,11.8056 13.0275,11.8072 13.0258333,11.8104 C12.9483333,11.908 12.9341667,12.0432 13.0008333,12.156 C13.0233333,12.192 13.0566667,12.2152 13.09,12.2392 Z M6.34083333,10.4424 C6.40333333,10.5424 6.51166667,10.6 6.6275,10.6 C6.68166667,10.6 6.73666667,10.5856 6.78833333,10.5576 C6.94333333,10.4704 6.99666667,10.28 6.90916667,10.1296 L6.0625,8.7264 C6.04166667,8.6904 6.0075,8.6672 5.975,8.6424 C5.9175,8.6 5.8525,8.5704 5.78083333,8.5704 L5.77916667,8.5704 C5.72583333,8.5704 5.67083333,8.5848 5.61666667,8.6128 C5.46083333,8.6984 5.41,8.8888 5.49833333,9.0408 L6.34083333,10.4424 Z M9.06416667,9.9736 C9.10916667,9.9736 9.15083333,9.9648 9.18916667,9.9488 C9.30666667,9.9016 9.38833333,9.7896 9.38833333,9.6592 L9.38833333,8.0392 C9.38833333,7.8656 9.24166667,7.7264 9.06416667,7.7264 C9.04166667,7.7264 9.02166667,7.7352 9.00083333,7.7384 C8.97916667,7.7432 8.95666667,7.7432 8.9375,7.7512 C8.93083333,7.7536 8.92583333,7.7592 8.92,7.7616 C8.88833333,7.7768 8.8575,7.7944 8.83333333,7.8184 C8.7725,7.8752 8.735,7.9528 8.735,8.0392 L8.735,9.6592 C8.735,9.8328 8.88333333,9.9736 9.06416667,9.9736 Z M4.84083333,16.3656 C4.785,16.3656 4.73,16.38 4.67583333,16.408 L3.2175,17.2168 C3.06,17.3048 3.00583333,17.4968 3.09583333,17.644 L3.09666667,17.644 C3.09666667,17.6448 3.09666667,17.6448 3.0975,17.6456 C3.1575,17.7456 3.26666667,17.8016 3.38083333,17.8016 C3.43416667,17.8016 3.49083333,17.7872 3.54333333,17.7608 L5.00333333,16.9496 C5.08166667,16.9072 5.13333333,16.8376 5.15416667,16.76 C5.17666667,16.6824 5.1675,16.5968 5.12166667,16.5216 C5.06333333,16.4216 4.95416667,16.3656 4.84083333,16.3656 Z M9.18916667,18.7312 C9.15083333,18.7152 9.10916667,18.7064 9.06416667,18.7064 C8.88333333,18.7064 8.735,18.8456 8.735,19.0184 L8.735,20.6392 C8.735,20.7224 8.77083333,20.7976 8.8275,20.8528 C8.86166667,20.888 8.90416667,20.9144 8.95166667,20.9312 L8.95833333,20.9312 C8.99166667,20.9424 9.02666667,20.9512 9.06416667,20.9512 C9.10083333,20.9512 9.13583333,20.9424 9.16833333,20.9312 L9.17583333,20.9312 C9.25916667,20.9008 9.3275,20.8408 9.3625,20.7616 C9.38,20.724 9.38833333,20.6824 9.38833333,20.6392 L9.38833333,19.0184 C9.38833333,18.8888 9.30666667,18.7776 9.18916667,18.7312 Z M13.4475,16.408 C13.395,16.38 13.34,16.3656 13.2841667,16.3656 C13.2708333,16.3656 13.2591667,16.3736 13.2466667,16.3752 C13.1475,16.3872 13.0533333,16.4344 13,16.5216 C12.9116667,16.672 12.9658333,16.864 13.1216667,16.9496 L14.58,17.7608 C14.6341667,17.7888 14.6908333,17.8032 14.7441667,17.8032 C14.8016667,17.8032 14.8566667,17.7888 14.9058333,17.7616 C14.9133333,17.7576 14.9183333,17.748 14.925,17.7432 C14.965,17.7168 15.0025,17.6872 15.0275,17.6456 C15.0391667,17.6272 15.0416667,17.6072 15.0483333,17.588 C15.0983333,17.4512 15.0475,17.2944 14.9091667,17.2168 L13.4475,16.408 Z" id="Fill-3" ></path>
            <path d="M8.9925,17.7936 C10.9908333,17.7936 12.6141667,16.2376 12.6141667,14.3176 L12.6141667,14.3168 L12.6141667,14.316 C12.6141667,12.6352 11.3716667,11.2336 9.7225,10.9096 C9.4875,10.8632 9.24333333,10.8392 8.9925,10.8392 C6.99083333,10.8392 5.3675,12.3952 5.3675,14.3152 C5.3675,15.036 5.59666667,15.7056 5.98833333,16.2608 C6.63916667,17.1856 7.74083333,17.7936 8.9925,17.7936 L8.9925,17.7936 Z M7.0625,14.1976 C7.0625,14.1024 7.0625,14 7.07333333,13.9032 L6.80666667,13.9032 C6.64833333,13.9032 6.52166667,13.7832 6.52166667,13.636 C6.52166667,13.4824 6.64833333,13.3608 6.80666667,13.3608 L7.18083333,13.3608 C7.44,12.4984 8.12666667,11.8784 9.07083333,11.8784 C9.77333333,11.8784 10.2016667,12.1488 10.545,12.5312 C10.6008333,12.5816 10.6525,12.6784 10.6525,12.792 C10.6525,12.844 10.6416667,12.8928 10.6216667,12.9368 C10.5616667,13.0704 10.4216667,13.1624 10.2608333,13.1624 C10.1691667,13.1624 10.1033333,13.132 10.0491667,13.0952 C10.0225,13.076 9.99333333,13.0576 9.97583333,13.036 C9.91666667,12.9672 9.85666667,12.9072 9.795,12.8536 C9.59333333,12.6768 9.36666667,12.5816 9.05083333,12.5816 L9.04916667,12.5816 C8.84416667,12.5816 8.66666667,12.6464 8.51083333,12.7472 C8.39166667,12.8224 8.28416667,12.9136 8.1975,13.0368 C8.13,13.132 8.07166667,13.2408 8.02583333,13.3608 L9.20916667,13.3608 C9.2775,13.3608 9.33833333,13.388 9.3875,13.428 C9.44833333,13.4784 9.48916667,13.5504 9.48916667,13.636 C9.48916667,13.7096 9.45833333,13.776 9.4075,13.824 L9.40666667,13.8248 C9.35583333,13.8728 9.28666667,13.9032 9.20916667,13.9032 L7.89833333,13.9032 C7.88583333,13.992 7.88583333,14.0888 7.88583333,14.1856 C7.88583333,14.2736 7.88583333,14.356 7.89083333,14.4408 L9.20916667,14.4408 C9.2775,14.4408 9.33833333,14.468 9.3875,14.5088 C9.44833333,14.56 9.48916667,14.6328 9.48916667,14.7144 C9.48916667,14.8672 9.36333333,14.9888 9.20916667,14.9888 L8.0125,14.9888 C8.19833333,15.5016 8.5775,15.8016 9.105,15.8016 C9.145,15.8016 9.1775,15.792 9.21416667,15.788 C9.4075,15.7688 9.56833333,15.7032 9.7125,15.5976 C9.8175,15.5208 9.9175,15.4304 10.015,15.3168 C10.08,15.2392 10.1758333,15.1872 10.3008333,15.1872 C10.5,15.1872 10.6658333,15.3408 10.6658333,15.5344 C10.6658333,15.5912 10.65,15.6408 10.63,15.684 C10.6166667,15.7112 10.6033333,15.7376 10.5875,15.7544 C10.415,15.9688 10.2216667,16.1464 9.99416667,16.276 C9.89166667,16.3344 9.77833333,16.3776 9.66,16.4144 C9.62833333,16.424 9.60083333,16.4416 9.56833333,16.4488 C9.4875,16.4688 9.3925,16.4704 9.30333333,16.48 C9.235,16.4864 9.17333333,16.5032 9.09833333,16.5032 C8.11166667,16.5024 7.41833333,15.8968 7.16833333,14.9888 L6.80666667,14.9888 C6.64833333,14.9888 6.52166667,14.8672 6.52166667,14.7144 C6.52166667,14.5672 6.64833333,14.4408 6.80666667,14.4408 L7.06833333,14.4408 C7.0625,14.3648 7.0625,14.2816 7.0625,14.1976 L7.0625,14.1976 Z" id="Fill-12" ></path>
        </g>
    </g>
</svg>