<?xml version="1.0" encoding="UTF-8" standalone="no"?>
<svg width="32px" height="26px" viewBox="0 0 32 26" version="1.1" xmlns="http://www.w3.org/2000/svg" xmlns:xlink="http://www.w3.org/1999/xlink" xmlns:sketch="http://www.bohemiancoding.com/sketch/ns">
    <!-- Generator: Sketch 3.1.1 (8761) - http://www.bohemiancoding.com/sketch -->
    <title>icon-traffic@1x</title>
    <desc></desc>
    <defs></defs>
    <g id="Page-1" stroke="none" stroke-width="1"  fill-rule="evenodd" >
        <g id="icon-traffic"  transform="translate(1.000000, 0.000000)">
            <path d="M6.6304,0.359666667 C6.51413333,0.359666667 6.40213333,0.408416667 6.32,0.492916667 L-0.304,7.37966667 C-0.386133333,7.46525 -0.430933333,7.58116667 -0.429866667,7.69708333 L-0.357333333,14.12775 C-0.357333333,14.3075833 -0.247466667,14.469 -0.0789333333,14.5383333 C0.0842666667,14.6055 0.272,14.56325 0.397866667,14.4321667 L4.06933333,10.61775 L4.16,18.6051667 C4.16213333,18.8521667 4.36373333,19.0536667 4.60373333,19.0493333 L9.07306667,18.9984167 C9.3184,18.99625 9.51146667,18.7915 9.50933333,18.5455833 L9.41866667,10.556 L13.1776,14.28375 C13.3024,14.41375 13.4933333,14.4495 13.6586667,14.3790833 C13.8208,14.3075833 13.9264,14.1429167 13.9264,13.9609167 L13.8517333,7.53458333 C13.8496,7.4165 13.8037333,7.30166667 13.7184,7.21933333 L6.94613333,0.486416667 C6.8608,0.404083333 6.752,0.359666667 6.64,0.359666667 L6.6304,0.359666667" id="Fill-1" ></path>
            <path d="M25.4442667,6.92141667 L20.9749333,7.04816667 C20.7338667,7.05683333 20.5408,7.26375 20.5461333,7.50966667 L20.7669333,15.4949167 L16.9504,11.8278333 C16.8202667,11.70325 16.6293333,11.67075 16.4693333,11.7476667 C16.3050667,11.8191667 16.2026667,11.9838333 16.2058667,12.1658333 L16.3850667,18.5943333 C16.3850667,18.7124167 16.4352,18.8250833 16.5205333,18.9030833 L23.2202667,25.3424167 L24.1824,25.3424167 L30.4992,18.5520833 L30.4992,12.2514167 L30.4864,11.7595833 C30.4789333,11.5808333 30.3690667,11.4194167 30.2005333,11.3533333 C30.0330667,11.2905 29.8464,11.3349167 29.7226667,11.4681667 L26.1130667,15.3443333 L25.8912,7.35691667 C25.8858667,7.11316667 25.6917333,6.91925 25.4538667,6.91925 L25.4442667,6.92141667" id="Fill-2" ></path>
        </g>
    </g>
</svg>