<?xml version="1.0" encoding="UTF-8" standalone="no"?>
<svg width="37px" height="26px" viewBox="0 0 37 26" version="1.1" xmlns="http://www.w3.org/2000/svg" xmlns:xlink="http://www.w3.org/1999/xlink" xmlns:sketch="http://www.bohemiancoding.com/sketch/ns">
    <!-- Generator: Sketch 3.1.1 (8761) - http://www.bohemiancoding.com/sketch -->
    <title>icon-cloud@1x</title>
    <desc></desc>
    <defs></defs>
    <g id="Page-1" stroke="none" stroke-width="1"  fill-rule="evenodd" >
        <g id="icon-cloud">
            <path d="M33.557,12.257 C33.912,11.308 34.102,10.282 34.102,9.207 C34.102,4.364 30.176,0.432 25.326,0.432 C22.289,0.432 19.615,1.974 18.035,4.321 C17.033,3.409 15.705,2.851 14.236,2.851 C11.102,2.851 8.563,5.392 8.563,8.525 C8.563,8.718 8.572,8.904 8.589,9.09 C8.34,9.064 8.086,9.052 7.826,9.052 C3.705,9.052 0.363,12.394 0.363,16.515 C0.363,20.636 3.705,23.977 7.826,23.977 C8.633,23.977 9.418,23.845 10.147,23.609 C12.244,25.057 15.324,25.974 18.762,25.974 C21.756,25.974 24.49,25.275 26.531,24.132 C27.41,24.537 28.393,24.766 29.428,24.766 C33.26,24.766 36.365,21.659 36.365,17.827 C36.365,15.545 35.26,13.52 33.557,12.257 Z M24.872,19.442 C24.893,19.442 24.915,19.429 24.936,19.425 C25.124,19.385 25.332,19.171 25.674,18.752 C25.713,18.705 25.842,18.55 26.019,18.339 C26.021,18.339 26.021,18.338 26.021,18.338 C26.924,17.276 29.227,14.581 29.422,14.385 C29.545,14.257 29.519,14.022 29.327,14.022 L27.703,14.022 C27.342,14.022 27.186,13.793 27.186,13.617 L27.186,10.58 C27.186,10.357 27.066,10.118 26.838,10.074 C26.815,10.068 26.797,10.056 26.771,10.056 L22.999,10.056 C22.608,10.056 22.504,10.294 22.504,10.609 L22.504,13.553 C22.504,13.937 22.309,14.022 22.079,14.022 L20.491,14.022 C20.272,14.022 20.191,14.216 20.377,14.402 C20.44,14.465 20.846,14.933 21.369,15.543 C22.399,16.736 23.891,18.479 24.172,18.838 C24.486,19.237 24.674,19.442 24.872,19.442 Z M14.802,10.057 C14.781,10.057 14.759,10.068 14.738,10.073 C14.55,10.113 14.342,10.329 14,10.747 C13.961,10.793 13.832,10.948 13.654,11.159 C13.652,11.159 13.652,11.16 13.652,11.16 C12.751,12.223 10.447,14.917 10.253,15.113 C10.13,15.241 10.154,15.477 10.347,15.477 L11.971,15.477 C12.333,15.477 12.488,15.706 12.488,15.881 L12.488,18.918 C12.488,19.142 12.607,19.381 12.836,19.424 C12.859,19.43 12.877,19.442 12.902,19.442 L16.675,19.442 C17.066,19.442 17.17,19.205 17.17,18.89 L17.17,15.945 C17.17,15.562 17.365,15.477 17.595,15.477 L19.184,15.477 C19.402,15.477 19.482,15.282 19.297,15.095 C19.234,15.033 18.828,14.565 18.305,13.956 C17.275,12.763 15.783,11.019 15.502,10.66 C15.188,10.264 15,10.057 14.802,10.057 Z" id="Fill-1" ></path>
        </g>
    </g>
</svg>