<svg xmlns="http://www.w3.org/2000/svg"><symbol id="shape-icon-arrow-l-thin" viewBox="0 0 11 20"><path d="M.1 10l2.3 2.4 7 7c.1.1.3.2.4.2.2 0 .3-.2.5-.4l-.1-.2.2.1.1-.2-9.3-9.1L10.5.5l-.1-.1c-.1-.2-.3-.4-.4-.4-.2 0-.4.1-.5.3L.3 9.4c0 .1-.1.1-.1.2l-.2.2.1.2z"/></symbol><symbol id="shape-icon-arrow-r-thin" viewBox="0 0 11 20"><path d="M10.4 9.6L8 7.2l-7-7C.9.1.7 0 .6 0 .3 0 .2.2.1.4l.1.2L.1.4 0 .6l9.3 9.3L0 19.1l.1.1c.1.2.3.4.4.4.2 0 .3-.1.4-.3l9.2-9.1.2-.2.2-.2-.1-.2z"/></symbol><symbol id="shape-icon-double-arrow-l" viewBox="0 0 17 20"><path d="M10.5.5l-.1-.1c-.1-.2-.3-.4-.4-.4-.2 0-.4.1-.5.3L.3 9.4c0 .1-.1.1-.1.2l-.2.2.1.2.1.1 2.3 2.3 7 7c.1.1.3.2.4.2.2 0 .6-.6.6-.6L1.2 9.8 10.5.5z"/><path d="M16.5.5l-.1-.1c-.1-.2-.3-.4-.4-.4-.2 0-.3.1-.4.3L6.3 9.4c0 .1-.1.1-.1.2l-.2.2.1.2.1.1 2.3 2.3 7 7c.1.1.3.2.4.2.2 0 .6-.6.6-.6L7.2 9.8 16.5.5z"/></symbol><symbol id="shape-icon-double-arrow-r" viewBox="0 0 17 20"><path d="M10.3 10l.2-.2-.1-.2-.1-.1L8 7.2l-7-7C.9.1.7 0 .6 0 .3 0 0 .6 0 .6l9.3 9.3L0 19.1l.1.1c.1.2.3.4.4.4.2 0 .3-.1.4-.3l9.2-9.1c.1-.1.2-.1.2-.2z"/><path d="M16.4 9.6L14 7.2l-7-7C6.9.1 6.7 0 6.6 0c-.3 0-.6.6-.6.6l9.3 9.3L6 19.1l.1.1c.1.2.3.4.4.4.2 0 .3-.1.4-.3l9.2-9.1.2-.2.2-.2-.1-.2z"/></symbol><symbol id="shape-icon-help-thin" viewBox="0 0 19 19"><path d="M9.5 19C4.3 19 0 14.7 0 9.5S4.3 0 9.5 0 19 4.3 19 9.5 14.7 19 9.5 19zm0-18C4.8 1 1 4.8 1 9.5S4.8 18 9.5 18 18 14.2 18 9.5 14.2 1 9.5 1z"/><path d="M8.8 11.2v-.4c0-.4.1-.7.2-1s.5-.6.9-.9c.4-.3.7-.5.8-.7s.2-.4.2-.6c0-.3-.1-.4-.3-.6s-.4-.2-.8-.2c-.6 0-1.3.2-2 .6L7.2 6c.8-.4 1.8-.7 2.7-.7.8 0 1.4.2 1.9.6s.7.9.7 1.5c0 .4-.1.8-.3 1.1s-.6.7-1.1 1.1c-.4.3-.6.5-.7.6s-.1.3-.1.6v.4H8.8zm-.2 2c0-.3.1-.6.3-.7s.4-.3.8-.3c.3 0 .6.1.8.3s.3.4.3.7c0 .3-.1.6-.3.7s-.4.3-.8.3c-.3 0-.6-.1-.8-.3s-.3-.4-.3-.7z"/></symbol><symbol id="shape-icon-unhappy-customer" viewBox="0 0 32 19"><title>icon-serviceclient@1x</title><path d="M7.008 3.416c0 .657.224 1.23.667 1.717.442.484 1.052.728 1.828.728.68 0 1.255-.243 1.732-.727.473-.488.71-1.076.71-1.764 0-.69-.24-1.272-.72-1.737-.48-.475-1.056-.71-1.723-.71-.79 0-1.398.247-1.836.74-.44.49-.658 1.077-.658 1.753m17.57-1.763c-.133-.15-.287-.27-.454-.375-.37-.23-.813-.355-1.35-.355-.655 0-1.233.24-1.723.722s-.738 1.055-.738 1.72c0 .457.145.888.43 1.295.098.142.21.28.344.415.513.522 1.074.785 1.688.785.766 0 1.365-.24 1.796-.72.433-.483.65-1.055.65-1.726 0-.685-.216-1.272-.642-1.76m-.623 9.98c-.373-.13-.746-.272-1.116-.387-1.552-.48-3.197-.778-4.94-.898-.58-.04-1.17-.06-1.77-.06-1.235 0-2.417.083-3.543.247-.98.14-1.92.355-2.837.62-.137.038-.28.067-.414.11-1.037.32-2.073.723-3.113 1.203-1.04.484-2.094 1.047-3.168 1.69-1.212.722-1.96 1.292-2.254 1.706-.29.416-.433 1.008-.433 1.773 0 .546.15.82.442.82.086 0 .613-.233 1.582-.693.414-.196.867-.396 1.346-.6.635-.27 1.323-.547 2.074-.825 1.312-.492 2.865-.922 4.66-1.297 1.026-.215 2.09-.36 3.18-.45.81-.067 1.635-.106 2.48-.106 1.595 0 3.128.126 4.603.365h.002c.344.058.69.112 1.027.183 1.79.364 3.344.8 4.67 1.297l.117.047c1.272.477 2.376.943 3.3 1.386.96.46 1.488.692 1.585.692.296 0 .442-.273.442-.82 0-.734-.15-1.314-.458-1.74-.307-.426-1.06-1.008-2.266-1.738-.08-.05-.16-.092-.244-.142-1.674-1-3.324-1.79-4.955-2.382"/></symbol></svg>