<svg xmlns="http://www.w3.org/2000/svg"><symbol id="shape-icon-big-smartphone" viewBox="0 0 20.332 35"><path d="M17.968 0H2.364C1.064 0 0 1.063 0 2.364v30.27C0 33.937 1.064 35 2.364 35h15.604c1.3 0 2.364-1.063 2.364-2.364V2.364c0-1.3-1.064-2.364-2.364-2.364zM7.67 1.704h4.992c.158 0 .286.128.286.287 0 .16-.128.287-.286.287H7.67c-.158 0-.286-.128-.286-.286 0-.158.128-.286.286-.286zm2.496 32.114c-.653 0-1.182-.53-1.182-1.182 0-.653.53-1.182 1.182-1.182s1.182.53 1.182 1.182c0 .653-.53 1.182-1.182 1.182zm8.52-3.193H1.647V3.75h17.04v26.875z"/></symbol><symbol id="shape-icon-box" viewBox="0 0 36 13"><path d="M4.284 4.543c.502 0 .91-.435.91-.975s-.408-.977-.91-.977-.91.44-.91.98.408.974.91.974zm5.13-.012c.02.004.038.015.06.015.5 0 .91-.437.91-.975 0-.02-.01-.036-.012-.055-.027-.514-.415-.924-.9-.924-.5 0-.91.44-.91.98 0 .516.38.93.852.962zm-2.536.014c.504 0 .91-.435.91-.975 0-.373-.202-.687-.486-.85-.128-.076-.267-.128-.424-.128-.502 0-.91.438-.91.978 0 .173.055.327.128.47.156.297.44.505.782.505zM34.434.117c-.156-.038-.326-.06-.51-.06H2.074c-.8 0-1.988.57-1.988 2.135v6.844c0 .372.107.818.338 1.21L1.47 9.1c0-.023-.01-.04-.01-.064V2.19c0-.423.21-.645.613-.655h31.85c.395 0 .6.224.61.656v6.845c0 .424-.208.646-.617.66H18.974v-1.78h-1.922v1.777H2.074c-.37 0-.57-.208-.602-.595L.425 10.244c.303.512.823.926 1.65.926H17.05v1.605h1.922V11.17h14.95c.798 0 1.988-.57 1.988-2.136V2.19c0-.75-.406-1.815-1.478-2.074z" fill-rule="evenodd"/></symbol><symbol id="shape-icon-hang-up" viewBox="0 0 435.933 435.933"><path d="M286.482 279.088c.944 1.25.94 2.973-.023 4.225l-65.724 85.483c-.658.867-1.682 1.368-2.762 1.368s-2.102-.5-2.764-1.368l-65.727-85.483c-.476-.62-.722-1.368-.722-2.12 0-.74.237-1.485.706-2.104.94-1.254 2.607-1.725 4.07-1.138l43.515 17.176V194.393c0-1.926 1.557-3.48 3.487-3.48h34.877c1.92 0 3.485 1.554 3.485 3.48v100.74l43.515-17.177c1.458-.586 3.125-.115 4.067 1.132zM196.93 65.928C-28.392 70.25-1.475 181.81 3.69 198.192c5.532 27.833 26.852 41.76 48.488 33.864l41.166-12.88c22.18-8.097 36.25-38.273 31.408-67.42l-.917-5.517c74.85-21.183 139.407-15.746 189.768-1.727l-.396 2.353c-4.82 29.15 9.23 59.333 31.423 67.423l41.164 17.16c18.604 6.79 36.965-6.288 45.27-27.172.108.09.174.15.174.15s1.14-2.812 2.288-7.625c.093-.375.163-.786.262-1.155.19-.88.383-1.792.575-2.785.115-.56.246-1.092.353-1.658l-.04-.035c6.016-35.513-.205-129.777-237.746-125.243z"/></symbol><symbol id="shape-icon-logo-bouygues-mini" viewBox="0 0 256 220"><path fill="#EB5B00" d="M150.546 211.933c18.076 12.482 53.843-7.914 79.88-45.627 26.042-37.713 32.496-78.36 14.42-90.84-18.08-12.484-52.946 6.87-78.987 44.585-26.038 37.71-33.386 79.398-15.314 91.883z"/><path fill="#0053A5" d="M105.455 211.933c-18.077 12.482-53.843-7.914-79.882-45.627-26.04-37.713-32.494-78.36-14.42-90.842 18.08-12.483 52.946 6.87 78.988 44.585 26.04 37.71 33.388 79.398 15.315 91.883z"/><ellipse fill="#009BCD" cx="127.985" cy="44.119" rx="83.064" ry="39.721"/></symbol><symbol id="shape-icon-power" viewBox="0 0 894.523 894.524"><path d="M552.37 259.144v81.492c42.57 31.953 70.07 82.823 70.07 140.144 0 96.77-78.41 175.178-175.18 175.178-96.766 0-175.18-78.408-175.18-175.178 0-57.32 27.504-108.19 70.073-140.144v-81.492C259.295 298.49 202.01 382.96 202.01 480.78c0 135.45 109.804 245.252 245.252 245.252 135.446 0 245.252-109.802 245.252-245.252 0-97.82-57.285-182.29-140.144-221.636z"/><path d="M482.297 445.85V235.425c0-19.305-15.553-34.93-35.035-34.93-19.374 0-35.037 15.87-35.037 34.93V445.85c0 19.306 15.558 34.93 35.037 34.93 19.376 0 35.035-15.87 35.035-34.93z"/></symbol><symbol id="shape-icon-shopping-cart" viewBox="0 0 31 32"><title>icon-shopping-cart@1x</title><path d="M28.147 11.188c-.073-.026-.148-.046-.23-.046H23.02l.495-3.255 4.856-.01.774-.004-.997 3.315zm-1.552 5.15h-4.362l.586-3.855h4.935l-1.16 3.856zm-1.198 3.976h-.403l-3.362-.012.397-2.62h4.16l-.62 2.06-.173.572zM10.71 20.27l-.29-2.59h4.766l.1 2.603-4.575-.014zM9.384 8.44l-.058-.52.585-.002h.124l4.78-.01.123 3.234h-5.24l-.01.002-.29-2.596-.013-.108zm.885 7.9l-.433-3.857h5.15l.147 3.856H10.27zm9.992 3.958l-3.623-.01-.1-2.607h4.122l-.4 2.618zm.788-5.177l-.184 1.22H16.49l-.148-3.857h5.107l-.4 2.638zm-1.905-7.224l3.002-.005-.493 3.252h-5.362l-.014-.405-.11-2.832 2.977-.01zM29.73 6.53l-9.226.024-9.114.02h-.12l-3.457.008.345 3.072.01.107 1.33 11.845 4.983.017 9.164.028 2.76.01 4.56-15.13h-1.235zM9.546 26.507c-.37-.187-.78-.302-1.222-.302-1.488 0-2.697 1.196-2.697 2.673 0 .435.116.842.303 1.206.447.866 1.346 1.465 2.395 1.465 1.49 0 2.697-1.197 2.697-2.67 0-1.04-.606-1.928-1.475-2.372zm16.58-3.288c0-.37-.3-.67-.676-.67H9.02c-.005 0-.01.003-.016.003l-.467-4.155-.914-8.096-.01-.11-.396-3.52-.19-.17c-.153-.136-3.72-3.33-4.966-4.228-.25-.18-.23-.44-.21-.54.03-.164.122-.274.193-.293.105-.035.356.087.7.476L5.81 4.703c.276.25.704.233.956-.04.254-.274.235-.698-.04-.95L3.712.983C2.87.01 2.082.04 1.692.144c-.6.16-1.05.675-1.175 1.344-.133.724.15 1.44.748 1.87 1.03.743 3.897 3.285 4.664 3.968l.457 4.08.013.11 1.496 13.3c.04.34.332.594.672.594.024 0 .05-.002.075-.005.372-.04.64-.372.6-.74l-.088-.775H25.45c.376 0 .678-.302.678-.672zm-5.95 5.034h-7.644c-.373 0-.675.3-.675.67 0 .37.302.67.675.67h7.644c.373 0 .676-.3.676-.67 0-.37-.303-.67-.676-.67zm4.388-2.047c-1.487 0-2.695 1.196-2.695 2.672 0 1.474 1.208 2.672 2.695 2.672 1.49 0 2.697-1.2 2.697-2.673 0-1.476-1.207-2.672-2.697-2.672z" fill-rule="evenodd"/></symbol><symbol id="shape-icon-user-tlv" viewBox="0 0 48 48"><path d="M45 48H3c0-5.427 6.348-9.96 15-11.442v-2.22C14.43 32.256 12 28.43 12 24v-.303c-1.74-.624-3-2.244-3-4.197 0-1.953 1.26-3.573 3-4.197V15c0-6.627 5.373-12 12-12s12 5.373 12 12v.303c1.74.624 3 2.244 3 4.197 0 1.953-1.26 3.573-3 4.197V24c0 4.43-2.43 8.256-6 10.335v2.22C38.655 38.04 45 42.573 45 48z"/></symbol></svg>