<svg xmlns="http://www.w3.org/2000/svg"><symbol id="shape-icon-4g-plus" viewBox="0 0 200 145"><path d="M170.718 51.485l2.386-16.697c.114-1.135 1.25-2.043 2.272-2.043h8.747c1.02 0 1.702.908 1.59 2.043l-2.385 16.697h14.426c1.02 0 1.702 1.022 1.59 2.16l-1.14 7.95c-.11 1.136-1.133 2.158-2.155 2.158h-14.427l-2.27 16.583c-.228 1.137-1.252 2.046-2.273 2.046h-8.747c-1.02 0-1.816-.91-1.587-2.046l2.27-16.583H154.59c-1.02 0-1.702-1.022-1.59-2.158l1.136-7.95c.115-1.138 1.137-2.16 2.16-2.16M.7 97.65l1.555-11.738 53.75-61.958c.424-.567.99-.848 2.122-.848h8.204c1.275 0 2.265 1.13 1.982 2.686L59.965 86.05h10.043c1.415 0 2.264 1.132 2.12 2.547l-1.27 8.77c-.142 1.416-1.414 2.69-2.83 2.69H57.986L55.58 118.16c-.28 1.413-1.554 2.688-2.828 2.688H40.445c-1.272 0-2.262-1.274-2.12-2.688l2.545-17.823H2.68c-1.415 0-2.264-1.273-1.98-2.686m42.716-12.023l4.95-31.26-27.016 31.26h22.066z"/><path d="M127.436 20.42c12.73 0 22.206 4.95 29.42 13.437.85 1.132.707 2.83-.566 3.96l-7.495 7.356c-1.697 1.274-3.395 1.274-4.67 0-3.678-3.536-8.91-7.073-17.68-7.073-16.974 0-31.684 17.54-31.684 37.768 0 14.995 9.478 28.008 21.927 28.008 6.646 0 11.74-1.698 14.426-3.396l1.697-12.447h-9.053c-1.413 0-2.263-1.132-2.12-2.548l1.555-11.032c.28-1.555 1.413-2.688 2.83-2.688h25.036c1.273 0 2.12 1.273 1.98 2.688l-4.67 33.948c-.28 2.266-1.27 3.538-2.26 4.386-1.416 1.132-12.59 9.477-31.686 9.477-23.056 0-39.748-19.66-39.748-43.99 0-33.242 23.198-57.854 52.762-57.854"/></symbol><symbol id="shape-icon-4g" viewBox="0 0 200 145"><path d="M3.674 104.762l1.95-14.708L72.97 12.426c.53-.71 1.24-1.062 2.657-1.062h10.28c1.595 0 2.835 1.417 2.482 3.366l-10.46 75.5h12.586c1.77 0 2.834 1.417 2.656 3.19l-1.594 10.986c-.18 1.774-1.772 3.37-3.545 3.37H75.45l-3.013 22.685c-.354 1.77-1.95 3.37-3.544 3.37h-15.42c-1.594 0-2.834-1.6-2.657-3.37l3.19-22.332H6.156c-1.773 0-2.837-1.593-2.482-3.366m53.52-15.064L63.4 50.53 29.548 89.7h27.647zM162.47 7.997c15.946 0 27.82 6.204 36.86 16.836 1.062 1.42.886 3.546-.71 4.963l-9.394 9.215c-2.127 1.596-4.25 1.596-5.85 0-4.606-4.43-11.166-8.862-22.153-8.862-21.266 0-39.696 21.977-39.696 47.32 0 18.785 11.874 35.09 27.47 35.09 8.332 0 14.71-2.126 18.078-4.253l2.128-15.595h-11.346c-1.773 0-2.834-1.417-2.655-3.19l1.948-13.823c.354-1.95 1.77-3.368 3.542-3.368h31.372c1.596 0 2.657 1.593 2.48 3.367l-5.85 42.534c-.354 2.835-1.596 4.432-2.834 5.494-1.775 1.417-15.773 11.875-39.7 11.875-28.888 0-49.8-24.636-49.8-55.12 0-41.647 29.065-72.483 66.11-72.483"/></symbol><symbol id="shape-icon-logo-bandyou-white" viewBox="0 0 340.158 119.055"><path d="M219.106 11.558c6.375 0 12.38 1.216 17.99 3.63 5.604 2.42 10.525 5.73 14.73 9.943 4.203 4.21 7.523 9.12 9.955 14.735 2.41 5.614 3.626 11.616 3.626 17.998 0 6.39-1.217 12.392-3.625 18-2.43 5.614-5.75 10.502-9.954 14.658-4.205 4.164-9.127 7.456-14.73 9.876-5.61 2.42-11.615 3.63-17.99 3.63-6.39 0-12.39-1.21-18.006-3.63s-10.512-5.712-14.658-9.875c-4.164-4.155-7.455-9.043-9.873-14.658-2.423-5.607-3.626-11.61-3.626-18 0-6.38 1.203-12.383 3.625-17.997 2.417-5.615 5.708-10.524 9.872-14.734 4.146-4.212 9.043-7.522 14.658-9.942 5.615-2.414 11.617-3.63 18.006-3.63zM196.012 58.01c0 3.194.61 6.195 1.826 9.004 1.2 2.806 2.875 5.274 5.004 7.398 2.13 2.13 4.592 3.806 7.398 5.005 2.81 1.22 5.81 1.82 9.006 1.82 3.19 0 6.193-.602 8.988-1.82 2.818-1.2 5.28-2.876 7.41-5.005 2.13-2.124 3.79-4.593 5.006-7.398 1.22-2.81 1.828-5.81 1.828-9.004 0-3.192-.61-6.19-1.828-9.003-1.217-2.8-2.875-5.27-5.006-7.397-2.13-2.13-4.592-3.798-7.41-5.007-2.795-1.21-5.797-1.817-8.988-1.817-3.197 0-6.197.608-9.006 1.817-2.807 1.21-5.27 2.876-7.398 5.007-2.13 2.13-3.803 4.6-5.004 7.397-1.216 2.813-1.826 5.81-1.826 9.003zM164.508 14.752c-2.077-2.122-4.813-3.194-8.204-3.194-3.29 0-6.07.975-8.338 2.904-2.282 1.938-3.416 4.744-3.416 8.422v14.078c0 1.55-.317 2.904-.94 4.067-.637 1.16-1.41 2.128-2.323 2.9-.926.775-1.963 1.356-3.126 1.744-1.158.388-2.223.58-3.193.58-1.064 0-2.13-.192-3.18-.58-1.077-.388-2.09-.97-3.057-1.743-.97-.772-1.74-1.74-2.324-2.9-.58-1.164-.87-2.52-.87-4.068V22.884c0-3.678-1.133-6.485-3.4-8.422-2.284-1.93-5.062-2.904-8.355-2.904-3.387 0-6.124 1.072-8.21 3.194-2.077 2.13-3.114 4.84-3.114 8.132v14.078c0 3.87.733 7.744 2.17 11.618 1.467 3.863 3.57 7.327 6.32 10.37 2.753 3.05 6.153 5.546 10.167 7.48.774.375 1.574.706 2.39 1.01V92.7c0 3.292 1.065 6.004 3.196 8.13 2.128 2.13 4.84 3.198 8.13 3.198 3.375 0 6.195-1.07 8.408-3.197 2.24-2.126 3.346-4.838 3.346-8.13V67.386c.776-.285 1.52-.61 2.24-.956 4.025-1.934 7.442-4.43 10.234-7.48 2.822-3.042 4.95-6.506 6.39-10.37 1.466-3.873 2.184-7.746 2.184-11.617v-14.08c0-3.29-1.05-6-3.124-8.13zM74.34 66.585c-.898-2.36-2.005-4.56-3.332-6.583-1.342-2.026-2.833-3.81-4.494-5.353-1.662-1.543-3.264-2.803-4.812-3.763 1.437-1.832 2.766-3.98 3.98-6.445 1.22-2.453 1.826-5.37 1.826-8.754 0-4.43-.995-8.192-2.987-11.283-1.99-3.084-4.56-5.573-7.73-7.454-3.166-1.88-6.707-3.254-10.633-4.12-3.943-.87-7.912-1.307-11.894-1.307h-19.29c-3.665 0-6.71 1.04-9.14 3.113-2.45 2.08-3.724 4.652-3.833 7.744v71.77c0 2.995 1.26 5.382 3.748 7.166 2.488 1.79 5.56 2.677 9.224 2.677h19.292c3.982 0 8.365-.408 13.14-1.232 4.755-.812 9.248-2.355 13.467-4.622 4.206-2.27 7.717-5.334 10.55-9.19 2.838-3.86 4.248-8.832 4.248-14.91 0-2.6-.443-5.088-1.327-7.453zm-49.73-37.81h14.327c.998 0 1.88.208 2.628.608.746.408 1.368.915 1.867 1.5.5.596.873 1.266 1.12 2.012.25.756.388 1.44.388 2.062 0 .69-.137 1.376-.387 2.068-.248.685-.622 1.34-1.12 1.963-.5.628-1.122 1.128-1.868 1.5-.747.374-1.63.562-2.628.562H24.61V28.776zm26.165 46.406c-.387 1.063-.967 2.08-1.74 3.048-.776.97-1.744 1.743-2.905 2.325-1.162.577-2.517.87-4.065.87H25.04V62.408h17.024c1.55 0 2.904.31 4.065.94s2.128 1.404 2.903 2.323c.774.922 1.354 1.958 1.74 3.12s.583 2.226.583 3.192c0 1.067-.194 2.13-.58 3.2zM93.656 103.943c-1.647 0-3.21-.282-4.663-.85-1.438-.556-2.722-1.32-3.8-2.277-1.124-.966-2.02-2.107-2.683-3.4-.692-1.35-1.052-2.814-1.052-4.348 0-2.008.65-3.915 1.91-5.672.607-.837 1.326-1.61 2.156-2.322-.65-.608-1.217-1.287-1.688-2.017-.513-.805-.925-1.662-1.215-2.54-.333-.92-.483-1.86-.483-2.772 0-1.433.317-2.816.98-4.115.623-1.253 1.466-2.346 2.517-3.26 1.025-.884 2.226-1.602 3.598-2.13 1.368-.522 2.85-.794 4.426-.794 1.504 0 2.986.27 4.368.795 1.382.528 2.6 1.246 3.623 2.13 1.05.914 1.908 2.007 2.53 3.26.652 1.3.982 2.683.982 4.115 0 1.285-.303 2.564-.885 3.793-.553 1.203-1.383 2.312-2.434 3.278-1.05.948-2.338 1.722-3.818 2.305-.013 0-.027.005-.027.005l5.918 4.634 4.177-3.4c.567-.487 1.27-.742 2.045-.742 1.785 0 3.044 1.206 3.044 2.926 0 .645-.22 1.265-.664 1.838-.083.118-.195.223-.304.31l-.055.057c0 .006-.03.02-.03.027l-3.4 2.844 3.54 2.905c.028.02.04.033.054.05.666.565 1.024 1.346 1.024 2.202 0 1.723-1.245 2.93-3.043 2.93-.774 0-1.464-.26-2.047-.736l-4.342-3.484c-.705.538-1.382 1.017-1.99 1.43-1.053.7-2.02 1.268-2.906 1.696-.94.457-1.853.795-2.708 1.01-.9.21-1.8.32-2.656.32zM90.392 88.78c-.747.46-1.384 1.01-1.88 1.644-.638.81-.97 1.675-.97 2.645 0 .67.14 1.285.428 1.857.305.62.705 1.14 1.232 1.603.55.472 1.2.85 1.964 1.134.746.283 1.588.425 2.49.425.937 0 1.963-.306 3.013-.91.73-.415 1.548-.938 2.432-1.565l-8.71-6.835zm3.264-15.475c-.83 0-1.59.124-2.283.38-.677.242-1.26.574-1.716.982-.455.394-.802.843-1.064 1.396-.248.52-.374 1.064-.374 1.683 0 .615.11 1.153.347 1.638.248.52.58.953 1.023 1.34.48.415 1.077.763 1.77 1.025.677.26 1.465.406 2.323.434.803 0 1.533-.124 2.186-.372.662-.245 1.242-.583 1.712-.992.443-.386.804-.842 1.052-1.395.25-.51.387-1.063.387-1.68s-.136-1.163-.386-1.682c-.248-.545-.61-1.002-1.052-1.396-.47-.408-1.05-.74-1.713-.988-.665-.25-1.413-.375-2.214-.375z"/><path d="M93.656 103.943c-1.647 0-3.21-.282-4.663-.85-1.438-.556-2.722-1.32-3.8-2.277-1.124-.966-2.02-2.107-2.683-3.4-.692-1.35-1.052-2.814-1.052-4.348 0-2.008.65-3.915 1.91-5.672.607-.837 1.326-1.61 2.156-2.322-.65-.608-1.217-1.287-1.688-2.017-.513-.805-.925-1.662-1.215-2.54-.333-.92-.483-1.86-.483-2.772 0-1.433.317-2.816.98-4.115.623-1.253 1.466-2.346 2.517-3.26 1.025-.884 2.226-1.602 3.598-2.13 1.368-.522 2.85-.794 4.426-.794 1.504 0 2.986.27 4.368.795 1.382.528 2.6 1.246 3.623 2.13 1.05.914 1.908 2.007 2.53 3.26.652 1.3.982 2.683.982 4.115 0 1.285-.303 2.564-.885 3.793-.553 1.203-1.383 2.312-2.434 3.278-1.05.948-2.338 1.722-3.818 2.305-.013 0-.027.005-.027.005l5.918 4.634 4.177-3.4c.567-.487 1.27-.742 2.045-.742 1.785 0 3.044 1.206 3.044 2.926 0 .645-.22 1.265-.664 1.838-.083.118-.195.223-.304.31l-.055.057c0 .006-.03.02-.03.027l-3.4 2.844 3.54 2.905c.028.02.04.033.054.05.666.565 1.024 1.346 1.024 2.202 0 1.723-1.245 2.93-3.043 2.93-.774 0-1.464-.26-2.047-.736l-4.342-3.484c-.705.538-1.382 1.017-1.99 1.43-1.053.7-2.02 1.268-2.906 1.696-.94.457-1.853.795-2.708 1.01-.9.21-1.8.32-2.656.32zM90.392 88.78c-.747.46-1.384 1.01-1.88 1.644-.638.81-.97 1.675-.97 2.645 0 .67.14 1.285.428 1.857.305.62.705 1.14 1.232 1.603.55.472 1.2.85 1.964 1.134.746.283 1.588.425 2.49.425.937 0 1.963-.306 3.013-.91.73-.415 1.548-.938 2.432-1.565l-8.71-6.835zm3.264-15.475c-.83 0-1.59.124-2.283.38-.677.242-1.26.574-1.716.982-.455.394-.802.843-1.064 1.396-.248.52-.374 1.064-.374 1.683 0 .615.11 1.153.347 1.638.248.52.58.953 1.023 1.34.48.415 1.077.763 1.77 1.025.677.26 1.465.406 2.323.434.803 0 1.533-.124 2.186-.372.662-.245 1.242-.583 1.712-.992.443-.386.804-.842 1.052-1.395.25-.51.387-1.063.387-1.68s-.136-1.163-.386-1.682c-.248-.545-.61-1.002-1.052-1.396-.47-.408-1.05-.74-1.713-.988-.665-.25-1.413-.375-2.214-.375zM305.786 80.947c.97 0 2.035-.195 3.193-.584 1.163-.387 2.202-.967 3.128-1.74.912-.775 1.688-1.744 2.322-2.905.62-1.162.94-2.517.94-4.065V23.03c0-3.68 1.132-6.486 3.415-8.422 2.27-1.93 5.05-2.898 8.342-2.898 3.39 0 6.125 1.064 8.2 3.188 2.073 2.13 3.124 4.84 3.124 8.13v48.624c0 3.87-.718 7.744-2.183 11.617-1.44 3.87-3.568 7.33-6.39 10.38-2.792 3.048-6.212 5.536-10.233 7.474-4.01 1.935-8.63 2.904-13.86 2.904-5.224 0-9.843-.97-13.854-2.904-4.008-1.938-7.41-4.426-10.164-7.475-2.75-3.05-4.854-6.51-6.32-10.38-1.438-3.874-2.172-7.75-2.172-11.618V23.03c0-3.292 1.037-6.003 3.113-8.132 2.086-2.124 4.812-3.188 8.215-3.188 3.29 0 6.07.968 8.352 2.898 2.27 1.936 3.4 4.742 3.4 8.42v48.624c0 1.55.293 2.903.87 4.065.583 1.16 1.358 2.13 2.327 2.904.966.775 1.98 1.355 3.058 1.742 1.05.39 2.113.585 3.178.585z"/></symbol><symbol id="shape-icon-promo-round" viewBox="0 0 134 148"><title>forme_ronde</title><path d="M133.72 10.083C133.72-.062 124.03 0 124.03 0h-114s-10-.082-10 10L0 138.344C0 149.462 10.37 147 10.37 147s107.858-13.52 114.123-14.8c7.72-1.577 9.226-9.216 9.226-9.216v-112.9"/></symbol></svg>