<svg xmlns="http://www.w3.org/2000/svg"><defs><radialGradient cx="16.707%" cy="17.228%" fx="16.707%" fy="17.228%" r="118.498%" id="shape-icon-cb-amex-a"><stop stop-color="#87D6F6" offset="0%"/><stop stop-color="#81D2F4" offset="6.284%"/><stop stop-color="#6EC9F0" offset="14.65%"/><stop stop-color="#47BDEB" offset="24.19%"/><stop stop-color="#00AEE4" offset="34.53%"/><stop stop-color="#00AAE3" offset="37.08%"/><stop stop-color="#009DD8" offset="46.57%"/><stop stop-color="#008FCE" offset="59.07%"/><stop stop-color="#0086C6" offset="71.95%"/><stop stop-color="#0080C2" offset="85.33%"/><stop stop-color="#007EC0" offset="100%"/></radialGradient></defs><symbol id="shape-icon-arrow-d" viewBox="0 0 64 64"><path d="M5.85 14.572l-4.032 3.934 30.22 30.978 30.085-31.11-4.05-3.916L32.02 41.395"/></symbol><symbol id="shape-icon-arrow-l" viewBox="0 0 64 64"><path d="M24.548 31.922L51.484 5.868l-3.917-4.05-31.11 30.086 30.98 30.22 3.933-4.032"/></symbol><symbol id="shape-icon-arrow-r" viewBox="0 0 64 64"><path d="M16.57 58.092l3.935 4.032 30.978-30.22-31.11-30.086-3.916 4.05 26.937 26.054z"/></symbol><symbol id="shape-icon-arrow-u" viewBox="0 0 64 64"><path d="M58.092 49.37l4.03-3.933-30.218-30.98-30.086 31.11 4.05 3.917L31.92 22.548"/></symbol><symbol id="shape-icon-backup" viewBox="0 0 32 32"><path d="M26 0h-2v13H8V0H0v32h32V6l-6-6zm2 30H4V16h24v14z"/><path d="M6 18h20v2H6zM6 22h20v2H6zM6 26h20v2H6zM18 2h4v9h-4z"/></symbol><symbol id="shape-icon-cancel" viewBox="0 0 512 512"><path d="M479.8 131.01L376.026 27.164 256 147.19 136.012 27.164 32.202 131.01l120.026 119.952L32.2 370.987l103.812 103.848L256 354.808l120.026 120.027L479.8 370.987 359.81 250.962 479.8 131.01z"/></symbol><symbol id="shape-icon-cb-amex" viewBox="0 0 102 90"><title>AMEX_BlueBox_285 (APPROVED LOGO, 8.31.06)</title><g fill="none" fill-rule="evenodd"><path d="M89.3.5H.6v89h88.7V60.1c.4-.5.5-1.2.5-2 0-.9-.2-1.5-.5-1.9V.5z" fill="url(#shape-icon-cb-amex-a)" transform="translate(12)"/><g fill="#FFF"><path d="M12.6 45.5h4.3l1-2.3H20l1 2.3h8.4v-1.8l.8 1.8h4.3l.7-1.8v1.8H56v-3.8h.4c.3 0 .4 0 .4.5v3.3h10.8v-.9c.9.5 2.2.9 4 .9h4.5l1-2.3h2.2l1 2.3H89v-2.2l1.3 2.2h7V31h-6.9v1.7l-1-1.7h-7.1v1.7l-.9-1.7h-9.6c-1.6 0-3 .2-4.2.8V31H61v.8c-.7-.6-1.7-.8-2.8-.8H34l-1.6 3.8-1.7-3.8H23v1.7l-.8-1.7h-6.5l-3 6.9v7.6h-.1zm82.3-2h-3.5l-4.7-7.8v7.8h-5.1l-1-2.3h-5.2l-.9 2.3h-2.9c-1.2 0-2.7-.3-3.6-1.1-.9-.9-1.3-2.1-1.3-4 0-1.5.3-3 1.3-4.1.8-.8 2.1-1.2 3.8-1.2h2.4v2.2h-2.4c-.9 0-1.4.1-1.9.6-.4.4-.7 1.3-.7 2.4 0 1.1.2 1.9.7 2.4.4.4 1.1.5 1.7.5h1.1l3.5-8.2h3.7l4.2 9.9V33h3.8l4.4 7.3V33h2.5v10.5h.1zm-29.5 0h-2.5V33h2.5v10.5zm-4-7.6c0 1.7-1.1 2.5-1.8 2.8.5.2 1 .6 1.2.9.4.5.4 1 .4 1.9v2h-2.5v-1.3c0-.6.1-1.5-.4-2-.4-.4-.9-.4-1.8-.4h-2.7v3.8h-2.5V33H57c1.3 0 2.2 0 3 .5 1 .5 1.4 1.2 1.4 2.4zm-11.7 7.6h-8.3V33h8.3v2.2h-5.8v1.9h5.7v2.1h-5.7v2.1h5.8v2.2zm-10.2 0H37v-8.2l-3.6 8.2h-2.2l-3.6-8.2v8.2h-5.1l-1-2.3h-5.2l-1 2.3h-2.7l4.5-10.4h3.7L25 43V33h4.1l3.3 7.1 3-7.1h4.1v10.5zM79.8 39l-1.7-4.1-1.7 4.1h3.4zm-21.6-1.7c-.3.2-.7.2-1.2.2h-3v-2.3h3.1c.4 0 .9 0 1.2.2.3.2.5.5.5.9-.1.5-.3.8-.6 1zM20.6 39l-1.7-4.1-1.7 4.1h3.4zM60.9 54.4c0 2.9-2.2 3.5-4.3 3.5h-3.1v3.5h-4.8L45.6 58l-3.2 3.4h-9.9V51h10l3.1 3.4 3.2-3.4h8c1.9 0 4.1.5 4.1 3.4zm-19.8 4.8H35v-2.1h5.5V55H35v-1.9h6.2l2.7 3-2.8 3.1zm9.9 1.3l-3.8-4.2 3.8-4.1v8.3zm5.7-4.7h-3.2v-2.6h3.2c.9 0 1.5.4 1.5 1.3 0 .8-.6 1.3-1.5 1.3zM73.5 51h8.3v2.2H76v1.9h5.7v2.1H76v2.1h5.8v2.2h-8.3V51zm-3.2 5.6c.6.2 1 .6 1.2.9.4.5.4 1 .4 1.9v2.1h-2.5v-1.3c0-.6.1-1.6-.4-2-.4-.4-.9-.5-1.8-.5h-2.7v3.8H62V51h5.7c1.3 0 2.2.1 3 .5.8.5 1.3 1.1 1.3 2.3.1 1.7-1 2.5-1.7 2.8zm-1.5-1.3c-.3.2-.7.2-1.2.2h-3v-2.3h3.1c.4 0 .9 0 1.2.2.3.2.5.5.5.9s-.2.8-.6 1zm22.5.6c.5.5.7 1.1.7 2.2 0 2.2-1.4 3.3-3.9 3.3h-4.9v-2.2H88c.5 0 .8-.1 1-.3.2-.2.3-.4.3-.7 0-.3-.1-.5-.3-.7-.2-.2-.5-.2-.9-.2-2.3-.1-5.2.1-5.2-3.2 0-1.5.9-3.1 3.6-3.1h5v2.2H87c-.5 0-.8 0-1 .2-.3.2-.4.4-.4.8s.2.7.5.8c.3.1.5.1 1 .1h1.3c1.4 0 2.4.2 2.9.8zm10 4.2c-.6.9-1.8 1.3-3.4 1.3h-4.8v-2.2h4.8c.5 0 .8-.1 1-.3.2-.2.3-.4.3-.7 0-.3-.1-.5-.3-.7-.2-.2-.4-.2-.9-.2-2.3-.1-5.3.1-5.3-3.2 0-1.5 1-3.1 3.6-3.1h5v-2.1h-4.6c-1.4 0-2.4.3-3.1.9v-.9h-6.8c-1.1 0-2.4.3-3 .9v-.9H71.6v.9c-1-.7-2.6-.9-3.4-.9h-8v.9c-.8-.7-2.5-.9-3.5-.9h-9l-2.1 2.2-1.9-2.2H30.3v14.6h13.2l2.1-2.3 2 2.3h8.1V60h.8c1.1 0 2.3 0 3.5-.5v3.9h6.7v-3.8h.3c.4 0 .5 0 .5.4v3.4h20.4c1.3 0 2.6-.3 3.4-.9v.9h6.5c1.3 0 2.7-.2 3.7-.7v-2.6h-.2zm0-6.9h-4.5c-.5 0-.8 0-1 .2-.3.2-.4.4-.4.8s.2.7.6.8c.3.1.5.1 1 .1h1.3c1.4 0 2.3.3 2.8.8.1.1.2.2.2.3v-3z"/></g><path d="M6.9 87.6h-.8c-.1-.3-.1-.9-.1-1 0-.3 0-.6-.6-.6H4.3v1.6h-.7v-3.9h1.8c.6 0 1.3.2 1.3 1.1 0 .5-.2.7-.4.9.2.1.3.3.4.7v.7c0 .2 0 .2.2.3v.2zm-.8-2.8c0-.5-.3-.5-.6-.5H4.3v1.1h1.1c.4 0 .7-.1.7-.6zm3.2.9c0-2.3-1.9-4.2-4.2-4.2-2.3 0-4.2 1.9-4.2 4.2 0 2.3 1.9 4.2 4.2 4.2 2.3 0 4.2-1.9 4.2-4.2zm-.6 0c0 2-1.5 3.6-3.6 3.6s-3.6-1.6-3.6-3.6 1.5-3.6 3.6-3.6 3.6 1.6 3.6 3.6z" fill="#007EC0"/></g></symbol><symbol id="shape-icon-cb-master" viewBox="0 0 300 180"><path d="M298.032 90.5c.014 48.936-39.646 88.614-88.582 88.627-48.937.012-88.614-39.646-88.627-88.582V90.5c-.013-48.935 39.647-88.615 88.58-88.628 48.938-.013 88.616 39.647 88.63 88.583v.045z" fill="#F90"/><path d="M90 1.895C41.356 2.205 1.968 41.78 1.968 90.5c0 48.91 39.695 88.604 88.605 88.604 22.955 0 43.88-8.748 59.624-23.086l-.007-.004h.018c3.224-2.938 6.23-6.108 8.995-9.488H141.05c-2.424-2.928-4.627-5.98-6.606-9.127h31.308c1.904-3.048 3.628-6.212 5.158-9.49h-41.635c-1.42-3.04-2.65-6.152-3.703-9.308h49.045c2.956-8.832 4.56-18.28 4.56-28.103 0-6.513-.706-12.862-2.042-18.975H122.97c.672-3.146 1.52-6.254 2.53-9.308h49.062c-1.097-3.25-2.37-6.417-3.82-9.487H129.27c1.496-3.196 3.19-6.305 5.084-9.307h31.285c-2.083-3.317-4.387-6.486-6.878-9.488H141.32c2.696-3.174 5.665-6.163 8.888-8.95-15.746-14.34-36.676-23.09-59.636-23.09h-.57z" fill="#C00"/><path d="M289.143 136.82c.482 0 .95.125 1.41.37.46.247.813.602 1.07 1.063.255.456.383.937.383 1.435 0 .492-.127.968-.38 1.424-.25.455-.604.81-1.06 1.063-.45.25-.928.375-1.424.375s-.972-.126-1.426-.375c-.455-.254-.807-.607-1.063-1.063-.252-.456-.377-.932-.377-1.424 0-.498.127-.98.384-1.435.258-.46.614-.813 1.07-1.062.463-.245.932-.37 1.413-.37m0 .475c-.4 0-.793.104-1.176.31-.38.208-.677.5-.89.89-.218.38-.326.777-.326 1.193 0 .412.107.81.316 1.188.214.377.51.673.888.885.38.212.776.316 1.188.316.414 0 .81-.104 1.19-.315.377-.21.672-.507.883-.884.21-.378.313-.775.313-1.188 0-.416-.106-.813-.32-1.194-.214-.388-.512-.68-.895-.888-.38-.208-.77-.31-1.17-.31m-1.256 3.974v-3.082h1.062c.36 0 .62.028.783.088.162.057.29.154.388.297.096.14.145.29.145.45 0 .227-.08.423-.242.59-.158.165-.373.26-.64.28.11.045.197.102.265.164.125.12.275.323.455.61l.375.603h-.606l-.272-.485c-.215-.382-.388-.62-.52-.718-.092-.07-.225-.105-.398-.105h-.293v1.31h-.5m.495-1.737h.604c.287 0 .482-.044.587-.13.106-.087.16-.2.16-.34 0-.093-.025-.175-.076-.245-.05-.073-.12-.125-.212-.162-.09-.035-.255-.055-.497-.055h-.563v.932" fill="#FCB340"/><g><path d="M119.975 115.92l1.18-8.02c-.645 0-1.593.28-2.43.28-3.285 0-3.695-1.756-3.437-3.038l3.236-16.13h4.992l1.03-9.103h-4.706l.958-5.517h-9.842c-.208.208-5.568 31.022-5.568 34.776 0 5.554 3.118 8.026 7.516 7.987 3.442-.03 6.125-.982 7.07-1.237zM122.962 100.632c0 13.332 8.8 16.5 16.297 16.5 6.92 0 10.55-1.605 10.55-1.605l1.66-9.1s-5.847 2.378-10.6 2.378c-10.13 0-8.355-7.554-8.355-7.554l19.463.06s1.24-6.11 1.24-8.602c0-6.217-3.388-13.85-13.746-13.85-9.486.003-16.51 10.224-16.51 21.774zm16.546-13.325c5.324 0 4.342 5.984 4.342 6.47h-10.474c0-.62.99-6.47 6.132-6.47zM199.246 115.917l1.69-10.284s-4.633 2.32-7.808 2.32c-6.693 0-9.378-5.11-9.378-10.6 0-11.137 5.758-17.265 12.168-17.265 4.808 0 8.665 2.7 8.665 2.7l1.54-9.994s-4.554-3.29-9.456-3.308c-14.745-.058-23.182 10.208-23.182 27.955 0 11.764 6.248 19.77 17.506 19.77 3.184 0 8.256-1.293 8.256-1.293zM68.086 79.006c-6.47 0-11.427 2.08-11.427 2.08l-1.37 8.126s4.092-1.663 10.28-1.663c3.513 0 6.083.394 6.083 3.25 0 1.733-.314 2.373-.314 2.373s-2.773-.23-4.057-.23c-9.21 0-16.73 3.48-16.73 13.98 0 8.272 5.624 10.17 9.11 10.17 6.656 0 9.29-4.204 9.443-4.216l-.077 3.488h8.306l3.706-25.98c0-11.025-9.616-11.38-12.956-11.38zm1.438 21.096c.18 1.586-.41 9.086-6.092 9.086-2.93 0-3.69-2.24-3.69-3.562 0-2.584 1.402-5.683 8.314-5.683 1.61 0 1.197.116 1.468.16zM89.87 116.9c2.126 0 14.273.54 14.273-11.994 0-11.72-11.244-9.404-11.244-14.114 0-2.342 1.832-3.08 5.183-3.08 1.33 0 6.447.423 6.447.423l1.19-8.33s-3.313-.74-8.705-.74c-6.98 0-14.063 2.785-14.063 12.317 0 10.802 11.812 9.717 11.812 14.267 0 3.036-3.3 3.286-5.844 3.286-4.4 0-8.363-1.51-8.377-1.438l-1.26 8.245c.23.07 2.675 1.157 10.588 1.157zM277.063 71.45l-1.705 12.708s-3.553-4.905-9.112-4.905c-10.46 0-15.85 10.423-15.85 22.396 0 7.73 3.845 15.306 11.7 15.306 5.65 0 8.784-3.94 8.784-3.94l-.415 3.364h9.178l7.207-44.862-9.787-.07zm-4.052 24.7c0 4.983-2.467 11.64-7.58 11.64-3.396 0-4.988-2.85-4.988-7.324 0-7.315 3.285-12.14 7.432-12.14 3.394 0 5.137 2.33 5.137 7.824zM17.005 116.417l5.743-33.87.844 33.87h6.5l12.124-33.87-5.37 33.87h9.657l7.437-44.922-15.342-.117-9.126 27.504-.25-27.387h-14.06l-7.544 44.922h9.387z" fill="#006"/><path d="M162.357 116.48c2.746-15.614 3.724-27.946 11.732-25.392 1.15-6.044 3.89-11.3 5.142-13.858 0 0-.396-.59-2.87-.59-4.226 0-9.867 8.575-9.867 8.575l.843-5.3h-8.786l-5.884 36.565h9.69zM219.006 79.006c-6.472 0-11.43 2.08-11.43 2.08l-1.37 8.126s4.096-1.663 10.28-1.663c3.515 0 6.084.394 6.084 3.25 0 1.733-.313 2.373-.313 2.373s-2.77-.23-4.055-.23c-9.21 0-16.73 3.48-16.73 13.98 0 8.272 5.623 10.17 9.108 10.17 6.655 0 9.292-4.204 9.443-4.216l-.078 3.488h8.31l3.704-25.98c0-11.025-9.616-11.38-12.954-11.38zm1.436 21.096c.18 1.586-.41 9.086-6.092 9.086-2.932 0-3.692-2.24-3.692-3.562 0-2.584 1.402-5.683 8.315-5.683 1.61 0 1.2.116 1.47.16zM241.522 116.48c1.508-11.487 4.3-27.615 11.73-25.392 1.15-6.044.042-6.028-2.432-6.028-4.228 0-5.164.154-5.164.154l.844-5.3h-8.785l-5.884 36.566h9.692z" fill="#006"/><g><path d="M122.434 113.06l1.18-8.02c-.644 0-1.593.276-2.43.276-3.284 0-3.646-1.746-3.437-3.037l2.653-16.363h4.99l1.206-8.87h-4.706l.958-5.516h-9.434c-.208.21-5.57 31.024-5.57 34.776 0 5.555 3.12 8.03 7.518 7.99 3.444-.03 6.126-.983 7.072-1.237zM125.423 97.77c0 13.332 8.8 16.5 16.297 16.5 6.92 0 9.965-1.547 9.965-1.547l1.662-9.1s-5.264 2.32-10.018 2.32c-10.13 0-8.357-7.553-8.357-7.553h19.172s1.238-6.113 1.238-8.604c0-6.216-3.094-13.79-13.452-13.79-9.485.002-16.507 10.223-16.507 21.774zm16.544-13.325c5.324 0 4.342 5.983 4.342 6.467h-10.475c0-.618.99-6.467 6.132-6.467zM201.707 113.055l1.688-10.285s-4.63 2.32-7.806 2.32c-6.693 0-9.377-5.11-9.377-10.6 0-11.136 5.758-17.263 12.168-17.263 4.808 0 8.666 2.7 8.666 2.7l1.54-9.994s-5.72-2.315-10.625-2.315c-10.89 0-21.485 9.448-21.485 27.192 0 11.766 5.72 19.537 16.98 19.537 3.182 0 8.252-1.292 8.252-1.292zM70.547 76.143c-6.47 0-11.428 2.08-11.428 2.08l-1.37 8.126s4.093-1.664 10.28-1.664c3.513 0 6.083.395 6.083 3.25 0 1.734-.315 2.374-.315 2.374s-2.77-.232-4.054-.232c-8.16 0-16.73 3.482-16.73 13.98 0 8.272 5.623 10.17 9.108 10.17 6.656 0 9.525-4.32 9.678-4.332l-.31 3.605h8.306l3.706-25.98c0-11.022-9.615-11.377-12.955-11.377zm2.02 21.154c.18 1.587-.994 9.026-6.674 9.026-2.93 0-3.692-2.238-3.692-3.562 0-2.58 1.404-5.68 8.317-5.68 1.608 0 1.78.173 2.05.217zM92.33 114.038c2.126 0 14.274.54 14.274-11.995 0-11.72-11.245-9.404-11.245-14.112 0-2.343 1.832-3.08 5.182-3.08 1.33 0 6.447.422 6.447.422l1.19-8.33s-3.313-.74-8.705-.74c-6.98 0-14.063 2.785-14.063 12.317 0 10.8 11.812 9.716 11.812 14.266 0 3.037-3.3 3.284-5.843 3.284-4.4 0-8.363-1.51-8.377-1.438l-1.258 8.246c.228.07 2.672 1.16 10.586 1.16zM279.852 68.668l-2.035 12.627s-3.55-4.905-9.11-4.905c-8.644 0-15.85 10.422-15.85 22.397 0 7.73 3.844 15.304 11.7 15.304 5.65 0 8.784-3.94 8.784-3.94l-.414 3.366h9.176l7.207-44.863-9.458.015zm-4.38 24.62c0 4.983-2.468 11.64-7.583 11.64-3.396 0-4.987-2.85-4.987-7.324 0-7.314 3.285-12.14 7.43-12.14 3.396 0 5.138 2.332 5.138 7.824zM19.466 113.555l5.743-33.87.842 33.87h6.5l12.125-33.87-5.37 33.87h9.657l7.438-44.923H41.467l-9.3 27.563-.485-27.563H17.915l-7.545 44.923h9.096zM164.818 113.617c2.746-15.616 3.255-28.296 9.808-25.975 1.147-6.044 2.254-8.382 3.506-10.94 0 0-.587-.123-1.82-.123-4.224 0-7.354 5.77-7.354 5.77l.84-5.3h-8.783l-5.885 36.567h9.688zM223.475 76.143c-6.47 0-11.428 2.08-11.428 2.08l-1.368 8.126s4.092-1.664 10.28-1.664c3.512 0 6.08.395 6.08 3.25 0 1.734-.313 2.374-.313 2.374s-2.77-.232-4.055-.232c-8.158 0-16.73 3.482-16.73 13.98 0 8.272 5.623 10.17 9.108 10.17 6.656 0 9.525-4.32 9.677-4.332l-.31 3.605h8.308l3.705-25.98c0-11.022-9.615-11.377-12.955-11.377zm2.024 21.154c.18 1.587-.997 9.026-6.68 9.026-2.93 0-3.69-2.238-3.69-3.562 0-2.58 1.404-5.68 8.316-5.68 1.608 0 1.78.173 2.053.217zM244.023 113.617C246.77 98 247.28 85.32 253.83 87.642c1.15-6.044 2.257-8.382 3.508-10.94 0 0-.587-.123-1.82-.123-4.224 0-7.354 5.77-7.354 5.77l.84-5.3h-8.783l-5.884 36.567h9.687zM289.105 107.975c.48 0 .95.123 1.406.373.46.242.817.598 1.073 1.06.257.457.383.934.383 1.433 0 .494-.126.97-.38 1.425-.25.455-.603.812-1.058 1.063-.454.25-.93.376-1.424.376-.498 0-.974-.126-1.43-.376-.453-.253-.805-.608-1.057-1.063-.256-.455-.38-.93-.38-1.424 0-.498.126-.975.383-1.433.258-.46.616-.815 1.073-1.06.46-.25.933-.372 1.412-.372m0 .472c-.4 0-.793.104-1.176.313-.383.204-.68.5-.895.885-.214.38-.322.78-.322 1.194s.104.81.313 1.187c.213.377.51.673.89.886.38.208.774.313 1.19.313.41 0 .81-.105 1.187-.313.378-.213.674-.51.884-.886.21-.38.314-.774.314-1.188s-.106-.814-.32-1.195c-.213-.386-.51-.68-.894-.885-.38-.208-.77-.313-1.17-.313m-1.256 3.976v-3.083h1.06c.362 0 .626.03.786.088.162.055.29.154.388.297.097.142.146.29.146.45 0 .226-.082.423-.244.59-.158.165-.37.26-.637.28.105.045.193.1.26.162.124.122.276.326.456.61l.377.605h-.61l-.27-.485c-.216-.383-.39-.62-.52-.718-.092-.072-.225-.107-.4-.107h-.29v1.31h-.503m.498-1.735h.604c.29 0 .484-.043.588-.13.105-.083.16-.198.16-.34 0-.092-.025-.174-.075-.243-.05-.074-.122-.127-.213-.164-.09-.034-.254-.052-.498-.052h-.565v.93" fill="#FFF"/></g></g></symbol><symbol id="shape-icon-cb-visa" viewBox="0 0 1135 714"><path fill="#1B1D74" d="M47 37h1041v170H47z"/><path fill="#1B1D74" d="M0 0v714h1135V0H0zm13 13h1109v689H13V13z"/><path fill="#E59703" d="M47 507h1041v170H47z"/><path fill="#1B1D74" d="M226.422 245.456l.055-7.052 107.04 2.04 1.902 150.01 88.116-149.02 52.98.084-140.998 233.96H275.45s-3.164-119.42-4.902-178.247c-1.476-49.96-24.446-45.605-44.126-51.774zM421.645 475.52h60.85l76.123-236.07h-60.27l-76.703 236.07zM721.11 292.45s-32.24-20.068-50.036-20.068c-11.436 0-31.953 10.314-31.953 28.115 0 37.156 68.394 35.485 68.394 95.908 0 28.357-15.71 82.127-99.052 82.127-56.397 0-79.49-24.677-79.49-24.677l19.467-35.347s24.55 18.035 58.173 18.035c24.863 0 41.063-9.737 41.063-24.602 0-30.31-74.174-43.282-74.174-95.813 0-42.5 39.22-82.59 99.053-82.59 49.05 0 71.953 28.485 71.953 28.485l-23.4 30.43zM897.5 241.438l-67.97.03L702.47 475.5h54.28l23.812-47.03h68.844l.094 47.03h58.062L897.5 241.438zm-57 65.218l7 83.812-51.03.03 44.03-83.842z"/></symbol><symbol id="shape-icon-cb" viewBox="0 0 148.492 100.5"><path d="M77.815 50.2v18.11h32.91v-.018c4.98-.01 9.02-4.057 9.02-9.047 0-4.983-4.038-9.028-9.02-9.037V50.2h-32.91zM43.568 29.33c-9.083 0-16.45 7.364-16.45 16.457v6.19c0 9.08 7.368 16.448 16.45 16.448h15.36c9.086 0 16.466-7.37 16.466-16.448V50.21H51.222v-2.904h24.172v-1.518c0-9.092-7.38-16.457-16.466-16.457h-15.36zM77.815 29.21v18.095h32.91v-.014c4.98 0 9.02-4.046 9.02-9.04 0-4.987-4.038-9.034-9.02-9.04h-32.91z"/><path d="M22.437 4.526h-9.67C7.096 4.526.76 9.12.76 15.27v68.723c0 5.825 6.174 11.982 12.006 11.982h98.268c-.204-1.448-.342-2.915-.342-4.42 0-.71.06-1.41.106-2.11H12.766c-2.244 0-5.47-3.2-5.47-5.452V15.27c0-2.247 3.226-4.213 5.47-4.213H135.2c2.246 0 6 1.96 6 4.212v44.534c.44-.02.873-.07 1.32-.07 1.778 0 3.513.185 5.212.468V15.27c0-6.15-6.333-10.743-11.998-10.743H22.437z"/><path d="M126.058 95.975h9.67c5.67 0 12.005-4.593 12.005-10.742V16.51c0-5.824-6.175-11.983-12.005-11.983h-98.27c.204 1.448.342 2.917.342 4.42 0 .71-.058 1.41-.107 2.11h98.03c2.247 0 5.474 3.2 5.474 5.452V85.23c0 2.245-3.227 4.213-5.473 4.213H13.292c-2.246 0-6-1.96-6-4.213V40.7c-.44.018-.874.067-1.32.067-1.778 0-3.513-.183-5.213-.468v44.933c0 6.148 6.333 10.74 11.998 10.74h113.3v.002z"/></symbol><symbol id="shape-icon-check" viewBox="0 0 512 512"><path d="M432 64L192 304 80 192 0 272l192 192 320-320-80-80z"/></symbol><symbol id="shape-icon-clipboard" viewBox="0 0 24.99 32"><circle cx="6.199" cy="10.681" r="1.168"/><path d="M8.81 9.69h11.37v1.98H8.81z"/><circle cx="6.199" cy="15.299" r="1.168"/><path d="M8.81 14.31h11.37v1.98H8.81z"/><circle cx="6.199" cy="20.413" r="1.168"/><path d="M8.81 19.423h11.37v1.98H8.81z"/><circle cx="6.199" cy="25.031" r="1.168"/><path d="M8.81 24.042h11.37v1.98H8.81z"/><path d="M23.67 2.557h-5.004V.99S14.926 0 12.433 0 6.2.99 6.2.99v1.567H1.32c-.73 0-1.32.59-1.32 1.32V30.68C0 31.41.59 32 1.32 32h22.35c.73 0 1.32-.59 1.32-1.32V3.877c0-.73-.59-1.32-1.32-1.32zM12.496 1.142c.672 0 1.216.544 1.216 1.216 0 .67-.543 1.215-1.215 1.215S11.28 3.03 11.28 2.358c0-.672.543-1.216 1.215-1.216zm9.856 28.22H2.64V5.195H6.2v.907h12.467v-.907h3.685V29.36z"/></symbol><symbol id="shape-icon-clock" viewBox="0 0 100 100"><path d="M50 1.42C23.213 1.42 1.42 23.213 1.42 50S23.213 98.58 50 98.58 98.58 76.787 98.58 50 76.787 1.42 50 1.42zm0 86.823c-21.087 0-38.244-17.155-38.244-38.243S28.913 11.757 50 11.757 88.244 28.912 88.244 50 71.087 88.243 50 88.243z"/><path d="M75.318 48.5h-21.83V22.25c0-2.21-1.792-4-4-4s-4 1.79-4 4V52.5c0 2.21 1.79 4 4 4h25.83c2.21 0 4-1.79 4-4s-1.79-4-4-4z"/></symbol><symbol id="shape-icon-delivery" viewBox="0 0 32 18"><title>icon-delivery@1x</title><path d="M7.51 12.708c-1.43 0-2.587 1.18-2.587 2.637s1.158 2.637 2.588 2.637c1.43 0 2.59-1.18 2.59-2.637s-1.16-2.637-2.59-2.637zm0 4.336c-.92 0-1.667-.762-1.667-1.7 0-.935.748-1.698 1.668-1.698.92 0 1.668.763 1.668 1.7 0 .936-.748 1.698-1.667 1.698zm17.134-4.336c-1.428 0-2.587 1.18-2.587 2.637s1.16 2.637 2.587 2.637c1.43 0 2.588-1.18 2.588-2.637s-1.16-2.637-2.588-2.637zm0 4.336c-.92 0-1.668-.762-1.668-1.7 0-.935.748-1.698 1.668-1.698.92 0 1.67.763 1.67 1.7 0 .936-.75 1.698-1.67 1.698zm6.062-8.53l-7.632-6.922C21.87.333 19.656.004 19.656.004H3.988C1.288.005.773 3.16.773 3.16v9.775c0 1.973 1.485 2.412 1.485 2.412h2.12c.09-3.085 2.98-3.288 2.98-3.288 3.505-.062 3.49 3.287 3.49 3.287H21.51c.167-3.472 3.23-3.298 3.23-3.298 3.193.314 3.24 3.296 3.24 3.296h.627s4.957-1.957 2.096-6.83zM19.76 7.677V3.124h3.79l5.182 4.552h-8.97z" fill-rule="evenodd"/></symbol><symbol id="shape-icon-good-deal" viewBox="0 0 32 29"><title>icon-bonplan@1x</title><path d="M29.43 16.33h-1.225c1.048 0 1.893.89 1.893 1.985 0 1.088-.845 1.976-1.893 1.976h-1.218c1.04 0 1.885.89 1.885 1.977 0 1.096-.845 1.984-1.885 1.984H25.77c1.04 0 1.883.88 1.883 1.977 0 1.096-.844 1.976-1.884 1.976H13.386s-.408.018-.907-.028c-.853-.072-2-.317-2-1.123V15.225s6.907-3.743 6.907-11.836c0 0-.33-2.91 1.386-3.046h.25c.996.073 1.77 1.133 2.257 2.583.4 1.17.614 2.583.614 3.95 0 3.155-1.226 5.502-1.226 5.502h8.763c1.04 0 1.886.887 1.886 1.975s-.845 1.976-1.885 1.976M.623 14.066v.154L1.84 28.365h7.37v-14.3H.62zM7.244 25.32c-.097.38-.31.717-.603.96-.328.282-.737.454-1.19.454-1.04 0-1.876-.852-1.876-1.903 0-1.06.836-1.91 1.876-1.91 1.03 0 1.866.85 1.866 1.91 0 .173-.027.337-.072.49z" fill-rule="evenodd"/></symbol><symbol id="shape-icon-information" viewBox="0 0 475 475"><path d="M238 0C107 0 0 107 0 238s107 237 238 237 237-106 237-237S369 0 238 0zm0 432c-107 0-194-87-194-194S131 44 238 44s194 87 194 194-87 194-194 194z"/><path d="M270 323l-20 9 26-133c3-14-12-29-28-20l-49 27c-9 5-12 17-7 26s17 12 26 7l12-6-25 127c-2 11 7 23 19 23 3 0 6-1 8-2l53-23c10-4 14-15 10-25s-15-14-25-10zM257 143c15 0 27-12 27-27s-12-27-27-27-27 12-27 27 12 27 27 27z"/></symbol><symbol id="shape-icon-payment-card" viewBox="0 0 496 355.4"><path d="M461 329H35c-5 0-9-4.1-9-9.2V162.2h444v157.7c0 5-4 9.1-9 9.1M35 26.4h426c5 0 9 4.1 9 9.1v63.4H26V35.5c0-5 4.1-9.1 9-9.1M452.3 0H43.7C19.6 0 0 19.9 0 44.3v266.8c0 24.4 19.6 44.3 43.7 44.3h408.6c24.1 0 43.7-19.9 43.7-44.3V44.3C496 19.9 476.4 0 452.3 0"/><path d="M461 329H35c-5 0-9-4.1-9-9.2V162.2h444v157.7c0 5-4 9.1-9 9.1M35 26.4h426c5 0 9 4.1 9 9.1v63.4H26V35.5c0-5 4.1-9.1 9-9.1M452.3 0H43.7C19.6 0 0 19.9 0 44.3v266.8c0 24.4 19.6 44.3 43.7 44.3h408.6c24.1 0 43.7-19.9 43.7-44.3V44.3C496 19.9 476.4 0 452.3 0"/></symbol><symbol id="shape-icon-paypal" viewBox="0 0 190 120"><path fill="#003087" d="M35.183 40.706c-2.21-2.52-6.207-3.6-11.318-3.6H9.03c-1.044 0-1.934.76-2.097 1.792L.756 78.073c-.123.772.475 1.473 1.258 1.473h9.16l2.3-14.59-.072.457c.164-1.032 1.046-1.792 2.09-1.792h4.352c8.55 0 15.244-3.473 17.2-13.518.057-.298.107-.586.15-.87-.246-.13-.246-.13 0 0 .583-3.71-.003-6.238-2.01-8.526"/><path fill="#009CDE" d="M146.12 49.756h-10.24c-.7 0-1.3.51-1.408 1.202l-4.14 26.26c-.083.517.32.986.843.986h5.256c.49 0 .907-.356.983-.84l1.176-7.446c.108-.69.704-1.202 1.403-1.202h3.24c6.746 0 10.64-3.263 11.656-9.734.458-2.828.017-5.052-1.306-6.608-1.456-1.713-4.038-2.618-7.464-2.618m1.182 9.59c-.56 3.677-3.367 3.677-6.084 3.677h-1.543l1.082-6.864c.064-.416.424-.72.844-.72h.708c1.85 0 3.596 0 4.496 1.05.54.632.7 1.567.498 2.857"/><path fill="#003087" d="M73.076 49.756H62.834c-.7 0-1.296.51-1.406 1.202l-4.14 26.26c-.083.517.317.986.84.986h4.892c.7 0 1.295-.51 1.405-1.2l1.12-7.086c.107-.69.704-1.202 1.404-1.202h3.24c6.745 0 10.64-3.263 11.655-9.734.46-2.828.02-5.052-1.305-6.608-1.457-1.713-4.038-2.618-7.464-2.618m1.182 9.59c-.56 3.677-3.368 3.677-6.084 3.677H66.63l1.084-6.864c.064-.416.422-.72.842-.72h.71c1.848 0 3.593 0 4.494 1.05.538.632.7 1.567.498 2.857M103.685 59.23h-4.902c-.42 0-.777.306-.846.72l-.213 1.372-.344-.497c-1.062-1.542-3.43-2.057-5.793-2.057-5.418 0-10.046 4.106-10.946 9.864-.468 2.873.197 5.618 1.827 7.535 1.496 1.76 3.63 2.492 6.175 2.492 4.368 0 6.79-2.805 6.79-2.805l-.22 1.362c-.08.517.32.986.846.986h4.414c.7 0 1.297-.51 1.406-1.2l2.65-16.788c.084-.517-.318-.986-.843-.986m-6.834 9.544c-.472 2.802-2.696 4.684-5.534 4.684-1.42 0-2.562-.458-3.292-1.324-.726-.857-1-2.083-.77-3.443.442-2.777 2.703-4.718 5.496-4.718 1.394 0 2.524.46 3.27 1.336.75.88 1.047 2.11.83 3.466"/><path fill="#009CDE" d="M176.73 59.23h-4.905c-.42 0-.777.306-.842.72l-.217 1.372-.342-.497c-1.062-1.542-3.432-2.057-5.793-2.057-5.42 0-10.046 4.106-10.946 9.864-.47 2.873.197 5.618 1.826 7.535 1.496 1.76 3.633 2.492 6.176 2.492 4.367 0 6.79-2.805 6.79-2.805l-.22 1.362c-.082.517.318.986.844.986h4.414c.703 0 1.3-.51 1.408-1.2l2.65-16.788c.083-.517-.317-.986-.843-.986m-6.834 9.544c-.475 2.802-2.697 4.684-5.535 4.684-1.42 0-2.56-.458-3.292-1.324-.727-.857-.998-2.083-.768-3.443.44-2.777 2.7-4.718 5.494-4.718 1.395 0 2.523.46 3.27 1.336.75.88 1.046 2.11.832 3.466"/><path fill="#003087" d="M129.804 59.23h-4.928c-.473 0-.914.232-1.178.624l-6.8 10.014-2.882-9.624c-.18-.6-.736-1.015-1.363-1.015h-4.844c-.587 0-1 .576-.81 1.127l5.428 15.933-5.105 7.202c-.4.564.004 1.347.695 1.347h4.926c.465 0 .902-.23 1.17-.612l16.39-23.66c.393-.565-.01-1.34-.7-1.34"/><path fill="#009CDE" d="M182.51 50.478l-4.204 26.74c-.08.52.318.986.844.986h4.23c.698 0 1.296-.51 1.403-1.2l4.145-26.262c.082-.517-.318-.985-.844-.985h-4.73c-.42 0-.78.305-.843.72"/><path fill="#003087" d="M35.183 40.706c-2.21-2.52-6.207-3.6-11.318-3.6H9.03c-1.044 0-1.934.76-2.097 1.792L.756 78.073c-.123.772.475 1.473 1.258 1.473h9.16l2.3-14.59-.072.457c.164-1.032 1.046-1.792 2.09-1.792h4.352c8.55 0 15.244-3.473 17.2-13.518.057-.298.107-.586.15-.87-.246-.13-.246-.13 0 0 .583-3.71-.003-6.238-2.01-8.526"/><path fill="#003087" d="M15.945 49.283c.097-.62.497-1.13 1.032-1.386.245-.117.517-.18.802-.18h11.63c1.376 0 2.66.09 3.834.278.337.054.664.116.98.188.317.07.625.15.923.237.15.043.295.088.44.136.576.192 1.113.417 1.607.68.582-3.715-.004-6.24-2.012-8.53-2.21-2.518-6.207-3.6-11.318-3.6H9.03c-1.044 0-1.933.76-2.097 1.793L.756 78.07c-.123.775.476 1.474 1.257 1.474h9.16l2.3-14.59 2.472-15.67z"/><path fill="#009CDE" d="M37.195 49.234c-.045.284-.094.572-.15.87-1.958 10.043-8.652 13.518-17.2 13.518H15.49c-1.044 0-1.926.76-2.09 1.792l-2.228 14.13-.632 4.01c-.107.676.416 1.288 1.1 1.288h7.72c.914 0 1.69-.666 1.834-1.567l.076-.394 1.455-9.22.093-.51c.144-.903.92-1.567 1.834-1.567h1.155c7.48 0 13.335-3.038 15.046-11.826.715-3.672.345-6.74-1.545-8.892-.572-.653-1.284-1.19-2.113-1.63"/><path fill="#012169" d="M35.147 48.418c-.298-.087-.606-.167-.923-.237-.316-.07-.644-.13-.98-.186-1.175-.19-2.458-.28-3.836-.28h-11.63c-.286 0-.557.065-.8.183-.538.257-.935.765-1.033 1.386l-2.472 15.672-.07.457c.162-1.032 1.043-1.792 2.088-1.792h4.354c8.55 0 15.244-3.474 17.2-13.52.058-.297.107-.584.152-.868-.495-.262-1.032-.487-1.61-.68-.143-.045-.29-.09-.44-.134"/></symbol><symbol id="shape-icon-pdf-file" viewBox="0 0 32 32"><path d="M3.79 3.033h11.093V7.96c0 .445.165.873.48 1.188.317.313.74.473 1.185.47l4.99-.046h.03v9.55h2.57V9.514c0-1.11-.423-2.178-1.205-2.968l-4.95-4.993C17.19.753 16.12.316 14.995.316H3.505c-1.258 0-2.285.994-2.285 2.252v24.424c0 1.257 1.027 2.27 2.284 2.27h6.018v-2.573h-5.73V3.032zm13.665 1.77L19.735 7h-.006l-2.275.053v-2.25z"/><path d="M6.966 8.544h3.607c.718 0 1.3-.568 1.3-1.288 0-.717-.582-1.284-1.3-1.284H6.966c-.72 0-1.3.567-1.3 1.284 0 .72.58 1.288 1.3 1.288zM18.46 10.967H6.967c-.72 0-1.3.566-1.3 1.285s.58 1.287 1.3 1.287H18.46c.72 0 1.303-.57 1.303-1.288s-.583-1.285-1.302-1.285zM18.46 15.815H6.967c-.72 0-1.3.68-1.3 1.396 0 .72.58 1.397 1.3 1.397H18.46c.72 0 1.303-.678 1.303-1.396 0-.716-.583-1.395-1.302-1.395zM5.666 22.098c0 .718.58 1.284 1.3 1.284h2.556v-2.57H6.966c-.72 0-1.3.57-1.3 1.286zM17.015 24.567c-.252 0-.442.024-.515.05v1.618c.147.023.238.03.418.03.658 0 1.067-.33 1.067-.894 0-.502-.353-.803-.97-.803z"/><path d="M13.31 20.738c-1.038 0-1.88.84-1.88 1.88v7.554c0 1.038.842 1.88 1.88 1.88H30.12c1.038 0 1.88-.842 1.88-1.88v-7.555c0-1.038-.842-1.88-1.88-1.88H13.31zm5.4 5.903c-.424.4-1.054.578-1.785.578-.163 0-.277-.007-.425-.024v1.993h-1.25v-5.44c.44-.065.934-.113 1.69-.113.764 0 1.315.147 1.682.44.35.275.588.73.588 1.266 0 .535-.177.99-.5 1.3zm5.23 1.862c-.578.48-1.446.708-2.52.708-.642 0-1.1-.04-1.395-.08v-5.383c.44-.073 1.037-.114 1.663-.114 1.04 0 1.71.187 2.24.585.567.423.923 1.098.923 2.064.003 1.05-.382 1.774-.91 2.22zm5.048-3.797H26.93v1.248h1.983v1.028H26.93v2.206h-1.248v-5.51h3.306v1.03z"/><path d="M21.823 24.584c-.276 0-.475.024-.548.05v3.584c.073.025.264.025.416.025 1.123.007 1.843-.61 1.843-1.92.007-1.136-.645-1.74-1.71-1.74z"/></symbol><symbol id="shape-icon-phone" viewBox="0 0 31 31"><title>icon-phone@1x</title><path d="M30.347 25.218l-6.612-4.575c-.305-.305-.803-.305-1.108.002l-1.604 1.6c-1.652 1.654-6.85-2.467-8.537-4.154-1.685-1.684-5.808-6.88-4.155-8.535l1.604-1.603c.305-.306.305-.803 0-1.11L5.36.23c-.305-.307-.8-.307-1.108 0L1.12 2.344c-1.365 1.368-3.687 6.2 8.614 18.5 12.3 12.3 17.134 9.98 18.5 8.614h.002l2.11-3.132c.308-.307.308-.804 0-1.108" fill-rule="evenodd"/></symbol><symbol id="shape-icon-r-check" viewBox="0 0 792 612"><path fill="#FFF" d="M242.5 163.5h332v280h-332z"/><path d="M403.484 65.686c-130.98 0-237.156 107.3-237.156 239.657C166.328 437.7 272.506 545 403.484 545c130.98 0 237.155-107.3 237.155-239.657 0-132.357-106.178-239.657-237.156-239.657zM558.45 256.104L412.506 422.02c-7.188 8.176-17.2 12.367-27.284 12.367-8.008 0-16.06-2.646-22.775-8.08l-91.216-73.74c-15.73-12.71-18.285-35.917-5.69-51.815 12.577-15.913 35.55-18.49 51.28-5.76l64.16 51.867L503.918 207.1c13.37-15.213 36.44-16.6 51.505-3.06 15.062 13.54 16.418 36.834 3.028 52.064z"/><path fill="#FFF" d="M401.596 2C235.5 2 100.856 138.066 100.856 305.907c0 167.842 134.645 303.907 300.738 303.907 166.092 0 300.733-136.065 300.733-303.907C702.327 138.067 567.685 2 401.597 2zm1.813 542.657c-130.98 0-237.158-107.3-237.158-239.657 0-132.357 106.18-239.657 237.157-239.657 130.976 0 237.154 107.3 237.154 239.657 0 132.357-106.176 239.657-237.155 239.657z"/></symbol><symbol id="shape-icon-r-sim" viewBox="0 0 64 64"><path d="M39.318 4.59h-15.66c-2.64 0-6.12 1.514-7.924 3.444l-2.16 2.314c-1.79 1.917-3.193 5.476-3.193 8.102v31.944c0 2.83 2.304 5.135 5.136 5.135H39.32c2.83 0 5.134-2.305 5.134-5.136V9.726c0-2.832-2.306-5.135-5.136-5.135zm3.635 45.805c0 2.004-1.63 3.635-3.635 3.635H15.516c-2.004 0-3.635-1.63-3.635-3.635V18.45c0-2.256 1.253-5.432 2.79-7.078l2.16-2.314c1.527-1.636 4.592-2.967 6.828-2.967h15.66c2.004 0 3.635 1.632 3.635 3.636v40.67z"/><path d="M37.73 31.866H16.52c-1.415 0-2.567 1.15-2.567 2.567v14.373c0 1.416 1.152 2.567 2.568 2.567h21.21c1.416 0 2.566-1.15 2.566-2.567V34.434c0-1.416-1.15-2.568-2.566-2.568zm-8.937.75h3.646c.55 0 1 .448 1 1v3.123c0 1-.815 1.815-1.817 1.815h-2.83c-.552 0-1-.448-1-1v-3.94c0-.55.448-1 1-1zm-6.254 0h3.503c.552 0 1 .448 1 1v3.94c0 .55-.448 1-1 1H22.54c-.553 0-1-.45-1-1v-3.94c0-.552.447-1 1-1zm-6.02 0h3.27c.55 0 1 .448 1 1v3.94c0 .55-.45 1-1 1h-4.087c-.552 0-1-.45-1-1v-3.123c0-1 .816-1.817 1.818-1.817zm3.488 18.008h-3.486c-1.002 0-1.818-.815-1.818-1.817V47.14c0-.553.448-1 1-1h4.305c.55 0 1 .447 1 1v2.484c-.002.552-.45 1-1.002 1zm6.254 0h-3.504c-.552 0-1-.448-1-1V47.14c0-.553.448-1 1-1h3.504c.552 0 1 .447 1 1v2.484c0 .552-.448 1-1 1zm6.177 0h-3.43c-.55 0-1-.448-1-1V47.14c0-.553.45-1 1-1h3.43c.55 0 1 .447 1 1v2.484c0 .552-.448 1-1 1zm5.29 0h-2.54c-.553 0-1-.448-1-1V47.14c0-.553.447-1 1-1h3.356c.552 0 1 .447 1 1v1.667c0 1.002-.814 1.817-1.816 1.817zm.817-5.235H15.703c-.552 0-1-.45-1-1v-4.084c0-.552.448-1 1-1h15.92c1.414 0 2.566-1.15 2.566-2.566v-3.123c0-.552.447-1 1-1h2.54c1.002 0 1.816.815 1.816 1.817v9.955c0 .55-.447 1-1 1z"/></symbol><symbol id="shape-icon-shipping" viewBox="0 0 800 800"><path d="M41.472 117.08C26.072 70.404 51.514 19.897 98.194 4.495s97.183 10.048 112.583 56.722l175.162 530.88c-16.325-4.31-33.685-5.098-51.015-1.93L165.345 76.21c-7.136-21.63-30.532-33.416-52.16-26.28s-33.417 30.532-26.28 52.16c4.138 12.546-2.677 26.073-15.222 30.212-12.545 4.14-26.072-2.676-30.21-15.22zm690.13 416.455l-286.99 94.69c10.185 11.564 18.26 25.31 23.384 40.843.183.554.284 1.114.458 1.67l278.137-91.77c12.546-4.14 19.36-17.667 15.222-30.212-4.138-12.545-17.665-19.36-30.21-15.22zm-286.32 143.033c16.26 49.282-10.508 102.414-59.79 118.675s-102.414-10.51-118.675-59.79c-16.26-49.283 10.51-102.415 59.79-118.676s102.415 10.51 118.676 59.79zm-44.616 14.72c-8.13-24.64-34.696-38.024-59.337-29.894s-38.027 34.696-29.897 59.337 34.697 38.027 59.338 29.897c24.642-8.13 38.026-34.697 29.896-59.338zm252.068-530.534L750.17 456.06c2.07 6.274-1.34 13.037-7.61 15.106L435.893 572.35c-6.273 2.07-13.036-1.34-15.105-7.61L323.353 269.43c-2.07-6.273 1.338-13.036 7.61-15.105L637.63 153.144c6.272-2.07 13.035 1.337 15.104 7.61zM612.17 332.296l-104.42-57.452-49.71 108.306 32.91 15.147 21.494-46.854 38.81 117.63 37.144-12.256-38.805-117.61 45.14 24.847 17.436-31.758z"/></symbol><symbol id="shape-icon-shop" viewBox="0 0 112 112"><path d="M102.666 9.333h-98V0h98v9.333zM105 56.238c.8 0 1.572-.103 2.334-.233V112h-14V65.334h-28V112H4.667V56c.76.13 1.537.238 2.333.238 5.264 0 9.86-2.92 12.25-7.23 2.39 4.308 6.986 7.23 12.25 7.23s9.86-2.92 12.25-7.23c2.39 4.308 6.986 7.23 12.25 7.23 5.263 0 9.86-2.92 12.25-7.23 2.39 4.308 6.986 7.23 12.25 7.23s9.86-2.92 12.25-7.224c2.395 4.302 6.986 7.224 12.25 7.224zm-53.667 9.096H18.667v28h32.667v-28zM102.666 14h-98S0 43.52 0 44.333c0 3.864 3.136 7 7 7s7-3.136 7-7v-21h10.5v21c0 3.864 3.136 7 7 7s7-3.136 7-7v-21H49v21c0 3.864 3.137 7 7 7s7-3.136 7-7v-21h10.5v21c0 3.864 3.137 7 7 7s7-3.136 7-7l.047-21H98v21c0 3.864 3.137 7 7 7s7-3.136 7-7C112 43.52 102.666 14 102.666 14z"/></symbol><symbol id="shape-icon-sim" viewBox="0 0 24 33"><title>icon-sim@1x</title><g fill-rule="evenodd"><path d="M13.635 1.572l-11.774.03c-.222 0-.433.083-.593.237-.16.153-.246.354-.245.567l.07 28.413c.004.443.38.803.843.802v.438l.002-.437 19.42-.046c.463 0 .84-.363.838-.805l-.052-20.18c0-.572-.352-1.45-.752-1.878L15.455 2.35c-.387-.414-1.237-.776-1.82-.778M1.937 32.5c-.97 0-1.757-.753-1.758-1.678L.103 2.41c0-.447.182-.87.514-1.19C.95.9 1.39.725 1.86.724L13.63.695c.848 0 1.948.47 2.508 1.07l5.937 6.365c.55.59.984 1.67.986 2.462l.052 20.177c.003.926-.785 1.683-1.754 1.686L1.936 32.5"/><path d="M13.67 18.555l-.02-4.272-4.366.02.02 4.27 4.367-.018"/><path d="M18.685 19.057l-4.74.023c-.01 0-.017-.004-.026-.004l-4.886.023c-.15 0-.274-.12-.273-.262l-.023-4.533-1.228.005c-1.73.008-3.13 1.36-3.122 3.016l.027 5.874 14.29-.063-.02-4.08"/><path d="M18.682 18.535l-.006-1.272c-.008-1.656-1.423-2.995-3.15-2.988l-1.232.006.02 4.273 4.368-.018M9.43 23.7l.02 4.27 4.215-.018-.02-4.272-4.215.02M18.706 23.658l-4.416.02.022 4.27 1.28-.006c1.726-.006 3.13-1.358 3.12-3.01l-.006-1.274M4.418 23.72l.006 1.27c.01 1.657 1.42 2.996 3.15 2.99l1.18-.007-.02-4.272-4.316.02"/></g></symbol><symbol id="shape-icon-speech" viewBox="0 0 34 25"><title>icon-speech@1x</title><path fill="#FFF" stroke="#0065A6" stroke-width="2" d="M1 11.314c0 5.695 7.02 10.312 15.685 10.312 1.274 0 2.502-.11 3.69-.3.86 1.38 2.957 1.99 4.83 2.18h2.516c.927-.118 1.317-.37.572-.612-1.348-.44-2.138-1.92-2.576-3.158 3.797-1.764 6.356-4.6 6.63-7.845v-1.154C31.89 5.308 25.053 1 16.686 1 8.02 1 1 5.618 1 11.314"/><path d="M15.8 12.842c.044.432.362.705.817.705.454 0 .795-.273.84-.705l.795-8c.047-.47-.295-.842-.817-.842H15.8c-.523 0-.84.373-.796.843l.795 8zm-.796 3.49v.195c0 .765.704 1.353 1.613 1.353.932 0 1.613-.588 1.613-1.353v-.196c0-.764-.682-1.352-1.613-1.352-.91 0-1.613.588-1.613 1.353z"/></symbol><symbol id="shape-icon-warning-bubble" viewBox="15 0 70 64"><path d="M15.875 27.098C15.875 41.822 31.168 53.82 50 53.82c1.26 0 2.522-.04 3.823-.16l18.018 9.68c.328.202.733.283 1.14.283.487 0 1.017-.12 1.424-.448.773-.527 1.14-1.464.976-2.4l-2.44-13.868c7.12-5.084 11.187-12.202 11.187-19.808C84.125 12.374 68.832.375 50 .375s-34.125 12-34.125 26.722zm4.922 0c0-12.04 13.137-21.842 29.244-21.842s29.244 9.803 29.244 21.842c0 6.386-3.74 12.406-10.29 16.594-.853.53-1.26 1.506-1.098 2.48l1.83 10.454L55.49 48.98c-.445-.243-.936-.324-1.423-.285-1.383.123-2.766.204-4.066.204-16.107 0-29.203-9.762-29.203-21.802z"/><path d="M47.756 13.5h6.87V32h-6.87z"/><circle cx="51.191" cy="37.688" r="3.562"/></symbol></svg>