<svg xmlns="http://www.w3.org/2000/svg" xmlns:xlink="http://www.w3.org/1999/xlink"><defs><radialGradient id="shape-icon-3x-cb-cofidis-a" cx="16.438" cy="39.625" r="90.505" gradientUnits="userSpaceOnUse"><stop offset="0" stop-color="#23BCEC"/><stop offset=".078" stop-color="#00B4E8"/><stop offset=".311" stop-color="#00A2DD"/><stop offset=".544" stop-color="#0096D6"/><stop offset=".774" stop-color="#008FD1"/><stop offset="1" stop-color="#008CCF"/></radialGradient><linearGradient id="shape-icon-byou-a" gradientUnits="userSpaceOnUse" x1="731.762" y1="851.18" x2="731.762" y2="776.168" gradientTransform="translate(-231.06 -774.14)"><stop offset=".5" stop-color="#008356"/><stop offset="1" stop-color="#00AAA0"/></linearGradient><linearGradient id="shape-icon-byou-b" gradientUnits="userSpaceOnUse" x1="663.514" y1="851.18" x2="663.514" y2="776.168" gradientTransform="translate(-231.06 -774.14)"><stop offset=".178" stop-color="#007B9B"/><stop offset="1" stop-color="#37BDE9"/></linearGradient><linearGradient id="shape-icon-byou-c" gradientUnits="userSpaceOnUse" x1="585.469" y1="851.152" x2="585.469" y2="776.141" gradientTransform="translate(-231.06 -774.14)"><stop offset=".5" stop-color="#0079BF"/><stop offset="1" stop-color="#73CAEE"/></linearGradient><linearGradient id="shape-icon-byou-d" gradientUnits="userSpaceOnUse" x1="802.086" y1="851.18" x2="802.086" y2="776.291" gradientTransform="translate(-231.06 -774.14)"><stop offset=".546" stop-color="#008F30"/><stop offset="1" stop-color="#A6C859"/></linearGradient><path id="shape-icon-cart-a" d="M-42.875-39.94H186.77V122.13H-42.875z"/><clipPath id="shape-icon-cart-d"><use xlink:href="#shape-icon-cart-a" overflow="visible"/></clipPath><path id="shape-icon-cart-b" d="M37.978 68.577c-1.893 0-3.428 1.533-3.428 3.428 0 1.893 1.535 3.427 3.428 3.427h20.565c1.894 0 3.428-1.534 3.428-3.427 0-1.895-1.533-3.428-3.427-3.428H37.978zM11.583 71.95c0 4.727 3.845 8.57 8.57 8.57 4.723 0 8.568-3.844 8.568-8.57 0-4.726-3.844-8.568-8.568-8.568s-8.57 3.843-8.57 8.57m54.842 0c0 4.725 3.845 8.567 8.57 8.567 4.723 0 8.567-3.844 8.567-8.57 0-4.726-3.844-8.568-8.567-8.568-4.724 0-8.57 3.843-8.57 8.57M37.98 17.163h50.724l-6.855 34.274h-43.87V17.164zm-.688-6.855c-3.786 0-6.167 3.015-6.167 6.8v34.276c0 3.785 2.38 6.908 6.167 6.908h44.557c3.268 0 6.083-2.334 6.722-5.535l6.853-34.292c.405-2.014-.116-4.08-1.42-5.67-1.3-1.588-3.246-2.49-5.3-2.49H37.29zM.763 1.666c-.973 1.625-.443 3.73 1.18 4.7l15.47 9.26v39.24c0 1.893 1.534 3.427 3.427 3.427 1.894 0 3.428-1.534 3.428-3.427V13.683c0-1.205-.633-2.322-1.668-2.94L5.462.487C4.91.157 4.302 0 3.704 0c-1.166 0-2.3.595-2.94 1.667"/><clipPath id="shape-icon-cart-c"><use xlink:href="#shape-icon-cart-b" overflow="visible"/></clipPath><style>.cls-1{fill:#009dcc;}</style></defs><symbol id="shape-icon-14d-reconsider" viewBox="0 0 612 792"><path d="M194.067 312.397l-16.023 4.153c-2.374.594-5.638 1.188-8.01 1.188-10.683 0-19.88-8.902-19.88-19.584 0-9.198 5.933-16.913 15.132-19.584l29.375-8.604c8.606-2.374 15.134-3.857 21.365-3.857h.594c12.46 0 22.55 10.088 22.55 22.55v167.352c0 12.462-10.088 22.553-22.55 22.553-12.464 0-22.552-10.09-22.552-22.553V312.397zM384.564 431.977h-85.458c-12.166 0-22.254-8.9-22.254-21.065 0-9.495 3.857-16.913 10.682-24.925l90.204-104.743c8.604-10.09 15.133-15.43 28.482-15.43 12.166 0 21.958 9.495 21.958 21.66V394.89h10.98c10.385 0 18.69 8.31 18.69 18.693 0 10.387-8.308 18.397-18.69 18.397H428.18V456.9c0 12.166-9.792 21.66-21.958 21.66-12.165 0-21.658-9.494-21.658-21.66v-24.923zm0-37.09V330.2l-55.19 64.686h55.19z"/><path d="M109.417 604.755c-5.062 0-10.125-1.91-14.02-5.737-56.435-55.48-87.7-129.66-88.04-208.877-.167-38.932 7.15-76.96 21.746-113.025C44.2 239.81 66.44 206.303 95.206 177.52c55.473-56.404 129.633-87.652 208.827-87.99 38.978-.173 76.96 7.15 113.026 21.746 37.304 15.098 70.81 37.336 99.595 66.102 56.402 55.473 87.65 129.632 87.988 208.826.167 38.932-7.15 76.96-21.746 113.026-15.11 37.335-37.373 70.867-66.172 99.667-7.81 7.81-20.475 7.81-28.285 0-7.81-7.81-7.81-20.475 0-28.285 49.438-49.437 76.5-114.866 76.204-184.237-.293-68.47-27.312-132.58-76.082-180.522l-.122-.12c-49.437-49.438-114.85-76.457-184.236-76.204-68.47.29-132.58 27.31-180.523 76.08l-.12.122C74.124 255.17 47.06 320.6 47.358 389.97c.292 68.47 27.312 132.58 76.082 180.522 7.875 7.744 7.984 20.406.24 28.283-3.914 3.983-9.088 5.98-14.263 5.98z"/><g><path d="M196.713 664.81c-.552 0-1.107-.023-1.664-.07l-44.095-3.673-44.096-1.838c-7.18-.3-13.647-4.427-16.94-10.812-3.296-6.386-2.913-14.047 1.003-20.07l24.11-37.093c.124-.192.252-.382.383-.57l25.963-37.09c4.08-5.83 10.957-9.055 18.045-8.46 7.092.59 13.336 4.905 16.396 11.33l18.465 38.774 19.903 39.803c1.62 2.888 2.542 6.22 2.542 9.766 0 10.978-8.847 19.892-19.802 19.998h-.215zm-53.13-44.085l9.45.394c.276.01.552.027.828.05l9.045.754-4.485-8.97c-.057-.113-.113-.228-.168-.345l-3.788-7.956-6.083 8.688-4.796 7.383z"/><path d="M139.153 600.388H170.5v32.048h-31.347z"/></g></symbol><symbol id="shape-icon-3x-cb-cofidis" viewBox="0 0 169.875 97.75"><path fill="#008CCF" d="M27.46 75.402c0-.87.666-1.54 1.54-1.54.88 0 1.57.67 1.57 1.54v6.046c1.002-1.413 2.422-2.548 4.634-2.548 3.187 0 6.3 2.522 6.3 7.047V86c0 4.505-3.087 7.05-6.3 7.05-2.264 0-3.68-1.132-4.633-2.39v.693c0 .848-.69 1.54-1.57 1.54-.844 0-1.54-.692-1.54-1.54v-15.95M38.343 86v-.053c0-2.617-1.775-4.346-3.882-4.346-2.112 0-3.97 1.753-3.97 4.347V86c0 2.6 1.858 4.35 3.97 4.35 2.133 0 3.882-1.67 3.882-4.35M44.13 96.572c-.46-.152-.973-.54-.973-1.285 0-.77.59-1.287 1.255-1.287.26 0 .412.05.57.105.355.102.64.18 1.077.18.923 0 1.413-.387 1.93-1.44l.1-.282-5.04-11.27c-.103-.23-.18-.54-.18-.742 0-.876.667-1.52 1.542-1.52.8 0 1.237.463 1.52 1.183l3.652 9.027 3.393-9.027c.26-.643.694-1.182 1.493-1.182.825 0 1.492.644 1.492 1.466 0 .258-.075.592-.128.746l-4.964 11.91c-1.16 2.775-2.394 3.805-4.577 3.805-.874 0-1.52-.126-2.164-.385M60.314 83.844v-.055c0-5.115 3.832-9.313 9.284-9.313 2.778 0 4.606.823 6.172 2.034.337.26.62.69.62 1.26 0 .875-.697 1.547-1.572 1.547-.437 0-.744-.156-.95-.31-1.235-1.005-2.574-1.62-4.295-1.62-3.422 0-5.943 2.83-5.943 6.353v.05c0 3.526 2.495 6.38 5.943 6.38 1.9 0 3.185-.62 4.5-1.727.23-.2.568-.357.953-.357.797 0 1.493.67 1.493 1.465 0 .49-.235.88-.518 1.136-1.7 1.487-3.626 2.418-6.532 2.418-5.248 0-9.156-4.092-9.156-9.26M78.22 86.08v-.053c0-3.885 3.082-7.1 7.25-7.1 4.17 0 7.228 3.167 7.228 7.045v.055c0 3.86-3.087 7.074-7.277 7.074-4.14.002-7.2-3.16-7.2-7.02m11.37 0v-.053c0-2.394-1.727-4.37-4.168-4.37-2.498 0-4.093 1.952-4.093 4.315v.055c0 2.365 1.725 4.35 4.14 4.35 2.522 0 4.12-1.957 4.12-4.297M96.046 81.887h-.542c-.718 0-1.31-.566-1.31-1.285 0-.725.592-1.312 1.31-1.312h.542v-1c0-1.495.386-2.626 1.106-3.346.72-.72 1.722-1.082 3.062-1.082.61 0 1.126.052 1.567.13.565.075 1.08.594 1.08 1.282 0 .725-.59 1.314-1.313 1.29-.177-.025-.436-.052-.645-.052-1.18 0-1.795.643-1.795 2.057v.747h2.418c.744 0 1.312.562 1.312 1.285 0 .72-.595 1.285-1.312 1.285H99.16v9.492c0 .85-.697 1.542-1.57 1.542-.85 0-1.544-.693-1.544-1.543v-9.493m8.927-6.328c0-.927.77-1.518 1.772-1.518 1.007 0 1.774.59 1.774 1.517v.153c0 .926-.77 1.545-1.775 1.545-1.002 0-1.772-.62-1.772-1.545v-.154zm.23 5.068c0-.874.666-1.57 1.542-1.57.875 0 1.57.696 1.57 1.57v10.75c0 .874-.695 1.544-1.57 1.544-.85 0-1.54-.67-1.54-1.543V80.627zM125.218 91.38c0 .872-.696 1.542-1.54 1.542-.88 0-1.574-.67-1.574-1.543v-.85c-1.004 1.415-2.418 2.545-4.63 2.545-3.187 0-6.302-2.544-6.302-7.048v-.055c0-4.498 3.06-7.046 6.303-7.046 2.235 0 3.652 1.104 4.63 2.394v-5.89c0-.873.693-1.543 1.544-1.543.872 0 1.568.67 1.568 1.543v15.95m-10.906-5.405v.053c0 2.623 1.797 4.35 3.904 4.35 2.088 0 3.938-1.752 3.938-4.35v-.053c0-2.617-1.85-4.347-3.938-4.347-2.13 0-3.904 1.647-3.904 4.347M128.562 75.56c0-.927.77-1.518 1.772-1.518 1.005 0 1.774.59 1.774 1.517v.153c0 .926-.77 1.545-1.774 1.545s-1.772-.62-1.772-1.545v-.154m.233 5.068c0-.874.666-1.57 1.54-1.57.876 0 1.57.696 1.57 1.57v10.75c0 .874-.694 1.544-1.57 1.544-.847 0-1.54-.67-1.54-1.543V80.627zM134.94 91.428c-.337-.176-.59-.563-.59-1.078 0-.692.536-1.26 1.257-1.26.26 0 .49.076.668.178 1.312.877 2.68 1.314 3.914 1.314 1.335 0 2.104-.566 2.104-1.47v-.048c0-1.06-1.44-1.414-3.035-1.904-2.006-.564-4.243-1.387-4.243-3.987v-.05c0-2.574 2.133-4.145 4.836-4.145 1.44 0 2.96.41 4.27 1.104.438.23.75.646.75 1.187 0 .718-.568 1.26-1.29 1.26-.26 0-.41-.052-.617-.157-1.106-.564-2.237-.925-3.188-.925-1.21 0-1.903.567-1.903 1.34v.05c0 1.006 1.467 1.416 3.062 1.93 1.98.618 4.22 1.52 4.22 3.963v.05c0 2.857-2.214 4.27-5.04 4.27-1.732-.003-3.605-.536-5.176-1.622M138.434 30.03v-.094c0-2.58-2.063-4.176-5.77-4.176h-8.308v8.728h7.886c3.706 0 6.192-1.454 6.192-4.457zM133.508 39.368h-9.15v9.01h9.572c3.94 0 6.334-1.55 6.334-4.505v-.094c0-2.77-2.205-4.412-6.756-4.412z"/><path fill="url(#shape-icon-3x-cb-cofidis-a)" d="M164.645 1.48H33.46c-17.39 0-32.074 16.287-32.074 34.136 0 17.847 14.586 34.135 32.074 34.135h101.117c18.85 0 34.135-15.282 34.135-34.134V5.542c0-2.243-1.82-4.063-4.065-4.063zm-114.6 42.158c0 6.053-4.644 10.417-11.495 10.417-4.832 0-8.446-1.69-11.12-4.27-.516-.423-.938-1.22-.938-2.065 0-1.5 1.267-2.77 2.768-2.77.844 0 1.455.33 1.923.75 2.065 2.066 4.41 3.147 7.46 3.147 3.24 0 5.68-1.97 5.68-4.974v-.095c0-3.237-2.957-5.067-7.556-5.067h-1.173c-1.36 0-2.487-1.125-2.487-2.485 0-.75.33-1.455 1.22-2.346l7.695-8.213H30.104c-1.407 0-2.533-1.126-2.533-2.486 0-1.407 1.127-2.533 2.534-2.533h16.798c1.642 0 2.862.985 2.862 2.534 0 1.36-.657 2.16-1.642 3.145l-7.742 8.023c4.974.61 9.666 3.144 9.666 9.196v.094zm24.912 5.882c-1.126 0-1.924-.517-2.627-1.455l-6.006-7.742-6.006 7.742c-.657.797-1.455 1.455-2.487 1.455-1.454 0-2.626-1.08-2.626-2.486 0-.8.28-1.41.797-1.97l7.04-8.447-6.523-7.742c-.61-.75-.938-1.406-.938-2.157 0-1.596 1.22-2.628 2.627-2.628 1.126 0 1.923.516 2.627 1.407l5.584 7.32 5.677-7.272c.657-.846 1.454-1.455 2.44-1.455 1.5 0 2.674 1.078 2.674 2.486 0 .798-.33 1.36-.798 1.924l-6.71 8.023 6.944 8.21c.61.752.938 1.41.938 2.16 0 1.594-1.22 2.627-2.627 2.627zm36.27.125c-3.098 2.722-6.617 4.41-11.918 4.41-9.575 0-16.707-7.46-16.707-16.893v-.094c0-9.337 6.99-16.984 16.938-16.984 5.067 0 8.4 1.5 11.262 3.707.61.47 1.126 1.268 1.126 2.3 0 1.595-1.266 2.814-2.86 2.814-.798 0-1.36-.28-1.736-.562-2.252-1.83-4.692-2.956-7.836-2.956-6.24 0-10.838 5.16-10.838 11.59v.093c0 6.428 4.55 11.636 10.838 11.636 3.472 0 5.817-1.125 8.212-3.144.422-.376 1.03-.657 1.734-.657 1.455 0 2.723 1.22 2.723 2.676 0 .892-.423 1.596-.938 2.065zm34.808-5.163c0 5.866-4.833 9.01-12.152 9.01H121.59c-1.642 0-2.91-1.268-2.91-2.91V23.557c0-1.642 1.27-2.91 2.91-2.91h11.824c3.753 0 6.71 1.033 8.586 2.91 1.455 1.454 2.205 3.238 2.205 5.443v.092c0 3.942-2.252 6.053-4.69 7.32 3.847 1.313 6.52 3.52 6.52 7.977v.092z"/></symbol><symbol id="shape-icon-3x-sans-frais-2" viewBox="0 0 82 82"><g fill="none" fill-rule="evenodd"><path d="M15.884 53.224c-.333 0-.646.09-.96.256l-8.562 4.95c-.92.536-1.236 1.706-.71 2.606.358.622 1.004.966 1.67.966.316 0 .65-.082.957-.254l8.56-4.95c.91-.53 1.223-1.7.697-2.616-.35-.606-.985-.958-1.653-.958M13.964 40.58c0-1.054-.862-1.993-1.92-1.993h-9.89c-1.057 0-1.91.94-1.91 1.994 0 1.06.853 2.007 1.91 2.007h9.89c1.058 0 1.92-.947 1.92-2.006M16.842 24.89L8.28 19.95c-.31-.18-.64-.266-.958-.266-.665 0-1.312.344-1.67.966-.526.9-.21 2.075.702 2.61l8.57 4.94c.3.18.628.256.96.256.66 0 1.304-.343 1.653-.95.527-.92.213-2.088-.695-2.615M65.42 28.456c.324 0 .648-.076.954-.256l8.567-4.94c.923-.535 1.234-1.71.7-2.61-.35-.622-1-.965-1.656-.965-.327 0-.646.087-.955.256l-8.577 4.95c-.905.527-1.222 1.694-.695 2.617.343.605.998.95 1.66.95M41.01 14.166c1.044 0 1.99-.86 1.99-1.915V2.348c0-1.056-.946-1.91-1.99-1.91-1.056 0-2.01.854-2.01 1.91v9.904c0 1.057.953 1.916 2.01 1.916M24.686 17.036c.363.61 1.008.958 1.678.958.32 0 .646-.085.944-.257.91-.53 1.227-1.7.71-2.616l-4.97-8.567c-.345-.61-.99-.96-1.648-.96-.32 0-.652.09-.96.256-.92.53-1.218 1.696-.7 2.62l4.947 8.566zM41.01 67.523c-1.056 0-2.01.856-2.01 1.915v9.896c0 1.058.953 1.92 2.01 1.92 1.044 0 1.99-.862 1.99-1.92v-9.896c0-1.06-.946-1.915-1.99-1.915M27.308 63.955c-.297-.175-.625-.265-.944-.265-.67 0-1.314.35-1.677.96l-4.946 8.563c-.517.922-.22 2.092.708 2.62.3.173.633.26.952.26.663 0 1.315-.344 1.664-.95l4.953-8.578c.518-.916.2-2.097-.71-2.61M56.598 64.65c-.35-.61-.998-.96-1.66-.96-.326 0-.65.082-.95.265-.914.512-1.228 1.694-.693 2.61l4.95 8.58c.34.604 1 .948 1.65.948.32 0 .65-.088.96-.26.917-.53 1.215-1.688.697-2.61l-4.954-8.573zM74.942 58.43l-8.58-4.95c-.304-.166-.618-.256-.953-.256-.667 0-1.308.352-1.66.957-.518.918-.202 2.088.704 2.617l8.565 4.95c.31.173.637.26.954.26.668 0 1.31-.35 1.666-.97.535-.9.224-2.07-.698-2.606M60.856 5.85c-.3-.168-.64-.257-.96-.257-.652 0-1.3.35-1.65.96l-4.95 8.567c-.536.91-.222 2.087.705 2.616.296.172.612.257.945.257.655 0 1.304-.347 1.664-.957L61.55 8.47c.526-.924.22-2.09-.696-2.62M79.14 38.587h-9.888c-1.055 0-1.923.94-1.923 1.994 0 1.06.867 2.007 1.922 2.007h9.888c1.058 0 1.912-.947 1.912-2.006 0-1.054-.854-1.993-1.912-1.993M34.972 41.852c-.483-.525-1.074-.788-1.77-.788-.457 0-1.005.09-1.64.267l.392-2.916c.968.026 1.706-.184 2.216-.63.51-.444.764-1.036.764-1.776 0-.628-.186-1.128-.56-1.502-.373-.373-.87-.56-1.49-.56-.61 0-1.133.214-1.566.637-.433.425-.696 1.044-.79 1.86l-3.295-.56c.227-1.13.573-2.032 1.037-2.707.463-.675 1.107-1.205 1.934-1.592.828-.384 1.755-.578 2.782-.578 1.758 0 3.167.56 4.227 1.68.874.916 1.312 1.953 1.312 3.106 0 1.64-.896 2.947-2.688 3.922 1.07.23 1.925.742 2.566 1.54.642.797.962 1.762.962 2.89 0 1.64-.6 3.035-1.796 4.19-1.197 1.153-2.687 1.73-4.468 1.73-1.69 0-3.09-.486-4.202-1.458-1.112-.97-1.758-2.242-1.935-3.813l3.462-.42c.11.883.407 1.558.892 2.025.482.466 1.07.7 1.755.7.74 0 1.36-.28 1.865-.84.506-.56.76-1.316.76-2.267-.002-.898-.245-1.61-.728-2.138zm5.608-5.265h4.37l2.392 3.717 2.52-3.718h4.2l-4.58 6.144 5.002 6.857H50.09l-2.75-4.19-2.776 4.19h-4.19l4.878-6.704-4.673-6.297zm-.343 25.36c11.727 0 21.238-9.51 21.238-21.24 0-11.738-9.51-21.247-21.238-21.247-11.743 0-21.255 9.51-21.255 21.246 0 11.732 9.512 21.24 21.255 21.24v.002z"/></g></symbol><symbol id="shape-icon-4g-plus" viewBox="0 0 200 145"><path d="M170.718 51.485l2.386-16.697c.114-1.135 1.25-2.043 2.272-2.043h8.747c1.02 0 1.702.908 1.59 2.043l-2.385 16.697h14.426c1.02 0 1.702 1.022 1.59 2.16l-1.14 7.95c-.11 1.136-1.133 2.158-2.155 2.158h-14.427l-2.27 16.583c-.228 1.137-1.252 2.046-2.273 2.046h-8.747c-1.02 0-1.816-.91-1.587-2.046l2.27-16.583H154.59c-1.02 0-1.702-1.022-1.59-2.158l1.136-7.95c.115-1.138 1.137-2.16 2.16-2.16M.7 97.65l1.555-11.738 53.75-61.958c.424-.567.99-.848 2.122-.848h8.204c1.275 0 2.265 1.13 1.982 2.686L59.965 86.05h10.043c1.415 0 2.264 1.132 2.12 2.547l-1.27 8.77c-.142 1.416-1.414 2.69-2.83 2.69H57.986L55.58 118.16c-.28 1.413-1.554 2.688-2.828 2.688H40.445c-1.272 0-2.262-1.274-2.12-2.688l2.545-17.823H2.68c-1.415 0-2.264-1.273-1.98-2.686m42.716-12.023l4.95-31.26-27.016 31.26h22.066z"/><path d="M127.436 20.42c12.73 0 22.206 4.95 29.42 13.437.85 1.132.707 2.83-.566 3.96l-7.495 7.356c-1.697 1.274-3.395 1.274-4.67 0-3.678-3.536-8.91-7.073-17.68-7.073-16.974 0-31.684 17.54-31.684 37.768 0 14.995 9.478 28.008 21.927 28.008 6.646 0 11.74-1.698 14.426-3.396l1.697-12.447h-9.053c-1.413 0-2.263-1.132-2.12-2.548l1.555-11.032c.28-1.555 1.413-2.688 2.83-2.688h25.036c1.273 0 2.12 1.273 1.98 2.688l-4.67 33.948c-.28 2.266-1.27 3.538-2.26 4.386-1.416 1.132-12.59 9.477-31.686 9.477-23.056 0-39.748-19.66-39.748-43.99 0-33.242 23.198-57.854 52.762-57.854"/></symbol><symbol id="shape-icon-4g" viewBox="0 0 200 145"><path d="M3.674 104.762l1.95-14.708L72.97 12.426c.53-.71 1.24-1.062 2.657-1.062h10.28c1.595 0 2.835 1.417 2.482 3.366l-10.46 75.5h12.586c1.77 0 2.834 1.417 2.656 3.19l-1.594 10.986c-.18 1.774-1.772 3.37-3.545 3.37H75.45l-3.013 22.685c-.354 1.77-1.95 3.37-3.544 3.37h-15.42c-1.594 0-2.834-1.6-2.657-3.37l3.19-22.332H6.156c-1.773 0-2.837-1.593-2.482-3.366m53.52-15.064L63.4 50.53 29.548 89.7h27.647zM162.47 7.997c15.946 0 27.82 6.204 36.86 16.836 1.062 1.42.886 3.546-.71 4.963l-9.394 9.215c-2.127 1.596-4.25 1.596-5.85 0-4.606-4.43-11.166-8.862-22.153-8.862-21.266 0-39.696 21.977-39.696 47.32 0 18.785 11.874 35.09 27.47 35.09 8.332 0 14.71-2.126 18.078-4.253l2.128-15.595h-11.346c-1.773 0-2.834-1.417-2.655-3.19l1.948-13.823c.354-1.95 1.77-3.368 3.542-3.368h31.372c1.596 0 2.657 1.593 2.48 3.367l-5.85 42.534c-.354 2.835-1.596 4.432-2.834 5.494-1.775 1.417-15.773 11.875-39.7 11.875-28.888 0-49.8-24.636-49.8-55.12 0-41.647 29.065-72.483 66.11-72.483"/></symbol><symbol id="shape-icon-arrow-d" viewBox="0 0 64 64"><path d="M5.85 14.572l-4.032 3.934 30.22 30.978 30.085-31.11-4.05-3.916L32.02 41.395"/></symbol><symbol id="shape-icon-arrow-l" viewBox="0 0 64 64"><path d="M24.548 31.922L51.484 5.868l-3.917-4.05-31.11 30.086 30.98 30.22 3.933-4.032"/></symbol><symbol id="shape-icon-arrow-r" viewBox="0 0 64 64"><path d="M16.57 58.092l3.935 4.032 30.978-30.22-31.11-30.086-3.916 4.05 26.937 26.054"/></symbol><symbol id="shape-icon-arrow-u" viewBox="0 0 64 64"><path d="M58.092 49.37l4.03-3.933-30.218-30.98-30.086 31.11 4.05 3.917L31.92 22.548"/></symbol><symbol id="shape-icon-available-old" viewBox="28.285 30.296 52.993 50.842"><path d="M54.78 40.368c-11.27 0-20.384 9.113-20.384 20.385 0 11.27 9.114 20.385 20.384 20.385 11.272 0 20.386-9.113 20.386-20.385 0-11.272-9.113-20.385-20.386-20.385m.72 37.413v-2.878h-1.678v2.64c-8.634-.48-15.35-7.437-15.828-16.068h2.397v-1.68h-2.396c.48-8.633 7.194-15.588 15.828-16.068v2.64h1.68v-2.64c8.87.24 15.828 7.436 16.307 16.067h-2.64v1.68h2.64c-.48 8.872-7.676 15.827-16.31 16.308M51.663 37.01h1.44v2.158h3.117V37.01h1.438c.48 0 .96-.48.96-.96v-4.795c0-.48-.478-.96-.96-.96h-5.995c-.48 0-.96.48-.96.96v4.796c0 .48.48.96.96.96"/><path d="M37.034 45.884c.24.24.72.24.96 0l.72-.72 1.198 1.2 1.438-1.44-1.198-1.198.72-.72c.24-.24.24-.72 0-.96l-2.398-2.397c-.24-.24-.72-.24-.96 0l-2.877 2.877c-.24.24-.24.72 0 .96l2.397 2.397zM69.65 46.124l1.2-1.2.718.72c.24.24.72.24.96 0l2.397-2.398c.24-.24.24-.72 0-.96l-2.88-2.876c-.237-.24-.718-.24-.958 0l-2.397 2.397c-.24.24-.24.72 0 .96l.72.72-1.2 1.198 1.44 1.44zM62.935 51.4c-.24-.24-.48-.24-.72-.24s-.48.24-.72.24l-7.674 8.393c-.24.24-.24.48-.24.96 0 .24.24.48.48.72s.48.24.96.24c.238 0 .48 0 .72-.24l7.672-8.394c.24-.24.24-.48.24-.96l-.717-.72"/></symbol><symbol id="shape-icon-available" viewBox="0 0 59.7 59.7"><path d="M29.9 0C13.4 0 0 13.4 0 29.9s13.4 29.9 29.9 29.9 29.9-13.4 29.9-29.9C59.7 13.4 46.3 0 29.9 0zm1.5 56.8h-.5V49H29v7.8h-.5C14.6 56 3.6 45 3 31.2v-.5h7.7v-1.9H2.9v-.5C3.8 14.6 14.7 3.7 28.4 3h.5v7.5h1.9V2.9h.5c13.7.8 24.6 11.7 25.5 25.3v.5h-7.6v1.9h7.7v.5C56.1 45 45.2 56 31.4 56.8z"/><path d="M41 19.1L30.3 29.8c-.6.6-.6 1.6 0 2.2.6.6 1.6.6 2.2 0l10.7-10.7c.6-.6.6-1.6 0-2.2-.6-.6-1.6-.6-2.2 0z"/></symbol><symbol id="shape-icon-battery" viewBox="0 0 32 36.5"><path d="M30 13.25h-2c0-1.654-1.346-3-3-3H3c-1.654 0-3 1.346-3 3v10c0 1.654 1.346 3 3 3h22c1.654 0 3-1.346 3-3h2c1.104 0 2-.896 2-2v-6c0-1.103-.896-2-2-2zm-4 10c0 .552-.448 1-1 1H3c-.552 0-1-.448-1-1v-10c0-.552.448-1 1-1h22c.552 0 1 .448 1 1v10zm4-2h-2v-6h2v6zm-16.553-6.105c-.246-.493-.897-.895-1.447-.895H5c-.55 0-1 .45-1 1v6c0 .55.45 1 1 1h11c.55 0 .8-.402.553-.895l-3.106-6.21z"/></symbol><symbol id="shape-icon-btv" viewBox="0 0 96.1 72"><path d="M84.4 51.6h-7a2.3 2.3 0 1 0 0 4.6h7a2.26 2.26 0 0 0 2.3-2.3 2.33 2.33 0 0 0-2.3-2.3" fill="#009dcc"/><path d="M91.4 0H4.7A4.69 4.69 0 0 0 0 4.7v53.9a4.69 4.69 0 0 0 4.7 4.7H28a59 59 0 0 0-9.1 3.5 2.33 2.33 0 1 0 2 4.2 61.71 61.71 0 0 1 54.1.7 2 2 0 0 0 1.1.3 2.33 2.33 0 0 0 2.1-1.3 2.42 2.42 0 0 0-1-3.2 67.64 67.64 0 0 0-10.5-4.2h24.7a4.69 4.69 0 0 0 4.7-4.7V4.7A4.69 4.69 0 0 0 91.4 0m0 58.6H4.7V4.7h86.7z" fill="#009dcc"/><path d="M4.7 4.7h86.7v53.9H4.7zm0-4.7A4.69 4.69 0 0 0 0 4.7v53.9a4.69 4.69 0 0 0 4.7 4.7H28a59 59 0 0 0-9.1 3.5 2.33 2.33 0 1 0 2 4.2 61.71 61.71 0 0 1 54.1.7 2 2 0 0 0 1.1.3 2.33 2.33 0 0 0 2.1-1.3 2.42 2.42 0 0 0-1-3.2 67.64 67.64 0 0 0-10.5-4.2h24.7a4.69 4.69 0 0 0 4.7-4.7V4.7A4.69 4.69 0 0 0 91.4 0z" fill="#009dcc"/><path d="M86.6 9.5H9.8V49h76.8z" fill="#009dcc"/><path d="M31.1 39.2c-3.6 0-4.6-.4-5.3-1.1a5.29 5.29 0 0 1-1-3.7V19.3h6.5c3.7 0 5.8 2 5.8 5.1a4.75 4.75 0 0 1-1.6 3.4A5.24 5.24 0 0 1 39 33c0 3.6-2.7 6.2-7.9 6.2M42.4 39.2a1.9 1.9 0 1 1 1.9-1.9 1.9 1.9 0 0 1-1.9 1.9M46.3 33.7V22.1h2.8v3.6h4.7V28h-4.7v5.1c0 3.1 1.9 4.2 4.8 3.2l.6 2.4c-5.6 1.5-8.2-.9-8.2-5M67.2 35.7c-.5 2.1-1.7 3.5-4 3.5s-3.3-1.2-4-3.5c-1-3.3-3.1-10-3.1-10h3.1s2.2 7.3 3 9.8c.2.6.4 1.1 1 1.1s.9-.3 1.1-1.1c.9-3.6 2.5-9.8 2.5-9.8h2.9c.1 0-1.7 6.7-2.5 10" fill="#fff"/><path d="M31.7 29.6h-4v3.8c0 1.5 0 2.3.5 2.8s1.2.5 3.5.5c2.8 0 4.3-1.2 4.3-3.5 0-2.1-1.2-3.6-4.3-3.6M34.3 24.3c0-2.1-2-2.6-3.6-2.6h-3V27H31c1.6.1 3.3-.8 3.3-2.7" fill="#009dcc"/></symbol><symbol id="shape-icon-byou" viewBox="323.875 1.167 274.375 76.833"><path fill="url(#shape-icon-byou-a)" d="M500.653 2.028c5.17 0 10.04.985 14.593 2.945 4.547 1.963 8.537 4.65 11.947 8.064 3.41 3.417 6.105 7.4 8.078 11.953 1.955 4.554 2.94 9.424 2.94 14.602 0 5.182-.985 10.05-2.94 14.602-1.972 4.555-4.665 8.52-8.077 11.89-3.41 3.38-7.4 6.05-11.947 8.015-4.553 1.96-9.422 2.94-14.593 2.94-5.185 0-10.052-.98-14.607-2.94-4.556-1.967-8.527-4.636-11.892-8.015-3.378-3.372-6.047-7.336-8.01-11.89-1.964-4.552-2.938-9.42-2.938-14.603 0-5.178.976-10.047 2.938-14.602 1.963-4.554 4.632-8.536 8.01-11.953 3.363-3.416 7.336-6.1 11.892-8.064 4.556-1.96 9.423-2.945 14.607-2.945zm-18.737 37.68c0 2.592.496 5.026 1.483 7.306.973 2.275 2.33 4.278 4.06 6.002 1.726 1.73 3.725 3.086 6 4.062 2.28.987 4.71 1.476 7.308 1.476 2.586 0 5.02-.486 7.29-1.476 2.288-.978 4.28-2.332 6.01-4.062 1.73-1.724 3.074-3.727 4.064-6.002.985-2.28 1.48-4.713 1.48-7.305 0-2.59-.495-5.022-1.48-7.304-.99-2.27-2.334-4.274-4.063-6-1.73-1.73-3.724-3.08-6.01-4.062-2.272-.982-4.706-1.475-7.292-1.475-2.598 0-5.028.492-7.31 1.474-2.273.98-4.272 2.333-6 4.062-1.728 1.726-3.085 3.73-4.06 6-.987 2.282-1.482 4.714-1.482 7.303z"/><path fill="url(#shape-icon-byou-b)" d="M456.36 4.618c-1.683-1.72-3.903-2.59-6.656-2.59-2.667 0-4.923.79-6.763 2.355-1.85 1.57-2.768 3.85-2.768 6.833v11.42c0 1.257-.26 2.356-.765 3.3-.52.94-1.146 1.727-1.887 2.355-.75.63-1.592 1.1-2.535 1.414-.94.314-1.804.473-2.59.473-.865 0-1.73-.158-2.58-.473-.874-.313-1.695-.784-2.48-1.413-.785-.628-1.41-1.414-1.886-2.354-.47-.944-.706-2.043-.706-3.3v-11.42c0-2.983-.92-5.263-2.76-6.834-1.852-1.563-4.105-2.355-6.775-2.355-2.75 0-4.973.87-6.663 2.59-1.685 1.728-2.523 3.928-2.523 6.598v11.42c0 3.14.595 6.284 1.76 9.425 1.188 3.133 2.897 5.945 5.13 8.413 2.23 2.472 4.988 4.5 8.243 6.067.63.306 1.278.57 1.94.82v20.49c0 2.67.863 4.868 2.594 6.597 1.73 1.728 3.925 2.592 6.598 2.592 2.734 0 5.024-.865 6.818-2.593 1.817-1.73 2.715-3.928 2.715-6.598V47.315c.63-.232 1.235-.496 1.817-.775 3.265-1.567 6.036-3.597 8.3-6.066 2.29-2.468 4.018-5.28 5.185-8.413 1.188-3.14 1.772-6.283 1.772-9.423V11.215c.002-2.67-.85-4.87-2.535-6.597z"/><path fill="url(#shape-icon-byou-c)" d="M383.217 46.665c-.73-1.915-1.626-3.698-2.703-5.34-1.09-1.645-2.298-3.09-3.646-4.343-1.348-1.25-2.648-2.27-3.903-3.052 1.165-1.486 2.243-3.23 3.23-5.23.986-1.988 1.478-4.355 1.478-7.1 0-3.594-.807-6.645-2.423-9.152-1.613-2.502-3.7-4.52-6.27-6.05-2.568-1.524-5.44-2.64-8.626-3.34C357.157 2.35 353.936 2 350.707 2h-15.65c-2.974 0-5.44.843-7.413 2.523-1.986 1.687-3.02 3.775-3.108 6.284V69.03c0 2.43 1.02 4.364 3.04 5.81 2.02 1.454 4.51 2.172 7.48 2.172h15.65c3.23 0 6.785-.33 10.66-.998 3.857-.66 7.503-1.912 10.925-3.75 3.412-1.842 6.26-4.328 8.56-7.457 2.3-3.13 3.444-7.162 3.444-12.094 0-2.11-.36-4.13-1.077-6.048zm-40.34-30.67h11.62c.81 0 1.523.167 2.132.493.603.333 1.108.742 1.513 1.217.405.48.71 1.026.91 1.633.2.612.312 1.166.312 1.67 0 .562-.112 1.116-.312 1.68-.2.555-.504 1.086-.91 1.59-.403.51-.908.916-1.514 1.218-.606.302-1.323.454-2.133.454h-11.62v-9.956zm21.222 37.644c-.313.86-.784 1.687-1.41 2.472-.63.79-1.416 1.414-2.355 1.885-.943.473-2.042.71-3.3.71h-13.81v-15.43h13.81c1.258 0 2.355.253 3.3.764.94.512 1.727 1.14 2.355 1.885.626.747 1.097 1.59 1.41 2.53.313.944.473 1.806.473 2.59 0 .863-.16 1.728-.474 2.594z"/><path fill="#0079BF" d="M398.887 76.973c-1.337 0-2.604-.23-3.783-.688-1.167-.45-2.206-1.072-3.082-1.847-.91-.785-1.638-1.71-2.177-2.76-.56-1.096-.854-2.285-.854-3.527 0-1.626.527-3.175 1.55-4.6.494-.68 1.076-1.308 1.75-1.887-.53-.493-.987-1.042-1.37-1.634-.414-.653-.75-1.35-.984-2.063-.27-.742-.394-1.506-.394-2.246 0-1.16.258-2.284.795-3.336.505-1.02 1.188-1.903 2.04-2.646.834-.717 1.808-1.3 2.92-1.73 1.11-.42 2.31-.645 3.59-.645 1.222 0 2.42.225 3.544.646 1.124.43 2.11 1.01 2.94 1.728.852.74 1.55 1.627 2.054 2.646.53 1.052.797 2.175.797 3.337 0 1.044-.244 2.083-.716 3.078-.448.976-1.122 1.875-1.975 2.66-.855.77-1.897 1.395-3.098 1.868l-.022.002 4.8 3.762 3.39-2.76c.46-.395 1.03-.602 1.66-.602 1.447 0 2.47.977 2.47 2.37 0 .524-.18 1.025-.54 1.49-.066.1-.158.185-.246.254l-.044.046c0 .006-.024.016-.024.022l-2.762 2.307 2.874 2.354c.023.022.033.03.043.044.54.457.832 1.093.832 1.785 0 1.397-1.012 2.376-2.47 2.376-.627 0-1.187-.21-1.658-.598l-3.52-2.828c-.573.438-1.123.826-1.614 1.164-.856.564-1.64 1.024-2.357 1.37-.763.372-1.503.647-2.195.82-.737.18-1.47.27-2.16.27zm-2.65-12.3c-.604.372-1.122.815-1.523 1.33-.52.66-.787 1.358-.787 2.147 0 .543.114 1.04.348 1.506.248.506.57.926 1 1.3.447.385.977.692 1.594.92.604.23 1.286.345 2.02.345.763 0 1.595-.247 2.446-.735.592-.338 1.256-.762 1.974-1.27l-7.073-5.54zm2.65-12.555c-.674 0-1.29.1-1.854.31-.548.192-1.02.463-1.392.795-.366.32-.647.687-.862 1.13-.202.423-.304.866-.304 1.368 0 .5.09.935.282 1.33.202.42.47.77.832 1.085.39.338.872.62 1.434.834.552.208 1.188.325 1.886.347.65 0 1.242-.098 1.773-.3.536-.198 1.008-.474 1.39-.806.358-.31.652-.683.854-1.128.203-.416.313-.863.313-1.36 0-.503-.11-.946-.313-1.368-.2-.442-.495-.812-.854-1.133-.382-.33-.854-.6-1.39-.8-.536-.203-1.145-.302-1.793-.302z"/><path fill="#0079BF" d="M398.887 76.973c-1.337 0-2.604-.23-3.783-.688-1.167-.45-2.206-1.072-3.082-1.847-.91-.785-1.638-1.71-2.177-2.76-.56-1.096-.854-2.285-.854-3.527 0-1.626.527-3.175 1.55-4.6.494-.68 1.076-1.308 1.75-1.887-.53-.493-.987-1.042-1.37-1.634-.414-.653-.75-1.35-.984-2.063-.27-.742-.394-1.506-.394-2.246 0-1.16.258-2.284.795-3.336.505-1.02 1.188-1.903 2.04-2.646.834-.717 1.808-1.3 2.92-1.73 1.11-.42 2.31-.645 3.59-.645 1.222 0 2.42.225 3.544.646 1.124.43 2.11 1.01 2.94 1.728.852.74 1.55 1.627 2.054 2.646.53 1.052.797 2.175.797 3.337 0 1.044-.244 2.083-.716 3.078-.448.976-1.122 1.875-1.975 2.66-.855.77-1.897 1.395-3.098 1.868l-.022.002 4.8 3.762 3.39-2.76c.46-.395 1.03-.602 1.66-.602 1.447 0 2.47.977 2.47 2.37 0 .524-.18 1.025-.54 1.49-.066.1-.158.185-.246.254l-.044.046c0 .006-.024.016-.024.022l-2.762 2.307 2.874 2.354c.023.022.033.03.043.044.54.457.832 1.093.832 1.785 0 1.397-1.012 2.376-2.47 2.376-.627 0-1.187-.21-1.658-.598l-3.52-2.828c-.573.438-1.123.826-1.614 1.164-.856.564-1.64 1.024-2.357 1.37-.763.372-1.503.647-2.195.82-.737.18-1.47.27-2.16.27zm-2.65-12.3c-.604.372-1.122.815-1.523 1.33-.52.66-.787 1.358-.787 2.147 0 .543.114 1.04.348 1.506.248.506.57.926 1 1.3.447.385.977.692 1.594.92.604.23 1.286.345 2.02.345.763 0 1.595-.247 2.446-.735.592-.338 1.256-.762 1.974-1.27l-7.073-5.54zm2.65-12.555c-.674 0-1.29.1-1.854.31-.548.192-1.02.463-1.392.795-.366.32-.647.687-.862 1.13-.202.423-.304.866-.304 1.368 0 .5.09.935.282 1.33.202.42.47.77.832 1.085.39.338.872.62 1.434.834.552.208 1.188.325 1.886.347.65 0 1.242-.098 1.773-.3.536-.198 1.008-.474 1.39-.806.358-.31.652-.683.854-1.128.203-.416.313-.863.313-1.36 0-.503-.11-.946-.313-1.368-.2-.442-.495-.812-.854-1.133-.382-.33-.854-.6-1.39-.8-.536-.203-1.145-.302-1.793-.302z"/><path fill="url(#shape-icon-byou-d)" d="M570.968 58.316c.785 0 1.648-.16 2.59-.476.944-.313 1.786-.784 2.536-1.41.74-.63 1.37-1.415 1.886-2.355.505-.944.764-2.044.764-3.3V11.333c0-2.984.918-5.26 2.77-6.832 1.84-1.563 4.094-2.35 6.767-2.35 2.75 0 4.97.864 6.653 2.586 1.682 1.73 2.533 3.927 2.533 6.597v39.444c0 3.142-.58 6.28-1.773 9.425-1.163 3.142-2.89 5.946-5.18 8.42-2.268 2.474-5.038 4.494-8.304 6.063-3.255 1.57-7.002 2.354-11.24 2.354-4.24 0-7.986-.786-11.24-2.355-3.25-1.572-6.015-3.592-8.244-6.063-2.23-2.474-3.938-5.278-5.127-8.42-1.17-3.144-1.763-6.283-1.763-9.425V11.333c0-2.67.84-4.868 2.522-6.597 1.693-1.723 3.902-2.585 6.663-2.585 2.67 0 4.923.79 6.772 2.35 1.844 1.572 2.763 3.85 2.763 6.833v39.444c0 1.257.236 2.355.706 3.3.47.94 1.1 1.728 1.885 2.354.783.628 1.604 1.1 2.478 1.413.85.313 1.716.473 2.58.473z"/></symbol><symbol id="shape-icon-calendar-old" viewBox="0 0 15 16"><title>calendrier</title><g fill-rule="evenodd"><path d="M12.83 1.2h-1.47v.89h1.47c.517 0 1.132.615 1.132 1.133v10.12c0 .516-.615 1.132-1.133 1.132H2.133C1.617 14.475 1 13.86 1 13.343V3.223c0-.518.617-1.133 1.134-1.133h9.226V1.2H2.134C1.018 1.2.11 2.106.11 3.222v10.12c0 1.115.908 2.023 2.024 2.023H12.83c1.116 0 2.023-.908 2.023-2.023V3.223c0-1.116-.907-2.024-2.024-2.024z"/><path d="M5.052 2.926V.325C5.052.25 4.725.19 4.32.19c-.405 0-.733.06-.733.135v2.601c0 .076.327.137.732.137.404 0 .732-.06.732-.136M11.377 2.926V.325c0-.075-.328-.136-.734-.136-.403 0-.732.06-.732.135v2.601c0 .076.33.137.733.137.405 0 .734-.06.734-.136M.46 5.98h14.156V4.15H.46"/></g></symbol><symbol id="shape-icon-calendar" viewBox="0 0 77.7 80.8"><path d="M65.4 6.1h-6.7v-3c0-1.7-1.4-3.1-3.1-3.1-1.7 0-3.1 1.4-3.1 3.1v3H23.7v-3c0-1.7-1.4-3.1-3.1-3.1-1.7 0-3.1 1.4-3.1 3.1v3H12c-3.7 0-6.6 1.1-8.7 3.3C-.3 13.2 0 18.6 0 18.8v49.5c0 11.9 10.3 12.5 12.3 12.5h54c8.7 0 11.3-8.3 11.4-12.8V18.3c0-11.6-10.2-12.2-12.3-12.2zM4.7 10.8C6.4 9 8.9 8.1 12 8.1h5.5v3c0 1.7 1.4 3.1 3.1 3.1 1.7 0 3.1-1.4 3.1-3.1v-3h28.8v3c0 1.7 1.4 3.1 3.1 3.1 1.7 0 3.1-1.4 3.1-3.1v-3h6.7c2.4 0 10.3.7 10.3 10.2v4.2H2v-3.7c0-.1-.3-4.9 2.7-8zm61.6 68H12.7h-.4C9.9 78.8 2 78.1 2 68.3v-37h73.7v36.6c0 .5-.5 10.9-9.4 10.9z"/></symbol><symbol id="shape-icon-camera" viewBox="0 0 32 23"><title>icon-camera@1x</title><g fill-rule="evenodd"><path d="M16.116 21.004c-4.64.002-8.423-3.806-8.415-8.466.01-4.666 3.806-8.487 8.42-8.476 4.595.01 8.35 3.797 8.386 8.45.036 4.648-3.762 8.492-8.39 8.492M31.568 4.43c0-1.414-.838-2.25-2.24-2.253-1.673-.003-3.345-.005-5.017.004-.273.002-.427-.038-.518-.364-.256-.9-.983-1.447-1.93-1.45-3.838-.014-7.675-.014-11.513 0-.93.003-1.675.54-1.915 1.396-.102.365-.267.423-.587.42-1.62-.013-3.24-.005-4.86-.005-1.548 0-2.346.8-2.346 2.356v15.81c0 1.593.798 2.405 2.365 2.405h13.096c4.4 0 8.8.002 13.202-.002 1.426 0 2.262-.847 2.263-2.292.003-5.34.002-10.682 0-16.024"/><path d="M16.187 7.116c-3.065-.01-5.458 2.353-5.467 5.398-.01 3.025 2.374 5.454 5.358 5.46 2.997.005 5.406-2.4 5.414-5.41.007-3.006-2.363-5.44-5.305-5.448zm3.7 5.836c-.06.05-.14.086-.243.104-.115.022-.208.016-.284-.01 0-.002 0-.002-.002-.002-.227-.08-.304-.34-.357-.62-.277-1.46-1.34-2.347-2.743-2.33-.433.044-.816-.01-.833-.503-.017-.467.377-.517.73-.548 1.8-.16 3.69 1.42 3.88 3.237.03.265.03.527-.148.672z"/></g></symbol><symbol id="shape-icon-cancel" viewBox="0 0 512 512"><path d="M479.8 131.01L376.026 27.164 256 147.19 136.012 27.164 32.202 131.01l120.026 119.952L32.2 370.987l103.812 103.848L256 354.808l120.026 120.027L479.8 370.987 359.81 250.962 479.8 131.01z"/></symbol><symbol id="shape-icon-cart" viewBox="0 0 95.423 80.52"><path clip-path="url(#shape-icon-cart-d)" d="M94.005 12.797c-1.3-1.587-3.248-2.488-5.302-2.488H37.29c-3.786 0-6.167 3.015-6.167 6.8v34.276c0 3.785 2.38 6.908 6.167 6.908h44.558c3.267 0 6.082-2.333 6.722-5.535l6.854-34.292c.403-2.014-.117-4.08-1.42-5.67M81.85 51.437h-43.87V17.164h50.725l-6.855 34.274zM83.56 71.95c0 4.727-3.843 8.57-8.566 8.57-4.725 0-8.57-3.844-8.57-8.57 0-4.727 3.845-8.568 8.57-8.568 4.723 0 8.567 3.842 8.567 8.57m-54.84 0c0 4.725-3.844 8.567-8.568 8.567s-8.57-3.844-8.57-8.57c0-4.727 3.846-8.568 8.57-8.568s8.57 3.842 8.57 8.57m33.25.052c0 1.894-1.535 3.428-3.43 3.428H37.98c-1.893 0-3.427-1.534-3.427-3.428s1.535-3.427 3.428-3.427h20.565c1.894 0 3.428 1.533 3.428 3.427M17.414 15.626l-15.47-9.26C.32 5.397-.21 3.292.763 1.667c.97-1.623 3.072-2.15 4.7-1.18L22.6 10.744c1.035.618 1.668 1.735 1.668 2.94v41.185c0 1.893-1.534 3.427-3.427 3.427s-3.427-1.534-3.427-3.427V15.626z"/></symbol><symbol id="shape-icon-check-thin" viewBox="0 0 20 17"><path d="M19.4 0c-.1 0-.2.1-.3.2-7.7 8.6-8.5 9.7-13 14.8L.9 9.1c-.2-.2-.5-.2-.7 0-.2.2-.3.5-.1.7 0 0 0 .1.1.1l5.5 6.3c.2.2.5.2.7 0 5-5.6 5.5-6.4 13.4-15.2.2-.2.2-.6 0-.8-.1-.2-.3-.2-.4-.2z"/></symbol><symbol id="shape-icon-check" viewBox="0 0 512 512"><path d="M432 64L192 304 80 192 0 272l192 192 320-320-80-80z"/></symbol><symbol id="shape-icon-chronopost" viewBox="0 0 168 42"><title>chronopost</title><path d="M72.06 13.66s10.84 3.975 20.702 5.152c9.86 1.178 9.763.883 9.763.883s-.883 2.11-13.54 1.668c0 0-7.66-.402-12.174-3.688-4.512-3.287-4.75-4.014-4.75-4.014M68.134 6.35s7.016 3.68 12.118 5.79S93.4 16.948 93.4 16.948s-.344 1.08-11.676-1.913c-11.333-2.993-10.94-3.24-10.94-3.24s-2.895-2.403-2.65-5.444M68.233.022s12.853 10.548 16.19 11.774c0 0 .637.81-1.718-.17-2.355-.983-14.767-7.14-14.767-7.14s-.245-2.354.295-4.464M12.992 37.75l-1.325 4.022-9.47.137s-2.304-.972-1.42-3.376C1.658 36.13 3.57 30.44 3.57 30.44s1.865-4.073 6.476-4.17c4.612-.1 6.967 0 6.967 0L15.64 30.24H9.41L6.76 37.7l6.232.05M19.467 26.27h5.643L23 32.057h4.023l1.962-5.74h5.495l-5.2 15.454h-5.593l2.01-5.887h-3.875l-2.11 5.838H14.22l5.25-15.454M49.148 26.22H37.865l-5.298 15.526 5.494.026s.884-2.6 1.423-4.415c.54-1.816 1.13-1.325 1.13-1.227 0 .098 1.275 5.593 1.275 5.593h5.838l-1.62-6.23c3.337-.933 4.318-3.484 4.318-3.484 3.042-5.79-1.276-5.79-1.276-5.79zm-4.415 7.113l-3.778-.05 1.227-3.63h3.876l-1.325 3.68zM67.398 41.575l5.25-15.208h4.12l2.748 6.23s.49 1.03.883-.343c.392-1.373 1.864-5.887 1.864-5.887h5.494l-5.2 15.356h-4.12l-2.7-6.28s-.245-1.423-.98.736c-.736 2.158-1.914 5.592-1.914 5.592l-5.446.05v-.247M152.492 30.047l1.325-3.73-7.14.05s-4.757.393-6.278 5.397c0 0-.54 1.913 2.157 3.385 2.7 1.47 3.582 1.863 3.582 1.863s.244.147.146.54c-.098.392-.147.49-.343.49h-7.26l-1.277 3.68h7.776s3.58-.294 5.348-3.336c1.766-3.042.515-4.17.515-4.17s.073-.344-1.472-1.178c-1.546-.835-4.048-2.11-4.048-2.11s-.196-.098-.22-.418c-.025-.318.294-.465.515-.44.22.024 6.672-.025 6.672-.025M155.117 26.318h12.804l-1.274 3.778h-3.68l-3.925 11.627h-5.59l3.874-11.48s.074-.172-.22-.172h-3.336l1.35-3.752M67.202 26.318s-5.052-.44-8.536.05c-3.483.49-5.25 3.68-5.25 3.68l-2.11 5.738-1.078 3.19c-.294 3.483 2.01 2.698 8.095 2.796 6.083.098 7.555-4.317 7.555-4.317s2.845-7.458 2.992-9.126c.147-1.668-1.668-2.012-1.668-2.012zm-7.064 11.725l-3.925-.025 2.748-8.07h3.974l-2.796 8.095zM103.334 26.27s-5.053-.442-8.536.048c-3.483.49-5.25 3.68-5.25 3.68l-2.108 5.74-1.08 3.19c-.295 3.482 2.01 2.697 8.095 2.795 6.083.098 7.555-4.317 7.555-4.317s2.845-7.457 2.992-9.125c.148-1.668-1.668-2.01-1.668-2.01zM96.27 37.993l-3.925-.05 2.747-8.045h3.975l-2.797 8.094zM137.774 26.27s-5.053-.442-8.537.048c-3.483.49-5.248 3.68-5.248 3.68l-2.11 5.74-1.08 3.19c-.295 3.482 2.01 2.697 8.094 2.795 6.084.098 7.556-4.317 7.556-4.317s2.845-7.457 2.992-9.125c.148-1.668-1.668-2.01-1.668-2.01zm-7.064 11.724l-3.925-.05 2.747-8.045h3.974l-2.796 8.094zM120.432 26.318h-11.53l-5.25 15.405h5.545l1.276-3.68h3.385c3.924-.343 4.66-1.57 5.64-2.55.983-.982 1.62-3.092 1.62-3.092 2.895-5.984-.686-6.082-.686-6.082zm-5.3 8.193h-3.482l1.717-4.758h3.385l-1.62 4.76z"/></symbol><symbol id="shape-icon-clock" viewBox="0 0 100 100"><path d="M50 1.42C23.213 1.42 1.42 23.213 1.42 50S23.213 98.58 50 98.58 98.58 76.787 98.58 50 76.787 1.42 50 1.42zm0 86.823c-21.087 0-38.244-17.155-38.244-38.243S28.913 11.757 50 11.757 88.244 28.912 88.244 50 71.087 88.243 50 88.243z"/><path d="M75.318 48.5h-21.83V22.25c0-2.21-1.792-4-4-4s-4 1.79-4 4V52.5c0 2.21 1.79 4 4 4h25.83c2.21 0 4-1.79 4-4s-1.79-4-4-4z"/></symbol><symbol id="shape-icon-close-2" viewBox="0 0 7.2 7.2"><path d="M4.3 3.6L7.1.8c.2-.2.2-.5 0-.7-.2-.1-.5-.1-.7 0L3.6 2.9.9.1C.7 0 .3 0 .1.1S0 .7.1.9l2.8 2.8L.1 6.4c-.1.2-.1.5 0 .7s.5.2.7 0l2.8-2.8 2.8 2.8c.2.2.5.2.7 0s.2-.5 0-.7L4.3 3.6z"/></symbol><symbol id="shape-icon-close" viewBox="0 0 16 16"><path d="M9.207 8.5l2.768-2.768c.195-.195.195-.512 0-.707-.195-.195-.512-.195-.707 0L8.5 7.793 5.732 5.025c-.195-.195-.512-.195-.707 0-.195.195-.195.512 0 .707L7.793 8.5l-2.768 2.768c-.195.195-.195.512 0 .707.195.195.512.195.707 0L8.5 9.207l2.768 2.768c.195.195.512.195.707 0s.195-.512 0-.707L9.207 8.5z"/></symbol><symbol id="shape-icon-cplus-start" viewBox="0 0 80 60"><path fill="#00ADEE" d="M77.684 33.134H41.63l.276 3.132h-3.403l1.782 20.353 39.123-3.78"/><path fill="#061922" d="M13.728 19.997h55.83V39.7h-55.83z"/><path fill="#FFF" d="M60.04 36.036h-3.345l2.87-5.206-4.07-7.044h3.456l2.253 4.176 2.203-4.176h3.408l-6.775 12.25zM42.17 36.056h-6.707l1.505-12.266h3.106l-1.176 9.567h3.597l-.325 2.7zM52.53 36.056l-.802-2.127h-4.402l-.832 2.126h-3.37l4.71-12.266h3.47l4.626 12.266h-3.4zm-2.977-8.474l-1.342 3.91h2.65l-1.307-3.91zM35.11 27.853c0 2.75-1.376 4.127-4.143 4.127H28.97v4.076h-3.192v-12.28h5.074c1.31 0 2.324.343 3.062 1.03.802.753 1.195 1.77 1.195 3.047zm-3.34.032c0-1.03-.573-1.54-1.736-1.54h-1.062v3.063h1.046c1.162 0 1.75-.507 1.75-1.523z"/><path fill="#061922" d="M.592 3.575h62.394V23.28H.592z"/><g fill="#FFF"><path d="M12.595 18.44c-.017.134-.082.233-.082.233s-.068.066-.182.1c-1.592.646-3.366.43-3.366.43-2.867-.315-4.69-2.07-5.27-4.34-.862-3.4.847-5.82 1.26-6.333 1.01-1.21 2.585-2.07 4.128-2.272 1.973-.28 3.43.183 4.03.38 0 0 .66.216 1.16.55.246.165.28.23.28.23s.016.033-.05.3l-.463 2.436c-.018.1-.085.15-.085.15s-.032.016-.264-.133c-1.49-1.06-3.23-.928-3.23-.928-1.33.082-2.87.78-3.332 2.536-.416 1.558.016 2.868.946 3.647.627.547 1.604.83 2.633.78 1.128-.083 2.023-.53 1.957-.5l.1-.03c.232-.117.28-.102.28-.102s.05.05.017.2l-.465 2.667zM38.338 18.877h-3.072l-.03-.032-4.128-7.325c-.032-.033-.048-.033-.048-.033s-.034 0-.034.05l-1.02 7.194c-.017.082-.034.097-.034.097s-.032.018-.08.018h-2.958c-.047 0-.08-.032-.08-.032s-.064-.065-.05-.13l1.624-11.646c.018-.065.05-.082.05-.082s.048-.05.095-.05h3.3c.05 0 .08.034.08.034s.032.016.05.063l3.717 6.53c.066.13.114.113.114.113s.05 0 .082-.146l.942-6.498c0-.047.034-.064.034-.064s.013-.017.063-.017h3.103c.064 0 .08.034.08.034s.018.017.018.047L38.48 18.746c-.017.065-.047.113-.047.113s-.015.02-.095.02zM23.326 7.004c-.015-.047-.032-.064-.032-.064s-.047-.05-.115-.05H19.344s-.047.017-.08.083L13.436 18.7c-.032.064-.017.113-.017.113s.017.048.116.032h3.36c.05 0 .097-.032.097-.032s.018-.016.05-.08l.812-1.74c.05-.113.113-.163.113-.163s.05-.065.13-.065H22.22s.034.018.034.065l.454 1.87c.017.112.034.127.034.127s.048.026.113.026h2.89c.036 0 .05-.026.05-.026s.03-.015.03-.064l-2.5-11.76zm-1.502 7.148s-.016.016-.034.016l-2.386-.016c-.082 0-.1-.018-.1-.018s-.013-.032.018-.08l1.625-3.686c.017-.033.032-.033.032-.033s.015 0 .015.033l.828 3.72c.017.046 0 .064 0 .064zM44.432 6.903c-.053 0-.11.04-.13.09l-4.534 11.805c-.02.05.01.09.06.09h3.102c.05 0 .11-.04.13-.088l.745-1.9c.02-.05.078-.09.13-.09h4.108c.053 0 .11.04.13.09l.716 1.897c.017.05.075.09.13.09h3.13c.056 0 .083-.04.065-.09L47.758 6.993c-.02-.05-.076-.09-.13-.09H44.43zm.37 7.54c-.05 0-.08-.042-.063-.09l1.243-3.625c.018-.05.045-.05.06 0l1.216 3.623c.017.052-.015.092-.065.092h-2.392zM56.56 15.78c0 .06.046.11.106.11h3.27c.06 0 .108.047.108.11v2.795c0 .06-.05.11-.107.11H53.1c-.06 0-.108-.05-.108-.11V6.855c0-.06.05-.11.11-.11h3.347c.06 0 .108.05.108.11v8.925z"/></g><g><path fill="#061922" d="M16.34 36.894V19.688l14.753 8.61-14.752 8.596z"/></g><path fill="#00ADEE" d="M17.23 21.236v14.112l12.1-7.05"/><g><path fill="#FFF" d="M53.014 51.004h-1.69v-7.388h-1.99v-1.623h5.683v1.623h-2.002v7.388z"/></g><g><path fill="#FFF" d="M62.828 51.004H60.98l-.967-2.33h-3.02l-.99 2.33h-1.84l4.384-9.987 4.28 9.987zm-5.135-3.953h1.64l-.808-1.94-.832 1.94z"/></g><g><path fill="#FFF" d="M69.703 51.004h-2.078l-2.13-3.1v3.1h-1.69v-9.01h1.714c1.032 0 1.647.144 2.192.517.676.454 1.08 1.268 1.08 2.175 0 1.233-.7 2.18-1.8 2.51l2.71 3.81zm-4.21-5.195h.19c.95 0 1.432-.38 1.432-1.125 0-.373-.156-.697-.42-.867-.223-.14-.533-.2-1.033-.2h-.168v2.19z"/></g><g><path fill="#FFF" d="M74.02 51.18h-1.688v-7.39h-1.99V42.17h5.68v1.623H74.02v7.39z"/></g><path fill="#FFF" d="M45.766 51.146c-1.47 0-2.56-.903-2.914-2.416l-.084-.356 1.635-.465.086.398c.09.416.14.522.27.694.234.33.62.52 1.037.52.703 0 1.277-.557 1.277-1.242 0-.456-.176-.752-1.17-1.203l-.75-.34c-1.328-.603-1.896-1.312-1.896-2.372 0-1.433 1.162-2.516 2.703-2.516 1.063 0 1.892.496 2.456 1.478l.178.312-1.352.9-.21-.333c-.173-.276-.25-.37-.362-.473-.19-.166-.432-.25-.73-.25-.56 0-.98.38-.98.88 0 .24.07.528.933.903l.783.34c1.47.646 2.1 1.432 2.1 2.63 0 1.63-1.325 2.91-3.01 2.91z"/></symbol><symbol id="shape-icon-credit-card" viewBox="0 0 31 19"><title>icon-credit-card@1x</title><path d="M29.743 0H.906C.406 0 0 .408 0 .91v16.84c0 .502.407.91.906.91h28.837c.5 0 .906-.41.906-.91V.91c0-.502-.407-.91-.907-.91zM16.028 5.535h6.645c1.006 0 1.822.823 1.822 1.834 0 1.012-.816 1.833-1.822 1.833v.003h-6.645v-3.67zm-.126 3.67h-4.88v.226h4.88v.358c0 1.843-1.49 3.338-3.325 3.338h-3.1c-1.835 0-3.323-1.495-3.323-3.338v-.89c0-1.845 1.488-3.34 3.322-3.34h3.1c1.836 0 3.326 1.495 3.326 3.34v.308zm.126 3.898V9.428h6.645v.003c1.006.002 1.822.822 1.822 1.834s-.816 1.834-1.822 1.836v.003h-6.645z" fill-rule="evenodd"/></symbol><symbol id="shape-icon-customer-trouble" viewBox="0 0 32 19"><title>icon-serviceclient@1x</title><path d="M7.008 3.416c0 .657.224 1.23.667 1.717.442.484 1.052.728 1.828.728.68 0 1.255-.243 1.732-.727.473-.488.71-1.076.71-1.764 0-.69-.24-1.272-.72-1.737-.48-.475-1.056-.71-1.723-.71-.79 0-1.398.247-1.836.74-.44.49-.658 1.077-.658 1.753m17.57-1.763c-.133-.15-.287-.27-.454-.375-.37-.23-.813-.355-1.35-.355-.655 0-1.233.24-1.723.722s-.738 1.055-.738 1.72c0 .457.145.888.43 1.295.098.142.21.28.344.415.513.522 1.074.785 1.688.785.766 0 1.365-.24 1.796-.72.433-.483.65-1.055.65-1.726 0-.685-.216-1.272-.642-1.76m-.623 9.98c-.373-.13-.746-.272-1.116-.387-1.552-.48-3.197-.778-4.94-.898-.58-.04-1.17-.06-1.77-.06-1.235 0-2.417.083-3.543.247-.98.14-1.92.355-2.837.62-.137.038-.28.067-.414.11-1.037.32-2.073.723-3.113 1.203-1.04.484-2.094 1.047-3.168 1.69-1.212.722-1.96 1.292-2.254 1.706-.29.416-.433 1.008-.433 1.773 0 .546.15.82.442.82.086 0 .613-.233 1.582-.693.414-.196.867-.396 1.346-.6.635-.27 1.323-.547 2.074-.825 1.312-.492 2.865-.922 4.66-1.297 1.026-.215 2.09-.36 3.18-.45.81-.067 1.635-.106 2.48-.106 1.595 0 3.128.126 4.603.365h.002c.344.058.69.112 1.027.183 1.79.364 3.344.8 4.67 1.297l.117.047c1.272.477 2.376.943 3.3 1.386.96.46 1.488.692 1.585.692.296 0 .442-.273.442-.82 0-.734-.15-1.314-.458-1.74-.307-.426-1.06-1.008-2.266-1.738-.08-.05-.16-.092-.244-.142-1.674-1-3.324-1.79-4.955-2.382"/></symbol><symbol id="shape-icon-data-weekend-unlimited" viewBox="0 0 828.8 418.8"><g fill="#009DCC"><path d="M222.3 147.9h27.6v23.2h-27.6v-23.2zm.7 33.4h26.2v92.3H223v-92.3zM276.1 147.9h26.2v125.7h-26.2V147.9zM328.1 147.9h26.2v125.7h-26.2V147.9zM379.4 147.9H407v23.2h-27.6v-23.2zm.7 33.4h26.2v92.3h-26.2v-92.3zM431 181.3h26.2v13.1c6-7.7 13.9-14.8 27.2-14.8 12.1 0 21.2 5.3 26 14.6 8.1-9.5 17.7-14.6 30.3-14.6 19.5 0 31.2 11.7 31.2 33.9v60.1h-26.2v-51.5c0-12.4-5.5-18.8-15.3-18.8s-15.8 6.4-15.8 18.8v51.5h-26.2v-51.5c0-12.4-5.5-18.8-15.3-18.8s-15.8 6.4-15.8 18.8v51.5H431v-92.3zM595.2 147.9h27.6v23.2h-27.6v-23.2zm.7 33.4h26.2v92.3h-26.2v-92.3zM651 247.4v-43.7h-11v-22.4h11v-23.6h26.2v23.6h21.7v22.4h-21.7v39.4c0 6 2.6 9 8.4 9 4.8 0 9.1-1.2 12.9-3.3v21c-5.5 3.3-11.9 5.3-20.7 5.3-15.9.1-26.8-6.3-26.8-27.7zM711.2 228v-.3c0-26.3 18.8-48 45.6-48 30.8 0 45 23.9 45 50.1 0 2.1-.2 4.5-.4 6.9h-64.2c2.6 11.9 10.9 18.1 22.6 18.1 8.8 0 15.2-2.8 22.4-9.5l15 13.3c-8.6 10.7-21 17.2-37.7 17.2-27.9-.1-48.3-19.6-48.3-47.8zm65.1-7.8c-1.5-11.7-8.4-19.6-19.5-19.6-10.8 0-17.9 7.7-20 19.6h39.5zm-11.1-79.5l22.6 9.8-22.4 20.7h-19.3l19.1-30.5z"/></g><g fill="#009DCC"><path d="M222.1 10.7H246v20.1h-23.8V10.7zm.6 28.9h22.6v79.8h-22.6V39.6zM266.6 39.6h22.6v11.3c5.2-6.7 11.9-12.8 23.4-12.8 17.1 0 27.1 11.3 27.1 29.6v51.7h-22.6V74.9c0-10.7-5.1-16.2-13.7-16.2s-14.1 5.5-14.1 16.2v44.5h-22.6V39.6zM363.1 96.7V58.9h-9.5V39.6h9.5V19.2h22.6v20.4h18.8V59h-18.8v34c0 5.2 2.2 7.7 7.3 7.7 4.2 0 7.9-1 11.2-2.8v18.2c-4.8 2.8-10.3 4.6-17.9 4.6-13.8 0-23.2-5.5-23.2-24zM415 79.9v-.3c0-22.8 16.2-41.5 39.4-41.5 26.6 0 38.8 20.7 38.8 43.3 0 1.8-.1 3.9-.3 6h-55.5c2.2 10.3 9.4 15.6 19.5 15.6 7.6 0 13.1-2.4 19.4-8.2l12.9 11.5c-7.4 9.2-18.2 14.9-32.6 14.9-23.9-.1-41.6-16.9-41.6-41.3zm56.3-6.7c-1.3-10.1-7.3-17-16.8-17-9.4 0-15.5 6.7-17.3 17h34.1zM510.1 39.6h22.6v16.1c4.6-11 12.1-18.2 25.5-17.6v23.7H557c-15 0-24.3 9.1-24.3 28.1v29.5h-22.6V39.6zM572.4 39.6H595v11.3c5.2-6.7 11.9-12.8 23.4-12.8 17.1 0 27.1 11.3 27.1 29.6v51.7h-22.6V74.9c0-10.7-5.1-16.2-13.7-16.2s-14.1 5.5-14.1 16.2v44.5h-22.6V39.6zM661.2 79.9v-.3c0-22.8 16.2-41.5 39.4-41.5 26.6 0 38.8 20.7 38.8 43.3 0 1.8-.1 3.9-.3 6h-55.5c2.2 10.3 9.4 15.6 19.5 15.6 7.6 0 13.1-2.4 19.4-8.2l12.9 11.5c-7.4 9.2-18.2 14.9-32.6 14.9-23.9-.1-41.6-16.9-41.6-41.3zm56.3-6.7c-1.3-10.1-7.3-17-16.8-17-9.4 0-15.5 6.7-17.3 17h34.1zM760 96.7V58.9h-9.5V39.6h9.5V19.2h22.6v20.4h18.8V59h-18.8v34c0 5.2 2.2 7.7 7.3 7.7 4.2 0 7.9-1 11.2-2.8v18.2c-4.8 2.8-10.3 4.6-17.9 4.6-13.8 0-23.2-5.5-23.2-24z"/></g><g fill="#009DCC"><path d="M19.5 291.5h19.7v94.7H19.5v-94.7zM54.4 351.8v-.3c0-19.9 14.1-36.2 34.4-36.2 23.2 0 33.9 18 33.9 37.8 0 1.6-.1 3.4-.3 5.2H74c1.9 8.9 8.2 13.6 17 13.6 6.6 0 11.4-2.1 16.9-7.1l11.3 10c-6.5 8.1-15.8 13-28.4 13-20.9 0-36.4-14.7-36.4-36zm49.1-5.8c-1.2-8.8-6.4-14.8-14.7-14.8-8.2 0-13.5 5.8-15.1 14.8h29.8zM170.6 316.6h20l11.2 42.2 13.1-42.4h17l13.2 42.6 11.4-42.3h19.6l-21.7 70.1h-17.8L223.3 344l-13.6 42.7H192l-21.4-70.1zM281.5 351.8v-.3c0-19.9 14.1-36.2 34.4-36.2 23.2 0 33.9 18 33.9 37.8 0 1.6-.1 3.4-.3 5.2h-48.4c1.9 8.9 8.2 13.6 17 13.6 6.6 0 11.4-2.1 16.9-7.1l11.3 10c-6.5 8.1-15.8 13-28.4 13-20.9 0-36.4-14.7-36.4-36zm49.1-5.8c-1.2-8.8-6.4-14.8-14.7-14.8-8.2 0-13.5 5.8-15.1 14.8h29.8zM361.1 351.8v-.3c0-19.9 14.1-36.2 34.4-36.2 23.2 0 33.9 18 33.9 37.8 0 1.6-.1 3.4-.3 5.2h-48.4c1.9 8.9 8.2 13.6 17 13.6 6.6 0 11.4-2.1 16.9-7.1l11.3 10c-6.5 8.1-15.8 13-28.4 13-20.9 0-36.4-14.7-36.4-36zm49.1-5.8c-1.2-8.8-6.4-14.8-14.7-14.8-8.2 0-13.5 5.8-15.1 14.8h29.8zM444.1 291.5h19.7V342l23.1-25.3h23.6L484 344l27.4 42.2h-22.8l-17.8-28.6-7 7.4v21.2h-19.7v-94.7zM516 336.5h40v18.9h-40v-18.9zM567.9 351.8v-.3c0-19.9 14.1-36.2 34.4-36.2 23.2 0 33.9 18 33.9 37.8 0 1.6-.1 3.4-.3 5.2h-48.4c1.9 8.9 8.2 13.6 17 13.6 6.6 0 11.4-2.1 16.9-7.1l11.3 10c-6.5 8.1-15.8 13-28.4 13-20.9 0-36.4-14.7-36.4-36zM617 346c-1.2-8.8-6.4-14.8-14.7-14.8-8.2 0-13.5 5.8-15.1 14.8H617zM650.9 316.6h19.7v9.9c4.5-5.8 10.4-11.2 20.4-11.2 14.9 0 23.6 9.9 23.6 25.8v45h-19.7v-38.8c0-9.3-4.4-14.1-11.9-14.1s-12.3 4.8-12.3 14.1v38.8H651v-69.5zM728.7 351.6v-.3c0-23.2 15.2-35.9 31.7-35.9 10.5 0 17 4.8 21.7 10.4v-34.3h19.7v94.7H782v-10c-4.8 6.5-11.4 11.3-21.7 11.3-16.2 0-31.6-12.7-31.6-35.9zm53.6 0v-.3c0-11.5-7.7-19.2-16.9-19.2s-17 7.5-17 19.2v.3c0 11.5 7.8 19.2 17 19.2s16.9-7.7 16.9-19.2z"/></g><path fill="#009DCC" d="M160.1 25.9c-1.2-8.1-8.8-13.6-16.9-12.4L31.7 30.2C23.5 31.4 17.9 39 19.1 47l32 213.8c1.2 8.1 8.8 13.6 16.9 12.4l111.6-16.7c8.1-1.2 13.8-8.7 12.5-16.8l-32-213.8zm-83.7 6.8l22.1-3.3c2-.3 3.8.4 4.1 2.4s-1.2 3.2-3.2 3.6l-22.1 3.3c-2 .3-3.8-.4-4.1-2.4-.3-2.1 1.2-3.3 3.2-3.6m44 218.7c-6.1.9-11.8-3.3-12.7-9.4-.9-6.1 3.3-11.8 9.4-12.7 6.1-.9 11.8 3.3 12.7 9.4.9 6.1-3.3 11.8-9.4 12.7M170 215L62 231.2l-26.5-177 108-16.2L170 215z"/></symbol><symbol id="shape-icon-delivery" viewBox="0 0 32 18"><title>icon-delivery@1x</title><path d="M7.51 12.708c-1.43 0-2.587 1.18-2.587 2.637s1.158 2.637 2.588 2.637c1.43 0 2.59-1.18 2.59-2.637s-1.16-2.637-2.59-2.637zm0 4.336c-.92 0-1.667-.762-1.667-1.7 0-.935.748-1.698 1.668-1.698.92 0 1.668.763 1.668 1.7 0 .936-.748 1.698-1.667 1.698zm17.134-4.336c-1.428 0-2.587 1.18-2.587 2.637s1.16 2.637 2.587 2.637c1.43 0 2.588-1.18 2.588-2.637s-1.16-2.637-2.588-2.637zm0 4.336c-.92 0-1.668-.762-1.668-1.7 0-.935.748-1.698 1.668-1.698.92 0 1.67.763 1.67 1.7 0 .936-.75 1.698-1.67 1.698zm6.062-8.53l-7.632-6.922C21.87.333 19.656.004 19.656.004H3.988C1.288.005.773 3.16.773 3.16v9.775c0 1.973 1.485 2.412 1.485 2.412h2.12c.09-3.085 2.98-3.288 2.98-3.288 3.505-.062 3.49 3.287 3.49 3.287H21.51c.167-3.472 3.23-3.298 3.23-3.298 3.193.314 3.24 3.296 3.24 3.296h.627s4.957-1.957 2.096-6.83zM19.76 7.677V3.124h3.79l5.182 4.552h-8.97z" fill-rule="evenodd"/></symbol><symbol id="shape-icon-drawn-arrow-u" viewBox="-38.2 -5 412.5 410.4"><path d="M338.7-4.7c-24.6 7.6-48 19.6-71.4 29.6-3.1 1.2-3.1 6.1-1.3 7.9 10.9 10.5 21.7 22.3 35.1 29.2v.6c4.5 74.7-60.1 146.1-107.3 196.9-54 58.6-119.6 111.6-197.6 132-9.8 1.1-20.2 2.2-30.6 2-4.9-.1-5 6.7-.1 7.3 1.8 0 3.7 0 5.5.1 0 2.4 1.8 4.3 4.8 4.3 6.7-.5 13.5-2.3 20.2-3.4C161.9 399.1 323.8 236 336.4 74.6c9.7 5.6 20.1 10.7 29.8 16.9 4.2 3.1 8.6-1.7 8-6-3.9-30.7-18.2-58.4-28.8-86.7-.6-2.2-3-4.7-6.7-3.5zm23.4 82.3c-7.9-3.8-15.8-6.3-23.7-10.7-3-1.3-5.5.5-6.2 2.4-1.8 0-3.1 1.2-3.7 3-26.4 145.9-127.8 263.3-263.6 305.6 53.6-28 100.7-71.5 140.5-114.4 29.2-31.4 55.3-64.7 77.2-101.2 16.9-28.5 32.7-64.4 22.7-97.6 4.9 1.9 7.4-5.4 3.8-7.9-10.3-8.1-20-16.2-29-24.9 19.1-8.3 38.2-17.2 57.8-23.7 8.3 22.7 19 45.5 24.2 69.4z"/></symbol><symbol id="shape-icon-dual-sim" viewBox="0 0 42 35"><title>icon-dual_sim@1x</title><g fill-rule="evenodd"><path d="M32.736 25.92l1.14-.412c1.538-.557 2.34-2.264 1.78-3.803l-.43-1.184-3.93 1.427 1.44 3.973M32.088 26.156l.075-.027-.013-.036-.06.06-.002.002M33.07 14.57c-.56-1.54-2.267-2.338-3.806-1.78l-1.096.398 1.442 3.976 3.888-1.41-.43-1.184"/><path d="M41.576 25.727l-6.768-18.79c-.27-.747-1.028-1.63-1.724-2.01L26.92 1.568 25.67.886c-.104-.056-.217-.105-.336-.15-.004 0-.007-.002-.01-.004-.372-.133-.813-.21-1.262-.21-.35 0-.668.053-.944.14-.027.01-.06.013-.088.023l-5.295 1.907-1.878-1.023-1.252-.683c-.423-.23-1.01-.364-1.607-.364-.34 0-.652.052-.924.136-.034.01-.075.014-.107.026L1.48 4.463c-.2.07-.378.18-.535.316-.18.155-.33.346-.436.57-.035.072-.057.147-.08.222-.07.22-.094.446-.072.672.013.142.04.282.087.42l2.733 7.586 6.8 18.873c.245.68.895 1.137 1.62 1.137.198 0 .393-.035.58-.102l8.175-2.945.688 1.91c.245.68.896 1.137 1.622 1.137.197 0 .393-.035.578-.102l17.3-6.232c.893-.32 1.356-1.31 1.036-2.2zM22.662 33.28c-.314 0-.597-.196-.703-.49l-.69-1.908 8.207-2.956c.564-.203.956-.673 1.086-1.217l1.526-.555.06-.06-1.43-3.94-1.322.48-.174-.485 5.828-2.113-1.377-3.797-4.22 1.53c-.008.003-.016.003-.024.007l-1.576.572-.175-.49 1.357-.49-1.44-3.976-1.35.49-2.503-6.946c-.27-.748-1.027-1.63-1.724-2.012L18.884 3.22l4.478-1.614c.068-.026.152-.04.234-.057.142-.028.297-.048.466-.048.426 0 .864.094 1.14.244l7.413 4.037c.49.268 1.084.96 1.273 1.485l6.768 18.79c.14.383-.062.81-.447.95l-17.3 6.23c-.08.03-.164.043-.248.043zM1.365 6.333c-.066-.185-.056-.387.03-.566.083-.18.232-.317.417-.383l10.486-3.777c.07-.027.158-.043.246-.06.14-.025.29-.044.454-.044.428 0 .864.094 1.14.244l7.415 4.037c.488.268 1.084.96 1.27 1.485l6.77 18.79c.137.383-.062.81-.447.95l-17.3 6.23c-.08.03-.164.043-.248.043-.314 0-.596-.196-.7-.49L1.364 6.333z"/><path d="M17.973 17.37l-1.44-3.976-3.888 1.41 1.44 3.975 3.888-1.41M15.678 28.096l1.05-.38-1.442-3.976-3.843 1.393v.002l1.076-.39-.893.893.246.678c.56 1.54 2.264 2.338 3.805 1.78"/><path d="M11.444 25.135l.182.503.893-.894-1.076.39M24.164 20.52l-3.932 1.427 1.442 3.973 1.138-.412c1.54-.557 2.34-2.264 1.78-3.803l-.428-1.184M21.025 26.155l.06-.06-1.427-3.94-3.752 1.36 1.44 3.975 3.68-1.335"/><path d="M21.025 26.155l.075-.026-.014-.036-.06.06M22.006 14.57c-.56-1.54-2.268-2.338-3.807-1.78l-1.096.398 1.443 3.976 3.888-1.41-.43-1.184"/><path d="M23.988 20.037L22.61 16.24l-4.217 1.53c-.008.003-.016.003-.026.007l-4.347 1.577c-.133.048-.283-.02-.332-.155l-1.53-4.22-1.093.397c-1.347.49-2.128 1.856-1.927 3.223.03.194.077.39.147.582l1.983 5.466 12.72-4.61"/></g></symbol><symbol id="shape-icon-fanion-full" viewBox="3.25 3.75 227.25 42.5"><path d="M10.5 45h193.875c2.553 0 4.73-1.6 5.596-3.846l17.323-25.617c1.273-1.1 2.082-2.723 2.082-4.537 0-3.314-2.688-6-6-6H10.5c-3.313 0-6 2.686-6 6v27c0 5.896 2.687 7 6 7z"/></symbol><symbol id="shape-icon-fanion-primary-end" viewBox="52.5 396.1 57 50.8"><path fill="#FADBE4" d="M104.1 396.1H93.6c4 0 6.2 3.1 4.8 6.9l-13.3 37c-1.4 3.8-5.8 6.9-9.8 6.9h10.6c4 0 8.4-3.1 9.8-6.9l13.2-37c1.4-3.8-.8-6.9-4.8-6.9z"/><path fill="#F298B4" d="M93.6 396.1H82.9c4 0 6.2 3.1 4.8 6.9l-13.2 37c-1.4 3.8-5.8 6.9-9.8 6.9h10.5c4 0 8.4-3.1 9.8-6.9l13.3-37c1.5-3.8-.7-6.9-4.7-6.9z"/><path fill="#E94F85" d="M82.9 396.1H72.4c4 0 6.2 3.1 4.8 6.9l-13.3 37c-1.4 3.8-5.8 6.9-9.8 6.9h10.6c4 0 8.4-3.1 9.8-6.9l13.2-37c1.5-3.8-.8-6.9-4.8-6.9z"/><path fill="#C70B7D" d="M72.4 396.1H51.7v50.8h2.5c4 0 8.4-3.1 9.8-6.9l13.3-37c1.4-3.8-.9-6.9-4.9-6.9z"/></symbol><symbol id="shape-icon-fanion-shadow-reversed" viewBox="0 0 5 12"><path d="M4.952.296S.05.934.05 5.626c0 4.69 4.902 6.078 4.902 6.078V.296z"/></symbol><symbol id="shape-icon-fanion-txt-reversed" viewBox="0 0 166 46"><path d="M.977 45.454V3.74S2.033.547 4.42.547h154.535s7.845-.082 6.357 5.197c-1.823 6.48-10.113 28.115-10.113 28.115s-2.652 6.296-10.1 6.296H6.96s-5.528-.99-5.983 5.3z"/></symbol><symbol id="shape-icon-france-call" viewBox="0 0 75.745 60.683"><path d="M41.14 35.74c-1.42 0-2.57-1.15-2.57-2.57V22.477c0-1.42 1.15-2.572 2.57-2.572h16.352c1.303-2.168 2.62-3.912 3.5-5.182C46.945 12.857 37.125 6.634 35.1 0l-5.735 1.47c0 2.686-.79 7.715-4.386 8.98-5.03 1.77-6.44-1.013-7.404-4.808-.758.213-2.83.762-2.83.762s2.068 5.28.073 7.27c-2.9 2.892-13.84.896-13.84.896S.762 18.382 0 19.688C23.62 24.752 13.372 47.3 9.102 52.823 17 60.266 30.497 60.9 33.932 60.635c7.21-10.89 16.108-3.465 16.108-3.465s6.586-2.8 9.062-6.37c-3.885-5.506-5.53-10.556-5.848-15.06H41.14z"/><path d="M75.745 27.82l-13.42-10.29v4.948H41.14v10.69h21.184v4.95"/></symbol><symbol id="shape-icon-gameloft" viewBox="308.017 227.527 797.485 554.257"><path fill="#1B1918" d="M442.64 687.672c6.408-4.826 15.59-3.21 23.19-2.544 4.68.41 6.894 3.21 8.225 6.75l35.847 88.786h-27.985c-1.712-6.537-3.572-14.308-5.878-20.667-11.946.202-23.892.06-35.85-.024l-6.762 20.69H406.85c12.376-30.783 23.548-62.17 35.79-92.99zm4.363 54.7c6.977-.037 13.954.023 20.93 0-1.45-11.364-6.394-22.454-10.387-33.246-4.03 10.757-9.58 21.858-10.543 33.245zM951.664 695.267c-.155-6.252 6.43-10.198 12.1-9.996l125.478.155c8.63 2.96 13.906 12.04 16.26 20.456l-42.837-.118-.155 74.916-23.677-.014-.665-76.316c-20.598.214-41.208.12-61.818.154-3.66 1.643-4.29 20.555 4.136 21.12l23.938-.415v16.343c-7.167-.677-14.37-.56-21.55-.475-4.135-.32-7.808 3.637-7.606 7.678l.178 31.91h-23.724c.18-28.203-.272-57.18-.058-85.396zM862.092 685.533c12.48-.725 25.02-.107 37.524-.31 6.775.155 14.24-1.117 20.277 2.806 9.52 5.954 14.37 17.685 14.025 28.668-.214 12.67.25 25.353-.238 38.01-.76 12.814-11.363 25.59-24.568 25.957-16.26.844-32.567-.27-48.84-.117-13.846-.57-19.86-16.378-21.204-28.134.167-14.275-.535-28.598 0-42.872.512-12.302 10.84-22.833 23.024-24.01zm9.854 19.326c-4.148 1.84-8.142 5.716-7.892 10.6-.38 10.71-.89 21.43-.737 32.14-.178 6.68 5.396 13.978 12.492 13.467 7.51-.083 15.082.57 22.558-.356 5.052-.582 10.436-4.04 10.816-9.53.796-11.483.166-23 .285-34.494.32-6.763-5.528-12.456-12.196-12.242-8.438.296-16.972-.56-25.328.415zM762.524 685.806c7.904-1.438 16.212.155 24.247-.94.43 22.525 0 45.072.203 67.608-.024 4.612 4.612 8.63 9.188 7.845 9.486-.43 18.995.236 28.444-.702 3.185 7.63 5.42 12.062 12.064 21.047h-67c-5.017-.06-7.358-6.024-6.918-10.398-.012-28.158-.392-56.315-.226-84.46zM662.862 698.833c-.31-6.335 4.695-12.67 10.983-13.574l70.21-.452.035 19.814c-18.09-.226-36.216-1.367-54.294-.5-5.432 5.718-5.278 20.314 5.313 19.244l43.834-.19.012 18.52-44.394-.025c-10.14-.154-12.076 13.884-4.09 18.103l54.188-.416c-.226 7.346.333 13.978.214 21.335l-71.006-.523c-5.503.213-11.327-4.018-10.995-9.914-.06-23.808-.023-47.616-.01-71.423zM521.86 697.633c.12-15.848 25.43-15.963 28.93-8.796 10.09 15.666 20.325 31.26 30.5 46.866 1.532 2.282 4.3.178 5.252-1.58 9.235-14.906 18.4-29.894 27.8-44.703 3.092-5.332 31.236-10.826 30.37 9.45l-.405 81.795h-23.83l-.655-62.6-36.418 63.72-36.31-61.414-.31 60.295h-25.317c.345-27.445-.237-55.588.393-83.032zM332.685 685.52c21.002-.83 42.087.548 63.078-.712.095 6.953.285 13.906-.07 20.86-13.3-.747-58.973-4.93-61.57 7.82-1.394 6.845-2.427 35.294 1.652 40.555 5.32 6.86 35.945 10.174 35.978-.012.32-8.022 2.08-16.544-3.542-23.224 9.77-.404 19.565-.12 29.335-.345 1.38 11.59.26 23.38.606 35.052.358 6.727-4.278 15.948-11.98 15.152h-49.956c-7.63.238-15.095-3.754-20.242-9.27-6.525-7.915-8.142-18.577-7.94-28.537.357-11.47-.202-22.952.273-34.41.703-12.502 12.256-22.19 24.38-22.926zM636.963 227.785c70.935-.44 141.917-.75 212.792 2.876 21.228 1.25 42.646 3.614 62.84 10.59 21.18 8.048 39.96 22.893 51.644 42.422 10.898 18.268 18.09 38.736 20.99 59.81 3.495 21.62 2.318 43.585 2.58 65.396.213 30.5.39 61.01.38 91.52-1.07 35.682-6.788 73.49-28.325 103.016-10.495 13.443-24.592 24.318-40.222 31.093-7.654 3.958-15.333-1.7-20.372-7.108-1.092-3.246 2.7-5.36 4.506-7.513 18.47-16.438 30.38-39.52 34.956-63.672 4.374-23.487 5.11-47.437 5.278-71.268-.773-31.82-1.474-63.756-5.93-95.325-2.283-16.7-7.11-33.494-17.08-47.294-9.748-12.397-22.477-23.272-38.012-27.373-11.197-3.268-22.94-2.02-34.422-2.805-81.99-2.282-164.037-4.172-246.06-2.33-25.08 1.866-50.766-3.02-75.37 3.518-22.522 5.3-36.18 28.538-38.39 50.29-2.306 32.055-1.165 64.218-1.854 96.322 0 21.3 3.078 44.382 18.03 60.75 8.666 12.122 23.274 18.612 38 18.743 79.184 4.053 158.557 2.9 237.848 3.59 10.84-.548 22 1.26 32.59-1.69 12.09-5.05 18.626-18.814 18.555-31.425.12-12.254 1.058-24.9-2.496-36.787-2.08-6.976-9.712-10.4-16.558-9.995-80.8 1.64-161.624 2.508-242.436 3.85-14.085-.58-29.06 5.528-35.836 18.472-10.067-1.2-20.396-1.795-30.154-4.6-1.605-27.836-2.33-55.804-1.462-83.688 1.248-24.058 23.237-43.908 47.104-43.777 94.314-2.544 188.735-3.685 283.062-1.022 24.948 1.713 52.44 7.358 69.4 27.41 13.147 14.156 20.61 32.71 22.846 51.763 3.328 27.98 1.83 56.22 2.08 84.318-.797 19.066-.94 38.654-8.058 56.66-10.983 31.463-40.424 54.248-72.8 60.167-15.025 2.912-30.37 2.46-45.583 3.09-109.35 2.83-218.95 2.9-328.097-4.98-21.75-.523-40.555-14.703-50.74-33.304-12.885-23.332-15.226-50.68-16.38-76.818-.143-60.63-1.688-121.27-1.902-181.913.868-21.882 3.6-44.93 16.188-63.506 13.063-21.074 36.276-33.565 59.93-38.867 51.975-7.155 104.593-6.858 156.94-8.605z"/></symbol><symbol id="shape-icon-hd" viewBox="0 0 256 205"><path fill-rule="evenodd" clip-rule="evenodd" d="M225.28 205H30.72C13.754 205 0 191.232 0 174.25V30.75C0 13.767 13.754 0 30.72 0h194.56C242.246 0 256 13.767 256 30.75v143.5c0 16.982-13.754 30.75-30.72 30.75zm-5.12-153.75c0-8.49-6.877-15.375-15.36-15.375H51.2c-8.483 0-15.36 6.884-15.36 15.375v102.5c0 8.49 6.877 15.375 15.36 15.375h153.6c8.483 0 15.36-6.884 15.36-15.375V51.25zm-46.08 76.36v.515h-40.96v-51.25h40.96v.515c11.685 2.375 20.48 12.713 20.48 25.11s-8.795 22.735-20.48 25.11zm-15.36-40.485h-5.12v30.75h5.12c8.483 0 15.36-6.884 15.36-15.375s-6.877-15.375-15.36-15.375zm-56.32 20.5H81.92v20.5H61.44v-51.25h20.48v20.5h20.48v-20.5h20.48v51.25H102.4v-20.5z"/></symbol><symbol id="shape-icon-help" viewBox="0 0 91.999 92"><path d="M45.385.004C19.982.344-.335 21.214.005 46.62c.34 25.392 21.208 45.714 46.61 45.376 25.398-.342 45.718-21.213 45.38-46.615-.34-25.394-21.21-45.715-46.61-45.376zM45.25 74l-.255-.004c-3.912-.116-6.67-2.998-6.56-6.852.11-3.788 2.935-6.538 6.718-6.538l.227.004c4.02.12 6.748 2.972 6.635 6.937-.112 3.8-2.893 6.453-6.766 6.453zm16.454-32.66c-.92 1.308-2.943 2.93-5.492 4.917l-2.807 1.938c-1.54 1.198-2.47 2.325-2.82 3.434-.275.872-.41 1.103-.434 2.88l-.003.45H39.43l.03-.907c.13-3.728.223-5.92 1.768-7.733 2.424-2.846 7.77-6.29 7.998-6.435.766-.577 1.412-1.234 1.893-1.936 1.124-1.552 1.622-2.773 1.622-3.973 0-1.665-.494-3.205-1.47-4.576-.94-1.322-2.724-1.992-5.304-1.992-2.56 0-4.31.812-5.36 2.478-1.077 1.713-1.622 3.512-1.622 5.35v.457h-11.05l.02-.477c.284-6.77 2.7-11.643 7.177-14.487C37.946 18.917 41.446 18 45.53 18c5.346 0 9.86 1.3 13.412 3.86 3.6 2.597 5.426 6.485 5.426 11.557 0 2.837-.896 5.502-2.664 7.924z"/></symbol><symbol id="shape-icon-logo-bouygues" viewBox="185.5 67 320.2 266.1"><path fill="#EB5B00" d="M374 328.5c22.8 15.7 67.8-10 100.6-57.5s40.9-98.7 18.2-114.4c-22.8-15.7-66.7 8.7-99.5 56.2-32.8 47.4-42 99.9-19.3 115.7z"/><path fill="#0053A5" d="M317.2 328.5c-22.8 15.7-67.8-10-100.6-57.5s-40.9-98.7-18.2-114.4c22.8-15.7 66.7 8.7 99.5 56.2 32.8 47.4 42.1 99.9 19.3 115.7z"/><ellipse fill="#009BCD" cx="345.6" cy="117" rx="104.6" ry="50"/></symbol><symbol id="shape-icon-long-arrow-d" viewBox="0 0 612 792"><path d="M506.13 501.88l-15.894-15.906-172.985 172.96V90.003H294.75v568.958L121.793 485.974l-15.924 15.905 200.126 200.125"/></symbol><symbol id="shape-icon-long-arrow-u" viewBox="0 0 612 792"><path d="M105.87 290.13l15.893 15.904 172.986-172.96v568.93h22.5V133.045l172.957 172.988 15.924-15.905L306.006 90.002"/></symbol><symbol id="shape-icon-magnifying-glass" viewBox="0 0 45.008 45.009"><path d="M43.462 35.997l-11.4-11.37c1.196-2.352 1.844-4.962 1.844-7.676 0-4.527-1.765-8.784-4.966-11.985C25.74 1.763 21.48 0 16.953 0S8.167 1.763 4.966 4.965C1.766 8.167 0 12.425 0 16.952c0 4.528 1.764 8.785 4.966 11.986 3.2 3.202 7.46 4.965 11.986 4.965 2.714 0 5.325-.646 7.675-1.842l11.37 11.403c1.03 1.03 2.383 1.546 3.733 1.546s2.7-.518 3.73-1.547c2.064-2.063 2.064-5.404.002-7.466zM9.444 24.46c-2.005-2.007-3.11-4.672-3.11-7.508s1.105-5.502 3.11-7.508c2.006-2.005 4.672-3.11 7.508-3.11s5.502 1.104 7.508 3.11c2.005 2.005 3.11 4.67 3.11 7.507s-1.105 5.503-3.11 7.51c-2.006 2.004-4.673 3.108-7.508 3.108s-5.5-1.103-7.508-3.11z"/></symbol><symbol id="shape-icon-one-euro" viewBox="0 0 115 80"><path d="M15 47.528c-2.74 0-5-2.222-5-4.96V27.482c-2 .707-4.86-.432-5.884-2.74-1.113-2.502.047-5.433 2.55-6.545l6.395-2.834c1.534-.684 3.29-.542 4.7.374 1.408.915 2.24 2.48 2.24 4.16V42.57c0 2.737-2.26 4.958-5 4.958zM59.113 40.23C53.09 40.23 48 35.192 48 28.76v-11.7c0-1.957 1.543-3.543 3.5-3.543S55 15.103 55 17.06v11.7c0 2.5 2.03 4.385 4.113 4.385 2.252 0 3.887-2.205 3.887-4.384v-11.7c0-1.957 1.543-3.543 3.5-3.543S70 15.103 70 17.06v11.7c0 6.54-4.892 11.47-10.887 11.47z"/><path fill="#00ABC4" d="M36.172 66.696c-6.21 0-12.862-4.934-12.862-12.276 0-6.927 5.77-12.56 12.862-12.56 2.538 0 5.644.288 7.148 2.547.775 1.162.93 2.598.41 3.84-.752 1.804-2.827 2.656-4.632 1.904-.604-.25-1.1-.65-1.468-1.14-.332-.035-.805-.065-1.458-.065-2.79 0-5.777 2.2-5.777 5.475 0 2.97 3.05 5.19 5.777 5.19 1.11 0 1.8-.456 1.804-.46 1.394-1.373 3.638-1.356 5.01.038 1.372 1.396 1.355 3.64-.04 5.01-.423.418-2.74 2.498-6.774 2.498z"/><path d="M99.625 40.207c-6.427 0-11.625-5.13-11.625-11.68V26.2c0-6.548 5.198-11.68 11.625-11.68 6.287 0 11.375 5.132 11.375 11.68v2.326c0 6.55-5.088 11.68-11.375 11.68zm0-18.6C97.13 21.607 95 23.582 95 26.2v2.326c0 2.62 2.13 4.594 4.625 4.594 2.71 0 4.375-2.31 4.375-4.594V26.2c0-2.282-1.666-4.593-4.375-4.593z"/><path fill="#00ABC4" d="M57.125 67.76C50.698 67.76 46 62.588 46 55.985v-2.352c0-6.603 4.698-11.774 11.125-11.774C63.518 41.86 68 46.92 68 53.633v2.352c0 6.71-4.482 11.774-10.875 11.774zm0-18.815c-2.495 0-4.125 2.017-4.125 4.688v2.352c0 2.672 1.63 4.688 4.125 4.688 2.836 0 3.875-2.43 3.875-4.688v-2.352c0-2.258-1.04-4.688-3.875-4.688z"/><path d="M77.5 40.442c-1.957 0-3.5-1.586-3.5-3.543V17.77C74 15.81 75.487 14 77.444 14h7.794c1.957 0 3.543 1.543 3.543 3.5S87.196 21 85.24 21H81v15.9c0 1.956-1.543 3.542-3.5 3.542zM42.292 30.657c-1.49-.596-3.143-.108-4.09 1.087-.234.076-.748-.003-1.677-.003-2.245 0-4.676-.74-5.663-3.74h6.194c1.174 0 2.125-.826 2.125-2 0-1.175-.95-2-2.124-2H30.9c1.005-2 3.37-3.47 5.625-3.47.72 0 1.233.072 1.586.114.37.51.88.944 1.503 1.204 1.807.752 3.88-.092 4.633-1.898.51-1.228.352-2.7-.416-3.853-1.526-2.29-4.706-2.582-7.306-2.582-7.287 0-13.215 5.79-13.215 12.903 0 7.54 6.832 12.607 13.214 12.607 5.788 0 7.39-2.88 7.74-3.764.73-1.815-.156-3.877-1.972-4.603z"/><path fill="#00ABC4" d="M95.734 42.994c-2.762 0-5.116.976-7 2.59-1.84-1.62-4.22-2.59-6.985-2.59-1.626 0-3.12.345-4.486.948-.65-.762-1.623-1.255-2.702-1.255-1.957 0-3.562 1.586-3.562 3.542v16.177c0 1.957 1.543 3.543 3.5 3.543s3.5-1.586 3.5-3.543V53.48c0-1.97 1.496-3.4 3.615-3.4 2.53 0 3.385 1.832 3.385 3.4v8.927c0 1.957 1.543 3.543 3.5 3.543s3.5-1.586 3.5-3.543V53.48c0-1.97 1.496-3.4 3.615-3.4 2.53 0 3.385 1.832 3.385 3.4v8.927c0 1.957 1.543 3.543 3.5 3.543s3.5-1.586 3.5-3.543V53.48c0-5.978-4.27-10.486-10.266-10.486z"/><circle fill="#00ABC4" cx="14.914" cy="61.404" r="5.609"/></symbol><symbol id="shape-icon-pdf-file" viewBox="0 0 32 32"><path d="M3.79 3.033h11.093V7.96c0 .445.165.873.48 1.188.317.313.74.473 1.185.47l4.99-.046h.03v9.55h2.57V9.514c0-1.11-.423-2.178-1.205-2.968l-4.95-4.993C17.19.753 16.12.316 14.995.316H3.505c-1.258 0-2.285.994-2.285 2.252v24.424c0 1.257 1.027 2.27 2.284 2.27h6.018v-2.573h-5.73V3.032zm13.665 1.77L19.735 7h-.006l-2.275.053v-2.25z"/><path d="M6.966 8.544h3.607c.718 0 1.3-.568 1.3-1.288 0-.717-.582-1.284-1.3-1.284H6.966c-.72 0-1.3.567-1.3 1.284 0 .72.58 1.288 1.3 1.288zM18.46 10.967H6.967c-.72 0-1.3.566-1.3 1.285s.58 1.287 1.3 1.287H18.46c.72 0 1.303-.57 1.303-1.288s-.583-1.285-1.302-1.285zM18.46 15.815H6.967c-.72 0-1.3.68-1.3 1.396 0 .72.58 1.397 1.3 1.397H18.46c.72 0 1.303-.678 1.303-1.396 0-.716-.583-1.395-1.302-1.395zM5.666 22.098c0 .718.58 1.284 1.3 1.284h2.556v-2.57H6.966c-.72 0-1.3.57-1.3 1.286zM17.015 24.567c-.252 0-.442.024-.515.05v1.618c.147.023.238.03.418.03.658 0 1.067-.33 1.067-.894 0-.502-.353-.803-.97-.803z"/><path d="M13.31 20.738c-1.038 0-1.88.84-1.88 1.88v7.554c0 1.038.842 1.88 1.88 1.88H30.12c1.038 0 1.88-.842 1.88-1.88v-7.555c0-1.038-.842-1.88-1.88-1.88H13.31zm5.4 5.903c-.424.4-1.054.578-1.785.578-.163 0-.277-.007-.425-.024v1.993h-1.25v-5.44c.44-.065.934-.113 1.69-.113.764 0 1.315.147 1.682.44.35.275.588.73.588 1.266 0 .535-.177.99-.5 1.3zm5.23 1.862c-.578.48-1.446.708-2.52.708-.642 0-1.1-.04-1.395-.08v-5.383c.44-.073 1.037-.114 1.663-.114 1.04 0 1.71.187 2.24.585.567.423.923 1.098.923 2.064.003 1.05-.382 1.774-.91 2.22zm5.048-3.797H26.93v1.248h1.983v1.028H26.93v2.206h-1.248v-5.51h3.306v1.03z"/><path d="M21.823 24.584c-.276 0-.475.024-.548.05v3.584c.073.025.264.025.416.025 1.123.007 1.843-.61 1.843-1.92.007-1.136-.645-1.74-1.71-1.74z"/></symbol><symbol id="shape-icon-phone" viewBox="0 0 31 31"><title>icon-phone@1x</title><path d="M30.347 25.218l-6.612-4.575c-.305-.305-.803-.305-1.108.002l-1.604 1.6c-1.652 1.654-6.85-2.467-8.537-4.154-1.685-1.684-5.808-6.88-4.155-8.535l1.604-1.603c.305-.306.305-.803 0-1.11L5.36.23c-.305-.307-.8-.307-1.108 0L1.12 2.344c-1.365 1.368-3.687 6.2 8.614 18.5 12.3 12.3 17.134 9.98 18.5 8.614h.002l2.11-3.132c.308-.307.308-.804 0-1.108" fill-rule="evenodd"/></symbol><symbol id="shape-icon-press" viewBox="0 0 292.17 259.15"><title>Presse</title><path d="M262.13 143.8h-.21a5.79 5.79 0 0 0-1.39.18l-91 21.45a5.612 5.612 0 0 0 2.64 10.91l90.92-21.44a5.62 5.62 0 0 0 3.74-2.33 5.52 5.52 0 0 0 .91-4.17 5.62 5.62 0 0 0-5.65-4.6M172.2 213.51l90.92-21.44a5.58 5.58 0 0 0-1-11.1h-.21a5.22 5.22 0 0 0-1.39.18l-91 21.45a5.617 5.617 0 0 0 2.68 10.91M262.13 106.61h-.21a5.79 5.79 0 0 0-1.39.18l-91 21.45a5.612 5.612 0 0 0 2.64 10.91l90.92-21.44a5.62 5.62 0 0 0 3.74-2.33 5.52 5.52 0 0 0 .91-4.17 5.62 5.62 0 0 0-5.65-4.6M204.59 82.58h-.34a5.47 5.47 0 0 0-1.57.26l-33.22 8.3a5.585 5.585 0 0 0 2.81 10.81l33.09-8.27a5.66 5.66 0 0 0 3.79-2.33 5.46 5.46 0 0 0 .94-4.16 5.6 5.6 0 0 0-5.5-4.63"/><path d="M140.5 246.41L11.16 216.09V37.51L140.5 67.83zm-88-231.45l67.29 36.49-67.31-15.78zm99.18 52.87l129.33-30.32v178.58l-129.35 30.32zm88-52.87v20.71l-67.27 15.78zm48.23 211a5.56 5.56 0 0 0 4.26-5.4V30.44a5.6 5.6 0 0 0-1.59-4 5.51 5.51 0 0 0-3.92-1.68 7.25 7.25 0 0 0-1.38.15l-34.44 8.15V5.64A5.59 5.59 0 0 0 245.29 0a5.28 5.28 0 0 0-2.65.65L146.08 53 49.5.64a5.65 5.65 0 0 0-3.21-.59 5.55 5.55 0 0 0-5 5.57v27.45L6.9 24.91a6.54 6.54 0 0 0-1-.09h-.55a5.6 5.6 0 0 0-5.32 5.59v190.1a5.56 5.56 0 0 0 4.27 5.4l140.5 33.06a5.66 5.66 0 0 0 2.63 0z"/><path d="M115.71 126.51l-79.76-18.7V82.2l79.76 18.7zm6.89-35.52L31.69 69.6a5.68 5.68 0 0 0-2.28-.09 5.56 5.56 0 0 0-4.61 5.57v37.23a5.57 5.57 0 0 0 4.27 5.4l90.9 21.44a5.59 5.59 0 0 0 6.75-4.12 5.48 5.48 0 0 0 .15-1.28V96.56a5.56 5.56 0 0 0-4.27-5.52M22.55 151.96a6.21 6.21 0 0 0 5.1 6.07l91 21.45a6.232 6.232 0 0 0 2.91-12.12l-90.87-21.43a6.1 6.1 0 0 0-1.62-.21h-.36a6.2 6.2 0 0 0-6.16 6.24M22.55 189.15a6.2 6.2 0 0 0 5.1 6.07l91 21.46a6.26 6.26 0 0 0 2.93-12.17l-90.89-21.38a6.1 6.1 0 0 0-1.62-.21h-.36a6.21 6.21 0 0 0-6.16 6.24"/></symbol><symbol id="shape-icon-promo-flat" viewBox="0 0 134 138"><title>forme_plate</title><path d="M.03 0L0 128.344C0 139.462 10.37 137 10.37 137s107.858-13.52 114.123-14.8c7.72-1.577 9.226-9.216 9.226-9.216V.084L.03 0z"/></symbol><symbol id="shape-icon-promo-round" viewBox="0 0 134 148"><title>forme_ronde</title><path d="M133.72 10.083C133.72-.062 124.03 0 124.03 0h-114s-10-.082-10 10L0 138.344C0 149.462 10.37 147 10.37 147s107.858-13.52 114.123-14.8c7.72-1.577 9.226-9.216 9.226-9.216v-112.9"/></symbol><symbol id="shape-icon-refine" viewBox="0 0 21 20"><g fill-rule="nonzero"><path d="M.512 17.993c-.172.033-.345-.053-.44-.22-.096-.166-.096-.38 0-.547.095-.166.268-.252.44-.22h11.744c.172-.032.345.054.44.22.095.167.095.38 0 .548-.095.166-.268.252-.44.22H.512zm15.57 0c-.17.033-.343-.053-.44-.22-.094-.166-.094-.38 0-.547.097-.166.27-.252.44-.22h4.406c.172-.032.345.054.44.22.096.167.096.38 0 .548-.095.166-.268.252-.44.22h-4.405zM.512 9.993c-.172.033-.345-.053-.44-.22-.096-.166-.096-.38 0-.547.095-.166.268-.252.44-.22h4.405c.252-.022.476.183.512.468-.008.147-.067.284-.163.38-.096.098-.222.148-.35.14H.512zm8.236 0c-.172.033-.344-.053-.44-.22-.095-.166-.095-.38 0-.547.096-.166.268-.252.44-.22h11.74c.172-.032.345.054.44.22.096.167.096.38 0 .548-.095.166-.268.252-.44.22H8.748zM.513 3C.25 3.02.023 2.796 0 2.497.024 2.2.252 1.98.513 2H8.58c.26-.018.487.202.513.498-.024.298-.25.52-.513.5H.513zm11.894 0c-.26.018-.49-.204-.512-.502.025-.296.252-.516.512-.497h8.1c.254-.007.47.21.493.498-.022.29-.238.51-.492.5h-8.1z"/><path d="M4 9.52c-.01-1.196.83-2.23 2-2.47 1.17-.238 2.346.384 2.807 1.487.46 1.102.076 2.376-.917 3.04-.993.665-2.317.534-3.16-.312-.475-.456-.74-1.088-.73-1.746m1.458-1.013c-.27.268-.42.632-.416 1.012-.004.38.146.745.414 1.015.27.27.634.42 1.015.417.382.004.748-.146 1.018-.416s.42-.636.416-1.017c.002-.38-.148-.747-.417-1.015-.27-.27-.636-.418-1.016-.415-.38-.007-.746.144-1.012.417M12 17.523c-.01-1.195.826-2.23 1.996-2.47 1.17-.242 2.348.38 2.81 1.482.46 1.102.078 2.377-.915 3.042-.992.665-2.317.534-3.16-.312-.475-.454-.74-1.085-.73-1.742m1.454-1.016c-.493.486-.574 1.253-.193 1.83.383.58 1.12.807 1.76.545.642-.263 1.008-.943.874-1.623s-.73-1.17-1.423-1.17c-.38 0-.745.15-1.016.417M8 2.5C8 1.12 9.12 0 10.5 0S13 1.12 13 2.5 11.88 5 10.5 5 8 3.88 8 2.5m1.47-1.024c-.27.272-.42.64-.42 1.024 0 .8.647 1.446 1.446 1.446.798 0 1.446-.647 1.446-1.446.002-.383-.15-.752-.42-1.023-.27-.272-.64-.424-1.022-.423-.385-.002-.755.15-1.03.422"/></g></symbol><symbol id="shape-icon-sensation" viewBox="42.938 0.562 61 12"><path d="M91.753 4.644c-2.094.004-3.785 1.705-3.78 3.795.006 2.148 1.795 3.876 3.965 3.776 1.93-.087 3.517-1.674 3.606-3.604.102-2.174-1.637-3.97-3.79-3.968zm.01 6.14c-1.27.005-2.302-1.048-2.305-2.347-.002-1.3 1.024-2.354 2.297-2.356 1.27 0 2.304 1.05 2.306 2.35.002 1.297-1.026 2.353-2.296 2.355zM62.466 6.094c-1.475.002-2.198 1.123-2.196 2.712v3.3h-1.61V8.812c-.007-2.58 1.67-4.16 3.98-4.163 2.294-.006 3.648 1.666 3.648 4.15v3.31h-1.61v-3.31c-.003-1.543-.606-2.707-2.212-2.703zM99.834 6.094c-1.477.002-2.197 1.123-2.195 2.712v3.3h-1.612V8.812c-.006-2.58 1.67-4.16 3.98-4.163 2.295-.006 3.648 1.666 3.648 4.15v3.31h-1.612v-3.31c0-1.543-.605-2.707-2.21-2.703zM80.407 8.428c-.007-2.09-1.703-3.782-3.796-3.78-2.09.006-3.78 1.822-3.777 3.913.005 2.093 1.7 3.667 3.794 3.663.887-.002 1.895-.445 2.337-1.053v.938l1.443.002V8.428zm-3.782 2.357c-1.247.004-2.262-1.05-2.264-2.346-.003-1.298 1.008-2.354 2.256-2.355 1.245-.003 2.26 1.047 2.264 2.347 0 1.297-1.008 2.35-2.255 2.353zM80.884 2.794v6.433c-.004 2.267 1.457 3.584 4.576 2.738l-.35-1.3c-1.622.538-2.675-.05-2.67-1.772v-2.83h2.612V4.76H82.44V2.793h-1.556zM86.94 3.18c.337-.08.61-.355.687-.693.14-.613-.323-1.154-.914-1.154-.516 0-.937.42-.935.938 0 .59.55 1.05 1.16.91zM87.494 12.107V4.76H85.94l-.002 7.347M46.813 10.71c1.43 0 1.956-.94 1.956-1.743 0-2.376-5.554-1.426-5.554-4.98 0-1.677 1.052-3.113 3.578-3.113 1.12 0 2.106.202 3.102.507l-.37 1.506c-1.133-.348-1.906-.506-2.962-.506-1.182 0-1.64.653-1.64 1.288 0 2.523 5.61 1.66 5.61 5.04 0 1.976-1.23 3.515-3.63 3.515-1.152 0-2.588-.214-3.68-.816l.53-1.434c1.162.554 2.074.738 3.06.738zM68.38 6.654c0-.394.302-.717 1.147-.717.754 0 1.52.22 2.18.583l.464-1.266c-.697-.38-1.58-.61-2.462-.61-1.985 0-2.858 1.05-2.858 2.17 0 2.504 4.23 1.767 4.23 3.138 0 .51-.487.98-1.49.98-.772 0-1.528-.225-2.32-.653l-.5 1.206c.835.508 1.823.736 2.895.736 1.887 0 2.91-1.027 2.91-2.348-.005-2.683-4.195-2-4.195-3.22zM58.09 7.27c-.335-1.574-1.673-2.628-3.36-2.625-2.09.005-3.718 1.702-3.715 3.792.004 2.15 1.73 3.785 3.893 3.785 1.08 0 2.194-.347 2.934-1.015l-.735-1.128c-.547.503-1.256.752-2.062.752-1.188 0-2.343-.9-2.51-1.927h4.254c1.328 0 1.55-.458 1.3-1.634zm-1.808.39h-3.704c.316-.92 1.125-1.577 2.152-1.58 1 0 1.605.522 1.803 1.2.07.247.043.38-.25.38z"/></symbol><symbol id="shape-icon-shop-thin" viewBox="0 0 93.3 81.5"><path d="M84.2 6.3C84 2.8 81.1 0 77.5 0H16c-3.6 0-6.5 2.8-6.7 6.3L.2 19.8v.3c0 5 3.5 9.1 8.3 10 1.8.3 3.4.2 5.1-.4h.1c.3-.1.7-.3.9-.4.1 0 .1-.1.2-.1.3-.1.6-.3.9-.5l.1-.1c1.2-.8 2.3-1.9 3.1-3.2l.1-.1c.1-.3.3-.5.4-.8 1.6 3.5 5.1 5.8 9.1 5.8s7.5-2.3 9.1-5.8c1.6 3.5 5.1 5.8 9.1 5.8s7.5-2.3 9.1-5.8c1.6 3.5 5.1 5.8 9.1 5.8s7.5-2.3 9.1-5.8l.3.6.1.2c.2.2.3.5.5.7.1.1.1.1.3.2.2.2.3.4.5.6l.2.2c.2.3.5.5.7.7l.1.1c.6.6 1.4 1.1 2.4 1.5l.2.1c.1.1.2.2.3.2l.1.1c.4.1.7.2 1.1.3h.1c.8.2 1.6.3 2.3.3 5.6 0 10.1-4.6 10.2-10.2v-.3L84.2 6.3zm-1.1 21.6c-.6 0-1.2 0-1.9-.2h-.1c-.2 0-.5-.1-.7-.2l-.2-.1c-.1 0-.2-.1-.2-.1-.1 0-.2-.1-.3-.1-.8-.3-1.4-.7-2-1.2l-.6-.6-.7.7.6-.8c-.1-.1-.3-.3-.4-.5l-.1-.2c-.1-.2-.2-.4-.4-.7v-.1c-.5-.9-.9-1.9-1-2.9-.1-.3-.1-.7-.1-1h-2c0 .4 0 .8-.1 1.3-.6 4-4 6.9-8 6.9-3.8 0-7-2.5-7.9-6.1-.1-.3-.2-.5-.2-.8-.1-.4-.1-.8-.1-1.2h-2c0 .5 0 .9-.1 1.3-.6 4-4 6.9-8 6.9-3.8 0-7-2.5-7.9-6.1-.1-.3-.2-.5-.2-.8-.1-.4-.1-.8-.1-1.2h-2c0 .4 0 .8-.1 1.3-.6 4-4 6.9-8 6.9s-7.4-2.9-8-6.9c-.1-.5-.1-.8-.1-1.2h-2c0 .3-.1.6-.1.9v.1c-.1.3-.1.6-.2.9v.1c-.1.5-.3 1-.5 1.4-.1.3-.2.5-.4.8l-.1.1c-.6 1-1.5 1.8-2.5 2.5-.2.2-.5.3-.7.4l.4.9-.5-.8c-.2.1-.5.2-.6.3-.1.1-.2.1-.2.1-1.3.4-2.6.6-4.1.3-3.8-.7-6.6-3.9-6.7-7.7L11.3 7v-.3C11.3 4.1 13.4 2 16 2h61.5c2.5 0 4.6 2.1 4.6 4.7V7l9.1 13.1c-.1 4.3-3.7 7.8-8.1 7.8zM84.1 76.1c0 1.2-.3 2.1-.9 2.6-1 1-2.7.8-2.7.8H45.2c.1-2.6.1-9.5 0-28.8v-6.1c0-1.4-.4-2.5-1.3-3.3-1.2-1.1-3-1-3.4-1H26.4c-1.6 0-2.9.5-3.7 1.4-1.2 1.3-1.1 2.9-1.1 3.3v34.5h-8c-1 0-1.7-.3-2.1-.7-.5-.5-.4-1.4-.4-1.4V32.3h-2v44.8c-.1.4-.2 1.9.8 3 .8.9 2 1.4 3.6 1.4H80.7c.8 0 2.5-.1 3.8-1.2 1.1-1 1.6-2.4 1.6-4.1V32.8h-2v43.3zm-40.8 3.4H23.6V44.9s0-1.1.6-1.8c.5-.5 1.2-.8 2.2-.8H40.7c.1 0 1.3-.1 2 .5.4.4.6 1 .6 1.8v6.1c.1 8.3.2 24.8 0 28.8z"/><path d="M71.1 40.9c-1.1-.6-2.1-.6-2.2-.6H54.4c-1.4 0-2.5.4-3.3 1.2-1.1 1.2-1.1 2.8-1.1 2.9v11.4c0 3.7 2.3 5 4.5 5 .3 0 .5-.1.6 0h14c1.4 0 2.5-.5 3.2-1.3 1.1-1.2 1-2.7 1-3.1V44.9c0-2.3-1.2-3.5-2.2-4zm-.4 17.2c-.3.4-.9.6-1.7.6H54.8h-.3c-1.7 0-2.5-1-2.5-3V44.3s0-.9.6-1.5c.3-.4 1-.6 1.8-.6h14.5c.4 0 2.3.2 2.3 2.6v11.7s.1 1-.5 1.6z"/></symbol><symbol id="shape-icon-shop" viewBox="0 0 112 112"><path d="M102.666 9.333h-98V0h98v9.333zM105 56.238c.8 0 1.572-.103 2.334-.233V112h-14V65.334h-28V112H4.667V56c.76.13 1.537.238 2.333.238 5.264 0 9.86-2.92 12.25-7.23 2.39 4.308 6.986 7.23 12.25 7.23s9.86-2.92 12.25-7.23c2.39 4.308 6.986 7.23 12.25 7.23 5.263 0 9.86-2.92 12.25-7.23 2.39 4.308 6.986 7.23 12.25 7.23s9.86-2.92 12.25-7.224c2.395 4.302 6.986 7.224 12.25 7.224zm-53.667 9.096H18.667v28h32.667v-28zM102.666 14h-98S0 43.52 0 44.333c0 3.864 3.136 7 7 7s7-3.136 7-7v-21h10.5v21c0 3.864 3.136 7 7 7s7-3.136 7-7v-21H49v21c0 3.864 3.137 7 7 7s7-3.136 7-7v-21h10.5v21c0 3.864 3.137 7 7 7s7-3.136 7-7l.047-21H98v21c0 3.864 3.137 7 7 7s7-3.136 7-7C112 43.52 102.666 14 102.666 14z"/></symbol><symbol id="shape-icon-sim" viewBox="0 0 24 33"><title>icon-sim@1x</title><g fill-rule="evenodd"><path d="M13.635 1.572l-11.774.03c-.222 0-.433.083-.593.237-.16.153-.246.354-.245.567l.07 28.413c.004.443.38.803.843.802v.438l.002-.437 19.42-.046c.463 0 .84-.363.838-.805l-.052-20.18c0-.572-.352-1.45-.752-1.878L15.455 2.35c-.387-.414-1.237-.776-1.82-.778M1.937 32.5c-.97 0-1.757-.753-1.758-1.678L.103 2.41c0-.447.182-.87.514-1.19C.95.9 1.39.725 1.86.724L13.63.695c.848 0 1.948.47 2.508 1.07l5.937 6.365c.55.59.984 1.67.986 2.462l.052 20.177c.003.926-.785 1.683-1.754 1.686L1.936 32.5"/><path d="M13.67 18.555l-.02-4.272-4.366.02.02 4.27 4.367-.018"/><path d="M18.685 19.057l-4.74.023c-.01 0-.017-.004-.026-.004l-4.886.023c-.15 0-.274-.12-.273-.262l-.023-4.533-1.228.005c-1.73.008-3.13 1.36-3.122 3.016l.027 5.874 14.29-.063-.02-4.08"/><path d="M18.682 18.535l-.006-1.272c-.008-1.656-1.423-2.995-3.15-2.988l-1.232.006.02 4.273 4.368-.018M9.43 23.7l.02 4.27 4.215-.018-.02-4.272-4.215.02M18.706 23.658l-4.416.02.022 4.27 1.28-.006c1.726-.006 3.13-1.358 3.12-3.01l-.006-1.274M4.418 23.72l.006 1.27c.01 1.657 1.42 2.996 3.15 2.99l1.18-.007-.02-4.272-4.316.02"/></g></symbol><symbol id="shape-icon-sms-mms" viewBox="0 0 32 25"><title>icon-SMS-MMS@1x</title><g fill-rule="evenodd"><path d="M11.16 8.31c0 3.766 4.556 6.82 10.177 6.82.827 0 1.624-.073 2.394-.198.56.912 1.92 1.316 3.134 1.44h1.632c.603-.077.856-.243.37-.403-.873-.292-1.385-1.27-1.67-2.09 2.406-1.14 4.046-2.958 4.286-5.042v-1.06c-.403-3.52-4.792-6.292-10.145-6.292-5.62 0-10.177 3.055-10.177 6.823"/><path d="M23.792 20.705l-5.034-3.592c-.234-.24-.612-.24-.846.002l-1.218 1.258c-1.26 1.3-5.218-1.94-6.503-3.264-1.28-1.323-4.42-5.405-3.16-6.704l1.218-1.258c.232-.24.232-.63 0-.87L4.765 1.083c-.232-.24-.61-.24-.844 0l-2.384 1.66C.496 3.818-1.27 7.614 8.096 17.27c9.365 9.662 13.048 7.837 14.086 6.765h.002l1.608-2.46c.234-.24.234-.63 0-.87"/></g></symbol><symbol id="shape-icon-sms" viewBox="0 0 32 23"><title>icon-sms@1x</title><path d="M0 10.314c0 5.696 7.02 10.313 15.685 10.313 1.274 0 2.503-.11 3.69-.3.862 1.38 2.958 1.99 4.83 2.18h2.515c.927-.12 1.317-.37.572-.613-1.348-.44-2.137-1.92-2.576-3.158 3.797-1.763 6.357-4.6 6.63-7.845V9.737C30.89 4.308 24.053 0 15.686 0 7.02 0 0 4.618 0 10.314" fill-rule="evenodd"/></symbol><symbol id="shape-icon-spotify" viewBox="0 0 602.285 602.286"><path fill="#1ED760" d="M296.82 0C130.598 0-4.323 134.92-4.323 301.144c0 166.582 134.92 301.142 301.143 301.142 166.582 0 301.144-134.922 301.144-301.142C598.324 134.92 463.402 0 296.82 0zm138.16 434.624c-5.398 8.996-16.91 11.514-25.905 6.117-70.88-43.175-159.746-52.888-264.805-29.142-10.074 2.158-20.147-3.96-22.307-14.033s3.958-20.148 14.032-22.307c114.77-26.266 213.354-15.11 292.508 33.46 9.354 5.398 11.873 16.91 6.476 25.906zm37.056-82.032c-6.836 11.152-21.228 14.393-32.38 7.914-80.952-49.65-204.36-64.04-300.063-35.258-12.593 3.598-25.545-3.238-29.143-15.47-3.6-12.594 3.237-25.545 15.83-29.145 109.376-33.1 245.376-17.27 338.562 39.937 10.433 6.477 14.03 20.868 7.194 32.022zm3.24-85.63C378.13 209.397 218.025 204 125.2 232.062c-14.75 4.68-30.58-3.956-35.26-18.708-4.676-14.75 3.96-30.582 18.71-35.26 106.497-32.38 283.514-25.904 395.048 40.297 13.312 7.917 17.63 25.187 9.714 38.5-7.555 13.672-24.825 17.988-38.137 10.072z"/></symbol><symbol id="shape-icon-three-times" viewBox="0 0 550 340"><g fill="#01325A"><path d="M102.31 147.64c0-24.623-19.852-44.657-44.255-44.657-11.795 0-22.938 4.645-31.376 13.08-4.9 4.895-4.9 12.833-.003 17.73 4.896 4.897 12.833 4.898 17.732.003 2.618-2.616 7.11-5.737 13.645-5.737 10.755 0 19.18 8.6 19.18 19.58 0 8.987-11.072 17.463-18.006 19.238-.81-.065-1.757-.1-2.537-.1-6.924 0-12.692 5.614-12.692 12.54v.44c0 6.926 5.77 12.537 12.693 12.537.78 0 1.65-.032 2.46-.102 6.933 1.775 18.043 10.253 18.043 19.24 0 10.98-8.23 19.58-18.758 19.58-5.232 0-10.137-2.038-13.83-5.73-4.893-4.903-12.83-4.903-17.726-.01-4.9 4.895-4.902 12.833-.008 17.73 8.43 8.437 19.646 13.085 31.582 13.085 24.59 0 43.854-19.615 43.854-44.655 0-12.873-6.708-23.98-15.702-31.897 8.994-7.915 15.703-19.022 15.703-31.895zM209.252 112.595c-5.853-3.695-13.596-1.957-17.297 3.898l-26.448 41.83-24.646-42.918c-3.444-6.004-11.1-8.078-17.117-4.628-6.004 3.45-8.078 11.112-4.628 17.118l31.237 54.394-33.52 53.018c-3.7 5.854-1.956 13.6 3.897 17.302 2.078 1.314 4.395 1.938 6.687 1.938 4.157 0 8.224-2.064 10.61-5.836l26.447-41.83 24.646 42.916c2.318 4.036 6.54 6.297 10.886 6.297 2.116 0 4.263-.538 6.232-1.67 6.004-3.448 8.077-11.113 4.628-17.117l-31.238-54.394 33.52-53.02c3.702-5.854 1.956-13.6-3.896-17.3z"/></g><path fill="#01325A" d="M404 302.936c0 7.215-5.85 13.064-13.065 13.064h-140.87C242.85 316 237 310.15 237 302.936V70.064C237 62.85 242.85 57 250.065 57h140.87C398.15 57 404 62.85 404 70.064v232.872z"/><path fill="#2D85C4" d="M404 268.91v34.02c0 7.216-6.107 13.07-13.324 13.07h91.948c7.216 0 13.376-5.854 13.376-13.07V173.395l-92 95.515z"/><path fill="#015998" d="M523.51 125.658L421.89 27.838c-5.2-5.003-13.47-4.78-18.473.42L375.81 57h14.864C397.893 57 404 62.717 404 69.933V268.91l119.988-124.777c5.004-5.2 4.716-13.47-.48-18.475z"/><g fill="#FFF"><path d="M454.155 189.398c-.253-.266-.522-.53-.796-.796 6.774-6.976 11.56-16.116 11.56-26.52 0-22.477-18.205-40.764-40.46-40.764l-37.314-.368c-3.34-.06-6.81 1.276-9.188 3.628-2.377 2.355-3.957 5.563-3.957 8.91V244.94C374 251.87 380.1 257 387.025 257h37.945c22.53 0 40.178-17.354 40.173-39.447.05-1.695.164-16.67-10.988-28.152zM400 146.153l24.555.243c8.695 0 15.396 6.892 15.396 15.687 0 8.23-11.784 15.65-16.347 15.65-.923 0-1.87.267-2.736.267H400v-31.847zM424.97 232H400v-29h24.64c.57 0 1.117-.02 1.672-.094 7.42.63 10.16 3.777 11.56 6.197 2.18 3.77 2.203 7.856 2.2 8.1-.002 8.683-6.352 14.797-15.103 14.797zM324 141.588v-.037c9 0 14.744 3.825 18.525 10.36 3.47 5.99 10.877 7.892 16.877 4.424 5.992-3.47 8.083-11.623 4.613-17.617C355.702 124.35 340.637 115 323.655 115h-.014c-20.476 0-39.066 14.694-44.947 34.628-.343 1.153-.693 3.12-.693 4.323v66.13c0 1.2.35 2.3.693 3.45C284.52 243.3 303.107 257 323.625 257h.025c16.628 0 32.112-8.775 40.406-23.105 3.47-5.996 1.42-13.654-4.57-17.123-6-3.466-13.67-1.494-17.135 4.502-3.885 6.714-10.876 10.727-18.71 10.727h-.007c-8.955 0-16.634-5.594-20.634-13.944v-62.088c4-8.52 13-14.38 21-14.38z"/></g></symbol><symbol id="shape-icon-twice-datas" viewBox="0 0 320.47 182.35"><title>2-fois-plus-dinternet blue</title><path fill="#009dcc" d="M221.49 24.81h-9.18v30.9h-10.6v-30.9h-5.84V19.7l5.84-2.85V14q0-6.64 3.27-9.7t10.46-3.05a27.23 27.23 0 0 1 9.77 1.63l-2.71 7.79a19.8 19.8 0 0 0-5.91-1 3.83 3.83 0 0 0-3.27 1.34 5.53 5.53 0 0 0-1 3.42v2.42h9.18zM262.88 36.25q0 9.49-5 14.84t-13.94 5.35a19.49 19.49 0 0 1-9.87-2.45 16.3 16.3 0 0 1-6.57-7 23.66 23.66 0 0 1-2.29-10.74q0-9.52 5-14.81t14-5.28a19.62 19.62 0 0 1 9.87 2.43 16.24 16.24 0 0 1 6.57 7 23.42 23.42 0 0 1 2.23 10.66m-26.86 0q0 5.77 1.89 8.72t6.17 3q4.24 0 6.1-2.94t1.86-8.78q0-5.77-1.88-8.65t-6.15-2.88q-4.24 0-6.12 2.87t-1.87 8.66M271.19 6.8q0-5.18 5.77-5.18t5.77 5.18a5 5 0 0 1-1.44 3.84 6.06 6.06 0 0 1-4.33 1.37q-5.77 0-5.77-5.21m11.05 48.9h-10.63V16.85h10.6zM320.47 44.17q0 6-4.15 9.11t-12.42 3.13a39.06 39.06 0 0 1-7.23-.57 27.34 27.34 0 0 1-5.6-1.68v-8.78a37 37 0 0 0 6.66 2.33 27 27 0 0 0 6.52.94q5.77 0 5.77-3.34a2.79 2.79 0 0 0-.76-2 11 11 0 0 0-2.65-1.8q-1.88-1-5-2.31a31.4 31.4 0 0 1-6.59-3.48 9.77 9.77 0 0 1-3.06-3.67 12.11 12.11 0 0 1-1-5.09 9.23 9.23 0 0 1 4-8q4-2.83 11.38-2.83A32.31 32.31 0 0 1 320 19.19l-3.2 7.65q-2.92-1.25-5.46-2.05a17.17 17.17 0 0 0-5.18-.8q-4.69 0-4.69 2.54a3 3 0 0 0 1.51 2.47 41.13 41.13 0 0 0 6.62 3.09 30.75 30.75 0 0 1 6.67 3.44 10.18 10.18 0 0 1 3.13 3.68 11.32 11.32 0 0 1 1 5M214.37 112.64a11.39 11.39 0 0 1-9.49-4.39h-.49q.49 4.3.49 5v13.91h-9.37V77.7h7.61l1.32 4.45h.43a10.84 10.84 0 0 1 9.74-5.1 11.14 11.14 0 0 1 9.52 4.7q3.44 4.7 3.44 13a25.74 25.74 0 0 1-1.61 9.55 13.4 13.4 0 0 1-4.59 6.17 11.76 11.76 0 0 1-7 2.12m-2.76-28.05q-3.47 0-5.07 2.13t-1.66 7v1q0 5.53 1.64 7.92a5.86 5.86 0 0 0 5.2 2.4q6.29 0 6.29-10.38 0-5.07-1.55-7.6a5.29 5.29 0 0 0-4.85-2.47M235.3 64.25h9.36v47.78h-9.36zM278.81 112.02l-1.26-4.39h-.49a9.89 9.89 0 0 1-4.27 3.7 14.58 14.58 0 0 1-6.3 1.3q-6 0-9.12-3.24t-3.07-9.32V77.7h9.36v20.05a9.62 9.62 0 0 0 1.32 5.57 4.8 4.8 0 0 0 4.21 1.86q3.93 0 5.68-2.63t1.75-8.7V77.7h9.37v34.33zM319.77 101.83a9.45 9.45 0 0 1-3.67 8q-3.67 2.76-11 2.76a34.44 34.44 0 0 1-6.39-.51 24.18 24.18 0 0 1-4.94-1.49v-7.74a32.66 32.66 0 0 0 5.88 2.06 23.79 23.79 0 0 0 5.76.83q5.1 0 5.1-2.95a2.46 2.46 0 0 0-.68-1.8 9.79 9.79 0 0 0-2.33-1.57q-1.66-.87-4.42-2a27.79 27.79 0 0 1-5.82-3.07 8.64 8.64 0 0 1-2.7-3.24 10.69 10.69 0 0 1-.84-4.5 8.16 8.16 0 0 1 3.55-7.08q3.55-2.5 10.06-2.5a28.55 28.55 0 0 1 12.07 2.7l-2.79 6.78q-2.58-1.11-4.82-1.81a15.13 15.13 0 0 0-4.58-.71q-4.15 0-4.14 2.24a2.63 2.63 0 0 0 1.34 2.18 36.32 36.32 0 0 0 5.85 2.73 27.26 27.26 0 0 1 5.9 3 9 9 0 0 1 2.76 3.26 10 10 0 0 1 .89 4.39M13.79 182.35a11.57 11.57 0 0 1-9.86-4.88Q.35 172.6.35 163.96T4 150.31a11.85 11.85 0 0 1 10.05-4.89 11.62 11.62 0 0 1 10.26 5.23h.3a39.77 39.77 0 0 1-.73-7.1v-11.42h9.73v49.58h-7.42l-1.88-4.62h-.41q-3.29 5.26-10.11 5.26m3.41-7.74q3.73 0 5.46-2.17t1.9-7.36v-1.05q0-5.73-1.77-8.22t-5.75-2.49a5.7 5.7 0 0 0-5.05 2.76q-1.8 2.76-1.8 8t1.82 7.89a5.93 5.93 0 0 0 5.19 2.63M51.61 135.13l.45.7a97.72 97.72 0 0 1-5.61 15.26h-7q2.2-9.43 3.19-16zM57.54 136.88q0-4.75 5.29-4.75t5.29 4.75a4.63 4.63 0 0 1-1.32 3.52 5.56 5.56 0 0 1-4 1.26q-5.29 0-5.29-4.78m10.13 44.83h-9.69v-35.62h9.72zM110.75 181.71h-9.72V160.9a10 10 0 0 0-1.37-5.78 5 5 0 0 0-4.37-1.93q-4.08 0-5.9 2.72t-1.82 9v16.76h-9.7v-35.58h7.42l1.32 4.55h.54a10.27 10.27 0 0 1 4.48-3.9 15.25 15.25 0 0 1 6.48-1.32q6.21 0 9.43 3.36t3.22 9.7zM135.76 174.6a21.06 21.06 0 0 0 6.12-1.11v7.23a21.82 21.82 0 0 1-8.92 1.63q-5.83 0-8.49-2.95t-2.66-8.84v-17.18h-4.65v-4.13l5.35-3.25 2.8-7.52h6.21v7.58h10v7.3h-10v17.18a3.79 3.79 0 0 0 1.16 3.06 4.59 4.59 0 0 0 3.08 1M165.21 182.35q-8.6 0-13.45-4.75t-4.84-13.45q0-9 4.48-13.84t12.38-4.89q7.55 0 11.76 4.3t4.21 11.88v4.72h-23a9.35 9.35 0 0 0 2.45 6.47 8.63 8.63 0 0 0 6.44 2.33 26.67 26.67 0 0 0 6.09-.67 30.52 30.52 0 0 0 6-2.13v7.52a22.87 22.87 0 0 1-5.45 1.9 34.37 34.37 0 0 1-7.07.62m-1.37-30a6.16 6.16 0 0 0-4.84 2 9.07 9.07 0 0 0-2 5.56h13.61a8.1 8.1 0 0 0-1.88-5.56 6.37 6.37 0 0 0-4.91-2M207.52 145.42a15.68 15.68 0 0 1 3.28.29l-.73 9.11a11.15 11.15 0 0 0-2.87-.32 10.31 10.31 0 0 0-7.25 2.39 8.64 8.64 0 0 0-2.6 6.69v18.13h-9.74v-35.62h7.36l1.43 6h.48a13.39 13.39 0 0 1 4.48-4.83 11 11 0 0 1 6.13-1.83M250.15 181.71h-9.72V160.9a10 10 0 0 0-1.37-5.78 5 5 0 0 0-4.37-1.93q-4.08 0-5.9 2.72t-1.82 9v16.76h-9.72v-35.58h7.42l1.31 4.56h.54a10.27 10.27 0 0 1 4.48-3.9 15.25 15.25 0 0 1 6.48-1.32q6.21 0 9.43 3.36t3.22 9.7zM276.28 182.35q-8.6 0-13.45-4.75t-4.84-13.45q0-9 4.48-13.84t12.38-4.89q7.55 0 11.76 4.3t4.21 11.88v4.72h-23a9.35 9.35 0 0 0 2.45 6.47 8.63 8.63 0 0 0 6.44 2.33 26.67 26.67 0 0 0 6.09-.67 30.52 30.52 0 0 0 6-2.13v7.52a22.87 22.87 0 0 1-5.45 1.9 34.37 34.37 0 0 1-7.07.62m-1.37-30a6.16 6.16 0 0 0-4.84 2 9.07 9.07 0 0 0-2 5.56h13.64a8.1 8.1 0 0 0-1.88-5.56 6.37 6.37 0 0 0-4.91-2M313.72 174.6a21.06 21.06 0 0 0 6.12-1.11v7.23a21.82 21.82 0 0 1-8.92 1.63q-5.83 0-8.49-2.95t-2.66-8.84v-17.18h-4.65v-4.13l5.35-3.25 2.8-7.52h6.21v7.58h10v7.3h-10v17.18a3.79 3.79 0 0 0 1.16 3.06 4.59 4.59 0 0 0 3.08 1M81.07 111.54L69.37 6.44A7.18 7.18 0 0 0 61.42.05L6.61 6.15a7.34 7.34 0 0 0-6.54 8l11.68 105.1a7.34 7.34 0 0 0 8.14 6.37l54.84-6.11a7.17 7.17 0 0 0 6.35-8M28.18 7.42l11.91-1.3c1.1-.12 2 .3 2.16 1.4s-.71 1.73-1.81 1.83l-11.91 1.3c-1.1.12-2-.3-2.16-1.4s.71-1.71 1.81-1.83m18.59 107.83a5.46 5.46 0 1 1 4.84-6 5.47 5.47 0 0 1-4.83 6M17.46 103.5l-9.69-87 54.58-6.08 9.69 87zM88.23 105.25l41.15-33.7c15.36-12.72 21.37-19.43 21.37-29.67 0-10.42-6.89-16.07-16.6-16.07-9.54 0-16.07 5.3-25.25 16.6L89.82 27.05c12.18-16.6 24-25.61 46.09-25.61 25.61 0 42.56 15 42.56 38.15v.35c0 20.66-10.6 30.91-32.5 47.86l-20.13 15.54h53.87v23.49H88.23z"/></symbol><symbol id="shape-icon-wifi" viewBox="0 0 26 26"><circle cx="13.628" cy="18.388" r="2.426"/><path d="M19.426 12.543c-.036-.037-.074-.07-.11-.104l-.11-.104c-.018-.02-.038-.033-.06-.05-3.138-2.85-7.94-2.738-10.933.256l-.35.352-.487.486c-.592.592-.59 1.557.004 2.15.594.595 1.56.596 2.15.004l.838-.838c1.904-1.903 5-1.903 6.904 0l.605.585c.586.587 1.542.586 2.13-.004.286-.284.443-.663.444-1.066.002-.4-.153-.78-.438-1.063l-.586-.604z"/><path d="M23.56 9.544l-.505-.504c-.002-.002-.003-.005-.007-.006l-.398-.4c-.07-.07-.146-.13-.226-.18-5.113-4.49-12.89-4.352-17.84.41-.024.022-.05.037-.075.06l-.91.912c-.54.54-.538 1.416.005 1.96.542.54 1.42.545 1.96.004l.91-.91.016-.02c4.004-3.866 10.354-3.89 14.39-.078l.715.717c.54.538 1.418.536 1.96-.006.54-.543.543-1.42.004-1.96z"/></symbol><symbol id="shape-icon-world-internet" viewBox="14.616 0 391.932 423.749"><path d="M261.548 131.16c-79.953 0-145 65.048-145 145 0 30.915 9.73 59.597 26.282 83.154-26.084-2.333-48.082-9.028-65.455-19.98-19.626-12.368-31.68-31.82-33.07-53.372-2.41-37.276 22.57-71.647 37.677-88.82 11.938-13.57 25.177-26.134 39.343-37.34 11.896-9.412 24.43-17.75 39.586-27.374.63-.4.87-1.202.563-1.882-.306-.68-1.062-1.03-1.783-.826-32.11 9.262-61.856 24.775-86.02 44.863-26.784 22.264-45.707 49.66-54.724 79.22-7.02 23.024-5.448 47.99 4.314 68.495 13.866 29.12 43.48 49.945 81.253 57.135 11.328 2.156 23.075 3.25 34.915 3.25 7.465 0 14.97-.436 22.484-1.273 26 24.627 61.083 39.754 99.636 39.754 79.953 0 145-65.047 145-145 0-79.956-65.047-145.003-145-145.003zm110.056 107.433c-5.604-3.66-12.105-7.02-19.48-10.014-7.227-2.938-15.133-5.48-23.56-7.605-3.06-13.402-7.245-25.804-12.466-36.69-2.602-5.428-5.41-10.382-8.412-14.855 29.883 12.966 53.295 38.124 63.918 69.163zm-38.228 12.795c2.858.95 5.612 1.964 8.254 3.037 18.407 7.478 26.647 16.306 26.647 21.736s-8.24 14.26-26.647 21.735c-2.642 1.07-5.396 2.086-8.254 3.036.763-8.092 1.15-16.378 1.15-24.77.002-8.395-.388-16.68-1.15-24.772zm-99.06-54.013c8.023-16.746 18.203-26.744 27.23-26.744 9.026 0 19.205 10 27.23 26.745 2.605 5.44 4.903 11.377 6.88 17.71-10.995-1.246-22.444-1.89-34.11-1.89-11.664 0-23.113.644-34.11 1.89 1.977-6.333 4.274-12.27 6.88-17.71zM151.49 313.73c5.602 3.66 12.104 7.02 19.478 10.016 7.226 2.934 15.133 5.476 23.562 7.604 3.058 13.404 7.244 25.805 12.465 36.693 2.6 5.426 5.413 10.38 8.413 14.854-29.883-12.972-53.293-38.128-63.918-69.168zm38.23-12.795c-2.858-.95-5.613-1.965-8.254-3.036-18.407-7.48-26.647-16.307-26.647-21.736 0-5.432 8.24-14.26 26.646-21.736 2.64-1.07 5.396-2.086 8.253-3.036-.76 8.093-1.15 16.377-1.15 24.772-.003 8.392.388 16.68 1.15 24.77zm17.274-116.653c-5.22 10.89-9.407 23.29-12.465 36.69-8.43 2.13-16.338 4.672-23.563 7.605-7.373 2.993-13.876 6.354-19.48 10.014 10.625-31.04 34.036-56.194 63.918-69.163-3 4.473-5.81 9.427-8.41 14.855zm81.782 170.664c-8.022 16.746-18.203 26.74-27.23 26.74-9.025 0-19.204-9.994-27.228-26.74-2.607-5.44-4.904-11.38-6.882-17.712 10.996 1.246 22.444 1.89 34.11 1.89 11.664 0 23.115-.644 34.11-1.89-1.973 6.333-4.27 12.27-6.88 17.712zm13.26-46.676c-12.714 1.94-26.382 2.96-40.488 2.96s-27.774-1.02-40.49-2.96c-1.44-10.255-2.187-21.043-2.187-32.106 0-11.065.75-21.855 2.19-32.11 12.714-1.938 26.382-2.958 40.488-2.958s27.774 1.02 40.49 2.96c1.44 10.253 2.188 21.043 2.188 32.108.002 11.063-.747 21.852-2.19 32.106zm5.652 74.624c3-4.473 5.812-9.428 8.412-14.854 5.22-10.892 9.405-23.29 12.465-36.693 8.43-2.128 16.336-4.67 23.562-7.604 7.37-2.996 13.875-6.354 19.48-10.017-10.626 31.043-34.038 56.2-63.92 69.168z"/><path d="M173.966 115.304l-6.3 4.104c-.007.004-.017.007-.02.013-2.43 1.595-3.23 4.787-1.835 7.337 1.4 2.56 4.53 3.61 7.19 2.41l74.925-33.748-12.08 25.17c-.875 1.827-.427 4.02 1.102 5.353 1.526 1.336 3.755 1.488 5.45.375l14.403-9.463c.41-.27.776-.608 1.08-1l40.242-51.683 52.643-34.71C370.66 15.95 367.33 7.474 365.835 5.198c-1.158-1.767-3.58-4.043-8.525-4.87-5.02-.844-11.6-.063-20.117 2.387-2.844.818-4.447.938-6.146 1.063-5.97.446-9.968 1.26-28.946 13.73l-103.82 68.21-44.78-17.716c-1.69-.67-3.598-.472-5.116.525l-6.784 4.456c-1.396.917-2.308 2.413-2.482 4.075-.177 1.66.4 3.314 1.573 4.504l33.276 33.742z"/></symbol></svg>