<svg xmlns="http://www.w3.org/2000/svg"><symbol id="shape-icon-add" viewBox="0 0 24 24"><path d="M18 10h-4V6c0-1.104-.896-2-2-2s-2 .896-2 2l.07 4H6c-1.104 0-2 .896-2 2s.896 2 2 2l4.07-.07L10 18c0 1.104.896 2 2 2s2-.896 2-2v-4.07l4 .07c1.104 0 2-.896 2-2s-.896-2-2-2z"/></symbol><symbol id="shape-icon-arrow-d" viewBox="0 0 64 64"><path d="M5.85 14.572l-4.032 3.934 30.22 30.978 30.085-31.11-4.05-3.916L32.02 41.395"/></symbol><symbol id="shape-icon-arrow-u" viewBox="0 0 64 64"><path d="M58.092 49.37l4.03-3.933-30.218-30.98-30.086 31.11 4.05 3.917L31.92 22.548"/></symbol><symbol id="shape-icon-check" viewBox="0 0 512 512"><path d="M432 64L192 304 80 192 0 272l192 192 320-320-80-80z"/></symbol><symbol id="shape-icon-honor" viewBox="0 0 675.6 237.9"><path fill="#28b5e4" d="M42.4 76.9h-6.5c-8.4 0-15.3-2.6-20.6-7.8-5.7-5.9-8.5-13-8.5-21.5V12c0-2.6 1-4.8 2.8-6.7 1.9-1.9 4.1-2.9 6.7-2.9 2.7 0 5.1 1 6.9 2.9C25.1 7.2 26 9.4 26 12v35.7c0 1.9.4 3.9 1.2 5.9 1.5 2.6 4.2 3.9 8 3.9h65c8.4 0 15.3 2.6 20.6 7.8 5.7 5.8 8.5 13 8.5 21.5V155c0 2.6-.9 4.8-2.8 6.7-1.9 1.9-4.1 2.8-6.7 2.8-2.8 0-5.1-1-7-2.8-1.9-1.9-2.8-4.2-2.8-6.7V86.7c0-1.9-.4-3.9-1.1-5.9-1.6-2.6-4.2-3.9-8-3.9H42.4zM26.1 125.8V155c0 2.6-.9 4.8-2.8 6.7-1.9 1.9-4.1 2.8-6.7 2.8-2.7 0-5-.9-6.9-2.8-1.9-1.9-2.8-4.2-2.8-6.7V98.5c0-2.6 1-4.8 2.8-6.7 1.9-1.9 4.1-2.8 6.7-2.8 2.8 0 5.1 1 7 2.8 1.9 1.9 2.8 4.1 2.8 6.7v27.3zM646.9 76.9h12.3c2.6 0 4.8-.9 6.7-2.9 1.9-1.9 2.8-4.2 2.8-7 0-2.6-.9-4.8-2.8-6.7-1.9-1.9-4.1-2.8-6.7-2.8h-56.7c-8.4 0-15.4 2.7-20.9 8-5.5 5.4-8.2 12.4-8.2 21.2V155c0 2.6 1 4.9 2.8 6.7 1.9 1.9 4.2 2.8 7 2.8 2.6 0 4.8-.9 6.7-2.8 1.9-1.9 2.8-4.1 2.8-6.7V86.7c0-6.5 3.2-9.8 9.5-9.8h44.7zM313.6 129.6V155c0 2.6-1 4.8-2.8 6.7-1.9 1.9-4.2 2.9-6.7 2.9-2.7 0-5-.9-6.9-2.9-1.9-1.9-2.8-4.1-2.8-6.7V98.5c0-2.6 1-4.8 2.8-6.8 1.9-1.9 4.1-2.8 6.7-2.8 2.8 0 5.1 1 7 2.8 1.9 1.9 2.8 4.1 2.8 6.8v31.1zM316.2 76.9h-12.4c-2.6 0-4.8-.9-6.7-2.9-1.9-1.9-2.8-4.2-2.8-7 0-2.6 1-4.8 2.8-6.7 1.9-1.9 4.1-2.8 6.7-2.8h75.4c8.4 0 15.4 2.7 20.8 8 5.5 5.4 8.2 12.4 8.2 21.2V155c0 2.6-1 4.8-2.8 6.7-1.9 1.9-4.2 2.8-7 2.8-2.6 0-4.8-1-6.7-2.8-1.9-1.9-2.8-4.2-2.8-6.7V86.7c0-6.5-3.2-9.8-9.5-9.8h-63.2zM169.5 124.7V136c0 3.8 1.3 6.5 3.9 8 2.1.8 4 1.2 5.9 1.2h65.4c4 0 6.7-1.3 8.3-3.9.8-2.1 1.1-4 1.1-5.9V86.1c0-3.8-1.3-6.5-3.9-8.1-2-.8-4-1.1-5.9-1.1h-65.7c-3.8 0-6.5 1.3-8 3.9-.8 2.1-1.2 4.1-1.2 5.9V136v-11.3h.1zm18 39.9h-8.2c-8.4 0-15.5-2.9-21.4-8.5-5.2-5.3-7.7-12.2-7.7-20.7V86.7c0-7.4 2.1-13.8 6.4-19.1 5.3-6.7 12.8-10.1 22.4-10.1H244.4c8.4 0 15.6 2.8 21.4 8.5 5.1 5.3 7.7 12.2 7.7 20.7V135.6c0 7.3-2.1 13.6-6.4 18.9-5.5 6.7-13 10.1-22.6 10.1h-65.1 8.1zM448.6 124.7V136c0 3.8 1.3 6.5 3.9 8 2 .8 4 1.2 5.9 1.2h65.4c4 0 6.7-1.3 8.3-3.9.8-2.1 1.1-4 1.1-5.9V86.1c0-3.8-1.3-6.5-3.9-8.1-2-.8-4.1-1.1-5.9-1.1h-65.8c-3.8 0-6.5 1.3-8 3.9-.8 2.1-1.1 4.1-1.1 5.9V136v-11.3h.1zm18 39.9h-8.2c-8.4 0-15.5-2.9-21.4-8.5-5.1-5.3-7.7-12.2-7.7-20.7V86.7c0-7.4 2.1-13.8 6.5-19.1 5.3-6.7 12.8-10.1 22.4-10.1h65.4c8.4 0 15.5 2.8 21.4 8.5 5.1 5.3 7.7 12.2 7.7 20.7V135.6c0 7.3-2.1 13.6-6.4 18.9-5.5 6.7-13 10.1-22.6 10.1h-65.1 8z"/><g fill="#28b5e4"><path d="M20.9 209.3v5.5h-8v20.7H6.8V190h15.1v5.5h-9v13.8h8zM36.2 235.5c-4.9 0-7.4-2.6-7.4-7.7v-30c0-5.2 2.4-7.8 7.3-7.8H42c4.9 0 7.3 2.6 7.3 7.8v30c0 5.2-2.5 7.7-7.4 7.7h-5.7zm1.5-5.5h3.1c1.6 0 2.4-.9 2.4-2.7v-29.2c0-1.8-.9-2.7-2.7-2.7h-2.9c-1.8 0-2.7.9-2.7 2.7v29.2c.1 1.8 1 2.7 2.8 2.7zM57.8 190h11.9c4.7 0 7 2.6 7 7.8V209c0 4-1.2 6.5-3.6 7.5l4.2 19h-5.8l-4-18.4h-3.7v18.4h-6.1V190zm6.1 21.9h4c1.8 0 2.7-1.1 2.7-3.3v-9.8c0-2.2-.9-3.3-2.7-3.3h-4v16.4zM108 195.5v40h-6.1v-40h-5.8V190h17.8v5.5H108zM134.1 235.5v-20.7h-7.5v20.7h-6.1V190h6.1v19.3h7.5V190h6.1v45.5h-6.1zM149 235.5V190h15.1v5.5h-9v13.8h8v5.5h-8V230h9v5.5H149zM199.1 212.1c3.3.9 5 2.7 5 5.2v11.4c0 4.5-2.3 6.8-6.9 6.8H185V190h10.4c5.4 0 8.1 2.7 8.1 8.2v8.8c0 2.6-1.5 4.2-4.4 4.8v.3zm-8-2.9h2.9c2.3 0 3.5-1.1 3.5-3.3v-7.1c0-2.2-.9-3.3-2.7-3.3h-3.6v13.7zm0 20.8h4.6c1.6 0 2.4-.7 2.4-2v-10.1c0-2.2-1.2-3.2-3.6-3.2h-3.4V230zM212.4 190h11.9c4.7 0 7 2.6 7 7.8V209c0 4-1.2 6.5-3.6 7.5l4.2 19h-5.8l-4-18.4h-3.7v18.4h-6.1V190zm6.1 21.9h4c1.8 0 2.7-1.1 2.7-3.3v-9.8c0-2.2-.9-3.3-2.7-3.3h-4v16.4zM245.3 235.5h-6.1v-37.7c0-5.2 2.4-7.8 7.3-7.8h4.6c4.9 0 7.3 2.6 7.3 7.8v37.7h-6.1v-16.7h-7v16.7zm7-22.2v-15.2c0-1.8-.9-2.7-2.7-2.7H248c-1.8 0-2.7.9-2.7 2.7v15.2h7zM286.6 190l-7.4 45.5H272l-7.4-45.5h6l4.9 34.8 4.9-34.8h6.2zM293.3 235.5V190h15.1v5.5h-9v13.8h8v5.5h-8V230h9v5.5h-15.1z"/></g></symbol><symbol id="shape-icon-international" viewBox="0 0 31 31"><title>icon-international@1x</title><path d="M27.102 20.605c-1.61.526-3.24.945-4.893 1.248.496-1.92.79-4.07.824-6.35h5.104c-.05 1.806-.41 3.53-1.036 5.102zm-8.285 7.888c1.295-1.286 2.377-3.266 3.125-5.69 1.578-.275 3.135-.648 4.678-1.113-1.634 3.286-4.438 5.774-7.803 6.803zm-3.005.48v-5.61c1.607-.016 3.206-.133 4.795-.35-1.073 3.363-2.804 5.657-4.795 5.96zm0-13.47h5.938c-.036 2.393-.348 4.635-.87 6.574-1.68.245-3.37.376-5.068.396v-6.97zm0-7.865c1.7.02 3.39.15 5.07.397.52 1.943.832 4.183.868 6.578h-5.938V7.638zm0-6.497c1.99.306 3.722 2.6 4.795 5.96-1.59-.217-3.188-.328-4.795-.348v-5.61zM26.62 8.42c-1.543-.467-3.1-.837-4.678-1.106-.748-2.425-1.83-4.41-3.125-5.692 3.365 1.028 6.17 3.517 7.803 6.8zm1.518 6.193h-5.104c-.033-2.284-.328-4.434-.825-6.355 1.65.308 3.283.727 4.892 1.253.627 1.572.985 3.294 1.036 5.103zm-13.23-7.86c-1.602.02-3.207.13-4.795.347 1.072-3.36 2.805-5.654 4.794-5.96v5.612zm0 7.86H8.973c.036-2.395.344-4.635.866-6.578 1.68-.247 3.372-.376 5.067-.397v6.975zm0 7.86c-1.696-.02-3.388-.15-5.068-.396-.522-1.94-.83-4.18-.866-6.575h5.933v6.97zm0 6.5c-1.99-.303-3.723-2.597-4.795-5.96 1.588.217 3.193.334 4.794.35v5.61zM4.102 21.69c1.54.465 3.103.838 4.68 1.114.744 2.423 1.823 4.403 3.12 5.69-3.36-1.03-6.17-3.518-7.8-6.804zm-1.517-6.188H7.69c.034 2.282.326 4.432.822 6.35-1.652-.302-3.284-.72-4.89-1.247-.625-1.572-.983-3.296-1.036-5.103zm1.037-5.99c1.605-.527 3.237-.946 4.89-1.254-.497 1.92-.79 4.07-.823 6.355H2.586c.053-1.81.41-3.53 1.037-5.102zm8.28-7.89c-1.297 1.282-2.376 3.267-3.12 5.692-1.577.27-3.14.64-4.68 1.107 1.63-3.28 4.44-5.77 7.8-6.798zM15.362 0C6.877 0 0 6.74 0 15.06c0 8.315 6.876 15.056 15.36 15.056 8.484 0 15.36-6.74 15.36-15.057C30.72 6.74 23.845 0 15.36 0z" fill-rule="evenodd"/></symbol><symbol id="shape-icon-phone" viewBox="0 0 31 31"><title>icon-phone@1x</title><path d="M30.347 25.218l-6.612-4.575c-.305-.305-.803-.305-1.108.002l-1.604 1.6c-1.652 1.654-6.85-2.467-8.537-4.154-1.685-1.684-5.808-6.88-4.155-8.535l1.604-1.603c.305-.306.305-.803 0-1.11L5.36.23c-.305-.307-.8-.307-1.108 0L1.12 2.344c-1.365 1.368-3.687 6.2 8.614 18.5 12.3 12.3 17.134 9.98 18.5 8.614h.002l2.11-3.132c.308-.307.308-.804 0-1.108" fill-rule="evenodd"/></symbol><symbol id="shape-icon-sms" viewBox="0 0 32 23"><title>icon-sms@1x</title><path d="M0 10.314c0 5.696 7.02 10.313 15.685 10.313 1.274 0 2.503-.11 3.69-.3.862 1.38 2.958 1.99 4.83 2.18h2.515c.927-.12 1.317-.37.572-.613-1.348-.44-2.137-1.92-2.576-3.158 3.797-1.763 6.357-4.6 6.63-7.845V9.737C30.89 4.308 24.053 0 15.686 0 7.02 0 0 4.618 0 10.314" fill-rule="evenodd"/></symbol><symbol id="shape-icon-upload-download" viewBox="0 0 34 35"><title>icon-uploaddownload@1x</title><g fill-rule="evenodd"><path d="M18.826 32.65l.366 1.712.317-.07-.362-1.71-.322.068M17.233 32.886l.185 1.74.32-.035-.178-1.738-.327.034M17.233 2.107l.327.033.177-1.738-.32-.034-.184 1.74M29.91 23.676l1.595.712-.13.297-1.597-.71.133-.3M28.332 26.48l1.413 1.024-.19.268-1.417-1.028.194-.265M20.387 32.25l.544 1.665.305-.102-.54-1.664-.308.1M31.07 19.34l1.74.18.033-.322-1.738-.182-.034.323M30.802 20.927l1.713.363.065-.317-1.71-.365-.068.32M22.903 33.155l-.293.132-.713-1.596.297-.133.71 1.598M27.33 27.743l1.296 1.17-.215.24-1.3-1.17.22-.24M25.99 31.333l-.263.192-1.03-1.414.267-.19 1.025 1.413M26.206 28.893l1.166 1.297-.24.22-1.172-1.3.246-.217M30.802 14.21l.068.32 1.71-.365-.065-.318-1.713.363M27.112 7.152l1.3-1.17.218.244-1.297 1.168-.22-.242M18.826 2.486l.322.07.363-1.712-.318-.068-.366 1.71M30.37 12.66l.102.31 1.662-.542-.103-.31-1.66.54M28.14 8.393l1.412-1.026.194.26-1.417 1.03-.19-.264M25.96 6.025l1.172-1.296.242.214-1.168 1.3-.246-.22M24.698 5.025l1.028-1.412.267.19-1.03 1.416-.265-.195M20.387 2.885l.31.104.54-1.667-.31-.1-.54 1.662M21.897 3.446l.71-1.596.3.13-.71 1.6-.3-.134M29.778 11.162l1.595-.712.134.298-1.596.71-.132-.296M13.835 34.59l.324.035.184-1.74-.325-.033-.185 1.738M31.07 15.8l.035.324 1.74-.184-.036-.324-1.74.183M12.07 34.294l.317.068.365-1.71-.32-.072-.363 1.714M10.34 33.813l.31.102.54-1.664-.31-.1-.54 1.663M9.683 31.69l-.713 1.597-.3-.133.714-1.596.3.133M6.88 30.113l-1.028 1.412-.265-.192 1.027-1.414.266.193M5.617 29.113l-1.17 1.296-.243-.22 1.17-1.298.243.22M4.465 27.985l-1.298 1.168-.22-.24 1.3-1.17.218.242M3.44 26.744L2.025 27.77l-.192-.26 1.416-1.03.19.264M30.43 22.433l1.66.54.104-.31-1.664-.54-.1.31M15.79 4.054c-.28 0-.51-.163-.51-.365V.392c0-.202.23-.365.51-.365s.508.163.508.365V3.69c0 .2-.227.364-.508.364M4.06 24.025c.158.232.153.51-.01.62L1.37 26.47c-.164.11-.426.012-.584-.22-.158-.232-.152-.51.012-.623l2.677-1.82c.165-.112.424-.015.583.218M15.79 34.935c-.28 0-.51-.163-.51-.364v-3.275c0-.2.23-.364.51-.364s.508.164.508.365v3.276c0 .202-.227.365-.508.365M29.16 17.642c0-.282.163-.51.366-.51h3.31c.202 0 .368.228.368.51 0 .28-.166.508-.368.508h-3.31c-.203 0-.367-.228-.367-.508M27.923 24.6c.147-.24.39-.357.543-.265l2.487 1.53c.153.093.157.363.01.6-.148.242-.39.36-.542.266l-2.487-1.527c-.152-.094-.157-.365-.01-.603M22.734 29.175c.255-.12.523-.09.6.074l1.28 2.648c.078.163-.063.394-.316.516-.254.122-.522.09-.6-.073l-1.28-2.65c-.077-.162.064-.393.316-.515M27.49 10.678c-.13-.25-.094-.523.075-.61l2.772-1.42c.17-.088.412.043.54.293.13.25.095.525-.075.613l-2.774 1.42c-.17.087-.412-.045-.54-.295M7.273 32.54c-.243-.14-.356-.397-.255-.573l1.665-2.857c.1-.175.38-.202.624-.06.243.14.356.397.255.572L7.898 32.48c-.102.175-.382.202-.625.06M22.265 5.852c-.23-.164-.32-.43-.204-.59l1.9-2.635c.116-.162.394-.16.623.005.23.164.32.43.202.59l-1.897 2.635c-.118.162-.396.16-.623-.005M8.75 8.534c-.075 0-.148.03-.202.088l-4.364 4.466c-.054.056-.084.13-.084.207l.048 4.17c0 .12.073.223.183.267.108.043.232.017.315-.067l2.418-2.476.06 5.18c.003.162.136.292.294.29l2.945-.034c.16 0 .288-.133.286-.294l-.06-5.184 2.475 2.42c.085.083.21.106.32.06.105-.045.176-.152.176-.27l-.05-4.168c0-.08-.03-.15-.087-.207L8.958 8.617c-.054-.053-.127-.083-.2-.083H8.75M21.145 12.79l-2.942.084c-.16.004-.286.138-.282.3l.145 5.18-2.513-2.38c-.086-.08-.21-.1-.32-.052-.106.047-.174.155-.17.272l.117 4.17c0 .077.034.15.09.2l4.536 4.295c.056.052.13.08.207.076.078-.002.15-.032.205-.088l4.29-4.54c.052-.057.08-.13.08-.21l-.118-4.168c-.004-.116-.078-.222-.188-.262-.11-.044-.234-.014-.316.072l-2.377 2.515-.148-5.18c-.004-.158-.13-.285-.29-.285h-.007"/></g></symbol></svg>