<svg xmlns="http://www.w3.org/2000/svg"><symbol id="shape-icon-4g-plus" viewBox="0 0 200 145"><path d="M170.718 51.485l2.386-16.697c.114-1.135 1.25-2.043 2.272-2.043h8.747c1.02 0 1.702.908 1.59 2.043l-2.385 16.697h14.426c1.02 0 1.702 1.022 1.59 2.16l-1.14 7.95c-.11 1.136-1.133 2.158-2.155 2.158h-14.427l-2.27 16.583c-.228 1.137-1.252 2.046-2.273 2.046h-8.747c-1.02 0-1.816-.91-1.587-2.046l2.27-16.583H154.59c-1.02 0-1.702-1.022-1.59-2.158l1.136-7.95c.115-1.138 1.137-2.16 2.16-2.16M.7 97.65l1.555-11.738 53.75-61.958c.424-.567.99-.848 2.122-.848h8.204c1.275 0 2.265 1.13 1.982 2.686L59.965 86.05h10.043c1.415 0 2.264 1.132 2.12 2.547l-1.27 8.77c-.142 1.416-1.414 2.69-2.83 2.69H57.986L55.58 118.16c-.28 1.413-1.554 2.688-2.828 2.688H40.445c-1.272 0-2.262-1.274-2.12-2.688l2.545-17.823H2.68c-1.415 0-2.264-1.273-1.98-2.686m42.716-12.023l4.95-31.26-27.016 31.26h22.066z"/><path d="M127.436 20.42c12.73 0 22.206 4.95 29.42 13.437.85 1.132.707 2.83-.566 3.96l-7.495 7.356c-1.697 1.274-3.395 1.274-4.67 0-3.678-3.536-8.91-7.073-17.68-7.073-16.974 0-31.684 17.54-31.684 37.768 0 14.995 9.478 28.008 21.927 28.008 6.646 0 11.74-1.698 14.426-3.396l1.697-12.447h-9.053c-1.413 0-2.263-1.132-2.12-2.548l1.555-11.032c.28-1.555 1.413-2.688 2.83-2.688h25.036c1.273 0 2.12 1.273 1.98 2.688l-4.67 33.948c-.28 2.266-1.27 3.538-2.26 4.386-1.416 1.132-12.59 9.477-31.686 9.477-23.056 0-39.748-19.66-39.748-43.99 0-33.242 23.198-57.854 52.762-57.854"/></symbol><symbol id="shape-icon-4g" viewBox="0 0 200 145"><path d="M3.674 104.762l1.95-14.708L72.97 12.426c.53-.71 1.24-1.062 2.657-1.062h10.28c1.595 0 2.835 1.417 2.482 3.366l-10.46 75.5h12.586c1.77 0 2.834 1.417 2.656 3.19l-1.594 10.986c-.18 1.774-1.772 3.37-3.545 3.37H75.45l-3.013 22.685c-.354 1.77-1.95 3.37-3.544 3.37h-15.42c-1.594 0-2.834-1.6-2.657-3.37l3.19-22.332H6.156c-1.773 0-2.837-1.593-2.482-3.366m53.52-15.064L63.4 50.53 29.548 89.7h27.647zM162.47 7.997c15.946 0 27.82 6.204 36.86 16.836 1.062 1.42.886 3.546-.71 4.963l-9.394 9.215c-2.127 1.596-4.25 1.596-5.85 0-4.606-4.43-11.166-8.862-22.153-8.862-21.266 0-39.696 21.977-39.696 47.32 0 18.785 11.874 35.09 27.47 35.09 8.332 0 14.71-2.126 18.078-4.253l2.128-15.595h-11.346c-1.773 0-2.834-1.417-2.655-3.19l1.948-13.823c.354-1.95 1.77-3.368 3.542-3.368h31.372c1.596 0 2.657 1.593 2.48 3.367l-5.85 42.534c-.354 2.835-1.596 4.432-2.834 5.494-1.775 1.417-15.773 11.875-39.7 11.875-28.888 0-49.8-24.636-49.8-55.12 0-41.647 29.065-72.483 66.11-72.483"/></symbol><symbol id="shape-icon-hands-free-kit" viewBox="0 0 360 340"><g fill-rule="nonzero" fill="none"><path d="M122.6 339c-4.9 0-9.8-.4-14.7-1.2C16.5 323.1.6 242.8.4 242l6.4-1.2c.6 3.1 15.3 76.5 102.1 90.5 22.2 3.7 43.3-1.6 62.8-15.9 83.8-61.5 113.7-268.5 114-270.6l6.5.9c-1.2 8.6-30.5 211.8-116.5 274.9-16.8 12.3-34.5 18.4-53.1 18.4" fill="#454545"/><path fill="#454545" d="M270.093 84.71l11.816-51.87 25.543 5.82-11.816 51.87z"/><path d="M322.1 65.5l-50.2-11c-9.6-2.1-15.8-11.7-13.7-21.4l4.1-18.5C264.4 4.9 274-1.2 283.7.9l50.2 11c9.6 2.1 15.8 11.7 13.7 21.4l-4.1 18.5c-2.2 9.7-11.8 15.8-21.4 13.7" fill="#454545"/><path d="M319.7 70.8c-4-.9-7.8-2.5-11.3-4.8-7.3-4.9-12.3-12.4-14.1-21.1-1.7-8.7 0-17.5 4.9-24.9 4.9-7.3 12.4-12.3 21.1-14.1 17.9-3.6 35.4 8.1 38.9 26 3.6 17.9-8.1 35.4-26 38.9-4.5 1-9.1.9-13.5 0m13.7-62.6c-4-.9-8.3-1-12.6-.1-8.1 1.6-15.1 6.3-19.7 13.1-4.6 6.9-6.3 15.1-4.6 23.2 1.6 8.1 6.3 15.1 13.1 19.7 6.9 4.6 15.1 6.2 23.2 4.6 8.1-1.6 15.1-6.3 19.7-13.1 4.6-6.9 6.2-15.1 4.6-23.2C354.7 20 345 10.8 333.4 8.2" fill="#FFF"/><path d="M65.6 296.1c-21.5 0-42.9-9.6-53.9-24.6l5.3-3.9c10.9 15 33.6 23.8 55.3 21.6 23-2.4 41.5-16.7 52.1-40.3 42.5-94.9 56.4-151.4 56.5-152l6.4 1.5c-.1.6-14.1 57.6-56.9 153.1-11.6 25.8-31.9 41.5-57.4 44.1-2.5.4-5 .5-7.4.5" fill="#454545"/><path fill="#454545" d="M165.402 119.573l11.816-51.87 25.545 5.818-11.816 51.872z"/><path d="M217.3 100.4l-50.2-11c-9.6-2.1-15.8-11.7-13.7-21.4l4.1-18.5c2.1-9.7 11.7-15.8 21.4-13.7l50.2 11c9.6 2.1 15.8 11.7 13.7 21.4l-4.1 18.5c-2.2 9.7-11.8 15.8-21.4 13.7" fill="#454545"/><path d="M214.9 105.7c-4-.9-7.8-2.5-11.3-4.8-7.4-4.9-12.3-12.4-14.1-21.1-1.7-8.7 0-17.5 5-24.9 4.9-7.3 12.4-12.3 21.1-14.1 17.9-3.6 35.4 8.1 38.9 26 3.6 17.9-8.1 35.4-26 38.9-4.6 1-9.2 1-13.6 0m13.7-62.6c-4-.9-8.3-1-12.6-.1-8.1 1.6-15.1 6.3-19.7 13.1-4.6 6.9-6.2 15.1-4.6 23.2 1.6 8.1 6.3 15.1 13.1 19.7 6.9 4.6 15.1 6.2 23.2 4.6 8.1-1.6 15.1-6.3 19.7-13.1 4.6-6.9 6.2-15.1 4.6-23.2-2.4-12.4-12.1-21.6-23.7-24.2" fill="#FFF"/><path fill="#454545" d="M221.17 246.93l28.483-68.954 16.452 6.796-28.482 68.953z"/></g></symbol><symbol id="shape-icon-help" viewBox="0 0 91.999 92"><path d="M45.385.004C19.982.344-.335 21.214.005 46.62c.34 25.392 21.208 45.714 46.61 45.376 25.398-.342 45.718-21.213 45.38-46.615-.34-25.394-21.21-45.715-46.61-45.376zM45.25 74l-.255-.004c-3.912-.116-6.67-2.998-6.56-6.852.11-3.788 2.935-6.538 6.718-6.538l.227.004c4.02.12 6.748 2.972 6.635 6.937-.112 3.8-2.893 6.453-6.766 6.453zm16.454-32.66c-.92 1.308-2.943 2.93-5.492 4.917l-2.807 1.938c-1.54 1.198-2.47 2.325-2.82 3.434-.275.872-.41 1.103-.434 2.88l-.003.45H39.43l.03-.907c.13-3.728.223-5.92 1.768-7.733 2.424-2.846 7.77-6.29 7.998-6.435.766-.577 1.412-1.234 1.893-1.936 1.124-1.552 1.622-2.773 1.622-3.973 0-1.665-.494-3.205-1.47-4.576-.94-1.322-2.724-1.992-5.304-1.992-2.56 0-4.31.812-5.36 2.478-1.077 1.713-1.622 3.512-1.622 5.35v.457h-11.05l.02-.477c.284-6.77 2.7-11.643 7.177-14.487C37.946 18.917 41.446 18 45.53 18c5.346 0 9.86 1.3 13.412 3.86 3.6 2.597 5.426 6.485 5.426 11.557 0 2.837-.896 5.502-2.664 7.924z"/></symbol><symbol id="shape-icon-information" viewBox="0 0 475 475"><path d="M238 0C107 0 0 107 0 238s107 237 238 237 237-106 237-237S369 0 238 0zm0 432c-107 0-194-87-194-194S131 44 238 44s194 87 194 194-87 194-194 194z"/><path d="M270 323l-20 9 26-133c3-14-12-29-28-20l-49 27c-9 5-12 17-7 26s17 12 26 7l12-6-25 127c-2 11 7 23 19 23 3 0 6-1 8-2l53-23c10-4 14-15 10-25s-15-14-25-10zM257 143c15 0 27-12 27-27s-12-27-27-27-27 12-27 27 12 27 27 27z"/></symbol><symbol id="shape-icon-linear-promo-banner-end" viewBox="-200 166.4 98.4 69.6"><path fill="#F9DCE4" d="M-108.8 166.4h-14.5c5.5 0 8.5 4.2 6.6 9.4l-18.2 50.8c-1.9 5.2-7.9 9.4-13.4 9.4h14.5c5.5 0 11.5-4.2 13.4-9.4l18.2-50.8c1.9-5.2-1.1-9.4-6.6-9.4z"/><path fill="#F399B4" d="M-134.9 226.6l18.2-50.8c1.9-5.2-1.1-9.4-6.6-9.4h-14.5c5.5 0 8.5 4.2 6.6 9.4l-18.2 50.8c-1.9 5.2-7.9 9.4-13.4 9.4h14.5c5.5 0 11.5-4.2 13.4-9.4z"/><path fill="#E94F85" d="M-149.4 226.6l18.2-50.8c1.9-5.2-1.1-9.4-6.6-9.4h-14.5c5.5 0 8.5 4.2 6.6 9.4l-18.2 50.8c-1.9 5.2-7.9 9.4-13.4 9.4h14.5c5.5 0 11.6-4.2 13.4-9.4z"/><path fill="#C8007B" d="M-163.9 226.6l18.3-50.8c1.8-5.2-1.1-9.4-6.7-9.4H-200V236h22.7c5.6 0 11.6-4.2 13.4-9.4z"/></symbol><symbol id="shape-icon-promo-flat" viewBox="0 0 134 138"><title>forme_plate</title><path d="M.03 0L0 128.344C0 139.462 10.37 137 10.37 137s107.858-13.52 114.123-14.8c7.72-1.577 9.226-9.216 9.226-9.216V.084L.03 0z"/></symbol><symbol id="shape-icon-promo-round" viewBox="0 0 134 148"><title>forme_ronde</title><path d="M133.72 10.083C133.72-.062 124.03 0 124.03 0h-114s-10-.082-10 10L0 138.344C0 149.462 10.37 147 10.37 147s107.858-13.52 114.123-14.8c7.72-1.577 9.226-9.216 9.226-9.216v-112.9"/></symbol></svg>