<svg xmlns="http://www.w3.org/2000/svg" xmlns:xlink="http://www.w3.org/1999/xlink"><defs><path id="shape-icon-cart-a" d="M-42.875-39.94H186.77V122.13H-42.875z"/><clipPath id="shape-icon-cart-d"><use xlink:href="#shape-icon-cart-a" overflow="visible"/></clipPath><path id="shape-icon-cart-b" d="M37.978 68.577c-1.893 0-3.428 1.533-3.428 3.428 0 1.893 1.535 3.427 3.428 3.427h20.565c1.894 0 3.428-1.534 3.428-3.427 0-1.895-1.533-3.428-3.427-3.428H37.978zM11.583 71.95c0 4.727 3.845 8.57 8.57 8.57 4.723 0 8.568-3.844 8.568-8.57 0-4.726-3.844-8.568-8.568-8.568s-8.57 3.843-8.57 8.57m54.842 0c0 4.725 3.845 8.567 8.57 8.567 4.723 0 8.567-3.844 8.567-8.57 0-4.726-3.844-8.568-8.567-8.568-4.724 0-8.57 3.843-8.57 8.57M37.98 17.163h50.724l-6.855 34.274h-43.87V17.164zm-.688-6.855c-3.786 0-6.167 3.015-6.167 6.8v34.276c0 3.785 2.38 6.908 6.167 6.908h44.557c3.268 0 6.083-2.334 6.722-5.535l6.853-34.292c.405-2.014-.116-4.08-1.42-5.67-1.3-1.588-3.246-2.49-5.3-2.49H37.29zM.763 1.666c-.973 1.625-.443 3.73 1.18 4.7l15.47 9.26v39.24c0 1.893 1.534 3.427 3.427 3.427 1.894 0 3.428-1.534 3.428-3.427V13.683c0-1.205-.633-2.322-1.668-2.94L5.462.487C4.91.157 4.302 0 3.704 0c-1.166 0-2.3.595-2.94 1.667"/><clipPath id="shape-icon-cart-c"><use xlink:href="#shape-icon-cart-b" overflow="visible"/></clipPath><path id="shape-icon-mobile-insurance-a" d="M2.66 8.84h22.92v81.07H2.66z"/><path id="shape-icon-mobile-insurance-c" d="M15.98 3.18h18.43v95.05H15.98z"/><path id="shape-icon-mobile-insurance-e" d="M24.57 11H57v81H24.57z"/></defs><symbol id="shape-icon-accessories" viewBox="0 0 30 32"><title>icon-accessoires@1x</title><path d="M29.586 13.513c.094-.858.066-1.448-.04-2.334C28.685 4.094 21.393-.856 13.257.122 5.12 1.1-.777 7.638.083 14.72c.083.686.226 1.35.426 1.993l.215-.066 2.436 5.17c-.135.36-.25.737-.18.84.14.215 3.61 7.688 4.254 7.9.347.117 1.05-.202 1.63-.52l.346.662c.096.184 1.532.446 1.72.35l1.824-.85c.19-.096.727-.696.494-1.193 0 0-1.13-2.26-2.404-4.96-1.274-2.703-2.836-5.187-2.836-5.187-.322-.318-.965.036-1.153.13l-1.9.89c-.147.076-.338.84-.378 1.416l-.615-.134-2.264-4.81.582-.175c-.163-.54-.283-1.103-.353-1.68-.75-6.195 4.408-11.91 11.526-12.767C20.57.875 26.948 5.206 27.7 11.4c.083.69.05 1.864.05 1.864l.614.086-.497 4.254-.38.26c-.253-.518-.718-1.152-.885-1.168l-2.096-.108c-.212-.018-.942-.105-1.118.31 0 0-.504 2.888-.658 5.87-.156 2.98-.344 5.496-.344 5.496-.026.55.7.902.908.92l2.015.102c.21.017 1.44-.764 1.46-.973l.065-.74c.66.075 1.433.103 1.712-.133.513-.44.888-8.663.938-8.916.028-.14-.31-.528-.613-.843l.49-4.197.224.03" fill-rule="evenodd"/></symbol><symbol id="shape-icon-add" viewBox="0 0 455 455"><path d="M455 212.5H242.5V0h-30v212.5H0v30h212.5V455h30V242.5H455"/></symbol><symbol id="shape-icon-arrow-r" viewBox="0 0 35 60.3"><path d="M.1 56.3l3.9 4 31-30.2L3.9 0 0 4.1l26.9 26"/></symbol><symbol id="shape-icon-barcode" viewBox="0 0 357 357"><path d="M32.18 7.576H3.5c-1.933 0-3.5 1.567-3.5 3.5v334.597c0 1.933 1.567 3.5 3.5 3.5h28.68c1.933 0 3.5-1.567 3.5-3.5V11.076c0-1.933-1.568-3.5-3.5-3.5zM67.233 290.575h14.34c1.932 0 3.5-1.567 3.5-3.5v-276c0-1.932-1.568-3.5-3.5-3.5h-14.34c-1.933 0-3.5 1.568-3.5 3.5v276c0 1.933 1.568 3.5 3.5 3.5zM121.406 290.575h18.588c1.933 0 3.5-1.567 3.5-3.5v-276c0-1.932-1.567-3.5-3.5-3.5h-18.588c-1.933 0-3.5 1.568-3.5 3.5v276c0 1.933 1.568 3.5 3.5 3.5zM170.8 290.575h18.057c1.933 0 3.5-1.567 3.5-3.5v-276c0-1.932-1.567-3.5-3.5-3.5H170.8c-1.933 0-3.5 1.568-3.5 3.5v276c0 1.933 1.567 3.5 3.5 3.5zM220.192 290.575h28.68c1.933 0 3.5-1.567 3.5-3.5v-276c0-1.932-1.567-3.5-3.5-3.5h-28.68c-1.933 0-3.5 1.568-3.5 3.5v276c0 1.933 1.568 3.5 3.5 3.5zM279.146 290.575h19.12c1.932 0 3.5-1.567 3.5-3.5v-276c0-1.932-1.568-3.5-3.5-3.5h-19.12c-1.933 0-3.5 1.568-3.5 3.5v276c0 1.933 1.567 3.5 3.5 3.5zM353.5 7.576h-28.68c-1.933 0-3.5 1.567-3.5 3.5v334.597c0 1.933 1.567 3.5 3.5 3.5h28.68c1.933 0 3.5-1.567 3.5-3.5V11.076c0-1.933-1.567-3.5-3.5-3.5zM69.755 305.815c-11.245 0-17.69 7.937-17.69 21.776 0 13.876 6.445 21.834 17.69 21.834 11.28 0 17.75-7.957 17.75-21.833 0-13.838-6.47-21.775-17.75-21.775zm0 37.98c-8.006 0-12.064-5.452-12.064-16.204 0-10.714 4.06-16.147 12.065-16.147 8.045 0 12.123 5.433 12.123 16.148 0 6.053-1.577 16.205-12.123 16.205zM98.89 305.815h-8.61c-1.494 0-2.705 1.212-2.705 2.706v.217c0 1.494 1.21 2.706 2.705 2.706h5.684v35.274c0 1.496 1.213 2.707 2.705 2.707h.22c1.49 0 2.704-1.21 2.704-2.707V308.52c0-1.493-1.213-2.705-2.705-2.705zM123.496 327.574H112.26c-1.497 0-2.706 1.212-2.706 2.707v.218c0 1.495 1.21 2.707 2.705 2.707h11.236c1.494 0 2.705-1.212 2.705-2.707v-.217c0-1.494-1.21-2.706-2.704-2.706zM145.65 305.815c-11.243 0-17.69 7.937-17.69 21.776 0 13.876 6.447 21.834 17.69 21.834 11.28 0 17.75-7.957 17.75-21.833 0-13.838-6.468-21.775-17.75-21.775zm0 37.98c-8.004 0-12.062-5.452-12.062-16.204 0-10.714 4.06-16.147 12.063-16.147 8.046 0 12.124 5.433 12.124 16.148 0 6.053-1.576 16.205-12.123 16.205zM174.78 305.815h-8.604c-1.494 0-2.705 1.212-2.705 2.706v.217c0 1.494 1.212 2.706 2.706 2.706h5.685v35.274c0 1.496 1.212 2.707 2.706 2.707h.215c1.497 0 2.71-1.21 2.71-2.707V308.52c0-1.493-1.213-2.705-2.71-2.705zM211.695 343.795h-18.88l11.357-12.65c4.583-4.777 7.32-9.994 7.32-13.957 0-6.91-5.21-11.373-13.272-11.373-4.54 0-9.317 2.022-12.78 5.41-.516.505-.81 1.194-.812 1.918-.008.72.278 1.416.79 1.928l.144.146c1.048 1.052 2.748 1.062 3.808.024 2.395-2.342 5.786-3.796 8.85-3.796 2.298 0 7.646.56 7.646 5.744 0 1.884-1.507 5.65-5.808 10.137l-14.977 16.64c-.447.498-.697 1.143-.697 1.812v.942c0 1.495 1.215 2.706 2.71 2.706h24.603c1.496 0 2.707-1.21 2.707-2.707v-.216c0-1.497-1.212-2.71-2.708-2.71zM231.717 322.99l10.44-12.33c.41-.49.64-1.108.64-1.75v-.39c0-1.494-1.212-2.706-2.704-2.706H220.41c-1.496 0-2.707 1.212-2.707 2.706v.216c0 1.494 1.21 2.706 2.707 2.706h13.744l-10.38 12.21c-.417.49-.647 1.112-.647 1.753v.39c0 1.496 1.213 2.708 2.71 2.708h3.463c4.432 0 9.713 1.23 9.713 7.085 0 5.138-3.59 8.205-9.602 8.205-3.038 0-6.322-.934-8.79-2.5-1.194-.755-2.767-.467-3.615.663l-.125.17c-.456.606-.636 1.377-.495 2.123.14.745.587 1.398 1.232 1.798 3.456 2.144 7.755 3.373 11.794 3.373 9.11 0 15.233-5.65 15.233-14.057 0-6.907-4.993-11.59-12.926-12.372zM275.814 332.16h-3.558v-9.767c0-1.494-1.21-2.706-2.707-2.706h-.217c-1.496 0-2.706 1.212-2.706 2.706v9.768h-11.632l12.822-22.29c.483-.837.48-1.867-.002-2.704-.484-.836-1.377-1.35-2.34-1.35h-.25c-.968 0-1.863.517-2.347 1.355l-14.8 25.736c-.235.41-.36.875-.36 1.35v.827c0 1.494 1.213 2.706 2.707 2.706h16.2v8.927c0 1.496 1.21 2.707 2.707 2.707h.216c1.496 0 2.707-1.21 2.707-2.707v-8.928h3.558c1.494 0 2.707-1.214 2.707-2.707v-.217c.002-1.495-1.21-2.705-2.706-2.705z"/><path d="M292.097 321.59c-1.858 0-4.108.3-6.304.823v-10.97h17.04c1.494 0 2.705-1.21 2.705-2.705v-.216c0-1.494-1.21-2.706-2.705-2.706H282.87c-1.493 0-2.704 1.212-2.704 2.706v17.794c0 .887.436 1.718 1.166 2.224.728.504 1.66.62 2.49.31 2.642-.992 5.89-1.633 8.274-1.633 5.768 0 9.213 2.774 9.213 7.422 0 5.662-3.486 9.043-9.325 9.043-3.06 0-6.945-1.18-9.904-3.004-1.265-.782-2.922-.396-3.712.862l-.082.132c-.384.608-.51 1.342-.348 2.042.158.7.59 1.308 1.196 1.69 3.83 2.41 8.755 3.906 12.85 3.906 8.943 0 14.952-5.897 14.952-14.672 0-7.807-5.96-13.05-14.84-13.05z"/></symbol><symbol id="shape-icon-battery" viewBox="0 0 32 16"><path d="M30 3h-2c0-1.7-1.3-3-3-3H3C1.3 0 0 1.3 0 3v10c0 1.7 1.3 3 3 3h22c1.7 0 3-1.3 3-3h2c1.1 0 2-.9 2-2V5c0-1.1-.9-2-2-2zm-4 10c0 .6-.4 1-1 1H3c-.6 0-1-.4-1-1V3c0-.6.4-1 1-1h22c.6 0 1 .4 1 1v10zm4-2h-2V5h2v6zM13.4 4.9c-.2-.5-.8-.9-1.4-.9H5c-.6 0-1 .4-1 1v6c0 .5.4 1 1 1h11c.5 0 .8-.4.6-.9l-3.2-6.2z"/></symbol><symbol id="shape-icon-camera" viewBox="0 0 512 415.6"><path d="M0 127.2v225.9c0 34.5 28 62.5 62.5 62.5h387c34.5 0 62.5-28 62.5-62.5V127.2c0-32.8-26.6-59.5-59.5-59.5h-83.2l-2-8.7c-8-34.8-38.7-59-74.4-59h-74.1c-35.6 0-66.2 24.2-74.4 59l-2 8.7H59.5C26.6 67.7 0 94.5 0 127.2zm152.8-33.9c6 0 11.1-4.1 12.4-9.9l4.3-18.6c5.4-23.1 25.7-39.2 49.4-39.2H293c23.7 0 44 16.1 49.4 39.2l4.3 18.6c1.4 5.7 6.5 9.9 12.4 9.9h93.3c18.7 0 33.9 15.2 33.9 33.9v225.9c0 20.4-16.5 36.9-36.9 36.9H62.5c-20.4 0-36.9-16.5-36.9-36.9V127.2c0-18.7 15.2-33.9 33.9-33.9h93.3z"/><circle cx="86.6" cy="148" r="17.1"/><path d="M256 349.8c59.2 0 107.5-48.3 107.5-107.5S315.2 134.8 256 134.8 148.5 183 148.5 242.3 196.8 349.8 256 349.8zm0-189.4c45.1 0 81.9 36.8 81.9 81.9s-36.8 81.9-81.9 81.9-81.9-36.8-81.9-81.9 36.8-81.9 81.9-81.9z"/></symbol><symbol id="shape-icon-cart-topbar" viewBox="0 0 509.287 509.287"><circle cx="254.644" cy="254.644" r="254.644" fill="#6EB1E1"/><path fill="#DEDEDF" d="M299.062 168.858l-71.205-71.544-71.544 71.544"/><path fill="#F1F3F7" d="M437.743 168.858l-95.28-94.94-94.94 94.94"/><path fill="#FCFCFD" d="M396.037 296.01l-23.057-11.19 45.436-94.94H116.98v-25.09h341.786"/><circle cx="349.584" cy="400.445" r="34.925" fill="#4F5565"/><circle cx="349.584" cy="400.445" r="17.293" fill="#F1F3F7"/><circle cx="223.11" cy="400.445" r="34.925" fill="#4F5565"/><circle cx="223.11" cy="400.445" r="17.293" fill="#F1F3F7"/><g fill="#4F5565"><path d="M362.47 227.857H190.56c-7.122 0-12.547-5.764-12.547-12.546 0-7.12 5.764-12.545 12.546-12.545h171.91c7.12 0 12.545 5.764 12.545 12.546 0 7.122-5.765 12.547-12.546 12.547zM349.584 266.51h-145.8c-7.122 0-12.547-5.763-12.547-12.545 0-6.78 5.764-12.546 12.546-12.546h145.8c7.122 0 12.547 5.763 12.547 12.545s-5.764 12.546-12.546 12.546z"/></g><path d="M29.5 85.107c-7.122 0-12.547 5.764-12.547 12.546-.34 7.12 5.425 12.885 12.546 12.885h36.28v-25.43H29.5z" fill="#F0582F"/><path d="M389.256 277.7H178.352L91.212 92.23c-2.035-4.408-6.443-7.46-11.53-7.46H65.78v25.77h5.764l87.142 185.473c2.034 4.41 6.442 7.46 11.528 7.46h219.04c8.14 0 14.58 6.443 14.58 14.58s-6.44 14.58-14.58 14.58H171.91c-7.12 0-12.546 5.765-12.546 12.547 0 7.12 5.764 12.546 12.546 12.546h217.346c22.04 0 40.01-17.97 40.01-40.01s-17.97-40.012-40.01-40.012z" fill="#FCFCFD"/></symbol><symbol id="shape-icon-cart" viewBox="0 0 95.423 80.52"><path clip-path="url(#shape-icon-cart-d)" d="M94.005 12.797c-1.3-1.587-3.248-2.488-5.302-2.488H37.29c-3.786 0-6.167 3.015-6.167 6.8v34.276c0 3.785 2.38 6.908 6.167 6.908h44.558c3.267 0 6.082-2.333 6.722-5.535l6.854-34.292c.403-2.014-.117-4.08-1.42-5.67M81.85 51.437h-43.87V17.164h50.725l-6.855 34.274zM83.56 71.95c0 4.727-3.843 8.57-8.566 8.57-4.725 0-8.57-3.844-8.57-8.57 0-4.727 3.845-8.568 8.57-8.568 4.723 0 8.567 3.842 8.567 8.57m-54.84 0c0 4.725-3.844 8.567-8.568 8.567s-8.57-3.844-8.57-8.57c0-4.727 3.846-8.568 8.57-8.568s8.57 3.842 8.57 8.57m33.25.052c0 1.894-1.535 3.428-3.43 3.428H37.98c-1.893 0-3.427-1.534-3.427-3.428s1.535-3.427 3.428-3.427h20.565c1.894 0 3.428 1.533 3.428 3.427M17.414 15.626l-15.47-9.26C.32 5.397-.21 3.292.763 1.667c.97-1.623 3.072-2.15 4.7-1.18L22.6 10.744c1.035.618 1.668 1.735 1.668 2.94v41.185c0 1.893-1.534 3.427-3.427 3.427s-3.427-1.534-3.427-3.427V15.626z"/></symbol><symbol id="shape-icon-check" viewBox="0 0 406.834 406.834"><path d="M385.62 62.507L146.226 301.9 21.213 176.89 0 198.105l146.225 146.223L406.835 83.72"/></symbol><symbol id="shape-icon-close" viewBox="0 0 342.947 342.947"><path d="M342.947 21.213L321.734 0l-150.26 150.26L21.213 0 0 21.213l150.26 150.26L0 321.733l21.213 21.214 150.26-150.26 150.26 150.26 21.214-21.213-150.26-150.26"/></symbol><symbol id="shape-icon-customer" viewBox="0 0 512.003 512.003"><path fill="#E6AF78" d="M335.446 361.94v-61.79H176.558v61.79l79.444 70.616"/><path d="M458.286 390.843l-109.23-25.7c-1.65-.39-3.166-1.048-4.586-1.847L256 414.903 170.983 360.8c-2.2 2.072-4.933 3.612-8.036 4.343l-109.23 25.7c-15.95 3.754-27.22 17.986-27.22 34.37v69.135c0 9.75 7.903 17.654 17.653 17.654h423.7c9.752 0 17.655-7.904 17.655-17.654v-69.134c.002-16.386-11.27-30.62-27.22-34.37z" fill="#EFF2FA"/><path d="M176.558 300.15v65.193c100.078 36.057 158.888-54.185 158.888-54.185v-11.01H176.558v.002z" fill="#D29B6E"/><path d="M141.25 97.127l7.69 169.228c.72 15.81 8.47 30.47 21.13 39.965l36.5 27.374c9.167 6.875 20.317 10.593 31.777 10.593h35.31c11.46 0 22.61-3.717 31.777-10.593l36.498-27.374c12.66-9.496 20.412-24.155 21.13-39.965l7.692-169.228H141.25z" fill="#F0C087"/><path d="M229.52 132.435c35.31 0 88.272-8.827 100.834-35.31H141.25l7.69 169.23c.72 15.808 8.47 30.468 21.132 39.964l36.498 27.373c9.168 6.875 20.318 10.593 31.778 10.593h17.654c-17.654 0-52.963-35.31-52.963-79.444V158.916c0-8.827 8.826-26.48 26.48-26.48z" fill="#E6AF78"/><g fill="#E4EAF6"><path d="M91.3 454.714l-57.2-51.382c-4.792 6.07-7.602 13.706-7.602 21.882v69.134c0 9.75 7.904 17.654 17.654 17.654h61.79v-24.454c0-12.527-5.324-24.464-14.642-32.834zM420.705 454.714l57.2-51.382c4.792 6.07 7.602 13.706 7.602 21.882v69.134c0 9.75-7.904 17.654-17.654 17.654h-61.79v-24.454c0-12.527 5.323-24.464 14.642-32.834z"/></g><path fill="#5B5D6E" d="M278.07 512h-44.136l5.517-79.444h33.103"/><path d="M278.07 414.902h-44.136v16.613c0 5.45 4.418 9.87 9.87 9.87H268.2c5.45 0 9.87-4.42 9.87-9.87v-16.613z" fill="#515262"/><g fill="#E4EAF6"><path d="M175.32 342.287l80.683 72.615s-22.596 11.407-50.48 34.398c-5.752 4.742-14.453 2.82-17.538-3.966l-37.907-83.394 11.992-17.987c2.984-4.48 9.248-5.266 13.25-1.666z"/><path d="M336.686 342.287l-80.684 72.615s22.596 11.407 50.48 34.398c5.752 4.742 14.453 2.82 17.538-3.966l37.907-83.394-11.992-17.987c-2.985-4.48-9.25-5.266-13.25-1.666z"/></g><path d="M309.516 38.647l8.275 58.48c37.776 7.555 43.22 66.837 44.004 83.77.142 3.072 1.123 6.04 2.79 8.624l14.413 22.36s-4.933-36.965 17.654-61.79c.002 0 7.758-146.752-87.134-111.443z" fill="#785550"/><path d="M387.85 208.115l-9.964 39.86c-1.18 4.726-5.425 8.04-10.296 8.04-5.353 0-9.867-3.986-10.53-9.297l-5.098-40.77c-1.364-10.913 7.144-20.55 18.142-20.55h.008c11.896 0 20.624 11.177 17.74 22.717z" fill="#F0C087"/><path d="M149.71 22.83l13.055 8.92c-59.03 43.584-47.998 118.34-47.998 118.34 17.654 17.653 17.654 61.79 17.654 61.79l17.655-17.655s-6.813-50.998 26.48-70.617c30.896-18.206 57.93-8.827 85.514-8.827 73.926 0 94.615-27.86 91.03-61.79C351.242 35.436 324.4-1.134 256 .03c-27.603.47-79.442 8.827-106.29 22.803z" fill="#694B4B"/><path d="M144.56 107.057s-9.38-36.964 18.205-75.306c-59.03 43.585-47.998 118.34-47.998 118.34 17.654 17.654 17.654 61.79 17.654 61.79l17.655-17.654s-6.813-50.998 26.48-70.617c30.896-18.207 57.93-8.828 85.514-8.828 12.022 0 22.5-.805 31.83-2.185-56.93 1.908-90.492-41.217-149.34-5.54z" fill="#5A4146"/><path d="M124.153 208.115l9.965 39.86c1.18 4.726 5.425 8.04 10.296 8.04 5.353 0 9.867-3.986 10.53-9.297l5.098-40.77c1.364-10.913-7.144-20.55-18.142-20.55h-.008c-11.896 0-20.624 11.177-17.74 22.717z" fill="#E6AF78"/><path d="M370.755 494.346h-61.79c-4.875 0-8.827 3.952-8.827 8.827V512h79.444v-8.827c0-4.874-3.953-8.827-8.827-8.827z" fill="#E4EAF6"/></symbol><symbol id="shape-icon-external-link" viewBox="0 0 511.626 511.627"><path d="M392.857 292.354h-18.274c-2.67 0-4.86.855-6.563 2.573-1.718 1.708-2.573 3.897-2.573 6.563v91.36c0 12.564-4.47 23.316-13.415 32.263-8.945 8.945-19.7 13.414-32.264 13.414H82.224c-12.562 0-23.317-4.47-32.264-13.414-8.945-8.946-13.417-19.698-13.417-32.262V155.31c0-12.562 4.47-23.313 13.417-32.26 8.947-8.946 19.702-13.417 32.264-13.417h200.994c2.67 0 4.86-.86 6.57-2.57 1.71-1.713 2.566-3.9 2.566-6.567V82.22c0-2.66-.855-4.852-2.566-6.562-1.71-1.713-3.9-2.568-6.57-2.568H82.224c-22.648 0-42.016 8.042-58.102 24.125C8.042 113.297 0 132.665 0 155.313v237.542c0 22.647 8.042 42.018 24.123 58.095 16.086 16.084 35.454 24.13 58.102 24.13h237.543c22.647 0 42.017-8.046 58.1-24.13 16.086-16.077 24.128-35.447 24.128-58.095v-91.358c0-2.67-.856-4.86-2.574-6.57-1.713-1.718-3.903-2.573-6.565-2.573z"/><path d="M506.2 41.97c-3.618-3.616-7.906-5.423-12.85-5.423H347.17c-4.947 0-9.232 1.807-12.846 5.424-3.617 3.616-5.428 7.9-5.428 12.848s1.81 9.233 5.428 12.85l50.247 50.248-186.146 186.15c-1.906 1.904-2.856 4.094-2.856 6.564 0 2.48.953 4.668 2.856 6.57l32.548 32.545c1.903 1.903 4.093 2.852 6.567 2.852s4.664-.948 6.566-2.852l186.148-186.148 50.25 50.248c3.615 3.617 7.9 5.426 12.848 5.426s9.233-1.808 12.85-5.425c3.618-3.616 5.425-7.898 5.425-12.847V54.818c0-4.952-1.814-9.232-5.428-12.847z"/></symbol><symbol id="shape-icon-fanion-ribbon" viewBox="238.2 64 25.2 40"><path d="M257.4 64h-19.2v40h.2c2.6 0 4.7-1.6 5.6-3.8l17.3-25.6c1.3-1.1 2.1-2.7 2.1-4.5 0-3.4-2.7-6.1-6-6.1z"/></symbol><symbol id="shape-icon-fanion-shadow-reversed" viewBox="0 0 10 15"><title>fanion-shadow</title><path d="M6.186 0C2.874 0 .188 2.687.188 6v1.537c0 3.312 2.687 7 5.998 7l3.002-.002V0H6.186z"/></symbol><symbol id="shape-icon-filter" viewBox="0 0 247.46 247.46"><path d="M246.744 13.984c-1.238-2.626-3.88-4.3-6.784-4.3H7.5c-2.903 0-5.545 1.674-6.784 4.3-1.238 2.626-.85 5.73.997 7.97l89.36 108.384v99.94c0 2.595 1.342 5.005 3.546 6.373 1.207.75 2.578 1.128 3.954 1.128 1.137 0 2.278-.26 3.33-.78l50.208-24.885c2.55-1.264 4.165-3.863 4.17-6.71l.097-75.062 89.365-108.387c1.848-2.24 2.237-5.344 1-7.97zm-103.647 108.89c-1.105 1.34-1.71 3.022-1.713 4.76l-.096 73.103-35.213 17.453v-90.546c0-1.74-.605-3.428-1.713-4.77L23.404 24.68h200.65l-80.957 98.19z"/></symbol><symbol id="shape-icon-hd" viewBox="0 0 290.262 290.262"><path d="M278.743 33.612H11.52C5.156 33.612 0 38.77 0 45.132v200c0 6.36 5.157 11.518 11.52 11.518h267.224c6.36 0 11.52-5.157 11.52-11.52v-200c-.002-6.36-5.16-11.518-11.52-11.518zm-174.68 156.52l9.99-34.974H76.77L66.78 190.13H43.896l25.71-90h22.887l-10.58 37.03h37.28l10.58-37.03h22.89l-25.716 90h-22.884zm140.267-45c-7.604 26.612-32.658 45-61.585 45H144.95l16.985-59.462h22.882l-11.768 41.2h16.326c14.014 0 27.128-10.798 31.644-26.608 4.555-15.945-2.865-26.87-17.393-26.87H165.44l5.216-18.26h38.7c28.285 0 42.61 18.26 34.974 45z"/></symbol><symbol id="shape-icon-headphone" viewBox="0 0 512 459"><style>.st0{fill:#5A5D6F;} .st1{fill:#444455;} .st2{fill:#D4DEED;} .st3{fill:#6F7588;} .st4{fill:#C4CFE3;}</style><path class="st0" d="M494.3 238.3h-17.7c0-121.7-99-220.7-220.7-220.7s-220.7 99-220.7 220.7H17.7C17.7 106.9 124.6 0 256 0s238.3 106.9 238.3 238.3z"/><path class="st1" d="M26.5 229.5c-4.9 0-8.8 4-8.8 8.8v44.1h17.7v-44.1c-.1-4.8-4-8.8-8.9-8.8zM97.1 450.2H70.6c-4.9 0-8.8-4-8.8-8.8V282.5c0-4.9 4-8.8 8.8-8.8h26.5c4.9 0 8.8 4 8.8 8.8v158.9c0 4.9-3.9 8.8-8.8 8.8z"/><path class="st2" d="M26.5 414.9L6 408.1c-3.6-1.2-6-4.6-6-8.4v-75.6c0-3.8 2.4-7.2 6-8.4l20.4-6.8v106z"/><path class="st3" d="M44.1 450.2H26.5c-4.9 0-8.8-4-8.8-8.8V282.5c0-4.9 4-8.8 8.8-8.8h17.7c4.9 0 8.8 4 8.8 8.8v158.9c0 4.9-4 8.8-8.9 8.8z"/><path class="st4" d="M70.6 459H44.1c-4.9 0-8.8-4-8.8-8.8V273.7c0-4.9 4-8.8 8.8-8.8h26.5c4.9 0 8.8 4 8.8 8.8v176.6c0 4.8-3.9 8.7-8.8 8.7z"/><circle class="st3" cx="26.5" cy="238.3" r="8.8"/><path class="st1" d="M485.5 229.5c4.9 0 8.8 4 8.8 8.8v44.1h-17.7v-44.1c.1-4.8 4-8.8 8.9-8.8zM414.9 450.2h26.5c4.9 0 8.8-4 8.8-8.8V282.5c0-4.9-4-8.8-8.8-8.8h-26.5c-4.9 0-8.8 4-8.8 8.8v158.9c0 4.9 3.9 8.8 8.8 8.8z"/><path class="st2" d="M485.5 414.9l20.4-6.8c3.6-1.2 6-4.6 6-8.4v-75.6c0-3.8-2.4-7.2-6-8.4l-20.4-6.8v106z"/><path class="st3" d="M467.9 450.2h17.7c4.9 0 8.8-4 8.8-8.8V282.5c0-4.9-4-8.8-8.8-8.8h-17.7c-4.9 0-8.8 4-8.8 8.8v158.9c-.1 4.9 3.9 8.8 8.8 8.8z"/><path class="st4" d="M441.4 459h26.5c4.9 0 8.8-4 8.8-8.8V273.7c0-4.9-4-8.8-8.8-8.8h-26.5c-4.9 0-8.8 4-8.8 8.8v176.6c0 4.8 3.9 8.7 8.8 8.7z"/><circle class="st3" cx="485.5" cy="238.3" r="8.8"/></symbol><symbol id="shape-icon-loader" viewBox="0 0 100 100"><path fill="none" class="bk" d="M0 0h100v100H0z"/><circle r="7" cx="20" cy="50"><animateTransform attributeName="transform" type="translate" begin="0s" repeatCount="indefinite" dur="0.7s" values="0 0;8.786796564403573 -21.213203435596423" keyTimes="0;1"/><animate attributeName="fill" dur="0.7s" begin="0s" repeatCount="indefinite" keyTimes="0;1" values="#f29c98;#f5b697"/></circle><circle r="7" cx="20" cy="50" transform="rotate(45 50 50)"><animateTransform attributeName="transform" type="translate" begin="0s" repeatCount="indefinite" dur="0.7s" values="0 0;8.786796564403573 -21.213203435596423" keyTimes="0;1"/><animate attributeName="fill" dur="0.7s" begin="0s" repeatCount="indefinite" keyTimes="0;1" values="#f5b697;#f5e797"/></circle><circle r="7" cx="20" cy="50" transform="rotate(90 50 50)"><animateTransform attributeName="transform" type="translate" begin="0s" repeatCount="indefinite" dur="0.7s" values="0 0;8.786796564403573 -21.213203435596423" keyTimes="0;1"/><animate attributeName="fill" dur="0.7s" begin="0s" repeatCount="indefinite" keyTimes="0;1" values="#f5e797;#a2e4f5"/></circle><circle r="7" cx="20" cy="50" transform="rotate(135 50 50)"><animateTransform attributeName="transform" type="translate" begin="0s" repeatCount="indefinite" dur="0.7s" values="0 0;8.786796564403573 -21.213203435596423" keyTimes="0;1"/><animate attributeName="fill" dur="0.7s" begin="0s" repeatCount="indefinite" keyTimes="0;1" values="#a2e4f5;#009dd3"/></circle><circle r="7" cx="20" cy="50" transform="rotate(180 50 50)"><animateTransform attributeName="transform" type="translate" begin="0s" repeatCount="indefinite" dur="0.7s" values="0 0;8.786796564403573 -21.213203435596423" keyTimes="0;1"/><animate attributeName="fill" dur="0.7s" begin="0s" repeatCount="indefinite" keyTimes="0;1" values="#009dd3;#f29c98"/></circle><circle r="7" cx="20" cy="50" transform="rotate(225 50 50)"><animateTransform attributeName="transform" type="translate" begin="0s" repeatCount="indefinite" dur="0.7s" values="0 0;8.786796564403573 -21.213203435596423" keyTimes="0;1"/><animate attributeName="fill" dur="0.7s" begin="0s" repeatCount="indefinite" keyTimes="0;1" values="#f29c98;#f5b697"/></circle><circle r="7" cx="20" cy="50" transform="rotate(270 50 50)"><animateTransform attributeName="transform" type="translate" begin="0s" repeatCount="indefinite" dur="0.7s" values="0 0;8.786796564403573 -21.213203435596423" keyTimes="0;1"/><animate attributeName="fill" dur="0.7s" begin="0s" repeatCount="indefinite" keyTimes="0;1" values="#f5b697;#f5e797"/></circle><circle r="7" cx="20" cy="50" transform="rotate(315 50 50)"><animateTransform attributeName="transform" type="translate" begin="0s" repeatCount="indefinite" dur="0.7s" values="0 0;8.786796564403573 -21.213203435596423" keyTimes="0;1"/><animate attributeName="fill" dur="0.7s" begin="0s" repeatCount="indefinite" keyTimes="0;1" values="#f5e797;#a2e4f5"/></circle></symbol><symbol id="shape-icon-mobile-insurance" viewBox="0 0 118 100.5"><g opacity=".5"><clipPath id="shape-icon-mobile-insurance-b"><use xlink:href="#shape-icon-mobile-insurance-a" overflow="visible"/></clipPath><path clip-path="url(#shape-icon-mobile-insurance-b)" d="M13.005 78.575c-3.717.197-3.913-3.52-3.913-3.52L6.104 18.358c-.194-3.713 3.522-3.91 3.522-3.91l11.183-.59-4.585-5.013-9.877.52c-1.27.33-3.35 1.27-3.69 3.925l3.835 72.79c.323 1.327 1.323 3.684 4.415 3.827l10.336-.546 4.334-11.447-12.573.662z"/></g><g opacity=".5"><clipPath id="shape-icon-mobile-insurance-d"><use xlink:href="#shape-icon-mobile-insurance-c" overflow="visible"/></clipPath><path clip-path="url(#shape-icon-mobile-insurance-d)" d="M20.18 98.226c-.074 0-.148-.013-.22-.042-.304-.12-.45-.464-.33-.77L33.17 63.363l-12.12-24.634c-.087-.18-.08-.39.022-.562L28.72 25.23 16.06 4.07c-.166-.28-.075-.643.205-.81s.644-.077.81.203l12.838 21.46c.11.187.11.42 0 .605L22.256 38.49 34.35 63.075c.073.15.08.324.018.042l-13.64 34.298c-.092.67-.315.81-.55.81"/></g><g opacity=".5"><clipPath id="shape-icon-mobile-insurance-f"><use xlink:href="#shape-icon-mobile-insurance-e" overflow="visible"/></clipPath><path clip-path="url(#shape-icon-mobile-insurance-f)" d="M49.806 16C53.524 16 54 19.937 54 19.937v13.197l3 3.032V15.354C57 13.25 55.667 11 52.858 11H24.57l4.315 5h20.92zm-19.562-3h7.346c.676 0 1.224.324 1.224 1s-.548 1-1.224 1h-7.346c-.676 0-1.224-.324-1.224-1s.548-1 1.224-1M54 62.18v14.77c0 3.724-4.195 4.05-4.195 4.05H30.273l-4.93 11h26.73C53.206 92 56 91.103 57 87.9V59.48l-3 2.7zM33.917 89.605c-2.027 0-3.672-1.645-3.672-3.673 0-2.026 1.645-3.67 3.672-3.67 2.028 0 3.673 1.644 3.673 3.67 0 2.03-1.645 3.674-3.673 3.674"/></g><path d="M110.21 11H73.395C70.682 11 68 13.16 68 15.87v12.077l5 4.428V18h37v59.233-.232H73v.234-15.13l-5 4.574v20.374C68 89.762 70.682 92 73.394 92h36.817c2.712 0 4.79-2.237 4.79-4.948v-71.18c0-2.712-2.078-4.872-4.79-4.872m-14.726 5H88.12c-.678 0-1.227-.823-1.227-1.5 0-.678.55-1.5 1.227-1.5h7.364c.678 0 1.227.822 1.227 1.5s-.548 1.5-1.226 1.5m-3.68 71.053c-2.035 0-3.684-1.65-3.684-3.682s1.648-3.68 3.683-3.68c2.032 0 3.682 1.648 3.682 3.68s-1.65 3.683-3.682 3.683"/><path d="M82.038 49.658L63.736 66.04C62.073 67.47 59 66.758 59 64.453V52.976L45.052 66.04C43.395 67.47 42 66.758 42 64.453v-33.92c0-2.298 1.395-3.015 3.052-1.585L59 42.012V30.534c0-2.3 3.073-3.016 4.736-1.586L82.89 45.33c1.385 1.193.534 3.14-.852 4.328"/></symbol><symbol id="shape-icon-offers" viewBox="0 0 512 512"><path d="M406.07 512H105.93c-19.5 0-35.31-15.81-35.31-35.31V70.62c0-19.5 15.81-35.31 35.31-35.31h300.14c19.5 0 35.31 15.81 35.31 35.31v406.07c0 19.5-15.81 35.31-35.31 35.31z" fill="#E1C3A0"/><path d="M406.07 485.517H105.93c-4.874 0-8.827-3.953-8.827-8.828V70.62c0-4.874 3.953-8.827 8.828-8.827h300.14c4.874 0 8.827 3.953 8.827 8.828v406.07c0 4.875-3.953 8.827-8.828 8.827z" fill="#EFF2FA"/><path d="M308.966 35.31h-26.483v-8.828C282.483 11.857 270.626 0 256 0s-26.483 11.857-26.483 26.483v8.828h-26.483c-9.75 0-17.655 7.905-17.655 17.656V70.62h141.24V52.967c0-9.752-7.904-17.656-17.654-17.656zm-52.966 0c-4.875 0-8.828-3.953-8.828-8.828s3.953-8.828 8.828-8.828 8.828 3.953 8.828 8.828-3.953 8.828-8.828 8.828z" fill="#C7CFE2"/><path d="M326.62 79.448H185.38c-4.876 0-8.83-3.953-8.83-8.828s3.954-8.828 8.83-8.828h141.24c4.875 0 8.828 3.953 8.828 8.828 0 4.876-3.952 8.828-8.827 8.828z" fill="#AFB9D2"/><path d="M167.724 203.034c-2.26 0-4.518-.862-6.24-2.586L135 173.965c-3.448-3.448-3.448-9.035 0-12.483 3.448-3.448 9.035-3.448 12.483 0l20.24 20.242 37.898-37.897c3.45-3.448 9.036-3.448 12.484 0 3.448 3.448 3.448 9.035 0 12.483l-44.138 44.138c-1.724 1.725-3.983 2.586-6.242 2.586z" fill="#82889D"/><path d="M317.793 167.724h-70.62c-4.876 0-8.83-3.953-8.83-8.828s3.954-8.828 8.83-8.828h70.62c4.875 0 8.828 3.953 8.828 8.828 0 4.876-3.952 8.828-8.827 8.828z" fill="#AFB9D2" opacity=".97"/><path d="M361.93 203.034H247.173c-4.875 0-8.828-3.953-8.828-8.828s3.953-8.828 8.828-8.828h114.76c4.874 0 8.827 3.953 8.827 8.828 0 4.876-3.954 8.828-8.83 8.828z" fill="#C7CFE2" opacity=".97"/><path d="M167.724 414.897c-2.26 0-4.518-.862-6.24-2.586L135 385.828c-3.448-3.448-3.448-9.035 0-12.483 3.448-3.448 9.035-3.448 12.483 0l20.24 20.242 37.898-37.897c3.45-3.45 9.036-3.45 12.484 0 3.448 3.447 3.448 9.034 0 12.482l-44.138 44.138c-1.724 1.725-3.983 2.587-6.242 2.587z" fill="#82889D"/><path d="M317.793 379.586h-70.62c-4.876 0-8.83-3.953-8.83-8.828s3.954-8.828 8.83-8.828h70.62c4.875 0 8.828 3.953 8.828 8.828 0 4.876-3.952 8.828-8.827 8.828z" fill="#AFB9D2" opacity=".97"/><path d="M361.93 414.897H247.173c-4.875 0-8.828-3.953-8.828-8.828 0-4.876 3.953-8.83 8.828-8.83h114.76c4.874 0 8.827 3.954 8.827 8.83 0 4.874-3.954 8.827-8.83 8.827z" fill="#C7CFE2" opacity=".97"/><path d="M167.724 308.966c-2.26 0-4.518-.862-6.24-2.586L135 279.896c-3.448-3.448-3.448-9.035 0-12.483 3.448-3.448 9.035-3.448 12.483 0l20.24 20.242 37.898-37.897c3.45-3.448 9.036-3.448 12.484 0 3.448 3.448 3.448 9.035 0 12.483l-44.138 44.14c-1.724 1.724-3.983 2.586-6.242 2.586z" fill="#82889D"/><path d="M317.793 273.655h-70.62c-4.876 0-8.83-3.953-8.83-8.828s3.954-8.828 8.83-8.828h70.62c4.875 0 8.828 3.952 8.828 8.827 0 4.876-3.952 8.828-8.827 8.828z" fill="#AFB9D2" opacity=".97"/><path d="M361.93 308.966H247.173c-4.875 0-8.828-3.953-8.828-8.828s3.953-8.828 8.828-8.828h114.76c4.874 0 8.827 3.953 8.827 8.828s-3.954 8.828-8.83 8.828z" fill="#C7CFE2" opacity=".97"/></symbol><symbol id="shape-icon-options" viewBox="0 0 504.065 504.065"><path d="M41.493 281.6l45.686-79.95c4.725-8.272 15.36-11.03 23.63-6.303l337.132 196.53c8.27 4.725 11.028 15.36 6.302 23.63l-45.686 79.95c-4.726 8.272-15.36 11.03-23.63 6.303L47.793 305.23c-8.27-4.725-11.027-15.36-6.3-23.63z" fill="#BF392B"/><path d="M87.573 203.225l-.788-.788-9.058 16.148L336.484 449.38c0-.002-248.91-246.155-248.91-246.155z" fill="#AC3327"/><path d="M408.557 495.458l45.686-79.95c4.726-8.272 1.97-18.906-6.302-23.632L341.21 329.65l-66.56 107.913 110.277 64.197c8.27 4.726 18.904 1.97 23.63-6.302z" fill="#D6D6D6"/><path d="M293.554 406.843l-1.97 2.757 44.506 39.778-42.536-42.535z" fill="#CACACA"/><path d="M87.573 179.2l64.59-64.197c6.696-6.695 17.724-6.695 24.42 0L451.486 387.15c6.695 6.696 6.695 17.33 0 24.026l-64.59 64.197c-6.696 6.695-17.724 6.695-24.42 0L87.574 203.225c-6.696-6.696-6.696-17.33 0-24.025z" fill="#E2574C"/><path d="M147.83 119.335l-14.965 14.572 173.292 259.938-158.326-274.51z" fill="#CB4E44"/><path d="M451.486 411.175c6.695-6.695 6.695-17.33 0-24.025l-93.342-92.16-89.797 87.04 94.13 93.342c6.694 6.695 17.722 6.695 24.417 0 .002 0 64.592-64.197 64.592-64.197z" fill="#E0E0E0"/><path d="M154.133 95.705l79.95-46.08c8.272-4.726 18.906-1.97 23.632 6.302L453.85 396.21c4.726 8.27 1.97 18.904-6.302 23.63l-79.95 46.08c-8.272 4.726-18.906 1.97-23.632-6.302L147.83 119.335c-4.725-8.27-1.968-18.904 6.303-23.63z" fill="#D07C40"/><path d="M288.04 362.732l-1.575 1.575 19.692 29.538-18.117-31.113z" fill="#D1D1D1"/><path d="M367.99 466.314l79.952-46.08c8.27-4.726 11.028-15.36 6.302-23.63l-68.53-118.943-108.307 66.955 66.56 115.397c5.12 8.27 15.753 11.028 24.024 6.302z" fill="#EBEBEB"/><path d="M240.78 56.714c-.79-3.15-.79-6.302 0-9.452-2.364.394-4.333 1.182-6.696 2.363l-16.148 9.452L329 382.03 240.78 56.715zm126.423 382.818h.788v-.394l-.787.394z" fill="#BB6F39"/><path d="M367.203 439.532h.788v-.394l-.787.394zm-54.35-116.972l-3.545 2.363L329 382.03l-16.147-59.47z" fill="#DBDBDB"/><path d="M252.594 35.84l89.01-23.63c9.057-2.364 18.51 2.756 21.267 11.814l101.22 371.79c2.363 9.06-3.15 18.512-12.21 20.875l-89.008 23.63c-9.058 2.363-18.51-2.757-21.268-11.815L240.78 56.715c-2.758-9.06 2.756-18.512 11.814-20.875z" fill="#F4B459"/><path d="M362.87 0h81.527c11.422 0 20.48 9.058 20.48 20.48v384.394c0 11.422-9.058 20.48-20.48 20.48H362.87c-11.42 0-20.48-9.058-20.48-20.48V20.48C342.39 9.058 351.45 0 362.87 0z" fill="#EFC75E"/><path d="M308.52 306.806l33.083 121.698c2.363 9.058 11.815 14.572 21.268 11.815l89.01-23.632c9.06-2.363 14.572-11.815 12.21-20.874L431.005 275.69 308.52 306.807z" fill="#E6E6E6"/><path d="M342.39 20.48c0-3.15.79-5.908 1.97-8.27-.788 0-1.97 0-2.757.393l-20.874 5.514 21.66 313.895V20.48z" fill="#DBA250"/><path d="M342.39 275.298v129.575c0 11.422 9.06 20.48 20.48 20.48h81.527c11.422 0 20.48-9.058 20.48-20.48V275.298H342.39z" fill="#EFEFEF"/><path d="M342.39 298.142l-2.362.788 2.363 33.083v-33.87z" fill="#DDD"/><path d="M362.083 295.385v19.692h66.954v-19.692h-66.954zm0 102.4h27.57V385.97h-27.57v11.815zm0-27.57h27.57V358.4h-27.57v11.815zm0-27.57h27.57v-11.814h-27.57v11.816zm68.924 35.447c5.514 0 9.846 4.332 9.846 9.846s-4.332 9.846-9.846 9.846-9.846-4.332-9.846-9.846c0-5.513 4.333-9.846 9.847-9.846z" fill="#BFBFBF"/></symbol><symbol id="shape-icon-print" viewBox="0 0 129 129"><path d="M10.5 105h22.9v13.5c0 2.3 1.8 4.1 4.1 4.1h54c2.3 0 4.1-1.8 4.1-4.1V105h22.9c2.3 0 4.1-1.8 4.1-4.1V28.1c0-2.3-1.8-4.1-4.1-4.1H95.6V10.5c0-2.3-1.8-4.1-4.1-4.1h-54c-2.3 0-4.1 1.8-4.1 4.1V24H10.5c-2.3 0-4.1 1.8-4.1 4.1v72.8c0 2.2 1.9 4.1 4.1 4.1zm76.9 9.4H41.6V80.6h45.8v33.8zM41.6 14.6h45.8V24H41.6v-9.4zm-27 17.6H114.4v64.6H95.6V80.6h7.3c2.3 0 4.1-1.8 4.1-4.1s-1.8-4.1-4.1-4.1H26.2c-2.3 0-4.1 1.8-4.1 4.1s1.8 4.1 4.1 4.1h7.3v16.2H14.6V32.2z"/><path d="M86.2 53.3h10.6c2.3 0 4.1-1.8 4.1-4.1s-1.8-4.1-4.1-4.1H86.2c-2.3 0-4.1 1.8-4.1 4.1s1.8 4.1 4.1 4.1z"/></symbol><symbol id="shape-icon-promo-flat" viewBox="0 0 134 138"><title>forme_plate</title><path d="M.03 0L0 128.344C0 139.462 10.37 137 10.37 137s107.858-13.52 114.123-14.8c7.72-1.577 9.226-9.216 9.226-9.216V.084L.03 0z"/></symbol><symbol id="shape-icon-remove" viewBox="0 0 455 455"><path d="M0 212.5h455v30H0z"/></symbol><symbol id="shape-icon-seller" viewBox="0 0 512.003 512.003"><path d="M132.422 247.187l-12.775-6.388c-2.99-1.496-4.88-4.552-4.88-7.896V199.68c0-3.343 1.89-6.4 4.88-7.895l12.775-6.388v61.79z" fill="#707487"/><path fill="#E6AF78" d="M335.446 361.94v-61.79H176.558v61.79l79.444 70.616"/><path d="M458.286 390.843l-109.23-25.7c-1.65-.39-3.166-1.048-4.586-1.847L256 414.903 170.983 360.8c-2.2 2.072-4.933 3.612-8.036 4.343l-109.23 25.7c-15.95 3.754-27.22 17.986-27.22 34.37v69.135c0 9.75 7.903 17.654 17.653 17.654h423.7c9.752 0 17.655-7.904 17.655-17.654v-69.134c.002-16.386-11.27-30.62-27.22-34.37z" fill="#B4E1FA"/><path d="M176.558 300.15v65.193c100.078 36.057 158.888-54.185 158.888-54.185v-11.01H176.558v.002z" fill="#D29B6E"/><path d="M141.25 97.127l7.69 169.228c.72 15.81 8.47 30.47 21.13 39.965l36.5 27.374c9.167 6.875 20.317 10.593 31.777 10.593h35.31c11.46 0 22.61-3.717 31.777-10.593l36.498-27.374c12.66-9.496 20.412-24.155 21.13-39.965l7.692-169.228H141.25z" fill="#F0C087"/><path d="M229.52 132.435c35.31 0 88.272-8.827 100.834-35.31H141.25l7.69 169.23c.72 15.808 8.47 30.468 21.132 39.964l36.498 27.373c9.168 6.875 20.318 10.593 31.778 10.593h17.654c-17.654 0-52.963-35.31-52.963-79.444V158.916c0-8.827 8.826-26.48 26.48-26.48z" fill="#E6AF78"/><g fill="#A0D2F0"><path d="M91.3 454.714l-57.2-51.382c-4.792 6.07-7.602 13.706-7.602 21.882v69.134c0 9.75 7.904 17.654 17.654 17.654h61.79v-24.454c0-12.527-5.324-24.464-14.642-32.834zM420.705 454.714l57.2-51.382c4.792 6.07 7.602 13.706 7.602 21.882v69.134c0 9.75-7.904 17.654-17.654 17.654h-61.79v-24.454c0-12.527 5.323-24.464 14.642-32.834z"/></g><path fill="#5B5D6E" d="M278.07 512h-44.136l5.517-79.444h33.103"/><path d="M278.07 414.902h-44.136v16.613c0 5.45 4.418 9.87 9.87 9.87H268.2c5.45 0 9.87-4.42 9.87-9.87v-16.613z" fill="#515262"/><g fill="#A0D2F0"><path d="M175.32 342.287l80.683 72.615s-22.596 11.407-50.48 34.398c-5.752 4.742-14.453 2.82-17.538-3.966l-37.907-83.394 11.992-17.987c2.984-4.48 9.248-5.266 13.25-1.666z"/><path d="M336.686 342.287l-80.684 72.615s22.596 11.407 50.48 34.398c5.752 4.742 14.453 2.82 17.538-3.966l37.907-83.394-11.992-17.987c-2.985-4.48-9.25-5.266-13.25-1.666z"/></g><path d="M309.516 38.647l8.275 58.48c37.776 7.555 43.22 66.837 44.004 83.77.142 3.072 1.123 6.04 2.79 8.624l14.413 22.36s-4.933-36.965 17.654-61.79c.002 0 7.758-146.752-87.134-111.443z" fill="#785550"/><path d="M149.71 22.83l13.055 8.92c-59.03 43.584-47.998 118.34-47.998 118.34 17.654 17.653 17.654 61.79 17.654 61.79l17.655-17.655s-6.813-50.998 26.48-70.617c30.896-18.206 57.93-8.827 85.514-8.827 73.926 0 94.615-27.86 91.03-61.79C351.242 35.436 324.4-1.134 256 .03c-27.603.47-79.442 8.827-106.29 22.803z" fill="#694B4B"/><path d="M144.56 107.057s-9.38-36.964 18.205-75.306c-59.03 43.585-47.998 118.34-47.998 118.34 17.654 17.654 17.654 61.79 17.654 61.79l17.655-17.654s-6.813-50.998 26.48-70.617c30.896-18.207 57.93-8.828 85.514-8.828 12.022 0 22.5-.805 31.83-2.185-56.93 1.908-90.492-41.217-149.34-5.54z" fill="#5A4146"/><path d="M145.663 256.014h-13.24c-4.876 0-8.828-3.952-8.828-8.827v-61.79c0-4.875 3.952-8.827 8.827-8.827h13.24c2.438 0 4.415 1.976 4.415 4.414V251.6c0 2.44-1.977 4.414-4.414 4.414z" fill="#5B5D6E"/><path d="M291.31 306.77v-13.24c59.744 0 72.825-33.454 72.825-46.343h13.24c0 16.573-15.46 59.583-86.064 59.583z" fill="#464655"/><path d="M291.31 308.977h-8.826c-4.875 0-8.827-3.952-8.827-8.827s3.952-8.827 8.827-8.827h8.827c4.876 0 8.828 3.952 8.828 8.827s-3.953 8.827-8.827 8.827z" fill="#5B5D6E"/><path d="M379.582 247.187l12.775-6.388c2.99-1.496 4.88-4.552 4.88-7.896V199.68c0-3.343-1.89-6.4-4.88-7.895l-12.775-6.388v61.79z" fill="#707487"/><path d="M366.34 256.014h13.242c4.875 0 8.827-3.952 8.827-8.827v-61.79c0-4.875-3.953-8.827-8.828-8.827h-13.24c-2.438 0-4.415 1.976-4.415 4.414V251.6c0 2.44 1.977 4.414 4.414 4.414z" fill="#5B5D6E"/><path d="M370.755 494.346h-61.79c-4.875 0-8.827 3.952-8.827 8.827V512h79.444v-8.827c0-4.874-3.953-8.827-8.827-8.827z" fill="#A0D2F0"/></symbol><symbol id="shape-icon-services" viewBox="0 0 511.872 511.872"><path d="M436.452 358.027l-75.047-14.023c-.484-.086-.977-.133-1.47-.133h-208c-.49 0-.983.048-1.468.134L74.74 358.19c-38.608 10.814-58.804 48.845-58.804 80.83v43.835c0 16 14.352 29.016 32 29.016h416c17.648 0 32-13.015 32-29.015V439.02c0-31.985-20.195-70.016-59.484-80.993z" fill="#996459"/><path d="M294.712 511.87l-14.885-89.31c-.64-3.86-3.977-6.69-7.89-6.69h-32c-3.915 0-7.25 2.83-7.892 6.69l-14.885 89.31h77.552z" fill="#4BB9EC"/><path d="M239.936 415.87c-2.044 0-3.903.8-5.33 2.087l53.345 53.35-4.524-27.15-28.283-28.286h-15.207z" fill="#009BCA"/><path d="M287.882 376.02c-.008-4.415-3.586-7.985-8-7.985h-40c-3.03 0-5.797 1.71-7.156 4.422l-8 16c-.563 1.117-.852 2.352-.844 3.61l.055 15.81c0 13.228 10.766 23.993 24 23.993h16c13.234 0 24-10.766 24-24.016l-.055-31.835z" fill="#3482AC"/><path d="M259.78 345.05l-71.945-40.163c-3.492-1.96-7.883-1.008-10.28 2.164l-30.196 40c-2.064 2.735-2.165 6.478-.243 9.306l48.773 71.992c2.688 3.96 6.96 6.492 11.72 6.945.515.047 1.03.07 1.538.07 4.22 0 8.266-1.656 11.29-4.672.202-.202.397-.42.577-.647l33.148-41.156c.36-.438.672-.922.922-1.43l7.945-15.836c.563-1.108.852-2.343.852-3.585v-16c0-2.898-1.57-5.57-4.102-6.984z" fill="#B4B6BC"/><path d="M251.983 345.05l71.945-40.163c3.492-1.96 7.883-1.008 10.28 2.164l30.196 40c2.063 2.735 2.164 6.478.242 9.306l-48.773 71.992c-2.688 3.96-6.96 6.492-11.72 6.945-.515.047-1.03.07-1.538.07-4.22 0-8.266-1.656-11.29-4.672-.202-.202-.397-.42-.577-.647L257.6 388.887c-.358-.438-.67-.922-.92-1.43l-7.946-15.836c-.563-1.108-.852-2.343-.852-3.585v-16c0-2.898 1.57-5.57 4.1-6.984z" fill="#B4B6BC"/><path d="M367.882 152.035l-15.78-16s-54.22-14.667-168.22 0l-48 16v56c0 79.53 53.726 144 120 144s120-64.47 120-144v-56c-2.07 2.314-8 0-8 0z" fill="#FFDCAD"/><circle cx="207.717" cy="208.035" r="32" fill="#AEEFFF"/><path d="M207.936 176.035c-8.78 0-16.726 3.547-22.507 9.273l45.233 45.234c5.727-5.782 9.273-13.727 9.273-22.507 0-17.673-14.326-32-32-32z" fill="#FFF"/><circle cx="303.717" cy="208.035" r="32" fill="#AEEFFF"/><path d="M303.936 176.035c-8.78 0-16.726 3.547-22.507 9.273l45.233 45.234c5.727-5.782 9.273-13.727 9.273-22.507 0-17.673-14.326-32-32-32z" fill="#FFF"/><path d="M272.1 216.035c-4.42 0-8-3.578-8-8 0-4.414-3.585-8-8-8s-8 3.586-8 8c0 4.422-3.577 8-8 8s-8-3.578-8-8c0-13.234 10.767-24 24-24 13.235 0 24 10.766 24 24 0 4.422-3.578 8-8 8zM176.1 208.035h-40.218c-4.422 0-8-3.578-8-8s3.578-8 8-8h40.22c4.42 0 8 3.578 8 8s-3.58 8-8 8zM375.882 208.035h-39.78c-4.423 0-8-3.578-8-8s3.577-8 8-8h39.78c4.422 0 8 3.578 8 8s-3.578 8-8 8z" fill="#5C546A"/><path d="M208.1 248.035c-22.054 0-40-17.945-40-40s17.946-40 40-40 40 17.945 40 40-17.945 40-40 40zm0-64c-13.233 0-24 10.766-24 24s10.767 24 24 24 24-10.766 24-24-10.765-24-24-24zM304.1 248.035c-22.054 0-40-17.945-40-40s17.946-40 40-40 40 17.945 40 40-17.945 40-40 40zm0-64c-13.233 0-24 10.766-24 24s10.767 24 24 24 24-10.766 24-24-10.765-24-24-24z" fill="#868491"/><path d="M221.827 282.63c-4.336 0-8.594-1.407-12.102-5.712-2.78-3.43-2.266-8.47 1.164-11.258 3.437-2.78 8.468-2.266 11.257 1.164.828.125 5.125-1.367 7.914-2.32 8.368-2.852 19.83-6.766 30.517.852 3.602 2.563 4.438 7.555 1.875 11.156-2.563 3.586-7.555 4.43-11.156 1.875-3.727-2.664-8.562-1.297-16.078 1.266-3.985 1.36-8.727 2.976-13.39 2.976z" fill="#FFF"/><path d="M290.046 282.63c-4.656 0-9.406-1.618-13.39-2.978-7.524-2.555-12.36-3.93-16.08-1.266-3.593 2.57-8.593 1.72-11.155-1.875-2.562-3.6-1.726-8.593 1.876-11.155 10.672-7.602 22.148-3.703 30.516-.852 2.79.953 6.992 2.46 8.328 2.102 2.78-3.422 7.61-3.836 11.047-1.055 3.43 2.78 3.742 7.93.96 11.36-3.5 4.313-7.765 5.72-12.1 5.72zM287.874 303.37c-.266-4.218-3.758-7.5-7.984-7.5h-47.906c-4.227 0-7.72 3.282-7.984 7.5-.148 2.392-3.36 59 25.82 93.657 1.516 1.805 3.758 2.844 6.117 2.844s4.602-1.038 6.117-2.843c29.18-34.656 25.968-91.265 25.82-93.656z" fill="#FFF"/><path d="M415.936 207.87c-4.422 0-8-3.577-8-8V104.49c0-4.422 3.578-8 8-8s8 3.578 8 8v95.383c0 4.423-3.578 8-8 8z" fill="#5C546A"/><path d="M441.936 60.324L279.21 4.534c-17.617-6.046-37.047-6.046-54.68 0L61.804 60.325c-8.508 2.922-14 10.61-14 19.602s5.492 16.68 14 19.602l79.57 27.28c.836.282 1.71.43 2.594.43h.102l223.97-2.796c.843-.008 1.687-.156 2.49-.43l71.407-24.484c8.508-2.922 14-10.61 14-19.602s-5.493-16.68-14-19.602z" fill="#5C546A"/><path d="M228.498 141.195c8.483-.616 17.577-.996 27.44-.996 9.86 0 18.955.378 27.438.995 32.577 1.882 71.284 7.267 92.56 18.84v-64c0-27.484-62.202-40-120-40s-120 12.516-120 40v64c21.278-11.574 59.984-16.958 92.562-18.84z" fill="#5D647F"/><path d="M255.936 100.363c-34.716 0-92.23 4.566-120 19.672v20.328c0-6.97 42.055-24 120-24s120 17.03 120 24v-20.328c-27.77-15.105-85.283-19.672-120-19.672z" fill="#5C546A"/><path d="M255.936 56.035h-.055V140.2h.056c9.862 0 18.956.378 27.44.995 32.576 1.882 71.283 7.267 92.56 18.84v-64c0-27.484-62.203-40-120-40z" fill="#68748D"/><path d="M255.882 100.364v16h.055c77.945 0 120 17.03 120 24v-20.33c-27.77-15.104-85.284-19.67-120-19.67h-.055z" fill="#5D647F"/><path d="M423.882 256.035h-16c-4.418 0-8-3.582-8-8v-32c0-8.837 7.163-16 16-16s16 7.163 16 16v32c0 4.418-3.582 8-8 8z" fill="#FFE671"/><path d="M399.882 216.035v32c0 4.418 3.582 8 8 8h8v-56c-8.837 0-16 7.163-16 16z" fill="#FFCD00"/><path d="M95.938 458.382c0-16.974-6.743-33.252-18.745-45.255L41.667 377.6c-16.948 16.802-25.73 40.394-25.73 61.42v43.835c0 16 14.352 29.016 32 29.016H95.94v-53.488h-.002z" fill="#B4B6BC"/><g><path d="M470.136 377.676l-35.45 35.452c-12.004 12.002-18.747 28.28-18.747 45.255v53.49h47.997c17.648 0 32-13.017 32-29.017V439.02c0-20.975-8.743-44.504-25.8-61.344z" fill="#B4B6BC"/></g><g><path fill="#009BCA" d="M229.16 439.882l-3.234 19.393 52.59 52.596h16.196l-1.285-7.714"/></g><g><path fill="#009BCA" d="M218.784 502.132l9.738 9.74h22.625l-29.13-29.133"/></g></symbol><symbol id="shape-icon-simcard" viewBox="0 0 995 768"><path d="M734.487 724.576V131.7c0-11.214-4.552-21.343-11.887-28.686L624.146 14.74c-7.354-7.344-17.486-11.88-28.683-11.88H288.176c-2.8 0-5.542.286-8.192.827-2.613.546-5.17 1.348-7.595 2.36-4.872 2.058-9.238 5.03-12.896 8.69-7.333 7.344-11.868 17.496-11.868 28.688v681.15c0 22.406 18.157 40.562 40.55 40.562H693.92c22.41.002 40.567-18.155 40.567-40.56zM583.97 168.724c34.187.01 61.88 27.74 61.88 61.917v33.348l-71.695-.032.02-95.23h9.794zm-33.814-.014l-.02 95.208-47.062.014.056-95.245 47.026.023zm-71.098 95.23l-47.044-.03V168.7l47.062.01-.018 95.23zM336.303 479.987l-.02-249.406c.038-34.233 27.693-61.894 61.918-61.903H408l-.018 100.755v18.544h237.87V480.01l-309.547-.024zm61.822 119.29c-34.224.015-61.898-27.74-61.86-61.962l-.02-33.314 71.715.012-.038 95.28-9.797-.015zm33.814-.008l.074-95.223 46.97-.033v95.303l-47.045-.047zm71.134.023l-.037-95.245 47.007.016.037 95.255-47.006-.024zm70.987.01l.057-95.263 71.658.033.036 33.328c0 34.186-27.747 61.926-61.934 61.926l-9.815-.023z"/></symbol><symbol id="shape-icon-smartphone" viewBox="0 0 58 58"><path d="M41.595 58h-25.19C14.525 58 13 56.475 13 54.595V3.405C13 1.525 14.525 0 16.405 0h25.19C43.474 0 45 1.525 45 3.405v51.19C45 56.474 43.475 58 41.595 58z" fill="#424A60"/><path fill="#E7ECED" d="M13 6h32v40H13z"/><circle cx="29" cy="52" r="3" fill="#262B35"/><path d="M29 4h-4c-.553 0-1-.447-1-1s.447-1 1-1h4c.553 0 1 .447 1 1s-.447 1-1 1zM33 4h-1c-.553 0-1-.447-1-1s.447-1 1-1h1c.553 0 1 .447 1 1s-.447 1-1 1z" fill="#262B35"/><path d="M30.962 17.02h-3.924c-.573 0-1.038-.466-1.038-1.04v-3.923c0-.573.465-1.038 1.038-1.038h3.924c.573 0 1.038.464 1.038 1.037v3.924c0 .574-.465 1.04-1.038 1.04z" fill="#3083C9"/><path d="M21.962 17.02h-3.924c-.573 0-1.038-.466-1.038-1.04v-3.923c0-.573.465-1.038 1.038-1.038h3.924c.573 0 1.038.464 1.038 1.037v3.924c0 .574-.465 1.04-1.038 1.04z" fill="#88C057"/><path d="M39.962 17.02h-3.924c-.573 0-1.038-.466-1.038-1.04v-3.923c0-.573.465-1.038 1.038-1.038h3.924c.573 0 1.038.464 1.038 1.037v3.924c0 .574-.465 1.04-1.038 1.04z" fill="#DC691D"/><path d="M30.962 26h-3.924C26.465 26 26 25.535 26 24.962v-3.924c0-.573.465-1.038 1.038-1.038h3.924c.573 0 1.038.465 1.038 1.038v3.924c0 .573-.465 1.038-1.038 1.038z" fill="#EBBA16"/><path d="M21.962 26h-3.924C17.465 26 17 25.535 17 24.962v-3.924c0-.573.465-1.038 1.038-1.038h3.924c.573 0 1.038.465 1.038 1.038v3.924c0 .573-.465 1.038-1.038 1.038z" fill="#7383BF"/><path d="M39.962 26h-3.924C35.465 26 35 25.535 35 24.962v-3.924c0-.573.465-1.038 1.038-1.038h3.924c.573 0 1.038.465 1.038 1.038v3.924c0 .573-.465 1.038-1.038 1.038z" fill="#DD352E"/><path d="M30.962 35h-3.924C26.465 35 26 34.535 26 33.962v-3.924c0-.573.465-1.038 1.038-1.038h3.924c.573 0 1.038.465 1.038 1.038v3.924c0 .573-.465 1.038-1.038 1.038z" fill="#A485BE"/><path d="M21.962 35h-3.924C17.465 35 17 34.535 17 33.962v-3.924c0-.573.465-1.038 1.038-1.038h3.924c.573 0 1.038.465 1.038 1.038v3.924c0 .573-.465 1.038-1.038 1.038z" fill="#EA6248"/><path d="M39.962 35h-3.924C35.465 35 35 34.535 35 33.962v-3.924c0-.573.465-1.038 1.038-1.038h3.924c.573 0 1.038.465 1.038 1.038v3.924c0 .573-.465 1.038-1.038 1.038z" fill="#25AE88"/></symbol><symbol id="shape-icon-split" viewBox="0 0 486.8 486.8"><path d="M140.35 32c0-17.6-14.4-32-32-32h-76.3c-17.6 0-32 14.4-32 32v76.2c0 17.6 14.4 32 32 32h76.2c17.6 0 32-14.4 32-32V32h.1zm-24.5 76.3c0 4.1-3.4 7.5-7.5 7.5h-76.3c-4.1 0-7.5-3.4-7.5-7.5V32c0-4.1 3.4-7.5 7.5-7.5h76.2c4.1 0 7.5 3.4 7.5 7.5v76.3h.1zM140.35 205.3c0-17.6-14.4-32-32-32h-76.3c-17.6 0-32 14.4-32 32v76.2c0 17.6 14.4 32 32 32h76.2c17.6 0 32-14.4 32-32v-76.2h.1zm-24.5 76.2c0 4.1-3.4 7.5-7.5 7.5h-76.3c-4.1 0-7.5-3.4-7.5-7.5v-76.2c0-4.1 3.4-7.5 7.5-7.5h76.2c4.1 0 7.5 3.4 7.5 7.5v76.2h.1zM108.35 346.5h-76.3c-17.6 0-32 14.4-32 32v76.2c0 17.6 14.4 32 32 32h76.2c17.6 0 32-14.4 32-32v-76.2c.1-17.6-14.3-32-31.9-32zm7.5 108.3c0 4.1-3.4 7.5-7.5 7.5h-76.3c-4.1 0-7.5-3.4-7.5-7.5v-76.2c0-4.1 3.4-7.5 7.5-7.5h76.2c4.1 0 7.5 3.4 7.5 7.5v76.2h.1zM173.35 281.5c0 17.6 14.4 32 32 32h76.2c17.6 0 32-14.4 32-32v-76.2c0-17.6-14.4-32-32-32h-76.2c-17.6 0-32 14.4-32 32v76.2zm24.5-76.2c0-4.1 3.4-7.5 7.5-7.5h76.2c4.1 0 7.5 3.4 7.5 7.5v76.2c0 4.1-3.4 7.5-7.5 7.5h-76.2c-4.1 0-7.5-3.4-7.5-7.5v-76.2zM173.35 454.8c0 17.6 14.4 32 32 32h76.2c17.6 0 32-14.4 32-32v-76.2c0-17.6-14.4-32-32-32h-76.2c-17.6 0-32 14.4-32 32v76.2zm24.5-76.3c0-4.1 3.4-7.5 7.5-7.5h76.2c4.1 0 7.5 3.4 7.5 7.5v76.2c0 4.1-3.4 7.5-7.5 7.5h-76.2c-4.1 0-7.5-3.4-7.5-7.5v-76.2zM346.55 281.5c0 17.6 14.4 32 32 32h76.2c17.6 0 32-14.4 32-32v-76.2c0-17.6-14.4-32-32-32h-76.2c-17.6 0-32 14.4-32 32v76.2zm24.5-76.2c0-4.1 3.4-7.5 7.5-7.5h76.2c4.1 0 7.5 3.4 7.5 7.5v76.2c0 4.1-3.4 7.5-7.5 7.5h-76.2c-4.1 0-7.5-3.4-7.5-7.5v-76.2zM346.55 454.8c0 17.6 14.4 32 32 32h76.2c17.6 0 32-14.4 32-32v-76.2c0-17.6-14.4-32-32-32h-76.2c-17.6 0-32 14.4-32 32v76.2zm24.5-76.3c0-4.1 3.4-7.5 7.5-7.5h76.2c4.1 0 7.5 3.4 7.5 7.5v76.2c0 4.1-3.4 7.5-7.5 7.5h-76.2c-4.1 0-7.5-3.4-7.5-7.5v-76.2zM173.35 32v76.2c0 17.6 14.4 32 32 32h76.2c17.6 0 32-14.4 32-32V32c0-17.6-14.4-32-32-32h-76.2c-17.7 0-32 14.4-32 32zm24.5 0c0-4.1 3.4-7.5 7.5-7.5h76.2c4.1 0 7.5 3.4 7.5 7.5v76.2c0 4.1-3.4 7.5-7.5 7.5h-76.2c-4.1 0-7.5-3.4-7.5-7.5V32zM378.55 140.3h76.2c17.6 0 32-14.4 32-32V32c0-17.6-14.4-32-32-32h-76.2c-17.6 0-32 14.4-32 32v76.2c0 17.7 14.4 32.1 32 32.1zM371.05 32c0-4.1 3.4-7.5 7.5-7.5h76.2c4.1 0 7.5 3.4 7.5 7.5v76.2c0 4.1-3.4 7.5-7.5 7.5h-76.2c-4.1 0-7.5-3.4-7.5-7.5V32z"/></symbol><symbol id="shape-icon-star" viewBox="0 0 55.867 55.867"><path d="M11.287 54.548c-.207 0-.414-.064-.588-.19-.31-.225-.463-.604-.398-.98l3.09-18.017L.303 22.603c-.272-.266-.37-.663-.253-1.024.117-.362.43-.626.807-.68l18.09-2.63 8.09-16.393c.17-.342.517-.558.897-.558s.73.216.896.558l8.09 16.393 18.09 2.63c.378.054.69.317.81.68.116.36.02.76-.254 1.024l-13.09 12.76 3.09 18.018c.063.375-.09.754-.398.978-.308.226-.717.255-1.054.076l-16.18-8.506-16.182 8.506c-.146.076-.306.114-.465.114zM3.15 22.584l12.015 11.713c.235.23.343.56.287.885L12.615 51.72l14.854-7.808c.29-.154.637-.154.93 0l14.852 7.808-2.836-16.538c-.056-.324.052-.655.287-.885L52.72 22.584 36.113 20.17c-.326-.046-.607-.25-.753-.546L27.935 4.578l-7.427 15.047c-.146.295-.427.5-.753.547L3.15 22.584z"/></symbol><symbol id="shape-icon-trash" viewBox="0 0 59 59"><path d="M29.5 51c.552 0 1-.447 1-1V17c0-.553-.448-1-1-1s-1 .447-1 1v33c0 .553.448 1 1 1zM19.5 51c.552 0 1-.447 1-1V17c0-.553-.448-1-1-1s-1 .447-1 1v33c0 .553.448 1 1 1zM39.5 51c.552 0 1-.447 1-1V17c0-.553-.448-1-1-1s-1 .447-1 1v33c0 .553.448 1 1 1z"/><path d="M52.5 6H38.456c-.11-1.25-.495-3.358-1.813-4.71C35.81.433 34.75 0 33.5 0h-10c-1.252 0-2.31.434-3.144 1.29C19.038 2.64 18.653 4.75 18.543 6H6.5c-.552 0-1 .447-1 1s.448 1 1 1h2.04l1.916 46.02c.037 1.723 1.11 4.98 4.908 4.98h28.272c3.8 0 4.87-3.257 4.907-4.958L50.46 8h2.04c.552 0 1-.447 1-1s-.448-1-1-1zM21.792 2.68C22.24 2.224 22.8 2 23.5 2h10c.7 0 1.26.223 1.707.68.805.824 1.128 2.272 1.24 3.32H20.553c.112-1.048.435-2.496 1.24-3.32zm24.752 51.3c-.006.308-.144 3.02-2.908 3.02H15.364c-2.734 0-2.898-2.717-2.91-3.042L10.543 8h37.915l-1.913 45.98z"/></symbol><symbol id="shape-icon-warning-bubble" viewBox="15 0 70 64"><path d="M15.875 27.098C15.875 41.822 31.168 53.82 50 53.82c1.26 0 2.522-.04 3.823-.16l18.018 9.68c.328.202.733.283 1.14.283.487 0 1.017-.12 1.424-.448.773-.527 1.14-1.464.976-2.4l-2.44-13.868c7.12-5.084 11.187-12.202 11.187-19.808C84.125 12.374 68.832.375 50 .375s-34.125 12-34.125 26.722zm4.922 0c0-12.04 13.137-21.842 29.244-21.842s29.244 9.803 29.244 21.842c0 6.386-3.74 12.406-10.29 16.594-.853.53-1.26 1.506-1.098 2.48l1.83 10.454L55.49 48.98c-.445-.243-.936-.324-1.423-.285-1.383.123-2.766.204-4.066.204-16.107 0-29.203-9.762-29.203-21.802z"/><path d="M47.756 13.5h6.87V32h-6.87z"/><circle cx="51.191" cy="37.688" r="3.562"/></symbol><symbol id="shape-icon-wifi" viewBox="0 0 54.908 54.908"><path d="M54.615 19.123C47.372 11.88 37.725 7.89 27.455 7.89S7.536 11.878.292 19.123c-.39.39-.39 1.023 0 1.414s1.023.39 1.414 0C8.573 13.67 17.717 9.89 27.454 9.89s18.88 3.78 25.747 10.646c.196.195.452.293.708.293s.512-.1.707-.294c.39-.39.39-1.023 0-1.413z"/><path d="M6.17 25c-.39.39-.39 1.023 0 1.414.196.195.452.293.708.293s.512-.098.707-.293c10.955-10.956 28.78-10.956 39.737 0 .39.39 1.023.39 1.414 0s.39-1.023 0-1.414C37.002 13.266 17.906 13.264 6.17 25z"/><path d="M27.454 24.508c-5.825 0-11.295 2.263-15.404 6.37-.39.392-.39 1.024 0 1.415s1.023.39 1.414 0c3.73-3.73 8.7-5.785 13.99-5.785 5.29 0 10.26 2.055 13.99 5.785.195.195.45.293.707.293s.513-.098.708-.293c.39-.39.39-1.023 0-1.414-4.108-4.11-9.58-6.372-15.404-6.372zM27.454 33.916c-3.612 0-6.55 2.94-6.55 6.552s2.938 6.552 6.55 6.552c3.613 0 6.552-2.94 6.552-6.552s-2.94-6.552-6.552-6.552z"/></symbol></svg>