<?xml version="1.0" encoding="utf-8"?>
<!-- Generator: Adobe Illustrator 19.0.1, SVG Export Plug-In . SVG Version: 6.00 Build 0)  -->
<svg version="1.1" id="Calque_1" xmlns="http://www.w3.org/2000/svg" xmlns:xlink="http://www.w3.org/1999/xlink" x="0px" y="0px"
	 viewBox="0 0 445.7 47.4" style="enable-background:new 0 0 445.7 47.4;" xml:space="preserve">
<style type="text/css">
	.st0{display:none;}
	.st1{display:inline;}
	.st2{fill:#009DCC;}
</style>
<g class="st0">
	<g class="st1">
		<path class="st2" d="M389.3-64.3c-8.5,0-15.4,6.9-15.4,15.4c0,8.7,7.3,15.8,16.1,15.4c7.8-0.4,14.3-6.8,14.7-14.6
			C405.1-57,398.1-64.3,389.3-64.3z M389.3-39.3c-5.2,0-9.4-4.3-9.4-9.5c0-5.3,4.2-9.6,9.3-9.6c5.2,0,9.4,4.3,9.4,9.5
			C398.7-43.6,394.5-39.3,389.3-39.3z"/>
		<path class="st2" d="M270.3-58.4c-6,0-8.9,4.6-8.9,11V-34h-6.6v-13.4c0-10.5,6.8-16.9,16.2-16.9c9.3,0,14.8,6.8,14.8,16.9V-34
			h-6.6v-13.5C279.2-53.7,276.8-58.4,270.3-58.4z"/>
		<path class="st2" d="M422.1-58.4c-6,0-8.9,4.6-8.9,11V-34h-6.5v-13.4c0-10.5,6.8-16.9,16.2-16.9c9.3,0,14.8,6.8,14.8,16.9V-34
			h-6.6v-13.5C431.1-53.7,428.7-58.4,422.1-58.4z"/>
		<path class="st2" d="M343.2-48.9c0-8.5-6.9-15.4-15.4-15.4c-8.5,0-15.4,7.4-15.4,15.9c0,8.5,6.9,14.9,15.4,14.9
			c3.6,0,7.7-1.8,9.5-4.3v3.8l5.9,0V-48.9z M327.8-39.3c-5.1,0-9.2-4.3-9.2-9.5c0-5.3,4.1-9.6,9.2-9.6c5.1,0,9.2,4.3,9.2,9.5
			C337-43.6,332.9-39.3,327.8-39.3z"/>
		<path class="st2" d="M345.1-71.8v26.1c0,9.2,5.9,14.6,18.6,11.1l-1.4-5.3c-6.6,2.2-10.9-0.2-10.9-7.2c0,0,0-7.4,0-11.5h10.6v-5.3
			h-10.6v-8H345.1z"/>
		<g>
			<path class="st2" d="M369.7-70.2c1.4-0.3,2.5-1.4,2.8-2.8c0.6-2.5-1.3-4.7-3.7-4.7c-2.1,0-3.8,1.7-3.8,3.8
				C365-71.5,367.2-69.7,369.7-70.2z"/>
			<polygon class="st2" points="372,-34 372,-63.8 365.7,-63.8 365.7,-34 			"/>
		</g>
		<path class="st2" d="M206.6-39.6c5.8,0,7.9-3.8,7.9-7.1c0-9.7-22.6-5.8-22.6-20.2c0-6.8,4.3-12.7,14.5-12.7
			c4.6,0,8.6,0.8,12.6,2.1l-1.5,6.1c-4.6-1.4-7.7-2.1-12-2.1c-4.8,0-6.7,2.7-6.7,5.2c0,10.3,22.8,6.7,22.8,20.5
			c0,8-5,14.3-14.8,14.3c-4.7,0-10.5-0.9-15-3.3l2.2-5.8C198.9-40.4,202.6-39.6,206.6-39.6z"/>
		<path class="st2" d="M294.3-56.1c0-1.6,1.2-2.9,4.7-2.9c3.1,0,6.2,0.9,8.9,2.4l1.9-5.1c-2.8-1.5-6.4-2.5-10-2.5
			c-8.1,0-11.6,4.3-11.6,8.8c0,10.2,17.2,7.2,17.2,12.8c0,2.1-2,4-6,4c-3.2,0-6.2-0.9-9.4-2.7l-2,4.9c3.4,2.1,7.4,3,11.8,3
			c7.7,0,11.8-4.2,11.8-9.5C311.3-53.9,294.3-51.2,294.3-56.1z"/>
		<path class="st2" d="M252.5-53.6c-1.4-6.4-6.8-10.7-13.7-10.7c-8.5,0-15.1,6.9-15.1,15.4c0,8.7,7,15.4,15.8,15.4
			c4.4,0,8.9-1.4,11.9-4.1l-3-4.6c-2.2,2-5.1,3.1-8.4,3.1c-4.8,0-9.5-3.7-10.2-7.8c0,0,12,0,17.3,0C252.6-47,253.5-48.8,252.5-53.6z
			 M245.1-52c-1.1,0-15.1,0-15.1,0c1.3-3.7,4.6-6.4,8.8-6.4c4.1,0,6.5,2.1,7.3,4.9C246.4-52.6,246.3-52,245.1-52z"/>
	</g>
</g>
<g>
	<g>
		<path class="st2" d="M397.3,16.6c-8.5,0-15.4,6.9-15.4,15.4c0,8.7,7.3,15.8,16.1,15.4c7.8-0.4,14.3-6.8,14.7-14.6
			C413.1,23.9,406.1,16.6,397.3,16.6z M397.3,41.6c-5.2,0-9.4-4.3-9.4-9.5c0-5.3,4.2-9.6,9.3-9.6c5.2,0,9.4,4.3,9.4,9.5
			C406.7,37.3,402.5,41.6,397.3,41.6z"/>
		<path class="st2" d="M278.3,22.5c-6,0-8.9,4.6-8.9,11V47h-6.6V33.5c0-10.5,6.8-16.9,16.2-16.9c9.3,0,14.8,6.8,14.8,16.9V47h-6.6
			V33.5C287.2,27.2,284.8,22.5,278.3,22.5z"/>
		<path class="st2" d="M430.1,22.5c-6,0-8.9,4.6-8.9,11V47h-6.5V33.5c0-10.5,6.8-16.9,16.2-16.9c9.3,0,14.8,6.8,14.8,16.9V47h-6.6
			V33.5C439.1,27.2,436.7,22.5,430.1,22.5z"/>
		<path class="st2" d="M351.2,32c0-8.5-6.9-15.4-15.4-15.4c-8.5,0-15.4,7.4-15.4,15.9c0,8.5,6.9,14.9,15.4,14.9
			c3.6,0,7.7-1.8,9.5-4.3v3.8l5.9,0V32z M335.8,41.6c-5.1,0-9.2-4.3-9.2-9.5c0-5.3,4.1-9.6,9.2-9.6c5.1,0,9.2,4.3,9.2,9.5
			C345,37.3,340.9,41.6,335.8,41.6z"/>
		<path class="st2" d="M353.1,9.1v26.1c0,9.2,5.9,14.6,18.6,11.1l-1.4-5.3c-6.6,2.2-10.9-0.2-10.9-7.2c0,0,0-7.4,0-11.5h10.6v-5.3
			h-10.6v-8H353.1z"/>
		<g>
			<path class="st2" d="M377.7,10.7c1.4-0.3,2.5-1.4,2.8-2.8c0.6-2.5-1.3-4.7-3.7-4.7c-2.1,0-3.8,1.7-3.8,3.8
				C373,9.4,375.2,11.2,377.7,10.7z"/>
			<polygon class="st2" points="380,47 380,17.1 373.7,17.1 373.7,47 			"/>
		</g>
		<path class="st2" d="M214.6,41.3c5.8,0,7.9-3.8,7.9-7.1c0-9.7-22.6-5.8-22.6-20.2c0-6.8,4.3-12.7,14.5-12.7
			c4.6,0,8.6,0.8,12.6,2.1l-1.5,6.1c-4.6-1.4-7.7-2.1-12-2.1c-4.8,0-6.7,2.7-6.7,5.2c0,10.3,22.8,6.7,22.8,20.5
			c0,8-5,14.3-14.8,14.3c-4.7,0-10.5-0.9-15-3.3l2.2-5.8C206.9,40.5,210.6,41.3,214.6,41.3z"/>
		<path class="st2" d="M302.3,24.8c0-1.6,1.2-2.9,4.7-2.9c3.1,0,6.2,0.9,8.9,2.4l1.9-5.1c-2.8-1.5-6.4-2.5-10-2.5
			c-8.1,0-11.6,4.3-11.6,8.8c0,10.2,17.2,7.2,17.2,12.8c0,2.1-2,4-6,4c-3.2,0-6.2-0.9-9.4-2.7l-2,4.9c3.4,2.1,7.4,3,11.8,3
			c7.7,0,11.8-4.2,11.8-9.5C319.3,27,302.3,29.7,302.3,24.8z"/>
		<path class="st2" d="M260.5,27.3c-1.4-6.4-6.8-10.7-13.7-10.7c-8.5,0-15.1,6.9-15.1,15.4c0,8.7,7,15.4,15.8,15.4
			c4.4,0,8.9-1.4,11.9-4.1l-3-4.6c-2.2,2-5.1,3.1-8.4,3.1c-4.8,0-9.5-3.7-10.2-7.8c0,0,12,0,17.3,0
			C260.6,33.9,261.5,32.1,260.5,27.3z M253.1,28.9c-1.1,0-15.1,0-15.1,0c1.3-3.7,4.6-6.4,8.8-6.4c4.1,0,6.5,2.1,7.3,4.9
			C254.4,28.3,254.3,28.9,253.1,28.9z"/>
	</g>
</g>
<g class="st0">
	<g class="st1">
		<g>
			<path class="st2" d="M131-33.4c8,0,12-6.9,12-6.9v6.4l3.8,0v-15.6c0-8.8-7.1-16-15.8-16c-8.6,0-15.8,7.6-15.8,16.7
				C115.2-40.2,122-33.4,131-33.4z M131-37.2c-6.4,0-11.6-5.5-11.6-12.2c0-6.6,5.4-12.3,11.6-12.3h0c6.4,0,11.6,5.5,11.6,12.2
				C142.6-42.8,137.4-37.3,131-37.2z"/>
		</g>
		<g>
			<path class="st2" d="M163.6-74v28.2c0,4.1,0.9,7.3,3,9.4c2.9,3,7.5,3.7,14,2.2l-0.8-3.5c-8.1,2.1-12.1-0.5-12.1-9.2v-14.9H179
				v-3.3h-11.3V-74H163.6z"/>
		</g>
		<g>
			<path class="st2" d="M104.7-33.9h4v-27.9h7.8v-3.3h-7.8l0-1.2c0-7.6,2.2-11.5,10.3-9.2l0.9-3.3c-1.8-0.4-3.3-0.7-4.8-0.7
				c-6.3,0-10.3,4.4-10.3,13.2v1.2h-3.9v3.3h3.9V-33.9z"/>
		</g>
		<g>
			<path class="st2" d="M78.9-33.9H83V-53c0-6.3,2-8.9,8-8.9c1.6,0,3.5,0.3,5.5,0.8l0.9-3.7c-2.5-0.6-4.4-0.8-6.4-0.8
				c-8.9,0-12.1,4.5-12.1,12V-33.9z"/>
		</g>
		<g>
			<rect x="152.5" y="-65.1" class="st2" width="4.1" height="31.2"/>
			<path class="st2" d="M157.3-76c0-1.6-1.3-2.9-2.9-2.9s-2.9,1.3-2.9,2.9c0,1.6,1.3,2.9,2.9,2.9S157.3-74.4,157.3-76z"/>
		</g>
		<path class="st2" d="M59.8-65.5c-8.7,0-15.7,7.2-15.7,16.1c0,8.9,7,16.1,15.7,16.1c8.7,0,15.7-7.2,15.7-16.1
			C75.5-58.4,68.5-65.5,59.8-65.5z M59.8-37c-6.6,0-12-5.6-12-12.5c0-6.9,5.4-12.5,12-12.5c6.6,0,12,5.6,12,12.5
			C71.8-42.6,66.4-37,59.8-37z"/>
		<path class="st2" d="M23.7-33.9v-21.9h18.5v-3.6H23.7c0,0,0-7.1,0-11.6c0-3.8,0.9-5.2,4.6-5.2c2.9,0,15.9,0,15.9,0v-3.8
			c0,0-11.9,0-16,0c-6.3,0-8.6,2.8-8.6,8.7c0,4.6,0,6.8,0,37.4H23.7z"/>
	</g>
</g>
<g>
	<g>
		<g>
			<path class="st2" d="M111.5,46.6c8,0,12-6.9,12-6.9v6.4l3.8,0V30.5c0-8.8-7.1-16-15.8-16c-8.6,0-15.8,7.6-15.8,16.7
				C95.7,39.8,102.4,46.6,111.5,46.6z M111.5,42.8c-6.4,0-11.6-5.5-11.6-12.2c0-6.6,5.4-12.3,11.6-12.3h0c6.4,0,11.6,5.5,11.6,12.2
				C123.1,37.3,117.9,42.8,111.5,42.8z"/>
		</g>
		<g>
			<path class="st2" d="M144,6.1v28.2c0,4.1,0.9,7.3,3,9.4c2.9,3,7.5,3.7,14,2.2l-0.8-3.5c-8.1,2.1-12.1-0.5-12.1-9.2V18.3h11.3
				v-3.3h-11.3V6.1H144z"/>
		</g>
		<g>
			<path class="st2" d="M85.1,46.2h4V18.3h7.8V15h-7.8l0-1.2c0-7.6,2.2-11.5,10.3-9.2l0.9-3.3c-1.8-0.4-3.3-0.7-4.8-0.7
				c-6.3,0-10.3,4.4-10.3,13.2V15h-3.9v3.3h3.9L85.1,46.2L85.1,46.2z"/>
		</g>
		<g>
			<path class="st2" d="M59.4,46.2h4.1V27c0-6.3,2-8.9,8-8.9c1.6,0,3.5,0.3,5.5,0.8l0.9-3.7c-2.5-0.6-4.4-0.8-6.4-0.8
				c-8.9,0-12.1,4.5-12.1,12V46.2z"/>
		</g>
		<g>
			<rect x="132.9" y="15" class="st2" width="4.1" height="31.2"/>
			<path class="st2" d="M137.8,4c0-1.6-1.3-2.9-2.9-2.9c-1.6,0-2.9,1.3-2.9,2.9c0,1.6,1.3,2.9,2.9,2.9C136.5,7,137.8,5.7,137.8,4z"
				/>
		</g>
		<path class="st2" d="M40.3,14.5c-8.7,0-15.7,7.2-15.7,16.1c0,8.9,7,16.1,15.7,16.1C49,46.6,56,39.4,56,30.6S49,14.5,40.3,14.5z
			 M40.3,43.1c-6.6,0-12-5.6-12-12.5c0-6.9,5.4-12.5,12-12.5s12,5.6,12,12.5C52.3,37.5,46.9,43.1,40.3,43.1z"/>
		<path class="st2" d="M4.2,46.2V24.2h18.5v-3.6H4.2c0,0,0-7.1,0-11.6c0-3.8,0.9-5.2,4.6-5.2c2.9,0,15.9,0,15.9,0V0c0,0-11.9,0-16,0
			C2.3,0,0,2.8,0,8.7c0,4.6,0,6.8,0,37.4H4.2z"/>
	</g>
	<path class="st2" d="M164.3,44.2c2.8,1.5,6.5,2.5,10.7,2.5c6.5,0,10.9-3.7,10.9-9.4c0-5.9-4.3-7.7-10.2-9.4c-3.7-1.1-7-2.1-7-5.5
		c0-1.4,0.6-4.4,5.9-4.4c3.2,0,5.9,0.7,8.6,2.1l1.1-3.4c-2.8-1.4-6.1-2.1-8.9-2.1c-7.4,0-10.7,3.9-10.7,8.6c0,5.2,4.2,6.8,10,8.4
		c4,1.2,7.4,2.3,7.4,6c0,2.9-2.3,5.6-7.3,5.6c-3.1,0-6.6-1-9.3-2.5L164.3,44.2z"/>
</g>
</svg>
