<?xml version="1.0" encoding="utf-8"?>
<!-- Generator: Adobe Illustrator 16.0.0, SVG Export Plug-In . SVG Version: 6.00 Build 0)  -->
<!DOCTYPE svg PUBLIC "-//W3C//DTD SVG 1.1//EN" "http://www.w3.org/Graphics/SVG/1.1/DTD/svg11.dtd">
<svg version="1.1" id="Layer_1" xmlns="http://www.w3.org/2000/svg" xmlns:xlink="http://www.w3.org/1999/xlink" x="0px" y="0px"
	 width="254px" height="254px" viewBox="0 0 254 254" enable-background="new 0 0 254 254" xml:space="preserve">
<g>
	<g>
		<rect x="1.546" y="115.388" width="21.739" height="5.472"/>
		<rect x="1.546" y="131.807" width="21.739" height="5.474"/>
		<rect x="228.8" y="115.388" width="21.737" height="5.472"/>
		<rect x="228.8" y="131.807" width="21.737" height="5.474"/>
		<rect x="131.732" y="1.678" width="5.473" height="21.739"/>
		<rect x="115.314" y="1.678" width="5.473" height="21.739"/>
		<rect x="131.732" y="228.93" width="5.473" height="21.737"/>
		<rect x="115.314" y="228.93" width="5.473" height="21.737"/>
		<path d="M2.594,110.4h5.507C15.241,57.521,57.307,15.579,110.269,8.54V3.023
			C54.284,10.132,9.801,54.506,2.594,110.4z"/>
		<path d="M8.123,142.326H2.608c7.204,55.899,51.681,100.276,107.661,107.389v-5.51
			C57.309,237.167,15.261,195.206,8.123,142.326z"/>
		<path d="M243.981,110.4h5.507C242.3,54.629,198,10.331,142.195,3.073v5.515
			C194.979,15.778,236.861,57.649,243.981,110.4z"/>
		<path d="M142.195,244.135v5.517c55.806-7.258,100.105-51.556,107.296-107.325h-5.51
			C236.861,195.076,194.98,236.947,142.195,244.135z"/>
	</g>
	<g>
		<path d="M169.738,158.715v-0.162c0-9.365-12.846-16.801-31.295-18.992v-20.838
			c9.855-4.349,16.738-14.199,16.738-25.663c0-15.489-12.557-28.043-28.048-28.043c-15.489,0-28.044,12.555-28.044,28.043
			c0,11.465,6.883,21.315,16.737,25.664v20.804c-18.213,2.102-31.03,9.305-31.556,18.443h-0.03l0.001,0.561
			c0,0.008-0.001,0.016-0.001,0.023h0.001l0.014,6.119l0.047,5.193l0.006,0.172c0.775,10.801,19.122,18.945,42.678,18.945
			c24.373,0,42.751-8.451,42.751-19.658l0.004-0.652C169.77,161.281,169.762,159.344,169.738,158.715 M107.625,85.834
			c-2.101-2.1-1.177-6.428,2.058-9.663c3.237-3.238,7.562-4.159,9.662-2.057c2.102,2.099,1.178,6.424-2.059,9.662
			C114.051,87.011,109.727,87.933,107.625,85.834 M127.133,121.103c1.98,0,3.914-0.208,5.777-0.598v36.943l-0.006,0.75
			c-0.594,0.521-2.686,1.359-5.771,1.359c-3.087,0-5.178-0.84-5.766-1.361l-0.007-37.689
			C123.225,120.896,125.154,121.103,127.133,121.103 M89.776,158.535c0.021-5.469,10.29-11.439,26.051-13.42v3.961
			c-10.665,1.504-18.175,5.092-18.175,9.283c0,5.549,13.133,10.043,29.335,10.043c16.208,0,29.341-4.494,29.341-10.043
			c0-4.154-7.373-7.715-17.885-9.242v-3.963c15.613,2.018,25.762,7.959,25.762,13.398v0.201l0.002,0.023
			c-0.314,7.961-17.223,14.645-37.214,14.645c-20.104,0-37.092-6.76-37.216-14.781L89.776,158.535z M164.209,168.652l-0.004,0.674
			c0,6.68-15.285,14.123-37.218,14.123c-10.107,0-19.621-1.623-26.786-4.57c-6.215-2.559-10.082-5.975-10.366-9.158l-0.042-4.588
			c5.801,6.537,20.078,11.057,37.199,11.057c17.144,0,31.439-4.529,37.226-11.08C164.217,166.119,164.213,167.291,164.209,168.652"
			/>
	</g>
</g>
</svg>
