<?xml version="1.0" encoding="UTF-8" standalone="no"?>
<svg width="40px" height="32px" viewBox="0 0 40 32" version="1.1" xmlns="http://www.w3.org/2000/svg" xmlns:xlink="http://www.w3.org/1999/xlink" xmlns:sketch="http://www.bohemiancoding.com/sketch/ns">
    <!-- Generator: Sketch 3.1.1 (8761) - http://www.bohemiancoding.com/sketch -->
    <title>icon-derniersphone@1x</title>
    <desc></desc>
    <defs></defs>
    <g id="Page-1" stroke="none" stroke-width="1"  fill-rule="evenodd" >
        <g id="icon-derniersphone">
            <path d="M7.36454545,8.29333333 C4.72181818,8.29333333 2.80545455,10.0568889 2.08090909,12.5137778 L1.03909091,12.5137778 C0.592727273,12.5137778 0.238181818,12.8577778 0.238181818,13.2951111 C0.238181818,13.7128889 0.592727273,14.0595556 1.03909091,14.0595556 L1.78272727,14.0595556 C1.74545455,14.3315556 1.74545455,14.6231111 1.74545455,14.896 C1.74545455,15.1315556 1.74545455,15.368 1.76363636,15.5866667 L1.03909091,15.5866667 C0.592727273,15.5866667 0.238181818,15.9511111 0.238181818,16.3697778 C0.238181818,16.8053333 0.592727273,17.1511111 1.03909091,17.1511111 L2.04363636,17.1511111 C2.74909091,19.7342222 4.68454545,21.4631111 7.43909091,21.4631111 C9.35363636,21.4631111 10.6018182,20.608 11.6054545,19.3333333 C11.7172727,19.2062222 11.8290909,18.9706667 11.8290909,18.6986667 C11.8290909,18.1511111 11.3636364,17.7155556 10.8045455,17.7155556 C10.4509091,17.7155556 10.1918182,17.8613333 10.0054545,18.0782222 C9.29818182,18.9333333 8.57363636,19.4595556 7.45727273,19.4595556 C5.98727273,19.4595556 4.92727273,18.6062222 4.40545455,17.1511111 L7.75454545,17.1511111 C8.18181818,17.1511111 8.53636364,16.8053333 8.53636364,16.3697778 C8.53636364,15.9511111 8.18181818,15.5866667 7.75454545,15.5866667 L4.07181818,15.5866667 C4.05181818,15.3484444 4.05181818,15.1146667 4.05181818,14.8595556 C4.05181818,14.5875556 4.05181818,14.3146667 4.08909091,14.0595556 L7.75454545,14.0595556 C8.18181818,14.0595556 8.53636364,13.7128889 8.53636364,13.2951111 C8.53636364,12.8577778 8.18181818,12.5137778 7.75454545,12.5137778 L4.44181818,12.5137778 C4.96454545,11.1493333 5.96818182,10.2933333 7.30818182,10.2933333 C8.46181818,10.2933333 9.18727273,10.7484444 9.89363636,11.5848889 C10.0427273,11.7671111 10.3036364,11.9502222 10.6945455,11.9502222 C11.2890909,11.9502222 11.7918182,11.4755556 11.7918182,10.8942222 C11.7918182,10.5662222 11.6427273,10.2933333 11.4936364,10.1475556 C10.5272727,9.05777778 9.33636364,8.29333333 7.36454545,8.29333333" id="Fill-1" fill-opacity="0.300000012" ></path>
            <path d="M16.4381818,9.80533333 C14.4036364,9.80533333 12.9281818,11.1653333 12.3690909,13.0577778 L11.5663636,13.0577778 C11.2227273,13.0577778 10.9518182,13.3235556 10.9518182,13.6577778 C10.9518182,13.9813333 11.2227273,14.2462222 11.5663636,14.2462222 L12.14,14.2462222 C12.1109091,14.4568889 12.1109091,14.6826667 12.1109091,14.8924444 C12.1109091,15.0728889 12.1109091,15.2551111 12.1254545,15.424 L11.5663636,15.424 C11.2227273,15.424 10.9518182,15.7048889 10.9518182,16.0257778 C10.9518182,16.3626667 11.2227273,16.6284444 11.5663636,16.6284444 L12.34,16.6284444 C12.8854545,18.6186667 14.3754545,19.9502222 16.4963636,19.9502222 C17.9709091,19.9502222 18.9309091,19.2915556 19.7054545,18.3111111 C19.7918182,18.2115556 19.8772727,18.0293333 19.8772727,17.8195556 C19.8772727,17.3991111 19.5190909,17.0622222 19.0890909,17.0622222 C18.8172727,17.0622222 18.6172727,17.1751111 18.4727273,17.3422222 C17.9281818,18.0017778 17.3690909,18.408 16.51,18.408 C15.3781818,18.408 14.5627273,17.7502222 14.16,16.6284444 L16.7390909,16.6284444 C17.0690909,16.6284444 17.3418182,16.3626667 17.3418182,16.0257778 C17.3418182,15.7048889 17.0690909,15.424 16.7390909,15.424 L13.9027273,15.424 C13.8872727,15.2408889 13.8872727,15.0586667 13.8872727,14.8631111 C13.8872727,14.6524444 13.8872727,14.4426667 13.9163636,14.2462222 L16.7390909,14.2462222 C17.0690909,14.2462222 17.3418182,13.9813333 17.3418182,13.6577778 C17.3418182,13.3235556 17.0690909,13.0577778 16.7390909,13.0577778 L14.1890909,13.0577778 C14.59,12.0053333 15.3645455,11.3475556 16.3954545,11.3475556 C17.2836364,11.3475556 17.8427273,11.6977778 18.3881818,12.3422222 C18.5018182,12.4826667 18.7027273,12.6213333 19.0036364,12.6213333 C19.4618182,12.6213333 19.8490909,12.2568889 19.8490909,11.8088889 C19.8490909,11.5573333 19.7336364,11.3475556 19.62,11.2337778 C18.8745455,10.3937778 17.9581818,9.80533333 16.4381818,9.80533333" id="Fill-2" fill-opacity="0.5" ></path>
            <path d="M28.2709091,12.2391111 C27.2127273,12.2391111 26.4454545,12.9475556 26.1536364,13.9306667 L25.7363636,13.9306667 C25.5590909,13.9306667 25.4172727,14.0693333 25.4172727,14.2444444 C25.4172727,14.4115556 25.5590909,14.5502222 25.7363636,14.5502222 L26.0354545,14.5502222 C26.0209091,14.6595556 26.0209091,14.776 26.0209091,14.8853333 C26.0209091,14.9795556 26.0209091,15.0746667 26.0281818,15.1617778 L25.7363636,15.1617778 C25.5590909,15.1617778 25.4172727,15.3075556 25.4172727,15.4755556 C25.4172727,15.6506667 25.5590909,15.7884444 25.7363636,15.7884444 L26.14,15.7884444 C26.4236364,16.8222222 27.1972727,17.5137778 28.3009091,17.5137778 C29.0681818,17.5137778 29.5672727,17.1715556 29.97,16.6631111 C30.0136364,16.6115556 30.0581818,16.5173333 30.0581818,16.408 C30.0581818,16.1893333 29.8727273,16.0142222 29.6490909,16.0142222 C29.5072727,16.0142222 29.4036364,16.0728889 29.3290909,16.16 C29.0454545,16.5013333 28.7554545,16.7137778 28.3081818,16.7137778 C27.7190909,16.7137778 27.2954545,16.3715556 27.0863636,15.7884444 L28.4272727,15.7884444 C28.5990909,15.7884444 28.7409091,15.6506667 28.7409091,15.4755556 C28.7409091,15.3075556 28.5990909,15.1617778 28.4272727,15.1617778 L26.9527273,15.1617778 C26.9445455,15.0675556 26.9445455,14.9724444 26.9445455,14.8693333 C26.9445455,14.7617778 26.9445455,14.6524444 26.96,14.5502222 L28.4272727,14.5502222 C28.5990909,14.5502222 28.7409091,14.4115556 28.7409091,14.2444444 C28.7409091,14.0693333 28.5990909,13.9306667 28.4272727,13.9306667 L27.1009091,13.9306667 C27.31,13.384 27.7118182,13.0417778 28.25,13.0417778 C28.71,13.0417778 29.0009091,13.224 29.2845455,13.5591111 C29.3445455,13.632 29.4481818,13.7048889 29.6045455,13.7048889 C29.8427273,13.7048889 30.0445455,13.5155556 30.0445455,13.2826667 C30.0445455,13.1511111 29.9845455,13.0417778 29.9245455,12.984 C29.5381818,12.5466667 29.0609091,12.2391111 28.2709091,12.2391111" id="Fill-3" fill-opacity="0.899999976" ></path>
            <path d="M32.9209091,15.8613333 C32.6990909,16.1404444 32.4245455,16.3297778 32.0018182,16.3297778 C31.3945455,16.3297778 30.9681818,15.9493333 30.8118182,15.3786667 L30.59,15.3786667 C30.4909091,15.3786667 30.4127273,15.304 30.4127273,15.2062222 C30.4127273,15.1146667 30.4909091,15.0346667 30.59,15.0346667 L30.75,15.0346667 L30.7454545,14.88 L30.7545455,14.696 L30.59,14.696 C30.4909091,14.696 30.4127273,14.6195556 30.4127273,14.528 C30.4127273,14.432 30.4909091,14.3555556 30.59,14.3555556 L30.8181818,14.3555556 C30.9790909,13.8142222 31.4018182,13.4257778 31.9854545,13.4257778 C32.42,13.4257778 32.6827273,13.5937778 32.8963636,13.8328889 L32.9618182,14 C32.9618182,14.1271111 32.8518182,14.2311111 32.72,14.2311111 C32.6336364,14.2311111 32.5763636,14.1911111 32.5427273,14.1511111 C32.3872727,13.9671111 32.2272727,13.8666667 31.9727273,13.8666667 C31.6781818,13.8666667 31.4563636,14.056 31.3409091,14.3555556 L32.07,14.3555556 C32.1654545,14.3555556 32.2445455,14.432 32.2445455,14.528 C32.2445455,14.6195556 32.1654545,14.696 32.07,14.696 L31.2627273,14.696 L31.2545455,14.8728889 L31.2581818,15.0346667 L32.07,15.0346667 C32.1654545,15.0346667 32.2445455,15.1146667 32.2445455,15.2062222 C32.2445455,15.304 32.1654545,15.3786667 32.07,15.3786667 L31.3327273,15.3786667 C31.4472727,15.7013333 31.6818182,15.8888889 32.0054545,15.8888889 C32.2518182,15.8888889 32.4109091,15.7724444 32.5672727,15.5831111 L32.7454545,15.5031111 C32.8672727,15.5031111 32.9709091,15.5991111 32.9709091,15.72 L32.9209091,15.8613333" id="Fill-4" ></path>
            <path d="M37.8145455,0.362666667 L23.8027273,0.362666667 C23.8027273,0.362666667 22.6054545,0.368 22.0890909,1.28977778 L22.0881818,1.288 C21.9481818,1.54133333 21.8554545,1.85955556 21.8554545,2.26755556 L21.8554545,29.304 C21.8554545,29.304 21.8554545,30.9893333 23.4763636,31.1875556 L27.6490909,31.1875556 L27.6509091,31.1857778 L31.3445455,31.1857778 L31.3454545,31.1875556 L38.0490909,31.1875556 C38.5672727,31.1182222 39.7627273,30.7946667 39.7627273,29.3022222 L39.7627273,2.26755556 C39.7627273,2.26755556 39.7627273,0.362666667 37.8145455,0.362666667 M29.3409091,1.20444444 L32.29,1.20444444 C32.4390909,1.20444444 32.5590909,1.32088889 32.5590909,1.46577778 C32.5590909,1.61155556 32.4390909,1.72622222 32.29,1.72622222 L29.3409091,1.72622222 C29.1918182,1.72622222 29.0727273,1.61155556 29.0727273,1.46577778 C29.0727273,1.32088889 29.1918182,1.20444444 29.3409091,1.20444444 M30.8009091,30.3297778 C30.6572727,30.3297778 30.5190909,30.2986667 30.3890909,30.2515556 C30.0072727,30.1164444 29.6981818,29.8071111 29.5454545,29.4275556 L29.52,29.3573333 L29.5309091,29.3475556 C29.49,29.2186667 29.4581818,29.088 29.4536364,28.952 C29.4781818,28.2382222 30.0781818,27.6648889 30.8145455,27.6648889 C30.9418182,27.6648889 31.0636364,27.6888889 31.18,27.7217778 L31.1781818,27.7244444 C31.7454545,27.8835556 32.1636364,28.3911111 32.1636364,28.9982222 C32.1636364,29.7342222 31.5536364,30.3297778 30.8009091,30.3297778 M38.5609091,6.99111111 L38.5609091,25.4986667 C38.5609091,26.3928889 37.9836364,26.7226667 37.5572727,26.8435556 C37.3081818,26.9146667 37.1090909,26.9146667 37.1090909,26.9146667 L24.5854545,26.9146667 C24.2763636,26.9146667 24.0427273,26.8435556 23.8527273,26.7413333 L23.8518182,26.7413333 C23.1463636,26.3662222 23.1345455,25.4986667 23.1345455,25.4986667 L23.1345455,3.83022222 C23.1345455,3.29866667 23.3363636,2.96711111 23.5918182,2.75911111 C24.0163636,2.40977778 24.5863636,2.40977778 24.5863636,2.40977778 L37.1090909,2.40977778 C38.56,2.40977778 38.56,3.736 38.56,3.736 L38.56,4.19111111 L38.5609091,4.68533333 L38.5609091,6.99111111" id="Fill-5" ></path>
            <path d="M24.87,16.4062222 C24.6809091,16.4062222 24.5390909,16.4844444 24.4390909,16.6026667 C24.0736364,17.0444444 23.6963636,17.3253333 23.1345455,17.3457778 L23.1345455,18.4257778 C24.1236364,18.4035556 24.7736364,17.9475556 25.3018182,17.28 C25.3609091,17.2097778 25.4209091,17.0817778 25.4209091,16.936 C25.4209091,16.6426667 25.1718182,16.4062222 24.87,16.4062222 M23.2263636,15.2604444 L23.1345455,15.2604444 L23.1345455,16.1022222 L23.2263636,16.1022222 C23.4572727,16.1022222 23.6472727,15.9164444 23.6472727,15.6808889 C23.6472727,15.4568889 23.4572727,15.2604444 23.2263636,15.2604444 M23.2263636,13.6044444 L23.1345455,13.6044444 L23.1345455,14.4355556 L23.2263636,14.4355556 C23.4572727,14.4355556 23.6472727,14.2497778 23.6472727,14.024 C23.6472727,13.7902222 23.4572727,13.6044444 23.2263636,13.6044444 M21.8554545,11.5671111 C21.0345455,11.9288889 20.4427273,12.6746667 20.1690909,13.6044444 L19.6072727,13.6044444 C19.3663636,13.6044444 19.1763636,13.7902222 19.1763636,14.024 C19.1763636,14.2497778 19.3663636,14.4355556 19.6072727,14.4355556 L20.0090909,14.4355556 C19.9881818,14.5831111 19.9881818,14.7395556 19.9881818,14.8871111 C19.9881818,15.016 19.9881818,15.1422222 19.9981818,15.2604444 L19.6072727,15.2604444 C19.3663636,15.2604444 19.1763636,15.4568889 19.1763636,15.6808889 C19.1763636,15.9164444 19.3663636,16.1022222 19.6072727,16.1022222 L20.1481818,16.1022222 C20.4154545,17.0808889 21.0109091,17.832 21.8554545,18.1928889 L21.8554545,16.84 C21.6727273,16.6444444 21.5272727,16.3955556 21.4218182,16.1022222 L21.8554545,16.1022222 L21.8554545,15.2604444 L21.2409091,15.2604444 C21.2318182,15.1315556 21.2318182,15.0053333 21.2318182,14.8684444 C21.2318182,14.72 21.2318182,14.5724444 21.2518182,14.4355556 L21.8554545,14.4355556 L21.8554545,13.6044444 L21.4418182,13.6044444 C21.5454545,13.3324444 21.6845455,13.0977778 21.8554545,12.9111111 L21.8554545,11.5671111 M23.1345455,11.3315556 L23.1345455,12.4124444 C23.6718182,12.4497778 24.0290909,12.6897778 24.3790909,13.104 C24.4590909,13.2017778 24.6,13.2986667 24.81,13.2986667 C25.1309091,13.2986667 25.4009091,13.0435556 25.4009091,12.7306667 C25.4009091,12.5537778 25.3218182,12.408 25.2418182,12.3297778 C24.7390909,11.7635556 24.1263636,11.3608889 23.1345455,11.3315556 M21.8554545,16.84 L21.8554545,18.1928889 C22.2127273,18.3448889 22.6145455,18.4266667 23.0554545,18.4266667 C23.0827273,18.4266667 23.1081818,18.4266667 23.1345455,18.4257778 L23.1345455,17.3457778 C23.1118182,17.3466667 23.0890909,17.3475556 23.0663636,17.3475556 C22.5709091,17.3475556 22.1618182,17.1671111 21.8554545,16.84 L21.8554545,16.84 Z M21.8554545,16.1022222 L23.1336364,16.1022222 L23.1336364,15.2595556 L21.8554545,15.2595556 L21.8554545,16.1022222 Z M21.8554545,14.4355556 L23.1336364,14.4355556 L23.1336364,13.6044444 L21.8554545,13.6044444 L21.8554545,14.4355556 Z M23.0154545,11.3297778 C22.5927273,11.3297778 22.2036364,11.4142222 21.8554545,11.5671111 L21.8554545,12.9111111 C22.1472727,12.5911111 22.53,12.408 22.9854545,12.408 C23.0363636,12.408 23.0863636,12.4097778 23.1345455,12.4124444 L23.1345455,11.3315556 C23.0954545,11.3306667 23.0563636,11.3297778 23.0154545,11.3297778 L23.0154545,11.3297778 Z" id="Fill-6" fill-opacity="0.699999988" ></path>
        </g>
    </g>
</svg>