<?xml version="1.0" encoding="utf-8"?>
<!-- Generator: Adobe Illustrator 16.0.0, SVG Export Plug-In . SVG Version: 6.00 Build 0)  -->
<!DOCTYPE svg PUBLIC "-//W3C//DTD SVG 1.1//EN" "http://www.w3.org/Graphics/SVG/1.1/DTD/svg11.dtd">
<svg version="1.1" id="Calque_1" xmlns="http://www.w3.org/2000/svg" xmlns:xlink="http://www.w3.org/1999/xlink" x="0px" y="0px"
	 width="82px" height="82.25px" viewBox="0 0 82 82.25" enable-background="new 0 0 82 82.25" xml:space="preserve">
<path d="M16.216,53.646c-0.333,0-0.647,0.09-0.961,0.257l-8.571,4.955c-0.92,0.536-1.237,1.707-0.71,2.608
	c0.358,0.623,1.005,0.966,1.671,0.966c0.317,0,0.65-0.082,0.959-0.254l8.57-4.956c0.91-0.53,1.224-1.701,0.697-2.62
	C17.521,53.999,16.885,53.646,16.216,53.646"/>
<path d="M17.175,25.285L8.604,20.34c-0.308-0.18-0.641-0.267-0.958-0.267c-0.666,0-1.314,0.344-1.671,0.967
	c-0.527,0.9-0.21,2.077,0.702,2.613l8.579,4.945c0.3,0.181,0.628,0.257,0.961,0.257c0.66,0,1.305-0.344,1.654-0.95
	C18.397,26.981,18.083,25.812,17.175,25.285"/>
<path d="M14.294,40.857c0-1.057-0.863-1.995-1.922-1.995H2.471c-1.056,0-1.911,0.938-1.911,1.995
	c0,1.059,0.855,2.005,1.911,2.005h9.901C13.431,42.862,14.294,41.916,14.294,40.857"/>
<path d="M40.594,62.378c11.738,0,21.259-9.518,21.259-21.262c0-11.749-9.521-21.267-21.259-21.267
	c-11.755,0-21.276,9.518-21.276,21.267C19.318,52.86,28.839,62.378,40.594,62.378 M30.415,40.618c0-0.522,0.011-0.755,0.034-1.755
	h-2.231l0.545-2h2.027c0.477-3,1.425-4.311,2.845-5.833c2.145-2.294,4.968-3.521,8.466-3.521c1.907,0,3.565,0.307,4.973,0.999
	l-1.005,4.698c-0.966-0.965-2.374-1.458-4.224-1.458c-1.851,0-3.35,0.821-4.497,2.149c-0.648,0.749-1.108,1.966-1.38,2.966h9.369
	l-0.545,2h-9.165c-0.011,1-0.017,0.972-0.017,1.38c0,0.398,0.011,0.62,0.034,1.62h8.67l-0.545,2h-7.767
	c0.284,1,0.721,2.274,1.311,2.966c1.136,1.34,2.455,2.062,4.271,2.062c2.181,0,4.055-0.618,5.055-1.958v5.211
	c-2,0.738-3.039,1.107-5.003,1.107c-3.316,0-5.963-1.239-8.098-3.51c-1.453-1.545-2.334-2.879-2.8-5.879h-2.52l0.545-2h1.669
	C30.421,40.863,30.415,40.925,30.415,40.618"/>
<path d="M65.801,28.854c0.325,0,0.65-0.075,0.956-0.256l8.576-4.945c0.923-0.536,1.234-1.712,0.699-2.613
	c-0.35-0.623-0.999-0.967-1.658-0.967c-0.327,0-0.647,0.088-0.955,0.257l-8.585,4.956c-0.906,0.526-1.223,1.696-0.696,2.619
	C64.481,28.51,65.137,28.854,65.801,28.854"/>
<path d="M40.649,14.549c1.046,0,1.99-0.86,1.99-1.917V2.719c0-1.058-0.944-1.912-1.99-1.912
	c-1.057,0-2.01,0.854-2.01,1.912v9.913C38.639,13.689,39.592,14.549,40.649,14.549"/>
<path d="M25.027,17.421c0.363,0.611,1.008,0.958,1.679,0.958c0.32,0,0.647-0.084,0.945-0.256
	c0.909-0.53,1.229-1.702,0.71-2.619l-4.972-8.576c-0.347-0.612-0.994-0.961-1.652-0.961c-0.32,0-0.653,0.09-0.961,0.256
	c-0.92,0.533-1.218,1.699-0.699,2.624L25.027,17.421z"/>
<path d="M56.971,65.083c-0.35-0.612-0.999-0.96-1.663-0.96c-0.325,0-0.65,0.082-0.95,0.265
	c-0.915,0.513-1.229,1.695-0.694,2.613l4.956,8.587c0.339,0.606,0.999,0.95,1.652,0.95c0.319,0,0.65-0.087,0.961-0.259
	c0.918-0.53,1.215-1.691,0.696-2.613L56.971,65.083z"/>
<path d="M75.333,58.858l-8.587-4.956c-0.306-0.166-0.62-0.256-0.956-0.256c-0.666,0-1.308,0.352-1.66,0.958
	c-0.519,0.918-0.202,2.089,0.705,2.619l8.573,4.955c0.311,0.172,0.639,0.26,0.956,0.26c0.669,0,1.31-0.35,1.668-0.972
	C76.566,60.565,76.255,59.394,75.333,58.858"/>
<path d="M79.535,38.862h-9.898c-1.056,0-1.925,0.938-1.925,1.995c0,1.059,0.869,2.005,1.925,2.005h9.898
	c1.059,0,1.914-0.946,1.914-2.005C81.449,39.801,80.593,38.862,79.535,38.862"/>
<path d="M61.232,6.224c-0.3-0.167-0.642-0.256-0.961-0.256c-0.653,0-1.302,0.349-1.652,0.961l-4.956,8.576
	c-0.535,0.909-0.221,2.089,0.707,2.618c0.295,0.172,0.612,0.258,0.945,0.258c0.656,0,1.305-0.348,1.666-0.958l4.947-8.575
	C62.456,7.923,62.15,6.757,61.232,6.224"/>
<path d="M40.649,67.958c-1.057,0-2.01,0.857-2.01,1.917v9.906c0,1.059,0.953,1.922,2.01,1.922
	c1.046,0,1.99-0.863,1.99-1.922v-9.906C42.639,68.816,41.695,67.958,40.649,67.958"/>
<path d="M27.651,64.387c-0.297-0.175-0.625-0.264-0.945-0.264c-0.671,0-1.316,0.349-1.679,0.96l-4.95,8.571
	c-0.519,0.923-0.221,2.094,0.707,2.624c0.3,0.172,0.634,0.259,0.953,0.259c0.664,0,1.316-0.344,1.666-0.95L28.361,67
	C28.88,66.083,28.56,64.9,27.651,64.387"/>
</svg>
