<?xml version="1.0" encoding="UTF-8" standalone="no"?>
<svg width="82px" height="82px" viewBox="0 0 82 82" version="1.1" xmlns="http://www.w3.org/2000/svg" xmlns:xlink="http://www.w3.org/1999/xlink">
    <g id="Page-1" stroke="none" stroke-width="1" fill="none" fill-rule="evenodd">
        <g id="Group-875">
            <path d="M15.8842,53.2241 C15.5512,53.2241 15.2382,53.3141 14.9242,53.4801 L6.3622,58.4311 C5.4422,58.9661 5.1262,60.1361 5.6522,61.0361 C6.0102,61.6581 6.6562,62.0021 7.3222,62.0021 C7.6382,62.0021 7.9712,61.9201 8.2792,61.7481 L16.8412,56.7971 C17.7502,56.2681 18.0632,55.0981 17.5372,54.1821 C17.1882,53.5761 16.5522,53.2241 15.8842,53.2241" id="Fill-849"></path>
            <path d="M13.9639,40.5811 C13.9639,39.5261 13.1019,38.5871 12.0439,38.5871 L2.1529,38.5871 C1.0969,38.5871 0.2429,39.5261 0.2429,40.5811 C0.2429,41.6401 1.0969,42.5871 2.1529,42.5871 L12.0439,42.5871 C13.1019,42.5871 13.9639,41.6401 13.9639,40.5811" id="Fill-851"></path>
            <path d="M16.8416,24.8911 L8.2796,19.9511 C7.9706,19.7711 7.6386,19.6841 7.3216,19.6841 C6.6566,19.6841 6.0096,20.0281 5.6526,20.6501 C5.1256,21.5501 5.4426,22.7251 6.3536,23.2601 L14.9236,28.2001 C15.2236,28.3801 15.5516,28.4561 15.8846,28.4561 C16.5446,28.4561 17.1876,28.1131 17.5366,27.5071 C18.0636,26.5851 17.7496,25.4181 16.8416,24.8911" id="Fill-853"></path>
            <path d="M65.4194,28.4565 C65.7444,28.4565 66.0684,28.3795 66.3744,28.1995 L74.9414,23.2605 C75.8634,22.7255 76.1744,21.5495 75.6404,20.6495 C75.2914,20.0275 74.6414,19.6845 73.9844,19.6845 C73.6574,19.6845 73.3384,19.7715 73.0294,19.9405 L64.4534,24.8915 C63.5484,25.4175 63.2314,26.5845 63.7584,27.5075 C64.1014,28.1125 64.7564,28.4565 65.4194,28.4565" id="Fill-855"></path>
            <path d="M41.0095,14.166 C42.0545,14.166 42.9995,13.307 42.9995,12.251 L42.9995,2.347 C42.9995,1.291 42.0545,0.437 41.0095,0.437 C39.9535,0.437 38.9995,1.291 38.9995,2.347 L38.9995,12.251 C38.9995,13.307 39.9535,14.166 41.0095,14.166" id="Fill-857"></path>
            <path d="M24.6865,17.0356 C25.0495,17.6466 25.6935,17.9936 26.3645,17.9936 C26.6835,17.9936 27.0105,17.9086 27.3075,17.7366 C28.2165,17.2076 28.5355,16.0366 28.0175,15.1206 L23.0495,6.5526 C22.7035,5.9416 22.0565,5.5926 21.3995,5.5926 C21.0805,5.5926 20.7475,5.6826 20.4395,5.8486 C19.5205,6.3806 19.2225,7.5456 19.7415,8.4706 L24.6865,17.0356 Z" id="Fill-859"></path>
            <path d="M41.0095,67.5229 C39.9535,67.5229 38.9995,68.3789 38.9995,69.4379 L38.9995,79.3339 C38.9995,80.3919 39.9535,81.2539 41.0095,81.2539 C42.0545,81.2539 42.9995,80.3919 42.9995,79.3339 L42.9995,69.4379 C42.9995,68.3789 42.0545,67.5229 41.0095,67.5229" id="Fill-861"></path>
            <path d="M27.3077,63.9551 C27.0107,63.7801 26.6827,63.6901 26.3637,63.6901 C25.6927,63.6901 25.0497,64.0391 24.6867,64.6501 L19.7407,73.2131 C19.2227,74.1351 19.5207,75.3051 20.4477,75.8341 C20.7477,76.0061 21.0807,76.0931 21.3997,76.0931 C22.0627,76.0931 22.7147,75.7491 23.0637,75.1441 L28.0167,66.5651 C28.5347,65.6491 28.2157,64.4681 27.3077,63.9551" id="Fill-863"></path>
            <path d="M56.598,64.6504 C56.249,64.0394 55.6,63.6904 54.937,63.6904 C54.612,63.6904 54.288,63.7724 53.988,63.9554 C53.074,64.4674 52.76,65.6494 53.295,66.5654 L58.246,75.1444 C58.584,75.7494 59.244,76.0934 59.896,76.0934 C60.215,76.0934 60.545,76.0054 60.856,75.8344 C61.772,75.3044 62.07,74.1454 61.552,73.2234 L56.598,64.6504 Z" id="Fill-865"></path>
            <path d="M74.9419,58.4312 L66.3629,53.4802 C66.0579,53.3142 65.7439,53.2242 65.4089,53.2242 C64.7429,53.2242 64.1019,53.5762 63.7499,54.1812 C63.2319,55.0982 63.5479,56.2682 64.4539,56.7972 L73.0189,61.7482 C73.3299,61.9202 73.6569,62.0072 73.9739,62.0072 C74.6419,62.0072 75.2829,61.6582 75.6399,61.0362 C76.1749,60.1362 75.8639,58.9662 74.9419,58.4312" id="Fill-867"></path>
            <path d="M60.8559,5.8491 C60.5559,5.6821 60.2149,5.5931 59.8959,5.5931 C59.2439,5.5931 58.5949,5.9421 58.2459,6.5531 L53.2949,15.1201 C52.7599,16.0291 53.0739,17.2071 54.0009,17.7361 C54.2959,17.9081 54.6119,17.9931 54.9449,17.9931 C55.5999,17.9931 56.2489,17.6461 56.6089,17.0361 L61.5519,8.4711 C62.0779,7.5461 61.7729,6.3811 60.8559,5.8491" id="Fill-869"></path>
            <path d="M79.1398,38.5869 L69.2518,38.5869 C68.1968,38.5869 67.3288,39.5259 67.3288,40.5809 C67.3288,41.6399 68.1968,42.5869 69.2518,42.5869 L79.1398,42.5869 C80.1978,42.5869 81.0518,41.6399 81.0518,40.5809 C81.0518,39.5259 80.1978,38.5869 79.1398,38.5869" id="Fill-871"></path>
            <path d="M34.9725,41.8525 C34.4895,41.3265 33.8985,41.0635 33.2025,41.0635 C32.7445,41.0635 32.1975,41.1525 31.5605,41.3315 L31.9545,38.4145 C32.9225,38.4405 33.6605,38.2305 34.1705,37.7855 C34.6795,37.3395 34.9345,36.7475 34.9345,36.0085 C34.9345,35.3805 34.7475,34.8805 34.3735,34.5065 C34.0005,34.1335 33.5035,33.9465 32.8845,33.9465 C32.2735,33.9465 31.7515,34.1595 31.3185,34.5825 C30.8855,35.0075 30.6225,35.6265 30.5295,36.4425 L27.2325,35.8815 C27.4605,34.7525 27.8065,33.8515 28.2695,33.1765 C28.7325,32.5015 29.3765,31.9715 30.2045,31.5845 C31.0325,31.1995 31.9595,31.0055 32.9865,31.0055 C34.7435,31.0055 36.1525,31.5655 37.2125,32.6865 C38.0875,33.6025 38.5245,34.6385 38.5245,35.7925 C38.5245,37.4305 37.6285,38.7385 35.8375,39.7135 C36.9085,39.9435 37.7625,40.4565 38.4035,41.2535 C39.0445,42.0515 39.3655,43.0155 39.3655,44.1445 C39.3655,45.7825 38.7665,47.1785 37.5695,48.3325 C36.3725,49.4875 34.8835,50.0645 33.1015,50.0645 C31.4115,50.0645 30.0115,49.5785 28.8995,48.6065 C27.7875,47.6345 27.1425,46.3645 26.9645,44.7935 L30.4275,44.3735 C30.5375,45.2555 30.8345,45.9305 31.3185,46.3975 C31.8025,46.8645 32.3885,47.0975 33.0755,47.0975 C33.8145,47.0975 34.4355,46.8185 34.9405,46.2575 C35.4455,45.6975 35.6985,44.9425 35.6985,43.9915 C35.6985,43.0915 35.4555,42.3785 34.9725,41.8525 L34.9725,41.8525 Z M40.5805,36.5865 L44.9485,36.5865 L47.3415,40.3045 L49.8625,36.5865 L54.0635,36.5865 L49.4805,42.7295 L54.4835,49.5865 L50.0915,49.5865 L47.3415,45.3985 L44.5665,49.5865 L40.3765,49.5865 L45.2535,42.8835 L40.5805,36.5865 Z M40.2375,61.9475 C51.9635,61.9475 61.4755,52.4385 61.4755,40.7065 C61.4755,28.9695 51.9635,19.4605 40.2375,19.4605 C28.4945,19.4605 18.9825,28.9695 18.9825,40.7065 C18.9825,52.4385 28.4945,61.9475 40.2375,61.9475 L40.2375,61.9475 Z" id="Fill-873"></path>
        </g>
    </g>
</svg>