<?xml version="1.0" encoding="utf-8"?>
<!-- Generator: Adobe Illustrator 16.0.0, SVG Export Plug-In . SVG Version: 6.00 Build 0)  -->
<!DOCTYPE svg PUBLIC "-//W3C//DTD SVG 1.1//EN" "http://www.w3.org/Graphics/SVG/1.1/DTD/svg11.dtd">
<svg version="1.1" id="Layer_1" xmlns="http://www.w3.org/2000/svg" xmlns:xlink="http://www.w3.org/1999/xlink" x="0px" y="0px"
	 width="792px" height="612px" viewBox="0 0 792 612" enable-background="new 0 0 792 612" xml:space="preserve">
<g>
	<g>
		<path fill-rule="evenodd" clip-rule="evenodd" d="M3.843,210.749v104.054c0.657,0.164,1.315,0.329,1.973,0.492
			c3.456-6.139,26.845-8.008,29.589-12.821v-84.328c20.381-4.767,40.769-9.535,61.15-14.302v123.782
			c-30.243-4.11-60.496-8.221-90.739-12.331c23.175,8.548,46.358,17.098,69.534,25.646c5.823,2.141,16.024,9.46,23.671,7.891
			c16.272-4.604,32.55-9.207,48.822-13.81V191.022c-17.423-4.931-34.851-9.863-52.274-14.794
			C64.996,187.734,34.415,199.243,3.843,210.749z M358.91,240.831h-28.602c-2.499-18.96,1.04-28.985,19.726-25.151v-10.849
			c-25.575-4.867-32.74,10.84-32.055,36h-12.329v10.356h12.329v63.124c3.944,0.163,7.891,0.328,11.835,0.492
			c0.165-21.203,0.329-42.413,0.494-63.616h28.602v63.616h11.836v-63.616h17.753c-0.165-3.452-0.329-6.905-0.493-10.356h-16.767
			c-2.341-8.59-0.183-22.029,4.931-25.151c3.523-2.15,8.892-1.177,12.822-0.493c0.658,0.165,1.315,0.329,1.973,0.493v-10.849
			C365.363,200.264,358.222,215.446,358.91,240.831z M402.8,206.803c-1.644,1.479-3.288,2.959-4.931,4.438
			c-1.031,4.227-0.328,7.906,2.958,9.37c1.624,1.441,4.402,1.763,6.903,0.987c3.624-1.437,4.296-3.463,5.425-7.397
			c-1.038-2.807-1.974-4.323-3.452-6.411C407.403,207.461,405.102,207.132,402.8,206.803z M244.992,209.269
			c-4.109,0.822-8.219,1.644-12.328,2.465c-14.358,5.076-24.996,16.742-29.589,31.562c-12.176,39.284,13.8,82.763,56.219,72.986
			C314.434,303.573,314.264,207.966,244.992,209.269z M252.882,305.926c-28.946,4.686-46.319-29.374-37.972-57.699
			c5.208-17.671,14.405-21.509,31.068-28.109C298.909,219.228,298.587,298.528,252.882,305.926z M618.307,261.05v-0.986
			c13.443-3.377,25.845-20.786,16.766-37.973c-8.13-15.391-34.297-14.86-49.808-6.904v11.342
			c10.013-3.121,30.965-13.948,38.467,0.987c11.458,22.816-12.658,29.271-32.056,28.603v10.356
			c19.184-0.491,42.069,1.823,37.48,24.164c-4.297,20.911-33.782,16.846-47.344,7.891c-0.163,4.273-0.329,8.548-0.493,12.821
			c20.632,7.663,43.699,7.859,55.727-8.876C649.367,285.329,636.642,262.21,618.307,261.05z M678.964,251.187
			c-5.721,2.379-8.368,7.24-12.33,11.342c-0.163,0.329-0.328,0.657-0.492,0.986c-1.566-3.963,0.541-11.722,1.479-15.288
			c5.495-20.892,19.585-36.618,44.877-24.657c0.164-3.781,0.329-7.562,0.493-11.343c-5.94-2.316-12.941-3.167-21.699-2.959
			c-22.981,9.13-30.6,14.887-36.492,40.931c-7.365,32.559,6.429,77.848,42.904,65.095
			C733.766,302.687,720.745,233.802,678.964,251.187z M690.306,306.42c-15.542,3.251-27.19-14.2-23.672-30.083
			c2.134-9.627,8.751-12.37,16.768-16.274C714.344,259.054,713.896,301.483,690.306,306.42z M788.936,274.858
			c-4.375-18.233-20.354-23.265-43.891-22.685c0.657-10.026,1.315-20.056,1.973-30.082h37.479v-10.85h-47.836
			c-1.15,17.423-2.301,34.852-3.451,52.274c21.263-6.057,48.687,1.438,43.89,25.15c-4.114,20.334-30.525,20.784-45.863,10.849
			v12.822C757.991,327.764,796.943,308.227,788.936,274.858z M456.554,238.858c-15.064,5.971-24.553,7.623-30.576,22.191
			c-10.458,25.296,3.54,50.396,23.672,55.232c11.021,2.648,20.518-1.93,28.109-3.945c0.165-3.945,0.329-7.891,0.492-11.835
			c-18.065,7.821-36.655,8.715-42.41-12.822c-8.119-30.39,18.853-46.012,42.41-33.041c0.165-3.781,0.329-7.562,0.494-11.342
			C474.561,239.05,465.15,238.547,456.554,238.858z M492.061,256.118c-3.952,6.624-6.337,18.631-4.438,29.096
			c5.479,30.217,30.205,40.421,58.685,24.656v-11.341c-18.286,10.832-47.044,12.939-46.85-17.261h51.78
			c1.504-5.356,0.073-13.235-0.986-17.753C542.939,232.305,506.653,231.66,492.061,256.118z M499.457,270.913
			c4.705-26.021,40.755-31.304,39.945,0H499.457z M399.348,240.831c-0.164,24.491-0.328,48.988-0.493,73.48
			c3.945,0.163,7.89,0.328,11.835,0.492c0.165-23.998,0.33-48.002,0.494-72C409.401,240.046,403.923,240.554,399.348,240.831z
			 M159.678,323.68v1.479h2.959v9.369h1.973v-9.369h3.452v-0.493c-0.328-0.329-0.657-0.658-0.986-0.986H159.678z M178.91,323.68
			c-1.15,2.629-2.301,5.26-3.452,7.89h-0.493c-1.697-2.821-1.857-6.803-5.425-7.89v10.849h0.493
			c1.036-1.305,1.107-3.315,0.986-5.917h0.493c0.822,1.808,1.644,3.616,2.466,5.424c0.329,0.164,0.658,0.329,0.986,0.493
			c0.821-1.808,1.644-3.616,2.466-5.424c0.329-0.165,0.657-0.33,0.986-0.493c0.165,1.973,0.329,3.944,0.493,5.917h1.973v-10.355
			c-0.164-0.165-0.328-0.33-0.493-0.493H178.91z"/>
	</g>
</g>
</svg>
