<?xml version="1.0" encoding="utf-8"?>
<!-- Generator: Adobe Illustrator 16.0.0, SVG Export Plug-In . SVG Version: 6.00 Build 0)  -->
<!DOCTYPE svg PUBLIC "-//W3C//DTD SVG 1.1//EN" "http://www.w3.org/Graphics/SVG/1.1/DTD/svg11.dtd">
<svg version="1.1" id="Layer_1" xmlns="http://www.w3.org/2000/svg" xmlns:xlink="http://www.w3.org/1999/xlink" x="0px" y="0px"
	 width="50px" height="50px" viewBox="0 0 50 50" enable-background="new 0 0 50 50" xml:space="preserve">
<g>
	<path d="M44.795,37.536L34.258,27.029c1.106-2.174,1.705-4.586,1.705-7.095c0-4.186-1.632-8.12-4.59-11.078
		c-2.959-2.959-6.894-4.589-11.079-4.589c-4.184,0-8.12,1.629-11.079,4.589c-2.958,2.959-4.589,6.894-4.589,11.079
		c0,4.185,1.63,8.119,4.589,11.077c2.959,2.96,6.894,4.589,11.079,4.589c2.508,0,4.921-0.598,7.093-1.702l10.51,10.538
		c0.951,0.951,2.201,1.428,3.45,1.428c1.247,0,2.496-0.477,3.447-1.428C46.7,42.531,46.7,39.442,44.795,37.536z M13.354,26.873
		c-1.853-1.854-2.874-4.316-2.874-6.938s1.021-5.085,2.874-6.939c1.854-1.853,4.318-2.875,6.939-2.875s5.085,1.021,6.938,2.875
		c1.854,1.853,2.875,4.317,2.875,6.938s-1.021,5.085-2.875,6.938c-1.854,1.853-4.318,2.874-6.938,2.874
		C17.673,29.747,15.209,28.728,13.354,26.873z"/>
</g>
</svg>
