<?xml version="1.0" encoding="utf-8"?>
<!-- Generator: Adobe Illustrator 16.0.0, SVG Export Plug-In . SVG Version: 6.00 Build 0)  -->
<!DOCTYPE svg PUBLIC "-//W3C//DTD SVG 1.1//EN" "http://www.w3.org/Graphics/SVG/1.1/DTD/svg11.dtd">
<svg version="1.1" id="Capa_1" xmlns="http://www.w3.org/2000/svg" xmlns:xlink="http://www.w3.org/1999/xlink" x="0px" y="0px"
	 width="70px" height="64px" viewBox="15 0 70 64" enable-background="new 15 0 70 64" xml:space="preserve">
<g>
	<g>
		<path d="M15.875,27.098c0,14.724,15.293,26.723,34.125,26.723c1.26,0,2.522-0.042,3.823-0.162l18.018,9.681
			c0.327,0.202,0.732,0.283,1.138,0.283c0.488,0,1.018-0.121,1.425-0.448c0.773-0.527,1.139-1.464,0.976-2.399l-2.439-13.869
			c7.118-5.084,11.186-12.202,11.186-19.808C84.125,12.375,68.832,0.376,50,0.376S15.875,12.375,15.875,27.098z M20.797,27.098
			c0-12.04,13.137-21.842,29.244-21.842s29.243,9.803,29.243,21.842c0,6.386-3.741,12.406-10.289,16.594
			c-0.854,0.529-1.262,1.506-1.099,2.481l1.831,10.453L55.49,48.98c-0.445-0.243-0.936-0.324-1.423-0.285
			c-1.383,0.123-2.766,0.204-4.066,0.204C33.893,48.899,20.797,39.138,20.797,27.098z"/>
	</g>
</g>
<rect x="47.756" y="13.5" width="6.869" height="18.5"/>
<circle cx="51.191" cy="37.688" r="3.562"/>
</svg>
