<?xml version="1.0" encoding="UTF-8" standalone="no"?>
<svg width="22px" height="24px" viewBox="0 0 22 24" version="1.1" xmlns="http://www.w3.org/2000/svg" xmlns:xlink="http://www.w3.org/1999/xlink" xmlns:sketch="http://www.bohemiancoding.com/sketch/ns">
    <!-- Generator: Sketch 3.1.1 (8761) - http://www.bohemiancoding.com/sketch -->
    <title>icon-user@1x</title>
    <desc></desc>
    <defs></defs>
    <g id="Page-1" stroke="none" stroke-width="1"  fill-rule="evenodd" >
        <g id="icon-user">
            <path d="M21.169,23.13504 C21.169,22.99584 21.165,22.85856 21.159,22.72032 L21.159,22.7136 C20.885,16.37184 16.386,13.10112 10.718,13.10112 C5.093,13.10112 0.508,17.36832 0.278,22.7136 L0.266,22.7136 L0.266,23.5488 L21.159,23.5488 L21.159,23.54976 C21.165,23.41152 21.169,23.27424 21.169,23.13504" id="Fill-1" ></path>
            <path d="M10.718,12.38688 C14.26,12.38688 17.133,9.62976 17.133,6.22848 C17.133,4.25088 15.091,0.07104 10.718,0.07104 C7.176,0.07104 4.303,2.82816 4.303,6.22848 C4.303,9.62976 7.176,12.38688 10.718,12.38688" id="Fill-2" ></path>
        </g>
    </g>
</svg>