<?xml version="1.0" encoding="utf-8"?>
<!-- Generator: Adobe Illustrator 16.0.0, SVG Export Plug-In . SVG Version: 6.00 Build 0)  -->
<!DOCTYPE svg PUBLIC "-//W3C//DTD SVG 1.1//EN" "http://www.w3.org/Graphics/SVG/1.1/DTD/svg11.dtd">
<svg version="1.1" id="Layer_1" xmlns="http://www.w3.org/2000/svg" xmlns:xlink="http://www.w3.org/1999/xlink" x="0px" y="0px"
	 width="600px" height="80px" viewBox="0 0 600 80" enable-background="new 0 0 600 80" xml:space="preserve">
<path d="M500.653,2.028c5.171,0,10.039,0.985,14.593,2.945c4.546,1.963,8.537,4.649,11.947,8.064
	c3.411,3.417,6.104,7.399,8.078,11.953c1.953,4.554,2.938,9.424,2.938,14.602c0,5.182-0.984,10.051-2.938,14.602
	c-1.974,4.555-4.666,8.519-8.078,11.891c-3.41,3.378-7.401,6.048-11.947,8.014c-4.553,1.961-9.422,2.942-14.593,2.942
	c-5.186,0-10.053-0.981-14.608-2.942c-4.555-1.966-8.527-4.635-11.891-8.014c-3.378-3.372-6.047-7.336-8.01-11.891
	c-1.965-4.551-2.938-9.42-2.938-14.602c0-5.178,0.975-10.047,2.938-14.602c1.963-4.554,4.632-8.536,8.01-11.953
	c3.362-3.416,7.336-6.101,11.891-8.064C490.602,3.013,495.469,2.028,500.653,2.028z M481.917,39.709
	c0,2.591,0.496,5.025,1.483,7.305c0.974,2.275,2.331,4.278,4.06,6.002c1.726,1.729,3.725,3.086,6,4.062
	c2.28,0.987,4.711,1.475,7.308,1.475c2.586,0,5.021-0.485,7.291-1.475c2.287-0.978,4.28-2.332,6.011-4.062
	c1.729-1.724,3.072-3.727,4.062-6.002c0.986-2.279,1.48-4.713,1.48-7.305c0-2.59-0.494-5.021-1.48-7.303
	c-0.99-2.271-2.334-4.274-4.062-6c-1.729-1.729-3.724-3.081-6.011-4.062c-2.27-0.982-4.705-1.475-7.291-1.475
	c-2.598,0-5.027,0.493-7.308,1.475c-2.275,0.981-4.274,2.333-6,4.062c-1.729,1.726-3.086,3.729-4.06,6
	C482.412,34.688,481.917,37.12,481.917,39.709z"/>
<path d="M456.359,4.618c-1.683-1.721-3.902-2.59-6.655-2.59c-2.667,0-4.923,0.791-6.763,2.355
	c-1.851,1.571-2.77,3.849-2.77,6.833v11.421c0,1.256-0.259,2.355-0.764,3.299c-0.52,0.941-1.146,1.727-1.887,2.355
	c-0.752,0.628-1.593,1.099-2.535,1.413c-0.94,0.314-1.805,0.473-2.592,0.473c-0.863,0-1.728-0.158-2.578-0.473
	c-0.874-0.313-1.695-0.784-2.48-1.413c-0.786-0.629-1.411-1.415-1.886-2.355c-0.469-0.944-0.705-2.043-0.705-3.299V11.215
	c0-2.982-0.921-5.262-2.761-6.833c-1.852-1.563-4.104-2.355-6.775-2.355c-2.749,0-4.971,0.869-6.662,2.59
	c-1.684,1.728-2.522,3.928-2.522,6.598v11.421c0,3.14,0.595,6.283,1.76,9.424c1.188,3.133,2.896,5.945,5.129,8.413
	c2.231,2.472,4.989,4.5,8.244,6.067c0.63,0.306,1.277,0.571,1.94,0.819v20.49c0,2.67,0.862,4.869,2.594,6.599
	c1.728,1.727,3.924,2.591,6.597,2.591c2.734,0,5.024-0.864,6.818-2.591c1.816-1.729,2.715-3.929,2.715-6.599V47.316
	c0.629-0.232,1.233-0.496,1.815-0.775c3.266-1.568,6.036-3.598,8.301-6.067c2.289-2.468,4.018-5.28,5.185-8.413
	c1.188-3.141,1.771-6.284,1.771-9.424V11.215C458.896,8.545,458.044,6.345,456.359,4.618z"/>
<path d="M383.217,46.665c-0.729-1.915-1.626-3.698-2.703-5.341c-1.089-1.644-2.298-3.09-3.646-4.342
	c-1.347-1.249-2.648-2.271-3.903-3.052c1.165-1.486,2.243-3.229,3.23-5.229c0.986-1.989,1.479-4.356,1.479-7.1
	c0-3.595-0.807-6.646-2.423-9.153c-1.613-2.502-3.701-4.521-6.271-6.049c-2.568-1.525-5.441-2.641-8.625-3.342
	C357.157,2.352,353.936,2,350.707,2h-15.65c-2.974,0-5.441,0.843-7.413,2.523c-1.986,1.687-3.021,3.775-3.108,6.284v58.224
	c0,2.428,1.021,4.363,3.04,5.81c2.02,1.453,4.509,2.171,7.481,2.171h15.65c3.23,0,6.784-0.33,10.659-0.998
	c3.857-0.66,7.503-1.912,10.925-3.75c3.411-1.842,6.258-4.328,8.559-7.457c2.301-3.131,3.444-7.162,3.444-12.094
	C384.294,50.602,383.934,48.584,383.217,46.665z M342.876,15.994h11.621c0.81,0,1.524,0.168,2.132,0.494
	c0.605,0.333,1.11,0.742,1.514,1.217c0.405,0.481,0.71,1.026,0.91,1.633c0.2,0.612,0.312,1.166,0.312,1.671
	c0,0.561-0.112,1.115-0.312,1.678c-0.2,0.556-0.504,1.087-0.91,1.592c-0.402,0.509-0.907,0.915-1.514,1.217
	c-0.604,0.302-1.322,0.454-2.132,0.454h-11.621V15.994z M364.099,53.639c-0.312,0.861-0.782,1.688-1.408,2.473
	c-0.631,0.789-1.416,1.414-2.356,1.885c-0.943,0.472-2.042,0.709-3.299,0.709h-13.811v-15.43h13.811
	c1.257,0,2.354,0.254,3.299,0.765c0.94,0.511,1.727,1.14,2.356,1.884c0.626,0.747,1.096,1.59,1.408,2.53
	c0.314,0.944,0.475,1.806,0.475,2.59C364.572,51.908,364.413,52.773,364.099,53.639z"/>
<path fill="#0079BF" d="M398.887,76.973c-1.337,0-2.604-0.229-3.783-0.688c-1.166-0.451-2.205-1.072-3.081-1.847
	c-0.911-0.785-1.639-1.711-2.178-2.76c-0.559-1.096-0.854-2.285-0.854-3.527c0-1.627,0.526-3.176,1.55-4.602
	c0.493-0.678,1.075-1.307,1.749-1.886c-0.529-0.493-0.987-1.042-1.369-1.634c-0.415-0.652-0.751-1.348-0.985-2.062
	c-0.271-0.742-0.394-1.506-0.394-2.246c0-1.162,0.258-2.285,0.795-3.337c0.505-1.018,1.188-1.903,2.041-2.646
	c0.833-0.717,1.807-1.301,2.92-1.729c1.111-0.422,2.311-0.646,3.589-0.646c1.223,0,2.421,0.225,3.544,0.646
	c1.123,0.43,2.111,1.012,2.939,1.729c0.852,0.74,1.55,1.628,2.054,2.646c0.53,1.052,0.797,2.175,0.797,3.337
	c0,1.043-0.245,2.081-0.717,3.077c-0.448,0.976-1.122,1.875-1.974,2.659c-0.854,0.77-1.897,1.396-3.098,1.869
	c-0.01,0-0.021,0.002-0.021,0.002l4.8,3.762l3.39-2.76c0.458-0.395,1.03-0.602,1.66-0.602c1.447,0,2.468,0.977,2.468,2.371
	c0,0.523-0.18,1.024-0.538,1.49c-0.066,0.1-0.158,0.184-0.246,0.253l-0.044,0.046c0,0.006-0.024,0.016-0.024,0.022l-2.762,2.307
	l2.874,2.355c0.022,0.02,0.032,0.028,0.043,0.042c0.54,0.457,0.831,1.093,0.831,1.785c0,1.398-1.013,2.377-2.47,2.377
	c-0.628,0-1.188-0.209-1.658-0.598l-3.522-2.828c-0.572,0.438-1.122,0.826-1.613,1.164c-0.855,0.564-1.639,1.024-2.356,1.371
	c-0.764,0.371-1.503,0.646-2.196,0.82C400.311,76.885,399.58,76.973,398.887,76.973L398.887,76.973z M396.237,64.674
	c-0.605,0.371-1.122,0.815-1.524,1.33c-0.518,0.659-0.787,1.357-0.787,2.146c0,0.543,0.114,1.041,0.349,1.506
	c0.248,0.506,0.57,0.926,1.001,1.299c0.445,0.386,0.975,0.693,1.593,0.922c0.604,0.229,1.287,0.344,2.02,0.344
	c0.764,0,1.596-0.248,2.446-0.736c0.592-0.338,1.256-0.762,1.974-1.271L396.237,64.674L396.237,64.674z M398.887,52.118
	c-0.674,0-1.29,0.099-1.854,0.309c-0.548,0.193-1.021,0.464-1.393,0.796c-0.366,0.32-0.648,0.687-0.862,1.131
	c-0.203,0.422-0.305,0.864-0.305,1.367c0,0.5,0.092,0.934,0.282,1.328c0.202,0.42,0.471,0.771,0.832,1.086
	c0.391,0.338,0.872,0.619,1.435,0.833c0.552,0.21,1.188,0.327,1.886,0.349c0.65,0,1.242-0.098,1.772-0.301
	c0.535-0.197,1.007-0.473,1.39-0.805c0.357-0.312,0.651-0.684,0.854-1.129c0.203-0.416,0.314-0.863,0.314-1.361
	c0-0.503-0.111-0.945-0.314-1.367c-0.201-0.442-0.495-0.812-0.854-1.133c-0.382-0.332-0.854-0.602-1.39-0.802
	C400.144,52.217,399.536,52.118,398.887,52.118L398.887,52.118z"/>
<path d="M398.887,76.973c-1.337,0-2.604-0.229-3.783-0.688c-1.166-0.451-2.205-1.072-3.081-1.847
	c-0.911-0.785-1.639-1.711-2.178-2.76c-0.559-1.096-0.854-2.285-0.854-3.527c0-1.627,0.526-3.176,1.55-4.602
	c0.493-0.678,1.075-1.307,1.749-1.886c-0.529-0.493-0.987-1.042-1.369-1.634c-0.415-0.652-0.751-1.348-0.985-2.062
	c-0.271-0.742-0.394-1.506-0.394-2.246c0-1.162,0.258-2.285,0.795-3.337c0.505-1.018,1.188-1.903,2.041-2.646
	c0.833-0.717,1.807-1.301,2.92-1.729c1.111-0.422,2.311-0.646,3.589-0.646c1.223,0,2.421,0.225,3.544,0.646
	c1.123,0.43,2.111,1.012,2.939,1.729c0.852,0.74,1.55,1.628,2.054,2.646c0.53,1.052,0.797,2.175,0.797,3.337
	c0,1.043-0.245,2.081-0.717,3.077c-0.448,0.976-1.122,1.875-1.974,2.659c-0.854,0.77-1.897,1.396-3.098,1.869
	c-0.01,0-0.021,0.002-0.021,0.002l4.8,3.762l3.39-2.76c0.458-0.395,1.03-0.602,1.66-0.602c1.447,0,2.468,0.977,2.468,2.371
	c0,0.523-0.18,1.024-0.538,1.49c-0.066,0.1-0.158,0.184-0.246,0.253l-0.044,0.046c0,0.006-0.024,0.016-0.024,0.022l-2.762,2.307
	l2.874,2.355c0.022,0.02,0.032,0.028,0.043,0.042c0.54,0.457,0.831,1.093,0.831,1.785c0,1.398-1.013,2.377-2.47,2.377
	c-0.628,0-1.188-0.209-1.658-0.598l-3.522-2.828c-0.572,0.438-1.122,0.826-1.613,1.164c-0.855,0.564-1.639,1.024-2.356,1.371
	c-0.764,0.371-1.503,0.646-2.196,0.82C400.311,76.885,399.58,76.973,398.887,76.973L398.887,76.973z M396.237,64.674
	c-0.605,0.371-1.122,0.815-1.524,1.33c-0.518,0.659-0.787,1.357-0.787,2.146c0,0.543,0.114,1.041,0.349,1.506
	c0.248,0.506,0.57,0.926,1.001,1.299c0.445,0.386,0.975,0.693,1.593,0.922c0.604,0.229,1.287,0.344,2.02,0.344
	c0.764,0,1.596-0.248,2.446-0.736c0.592-0.338,1.256-0.762,1.974-1.271L396.237,64.674L396.237,64.674z M398.887,52.118
	c-0.674,0-1.29,0.099-1.854,0.309c-0.548,0.193-1.021,0.464-1.393,0.796c-0.366,0.32-0.648,0.687-0.862,1.131
	c-0.203,0.422-0.305,0.864-0.305,1.367c0,0.5,0.092,0.934,0.282,1.328c0.202,0.42,0.471,0.771,0.832,1.086
	c0.391,0.338,0.872,0.619,1.435,0.833c0.552,0.21,1.188,0.327,1.886,0.349c0.65,0,1.242-0.098,1.772-0.301
	c0.535-0.197,1.007-0.473,1.39-0.805c0.357-0.312,0.651-0.684,0.854-1.129c0.203-0.416,0.314-0.863,0.314-1.361
	c0-0.503-0.111-0.945-0.314-1.367c-0.201-0.442-0.495-0.812-0.854-1.133c-0.382-0.332-0.854-0.602-1.39-0.802
	C400.144,52.217,399.536,52.118,398.887,52.118L398.887,52.118z"/>
<path d="M570.968,58.316c0.785,0,1.649-0.16,2.591-0.476c0.943-0.313,1.785-0.784,2.535-1.409
	c0.74-0.631,1.37-1.416,1.887-2.356c0.505-0.944,0.764-2.044,0.764-3.3V11.333c0-2.984,0.918-5.261,2.771-6.832
	c1.841-1.564,4.094-2.35,6.767-2.35c2.749,0,4.968,0.863,6.651,2.585c1.683,1.729,2.533,3.927,2.533,6.597v39.444
	c0,3.142-0.581,6.281-1.772,9.425c-1.163,3.141-2.892,5.946-5.182,8.42c-2.266,2.474-5.037,4.494-8.302,6.063
	c-3.254,1.569-7.001,2.354-11.239,2.354c-4.24,0-7.986-0.785-11.241-2.354c-3.251-1.571-6.015-3.592-8.243-6.063
	c-2.231-2.474-3.938-5.279-5.128-8.42c-1.168-3.144-1.762-6.283-1.762-9.425V11.333c0-2.67,0.84-4.868,2.523-6.597
	c1.693-1.723,3.902-2.585,6.664-2.585c2.669,0,4.923,0.788,6.771,2.35c1.844,1.571,2.763,3.848,2.763,6.832v39.444
	c0,1.257,0.236,2.355,0.706,3.3c0.472,0.94,1.101,1.728,1.886,2.354c0.783,0.627,1.604,1.098,2.479,1.412
	C569.238,58.156,570.104,58.316,570.968,58.316z"/>
<path d="M184.433,77.902c13.052,0,19.454-11.27,19.454-11.27V77.09l6.138,0.003V51.689
	c-0.025-14.396-11.53-26.104-25.64-26.104c-13.953,0.03-25.673,12.441-25.641,27.099C158.772,66.825,169.709,77.902,184.433,77.902z
	 M184.419,71.693c-10.435,0-18.903-8.936-18.905-19.912c-0.026-10.805,8.72-19.967,18.834-19.985h0.042
	c10.39,0,18.856,8.931,18.879,19.909C203.277,62.705,194.826,71.668,184.419,71.693z"/>
<path d="M237.403,11.87v45.864c-0.014,6.619,1.473,11.91,4.804,15.32c4.768,4.865,12.152,6.098,22.81,3.557
	l-1.309-5.711c-13.243,3.492-19.661-0.77-19.636-14.92V31.758h18.467v-5.437h-18.467V11.87H237.403z"/>
<path d="M141.55,77.111h6.496V31.758h12.643v-5.415h-12.715l-0.007-1.948c-0.019-12.372,3.629-18.647,16.795-14.974
	L166.3,4.02c-2.932-0.727-5.37-1.1-7.87-1.1c-10.207,0-16.789,7.192-16.789,21.469v1.954h-6.42v5.415h6.329V77.111L141.55,77.111z"
	/>
<path d="M99.644,77.111h6.601V45.979c0-10.283,3.187-14.441,12.977-14.441c2.63,0,5.641,0.418,9.021,1.29
	l1.506-5.978c-4.021-0.939-7.1-1.262-10.48-1.262c-14.449,0-19.625,7.273-19.625,19.554V77.111z"/>
<rect x="219.326" y="26.359" width="6.603" height="50.734"/>
<path d="M227.193,8.592c0-2.636-2.142-4.785-4.785-4.785c-2.645,0-4.788,2.149-4.788,4.785
	c0,2.648,2.143,4.788,4.788,4.788C225.049,13.379,227.193,11.24,227.193,8.592z"/>
<path d="M68.568,25.654c-14.137,0-25.599,11.689-25.599,26.12c0,14.43,11.461,26.129,25.599,26.129
	c14.143,0,25.61-11.699,25.61-26.129C94.177,37.344,82.711,25.654,68.568,25.654z M68.568,72.123
	c-10.806,0-19.561-9.109-19.561-20.348c0-11.239,8.756-20.346,19.561-20.346c10.805,0,19.562,9.108,19.562,20.346
	C88.129,63.014,79.373,72.123,68.568,72.123z"/>
<path d="M9.772,77.111V41.464H39.83v-5.829H9.784c0,0,0-11.513,0-18.933c0-6.211,1.43-8.541,7.437-8.541
	c4.732,0,25.877,0,25.877,0V2.014c0,0-19.353,0-26.062,0c-10.294,0-14.034,4.533-14.034,14.162c0,7.511,0,11.141-0.002,60.938h6.772
	V77.111z"/>
<path d="M270.392,73.887c4.578,2.428,10.65,4.018,17.461,4.018c10.573,0,17.778-6.021,17.778-15.346
	c0-9.533-6.963-12.467-16.579-15.303c-6.013-1.779-11.464-3.457-11.464-8.872c0-2.262,0.945-7.225,9.647-7.225
	c5.214,0,9.591,1.168,13.94,3.381l1.747-5.561c-4.623-2.338-10.007-3.418-14.487-3.418c-12.115,0-17.421,6.365-17.421,14.032
	c0,8.402,6.841,10.988,16.292,13.726c6.556,1.899,11.979,3.692,11.979,9.82c0,4.67-3.678,9.088-11.902,9.088
	c-4.966,0-10.711-1.564-15.06-4.037L270.392,73.887z"/>
</svg>
