<?xml version="1.0" encoding="utf-8"?>
<!-- Generator: Adobe Illustrator 15.1.0, SVG Export Plug-In  -->
<!DOCTYPE svg PUBLIC "-//W3C//DTD SVG 1.1//EN" "http://www.w3.org/Graphics/SVG/1.1/DTD/svg11.dtd" [
	<!ENTITY ns_flows "http://ns.adobe.com/Flows/1.0/">
]>
<svg version="1.1"
	 xmlns="http://www.w3.org/2000/svg" xmlns:xlink="http://www.w3.org/1999/xlink" xmlns:a="http://ns.adobe.com/AdobeSVGViewerExtensions/3.0/"
	 x="0px" y="0px" width="512px" height="512px" viewBox="-4.859 -4.797 512 512"
	 overflow="visible" enable-background="new -4.859 -4.797 512 512" xml:space="preserve">
<defs>
</defs>
<path d="M502.256,474.349c0,15.411-12.493,27.904-27.901,27.904H27.903C12.494,502.253,0,489.76,0,474.349V27.903
	C0,12.494,12.494,0,27.903,0h446.451c15.408,0,27.901,12.494,27.901,27.903V474.349z"/>
<path fill="#FFFFFF" d="M354.723,372.959H153.938c-3.353,0-6.07,2.718-6.07,6.058c0,3.352,2.718,6.062,6.07,6.062h200.785
	c3.345,0,6.056-2.71,6.056-6.062C360.778,375.677,358.067,372.959,354.723,372.959z"/>
<path fill="#FFFFFF" d="M447.949,117.179H60.697c-4.455,0-8.079,3.624-8.079,8.079V352.76c0,4.47,3.624,8.08,8.079,8.08h387.252
	c4.469,0,8.079-3.61,8.079-8.08V125.257C456.028,120.803,452.418,117.179,447.949,117.179z M443.91,348.722H64.737V129.297H443.91
	V348.722z"/>
<path fill="#FFFFFF" d="M159.23,240.89h-26.445c0,0,0,12.508,0,25.401c0,9.898,0.279,15.505,3.052,18.462
	c2.644,2.807,7.814,3.08,23.522,3.08c18.387,0,28.898-8.291,28.898-23.271C188.258,250.856,179.974,240.89,159.23,240.89z"/>
<path fill="#FFFFFF" d="M176.745,205.888c0-14.061-13.501-17.181-24.129-17.181H136.11h-3.325v17.439v18.285h21.717
	C165.096,224.432,176.745,218.43,176.745,205.888z"/>
<path fill="#FFFFFF" d="M431.757,141.417H76.856v195.187h354.901V141.417z M155.498,304.899c-23.631,0-30.839-2.399-35.561-7.441
	c-4.721-5.033-6.737-12.921-6.737-24.311c0-9.805,0-43.32,0-66.639c0-18.816,0-34.252,0-34.252s7.221,0,22.18,0
	c8.972,0,17.426,0,21.608,0c24.307,0,38.327,13.311,38.327,34.027c0,8.196-4.061,16.582-10.464,22.781
	c16.016,5.879,23.264,19.041,23.264,34.279C208.116,288.024,190.104,304.899,155.498,304.899z M224.915,304.938
	c-7.072,0-12.801-5.708-12.821-12.765c-0.013-7.05,5.702-12.795,12.766-12.809c7.058-0.014,12.8,5.696,12.807,12.761
	C237.681,299.182,231.965,304.917,224.915,304.938z M245.08,268.848v-77.565h18.761c0,3.576,0,16.581,0,23.863h31.506v15.757
	h-31.506c0,12.188,0,33.918,0,33.918c-0.049,20.778,12.656,27.863,32.222,21.343l4.196,15.704
	C262.635,312.05,245.038,296.164,245.08,268.848z M377.96,281.776c-3.522,13.857-11.063,23.162-26.698,23.162
	c-16.016,0-21.88-8.078-26.432-23.162c-6.703-22.221-20.545-66.712-20.545-66.712h20.654c0,0,14.646,48.606,20.157,65.386
	c1.403,4.265,2.528,7.355,6.833,7.355c4.319,0,5.893-2.063,7.187-7.355c5.873-23.755,16.807-65.386,16.807-65.386h19.517
	C395.439,215.064,383.594,259.555,377.96,281.776z"/>
</svg>
