<?xml version="1.0" encoding="utf-8"?>
<!-- Generator: Adobe Illustrator 16.0.0, SVG Export Plug-In . SVG Version: 6.00 Build 0)  -->
<!DOCTYPE svg PUBLIC "-//W3C//DTD SVG 1.1//EN" "http://www.w3.org/Graphics/SVG/1.1/DTD/svg11.dtd">
<svg version="1.1" id="Layer_1" xmlns="http://www.w3.org/2000/svg" xmlns:xlink="http://www.w3.org/1999/xlink" x="0px" y="0px"
	 width="32px" height="32px" viewBox="0 0 32 32" enable-background="new 0 0 32 32" xml:space="preserve">
<g>
	<path d="M3.791,3.033h11.092V7.96c0,0.445,0.165,0.873,0.48,1.188c0.317,0.313,0.739,0.473,1.185,0.47l4.99-0.046
		h0.03v9.55h2.571V9.514c0-1.11-0.424-2.178-1.206-2.968l-4.95-4.993c-0.792-0.8-1.863-1.237-2.988-1.237H3.504
		c-1.257,0-2.284,0.994-2.284,2.252v24.424c0,1.257,1.027,2.269,2.284,2.269h6.018v-2.572h-5.73V3.033z M17.455,4.803L19.734,7
		h-0.005l-2.274,0.053V4.803z"/>
	<path d="M6.966,8.544h3.607c0.718,0,1.301-0.568,1.301-1.288c0-0.717-0.583-1.284-1.301-1.284H6.966
		c-0.719,0-1.3,0.567-1.3,1.284C5.666,7.976,6.247,8.544,6.966,8.544z"/>
	<path d="M18.461,10.967H6.966c-0.719,0-1.3,0.566-1.3,1.285s0.581,1.287,1.3,1.287h11.495
		c0.719,0,1.302-0.568,1.302-1.287S19.18,10.967,18.461,10.967z"/>
	<path d="M18.461,15.815H6.966c-0.719,0-1.3,0.679-1.3,1.396c0,0.719,0.581,1.396,1.3,1.396h11.495
		c0.719,0,1.302-0.678,1.302-1.396C19.763,16.494,19.18,15.815,18.461,15.815z"/>
	<path d="M5.666,22.098c0,0.718,0.581,1.284,1.3,1.284h2.556v-2.57H6.966C6.247,20.812,5.666,21.381,5.666,22.098z"
		/>
	<path d="M17.015,24.567c-0.252,0-0.442,0.024-0.515,0.049v1.619c0.147,0.023,0.238,0.031,0.418,0.031
		c0.658,0,1.067-0.332,1.067-0.895C17.985,24.868,17.632,24.567,17.015,24.567z"/>
	<path d="M13.309,20.738c-1.037,0-1.878,0.841-1.878,1.879v7.555c0,1.038,0.841,1.879,1.878,1.879h16.813
		c1.038,0,1.879-0.841,1.879-1.879v-7.555c0-1.038-0.841-1.879-1.879-1.879H13.309z M18.709,26.641
		c-0.423,0.399-1.053,0.577-1.784,0.577c-0.163,0-0.277-0.007-0.425-0.024v1.993h-1.249v-5.439c0.44-0.066,0.933-0.114,1.689-0.114
		c0.764,0,1.315,0.147,1.682,0.439c0.349,0.276,0.588,0.731,0.588,1.267C19.21,25.875,19.033,26.331,18.709,26.641z M23.939,28.502
		c-0.577,0.479-1.445,0.708-2.518,0.708c-0.643,0-1.102-0.041-1.396-0.081v-5.382c0.44-0.073,1.037-0.114,1.663-0.114
		c1.041,0,1.711,0.187,2.24,0.585c0.567,0.423,0.923,1.098,0.923,2.064C24.853,27.332,24.468,28.056,23.939,28.502z M28.988,24.705
		h-2.058v1.248h1.983v1.028h-1.983v2.205h-1.248v-5.511h3.306V24.705z"/>
	<path d="M21.823,24.584c-0.276,0-0.475,0.024-0.548,0.049v3.585c0.073,0.025,0.264,0.025,0.416,0.025
		c1.122,0.007,1.842-0.61,1.842-1.92C23.54,25.187,22.888,24.584,21.823,24.584z"/>
</g>
</svg>
