<?xml version="1.0" encoding="utf-8"?>
<!-- Generator: Adobe Illustrator 16.0.0, SVG Export Plug-In . SVG Version: 6.00 Build 0)  -->
<!DOCTYPE svg PUBLIC "-//W3C//DTD SVG 1.1//EN" "http://www.w3.org/Graphics/SVG/1.1/DTD/svg11.dtd">
<svg version="1.1" id="Layer_1" xmlns="http://www.w3.org/2000/svg" xmlns:xlink="http://www.w3.org/1999/xlink" x="0px" y="0px"
	 width="80px" height="100px" viewBox="0 0 80 100" enable-background="new 0 0 80 100" xml:space="preserve">
<g>
	<g>
		<g>
			<g>
				
					<linearGradient id="SVGID_1_" gradientUnits="userSpaceOnUse" x1="707.6621" y1="495.5176" x2="707.6621" y2="570.7263" gradientTransform="matrix(1 0 0 1 -668 -494)">
					<stop  offset="0" style="stop-color:#84BD00"/>
					<stop  offset="1" style="stop-color:#7DAE00"/>
				</linearGradient>
				<path fill="url(#SVGID_1_)" d="M39.662,1.252C18.861,1.252,2,18.113,2,38.914c0,20.801,16.861,37.662,37.662,37.662
					c20.799,0,37.663-16.861,37.663-37.662C77.325,18.113,60.461,1.252,39.662,1.252z"/>
			</g>
			<g opacity="0.4">
				
					<radialGradient id="SVGID_2_" cx="707.6621" cy="532.9141" r="51.4804" fx="707.7318" fy="507.9598" gradientTransform="matrix(1 0 0 1 -668 -494)" gradientUnits="userSpaceOnUse">
					<stop  offset="0.0919" style="stop-color:#FFFFFF"/>
					<stop  offset="0.8336" style="stop-color:#FFFFFF;stop-opacity:0"/>
				</radialGradient>
				<path fill="url(#SVGID_2_)" d="M39.662,1.252C18.861,1.252,2,18.113,2,38.914c0,20.801,16.861,37.662,37.662,37.662
					c20.799,0,37.663-16.861,37.663-37.662C77.325,18.113,60.461,1.252,39.662,1.252z"/>
			</g>
			<g opacity="0.2">
				<g>
					<path d="M18.268,36.278c13.679-4.152,30.682-2.141,42.307,5.003c0.843,0.52,1.327,1.394,1.388,2.31
						c0.018-1.005-0.47-1.994-1.388-2.559C48.95,33.89,31.947,31.878,18.268,36.03c-1.359,0.413-2.198,1.724-2.07,3.087
						C16.187,37.846,16.992,36.666,18.268,36.278z"/>
					<path d="M19.576,48.147c14.346-3.28,26.65-1.869,36.578,4.197c0.67,0.41,1.058,1.104,1.111,1.832
						c0.025-0.816-0.365-1.625-1.111-2.08c-9.928-6.066-22.232-7.478-36.578-4.198c-1.139,0.26-1.885,1.305-1.813,2.433
						C17.809,49.302,18.521,48.387,19.576,48.147z"/>
					<path d="M16.141,23.543c13.303-4.039,35.417-3.258,49.394,5.037c1.029,0.611,1.631,1.667,1.712,2.778
						c-0.004-1.2-0.604-2.369-1.712-3.026c-13.977-8.296-36.091-9.076-49.394-5.038c-1.632,0.497-2.639,2.068-2.483,3.701
						C13.621,25.455,14.592,24.014,16.141,23.543z"/>
				</g>
			</g>
			<g>
				<path fill="#FFFFFF" d="M60.575,41.281c-11.625-7.144-28.628-9.155-42.307-5.003c-1.55,0.471-2.426,2.108-1.958,3.661
					c0.472,1.55,2.112,2.426,3.665,1.957c11.974-3.635,27.407-1.833,37.527,4.389c1.38,0.848,3.189,0.415,4.039-0.967
					C62.391,43.939,61.955,42.131,60.575,41.281z"/>
				<path fill="#FFFFFF" d="M65.535,28.581c-13.977-8.295-36.091-9.076-49.394-5.037c-1.863,0.565-2.913,2.532-2.348,4.394
					c0.563,1.861,2.532,2.912,4.392,2.348c11.589-3.518,31.613-2.855,43.754,4.354c1.67,0.994,3.834,0.442,4.826-1.232
					C67.758,31.737,67.209,29.575,65.535,28.581z"/>
				<path fill="#FFFFFF" d="M56.154,52.346c-9.928-6.067-22.232-7.478-36.578-4.198c-1.267,0.288-2.055,1.547-1.766,2.81
					c0.288,1.265,1.546,2.056,2.81,1.767c13.109-2.996,24.241-1.772,33.084,3.631c1.106,0.679,2.553,0.328,3.229-0.779
					C57.609,54.467,57.261,53.021,56.154,52.346z"/>
			</g>
		</g>
	</g>
	<g>
		<g>
			<path fill="#000001" d="M14.222,87.965c-2.543-0.607-2.996-1.031-2.996-1.927c0-0.845,0.796-1.413,1.979-1.413
				c1.147,0,2.284,0.434,3.476,1.32c0.036,0.027,0.08,0.037,0.125,0.029c0.044-0.007,0.084-0.029,0.109-0.066l1.242-1.751
				c0.051-0.071,0.037-0.171-0.031-0.228c-1.419-1.138-3.017-1.691-4.884-1.691c-2.746,0-4.664,1.646-4.664,4.007
				c0,2.526,1.654,3.424,4.513,4.114c2.433,0.56,2.844,1.029,2.844,1.869c0,0.93-0.831,1.508-2.167,1.508
				c-1.484,0-2.695-0.5-4.05-1.672c-0.033-0.029-0.08-0.043-0.122-0.041c-0.044,0.004-0.086,0.023-0.115,0.06l-1.39,1.657
				c-0.058,0.068-0.052,0.173,0.017,0.23c1.576,1.405,3.514,2.149,5.605,2.149c2.959,0,4.871-1.618,4.871-4.119
				C18.584,89.886,17.32,88.719,14.222,87.965z"/>
			<path fill="#000001" d="M25.277,85.456c-1.281,0-2.333,0.507-3.201,1.541v-1.166c0-0.09-0.074-0.166-0.166-0.166h-2.277
				c-0.092,0-0.166,0.076-0.166,0.166v12.944c0,0.095,0.074,0.168,0.166,0.168h2.277c0.092,0,0.166-0.073,0.166-0.168v-4.086
				c0.868,0.975,1.92,1.449,3.201,1.449c2.383,0,4.796-1.837,4.796-5.343S27.66,85.456,25.277,85.456z M27.425,90.798
				c0,1.786-1.1,3.033-2.674,3.033c-1.557,0-2.732-1.304-2.732-3.033s1.175-3.03,2.732-3.03
				C26.3,87.768,27.425,89.042,27.425,90.798z"/>
			<path fill="#000001" d="M36.256,85.456c-3.068,0-5.473,2.362-5.473,5.381c0,2.983,2.387,5.323,5.435,5.323
				c3.081,0,5.493-2.355,5.493-5.362C41.711,87.805,39.315,85.456,36.256,85.456z M36.256,93.85c-1.632,0-2.863-1.312-2.863-3.052
				c0-1.746,1.188-3.012,2.825-3.012c1.643,0,2.881,1.312,2.881,3.051C39.1,92.582,37.905,93.85,36.256,93.85z"/>
			<path fill="#000001" d="M48.264,85.665h-2.505v-2.562c0-0.094-0.075-0.168-0.167-0.168h-2.275c-0.094,0-0.168,0.074-0.168,0.168
				v2.562h-1.094c-0.093,0-0.166,0.076-0.166,0.166v1.958c0,0.093,0.073,0.167,0.166,0.167h1.094v5.062
				c0,2.049,1.02,3.086,3.028,3.086c0.814,0,1.492-0.17,2.134-0.529c0.049-0.03,0.082-0.086,0.082-0.146v-1.863
				c0-0.058-0.031-0.11-0.078-0.143c-0.051-0.031-0.11-0.031-0.162-0.007c-0.439,0.22-0.861,0.321-1.338,0.321
				c-0.729,0-1.056-0.33-1.056-1.074v-4.706h2.505c0.09,0,0.166-0.074,0.166-0.167v-1.958C48.43,85.741,48.354,85.665,48.264,85.665
				z"/>
			<path fill="#000001" d="M56.994,85.675v-0.315c0-0.924,0.354-1.338,1.148-1.338c0.477,0,0.856,0.096,1.283,0.236
				c0.053,0.018,0.106,0.01,0.149-0.023c0.043-0.03,0.067-0.082,0.067-0.135v-1.918c0-0.074-0.047-0.14-0.117-0.16
				c-0.45-0.135-1.027-0.271-1.895-0.271c-2.102,0-3.214,1.185-3.214,3.423v0.48h-1.094c-0.093,0-0.167,0.076-0.167,0.169v1.967
				c0,0.093,0.074,0.167,0.167,0.167h1.094v7.811c0,0.094,0.075,0.168,0.166,0.168h2.276c0.093,0,0.166-0.074,0.166-0.168v-7.811
				h2.129l3.256,7.809c-0.369,0.82-0.734,0.982-1.23,0.982c-0.402,0-0.824-0.119-1.257-0.354c-0.039-0.023-0.087-0.026-0.131-0.016
				c-0.043,0.018-0.081,0.051-0.101,0.092l-0.771,1.692c-0.038,0.08-0.006,0.176,0.073,0.215C59.802,98.812,60.529,99,61.428,99
				c1.684,0,2.611-0.785,3.43-2.891l3.953-10.207c0.019-0.053,0.015-0.11-0.02-0.153c-0.031-0.047-0.082-0.074-0.137-0.074h-2.371
				c-0.068,0-0.135,0.046-0.156,0.111l-2.429,6.938l-2.658-6.941c-0.024-0.064-0.089-0.107-0.157-0.107L56.994,85.675L56.994,85.675
				z"/>
			<path fill="#000001" d="M51.932,85.665h-2.274c-0.093,0-0.167,0.076-0.167,0.166v9.935c0,0.094,0.074,0.168,0.167,0.168h2.274
				c0.094,0,0.168-0.074,0.168-0.168v-9.935C52.1,85.741,52.023,85.665,51.932,85.665z"/>
			<circle fill="#000001" cx="50.807" cy="82.774" r="1.633"/>
		</g>
		<g>
			<path fill="#000001" d="M70.754,88.857c-0.902,0-1.604-0.725-1.604-1.604s0.709-1.609,1.613-1.609
				c0.896,0,1.601,0.724,1.601,1.603S71.652,88.857,70.754,88.857z M70.764,85.805c-0.822,0-1.443,0.651-1.443,1.451
				c0,0.799,0.615,1.442,1.436,1.442s1.439-0.652,1.439-1.451C72.193,86.447,71.578,85.805,70.764,85.805z M71.117,87.413
				l0.453,0.633h-0.383l-0.408-0.581h-0.35v0.581h-0.32v-1.681h0.75c0.391,0,0.646,0.199,0.646,0.535
				C71.507,87.178,71.348,87.346,71.117,87.413z M70.848,86.654H70.43v0.531h0.418c0.207,0,0.332-0.104,0.332-0.269
				C71.18,86.745,71.055,86.654,70.848,86.654z"/>
		</g>
	</g>
</g>
</svg>
