<?xml version="1.0" encoding="UTF-8" standalone="no"?>
<svg width="36px" height="32px" viewBox="0 0 36 32" version="1.1" xmlns="http://www.w3.org/2000/svg" xmlns:xlink="http://www.w3.org/1999/xlink">
    <g id="PATRIMONIO" fill-rule="evenodd">
        <g id="1" transform="translate(-7.000000, -268.000000)" >
            <g id="Group" transform="translate(0.000000, 258.250000)">
                <g id="Page-1" transform="translate(6.750000, 9.750000)">
                    <path d="M25.3197559,14.599671 C24.8679517,13.7137458 24.5138243,13.1281009 24.2562064,12.8427364 C23.9989776,12.5577645 23.7740483,12.3940822 23.5825861,12.3524748 C23.3911238,12.3100822 23.2093903,12.3340262 23.0354399,12.423914 C22.8618785,12.5141944 22.7354045,12.6500075 22.656796,12.8329234 C22.5774092,13.0150542 22.5735177,13.2694093 22.6458998,13.5967738 C22.7377394,14.0222692 23.0093667,14.6777832 23.4607818,15.5637084 C23.9125861,16.4496336 24.2667134,17.035671 24.5247205,17.3210355 C24.7819493,17.6067925 25.0057111,17.7689047 25.1967842,17.8093346 C25.387079,17.8497645 25.5692017,17.824643 25.742763,17.7343626 C25.9163243,17.6444748 26.0424092,17.5086617 26.121796,17.3265308 C26.2011828,17.143615 26.2050743,16.8896523 26.1326922,16.5622879 C26.0424092,16.1399327 25.7715601,15.4855963 25.3197559,14.599671" id="Fill-3"></path>
                    <path d="M29.65552,12.712772 C29.0764634,13.0134449 28.4981851,13.0605477 27.920296,12.8536879 C27.5280318,12.7131645 27.1871356,12.460772 26.8987748,12.0969028 L26.4578667,12.3253514 L26.3162158,11.8103607 L26.608079,11.6596318 C26.5812276,11.6121364 26.5543762,11.5618935 26.5267465,11.5077252 C26.4800483,11.4150897 26.440355,11.3334449 26.4088337,11.260828 L26.0185153,11.4633701 L25.8764752,10.9483794 L26.2309917,10.7646785 C26.1111333,10.3234822 26.1068526,9.90348224 26.2177606,9.50664112 C26.3874304,8.90804299 26.7773597,8.44996822 27.3887158,8.13320187 C27.721829,7.96009907 28.0432677,7.87021121 28.3510861,7.86471589 L28.5997535,8.78832336 C28.3444705,8.70550093 28.0549422,8.74828598 27.7315578,8.91589346 C27.4081733,9.08389346 27.2054257,9.33628598 27.1244823,9.67464112 C27.0785625,9.86501495 27.0828432,10.0726598 27.1357677,10.2956131 L28.7733149,9.44619252 L28.915355,9.96118318 L27.3136097,10.7917626 C27.3354021,10.8384729 27.3641993,10.8981364 27.4007795,10.9707533 C27.4365814,11.0406224 27.4758856,11.1124542 27.5183031,11.1866411 L29.0344351,10.4008093 L29.1760861,10.9158 L27.8183384,11.6199869 C27.9775012,11.8080056 28.1389988,11.9363607 28.3047771,12.0046598 C28.6234917,12.1389028 28.9418172,12.1224168 29.2593644,11.957557 C29.6403432,11.7601178 29.8839517,11.4849589 29.9901899,11.1309028 L30.4583384,12.0498 C30.266487,12.3139682 29.9987512,12.5349589 29.65552,12.712772 L29.65552,12.712772 Z M27.6560625,17.2829215 C27.5136333,18.0086972 27.07973,18.5582299 26.3539634,18.9342673 C25.625862,19.3118748 24.8946474,19.3350336 24.1607087,19.0006037 C23.42677,18.6673514 22.6908856,17.7763234 21.951888,16.3267346 C21.2272889,14.9058 20.9506026,13.7549215 21.1222182,12.8760617 C21.2650366,12.1506785 21.6989399,11.6003607 22.4239281,11.2239308 C23.1489163,10.8478935 23.8486097,10.8149215 24.5233974,11.1246224 C25.3250483,11.4908467 26.0916757,12.3897252 26.8213337,13.8212579 C27.5498243,15.250043 27.8280672,16.4036692 27.6560625,17.2829215 L27.6560625,17.2829215 Z M14.6763219,24.8287907 L11.8958384,19.3738935 C11.6234328,20.1404916 11.1918644,20.8266224 10.6015224,21.4326785 L9.93218278,20.1192953 C10.2431144,19.8017439 10.5306969,19.3562299 10.793763,18.7831458 C11.056829,18.2100617 11.1533384,17.6515009 11.0821238,17.106286 L12.2460743,16.502585 L16.1111215,24.0845664 L14.6763219,24.8287907 Z M8.17789033,25.6526972 L7.44006014,24.2054636 L10.2590696,22.743314 L10.9968998,24.1901551 L8.17789033,25.6526972 Z M13.7081144,8.37813645 C13.9338219,8.97751963 14.1019351,9.60791215 14.1879375,10.277557 C14.2572064,10.807071 14.3451545,11.2172579 14.864671,11.1705477 C14.8798479,11.1689776 15.2756144,11.1336505 15.2884564,11.1301178 C15.8274304,11.0598561 16.2037394,10.5637065 16.1344705,10.0208467 C16.0379611,9.28525794 15.8538927,8.58970654 15.6188455,7.91809907 C16.2488809,8.06019252 16.816263,8.46449159 17.1303078,9.09174393 C17.6887394,10.2002299 17.2451073,11.5575757 16.1430318,12.1204542 C15.0432913,12.6798 13.6995531,12.2370336 13.1426781,11.1273701 C12.6624658,10.1707907 12.9243644,9.03404299 13.7081144,8.37813645 L13.7081144,8.37813645 Z M27.3595295,0.918229907 C26.8583031,-0.0830971963 25.865579,0.42168785 25.865579,0.42168785 L14.802796,6.13368785 C13.7092818,4.28843551 12.0079139,2.76662243 9.73877476,1.64636075 C7.01744222,0.309033645 4.45527241,0.017388785 4.34942335,0.00522056075 C3.81006014,-0.0516953271 3.32712382,0.339650467 3.26719458,0.88015514 C3.21037854,1.42340748 3.59836203,1.91052897 4.13577948,1.97097757 C4.15912854,1.97451028 6.50998939,2.25006168 8.9270059,3.45079065 C10.788704,4.37714579 12.1624068,5.58022991 13.0535625,7.03570654 L1.23816156,13.1198187 C0.244659198,13.6253888 0.748998821,14.6271084 0.748998821,14.6271084 L8.86201769,30.6440243 C9.36285495,31.6449589 10.3439045,31.1217252 10.3439045,31.1217252 L34.9693762,18.4263421 C35.9601545,17.9195944 35.4600955,16.9206224 35.4600955,16.9206224 L27.3595295,0.918229907 Z M22.9294128,20.4277044 L17.987552,23.1670226 L17.4112766,22.1273943 L18.1914878,19.3497425 C18.4185321,18.5201235 18.5550162,17.9566863 18.600944,17.6594142 C18.6468718,17.362142 18.656156,17.1052029 18.6287967,16.888589 C18.6014374,16.6719752 18.535045,16.4685731 18.4296173,16.2783766 C18.2723693,15.9946936 18.0771557,15.8268783 17.8439706,15.7749256 C17.6107855,15.7229729 17.3636381,15.7693657 17.1025208,15.9141054 C16.8285089,16.0659927 16.5974044,16.2762711 16.4092002,16.5449469 C16.2209961,16.8136228 16.0509957,17.1417385 15.8991939,17.5293038 L14.5534435,17.0173421 C14.7372042,16.5277783 14.9095709,16.1583169 15.0705489,15.9089469 C15.2315269,15.6595769 15.4290912,15.4268026 15.6632479,15.210617 C15.8974045,14.9944314 16.1821093,14.7934223 16.517371,14.6075837 C16.9590137,14.3627772 17.3937439,14.2271549 17.8215747,14.2007129 C18.2494055,14.1742709 18.6372124,14.2542935 18.9850071,14.440783 C19.3328018,14.6272726 19.6103357,14.907486 19.8176171,15.2814317 C19.998095,15.6070223 20.1101828,15.9441776 20.153884,16.2929076 C20.1975852,16.6416377 20.1824456,17.0324598 20.1084648,17.4653858 C20.034484,17.8983119 19.8481456,18.55997 19.5494441,19.4503801 L19.1147958,20.810166 L19.1523207,20.8778628 L22.2325217,19.1704795 L22.9294128,20.4277044 Z" id="Combined-Shape"></path>
                </g>
            </g>
        </g>
    </g>
</svg>
