<?xml version="1.0" encoding="utf-8"?>
<!-- Generator: Adobe Illustrator 16.0.0, SVG Export Plug-In . SVG Version: 6.00 Build 0)  -->
<!DOCTYPE svg PUBLIC "-//W3C//DTD SVG 1.1//EN" "http://www.w3.org/Graphics/SVG/1.1/DTD/svg11.dtd">
<svg version="1.1" id="Layer_1" xmlns="http://www.w3.org/2000/svg" xmlns:xlink="http://www.w3.org/1999/xlink" x="0px" y="0px"
	 width="612px" height="792px" viewBox="0 0 612 792" enable-background="new 0 0 612 792" xml:space="preserve">
<g enable-background="new    ">
	<path d="M194.067,312.397l-16.023,4.153c-2.374,0.594-5.638,1.188-8.011,1.188c-10.682,0-19.88-8.902-19.88-19.584
		c0-9.198,5.934-16.913,15.133-19.584l29.375-8.604c8.605-2.374,15.133-3.857,21.364-3.857h0.594
		c12.462,0,22.551,10.089,22.551,22.551v167.352c0,12.462-10.088,22.553-22.551,22.553c-12.463,0-22.551-10.091-22.551-22.553
		L194.067,312.397L194.067,312.397z"/>
	<path d="M384.564,431.977h-85.458c-12.166,0-22.254-8.9-22.254-21.065c0-9.495,3.857-16.913,10.682-24.925
		l90.204-104.743c8.604-10.089,15.133-15.43,28.482-15.43c12.166,0,21.958,9.495,21.958,21.661v107.413h10.979
		c10.386,0,18.692,8.309,18.692,18.693c0,10.386-8.309,18.396-18.692,18.396H428.18V456.9c0,12.166-9.792,21.659-21.958,21.659
		c-12.165,0-21.658-9.493-21.658-21.659L384.564,431.977L384.564,431.977z M384.564,394.886V330.2l-55.19,64.686L384.564,394.886
		L384.564,394.886z"/>
</g>
<g>
	<path d="M109.417,604.755c-5.062,0-10.125-1.909-14.02-5.737C38.962,543.539,7.696,469.358,7.357,390.141
		c-0.167-38.933,7.15-76.96,21.746-113.026c15.098-37.305,37.336-70.812,66.103-99.596c55.473-56.403,129.633-87.651,208.827-87.989
		c38.978-0.173,76.96,7.15,113.026,21.746c37.305,15.098,70.812,37.336,99.596,66.102c56.402,55.473,87.65,129.632,87.988,208.826
		c0.167,38.932-7.15,76.96-21.746,113.026c-15.109,37.335-37.373,70.867-66.172,99.667c-7.811,7.809-20.475,7.809-28.285,0
		c-7.811-7.811-7.811-20.475,0-28.285c49.438-49.437,76.5-114.866,76.204-184.237c-0.293-68.469-27.312-132.58-76.082-180.522
		c-0.041-0.04-0.081-0.08-0.122-0.121c-49.437-49.437-114.85-76.456-184.236-76.203c-68.469,0.292-132.58,27.312-180.523,76.082
		c-0.04,0.041-0.08,0.081-0.12,0.121C74.123,255.17,47.061,320.6,47.357,389.97c0.292,68.469,27.312,132.58,76.082,180.522
		c7.876,7.744,7.985,20.406,0.242,28.283C119.766,602.758,114.592,604.755,109.417,604.755z"/>
</g>
<g>
	<g>
		<path d="M196.713,664.809c-0.552,0-1.107-0.022-1.664-0.069l-44.094-3.673l-44.096-1.838
			c-7.179-0.299-13.646-4.426-16.94-10.811c-3.295-6.386-2.912-14.047,1.004-20.071l24.109-37.092
			c0.125-0.192,0.253-0.382,0.384-0.57l25.963-37.09c4.082-5.83,10.958-9.055,18.046-8.461c7.092,0.591,13.336,4.906,16.396,11.332
			l18.464,38.773l19.903,39.804c1.619,2.888,2.542,6.22,2.542,9.766c0,10.979-8.847,19.893-19.802,19.999
			C196.857,664.809,196.785,664.809,196.713,664.809z M143.584,620.725l9.449,0.394c0.276,0.012,0.552,0.028,0.828,0.052
			l9.044,0.753l-4.485-8.969c-0.057-0.114-0.113-0.229-0.168-0.346l-3.788-7.955l-6.083,8.688L143.584,620.725z"/>
	</g>
	<rect x="139.153" y="600.388" width="31.347" height="32.048"/>
</g>
</svg>
