<?xml version="1.0" encoding="utf-8"?>
<!-- Generator: Adobe Illustrator 16.0.0, SVG Export Plug-In . SVG Version: 6.00 Build 0)  -->
<!DOCTYPE svg PUBLIC "-//W3C//DTD SVG 1.1//EN" "http://www.w3.org/Graphics/SVG/1.1/DTD/svg11.dtd">
<svg version="1.1" id="Layer_1" xmlns="http://www.w3.org/2000/svg" xmlns:xlink="http://www.w3.org/1999/xlink" x="0px" y="0px"
	 width="254px" height="254px" viewBox="0 0 254 254" enable-background="new 0 0 254 254" xml:space="preserve">
<g>
	<path d="M126.993,252.768C57.52,252.768,1,196.305,1,126.899C1,57.494,57.52,1.03,126.993,1.03
		c69.472,0,125.991,56.464,125.991,125.869C252.984,196.305,196.465,252.768,126.993,252.768z M126.993,6.568
		C60.574,6.568,6.539,60.549,6.539,126.899c0,66.351,54.036,120.33,120.454,120.33c66.417,0,120.452-53.979,120.452-120.33
		C247.445,60.549,193.409,6.568,126.993,6.568z"/>
	<path d="M186.882,110.37c-7.05-27.287-31.872-47.504-61.333-47.504c-29.462,0-54.286,20.218-61.335,47.504H53.876v31.669h10.337
		c7.049,27.285,31.874,47.504,61.335,47.504s54.284-20.219,61.333-47.504h10.34V110.37H186.882z M177.913,147.805
		c-5.03,2.141-12.636-3.339-17.364,2.019c-4.727,5.346-2.222,7.218-6.668,16.942c-4.445,9.724,1.668-12.5-14.999-8.613
		c-12.302,2.873-2.216,15.565,3.916,22.029c-5.44,1.743-11.235,2.695-17.25,2.695c-8.199,0-15.992-1.753-23.033-4.904
		c0.26-1.602-0.43-4.131-3.08-8.152c-8.056-12.223,1.388-1.109,0-14.725c-1.181-11.566-20.815-9.296-26.683-8.353
		c-0.602-1.539-1.142-3.104-1.609-4.704h108.811C179.378,144.012,178.691,145.93,177.913,147.805z M82.211,115.167h5.337l1.67,9.105
		c0.492,2.619,0.949,5.466,1.31,7.696h0.064c0.361-2.39,0.884-5.042,1.441-7.763l1.866-9.039h5.306l1.765,9.3
		c0.491,2.59,0.851,4.947,1.18,7.402h0.067c0.325-2.455,0.817-5.043,1.276-7.663l1.798-9.039h5.077l-5.699,22.07h-5.402
		l-1.868-9.494c-0.424-2.226-0.787-4.293-1.048-6.813h-0.064c-0.395,2.487-0.755,4.587-1.276,6.813l-2.097,9.494h-5.469
		L82.211,115.167z M111.467,115.167h5.337l1.669,9.105c0.493,2.619,0.952,5.466,1.312,7.696h0.063
		c0.359-2.39,0.884-5.042,1.442-7.763l1.867-9.039h5.301l1.771,9.3c0.49,2.59,0.852,4.947,1.176,7.402h0.066
		c0.325-2.455,0.819-5.043,1.277-7.663l1.799-9.039h5.078l-5.695,22.07h-5.404l-1.865-9.494c-0.428-2.226-0.788-4.293-1.048-6.813
		h-0.063c-0.392,2.487-0.754,4.587-1.278,6.813l-2.096,9.494h-5.469L111.467,115.167z M140.725,115.167h5.336l1.67,9.105
		c0.492,2.619,0.951,5.466,1.312,7.696h0.063c0.36-2.39,0.887-5.042,1.442-7.763l1.863-9.039h5.308l1.766,9.3
		c0.494,2.59,0.854,4.947,1.182,7.402h0.062c0.328-2.455,0.82-5.043,1.277-7.663l1.799-9.039h5.076l-5.699,22.07h-5.396
		l-1.866-9.494c-0.429-2.226-0.79-4.293-1.048-6.813h-0.069c-0.388,2.487-0.749,4.587-1.272,6.813l-2.096,9.494h-5.471
		L140.725,115.167z M71.144,110.37c3.948-13.536,12.82-24.989,24.536-32.291c3.718,1.589,11.087,6.137,10.7,14.235
		c-0.556,11.667,19.168-3.057,19.168-3.057s9.167-7.224,13.892,4.446c2.842,7.028,6.024-14.07,11.806-17.984
		c1.601,0.819,3.157,1.705,4.667,2.666l0.6,0.39c11.174,7.326,19.615,18.485,23.438,31.595H71.144z"/>
</g>
</svg>
