<?xml version="1.0" encoding="UTF-8" standalone="no"?>
<svg width="32px" height="28px" viewBox="0 0 32 28" version="1.1" xmlns="http://www.w3.org/2000/svg" xmlns:xlink="http://www.w3.org/1999/xlink" xmlns:sketch="http://www.bohemiancoding.com/sketch/ns">
    <!-- Generator: Sketch 3.1.1 (8761) - http://www.bohemiancoding.com/sketch -->
    <title>icon-fax@1x</title>
    <desc></desc>
    <defs></defs>
    <g id="Page-1" stroke="none" stroke-width="1"  fill-rule="evenodd" >
        <g id="icon-fax"  transform="translate(0.000000, 1.000000)">
            <path d="M18.3384,2.1808 L20.1072,3.9416 L18.3384,3.9416 L18.3384,2.1808 L18.3384,2.1808 Z M10.6624,1.1288 L16.8424,1.1272 L16.8424,4.6896 C16.8424,4.8864 16.9232,5.0792 17.0608,5.2184 C17.2048,5.3568 17.3952,5.4368 17.592,5.4368 L21.1704,5.4368 L21.1696,15.5632 L10.6592,15.5632 L10.6624,1.1288 L10.6624,1.1288 Z M9.9128,-0.368 C9.7184,-0.368 9.5216,-0.2864 9.3872,-0.148 C9.2472,-0.0088 9.1664,0.1848 9.1656,0.3824 L9.1664,16.312 C9.1664,16.5072 9.2472,16.7008 9.3872,16.8384 C9.5232,16.9808 9.7152,17.0584 9.9144,17.0584 L21.92,17.0584 C22.116,17.0584 22.3056,16.9792 22.444,16.8368 C22.5872,16.6992 22.6656,16.5104 22.6656,16.3088 L22.6624,4.6896 C22.6656,4.5728 22.6336,4.4616 22.5808,4.3584 C22.5768,4.3464 22.5704,4.332 22.5624,4.3192 C22.5304,4.26 22.4904,4.2072 22.444,4.1616 L22.444,4.1584 L18.1184,-0.1496 C18.1128,-0.1536 18.1064,-0.1568 18.1032,-0.1616 C18.0592,-0.2008 18.0144,-0.2352 17.9632,-0.2632 C17.9472,-0.2712 17.9304,-0.2808 17.9144,-0.2896 C17.856,-0.3184 17.7992,-0.3384 17.7352,-0.352 C17.7352,-0.352 17.7328,-0.3504 17.7312,-0.352 C17.6856,-0.36 17.6368,-0.368 17.592,-0.368 L9.9128,-0.368 L9.9128,-0.368 Z" id="Fill-1" ></path>
            <path d="M8.5232,22.1224 C8.5232,21.6864 8.8816,21.332 9.3184,21.332 L22.512,21.332 C22.9472,21.332 23.3008,21.6864 23.3008,22.1224 C23.3008,22.56 22.9472,22.9152 22.512,22.9152 L9.3184,22.9152 C8.8816,22.9152 8.5232,22.56 8.5232,22.1224 M25.7688,22.1224 C25.7688,21.6864 26.1264,21.332 26.564,21.332 C26.9984,21.332 27.3512,21.6864 27.3512,22.1224 C27.3512,22.56 26.9984,22.9152 26.564,22.9152 C26.1264,22.9152 25.7688,22.56 25.7688,22.1224 M28.0032,22.1224 C28.0032,21.6864 28.3592,21.332 28.7984,21.332 C29.2328,21.332 29.5904,21.6864 29.5904,22.1224 C29.5904,22.56 29.2328,22.9152 28.7984,22.9152 C28.3592,22.9152 28.0032,22.56 28.0032,22.1224 M23.3008,11.024 L23.3008,16.312 C23.3008,16.676 23.1512,17.0352 22.892,17.2928 C22.6352,17.552 22.2808,17.7008 21.9168,17.7008 L9.9112,17.7008 C9.5416,17.6992 9.1904,17.5552 8.9336,17.296 C8.6688,17.0304 8.5248,16.6824 8.5232,16.312 L8.5232,11.024 L4.5072,11.024 C4.0368,11.024 3.496,11.3864 3.2336,11.8744 C0.6416,16.6416 0.1168,21.5496 0.0344,24.0632 L0.0344,25.5648 C0.04,25.7024 0.0448,25.7744 0.0448,25.7744 C0.0448,26.2224 0.396,26.5912 0.8344,26.6224 L30.9872,26.6224 C31.4296,26.5912 31.7784,26.2224 31.7784,25.7744 C31.7784,25.7744 32.2872,18.6808 28.5904,11.8744 C28.3232,11.3864 27.784,11.024 27.3168,11.024 L23.3008,11.024" id="Fill-2" ></path>
            <path d="M14.7216,10.2712 C14.7216,9.5432 15.2216,8.988 15.8144,8.988 C16.3056,8.988 16.6608,9.324 16.6608,9.8432 C16.6608,10.5896 16.1512,11.1536 15.5776,11.1536 C15.0776,11.1536 14.7216,10.8352 14.7216,10.2712 M11.856,10.1896 C11.856,12.3648 13.584,14.1568 15.9144,14.1568 C16.8248,14.1568 17.5624,13.9208 18.2352,13.5288 C18.2816,13.5024 18.3248,13.4552 18.3248,13.3832 C18.3248,13.2928 18.2528,13.2008 18.1624,13.2008 C18.1352,13.2008 18.0888,13.2104 18.0624,13.2288 C17.4072,13.6024 16.78,13.7928 15.9144,13.7928 C13.7672,13.7928 12.2384,12.1912 12.2384,10.1896 C12.2384,8.196 13.784,6.5664 15.8416,6.5664 C17.8888,6.5664 19.4264,8.124 19.4264,9.8072 C19.4264,11.0184 18.9168,11.6632 18.2712,11.6632 C17.8528,11.6632 17.6072,11.4184 17.6072,11.0896 C17.6072,11.0184 17.616,10.8992 17.6344,10.8072 L17.9888,8.7792 C18.0624,8.3792 17.7712,8.1152 17.4608,8.1152 C17.1512,8.1152 16.9424,8.296 16.8872,8.66 L16.8872,8.6696 C16.6336,8.324 16.2592,8.0512 15.632,8.0512 C14.5672,8.0512 13.5936,9.052 13.5936,10.3352 C13.5936,11.4184 14.3312,12.0912 15.2592,12.0912 C15.8496,12.0912 16.2968,11.8272 16.6056,11.5448 C16.8336,11.8088 17.2608,12.0912 17.9984,12.0912 C19,12.0912 19.8088,11.3272 19.8088,9.8072 C19.8088,7.9416 18.0712,6.2024 15.8416,6.2024 C13.612,6.2024 11.856,8.0152 11.856,10.1896" id="Fill-3" ></path>
        </g>
    </g>
</svg>