<?xml version="1.0" encoding="utf-8"?>
<!-- Generator: Adobe Illustrator 15.1.0, SVG Export Plug-In . SVG Version: 6.00 Build 0)  -->
<!DOCTYPE svg PUBLIC "-//W3C//DTD SVG 1.1//EN" "http://www.w3.org/Graphics/SVG/1.1/DTD/svg11.dtd">
<svg version="1.1" id="Capa_1" xmlns="http://www.w3.org/2000/svg" xmlns:xlink="http://www.w3.org/1999/xlink" x="0px" y="0px"
	 width="894.523px" height="894.524px" viewBox="0 0 894.523 894.524" enable-background="new 0 0 894.523 894.524"
	 xml:space="preserve">
<g>
	<path fill="#030104" d="M552.37,259.144v81.492c42.571,31.953,70.069,82.823,70.069,140.144
		c0,96.77-78.408,175.178-175.178,175.178c-96.767,0-175.18-78.408-175.18-175.178c0-57.32,27.503-108.19,70.072-140.144v-81.492
		C259.295,298.489,202.01,382.959,202.01,480.78c0,135.45,109.804,245.252,245.252,245.252
		c135.446,0,245.252-109.802,245.252-245.252C692.514,382.959,635.229,298.489,552.37,259.144z"/>
	<path fill="#030104" d="M482.297,445.851V235.424c0-19.305-15.553-34.931-35.035-34.931c-19.374,0-35.037,15.871-35.037,34.931
		v210.427c0,19.305,15.558,34.929,35.037,34.929C466.638,480.78,482.297,464.909,482.297,445.851z"/>
</g>
</svg>
