<?xml version="1.0" encoding="utf-8"?>
<!-- Generator: Adobe Illustrator 16.0.0, SVG Export Plug-In . SVG Version: 6.00 Build 0)  -->
<!DOCTYPE svg PUBLIC "-//W3C//DTD SVG 1.1//EN" "http://www.w3.org/Graphics/SVG/1.1/DTD/svg11.dtd">
<svg version="1.1" id="Layer_1" xmlns="http://www.w3.org/2000/svg" xmlns:xlink="http://www.w3.org/1999/xlink" x="0px" y="0px"
	 width="254px" height="254px" viewBox="0 0 254 254" enable-background="new 0 0 254 254" xml:space="preserve">
<g>
	<path  d="M114.128,250.908c-0.923-0.098-1.842-0.198-2.759-0.31l0.984-8.089c0.862,0.104,1.725,0.199,2.591,0.287
		L114.128,250.908z M144.631,250.249l-1.159-8.071c0.861-0.121,1.717-0.257,2.57-0.397l1.336,8.039
		C146.468,249.973,145.551,250.116,144.631,250.249z M97.691,248.156c-0.905-0.212-1.81-0.441-2.708-0.675l2.069-7.885
		c0.832,0.22,1.67,0.431,2.51,0.624L97.691,248.156z M160.941,246.763l-2.229-7.843c0.834-0.235,1.663-0.482,2.491-0.74l2.406,7.791
		C162.726,246.24,161.835,246.505,160.941,246.763z M81.743,243.234c-0.866-0.337-1.728-0.676-2.584-1.024l3.083-7.547
		c0.807,0.33,1.618,0.652,2.435,0.969L81.743,243.234z M176.64,241.121l-3.267-7.469c0.796-0.346,1.587-0.698,2.373-1.064
		l3.419,7.398C178.329,240.371,177.487,240.752,176.64,241.121z M66.606,236.216c-0.818-0.45-1.63-0.903-2.437-1.373l4.083-7.055
		c0.749,0.435,1.503,0.86,2.262,1.273L66.606,236.216z M191.436,233.439l-4.243-6.956c0.742-0.46,1.48-0.916,2.214-1.382
		l4.376,6.874C193.007,232.468,192.226,232.957,191.436,233.439z M52.54,227.24c-0.748-0.553-1.49-1.109-2.224-1.677l4.976-6.458
		c0.689,0.536,1.381,1.054,2.081,1.569L52.54,227.24z M205.074,223.865l-5.121-6.347c0.673-0.545,1.342-1.093,2.002-1.654
		l5.262,6.229C206.505,222.691,205.791,223.278,205.074,223.865z M39.801,216.474c-0.67-0.646-1.332-1.294-1.986-1.962l5.798-5.725
		c0.607,0.616,1.223,1.221,1.845,1.823L39.801,216.474z M217.326,212.558l-5.917-5.604c0.598-0.632,1.189-1.271,1.775-1.913
		l6.029,5.484C218.593,211.204,217.968,211.883,217.326,212.558z M28.602,204.12c-0.575-0.721-1.142-1.457-1.7-2.194l6.494-4.922
		c0.525,0.688,1.053,1.376,1.592,2.055L28.602,204.12z M227.979,199.727l-6.614-4.768c0.514-0.708,1.017-1.419,1.51-2.133
		l6.706,4.632C229.054,198.221,228.521,198.971,227.979,199.727z M19.139,190.391c-0.473-0.79-0.934-1.589-1.388-2.391l7.084-4.028
		c0.43,0.758,0.866,1.511,1.31,2.26L19.139,190.391z M236.824,185.592l-7.178-3.863c0.406-0.761,0.812-1.525,1.202-2.304
		l7.267,3.691C237.694,183.952,237.264,184.774,236.824,185.592z M11.595,175.534c-0.365-0.852-0.718-1.705-1.062-2.569l7.571-3.018
		c0.32,0.8,0.648,1.599,0.986,2.39L11.595,175.534z M243.71,170.378l-7.637-2.849c0.303-0.811,0.601-1.629,0.885-2.458l7.697,2.681
		C244.352,168.637,244.031,169.509,243.71,170.378z M6.103,159.796c-0.247-0.897-0.483-1.792-0.709-2.697l7.906-1.981
		c0.211,0.847,0.432,1.682,0.66,2.515L6.103,159.796z M248.481,154.387l-7.95-1.804c0.193-0.843,0.375-1.692,0.549-2.541
		l7.985,1.619C248.883,152.575,248.686,153.479,248.481,154.387z M2.771,143.446c-0.12-0.916-0.235-1.84-0.336-2.756l8.1-0.908
		c0.097,0.862,0.202,1.726,0.317,2.586L2.771,143.446z M251.068,137.912l-8.118-0.722c0.077-0.863,0.143-1.731,0.207-2.6
		l8.127,0.554C251.223,136.07,251.153,136.992,251.068,137.912z M10.83,111.252l-8.082-1.065c0.122-0.924,0.253-1.839,0.396-2.758
		l8.052,1.251C11.065,109.537,10.943,110.393,10.83,111.252z M241.612,106.104c-0.15-0.849-0.312-1.699-0.482-2.544l7.987-1.618
		c0.182,0.909,0.357,1.823,0.521,2.738L241.612,106.104z M13.902,95.981L6.037,93.84c0.246-0.899,0.499-1.789,0.763-2.676
		l7.814,2.314C14.368,94.31,14.129,95.14,13.902,95.981z M237.848,90.989c-0.264-0.828-0.538-1.649-0.826-2.467l7.7-2.675
		c0.304,0.877,0.601,1.758,0.884,2.645L237.848,90.989z M18.999,81.242l-7.507-3.175c0.363-0.858,0.736-1.711,1.12-2.563
		l7.428,3.352C19.683,79.646,19.336,80.44,18.999,81.242z M232.085,76.503c-0.373-0.777-0.755-1.556-1.142-2.324l7.272-3.677
		c0.417,0.827,0.826,1.659,1.227,2.497L232.085,76.503z M26.028,67.329l-7.007-4.16c0.473-0.796,0.954-1.587,1.442-2.371
		l6.923,4.301C26.925,65.837,26.473,66.58,26.028,67.329z M224.444,62.929c-0.471-0.724-0.956-1.442-1.445-2.154l6.722-4.616
		c0.523,0.767,1.037,1.539,1.546,2.312L224.444,62.929z M34.86,54.474l-6.395-5.053c0.576-0.728,1.159-1.452,1.75-2.162l6.282,5.19
		C35.946,53.116,35.399,53.792,34.86,54.474z M215.063,50.486c-0.568-0.656-1.144-1.304-1.724-1.95l6.055-5.458
		c0.621,0.691,1.232,1.381,1.834,2.083L215.063,50.486z M45.321,42.901l-5.673-5.849c0.668-0.646,1.343-1.285,2.026-1.921
		l5.532,5.988C46.572,41.709,45.944,42.302,45.321,42.901z M204.117,39.396c-0.652-0.575-1.311-1.15-1.975-1.715l5.279-6.212
		c0.705,0.598,1.399,1.208,2.094,1.821L204.117,39.396z M57.214,32.829l-4.839-6.557c0.746-0.553,1.495-1.094,2.252-1.624
		l4.691,6.665C58.611,31.806,57.911,32.313,57.214,32.829z M191.79,29.846c-0.723-0.482-1.452-0.965-2.187-1.437l4.403-6.858
		c0.779,0.5,1.553,1.011,2.32,1.526L191.79,29.846z M70.337,24.42l-3.932-7.142c0.809-0.443,1.623-0.882,2.443-1.31l3.778,7.221
		C71.859,23.592,71.096,24.001,70.337,24.42z M178.295,22.022c-0.779-0.384-1.561-0.762-2.35-1.129l3.433-7.392
		c0.846,0.395,1.686,0.797,2.521,1.208L178.295,22.022z M84.448,17.846l-2.932-7.605c0.858-0.331,1.72-0.656,2.589-0.97l2.775,7.663
		C86.066,17.229,85.254,17.534,84.448,17.846z M163.875,16.076c-0.819-0.279-1.646-0.546-2.475-0.804l2.421-7.783
		c0.886,0.275,1.766,0.562,2.644,0.857L163.875,16.076z M99.319,13.209l-1.896-7.924c0.906-0.218,1.813-0.425,2.723-0.621
		l1.698,7.971C101,12.818,100.156,13.011,99.319,13.209z M148.799,12.121c-0.849-0.168-1.703-0.321-2.562-0.468l1.365-8.032
		c0.917,0.154,1.829,0.318,2.734,0.495L148.799,12.121z M114.689,10.604l-0.827-8.109c0.925-0.091,1.852-0.174,2.78-0.248
		l0.63,8.125C116.407,10.441,115.548,10.517,114.689,10.604z M132.833,18.416c-0.807-0.07-1.613-0.12-2.424-0.148l-0.445-0.005
		L130.54,1.93l0.38,0.003c0.981,0.044,1.786,0.083,2.646,0.157L132.833,18.416z M131.014,251.57
		c-0.808-0.029-1.614-0.036-2.426-0.022l-0.447,0.017l-0.258-16.34l0.379-0.017c0.981-0.005,1.787-0.01,2.652,0.02L131.014,251.57z
		 M235.161,122.062c0.008-0.808-0.006-1.613-0.044-2.424l-0.032-0.446l16.331-0.714l0.029,0.377
		c0.032,0.986,0.055,1.792,0.053,2.651L235.161,122.062z M18.049,124.378c-0.056,0.807-0.091,1.613-0.106,2.426l0.002,0.444
		l-16.34-0.284l-0.003-0.378c0.028-0.983,0.053-1.789,0.11-2.648L18.049,124.378z"/>
	<g>
		<circle cx="119.308" cy="106.858" r="1.551"/>
		<path d="M112.515,104.031c1.559,0,2.824,1.266,2.824,2.827c0,1.562-1.266,2.827-2.824,2.827c-1.563,0-2.828-1.264-2.828-2.827
			C109.687,105.297,110.952,104.031,112.515,104.031z"/>
		<path d="M146.782,95.584h-36.037c-5.129,0-9.286,4.159-9.286,9.288v68.914c0,5.131,4.157,9.288,9.286,9.288h36.037
			c5.13,0,9.288-4.157,9.288-9.288v-68.914C156.07,99.743,151.912,95.584,146.782,95.584z M118.528,112.21h-6.375
			c-2.956,0-5.353-2.396-5.353-5.352s2.397-5.352,5.353-5.352h6.375c2.955,0,5.352,2.395,5.352,5.352S121.483,112.21,118.528,112.21
			z"/>
		<polygon points="87.284,94.888 102.077,92.975 103.534,78.707 112.729,91.215 122.073,86.199 120.452,91.232 124.554,91.232 
			128.764,78.178 113.868,86.174 100.679,68.231 98.509,89.5 77.498,92.22 92.303,103.742 80.594,119.378 97.357,116.645 
			97.357,112.689 89.522,113.968 97.723,103.014 		"/>
	</g>
</g>
</svg>
