<?xml version="1.0" encoding="utf-8"?>
<!-- Generator: Adobe Illustrator 16.0.0, SVG Export Plug-In . SVG Version: 6.00 Build 0)  -->
<!DOCTYPE svg PUBLIC "-//W3C//DTD SVG 1.1//EN" "http://www.w3.org/Graphics/SVG/1.1/DTD/svg11.dtd">
<svg version="1.1" id="Layer_1" xmlns:sketch="http://www.bohemiancoding.com/sketch/ns"
	 xmlns="http://www.w3.org/2000/svg" xmlns:xlink="http://www.w3.org/1999/xlink" x="0px" y="0px" width="236px" height="147px"
	 viewBox="0 0 236 147" enable-background="new 0 0 236 147" xml:space="preserve">
<title>mastercard</title>
<desc></desc>
<g>
	<path fill="#767676" d="M164.818,146.173c-38.797,0.011-70.252-32.569-70.262-72.771c-0.01-40.237,31.432-72.835,70.226-72.846
		c38.797-0.011,70.253,32.57,70.263,72.772C235.057,113.566,203.613,146.162,164.818,146.173z"/>
	<path fill="#454545" d="M70.121,0.575C31.555,0.829,0.329,33.342,0.329,73.365c0,40.179,31.47,72.789,70.245,72.789
		c18.198,0,34.787-7.188,47.269-18.965l-0.006-0.004h0.015c2.556-2.414,4.94-5.018,7.13-7.793h-14.391
		c-1.922-2.406-3.668-4.912-5.237-7.498h24.821c1.51-2.504,2.876-5.103,4.09-7.795h-33.009c-1.125-2.498-2.102-5.055-2.936-7.646
		h38.882c2.343-7.256,3.615-15.018,3.615-23.087c0-5.35-0.561-10.565-1.619-15.587h-42.94c0.532-2.584,1.203-5.138,2.004-7.647
		h38.896c-0.87-2.67-1.88-5.272-3.028-7.794h-32.878c1.186-2.626,2.53-5.18,4.031-7.646h24.802c-1.65-2.725-3.477-5.328-5.452-7.794
		h-13.829c2.138-2.607,4.492-5.063,7.047-7.352C105.369,7.766,88.776,0.577,70.573,0.577H70.12L70.121,0.575z"/>
	<path fill="#FFFFFF" d="M95.833,91.896l0.936-6.588c-0.511,0-1.264,0.228-1.927,0.228c-2.604,0-2.89-1.435-2.725-2.495
		l2.103-13.442h3.957l0.955-7.287h-3.731l0.759-4.531h-7.479c-0.165,0.171-4.415,25.486-4.415,28.568
		c0,4.562,2.473,6.596,5.959,6.562C92.955,92.889,95.082,92.105,95.833,91.896L95.833,91.896z"/>
	<path fill="#FFFFFF" d="M98.203,79.337c0,10.952,6.977,13.556,12.92,13.556c5.486,0,7.9-1.271,7.9-1.271l1.317-7.475
		c0,0-4.173,1.904-7.942,1.904c-8.031,0-6.625-6.205-6.625-6.205h15.199c0,0,0.981-5.021,0.981-7.068
		c0-5.106-2.453-11.329-10.665-11.329C103.769,61.451,98.202,69.847,98.203,79.337L98.203,79.337z M111.319,68.39
		c4.221,0,3.442,4.915,3.442,5.313h-8.304C106.457,73.195,107.242,68.39,111.319,68.39L111.319,68.39z"/>
	<path fill="#FFFFFF" d="M158.68,91.895l1.338-8.449c0,0-3.67,1.906-6.188,1.906c-5.305,0-7.434-4.197-7.434-8.707
		c0-9.149,4.565-14.184,9.647-14.184c3.812,0,6.869,2.217,6.869,2.217l1.221-8.209c0,0-4.536-1.902-8.423-1.902
		c-8.634,0-17.034,7.762-17.034,22.338c0,9.665,4.536,16.05,13.462,16.05c2.522,0.001,6.543-1.061,6.543-1.061H158.68z"/>
	<path fill="#FFFFFF" d="M54.698,61.571c-5.129,0-9.06,1.708-9.06,1.708l-1.085,6.676c0,0,3.245-1.366,8.15-1.366
		c2.785,0,4.823,0.324,4.823,2.67c0,1.424-0.25,1.95-0.25,1.95s-2.197-0.191-3.214-0.191c-6.468,0-13.263,2.86-13.263,11.485
		c0,6.796,4.458,8.354,7.221,8.354c5.277,0,7.551-3.547,7.673-3.559l-0.247,2.962h6.586l2.938-21.344
		C64.97,61.862,57.347,61.571,54.698,61.571L54.698,61.571z M56.3,78.949c0.143,1.304-0.789,7.415-5.292,7.415
		c-2.323,0-2.927-1.839-2.927-2.927c0-2.121,1.112-4.668,6.593-4.668C55.949,78.771,56.085,78.913,56.3,78.949z"/>
	<path fill="#FFFFFF" d="M71.968,92.702c1.685,0,11.315,0.444,11.315-9.854c0-9.626-8.915-7.725-8.915-11.593
		c0-1.926,1.453-2.532,4.109-2.532c1.054,0,5.111,0.347,5.111,0.347l0.943-6.843c0,0.001-2.626-0.609-6.9-0.609
		c-5.533,0-11.149,2.289-11.149,10.119c0,8.873,9.364,7.984,9.364,11.72c0,2.495-2.616,2.698-4.632,2.698
		c-3.489,0-6.631-1.24-6.642-1.181l-0.997,6.773C63.756,91.807,65.693,92.701,71.968,92.702L71.968,92.702z"/>
	<path fill="#FFFFFF" d="M220.632,55.43l-1.612,10.373c0,0-2.815-4.029-7.223-4.029c-6.854,0-12.564,8.562-12.564,18.399
		c0,6.351,3.047,12.572,9.274,12.572c4.479,0,6.964-3.237,6.964-3.237l-0.328,2.764h7.274l5.714-36.854l-7.497,0.012L220.632,55.43z
		 M217.159,75.656c0,4.094-1.956,9.562-6.011,9.562c-2.692,0-3.953-2.341-3.953-6.016c0-6.009,2.604-9.973,5.89-9.973
		C215.777,69.228,217.158,71.145,217.159,75.656L217.159,75.656z"/>
	<path fill="#FFFFFF" d="M14.202,92.305l4.553-27.824l0.668,27.824h5.153l9.613-27.824l-4.258,27.824h7.657L43.485,55.4h-11.84
		l-7.374,22.643L23.887,55.4H12.973L6.991,92.305H14.202z"/>
	<path fill="#FFFFFF" d="M129.434,92.355c2.178-12.828,2.582-23.245,7.776-21.338c0.909-4.965,1.787-6.886,2.78-8.987
		c0,0-0.465-0.101-1.442-0.101c-3.35,0-5.831,4.742-5.831,4.742l0.667-4.355h-6.964l-4.666,30.04h7.682H129.434z"/>
	<path fill="#FFFFFF" d="M175.938,61.571c-5.129,0-9.061,1.708-9.061,1.708l-1.085,6.676c0,0,3.245-1.366,8.149-1.366
		c2.785,0,4.822,0.324,4.822,2.67c0,1.424-0.248,1.95-0.248,1.95s-2.197-0.191-3.216-0.191c-6.468,0-13.263,2.86-13.263,11.485
		c0,6.796,4.457,8.354,7.22,8.354c5.277,0,7.552-3.547,7.673-3.559l-0.246,2.962h6.586l2.938-21.344
		c0.001-9.055-7.623-9.346-10.271-9.346H175.938z M177.542,78.949c0.144,1.304-0.79,7.415-5.294,7.415
		c-2.323,0-2.926-1.839-2.926-2.927c0-2.121,1.113-4.668,6.593-4.668C177.189,78.771,177.325,78.913,177.542,78.949L177.542,78.949z
		"/>
	<path fill="#FFFFFF" d="M192.227,92.355c2.178-12.828,2.582-23.245,7.775-21.338c0.911-4.965,1.789-6.886,2.781-8.987
		c0,0-0.465-0.101-1.442-0.101c-3.35,0-5.831,4.742-5.831,4.742l0.668-4.355h-6.965l-4.666,30.04H192.227z"/>
</g>
</svg>
