<?xml version="1.0" encoding="utf-8"?>
<!-- Generator: Adobe Illustrator 16.0.0, SVG Export Plug-In . SVG Version: 6.00 Build 0)  -->
<!DOCTYPE svg PUBLIC "-//W3C//DTD SVG 1.1//EN" "http://www.w3.org/Graphics/SVG/1.1/DTD/svg11.dtd">
<svg version="1.1" id="Layer_1" xmlns="http://www.w3.org/2000/svg" xmlns:xlink="http://www.w3.org/1999/xlink" x="0px" y="0px"
	 width="254px" height="254px" viewBox="0 0 254 254" enable-background="new 0 0 254 254" xml:space="preserve">
<g>
	<g>
		<path d="M249.009,101.561C236.934,43.871,185.415,2,126.508,2c-8.623,0-17.311,0.902-25.823,2.685
			C33.044,18.845-10.477,85.341,3.667,152.917c12.075,57.691,63.595,99.562,122.502,99.562c8.623,0,17.311-0.902,25.824-2.685
			c32.766-6.859,60.901-26.057,79.225-54.048C249.546,167.748,255.863,134.299,249.009,101.561z M227.837,193.527
			c-17.734,27.094-44.962,45.671-76.669,52.308c-8.243,1.726-16.654,2.601-24.998,2.601c-57.004,0-106.859-40.52-118.543-96.346
			C-6.063,86.695,36.054,22.346,101.513,8.643c8.241-1.726,16.65-2.6,24.996-2.6c57.003,0,106.859,40.52,118.546,96.347
			C251.687,134.067,245.571,166.436,227.837,193.527z"/>
		<path d="M126.508,8.739c-8.16,0-16.383,0.856-24.442,2.542C38.062,24.68-3.121,87.597,10.264,151.535
			c11.426,54.586,60.171,94.205,115.906,94.205c8.161,0,16.384-0.854,24.442-2.543c31.007-6.488,57.631-24.652,74.969-51.143
			c17.341-26.492,23.319-58.139,16.835-89.112C230.989,48.357,182.244,8.739,126.508,8.739z M222.197,189.838
			c-16.748,25.59-42.463,43.135-72.413,49.402c-7.786,1.629-15.733,2.456-23.614,2.456c-53.832,0-100.912-38.263-111.949-90.987
			C1.293,88.952,41.071,28.181,102.893,15.239c7.789-1.629,15.733-2.457,23.615-2.457c53.831,0,100.915,38.267,111.949,90.988
			C244.721,133.687,238.946,164.252,222.197,189.838z"/>
	</g>
	<path d="M173.737,89.198H79.192c-3.727,0-6.754,3.028-6.754,6.753v67.534c0,3.728,3.027,6.754,6.754,6.754h94.545
		c3.73,0,6.753-3.026,6.753-6.754V95.951C180.49,92.226,177.468,89.198,173.737,89.198z M79.192,115.161l25.919,17.624
		l-25.919,25.926V115.161z M83.967,163.485l26.832-26.83l15.675,10.658l15.591-10.733l26.898,26.905H83.967z M173.737,158.711
		l-26.023-26.023l26.023-17.908V158.711z M173.737,106.883l-0.147-0.208l-47.126,32.46l-47.271-32.13V95.951h94.545V106.883z"/>
</g>
</svg>
