<?xml version="1.0" encoding="UTF-8" standalone="no"?>
<svg width="26px" height="32px" viewBox="0 0 26 32" version="1.1" xmlns="http://www.w3.org/2000/svg" xmlns:xlink="http://www.w3.org/1999/xlink" xmlns:sketch="http://www.bohemiancoding.com/sketch/ns">
    <!-- Generator: Sketch 3.1.1 (8761) - http://www.bohemiancoding.com/sketch -->
    <title>icon_phone-unlock@1x</title>
    <desc></desc>
    <defs></defs>
    <g id="Page-1" stroke="none" stroke-width="1"  fill-rule="evenodd">
        <g id="icon_phone-unlock"  transform="translate(0.000000, 0.000000)">
            <path d="M24.367,0.336484848 L10.503,0.336484848 C10.036,0.427636364 9.264,0.719515152 9.09,1.64751515 L9.09,12.9464242 C8.533,12.726303 7.928,12.5992727 7.289,12.5992727 C4.654,12.5992727 2.517,14.6724848 2.518,17.2305455 L2.518,17.8666667 C2.518,18.2244848 2.818,18.5153939 3.188,18.5153939 C3.555,18.5153939 3.855,18.2244848 3.855,17.8666667 L3.855,17.865697 L3.855,17.2286061 C3.858,15.3890909 5.393,13.9006061 7.289,13.8967273 C7.952,13.8986667 8.565,14.089697 9.09,14.4048485 L9.09,21.1316364 L1.031,21.1335758 C0.602,21.1335758 0.258,21.4700606 0.258,21.8831515 L0.258,30.9129697 C0.26,31.3309091 0.602,31.6625455 1.035,31.6654545 L13.551,31.6654545 C13.98,31.6625455 14.325,31.3309091 14.325,30.9110303 L14.326,30.9110303 L14.326,28.7398788 L24.081,28.7398788 C24.492,28.694303 25.523,28.4664242 25.701,27.3396364 L25.701,1.79490909 C25.628,1.36630303 25.363,0.532363636 24.367,0.336484848 L24.367,0.336484848 Z M16.018,1.07248485 L18.761,1.07248485 C18.9,1.07248485 19.011,1.18012121 19.011,1.3129697 C19.011,1.44775758 18.9,1.55345455 18.761,1.55345455 L16.018,1.55345455 C15.88,1.55345455 15.768,1.44775758 15.768,1.3129697 C15.768,1.18012121 15.88,1.07248485 16.018,1.07248485 L16.018,1.07248485 Z M10.244,15.5568485 C10.541,16.0504242 10.725,16.6157576 10.726,17.2286061 L10.727,21.1306667 L10.244,21.1306667 L10.244,15.5568485 L10.244,15.5568485 Z M8.475,29.4225455 L6.107,29.4225455 L6.46,25.9345455 C6.085,25.6775758 5.842,25.2606061 5.84,24.7806061 C5.84,24.0038788 6.49,23.3716364 7.291,23.3745455 C8.092,23.3745455 8.743,24.0038788 8.743,24.7806061 C8.743,25.2586667 8.497,25.6775758 8.123,25.9345455 L8.475,29.4225455 L8.475,29.4225455 Z M17.389,27.9427879 C16.704,27.9427879 16.147,27.3318788 16.123,26.6705455 C16.147,26.0121212 16.704,25.4846061 17.389,25.4846061 C18.089,25.4846061 18.656,26.0344242 18.656,26.7141818 C18.656,27.3929697 18.089,27.9427879 17.389,27.9427879 L17.389,27.9427879 Z M24.609,23.4841212 C24.609,24.7941818 23.258,24.7941818 23.258,24.7941818 L14.326,24.7941818 L14.325,21.8831515 C14.322,21.4671515 13.98,21.1335758 13.549,21.1306667 L12.065,21.1306667 L12.064,17.2286061 C12.062,15.7604848 11.344,14.4669091 10.244,13.6184242 L10.244,3.49284848 C10.244,2.18375758 11.594,2.18375758 11.594,2.18375758 L23.258,2.18375758 C24.609,2.18375758 24.609,3.40945455 24.609,3.40945455 L24.609,23.4841212 L24.609,23.4841212 Z" id="Fill-1" ></path>
        </g>
    </g>
</svg>