<?xml version="1.0" encoding="UTF-8" standalone="no"?>
<svg width="32px" height="25px" viewBox="0 0 32 25" version="1.1" xmlns="http://www.w3.org/2000/svg" xmlns:xlink="http://www.w3.org/1999/xlink" xmlns:sketch="http://www.bohemiancoding.com/sketch/ns">
    <!-- Generator: Sketch 3.1.1 (8761) - http://www.bohemiancoding.com/sketch -->
    <title>icon-renouvellement@1x</title>
    <desc></desc>
    <defs></defs>
    <g id="Page-1" stroke="none" stroke-width="1"  fill-rule="evenodd" >
        <g id="icon-renouvellement"  transform="translate(1.000000, 0.000000)">
            <path d="M6.759,24.197 C6.184,24.197 5.715,23.67 5.696,23.094 C5.715,22.523 6.184,22.065 6.759,22.065 C7.349,22.065 7.826,22.543 7.826,23.131 C7.826,23.721 7.349,24.197 6.759,24.197 M1.887,21.467 C0.752,21.467 0.752,20.33 0.752,20.33 L0.752,2.992 C0.752,1.856 1.887,1.856 1.887,1.856 L11.696,1.856 C12.832,1.856 12.832,2.918 12.832,2.918 L12.832,20.33 C12.832,21.467 11.696,21.467 11.696,21.467 L1.887,21.467 M5.607,1.31 C5.491,1.31 5.398,1.217 5.398,1.102 C5.398,0.984 5.491,0.893 5.607,0.893 L7.915,0.893 C8.031,0.893 8.125,0.984 8.125,1.102 C8.125,1.217 8.031,1.31 7.915,1.31 L5.607,1.31 M12.248,0.219 L1.274,0.219 C1.274,0.219 -0.248,0.219 -0.248,1.742 L-0.248,23.377 C-0.248,23.377 -0.248,24.898 1.274,24.898 L12.248,24.898 C12.248,24.898 13.773,24.898 13.773,23.377 L13.771,1.742 C13.771,1.742 13.771,0.219 12.248,0.219" id="Fill-1" opacity="0.5" ></path>
            <path d="M28.908,0.219 L17.934,0.219 C17.934,0.219 16.411,0.219 16.411,1.742 L16.411,4.391 L16.234,4.225 C15.597,3.678 15.076,3.951 15.076,4.832 L15.076,9.225 L9.751,4.225 C9.115,3.678 8.594,3.951 8.594,4.832 L8.594,17.815 C8.594,18.695 9.115,18.967 9.751,18.42 L15.076,13.421 L15.076,17.815 C15.076,18.695 15.597,18.967 16.234,18.42 L16.411,18.254 L16.411,23.377 C16.411,23.377 16.411,24.898 17.934,24.898 L28.908,24.898 C28.908,24.898 30.432,24.898 30.432,23.377 L30.432,1.742 C30.432,1.742 30.432,0.219 28.908,0.219 L28.908,0.219 Z M22.268,0.893 L24.575,0.893 C24.691,0.893 24.785,0.984 24.785,1.102 C24.785,1.217 24.691,1.31 24.575,1.31 L22.268,1.31 C22.151,1.31 22.059,1.217 22.059,1.102 C22.059,0.984 22.151,0.893 22.268,0.893 L22.268,0.893 Z M23.42,24.197 C22.844,24.197 22.375,23.67 22.356,23.094 C22.375,22.523 22.844,22.065 23.42,22.065 C24.01,22.065 24.486,22.543 24.486,23.131 C24.486,23.721 24.01,24.197 23.42,24.197 L23.42,24.197 Z M29.492,20.33 C29.492,21.467 28.356,21.467 28.356,21.467 L18.547,21.467 C17.411,21.467 17.411,20.33 17.411,20.33 L17.411,17.315 L22.91,12.152 C23.441,11.695 23.441,10.951 22.91,10.494 L17.411,5.33 L17.411,2.992 C17.411,1.856 18.547,1.856 18.547,1.856 L28.356,1.856 C29.492,1.856 29.492,2.918 29.492,2.918 L29.492,20.33 L29.492,20.33 Z" id="Fill-2" ></path>
        </g>
    </g>
</svg>