<?xml version="1.0" encoding="UTF-8" standalone="no"?>
<svg width="32px" height="36px" viewBox="0 0 32 36" version="1.1" xmlns="http://www.w3.org/2000/svg" xmlns:xlink="http://www.w3.org/1999/xlink" xmlns:sketch="http://www.bohemiancoding.com/sketch/ns">
    <!-- Generator: Sketch 3.1.1 (8761) - http://www.bohemiancoding.com/sketch -->
    <title>icon-datas@1x</title>
    <desc></desc>
    <defs></defs>
    <g id="Page-1" stroke="none" stroke-width="1"  fill-rule="evenodd" >
        <g id="icon-datas"  transform="translate(0.000000, 1.000000)">
            <path d="M31.4207179,8.59060465 C31.4207179,9.11218605 31.0006154,9.54083721 30.4894359,9.54083721 L24.7072821,9.54083721 C24.1961026,9.54083721 23.777641,9.11218605 23.777641,8.59060465 L23.777641,2.6907907 C23.777641,2.16753488 24.1961026,1.74055814 24.7072821,1.74055814 L30.4894359,1.74055814 C31.0006154,1.74055814 31.4207179,2.16753488 31.4207179,2.6907907 L31.4207179,8.59060465" id="Fill-1" ></path>
            <path d="M16.830359,32.6813023 C16.830359,33.8182326 15.9163077,34.7500465 14.8020513,34.7500465 L2.20471795,34.7500465 C1.08882051,34.7500465 0.176410256,33.8182326 0.176410256,32.6813023 L0.176410256,19.8259535 C0.176410256,18.6873488 1.08882051,17.7572093 2.20471795,17.7572093 L14.8020513,17.7572093 C15.9163077,17.7572093 16.830359,18.6873488 16.830359,19.8259535 L16.830359,32.6813023" id="Fill-2" ></path>
            <path d="M16.830359,32.6813023 C16.830359,33.8182326 15.9163077,34.7500465 14.8020513,34.7500465 L2.20471795,34.7500465 C1.08882051,34.7500465 0.176410256,33.8182326 0.176410256,32.6813023 L0.176410256,19.8259535 C0.176410256,18.6873488 1.08882051,17.7572093 2.20471795,17.7572093 L14.8020513,17.7572093 C15.9163077,17.7572093 16.830359,18.6873488 16.830359,19.8259535 L16.830359,32.6813023" id="Fill-3" ></path>
            <path d="M26.0619487,25.1723721 C26.0619487,25.6956279 25.6434872,26.1226047 25.1323077,26.1226047 L19.3517949,26.1226047 C18.8406154,26.1226047 18.4213333,25.6956279 18.4213333,25.1723721 L18.4213333,19.2733953 C18.4213333,18.751814 18.8406154,18.3231628 19.3517949,18.3231628 L25.1323077,18.3231628 C25.6434872,18.3231628 26.0619487,18.751814 26.0619487,19.2733953 L26.0619487,25.1723721" id="Fill-4" ></path>
            <path d="M20.0845128,14.9659535 C20.0845128,15.6851163 19.5085128,16.2736744 18.8036923,16.2736744 L10.8356923,16.2736744 C10.1316923,16.2736744 9.55323077,15.6851163 9.55323077,14.9659535 L9.55323077,6.83581395 C9.55323077,6.11665116 10.1316923,5.52809302 10.8356923,5.52809302 L18.8036923,5.52809302 C19.5085128,5.52809302 20.0845128,6.11665116 20.0845128,6.83581395 L20.0845128,14.9659535" id="Fill-5" ></path>
            <path d="M21.9725128,3.708 C21.9725128,4.01525581 21.726359,4.2655814 21.4260513,4.2655814 L18.0324103,4.2655814 C17.7304615,4.2655814 17.4851282,4.01525581 17.4851282,3.708 L17.4851282,0.246139535 C17.4851282,-0.0627906977 17.7304615,-0.31144186 18.0324103,-0.31144186 L21.4260513,-0.31144186 C21.726359,-0.31144186 21.9725128,-0.0627906977 21.9725128,0.246139535 L21.9725128,3.708" id="Fill-6" ></path>
            <path d="M22.0553846,3.708 C22.0553846,4.01525581 21.8084103,4.2655814 21.5089231,4.2655814 L18.1144615,4.2655814 C17.8133333,4.2655814 17.568,4.01525581 17.568,3.708 L17.568,0.246139535 C17.568,-0.0627906977 17.8133333,-0.31144186 18.1144615,-0.31144186 L21.5089231,-0.31144186 C21.8084103,-0.31144186 22.0553846,-0.0627906977 22.0553846,0.246139535 L22.0553846,3.708" id="Fill-7" ></path>
        </g>
    </g>
</svg>