<?xml version="1.0" encoding="UTF-8" standalone="no"?>
<svg width="32px" height="20px" viewBox="0 0 32 20" version="1.1" xmlns="http://www.w3.org/2000/svg" xmlns:xlink="http://www.w3.org/1999/xlink" xmlns:sketch="http://www.bohemiancoding.com/sketch/ns">
    <!-- Generator: Sketch 3.1.1 (8761) - http://www.bohemiancoding.com/sketch -->
    <title>icon-services+@1x</title>
    <desc></desc>
    <defs></defs>
    <g id="Page-1" stroke="none" stroke-width="1"  fill-rule="evenodd" >
        <g id="icon-services+"  transform="translate(0.000000, 1.000000)">
            <path d="M16.087619,18.5592 C13.6601905,18.5592 11.4041905,18.22 9.31885714,17.544 C7.23352381,16.8656 5.11009524,15.8376 2.94780952,14.4592 C1.73333333,13.6824 0.972952381,13.0688 0.663619048,12.6176 C0.355047619,12.1656 0.200380952,11.5512 0.200380952,10.7752 C0.200380952,10.1952 0.349714286,9.9064 0.647619048,9.9064 C0.746666667,9.9064 1.2792381,10.1496 2.24380952,10.636 C3.20990476,11.1232 4.36038095,11.6296 5.69447619,12.156 C7.03009524,12.684 8.59809524,13.1408 10.4030476,13.5296 C12.2072381,13.9168 14.1013333,14.1128 16.087619,14.1128 C18.0830476,14.1128 19.9862857,13.9144 21.7958095,13.52 C23.6060952,13.1264 25.1725714,12.6688 26.4967619,12.148 C27.8201905,11.6264 28.9691429,11.1232 29.9466667,10.636 C30.9234286,10.1496 31.4552381,9.9064 31.5428571,9.9064 C31.8422857,9.9064 31.9908571,10.1952 31.9908571,10.7752 C31.9908571,11.5856 31.8445714,12.2128 31.552,12.652 C31.2586667,13.092 30.5013333,13.6952 29.2769524,14.4592 C28.1950476,15.1424 27.1306667,15.7392 26.0830476,16.2496 C25.0339048,16.7576 23.9855238,17.184 22.9386667,17.5264 C21.8902857,17.8672 20.7977143,18.1248 19.6624762,18.3 C18.5257143,18.4736 17.3333333,18.5592 16.087619,18.5592" id="Fill-1" ></path>
            <path d="M25.0019048,4.6312 L23.3554286,4.6312 L23.3554286,6.3232 C23.3554286,6.7128 23.0537143,7.0168 22.6948571,7.0168 C22.3230476,7.0168 22.0342857,6.7128 22.0342857,6.3232 L22.0342857,4.6312 L20.3870476,4.6312 C20.0388571,4.6312 19.7500952,4.3392 19.7500952,3.9624 C19.7500952,3.5968 20.0388571,3.292 20.3870476,3.292 L22.0342857,3.292 L22.0342857,1.6 C22.0342857,1.2112 22.3230476,0.9064 22.6948571,0.9064 C23.0537143,0.9064 23.3554286,1.2112 23.3554286,1.6 L23.3554286,3.292 L25.0019048,3.292 C25.3493333,3.292 25.6388571,3.5968 25.6388571,3.9624 C25.6388571,4.3392 25.3493333,4.6312 25.0019048,4.6312 M22.6948571,-0.2176 C20.496,-0.2176 18.7139048,1.6528 18.7139048,3.9624 C18.7139048,6.2704 20.496,8.1408 22.6948571,8.1408 C24.8929524,8.1408 26.6758095,6.2704 26.6758095,3.9624 C26.6758095,1.6528 24.8929524,-0.2176 22.6948571,-0.2176" id="Fill-2" ></path>
            <path d="M12.1500952,4.6312 L10.504381,4.6312 L10.504381,6.3232 C10.504381,6.7128 10.2034286,7.0168 9.84380952,7.0168 C9.4727619,7.0168 9.1832381,6.7128 9.1832381,6.3232 L9.1832381,4.6312 L7.5367619,4.6312 C7.18857143,4.6312 6.89980952,4.3392 6.89980952,3.9624 C6.89980952,3.5968 7.18857143,3.292 7.5367619,3.292 L9.1832381,3.292 L9.1832381,1.6 C9.1832381,1.2112 9.4727619,0.9064 9.84380952,0.9064 C10.2034286,0.9064 10.504381,1.2112 10.504381,1.6 L10.504381,3.292 L12.1500952,3.292 C12.4975238,3.292 12.7885714,3.5968 12.7885714,3.9624 C12.7885714,4.3392 12.4975238,4.6312 12.1500952,4.6312 M9.84380952,-0.2176 C7.64571429,-0.2176 5.86285714,1.6528 5.86285714,3.9624 C5.86285714,6.2704 7.64571429,8.1408 9.84380952,8.1408 C12.0419048,8.1408 13.824,6.2704 13.824,3.9624 C13.824,1.6528 12.0419048,-0.2176 9.84380952,-0.2176" id="Fill-3" ></path>
        </g>
    </g>
</svg>