<?xml version="1.0" encoding="utf-8"?>
<!-- Generator: Adobe Illustrator 16.0.0, SVG Export Plug-In . SVG Version: 6.00 Build 0)  -->
<!DOCTYPE svg PUBLIC "-//W3C//DTD SVG 1.1//EN" "http://www.w3.org/Graphics/SVG/1.1/DTD/svg11.dtd">
<svg version="1.1" id="Layer_1" width="176px" height="55px" viewBox="0 0 176 55" xmlns="http://www.w3.org/2000/svg" xmlns:xlink="http://www.w3.org/1999/xlink" x="0px" y="0px" enable-background="new 0 0 134 138" xml:space="preserve">
<title>fanion</title>
<desc>Created with Sketch.</desc>

<g>
	<path d="M162.822.001c0-.001-108.917-.001-156.824-.001-3.312 0-5.998 2.686-5.998 6.001 0 1.814.809 3.437 2.082 4.537l17.317 25.618c.867 2.247 3.041 3.844 5.593 3.844l144.828.001c3.312 0 5.998 2.686 5.998 6v-40c0-3.314-2.686-6-5.998-6h-6.998z" id="fanion-text" />
	<path d="M166.819 40l-.001 14.535 3.002.001c3.312 0 5.998-3.686 5.998-6.999v-1.537c0-3.313-2.686-6-5.998-6h-3.001z" class="fanion-shadow"/>
</g>
</svg>
