<?xml version="1.0" encoding="UTF-8" standalone="no"?>
<svg width="28px" height="32px" viewBox="0 0 28 32" version="1.1" xmlns="http://www.w3.org/2000/svg" xmlns:xlink="http://www.w3.org/1999/xlink" xmlns:sketch="http://www.bohemiancoding.com/sketch/ns">
    <!-- Generator: Sketch 3.1.1 (8761) - http://www.bohemiancoding.com/sketch -->
    <title>icon-100€ offert@1x</title>
    <desc></desc>
    <defs></defs>
    <g id="Page-1" stroke="none" stroke-width="1"  fill-rule="evenodd" >
        <g id="icon-100€-offert"  transform="translate(0.000000, 1.000000)">
            <path d="M13.3904615,13.3301333 L13.3861538,13.3109333 C13.2073846,12.2218667 12.5321538,11.4816 11.7352308,11.6128 C10.9350769,11.7418667 10.5463077,12.6250667 10.7293846,13.7258667 L10.7315385,13.7418667 C10.9146154,14.8426667 11.5769231,15.5712 12.3846154,15.4421333 C13.1901538,15.3109333 13.5692308,14.4192 13.3904615,13.3301333" id="Fill-1" ></path>
            <path d="M19.3716923,12.3402667 C19.1929231,11.2501333 18.5176923,10.5109333 17.7207692,10.6421333 C16.9216923,10.7712 16.5329231,11.6544 16.7149231,12.7541333 L16.7170769,12.7712 C16.898,13.8709333 17.5635385,14.6005333 18.3712308,14.4714667 C19.1767692,14.3402667 19.5547692,13.4485333 19.376,12.3584 L19.3716923,12.3402667" id="Fill-2" ></path>
            <path d="M1.64015385,13.1808 L1.64015385,28.6272 C1.73276923,29.1210667 2.05907692,30.0042667 3.21030769,30.1066667 L16.7913846,30.1066667 C17.1930769,30.0629333 18.27,29.84 18.4487692,28.6570667 L18.4487692,18.7616 L26.8433846,15.4069333 C27.6532308,15.0858667 27.3312308,14.2837333 27.3312308,14.2837333 L22.1146154,1.46346667 C21.7904615,0.661333333 20.9806154,0.981333333 20.9806154,0.981333333 L18.396,2.01493333 C18.2732308,1.55306667 17.9523077,0.914133333 17.1004615,0.744533333 L5.54292308,0.744533333 C4.02553846,0.0448 2.77953846,-0.213333333 2.71384615,-0.224 C2.29923077,-0.308266667 1.89538462,-0.0416 1.81138462,0.3712 C1.74569231,0.692266667 1.89969231,1.00266667 2.16784615,1.1648 C1.92446154,1.37066667 1.72092308,1.66506667 1.64015385,2.09813333 L1.64015385,8.71146667 L0.887384615,9.01333333 C0.0775384615,9.33333333 0.399538462,10.1333333 0.399538462,10.1333333 L1.64015385,13.1808 L1.64015385,13.1808 Z M17.3449231,19.2032 L17.3449231,24.6709333 C17.3449231,26.0256 15.9772308,26.0256 15.9772308,26.0256 L4.17523077,26.0256 C2.80646154,26.0256 2.80646154,24.6709333 2.80646154,24.6709333 L2.80646154,16.0426667 L5.62692308,22.9696 C5.95,23.7717333 6.75015385,23.4378667 6.75015385,23.4378667 L17.3449231,19.2032 L17.3449231,19.2032 Z M10.0369231,26.7402667 C10.5689231,26.7402667 11.0255385,27.0592 11.2193846,27.5146667 C11.2850769,27.6661333 11.3206154,27.8336 11.3206154,28.0085333 C11.3206154,28.1845333 11.2850769,28.352 11.2193846,28.5034667 C11.0255385,28.96 10.5689231,29.28 10.0369231,29.28 C9.34553846,29.28 8.77907692,28.6506667 8.75861538,27.9648 C8.77907692,27.2842667 9.34553846,26.7402667 10.0369231,26.7402667 L10.0369231,26.7402667 Z M16.5404615,2.75626667 L10.4493846,5.19146667 C9.99492308,4.25813333 9.34123077,3.40906667 8.50230769,2.65493333 L15.9772308,2.65493333 C16.2055385,2.65493333 16.3832308,2.6976 16.5404615,2.75626667 L16.5404615,2.75626667 Z M8.47215385,1.57653333 C8.51846154,1.53173333 8.582,1.50506667 8.65092308,1.50506667 L11.4272308,1.50506667 C11.5661538,1.50506667 11.6803077,1.61493333 11.6803077,1.75253333 C11.6803077,1.89226667 11.5661538,2.00213333 11.4272308,2.00213333 L8.65092308,2.00213333 C8.51630769,2.00213333 8.414,1.89866667 8.40538462,1.76746667 C8.40538462,1.76106667 8.39892308,1.75786667 8.39892308,1.75253333 C8.39892308,1.68426667 8.428,1.62133333 8.47215385,1.57653333 L8.47215385,1.57653333 Z M2.80646154,7.31306667 L2.80753846,7.312 L2.80753846,4.0064 C2.80753846,3.66933333 2.89261538,3.41546667 3.02076923,3.22453333 C3.40523077,2.65493333 4.17523077,2.65493333 4.17523077,2.65493333 L5.91446154,2.65493333 C5.95969231,2.68053333 6.00492308,2.70293333 6.04907692,2.7296 C7.43938462,3.56906667 8.42584615,4.58453333 9.02138462,5.76213333 L2.80646154,8.24533333 L2.80646154,7.31306667 L2.80646154,7.31306667 Z M5.76584615,15.5445333 L4.25492308,15.7898667 C3.90815385,15.8464 3.57538462,15.6085333 3.51938462,15.2650667 C3.46230769,14.9216 3.70030769,14.5898667 4.04923077,14.5354667 L5.55692308,14.2901333 C5.90584615,14.2336 6.23861538,14.4714667 6.29569231,14.8149333 C6.35276923,15.1584 6.11261538,15.488 5.76584615,15.5445333 L5.76584615,15.5445333 Z M8.63476923,17.2234667 C8.27076923,17.2821333 7.92723077,17.0378667 7.86692308,16.6773333 L7.18092308,12.5173333 L6.73076923,12.7146667 C6.66507692,12.7424 6.57353846,12.7754667 6.50353846,12.7861333 C6.19015385,12.8362667 5.87892308,12.624 5.82830769,12.3146667 C5.78415385,12.048 5.92092308,11.7962667 6.17507692,11.6757333 L6.99353846,11.2864 C7.23584615,11.1776 7.41892308,11.1029333 7.59984615,11.0730667 L7.61815385,11.0709333 C7.98215385,11.0112 8.32569231,11.2565333 8.386,11.6170667 L9.18507692,16.4629333 C9.24646154,16.8234667 8.99769231,17.1648 8.63476923,17.2234667 L8.63476923,17.2234667 Z M9.58892308,7.45066667 C9.63953846,7.73546667 9.67184615,8.02666667 9.68369231,8.32533333 C9.70092308,8.73386667 10.0412308,9.05493333 10.4515385,9.05493333 L10.4827692,9.05493333 C10.9081538,9.03573333 11.2387692,8.6816 11.2193846,8.26346667 C11.2064615,7.94666667 11.1698462,7.6384 11.1213846,7.33333333 C11.2947692,7.4592 11.4476923,7.61493333 11.5327692,7.8272 C11.7750769,8.4256 11.4778462,9.1072 10.8726154,9.34613333 C10.2663077,9.58613333 9.58138462,9.29386667 9.33907692,8.6944 C9.16138462,8.25386667 9.27769231,7.77173333 9.58892308,7.45066667 L9.58892308,7.45066667 Z M12.5633846,16.6378667 C10.9415385,16.9024 9.65246154,15.7258667 9.36384615,13.9818667 L9.35953846,13.9648 C9.07415385,12.2218667 9.94107692,10.6752 11.5543077,10.4149333 C13.1589231,10.1546667 14.4673846,11.328 14.7527692,13.0709333 L14.7570769,13.088 C15.0456923,14.8341333 14.1873846,16.3754667 12.5633846,16.6378667 L12.5633846,16.6378667 Z M18.55,15.6672 C16.9281538,15.9317333 15.6390769,14.7541333 15.3504615,13.0112 L15.3461538,12.9941333 C15.0575385,11.248 15.9266154,9.70453333 17.5398462,9.44426667 C19.1444615,9.184 20.4529231,10.3573333 20.7393846,12.1024 L20.7436923,12.1194667 C21.0312308,13.8634667 20.1729231,15.4048 18.55,15.6672 L18.55,15.6672 Z M24.1467692,11.2170667 C23.9238462,11.5978667 23.6190769,11.8656 23.1096923,11.9466667 C22.3353846,12.0714667 21.7323077,11.696 21.4167692,11.0421333 L21.1852308,11.0816 C21.042,11.1050667 20.9073846,11.0133333 20.8847692,10.8714667 C20.8729231,10.8010667 20.8912308,10.7328 20.9310769,10.6794667 C20.9709231,10.6261333 21.0301538,10.5866667 21.1012308,10.576 L21.252,10.5504 C21.2401538,10.5002667 21.2315385,10.4501333 21.2207692,10.3968 C21.2121538,10.336 21.2003077,10.2709333 21.196,10.2090667 L21.0441538,10.2336 C20.9030769,10.2570667 20.7684615,10.1653333 20.7458462,10.0256 C20.7221538,9.88586667 20.8190769,9.7504 20.9601538,9.73013333 L21.2078462,9.68853333 C21.3069231,8.99413333 21.7463077,8.4448 22.4936923,8.3232 C22.8878462,8.2592 23.1807692,8.31786667 23.4316923,8.45013333 C23.5156923,8.49386667 23.5943077,8.54613333 23.6718462,8.6048 C23.7321538,8.6464 23.8021538,8.73173333 23.8226154,8.848 C23.856,9.04853333 23.7095385,9.23626667 23.5070769,9.26933333 C23.4424615,9.28 23.3853846,9.2736 23.3369231,9.25866667 C23.2895385,9.2448 23.2496923,9.22133333 23.2195385,9.19786667 C23.1236923,9.12 23.0289231,9.06346667 22.9266154,9.03146667 C22.8253846,8.9984 22.7166154,8.99093333 22.5927692,9.0112 C22.2933846,9.06133333 22.1038462,9.2608 22.022,9.55733333 L22.7252308,9.44213333 C22.8673846,9.41973333 23.002,9.51466667 23.0256923,9.65653333 C23.0310769,9.69173333 23.0106154,9.71946667 23.002,9.75146667 C22.9772308,9.84746667 22.9147692,9.93066667 22.8092308,9.9488 L21.9843077,10.0821333 C21.9864615,10.1098667 21.9918462,10.1408 21.9961538,10.1706667 C22.0004615,10.2005333 22.0036923,10.2282667 22.008,10.2592 C22.0198462,10.3168 22.0284615,10.3733333 22.0413846,10.4213333 L22.8663077,10.288 C23.0084615,10.2677333 23.1430769,10.3626667 23.1667692,10.5024 C23.1786154,10.5728 23.1592308,10.64 23.1193846,10.6922667 C23.0806154,10.7445333 23.0203077,10.7829333 22.9503077,10.7946667 L22.2363077,10.9109333 C22.4118462,11.1861333 22.6724615,11.3130667 22.9944615,11.2608 C23.2486154,11.2192 23.3918462,11.088 23.5361538,10.8586667 C23.5609231,10.8192 23.5921538,10.7829333 23.6330769,10.7552 C23.6729231,10.7264 23.7213846,10.7061333 23.7806154,10.6965333 C23.8764615,10.6805333 23.9690769,10.7050667 24.0433846,10.7573333 C24.1166154,10.8096 24.1693846,10.8896 24.1866154,10.9856 C24.2016923,11.0752 24.1736923,11.1669333 24.1467692,11.2170667 L24.1467692,11.2170667 Z" id="Fill-3" ></path>
        </g>
    </g>
</svg>