<?xml version="1.0" encoding="utf-8"?>
<!-- Generator: Adobe Illustrator 16.0.0, SVG Export Plug-In . SVG Version: 6.00 Build 0)  -->
<!DOCTYPE svg PUBLIC "-//W3C//DTD SVG 1.1//EN" "http://www.w3.org/Graphics/SVG/1.1/DTD/svg11.dtd">
<svg version="1.1" id="CARTE_SIM" xmlns="http://www.w3.org/2000/svg" xmlns:xlink="http://www.w3.org/1999/xlink" x="0px" y="0px"
	 width="995px" height="768px" viewBox="0 0 995 768" enable-background="new 0 0 995 768" xml:space="preserve">
<path d="M734.487,724.576V131.701c0-11.215-4.552-21.344-11.887-28.687l-98.454-88.275
	c-7.354-7.343-17.486-11.878-28.683-11.878H288.176c-2.799,0-5.542,0.285-8.192,0.826c-2.613,0.546-5.169,1.348-7.595,2.36
	c-4.871,2.058-9.237,5.029-12.895,8.691c-7.333,7.343-11.868,17.495-11.868,28.687v681.15c0,22.406,18.157,40.562,40.55,40.562
	c0,0,405.726,0,405.743,0C716.33,765.139,734.487,746.982,734.487,724.576z M583.969,168.724
	c34.188,0.009,61.881,27.739,61.881,61.917v33.347l-71.695-0.032l0.019-95.231H583.969z M550.156,168.71l-0.02,95.208l-47.062,0.014
	l0.056-95.245L550.156,168.71z M479.058,263.941l-47.044-0.032v-95.208l47.062,0.009L479.058,263.941z M336.303,479.986
	l-0.019-249.406c0.037-34.233,27.692-61.894,61.917-61.903h9.797l-0.018,100.755v2.052v16.492H645.85v192.035L336.303,479.986z
	 M398.125,599.277c-34.224,0.014-61.898-27.74-61.861-61.963L336.246,504l71.714,0.012l-0.038,95.279L398.125,599.277z
	 M431.939,599.268l0.075-95.223l46.97-0.033v95.303L431.939,599.268z M503.074,599.291l-0.037-95.246l47.007,0.016l0.037,95.254
	L503.074,599.291z M574.061,599.301l0.056-95.264l71.658,0.033l0.036,33.328c0,34.186-27.748,61.926-61.935,61.926L574.061,599.301z
	"/>
</svg>
