<?xml version="1.0" encoding="utf-8"?>
<!-- Generator: Adobe Illustrator 15.1.0, SVG Export Plug-In . SVG Version: 6.00 Build 0)  -->
<!DOCTYPE svg PUBLIC "-//W3C//DTD SVG 1.1//EN" "http://www.w3.org/Graphics/SVG/1.1/DTD/svg11.dtd">
<svg version="1.1" id="Calque_1" xmlns:sketch="http://www.bohemiancoding.com/sketch/ns"
	 xmlns="http://www.w3.org/2000/svg" xmlns:xlink="http://www.w3.org/1999/xlink" x="0px" y="0px" width="176px" height="46px"
	 viewBox="0 0 176 46" enable-background="new 0 0 176 46" xml:space="preserve">
<title>fanion-txt</title>
<desc>Created with Sketch.</desc>
<path fill="#27E2B6" d="M7.5,35.454c0,0-4.587,0.644-4.587,5.386c0,4.741,4.587,6.139,4.587,6.139V35.454z"/>
<path fill="#1EBC93" d="M7.5,35.699c0,0-4.587,0.597-4.587,4.985c0,4.388,4.587,5.683,4.587,5.683V35.699z"/>
<path d="M6.855,36.372"/>
<path fill="#27E2B6" d="M2.5,41.451V2.485c0,0,0.987-2.985,3.217-2.985c2.23,0,144.359,0,144.359,0s7.328-0.076,5.939,4.855
	c-1.703,6.052-9.447,26.264-9.447,26.264s-2.477,5.881-9.434,5.881c-6.956,0-129.045,0-129.045,0S2.926,35.574,2.5,41.451z"/>
</svg>
