<?xml version="1.0" encoding="UTF-8" standalone="no"?>
<svg width="14px" height="25px" viewBox="0 0 14 25" version="1.1" xmlns="http://www.w3.org/2000/svg" xmlns:xlink="http://www.w3.org/1999/xlink" xmlns:sketch="http://www.bohemiancoding.com/sketch/ns">
    <!-- Generator: Sketch 3.1.1 (8761) - http://www.bohemiancoding.com/sketch -->
    <title>icon-location@1x</title>
    <desc></desc>
    <defs></defs>
    <g id="Page-1" stroke="none" stroke-width="1"  fill-rule="evenodd" >
        <path d="M13.1760378,4.36341176 C12.2010378,1.807 9.78051146,0 6.94945883,0 C4.10182725,0 1.67024831,1.82764706 0.704721991,4.407 C-1.77422538,11.7412941 3.01472199,20.9108824 5.07445883,23.5712941 C5.18261673,23.7104706 5.28919567,23.8351176 5.39498515,23.946 L5.45419567,24.0094706 L5.52919567,24.0844118 C5.60182725,24.1555294 5.67761673,24.2212941 5.75024831,24.2801765 C5.78261673,24.3038824 5.8134062,24.3298824 5.84735357,24.3528235 L5.89314304,24.3864706 L5.94130094,24.4208824 L5.9965641,24.4568235 C6.02735357,24.4774706 6.06051146,24.4950588 6.09366936,24.5141765 C6.13077462,24.5340588 6.16945883,24.5547059 6.20814304,24.5730588 L6.28314304,24.609 L6.36051146,24.6434118 L6.43945883,24.6701765 C6.48603778,24.6854706 6.53498515,24.7 6.58077462,24.7114706 C6.64393252,24.7252353 6.69209041,24.7344118 6.74103778,24.7405294 C6.80735357,24.7466471 6.86182725,24.7542941 6.91866936,24.7542941 C7.00314304,24.7542941 7.06077462,24.7466471 7.11761673,24.7405294 L7.19024831,24.7298235 L7.26603778,24.7137647 C7.29682725,24.7068824 7.32761673,24.7 7.3584062,24.6877647 C7.43182725,24.6671176 7.50130094,24.6411176 7.56998515,24.6112941 L7.6315641,24.5845294 L7.72551146,24.5386471 C7.75314304,24.5248824 7.78235357,24.5088235 7.80761673,24.4912353 C7.83445883,24.4751765 7.86130094,24.4568235 7.89051146,24.4392353 L7.97103778,24.3834118 L8.05551146,24.323 L8.13682725,24.2572353 C8.16761673,24.232 8.1984062,24.2075294 8.22919567,24.18 L8.29551146,24.1211176 C8.33735357,24.0798235 8.36419567,24.0530588 8.39261673,24.0255294 C8.53945883,23.8756471 8.66182725,23.7334118 8.78735357,23.5712941 C10.724722,21.0676471 15.0802483,12.8011765 13.5384062,5.68711765 C13.4413009,5.24205882 13.3220904,4.79929412 13.1760378,4.36341176 Z M7.08209041,10.6837059 C5.04682725,10.6837059 3.39287989,8.98376471 3.39287989,6.88770588 C3.39287989,4.79088235 5.04682725,3.09017647 7.08209041,3.09017647 C9.12051146,3.09017647 10.7736694,4.79088235 10.7736694,6.88770588 C10.7736694,8.98376471 9.12051146,10.6837059 7.08209041,10.6837059 Z" id="icon-location"></path>
    </g>
</svg>