<?xml version="1.0" encoding="UTF-8" standalone="no"?>
<svg width="32px" height="18px" viewBox="0 0 32 18" version="1.1" xmlns="http://www.w3.org/2000/svg" xmlns:xlink="http://www.w3.org/1999/xlink" xmlns:sketch="http://www.bohemiancoding.com/sketch/ns">
    <!-- Generator: Sketch 3.1.1 (8761) - http://www.bohemiancoding.com/sketch -->
    <title>icon-transfer-datas@1x</title>
    <desc></desc>
    <defs></defs>
    <g id="Page-1" stroke="none" stroke-width="1"  fill-rule="evenodd" >
        <path d="M2.08859578,4.79191304 L6.24937627,4.79034783 L6.25015675,12.2658261 L2.08859578,12.2658261 L2.08859578,4.79191304 L2.08859578,4.79191304 Z M12.6938641,3.44504348 L15.9063519,3.44504348 L15.9063519,4.50391304 C16.0749372,4.50313043 16.2513275,4.50313043 16.4292787,4.50391304 C17.9996202,4.54069565 19.1008885,5.76391304 19.2772787,5.94078261 L19.2780592,5.94078261 L21.1871324,7.85347826 L23.1648885,7.85504348 C23.3990348,7.11 24.0835226,6.56921739 24.9038153,6.56921739 C25.9168885,6.56921739 26.7371811,7.39173913 26.7371811,8.40834783 C26.7379616,9.4233913 25.9168885,10.2451304 24.9038153,10.2451304 C24.0835226,10.2451304 23.3974738,9.70121739 23.1633275,8.95695652 L22.8581568,8.95852174 L20.9498641,10.872 L20.9498641,10.8704348 C20.7711324,11.0496522 19.6706446,12.272087 18.1018641,12.3088696 C17.9762055,12.3073043 17.8528885,12.3088696 17.7319129,12.3088696 C17.4962055,13.0625217 16.8015714,13.6111304 15.9719129,13.6126957 C14.9494738,13.6142609 14.1198153,12.7831304 14.1213763,11.7571304 C14.1198153,10.731913 14.9479129,9.89843478 15.9719129,9.89843478 C16.8015714,9.89843478 17.495425,10.4501739 17.7319129,11.2038261 C17.8528885,11.2053913 17.9762055,11.2038261 18.0987421,11.2038261 C18.8269372,11.2218261 19.6526933,10.6074783 19.9859616,10.2787826 C20.0983519,10.1723478 20.1490836,10.1128696 20.1490836,10.1128696 L20.1709372,10.0909565 L21.3018641,8.95852174 L11.7978641,8.95852174 L11.7978641,10.2349565 L8.62908358,8.40052174 L11.799425,6.56452174 L11.799425,7.85347826 L19.6292787,7.85347826 L18.4991324,6.72104348 L18.4772787,6.69913043 C18.4772787,6.69913043 18.426547,6.63965217 18.3141568,6.534 C18.2033275,6.42991304 18.0363031,6.28356522 17.8396202,6.14426087 C17.4407909,5.8586087 16.9124007,5.60347826 16.4292787,5.60895652 C16.2497665,5.60817391 16.0749372,5.60895652 15.9063519,5.60895652 L15.9063519,6.66704348 L12.6938641,6.66704348 L12.6938641,3.44504348 L12.6938641,3.44504348 Z M7.38732749,0 C6.73249822,0.170608696 6.24937627,0.766956522 6.24937627,1.47756522 L6.24937627,2.69765217 L1.55005919,2.69765217 C1.12781529,2.69765217 0.728205535,2.8713913 0.452693339,3.15313043 C0.172498217,3.43408696 -0.001550563,3.83165217 1.04126104e-05,4.2566087 L0.000790900415,12.8058261 C-0.00389202641,13.2292174 0.174839681,13.6283478 0.453473827,13.9046087 C0.734449437,14.187913 1.12625432,14.3616522 1.55162017,14.3616522 L6.24859578,14.360087 L6.24859578,15.5817391 C6.24859578,16.3338261 6.7910348,16.9591304 7.50440066,17.0843478 L23.3685958,17.0843478 C27.6206933,16.7767826 31.0103519,13.3544348 31.2819616,9.08373913 L31.2819616,7.97556522 C31.0165958,3.80113043 27.7736689,0.439826087 23.6597177,0 L7.38732749,0 L7.38732749,0 Z" id="icon-transfer-datas"></path>
    </g>
</svg>