<?xml version="1.0" encoding="UTF-8" standalone="no"?>
<svg width="31px" height="38px" viewBox="0 0 31 38" version="1.1" xmlns="http://www.w3.org/2000/svg" xmlns:xlink="http://www.w3.org/1999/xlink" xmlns:sketch="http://www.bohemiancoding.com/sketch/ns">
    <!-- Generator: Sketch 3.1.1 (8761) - http://www.bohemiancoding.com/sketch -->
    <title>icon-film@1x</title>
    <desc></desc>
    <defs></defs>
    <g id="Page-1" stroke="none" stroke-width="1"  fill-rule="evenodd" >
        <path d="M19.9472941,35.48345 L20.1929412,34.56005 L21.8324706,35.0037 L21.5877647,35.9271 L19.9472941,35.48345 L19.9472941,35.48345 Z M20.4225882,33.69555 L20.6672941,32.7712 L22.3068235,33.21485 L22.0630588,34.13825 L20.4225882,33.69555 L20.4225882,33.69555 Z M20.8969412,31.9086 L21.1416471,30.98235 L22.7811765,31.426 L22.5364706,32.35225 L20.8969412,31.9086 L20.8969412,31.9086 Z M1.24329412,30.42565 L1.48894118,29.50035 L3.12941176,29.94305 L2.88376471,30.8693 L1.24329412,30.42565 L1.24329412,30.42565 Z M21.3712941,30.11975 L21.6178824,29.1954 L23.2555294,29.63905 L23.0108235,30.5634 L21.3712941,30.11975 L21.3712941,30.11975 Z M1.71858824,28.6368 L1.96517647,27.7134 L3.60470588,28.1561 L3.36,29.08045 L1.71858824,28.6368 L1.71858824,28.6368 Z M21.8456471,28.3309 L22.0903529,27.40655 L23.7317647,27.8502 L23.4851765,28.77455 L21.8456471,28.3309 L21.8456471,28.3309 Z M2.19294118,26.8489 L2.43952941,25.92265 L4.07905882,26.3682 L3.83152941,27.2916 L2.19294118,26.8489 L2.19294118,26.8489 Z M22.32,26.54205 L22.5675294,25.61865 L24.208,26.06135 L23.9595294,26.9857 L22.32,26.54205 L22.32,26.54205 Z M2.66917647,25.06195 L2.91388235,24.1357 L4.55341176,24.57935 L4.30776471,25.50465 L2.66917647,25.06195 L2.66917647,25.06195 Z M22.7962353,24.7532 L23.0418824,23.8279 L24.6823529,24.27345 L24.4376471,25.19685 L22.7962353,24.7532 L22.7962353,24.7532 Z M3.14352941,23.2731 L3.38823529,22.34875 L5.02776471,22.7924 L4.78211765,23.71675 L3.14352941,23.2731 L3.14352941,23.2731 Z M23.2705882,22.96625 L23.5152941,22.04095 L25.1567059,22.4846 L24.9101176,23.4099 L23.2705882,22.96625 L23.2705882,22.96625 Z M3.61788235,21.48425 L3.86352941,20.5599 L5.50211765,21.00355 L5.25741176,21.9298 L3.61788235,21.48425 L3.61788235,21.48425 Z M23.7458824,21.17835 L23.9896471,20.254 L25.6310588,20.69575 L25.3844706,21.6239 L23.7458824,21.17835 L23.7458824,21.17835 Z M4.09223529,19.6954 L4.33788235,18.772 L5.97647059,19.2147 L5.73176471,20.13905 L4.09223529,19.6954 L4.09223529,19.6954 Z M24.2192941,19.3895 L24.464,18.46515 L26.1044706,18.9088 L25.8607059,19.83505 L24.2192941,19.3895 L24.2192941,19.3895 Z M19.3712941,29.78915 L6.17505882,26.21905 C5.70729412,26.09365 5.42494118,25.60155 5.55105882,25.13035 L7.37694118,18.25425 C7.50211765,17.78305 7.98682353,17.499 8.45458824,17.62535 L21.6527059,21.1945 C22.1214118,21.32085 22.4028235,21.81105 22.2776471,22.28225 L20.4508235,29.16025 C20.3463529,29.55735 19.9877647,29.8186 19.5981176,29.8186 C19.5228235,29.8186 19.4465882,29.81005 19.3712941,29.78915 L19.3712941,29.78915 Z M4.56658824,17.90845 L4.81129412,16.98125 L6.45364706,17.4268 L6.20611765,18.3502 L4.56658824,17.90845 L4.56658824,17.90845 Z M24.6936471,17.60255 L24.9383529,16.67725 L26.5797647,17.11995 L26.336,18.0462 L24.6936471,17.60255 L24.6936471,17.60255 Z M5.04094118,16.12055 L5.28658824,15.1943 L6.92517647,15.63985 L6.68047059,16.56325 L5.04094118,16.12055 L5.04094118,16.12055 Z M25.1689412,15.8137 L25.4136471,14.8884 L27.0541176,15.333 L26.8094118,16.25735 L25.1689412,15.8137 L25.1689412,15.8137 Z M5.51529412,14.3336 L5.76188235,13.40735 L7.40235294,13.851 L7.15576471,14.77725 L5.51529412,14.3336 L5.51529412,14.3336 Z M25.6432941,14.02675 L25.8898824,13.10145 L27.5294118,13.5432 L27.2837647,14.4685 L25.6432941,14.02675 L25.6432941,14.02675 Z M5.99152941,12.54285 L6.23717647,11.6185 L7.87670588,12.06215 L7.63105882,12.9884 L5.99152941,12.54285 L5.99152941,12.54285 Z M26.1176471,12.23695 L26.3642353,11.3126 L28.0037647,11.75625 L27.7581176,12.68155 L26.1176471,12.23695 L26.1176471,12.23695 Z M6.46305882,10.754 L6.71152941,9.82965 L8.35105882,10.2733 L8.10541176,11.19955 L6.46305882,10.754 L6.46305882,10.754 Z M26.592,10.4481 L26.8385882,9.52375 L28.48,9.9674 L28.2315294,10.89365 L26.592,10.4481 L26.592,10.4481 Z M6.94117647,8.96515 L7.18588235,8.04365 L8.82541176,8.48635 L8.58070588,9.4088 L6.94117647,8.96515 L6.94117647,8.96515 Z M27.0701176,8.66115 L27.3148235,7.7368 L28.9543529,8.18045 L28.7077647,9.1029 L27.0701176,8.66115 L27.0701176,8.66115 Z M22.1214118,19.43225 L8.92329412,15.86215 C8.45458824,15.7358 8.17505882,15.24655 8.29929412,14.77535 L10.1251765,7.8983 C10.2503529,7.4252 10.736,7.14115 11.2037647,7.2694 L24.4028235,10.8376 C24.8696471,10.96395 25.1510588,11.4551 25.0258824,11.92725 L23.2009412,18.80335 C23.0955294,19.20045 22.7350588,19.4617 22.3463529,19.4617 C22.2710588,19.4617 22.1967059,19.4522 22.1214118,19.43225 L22.1214118,19.43225 Z M7.41552941,7.1782 L7.66023529,6.2529 L9.29976471,6.69845 L9.05505882,7.62185 L7.41552941,7.1782 L7.41552941,7.1782 Z M27.5407059,6.8742 L27.7891765,5.9489 L29.4287059,6.3916 L29.184,7.31785 L27.5407059,6.8742 L27.5407059,6.8742 Z M7.88988235,5.3922 L8.13458824,4.46595 L9.776,4.9096 L9.52941176,5.8349 L7.88988235,5.3922 L7.88988235,5.3922 Z M8.36423529,3.60145 L8.60988235,2.6771 L10.2503529,3.12075 L10.0037647,4.04605 L8.36423529,3.60145 L8.36423529,3.60145 Z M8.83858824,1.8145 L9.08517647,0.88825 L10.7247059,1.3338 L10.4781176,2.25815 L8.83858824,1.8145 L8.83858824,1.8145 Z M8.22870588,0 L0,31.0023 L0,31.0441 L3.71388235,32.0473 L4.62682353,28.61115 C4.752,28.13805 5.23764706,27.854 5.70729412,27.98225 L18.9044706,31.55045 C19.3712941,31.6787 19.6527059,32.16795 19.5275294,32.64105 L18.6155294,36.0772 L22.1967059,37.0462 L22.3491765,37.0462 L30.5863529,6.0173 L26.864,5.00935 L25.9482353,8.4474 C25.8258824,8.9205 25.3383529,9.20075 24.8696471,9.07535 L11.6724706,5.50715 C11.2037647,5.3789 10.9242353,4.8887 11.0494118,4.4175 L11.9595294,0.97945 L8.34352941,0 L8.22870588,0 L8.22870588,0 Z" id="icon-film"></path>
    </g>
</svg>