<?xml version="1.0" encoding="UTF-8" standalone="no"?>
<svg width="32px" height="25px" viewBox="0 0 32 25" version="1.1" xmlns="http://www.w3.org/2000/svg" xmlns:xlink="http://www.w3.org/1999/xlink" xmlns:sketch="http://www.bohemiancoding.com/sketch/ns">
    <!-- Generator: Sketch 3.1.1 (8761) - http://www.bohemiancoding.com/sketch -->
    <title>icon-tv@1x</title>
    <desc></desc>
    <defs></defs>
    <g id="Page-1" stroke="none" stroke-width="1"  fill-rule="evenodd" >
        <path d="M29.4604444,20.4073103 L1.59377778,20.4073103 C1.59733333,17.7831034 1.60088889,4.24158621 1.60266667,1.612 L29.4693333,1.612 C29.4666667,4.24158621 29.4604444,17.7831034 29.4604444,20.4073103 M29.9466667,0 L1.12355556,0 C0.509333333,0 0.0106666667,0.506551724 0.0106666667,1.12786207 L0,20.8914483 C0,21.5172414 0.500444444,22.0228966 1.11466667,22.0228966 L11.6755556,22.0228966 C9.85422222,22.299931 8.05244444,22.7446207 6.30222222,23.4134483 C5.84622222,23.5864828 5.61777778,24.0751034 5.79022222,24.4866207 C5.96,24.8981379 6.43911111,25.0855172 6.86311111,24.9250345 C12.4497778,22.7957241 18.6115556,22.7957241 24.1982222,24.9250345 C24.6231111,25.0855172 25.1004444,24.8981379 25.2728889,24.4866207 C25.4426667,24.0751034 25.216,23.5864828 24.7591111,23.4134483 C23.0106667,22.7446207 21.2088889,22.299931 19.384,22.0228966 L29.936,22.0228966 C30.5511111,22.0228966 31.0488889,21.5172414 31.0488889,20.8914483 L31.0604444,1.12786207 C31.0604444,0.506551724 30.5608889,0 29.9466667,0 M3.55733333,17.7454483 L27.5048889,17.7454483 C27.6257778,17.7454483 27.7235556,17.6432414 27.7235556,17.5204138 L27.7235556,3.562 C27.7235556,3.43827586 27.6257778,3.33786207 27.5048889,3.33786207 L3.55733333,3.33786207 C3.43466667,3.33786207 3.33866667,3.43827586 3.33866667,3.562 L3.33866667,17.5204138 C3.33866667,17.6432414 3.43466667,17.7454483 3.55733333,17.7454483 M27.5626667,18.6733793 L26.6604444,18.6733793 C26.5733333,18.6733793 26.5013333,18.7468966 26.5013333,18.8365517 L26.5013333,19.2946897 C26.5013333,19.3843448 26.5733333,19.456069 26.6604444,19.456069 L27.5626667,19.456069 C27.6506667,19.456069 27.7235556,19.3843448 27.7235556,19.2946897 L27.7235556,18.8365517 C27.7235556,18.7468966 27.6506667,18.6733793 27.5626667,18.6733793 M25.976,18.6733793 L25.0711111,18.6733793 C24.9822222,18.6733793 24.9128889,18.7468966 24.9102222,18.8365517 L24.9102222,19.2946897 C24.9128889,19.3843448 24.9822222,19.456069 25.0711111,19.456069 L25.976,19.456069 C26.0631111,19.456069 26.1342222,19.3843448 26.1342222,19.2946897 L26.1342222,18.8365517 C26.1342222,18.7468966 26.0631111,18.6733793 25.976,18.6733793" id="icon-tv"></path>
    </g>
</svg>