<?xml version="1.0" encoding="utf-8"?>
<!-- Generator: Adobe Illustrator 16.0.0, SVG Export Plug-In . SVG Version: 6.00 Build 0)  -->
<!DOCTYPE svg PUBLIC "-//W3C//DTD SVG 1.1//EN" "http://www.w3.org/Graphics/SVG/1.1/DTD/svg11.dtd">
<svg version="1.1" id="Calque_1" xmlns="http://www.w3.org/2000/svg" xmlns:xlink="http://www.w3.org/1999/xlink" x="0px" y="0px"
	 width="66.375px" height="67.25px" viewBox="0 0 66.375 67.25" enable-background="new 0 0 66.375 67.25" xml:space="preserve">
<g>
	<defs>
		<path id="SVGID_1_" d="M23.851,33.063c0.003-5.298,4.3-9.592,9.589-9.594c5.29,0.005,9.589,4.296,9.572,9.594
			c0.017,5.281-4.283,9.579-9.58,9.579C28.148,42.642,23.851,38.344,23.851,33.063 M29.641,1.462l-1.609,10.13
			c-2.16,0.519-4.244,1.376-6.197,2.554l-8.297-6.022l-5.233,5.235l6.021,8.298c-1.175,1.949-2.029,4.037-2.556,6.19l-10.124,1.61
			l-0.012,7.401l10.136,1.599c0.527,2.158,1.381,4.246,2.56,6.204l-6.025,8.291l5.233,5.238l8.297-6.038
			c1.953,1.188,4.038,2.659,6.197,3.191l1.601,10.753h7.414l1.595-10.753c2.148-0.528,4.238-1.7,6.195-2.873l8.301,5.877l5.229-5.32
			l-6.024-8.335c1.176-1.95,2.029-4.06,2.558-6.217l10.13-1.628l0.007-7.391L54.9,27.842c-0.529-2.149-1.369-4.237-2.558-6.188
			l6.024-8.295l-5.229-5.235l-8.298,6.03c-1.96-1.185-4.05-2.042-6.192-2.571L37.026,1.457L29.641,1.462z"/>
			<clipPath id="SVGID_2_">
		<use xlink:href="#SVGID_1_"  overflow="visible"/>
	</clipPath>
	</defs>
	<rect x="-69.852" y="-16.694" clip-path="url(#SVGID_2_)" width="188.794" height="133.244"/>
</g>
<circle cx="35.639" cy="33.308" r="15"/>
<path fill="#F2F2F2" d="M42.862,19.742l-1.173,5.507c-1.126-1.127-2.771-1.689-4.931-1.689s-3.911,0.775-5.25,2.326
	c-0.756,0.874-1.292,1.969-1.61,3.281h10.936l-0.636,3.082H29.499c-0.011,0.305-0.019,0.695-0.019,1.173
	c0,0.465,0.013,0.948,0.04,1.452h10.122l-0.636,3.082h-9.067c0.33,1.419,0.841,2.533,1.53,3.342c1.327,1.564,3.05,2.345,5.171,2.345
	c2.545,0,4.573-0.781,6.084-2.345v6.084c-1.724,0.861-3.731,1.292-6.025,1.292c-3.87,0-7.053-1.325-9.544-3.978
	c-1.697-1.802-2.817-4.049-3.36-6.741H20.85l0.637-3.082h1.948c-0.013-0.318-0.019-0.655-0.019-1.012c0-0.61,0.012-1.148,0.04-1.612
	H20.85l0.637-3.082h2.366c0.556-2.638,1.664-4.845,3.32-6.622c2.505-2.678,5.8-4.017,9.882-4.017
	C39.283,18.528,41.218,18.933,42.862,19.742"/>
</svg>
