<?xml version="1.0" encoding="UTF-8" standalone="no"?>
<svg width="25px" height="25px" viewBox="0 0 25 25" version="1.1" xmlns="http://www.w3.org/2000/svg" xmlns:xlink="http://www.w3.org/1999/xlink" xmlns:sketch="http://www.bohemiancoding.com/sketch/ns">
    <!-- Generator: Sketch 3.1.1 (8761) - http://www.bohemiancoding.com/sketch -->
    <title>icon-search@1x</title>
    <desc></desc>
    <defs></defs>
    <g id="Page-1" stroke="none" stroke-width="1"  fill-rule="evenodd" >
        <path d="M14.2168788,14.2168788 C11.3560909,17.0784545 6.69972727,17.0784545 3.83893939,14.2168788 C0.976575758,11.3560909 0.976575758,6.69972727 3.83893939,3.83893939 C6.69972727,0.976575758 11.3560909,0.977363636 14.2168788,3.83893939 C17.0792424,6.69972727 17.0792424,11.3560909 14.2168788,14.2168788 M15.4144545,2.64136364 C11.8926364,-0.880454545 6.16318182,-0.880454545 2.64136364,2.64136364 C-0.880454545,6.16318182 -0.880454545,11.8926364 2.64136364,15.4144545 C5.70227273,18.4737879 10.4271818,18.8708788 13.9245758,16.6128182 L20.6948182,24.2229394 C21.6694242,25.1959697 23.2483333,25.1959697 24.2229394,24.2229394 C25.1975455,23.2483333 25.1975455,21.6678485 24.2229394,20.6948182 L16.6128182,13.9245758 C18.8732424,10.4279697 18.4737879,5.70069697 15.4144545,2.64136364" id="icon-search"></path>
    </g>
</svg>