<?xml version="1.0" encoding="UTF-8" standalone="no"?>
<svg width="36px" height="22px" viewBox="0 0 36 22" version="1.1" xmlns="http://www.w3.org/2000/svg" xmlns:xlink="http://www.w3.org/1999/xlink" xmlns:sketch="http://www.bohemiancoding.com/sketch/ns">
    <!-- Generator: Sketch 3.1.1 (8761) - http://www.bohemiancoding.com/sketch -->
    <title>icon-ordi@1x</title>
    <desc></desc>
    <defs></defs>
    <g id="Page-1" stroke="none" stroke-width="1"  fill-rule="evenodd" >
        <g id="icon-ordi"  transform="translate(1.000000, 1.000000)">
            <path d="M19.8091525,18.3718182 L19.8091525,18.7351818 C19.8091525,18.9362727 19.6535593,19.0985455 19.4601356,19.0985455 L15.2792542,19.0985455 C15.0864407,19.0985455 14.9308475,18.9362727 14.9308475,18.7351818 L14.9308475,18.3718182 L-0.0524745763,18.3718182 L-0.0524745763,19.0985455 C-0.0524745763,19.0985455 -0.0524745763,20.1892727 0.993355932,20.1892727 L33.7460339,20.1892727 C34.7918644,20.1892727 34.7918644,19.0985455 34.7918644,19.0985455 L34.7918644,18.3718182 L19.8091525,18.3718182 M5.52264407,1.29245455 L29.2167458,1.29245455 L29.2167458,15.8282727 L5.52264407,15.8282727 L5.52264407,1.29245455 Z M29.5651525,-0.161 L5.17423729,-0.161 C4.59640678,-0.161 4.12901695,0.327090909 4.12901695,0.928454545 L4.12901695,16.1916364 C4.12901695,16.7942727 4.59640678,17.2823636 5.17423729,17.2823636 L29.5651525,17.2823636 C30.1423729,17.2823636 30.6103729,16.7942727 30.6103729,16.1916364 L30.6103729,0.928454545 C30.6103729,0.327090909 30.1423729,-0.161 29.5651525,-0.161 L29.5651525,-0.161 Z" id="Fill-1" ></path>
        </g>
    </g>
</svg>