<?xml version="1.0" encoding="utf-8"?>
<!-- Generator: Adobe Illustrator 16.0.0, SVG Export Plug-In . SVG Version: 6.00 Build 0)  -->
<!DOCTYPE svg PUBLIC "-//W3C//DTD SVG 1.1//EN" "http://www.w3.org/Graphics/SVG/1.1/DTD/svg11.dtd">
<svg version="1.1" id="Layer_1" xmlns="http://www.w3.org/2000/svg" xmlns:xlink="http://www.w3.org/1999/xlink" x="0px" y="0px"
	 width="254px" height="254px" viewBox="0 0 254 254" enable-background="new 0 0 254 254" xml:space="preserve">
<g>
	<path fill-rule="evenodd" clip-rule="evenodd" d="M215.115,215.112c0.009-0.013,0.017-0.019,0.022-0.027
		c45.851-45.879,48.407-118.881,7.746-167.891c-2.392-3.024-4.978-5.948-7.771-8.74c-2.796-2.795-5.719-5.382-8.747-7.773
		C157.348-9.986,84.327-7.417,38.454,38.457C-7.422,84.333-9.984,157.358,30.691,206.376c2.388,3.024,4.973,5.948,7.767,8.741
		c2.792,2.792,5.715,5.378,8.742,7.767c49.022,40.67,122.04,38.104,167.914-7.769l0,0L215.115,215.112z M56.327,226.38v-29.134
		l-29.136-0.003C-2.622,155.178-2.671,98.385,27.048,56.326h29.274l0.003-29.275c42.059-29.722,98.853-29.668,140.918,0.139v29.135
		h29.134c29.816,42.066,29.865,98.859,0.14,140.919h-29.27l-0.004,29.279C155.183,256.243,98.392,256.19,56.327,226.38z"/>
	<g>
		<path d="M113.143,100.086c-5.473,0-9.914,4.948-9.914,11.053v7.69c-2.275,2.429-2.964,9.231-2.964,12.822h25.452
			c0-3.589-0.387-10.39-2.661-12.823v-7.689C123.056,105.037,118.617,100.086,113.143,100.086z M120.883,114.168
			c-0.048,0-0.089-0.029-0.136-0.035c-0.126,0.373-0.282,0.73-0.462,1.077c-1.331,2.596-4.024,4.378-7.144,4.378
			c-2.706,0-5.085-1.347-6.542-3.396c0-0.002-0.001-0.004-0.002-0.007c-0.222-0.31-0.425-0.636-0.6-0.979
			c-0.18-0.343-0.335-0.7-0.463-1.073c-0.043,0.005-0.082,0.035-0.134,0.035c-0.787,0-1.43-0.856-1.43-1.917
			c0-0.773,0.348-1.407,0.838-1.705c0.149,0.611,0.329,0.987,0.368,0.979c-0.133-0.222,1.493-3.688,7.301-2.593
			c1.672,0.315,2.739-0.697,3.311-2.058c0.075,0.021,0.143,0.043,0.223,0.062c3.853,0.908,4.846,4.452,4.731,4.587
			c0.034,0.012,0.201-0.521,0.31-1.332c0.008,0.064,0.025,0.129,0.036,0.196c0.689,0.137,1.229,0.899,1.229,1.861
			C122.315,113.312,121.673,114.168,120.883,114.168z"/>
		<path d="M116.519,109.787c-0.848,0-1.536,0.692-1.536,1.539c0,0.847,0.688,1.538,1.536,1.538
			c0.851,0,1.541-0.691,1.541-1.538C118.06,110.479,117.37,109.789,116.519,109.787z"/>
		<path d="M111.302,111.326c0-0.847-0.691-1.538-1.54-1.539c-0.85,0-1.539,0.692-1.539,1.539
			c0,0.847,0.689,1.538,1.539,1.538C110.611,112.864,111.302,112.173,111.302,111.326z"/>
		<path d="M115.209,116.142c-0.488,0.334-1.244,0.525-2.067,0.525c-0.825,0-1.582-0.191-2.074-0.525
			c-0.229-0.153-0.534-0.125-0.731,0.066c-0.197,0.193-0.23,0.5-0.079,0.73c0.515,0.791,1.621,1.28,2.882,1.28
			c1.265,0,2.368-0.49,2.879-1.282c0.153-0.229,0.119-0.535-0.079-0.729C115.745,116.016,115.439,115.989,115.209,116.142z"/>
		<path d="M162.244,127.178l-0.279,0.604c-0.515-0.85-1.238-2.144-2.049-3.593
			c-2.281-4.089-5.408-9.691-8.646-14.061l-0.066-0.084c-3.22-3.983-6.795-5.922-10.935-5.922c-1.35,0-2.766,0.218-4.207,0.642
			c-4.897,1.447-5.652,4.541-5.749,5.8c-0.19,2.431,1.676,7,6.683,9.367l0.004,3.624c2.482-0.667,5.532-2.002,5.778-3.994
			c0.201-1.648-0.648-3.233-2.151-3.949c-4.462-2.117-5.276-3.975-5.204-4.649c0.312-3.008,6.626-4.079,11.763,2.26
			c3.031,4.099,6.05,9.509,8.256,13.463c0.716,1.279,1.332,2.388,1.849,3.261l-14.663,31.639c-1.445-0.391-2.706-0.566-3.982-0.566
			c-0.795,0-1.524,0.068-2.236,0.131c-0.78,0.07-1.585,0.142-2.621,0.142c-0.687,0-1.402-0.03-2.189-0.095
			c-4.671-0.381-12.165-4.027-15.592-5.966c-1.693-1.244-1.85-2.049-1.537-3.703h-5.179c-0.283,2.443,0.137,5.285,3.826,7.939
			l0.113,0.083l0.118,0.067c1.099,0.624,10.924,6.121,17.831,6.688c0.928,0.075,1.781,0.111,2.609,0.111
			c1.267,0,2.232-0.088,3.088-0.163c0.646-0.06,1.203-0.107,1.77-0.107c0.927,0,2.106,0.116,4.44,0.971l0.5,0.199l-0.266,0.562
			l12.748,5.927l18.921-40.701L162.244,127.178z"/>
		<path d="M134.615,141.698v-19.382l-1.379-0.966c-1.475-0.875-2.714-1.949-3.705-3.108v17.859H96.652V92.98h32.879
			v12.003c1.044-0.873,2.45-1.668,4.351-2.227c0.245-0.073,0.489-0.139,0.733-0.2V87.383c0-4.045-3.278-7.321-7.322-7.321H98.892
			c-4.043,0-7.32,3.276-7.32,7.321v54.315c0,4.039,3.277,7.32,7.32,7.32h28.402C131.337,149.019,134.615,145.737,134.615,141.698z
			 M124.706,86.814c0.866,0,1.57,0.702,1.57,1.57s-0.704,1.569-1.57,1.569c-0.867,0-1.57-0.701-1.57-1.569
			S123.839,86.814,124.706,86.814z M106.299,87.108h13.588v2.564h-13.588V87.108z M113.092,143.378c-1.511,0-2.733-1.221-2.733-2.73
			c0-1.511,1.223-2.733,2.733-2.733c1.509,0,2.734,1.223,2.734,2.733C115.826,142.157,114.601,143.378,113.092,143.378z"/>
	</g>
</g>
</svg>
