<?xml version="1.0" encoding="utf-8"?>
<!-- Generator: Adobe Illustrator 16.0.0, SVG Export Plug-In . SVG Version: 6.00 Build 0)  -->
<!DOCTYPE svg PUBLIC "-//W3C//DTD SVG 1.1//EN" "http://www.w3.org/Graphics/SVG/1.1/DTD/svg11.dtd">
<svg version="1.1" id="Layer_1" xmlns="http://www.w3.org/2000/svg" xmlns:xlink="http://www.w3.org/1999/xlink" x="0px" y="0px"
	 width="105px" height="70px" viewBox="0 0 105 70" enable-background="new 0 0 105 70" xml:space="preserve">
<g>
	<g>
		<g>
			<path fill="#EC1A3B" d="M41.907,37.555c-0.208,0.734-0.512,1.331-1.026,1.793c-0.562,0.546-1.361,1.004-2.337,1.173
				c-0.466,0.089-0.802,0.134-1.337,0.134c-3.534,0-5.341-2.466-5.341-5.755c0-3.291,1.724-5.913,5.258-5.913
				c1.208,0,2.126,0.25,2.908,0.715c0.873,0.516,1.517,1.314,1.798,1.725l2.328-1.124c-1.444-2.174-3.717-3.075-6.65-3.075
				c-5.104,0-8.319,2.877-8.319,7.644c0,4.568,2.792,7.586,8.065,7.586c3.54,0,7.053-1.468,7.452-4.902H41.907z"/>
			<g>
				<g>
					<g>
						<path fill="#EC1A3B" d="M52.517,42.617c-4.332,0-6.717-2.055-6.717-5.785c0-3.677,2.448-5.787,6.717-5.787
							c4.331,0,6.717,2.055,6.717,5.787C59.233,40.562,56.848,42.617,52.517,42.617L52.517,42.617z M52.517,32.629
							c-2.656,0-4.374,1.649-4.374,4.203s1.717,4.203,4.374,4.203c2.657,0,4.371-1.649,4.371-4.203S55.174,32.629,52.517,32.629
							L52.517,32.629z"/>
					</g>
					<g>
						<path fill="#EC1A3B" d="M64.178,42.215h-2.217v-9.184h-2.773v-1.583h2.773v-0.562c0-2.92,1.201-4.222,3.902-4.222
							c0.627,0,1.351,0.048,1.933,0.128l0.063,0.009v1.588l-0.085-0.015c-0.265-0.047-0.791-0.126-1.361-0.126
							c-1.609,0-2.235,0.65-2.235,2.318v0.881h3.405v1.583h-3.405V42.215L64.178,42.215z"/>
					</g>
				</g>
				<g>
					<g>
						<path fill="#EC1A3B" d="M90.702,29.053h-2.217v-2.26h2.217V29.053L90.702,29.053z"/>
					</g>
					<g>
						<path fill="#EC1A3B" d="M90.702,42.215h-2.217v-9.769l2.118-0.998h0.099V42.215L90.702,42.215z"/>
					</g>
				</g>
				<g>
					<g>
						<path fill="#EC1A3B" d="M71.646,29.053H69.43v-2.26h2.217V29.053L71.646,29.053z"/>
					</g>
					<g>
						<path fill="#EC1A3B" d="M71.646,42.215H69.43v-9.749l2.217-1.052V42.215L71.646,42.215z"/>
					</g>
				</g>
				<g>
					<g>
						<path fill="#EC1A3B" d="M98.038,42.617c-2.748,0-4.607-0.861-5.235-2.424l-0.025-0.062l2.14-1.016l0.016,0.094
							c0.211,1.229,1.304,1.826,3.339,1.826c2.191,0,3.399-0.628,3.399-1.77c0-1.012-1.568-1.258-3.385-1.544
							c-2.441-0.386-5.21-0.821-5.21-3.28c0-2.158,1.91-3.396,5.235-3.396c1.786,0,4.094,0.349,4.931,2.009l0.033,0.066
							l-1.949,0.924l-0.028-0.073c-0.35-0.916-1.271-1.343-2.9-1.343c-1.855,0-3.102,0.617-3.102,1.536
							c0,0.707,0.68,1.148,2.205,1.433l3.514,0.657c2.074,0.396,3,1.278,3,2.864C104.015,41.472,102.06,42.617,98.038,42.617
							L98.038,42.617z"/>
					</g>
				</g>
				<g>
					<path fill="#EC1A3B" d="M79.395,42.617c-3.419,0-5.998-2.486-5.998-5.785s2.579-5.787,5.998-5.787
						c1.946,0,3.445,0.555,4.583,1.694v-4.951l2.117-0.996h0.103v12.854c0,0.69,0.036,1.538,0.084,2.494l0.002,0.074H84.07
						l-0.008-0.064c-0.038-0.403-0.075-0.837-0.083-1.324C82.898,41.967,81.237,42.617,79.395,42.617L79.395,42.617z M79.86,32.629
						c-2.502,0-4.119,1.649-4.119,4.203s1.617,4.203,4.119,4.203s4.117-1.649,4.117-4.203S82.362,32.629,79.86,32.629L79.86,32.629z
						"/>
				</g>
			</g>
		</g>
	</g>
	<g>
		
			<radialGradient id="SVGID_1_" cx="-137.5361" cy="-46.9497" r="32.6142" gradientTransform="matrix(0.9898 -0.1421 0.1421 0.9898 181.584 59.3276)" gradientUnits="userSpaceOnUse">
			<stop  offset="0.3766" style="stop-color:#F399C0"/>
			<stop  offset="0.5177" style="stop-color:#EF5AA3"/>
			<stop  offset="0.5951" style="stop-color:#ED3C95"/>
			<stop  offset="0.8098" style="stop-color:#EC1B2E"/>
		</radialGradient>
		<path fill="url(#SVGID_1_)" d="M44.311,23.667c-0.135-0.125,0.085-0.979,0.34-1.814c1.466-4.535,8.874-12.46,10.045-13.047
			c0.526-0.265-1.878,3.8-4.266,8.083c-1.371,2.458-5.833,6.97-6.109,6.773C44.318,23.658,44.313,23.666,44.311,23.667
			L44.311,23.667z"/>
		<g>
			<g>
				
					<radialGradient id="SVGID_2_" cx="-410.2842" cy="-1211.4985" r="34.7171" gradientTransform="matrix(0.7798 -0.6261 0.6261 0.7798 1114.4873 725.9839)" gradientUnits="userSpaceOnUse">
					<stop  offset="0.3305" style="stop-color:#FFF8AD"/>
					<stop  offset="0.5523" style="stop-color:#FFE600"/>
					<stop  offset="0.7531" style="stop-color:#FFCA05"/>
				</radialGradient>
				<path fill="url(#SVGID_2_)" d="M37.209,68.878c-0.156,0.128-0.421-0.796-0.53-1.479c-1.15-7.248-1.621-17.604,0.385-20.438
					c0.032-0.044,0.062-0.074,0.096-0.103c0.109-0.088,0.246-0.104,0.366-0.042c0.15,0.077,0.817,0.41,1.175,4.761
					c0.207,2.501,0.112,4.798-0.043,6.644C38.328,62.167,37.738,68.455,37.209,68.878z"/>
				<radialGradient id="SVGID_3_" cx="35.7876" cy="35.7749" r="34.7234" gradientUnits="userSpaceOnUse">
					<stop  offset="0.3305" style="stop-color:#FFF8AD"/>
					<stop  offset="0.5523" style="stop-color:#FFE600"/>
					<stop  offset="0.7531" style="stop-color:#FFCA05"/>
				</radialGradient>
				<path fill="url(#SVGID_3_)" d="M13.362,48.2c-0.265-0.019,0.206-0.49,0.206-0.49c4.787-4.354,9.006-6.034,11.24-6.034
					c0.186,0,0.35,0.014,0.486,0.044c0.208,0.044,0.352,0.12,0.426,0.223c0.243,0.101,0.287,0.284,0.294,0.365
					c0.024,0.263,0.729,0.763-4.598,3.323C19.631,46.488,13.961,48.243,13.362,48.2z"/>
				
					<radialGradient id="SVGID_4_" cx="142.3359" cy="68.208" r="34.7237" gradientTransform="matrix(0.9966 0.0822 -0.0822 0.9966 -100.5801 -46.1992)" gradientUnits="userSpaceOnUse">
					<stop  offset="0.3305" style="stop-color:#FFF8AD"/>
					<stop  offset="0.5523" style="stop-color:#FFE600"/>
					<stop  offset="0.7531" style="stop-color:#FFCA05"/>
				</radialGradient>
				<path fill="url(#SVGID_4_)" d="M27.942,28.882C27.941,28.882,27.941,28.882,27.942,28.882
					c-4.943-0.409-10.255-6.782-13.429-10.591c-0.822-0.986-2.133-2.476-2.039-2.65c0.032-0.061,0.134-0.084,0.333-0.04
					c0.872,0.194,6.167,2.943,9.329,5.455c0.075,0.06,7.406,6.065,6.903,7.507c-0.055,0.155-0.205,0.34-0.611,0.34
					C28.269,28.902,28.104,28.896,27.942,28.882L27.942,28.882z"/>
				<radialGradient id="SVGID_5_" cx="35.7476" cy="35.1646" r="34.7213" gradientUnits="userSpaceOnUse">
					<stop  offset="0.3305" style="stop-color:#FFF8AD"/>
					<stop  offset="0.5523" style="stop-color:#FFE600"/>
					<stop  offset="0.7531" style="stop-color:#FFCA05"/>
				</radialGradient>
				<path fill="url(#SVGID_5_)" d="M17.099,36.846c-1.595,0-4.644-0.174-6.126-0.223c-2.786-0.096-10.382-0.707-9.971-1.208
					c0.343-0.419,7.837-2.067,14.504-2.067c2.562,0,4.952,0.109,7.104,0.324c3.094,0.311,3.759,0.994,3.888,1.195
					c0.067,0.104,0.083,0.227,0.043,0.346c-0.115,0.355-0.676,0.584-0.74,0.609C24.022,36.521,21.258,36.846,17.099,36.846
					L17.099,36.846z"/>
				<radialGradient id="SVGID_6_" cx="36.8984" cy="36.6025" r="34.7232" gradientUnits="userSpaceOnUse">
					<stop  offset="0.3305" style="stop-color:#FFF8AD"/>
					<stop  offset="0.5523" style="stop-color:#FFE600"/>
					<stop  offset="0.7531" style="stop-color:#FFCA05"/>
				</radialGradient>
				<path fill="url(#SVGID_6_)" d="M50.349,57.7c-2.213-1.77-7.329-9.223-8.099-12.651c-0.116-0.516,0.067-0.679,0.109-0.729
					c0.066-0.078,0.159-0.124,0.26-0.13c0.002,0,0.004,0,0.007,0c0.162,0,0.419,0.026,2.01,1.761
					c2.176,2.372,4.045,5.708,4.965,7.486c0.781,1.51,2.119,4.477,1.961,5.039C51.505,58.684,50.349,57.7,50.349,57.7z"/>
				<g>
					
						<radialGradient id="SVGID_7_" cx="314.9873" cy="99.7988" r="34.7179" gradientTransform="matrix(0.9807 0.1957 -0.1957 0.9807 -254.2349 -126.0049)" gradientUnits="userSpaceOnUse">
						<stop  offset="0.3305" style="stop-color:#FFF8AD"/>
						<stop  offset="0.5523" style="stop-color:#FFE600"/>
						<stop  offset="0.7531" style="stop-color:#FFCA05"/>
					</radialGradient>
					<path fill="url(#SVGID_7_)" d="M39.017,24.375L39.017,24.375c-0.062-0.012-0.119-0.041-0.168-0.084
						c-0.109-0.098-0.31-0.279-0.29-3.003c0.047-6.183,3.141-14.635,3.858-15.475c0.088-0.102,0.139-0.204,0.201-0.191
						c0.147,0.029,0.152,0.139,0.172,0.357c0.619,8.56-1.42,15.761-3.048,17.923C39.471,24.263,39.234,24.417,39.017,24.375
						L39.017,24.375z"/>
				</g>
				<g>
					
						<radialGradient id="SVGID_8_" cx="241.8584" cy="146.9365" r="34.7203" gradientTransform="matrix(0.9885 0.1514 -0.1514 0.9885 -180.9551 -149.3066)" gradientUnits="userSpaceOnUse">
						<stop  offset="0.3305" style="stop-color:#FFF8AD"/>
						<stop  offset="0.5523" style="stop-color:#FFE600"/>
						<stop  offset="0.7531" style="stop-color:#FFCA05"/>
					</radialGradient>
					<path fill="url(#SVGID_8_)" d="M31.679,23.823l-0.1-0.051c-0.116-0.06-2.877-1.538-5.943-8.829
						c-2.161-5.141-3.142-8.355-3.666-10.191c-0.614-2.148-0.881-3.406-0.6-3.634c0.062-0.05,0.302,0.211,0.355,0.272
						c0.279,0.329,1.226,1.285,6,9.919c3.985,7.208,4.824,10.694,4.811,11.43c-0.01,0.635-0.727,1.017-0.758,1.033L31.679,23.823
						L31.679,23.823z"/>
				</g>
			</g>
			
				<radialGradient id="SVGID_9_" cx="831.5137" cy="61.3633" r="34.7157" gradientTransform="matrix(0.8145 0.5802 -0.5802 0.8145 -604.4307 -497.1562)" gradientUnits="userSpaceOnUse">
				<stop  offset="0.3305" style="stop-color:#FFF8AD"/>
				<stop  offset="0.5523" style="stop-color:#FFE600"/>
				<stop  offset="0.7531" style="stop-color:#FFCA05"/>
			</radialGradient>
			<path fill="url(#SVGID_9_)" d="M19.885,58.205c2.147-3.477,3.356-6.894,7.492-11.599c2.039-2.317,3.87-2.838,4.18-2.802
				c0.077,0.008,0.147,0.033,0.209,0.076c0.38,0.273,0.221,1.02,0.193,1.103c-1.365,4.076-5.115,9.147-7.414,11.893
				c-3.217,3.841-7.419,7.786-7.567,7.312C16.83,63.715,18.688,60.143,19.885,58.205z"/>
		</g>
	</g>
</g>
</svg>
