<?xml version="1.0" encoding="utf-8"?>
<!-- Generator: Adobe Illustrator 16.0.0, SVG Export Plug-In . SVG Version: 6.00 Build 0)  -->
<!DOCTYPE svg PUBLIC "-//W3C//DTD SVG 1.1//EN" "http://www.w3.org/Graphics/SVG/1.1/DTD/svg11.dtd">
<svg version="1.1" id="Calque_1" xmlns="http://www.w3.org/2000/svg" xmlns:xlink="http://www.w3.org/1999/xlink" x="0px" y="0px"
	 width="55.333px" height="83.833px" viewBox="0 0 55.333 83.833" enable-background="new 0 0 55.333 83.833" xml:space="preserve">
<path d="M39.895,82.672H15.724c-3.833,0-7.209-2.978-7.69-6.777L1.415,26.877C1.17,24.946,1.74,23.03,2.982,21.621
	C4.229,20.209,6.057,19.4,8.004,19.4h39.613c1.95,0,3.779,0.809,5.021,2.221s1.813,3.328,1.565,5.259l-6.619,49.015
	C47.104,79.694,43.728,82.672,39.895,82.672 M8.004,24.973c-0.357,0-0.65,0.115-0.841,0.33c-0.19,0.217-0.269,0.52-0.224,0.873
	l6.619,49.019c0.127,0.997,1.158,1.903,2.165,1.903h24.171c1.007,0,2.038-0.906,2.165-1.903l6.619-49.019
	c0.045-0.356-0.033-0.656-0.22-0.873c-0.194-0.215-0.484-0.33-0.842-0.33H8.004z"/>
<path d="M50.459,8.539h-17.83c0.127-0.465,0.211-0.943,0.211-1.451c0-2.932-2.249-5.308-5.028-5.308
	c-2.781,0-5.036,2.376-5.036,5.308c0,0.508,0.091,0.986,0.211,1.451H5.156c-1.39,0-2.519,1.191-2.519,2.654
	c0,1.469,1.129,2.654,2.519,2.654h45.303c1.395,0,2.519-1.186,2.519-2.654C52.978,9.73,51.854,8.539,50.459,8.539"/>
<path d="M19.795,72.102c-0.774,0-1.442-0.58-1.536-1.369l-4.346-37.345c-0.098-0.849,0.511-1.617,1.359-1.717
	c0.834-0.087,1.617,0.508,1.718,1.36l4.346,37.345c0.097,0.85-0.51,1.616-1.36,1.717C19.916,72.099,19.854,72.102,19.795,72.102"/>
<path d="M36.023,72.102c-0.061,0-0.121-0.003-0.182-0.009c-0.85-0.101-1.457-0.867-1.36-1.717l4.347-37.345
	c0.103-0.853,0.889-1.438,1.717-1.36c0.85,0.1,1.457,0.868,1.36,1.717l-4.348,37.345C37.465,71.521,36.797,72.102,36.023,72.102"/>
<path d="M27.819,72.102c-0.854,0-1.548-0.691-1.548-1.547V33.21c0-0.855,0.693-1.548,1.548-1.548
	c0.855,0,1.549,0.692,1.549,1.548v37.345C29.368,71.41,28.675,72.102,27.819,72.102"/>
</svg>
