<?xml version="1.0" encoding="utf-8"?>
<!-- Generator: Adobe Illustrator 16.0.0, SVG Export Plug-In . SVG Version: 6.00 Build 0)  -->
<!DOCTYPE svg PUBLIC "-//W3C//DTD SVG 1.1//EN" "http://www.w3.org/Graphics/SVG/1.1/DTD/svg11.dtd">
<svg version="1.1" id="Calque_1" xmlns="http://www.w3.org/2000/svg" xmlns:xlink="http://www.w3.org/1999/xlink" x="0px" y="0px"
	 width="88.833px" height="81.832px" viewBox="0 0 88.833 81.832" enable-background="new 0 0 88.833 81.832" xml:space="preserve">
<path d="M78.125,32.647c-0.1-0.023-0.209-0.065-0.31-0.092v43.588H41.828V44.18c0-1.438-1.164-2.602-2.602-2.602
	H23.297c-1.437,0-2.602,1.164-2.602,2.602v31.964h-8.928V32.404c-1.319,0.402-1.221,0.627-2.576,0.627
	c-1.001,0-1.421-0.099-2.363-0.301v44.884c0,1.916,1.553,3.469,3.469,3.469h68.986c1.917,0,3.47-1.553,3.47-3.469V32.61
	c-1.086,0.273-0.997,0.389-2.166,0.389C79.559,32.999,78.149,32.654,78.125,32.647"/>
<path d="M65.814,59.196c1.438,0,2.602-1.165,2.602-2.603V44.179c0-1.437-1.164-2.602-2.602-2.602H50.803
	c-1.437,0-2.602,1.165-2.602,2.602v12.415c0,1.438,1.165,2.603,2.602,2.603H65.814z M51.405,44.782h13.807v11.21H51.405V44.782z"/>
<path d="M79.218,6.271h0.066c0-2.979-2.414-5.393-5.392-5.393H15.29c-2.978,0-5.392,2.414-5.392,5.393l-8.86,12.864
	c0,4.279,3.099,7.823,7.176,8.551C8.71,27.783,9.22,27.84,9.745,27.84c0.991,0,1.947-0.178,2.84-0.487
	c0.032-0.011,0.071-0.027,0.106-0.037c0.275-0.101,0.536-0.21,0.798-0.336c0.036-0.016,0.073-0.034,0.112-0.055
	c0.271-0.134,0.532-0.277,0.791-0.438c0.01-0.01,0.024-0.019,0.034-0.025c1.106-0.71,2.041-1.66,2.729-2.782
	c0.004-0.007,0.009-0.012,0.014-0.024c0.169-0.276,0.325-0.562,0.462-0.862c0.226-0.482,0.4-0.993,0.536-1.518
	c0,0,0-0.002,0.001-0.004c0.084-0.324,0.149-0.654,0.195-0.992c0.004-0.022,0.009-0.044,0.012-0.066
	c0.044-0.354,0.073-0.711,0.073-1.076c0,0.466,0.057,0.913,0.136,1.355c0.656,4.156,4.224,7.349,8.566,7.349
	c4.342,0,7.909-3.192,8.563-7.351c0.079-0.441,0.137-0.888,0.137-1.354c0,0.466,0.057,0.914,0.137,1.355
	c0.041,0.266,0.094,0.525,0.159,0.783c0.958,3.765,4.344,6.565,8.411,6.565c4.342,0,7.911-3.192,8.566-7.349
	c0.079-0.442,0.137-0.89,0.137-1.355c0,0.466,0.057,0.914,0.137,1.355c0.041,0.266,0.094,0.525,0.159,0.783
	c0.958,3.765,4.344,6.565,8.411,6.565c4.339,0,7.907-3.192,8.563-7.349c0.079-0.442,0.136-0.89,0.136-1.355
	c0,0.369,0.025,0.732,0.071,1.09c0.143,1.129,0.501,2.191,1.032,3.146c0.034,0.056,0.07,0.11,0.103,0.164
	c0.131,0.221,0.266,0.435,0.414,0.641c0.044,0.067,0.1,0.133,0.149,0.198c0.147,0.198,0.305,0.389,0.471,0.571
	c0.044,0.054,0.093,0.103,0.142,0.157c0.203,0.214,0.417,0.42,0.641,0.613c0.01,0.012,0.023,0.023,0.035,0.032
	c0.619,0.532,1.333,0.948,2.091,1.289c0.171,0.077,0.329,0.175,0.506,0.242c0.01,0.002,0.017,0.002,0.027,0.009
	c0.319,0.115,0.641,0.217,0.971,0.294h0.003c0.659,0.16,1.345,0.258,2.047,0.258c4.803,0,8.707-3.901,8.707-8.704L79.218,6.271z"/>
</svg>
