<?xml version="1.0" encoding="utf-8"?>
<!-- Generator: Adobe Illustrator 16.0.0, SVG Export Plug-In . SVG Version: 6.00 Build 0)  -->
<!DOCTYPE svg PUBLIC "-//W3C//DTD SVG 1.1//EN" "http://www.w3.org/Graphics/SVG/1.1/DTD/svg11.dtd">
<svg version="1.1" id="Layer_1" xmlns="http://www.w3.org/2000/svg" xmlns:xlink="http://www.w3.org/1999/xlink" x="0px" y="0px"
	 width="95.423px" height="80.52px" viewBox="0 0 95.423 80.52" enable-background="new 0 0 95.423 80.52" xml:space="preserve">
<g>
	<defs>
		<rect id="SVGID_1_" x="-42.875" y="-39.941" width="229.645" height="162.073"/>
		<clipPath id="SVGID_2_">
			<use xlink:href="#SVGID_1_"  overflow="visible"/>
		</clipPath>
		<path id="SVGID_3_" d="M37.978,68.577c-1.893,0-3.428,1.533-3.428,3.428c0,1.893,1.535,3.427,3.428,3.427h20.565
			c1.894,0,3.428-1.534,3.428-3.427c0-1.895-1.534-3.428-3.428-3.428H37.978z M11.583,71.951c0,4.726,3.845,8.568,8.569,8.568
			c4.724,0,8.569-3.843,8.569-8.568c0-4.727-3.845-8.569-8.569-8.569C15.428,63.382,11.583,67.225,11.583,71.951 M66.424,71.951
			c0,4.726,3.845,8.568,8.569,8.568c4.724,0,8.568-3.843,8.568-8.568c0-4.727-3.845-8.569-8.568-8.569
			C70.269,63.382,66.424,67.225,66.424,71.951 M37.978,17.164h50.724l-6.855,34.274H37.978V17.164z M37.29,10.309
			c-3.786,0-6.167,3.016-6.167,6.801v34.276c0,3.785,2.381,6.908,6.167,6.908h44.557c3.268,0,6.083-2.334,6.722-5.535l6.854-34.291
			c0.405-2.014-0.116-4.081-1.419-5.671c-1.3-1.587-3.247-2.488-5.302-2.488H37.29z M0.763,1.667c-0.973,1.625-0.443,3.73,1.18,4.7
			l15.47,9.259v39.241c0,1.893,1.534,3.427,3.427,3.427c1.894,0,3.428-1.534,3.428-3.427V13.683c0-1.205-0.633-2.322-1.668-2.94
			L5.462,0.487C4.91,0.157,4.303,0,3.704,0C2.538,0,1.403,0.595,0.763,1.667"/>
			<clipPath id="SVGID_4_">
				<use xlink:href="#SVGID_3_"  overflow="visible"/>
			</clipPath>
			<rect x="-42.875" y="-39.941" clip-path="url(#SVGID_4_)" width="229.645" height="162.073"/>
	</defs>
	
	<path clip-path="url(#SVGID_2_)" d="M94.005,12.797c-1.301-1.587-3.248-2.488-5.302-2.488H37.29
		c-3.786,0-6.167,3.016-6.167,6.801v34.276c0,3.785,2.381,6.908,6.167,6.908h44.558c3.267,0,6.082-2.333,6.722-5.535l6.854-34.291
		C95.827,16.454,95.307,14.387,94.005,12.797 M81.848,51.438h-43.87V17.164h50.725L81.848,51.438z M83.561,71.951
		c0,4.726-3.844,8.568-8.567,8.568c-4.725,0-8.569-3.843-8.569-8.568c0-4.728,3.844-8.569,8.569-8.569
		C79.717,63.382,83.561,67.224,83.561,71.951 M28.721,71.951c0,4.726-3.845,8.568-8.569,8.568s-8.569-3.843-8.569-8.568
		c0-4.728,3.845-8.569,8.569-8.569S28.721,67.224,28.721,71.951 M61.971,72.004c0,1.894-1.534,3.428-3.428,3.428H37.978
		c-1.893,0-3.427-1.534-3.427-3.428s1.534-3.427,3.427-3.427h20.565C60.437,68.577,61.971,70.11,61.971,72.004 M17.413,15.626
		L1.943,6.367c-1.624-0.97-2.153-3.076-1.18-4.7c0.97-1.624,3.072-2.152,4.7-1.18L22.6,10.743c1.035,0.618,1.668,1.735,1.668,2.94
		v41.185c0,1.893-1.534,3.427-3.427,3.427c-1.894,0-3.428-1.534-3.428-3.427V15.626z"/>
</g>

</svg>
