<?xml version="1.0" encoding="UTF-8" standalone="no"?>
<svg width="32px" height="29px" viewBox="0 0 32 29" version="1.1" xmlns="http://www.w3.org/2000/svg" xmlns:xlink="http://www.w3.org/1999/xlink" xmlns:sketch="http://www.bohemiancoding.com/sketch/ns">
    <!-- Generator: Sketch 3.1.1 (8761) - http://www.bohemiancoding.com/sketch -->
    <title>icon-waterproof@1x</title>
    <desc></desc>
    <defs></defs>
    <g id="Page-1" stroke="none" stroke-width="1"  fill-rule="evenodd" >
        <g id="icon-waterproof">
            <path d="M14.7530323,0.517357143 C13.3997419,0.29675 13.1809032,1.6525 13.1809032,1.6525 L10.0562581,20.9105714 C9.83535484,22.2673571 11.1886452,22.4900357 11.1886452,22.4900357 L20.9249032,24.0798571 C22.276129,24.3004643 22.4970323,22.9416071 22.4970323,22.9416071 L25.6196129,3.68560714 C25.8405161,2.32778571 24.4892903,2.10717857 24.4892903,2.10717857 L14.7530323,0.517357143 L14.7530323,0.517357143 Z M20.5470968,2.07921429 C20.6503226,2.09578571 20.7205161,2.19210714 20.7029677,2.29567857 C20.6874839,2.39717857 20.5894194,2.46967857 20.4872258,2.45310714 L18.4381935,2.11753571 C18.336,2.09889286 18.2668387,2.00257143 18.2833548,1.90107143 C18.3019355,1.79646429 18.395871,1.72707143 18.4990968,1.74364286 L20.5470968,2.07921429 L20.5470968,2.07921429 Z M16.1579355,22.6578214 C15.6366452,22.5728929 15.2815484,22.0778214 15.3661935,21.5558214 C15.4529032,21.03175 15.9442581,20.6754643 16.4665806,20.7603929 C16.9765161,20.84325 17.3285161,21.3186429 17.2614194,21.8323571 C17.1623226,22.3377857 16.6699355,22.74275 16.1579355,22.6578214 L16.1579355,22.6578214 Z M13.8456774,2.83632143 C13.8456774,2.83632143 13.9994839,1.89071429 15.0049032,2.05539286 L23.7109677,3.47742857 C23.7109677,3.47742857 24.7163871,3.64107143 24.5522581,4.65192857 L22.0469677,20.0871786 C22.0469677,20.0871786 21.883871,21.0980357 20.8784516,20.9343929 L12.1734194,19.5123571 C12.1734194,19.5123571 11.1659355,19.3487143 11.3310968,18.3368214 L13.8456774,2.83632143 L13.8456774,2.83632143 Z" id="Fill-1" ></path>
            <path d="M6.08825806,16.4311071 C5.27483871,16.0675714 1.25316129,13.9671429 0.874322581,13.5021071 C-1.19845161,10.9677143 2.176,8.18992857 4.24670968,10.7253571 C4.6276129,11.1924643 6.01806452,15.7216429 6.08825806,16.4311071" id="Fill-2" ></path>
            <path d="M24.8454194,16.9189286 C25.2449032,16.1121071 27.5086452,12.1328929 27.9907097,11.78075 C30.6312258,9.84292857 33.3212903,13.5383571 30.683871,15.4751429 C30.1987097,15.82625 25.5649032,16.9044286 24.8454194,16.9189286" id="Fill-3" ></path>
            <path d="M7.50348387,11.3053571 C7.08129032,10.5202857 5.17367742,6.394 5.15406452,5.79328571 C5.05703226,2.51628571 9.41832258,2.38267857 9.51741935,5.65967857 C9.53496774,6.26246429 7.87716129,10.6984286 7.50348387,11.3053571" id="Fill-4" ></path>
            <path d="M27.9886452,24.3853929 C27.3496774,24.0581071 26.6900645,23.7183929 26.084129,23.7121786 L26.084129,23.7101071 C26.08,23.7101071 26.0779355,23.7121786 26.0748387,23.7121786 C26.0717419,23.7121786 26.0686452,23.7101071 26.0665806,23.7101071 L26.0665806,23.7121786 C25.4596129,23.7183929 24.7989677,24.0581071 24.16,24.3853929 C23.5860645,24.6826429 22.9925161,24.9881786 22.5207742,24.99025 C22.0490323,24.9881786 21.4544516,24.6826429 20.8805161,24.3853929 C20.2405161,24.0581071 19.5819355,23.7183929 18.9749677,23.7121786 L18.9749677,23.7101071 C18.971871,23.7101071 18.9687742,23.7121786 18.9687742,23.7121786 C18.9636129,23.7121786 18.9605161,23.7101071 18.9574194,23.7101071 L18.9574194,23.7121786 C18.3494194,23.7183929 17.6908387,24.0581071 17.051871,24.3853929 C16.4748387,24.6826429 15.8781935,24.99025 15.4054194,24.99025 C14.9326452,24.99025 14.336,24.6826429 13.7589677,24.3853929 C13.12,24.0581071 12.4583226,23.7183929 11.8534194,23.7121786 L11.8534194,23.7101071 C11.8503226,23.7101071 11.8482581,23.7121786 11.8461935,23.7121786 C11.8420645,23.7121786 11.84,23.7101071 11.835871,23.7101071 L11.835871,23.7121786 C11.2299355,23.7183929 10.5692903,24.0581071 9.93032258,24.3853929 C9.3563871,24.6826429 8.76077419,24.9881786 8.29006452,24.99025 C7.81832258,24.9881786 7.22374194,24.6826429 6.64980645,24.3853929 C6.01083871,24.0581071 5.35019355,23.7183929 4.74322581,23.7121786 L4.74322581,23.7101071 C4.74116129,23.7101071 4.73909677,23.7121786 4.736,23.7121786 C4.73290323,23.7121786 4.73083871,23.7101071 4.72774194,23.7101071 L4.72774194,23.7121786 C4.12077419,23.7183929 3.46012903,24.0581071 2.82116129,24.3853929 C2.24412903,24.6826429 1.64645161,24.99025 1.17264516,24.99025 L1.17264516,25.3662143 C1.73729032,25.3662143 2.34632258,25.0513571 2.99251613,24.7209643 C3.59329032,24.4092143 4.21677419,24.0902143 4.736,24.0860714 C5.25522581,24.0902143 5.8756129,24.4092143 6.47845161,24.7209643 C7.11845161,25.0492857 7.72232258,25.3589643 8.28283871,25.3662143 L8.29006452,25.3662143 L8.29832258,25.3662143 C8.85780645,25.3589643 9.46167742,25.0492857 10.1016774,24.7209643 C10.7034839,24.4092143 11.3259355,24.0902143 11.8461935,24.0860714 C12.3643871,24.0902143 12.9858065,24.4092143 13.5876129,24.7209643 C14.2317419,25.0513571 14.8407742,25.3641429 15.4033548,25.3662143 L15.4074839,25.3662143 C15.9690323,25.3641429 16.5780645,25.0513571 17.2232258,24.7209643 C17.8260645,24.4092143 18.4464516,24.0902143 18.9667097,24.0860714 C19.4849032,24.0902143 20.1073548,24.4092143 20.7091613,24.7209643 C21.3501935,25.0492857 21.9530323,25.3589643 22.5135484,25.3662143 L22.5207742,25.3662143 L22.5290323,25.3662143 C23.0874839,25.3589643 23.6923871,25.0492857 24.3313548,24.7209643 C24.932129,24.4092143 25.5556129,24.0902143 26.0748387,24.0860714 C26.5940645,24.0902143 27.2165161,24.4092143 27.8183226,24.7209643 C28.4634839,25.0513571 29.0735484,25.3662143 29.6371613,25.3662143 L29.6371613,24.99025 C29.1643871,24.99025 28.5667097,24.6826429 27.9886452,24.3853929" id="Fill-5" ></path>
            <path d="M15.4188387,25.6479286 L15.4033548,25.6479286 C14.7736774,25.6437857 14.1357419,25.3154643 13.4585806,24.9705714 C12.8877419,24.6743571 12.2972903,24.3708929 11.8451613,24.3677857 C11.392,24.3708929 10.8015484,24.6743571 10.2286452,24.9705714 C9.65780645,25.2636786 9.11380645,25.5422857 8.57806452,25.6230714 L8.57806452,25.6479286 L8.00309677,25.6479286 L8.00309677,25.6230714 C7.46632258,25.5422857 6.92232258,25.2636786 6.35148387,24.9705714 C5.78064516,24.6743571 5.18812903,24.3708929 4.736,24.3677857 C4.28283871,24.3708929 3.69032258,24.6743571 3.12051613,24.9705714 C2.4443871,25.3175357 1.8043871,25.6479286 1.17367742,25.6479286 L0.893935484,25.6479286 L0.893935484,24.7116429 L1.17367742,24.7116429 C1.57935484,24.7116429 2.14606452,24.4175 2.69419355,24.1368214 C3.27122581,23.8395714 3.86374194,23.5361071 4.448,23.45325 L4.448,23.4304643 L5.02296774,23.4304643 L5.02296774,23.45325 C5.60825806,23.5361071 6.20077419,23.8395714 6.77677419,24.13475 C7.32180645,24.4154286 7.8843871,24.7075 8.28903226,24.7116429 C8.69574194,24.7075 9.25832258,24.4154286 9.80335484,24.13475 C10.3793548,23.8395714 10.9729032,23.5361071 11.5571613,23.45325 L11.5571613,23.4304643 L12.132129,23.4304643 L12.132129,23.45325 C12.7163871,23.5361071 13.3099355,23.8395714 13.8859355,24.13475 C14.4340645,24.4175 15.0007742,24.7095714 15.4054194,24.7116429 C15.8110968,24.7095714 16.3757419,24.4175 16.9249032,24.1368214 C17.5009032,23.8395714 18.0934194,23.5361071 18.6787097,23.45325 L18.6787097,23.4304643 L19.2526452,23.4304643 L19.2526452,23.45325 C19.8379355,23.5361071 20.4314839,23.8395714 21.0074839,24.13475 C21.5525161,24.4154286 22.1150968,24.7075 22.5207742,24.7116429 C22.9254194,24.7075 23.4890323,24.4154286 24.0330323,24.13475 C24.6100645,23.8395714 25.2025806,23.5361071 25.7868387,23.45325 L25.7868387,23.4304643 L26.3618065,23.4304643 L26.3618065,23.45325 C26.9470968,23.5361071 27.5406452,23.8395714 28.1156129,24.13475 C28.6647742,24.4175 29.2325161,24.7116429 29.6381935,24.7116429 L29.915871,24.7116429 L29.915871,25.6479286 L29.6381935,25.6479286 C29.0064516,25.6479286 28.3674839,25.3175357 27.6903226,24.9705714 C27.1184516,24.6743571 26.5269677,24.3708929 26.0748387,24.3677857 C25.6216774,24.3708929 25.0312258,24.6743571 24.4583226,24.9705714 C23.8885161,25.2636786 23.3434839,25.5422857 22.8087742,25.6230714 L22.8087742,25.6479286 L22.2327742,25.6479286 L22.2327742,25.6230714 C21.6970323,25.5422857 21.152,25.2636786 20.5821935,24.9705714 C20.0103226,24.6743571 19.4188387,24.3708929 18.9667097,24.3677857 C18.5135484,24.3708929 17.9220645,24.6743571 17.3501935,24.9705714 C16.6802581,25.3144286 16.0454194,25.6396429 15.419871,25.6479286 L15.4188387,25.6479286" id="Fill-6" ></path>
            <path d="M26.084129,25.3154643 L26.0665806,25.3154643 C25.4596129,25.3216786 24.7989677,25.6624286 24.16,25.9897143 C23.5860645,26.2848929 22.9925161,26.5925 22.5207742,26.5945714 C22.0469677,26.5925 21.4544516,26.2848929 20.8805161,25.9897143 C20.2405161,25.6624286 19.5819355,25.3216786 18.9749677,25.3154643 L18.9574194,25.3154643 C18.3504516,25.3216786 17.6908387,25.6624286 17.051871,25.9897143 C16.4748387,26.2869643 15.8781935,26.5945714 15.4064516,26.5945714 C14.9326452,26.5945714 14.336,26.2869643 13.7589677,25.9897143 C13.12,25.6624286 12.4593548,25.3216786 11.8534194,25.3154643 L11.835871,25.3154643 C11.2299355,25.3216786 10.5692903,25.6624286 9.93032258,25.9897143 C9.3563871,26.2848929 8.76180645,26.5925 8.29006452,26.5945714 C7.81832258,26.5925 7.22374194,26.2848929 6.64980645,25.9897143 C6.01083871,25.6624286 5.35019355,25.3216786 4.74322581,25.3154643 L4.72774194,25.3154643 C4.12077419,25.3216786 3.46012903,25.6624286 2.82116129,25.9897143 C2.24516129,26.2869643 1.64645161,26.5945714 1.17264516,26.5945714 L1.17264516,26.9705357 C1.73729032,26.9705357 2.34632258,26.6567143 2.99251613,26.3252857 C3.59329032,26.0156071 4.21677419,25.6945357 4.736,25.6903929 C5.25522581,25.6945357 5.8756129,26.0156071 6.47948387,26.3252857 C7.11845161,26.6536071 7.72232258,26.9643214 8.28283871,26.9705357 L8.29006452,26.9705357 L8.29832258,26.9705357 C8.85780645,26.9643214 9.46167742,26.6536071 10.1016774,26.3252857 C10.7024516,26.0156071 11.3259355,25.6945357 11.8461935,25.6903929 C12.3643871,25.6945357 12.9858065,26.0156071 13.5876129,26.3252857 C14.2317419,26.6567143 14.8407742,26.9684643 15.4033548,26.9705357 L15.4064516,26.9705357 L15.4085161,26.9705357 C15.9690323,26.9684643 16.5780645,26.6567143 17.2232258,26.3252857 C17.8260645,26.0156071 18.4464516,25.6945357 18.9656774,25.6903929 C19.4849032,25.6945357 20.1073548,26.0156071 20.7091613,26.3252857 C21.3501935,26.6536071 21.9530323,26.9643214 22.5135484,26.9705357 L22.5207742,26.9705357 L22.528,26.9705357 C23.0874839,26.9643214 23.6923871,26.6536071 24.3313548,26.3252857 C24.9331613,26.0156071 25.5556129,25.6945357 26.075871,25.6903929 C26.5940645,25.6945357 27.2154839,26.0156071 27.8172903,26.3252857 C28.4634839,26.6567143 29.0735484,26.9705357 29.6371613,26.9705357 L29.6371613,26.5945714 C29.1643871,26.5945714 28.5677419,26.2869643 27.9886452,25.9897143 C27.3496774,25.6624286 26.6900645,25.3216786 26.084129,25.3154643" id="Fill-7" ></path>
            <path d="M29.915871,27.25225 L29.6371613,27.25225 C29.0074839,27.25225 28.3674839,26.9218571 27.6903226,26.5738571 C27.1184516,26.2786786 26.5269677,25.9752143 26.0748387,25.9710714 C25.6216774,25.9752143 25.0312258,26.2786786 24.4583226,26.5738571 C23.8885161,26.868 23.3434839,27.1466071 22.8077419,27.2273929 L22.8077419,27.25225 L22.2327742,27.25225 L22.2327742,27.2273929 C21.6970323,27.1466071 21.152,26.868 20.5821935,26.5738571 C20.0092903,26.2786786 19.4188387,25.9752143 18.9667097,25.9710714 C18.5135484,25.9752143 17.9220645,26.2786786 17.3501935,26.5738571 C16.7752258,26.8690357 16.2260645,27.1528214 15.6861935,27.2294643 L15.6861935,27.25225 L15.1236129,27.25225 L15.1236129,27.2294643 C14.5847742,27.1528214 14.0356129,26.8690357 13.4596129,26.5738571 C12.8877419,26.2786786 12.2972903,25.9752143 11.8461935,25.9710714 C11.392,25.9752143 10.8015484,26.2786786 10.2296774,26.5738571 C9.65780645,26.868 9.11380645,27.1466071 8.57806452,27.2273929 L8.57806452,27.25225 L8.00309677,27.25225 L8.00309677,27.2273929 C7.46632258,27.1466071 6.92232258,26.868 6.35148387,26.5738571 C5.7796129,26.2786786 5.18812903,25.9752143 4.736,25.9710714 C4.28283871,25.9752143 3.69032258,26.2786786 3.12051613,26.5738571 C2.44232258,26.9218571 1.8043871,27.25225 1.17367742,27.25225 L0.893935484,27.25225 L0.893935484,26.3149286 L1.17367742,26.3149286 C1.57935484,26.3149286 2.14606452,26.0218214 2.69419355,25.7411429 C3.27122581,25.4449286 3.86374194,25.1404286 4.44903226,25.0565357 L4.44903226,25.0347857 L5.02296774,25.0347857 L5.02296774,25.0565357 C5.60825806,25.1404286 6.20077419,25.4449286 6.77677419,25.7411429 C7.32180645,26.01975 7.88541935,26.3107857 8.28903226,26.3149286 C8.69574194,26.3107857 9.25832258,26.01975 9.80335484,25.7411429 C10.3793548,25.4449286 10.9729032,25.1404286 11.5571613,25.0565357 L11.5571613,25.0347857 L12.132129,25.0347857 L12.132129,25.0565357 C12.7163871,25.1404286 13.3099355,25.4449286 13.8859355,25.7411429 C14.4340645,26.0218214 15.0007742,26.3128571 15.4054194,26.3149286 C15.8090323,26.3128571 16.3757419,26.0218214 16.9249032,25.7411429 C17.5009032,25.4449286 18.0934194,25.1404286 18.6787097,25.0565357 L18.6787097,25.0347857 L19.2526452,25.0347857 L19.2526452,25.0565357 C19.8379355,25.1404286 20.4314839,25.4449286 21.0074839,25.7411429 C21.5525161,26.01975 22.1150968,26.3107857 22.5207742,26.3149286 C22.9254194,26.3107857 23.4890323,26.01975 24.0330323,25.7411429 C24.6100645,25.4449286 25.2025806,25.1404286 25.7868387,25.0565357 L25.7868387,25.0347857 L26.3628387,25.0347857 L26.3628387,25.0565357 C26.9470968,25.1404286 27.5406452,25.4449286 28.1156129,25.7411429 C28.6647742,26.0218214 29.2325161,26.3149286 29.6371613,26.3149286 L29.915871,26.3149286 L29.915871,27.25225" id="Fill-8" ></path>
            <path d="M27.9886452,21.1363571 C27.3496774,20.8090714 26.6900645,20.4693571 26.084129,20.4631429 L26.0665806,20.4631429 C25.4596129,20.4693571 24.7989677,20.8090714 24.16,21.1363571 C23.5860645,21.4336071 22.9925161,21.7391429 22.5207742,21.7412143 C22.0490323,21.7391429 21.4544516,21.4336071 20.8805161,21.1363571 C20.2405161,20.8090714 19.5819355,20.4693571 18.9749677,20.4631429 L18.9574194,20.4631429 C18.3494194,20.4693571 17.6908387,20.8090714 17.051871,21.1363571 C16.4748387,21.4336071 15.8781935,21.7412143 15.4054194,21.7412143 C14.9326452,21.7412143 14.336,21.4336071 13.7589677,21.1363571 C13.12,20.8090714 12.4583226,20.4693571 11.8534194,20.4631429 L11.835871,20.4631429 C11.2299355,20.4693571 10.5692903,20.8090714 9.93032258,21.1363571 C9.3563871,21.4336071 8.76077419,21.7391429 8.29006452,21.7412143 C7.81832258,21.7391429 7.22374194,21.4336071 6.64980645,21.1363571 C6.01083871,20.8090714 5.35019355,20.4693571 4.74322581,20.4631429 L4.72774194,20.4631429 C4.12077419,20.4693571 3.46012903,20.8090714 2.82116129,21.1363571 C2.24412903,21.4336071 1.64645161,21.7412143 1.17264516,21.7412143 L1.17264516,22.1182143 C1.73729032,22.1182143 2.34632258,21.8043929 2.99251613,21.4729643 C3.59329032,21.1632857 4.21677419,20.8411786 4.736,20.8370357 C5.25522581,20.8411786 5.8756129,21.1632857 6.47845161,21.4729643 C7.11845161,21.80025 7.72232258,22.112 8.28283871,22.1182143 L8.29006452,22.1182143 L8.29832258,22.1182143 C8.85780645,22.112 9.46167742,21.80025 10.1016774,21.4729643 C10.7034839,21.1632857 11.3259355,20.8411786 11.8461935,20.8370357 C12.3643871,20.8411786 12.9858065,21.1632857 13.5876129,21.4729643 C14.2317419,21.8043929 14.8407742,22.1161429 15.4033548,22.1182143 L15.4074839,22.1182143 C15.9690323,22.1161429 16.5780645,21.8043929 17.2232258,21.4729643 C17.8260645,21.1632857 18.4464516,20.8411786 18.9667097,20.8370357 C19.4849032,20.8411786 20.1073548,21.1632857 20.7091613,21.4729643 C21.3501935,21.80025 21.9530323,22.112 22.5135484,22.1182143 L22.5207742,22.1182143 L22.5290323,22.1182143 C23.0874839,22.112 23.6923871,21.80025 24.3313548,21.4729643 C24.932129,21.1632857 25.5556129,20.8411786 26.0748387,20.8370357 C26.5940645,20.8411786 27.2165161,21.1632857 27.8183226,21.4729643 C28.4634839,21.8043929 29.0735484,22.1182143 29.6371613,22.1182143 L29.6371613,21.7412143 C29.1643871,21.7412143 28.5667097,21.4336071 27.9886452,21.1363571" id="Fill-9" ></path>
            <path d="M15.4188387,22.3988929 L15.4033548,22.3988929 C14.7736774,22.3968214 14.1357419,22.0674643 13.4585806,21.7215357 C12.8877419,21.4263571 12.2972903,21.1228929 11.8451613,21.11875 C11.392,21.1228929 10.8015484,21.4263571 10.2286452,21.7215357 C9.65780645,22.0146429 9.11380645,22.2942857 8.57806452,22.3750714 L8.57806452,22.3988929 L8.00309677,22.3988929 L8.00309677,22.3750714 C7.46632258,22.2942857 6.92232258,22.0146429 6.35148387,21.7215357 C5.78064516,21.4263571 5.18812903,21.1228929 4.736,21.11875 C4.28283871,21.1228929 3.69032258,21.4263571 3.12051613,21.7215357 C2.4443871,22.0695357 1.8043871,22.3988929 1.17367742,22.3988929 L0.893935484,22.3988929 L0.893935484,21.4626071 L1.17367742,21.4626071 C1.57935484,21.4626071 2.14606452,21.1695 2.69419355,20.8877857 C3.27122581,20.5905357 3.86374194,20.2870714 4.448,20.2042143 L4.448,20.1814286 L5.02296774,20.1814286 L5.02296774,20.2042143 C5.60825806,20.2870714 6.20077419,20.5905357 6.77677419,20.8877857 C7.32180645,21.1674286 7.8843871,21.4584643 8.28903226,21.4626071 C8.69574194,21.4584643 9.25832258,21.1674286 9.80335484,20.8877857 C10.3793548,20.5905357 10.9729032,20.2870714 11.5571613,20.2042143 L11.5571613,20.1814286 L12.132129,20.1814286 L12.132129,20.2042143 C12.7163871,20.2870714 13.3099355,20.5905357 13.8859355,20.8877857 C14.4340645,21.1695 15.0007742,21.4605357 15.4054194,21.4626071 C15.8110968,21.4605357 16.3757419,21.1695 16.9249032,20.8877857 C17.5009032,20.5905357 18.0934194,20.2870714 18.6787097,20.2042143 L18.6787097,20.1814286 L19.2526452,20.1814286 L19.2526452,20.2042143 C19.8379355,20.2870714 20.4314839,20.5905357 21.0074839,20.8877857 C21.5525161,21.1674286 22.1150968,21.4584643 22.5207742,21.4626071 C22.9254194,21.4584643 23.4890323,21.1674286 24.0330323,20.8877857 C24.6100645,20.5905357 25.2025806,20.2870714 25.7868387,20.2042143 L25.7868387,20.1814286 L26.3618065,20.1814286 L26.3618065,20.2042143 C26.9470968,20.2870714 27.5406452,20.5905357 28.1156129,20.8877857 C28.6647742,21.1695 29.2325161,21.4626071 29.6381935,21.4626071 L29.915871,21.4626071 L29.915871,22.3988929 L29.6381935,22.3988929 C29.0064516,22.3988929 28.3674839,22.0695357 27.6903226,21.7215357 C27.1184516,21.4263571 26.5269677,21.1228929 26.0748387,21.11875 C25.6216774,21.1228929 25.0312258,21.4263571 24.4583226,21.7215357 C23.8885161,22.0146429 23.3434839,22.2942857 22.8087742,22.3750714 L22.8087742,22.3988929 L22.2327742,22.3988929 L22.2327742,22.3750714 C21.6970323,22.2942857 21.152,22.0146429 20.5821935,21.7215357 C20.0103226,21.4263571 19.4188387,21.1228929 18.9667097,21.11875 C18.5135484,21.1228929 17.9220645,21.4263571 17.3501935,21.7215357 C16.6802581,22.0653929 16.0454194,22.3926786 15.419871,22.3988929 L15.4188387,22.3988929" id="Fill-10" ></path>
            <path d="M26.084129,22.0674643 L26.084129,22.0674643 L26.075871,22.0674643 L26.0665806,22.0674643 C25.4596129,22.0736786 24.7989677,22.4133929 24.16,22.7406786 C23.5860645,23.0358571 22.9925161,23.3413929 22.5207742,23.3476071 C22.0469677,23.3413929 21.4544516,23.0358571 20.8805161,22.7406786 C20.2405161,22.4133929 19.5819355,22.0736786 18.9749677,22.0674643 L18.9656774,22.0674643 L18.9574194,22.0674643 C18.3504516,22.0736786 17.6908387,22.4133929 17.051871,22.7406786 C16.4748387,23.0379286 15.8781935,23.3455357 15.4064516,23.3476071 C14.9326452,23.3455357 14.336,23.0379286 13.7589677,22.7406786 C13.12,22.4133929 12.4593548,22.0736786 11.8534194,22.0674643 L11.8461935,22.0674643 L11.835871,22.0674643 C11.2299355,22.0736786 10.5692903,22.4133929 9.93032258,22.7406786 C9.3563871,23.0358571 8.76180645,23.3413929 8.29006452,23.3476071 C7.81832258,23.3413929 7.22374194,23.0358571 6.64980645,22.7406786 C6.01083871,22.4133929 5.35019355,22.0736786 4.74322581,22.0674643 L4.736,22.0674643 L4.72774194,22.0674643 C4.12077419,22.0736786 3.46012903,22.4133929 2.82116129,22.7406786 C2.24516129,23.0379286 1.64645161,23.3476071 1.17264516,23.3476071 L1.17264516,23.7215 C1.73729032,23.7215 2.34632258,23.4087143 2.99251613,23.07625 C3.59329032,22.7676071 4.21677419,22.4475714 4.736,22.4434286 C5.25522581,22.4475714 5.8756129,22.7676071 6.47948387,23.07625 C7.11845161,23.4045714 7.72232258,23.7163214 8.28283871,23.7215 L8.29006452,23.7215 L8.29832258,23.7215 C8.85780645,23.7163214 9.46167742,23.4045714 10.1016774,23.07625 C10.7024516,22.7676071 11.3259355,22.4475714 11.8461935,22.4434286 C12.3643871,22.4475714 12.9858065,22.7676071 13.5876129,23.07625 C14.2317419,23.4087143 14.8407742,23.7204643 15.4033548,23.7215 L15.4085161,23.7215 C15.9690323,23.7204643 16.5780645,23.4087143 17.2232258,23.07625 C17.8260645,22.7676071 18.4464516,22.4475714 18.9656774,22.4434286 C19.4849032,22.4475714 20.1073548,22.7676071 20.7091613,23.07625 C21.3501935,23.4045714 21.9530323,23.7163214 22.5135484,23.7215 L22.5207742,23.7215 L22.528,23.7215 C23.0874839,23.7163214 23.6923871,23.4045714 24.3313548,23.07625 C24.9331613,22.7676071 25.5556129,22.4475714 26.075871,22.4434286 C26.5940645,22.4475714 27.2154839,22.7676071 27.8172903,23.07625 C28.4634839,23.4087143 29.0735484,23.7215 29.6371613,23.7215 L29.6371613,23.3476071 C29.1643871,23.3476071 28.5677419,23.0379286 27.9886452,22.7406786 C27.3496774,22.4133929 26.6900645,22.0736786 26.084129,22.0674643" id="Fill-11" ></path>
            <path d="M29.915871,24.0032143 L29.6371613,24.0032143 C29.0074839,24.0032143 28.3674839,23.6738571 27.6903226,23.3258571 C27.1184516,23.03275 26.5269677,22.7261786 26.0748387,22.7251429 C25.6216774,22.7261786 25.0312258,23.03275 24.4583226,23.3258571 C23.8885161,23.6189643 23.3434839,23.8996429 22.8077419,23.9804286 L22.8077419,24.0032143 L22.2327742,24.0032143 L22.2327742,23.9804286 C21.6970323,23.8996429 21.152,23.6189643 20.5821935,23.3258571 C20.0092903,23.03275 19.4188387,22.7261786 18.9667097,22.7251429 C18.5135484,22.7261786 17.9220645,23.03275 17.3501935,23.3258571 C16.7752258,23.6210357 16.2260645,23.9037857 15.6861935,23.9825 L15.6861935,24.0032143 L15.1236129,24.0032143 L15.1236129,23.9825 C14.5847742,23.9037857 14.0356129,23.6210357 13.4596129,23.3258571 C12.8877419,23.03275 12.2972903,22.7261786 11.8461935,22.7251429 C11.392,22.7261786 10.8015484,23.03275 10.2296774,23.3258571 C9.65780645,23.6189643 9.11380645,23.8996429 8.57806452,23.9804286 L8.57806452,24.0032143 L8.00309677,24.0032143 L8.00309677,23.9804286 C7.46632258,23.8996429 6.92232258,23.6189643 6.35148387,23.3258571 C5.7796129,23.03275 5.18812903,22.7261786 4.736,22.7251429 C4.28283871,22.7261786 3.69032258,23.03275 3.12051613,23.3258571 C2.44232258,23.6738571 1.8043871,24.0032143 1.17367742,24.0032143 L0.893935484,24.0032143 L0.893935484,23.0669286 L1.17367742,23.0669286 C1.57935484,23.0669286 2.14606452,22.7748571 2.69419355,22.4921071 C3.27122581,22.1948571 3.86374194,21.8913929 4.44903226,21.8085357 L4.44903226,21.7878214 L4.72774194,21.78575 L5.02296774,21.78575 L5.02296774,21.8085357 C5.60825806,21.8913929 6.20077419,22.1948571 6.77677419,22.4921071 C7.32180645,22.7727857 7.88541935,23.0627857 8.28903226,23.0669286 C8.69574194,23.0627857 9.25832258,22.7727857 9.80335484,22.4921071 C10.3793548,22.1948571 10.9729032,21.8913929 11.5571613,21.8085357 L11.5571613,21.7878214 L11.835871,21.78575 L12.132129,21.78575 L12.132129,21.8085357 C12.7163871,21.8913929 13.3099355,22.1948571 13.8859355,22.4921071 C14.4340645,22.7748571 15.0007742,23.0648571 15.4054194,23.0669286 C15.8090323,23.0648571 16.3757419,22.7748571 16.9249032,22.4921071 C17.5009032,22.1948571 18.0934194,21.8913929 18.6787097,21.8085357 L18.6787097,21.7878214 L18.9584516,21.78575 L19.2526452,21.78575 L19.2526452,21.8085357 C19.8379355,21.8913929 20.4314839,22.1948571 21.0074839,22.4921071 C21.5525161,22.7727857 22.1150968,23.0627857 22.5207742,23.0669286 C22.9254194,23.0627857 23.4890323,22.7727857 24.0330323,22.4921071 C24.6100645,22.1948571 25.2025806,21.8913929 25.7868387,21.8085357 L25.7868387,21.7878214 L26.0665806,21.78575 L26.3628387,21.78575 L26.3628387,21.8085357 C26.9470968,21.8913929 27.5406452,22.1948571 28.1156129,22.4921071 C28.6647742,22.7748571 29.2325161,23.0669286 29.6371613,23.0669286 L29.915871,23.0669286 L29.915871,24.0032143" id="Fill-12" ></path>
            <path d="M27.9886452,27.5608929 C27.3496774,27.2336071 26.6900645,26.8938929 26.084129,26.8876786 L26.0748387,26.8876786 L26.0665806,26.8876786 C25.4596129,26.8938929 24.7989677,27.2336071 24.16,27.5608929 C23.5860645,27.8591786 22.9925161,28.1636786 22.5207742,28.16575 C22.0490323,28.1636786 21.4544516,27.8591786 20.8805161,27.5608929 C20.2405161,27.2336071 19.5819355,26.8938929 18.9749677,26.8876786 L18.9687742,26.8876786 L18.9574194,26.8876786 C18.3494194,26.8938929 17.6908387,27.2336071 17.051871,27.5608929 C16.4748387,27.8591786 15.8781935,28.16575 15.4054194,28.16575 C14.9326452,28.16575 14.336,27.8591786 13.7589677,27.5608929 C13.12,27.2336071 12.4583226,26.8938929 11.8534194,26.8876786 L11.8461935,26.8876786 L11.835871,26.8876786 C11.2299355,26.8938929 10.5692903,27.2336071 9.93032258,27.5608929 C9.3563871,27.8591786 8.76077419,28.1636786 8.29006452,28.16575 C7.81832258,28.1636786 7.22374194,27.8591786 6.64980645,27.5608929 C6.01083871,27.2336071 5.35019355,26.8938929 4.74322581,26.8876786 L4.736,26.8876786 L4.72774194,26.8876786 C4.12077419,26.8938929 3.46012903,27.2336071 2.82116129,27.5608929 C2.24412903,27.8591786 1.64645161,28.16575 1.17264516,28.16575 L1.17264516,28.54275 C1.73729032,28.54275 2.34632258,28.2289286 2.99251613,27.8975 C3.59329032,27.58575 4.21677419,27.2657143 4.736,27.2615714 C5.25522581,27.2657143 5.8756129,27.58575 6.47845161,27.8975 C7.11845161,28.2247857 7.72232258,28.5365357 8.28283871,28.54275 L8.29006452,28.54275 L8.29832258,28.54275 C8.85780645,28.5365357 9.46167742,28.2247857 10.1016774,27.8975 C10.7034839,27.58575 11.3259355,27.2657143 11.8461935,27.2615714 C12.3643871,27.2657143 12.9858065,27.58575 13.5876129,27.8975 C14.2317419,28.2268571 14.8407742,28.5406786 15.4033548,28.54275 L15.4074839,28.54275 C15.9690323,28.5406786 16.5780645,28.2268571 17.2232258,27.8975 C17.8260645,27.58575 18.4464516,27.2657143 18.9667097,27.2615714 C19.4849032,27.2657143 20.1073548,27.58575 20.7091613,27.8975 C21.3501935,28.2247857 21.9530323,28.5365357 22.5135484,28.54275 L22.5207742,28.54275 L22.5290323,28.54275 C23.0874839,28.5365357 23.6923871,28.2247857 24.3313548,27.8975 C24.932129,27.58575 25.5556129,27.2657143 26.0748387,27.2615714 C26.5940645,27.2657143 27.2165161,27.58575 27.8183226,27.8975 C28.4634839,28.2289286 29.0735484,28.54275 29.6371613,28.54275 L29.6371613,28.16575 C29.1643871,28.16575 28.5667097,27.8591786 27.9886452,27.5608929" id="Fill-13" ></path>
            <path d="M29.915871,28.8234286 L29.6371613,28.8234286 C29.0074839,28.8234286 28.3674839,28.4940714 27.6903226,28.1460714 C27.1184516,27.8508929 26.5269677,27.5474286 26.0748387,27.5432857 C25.6216774,27.5474286 25.0312258,27.8508929 24.4583226,28.1460714 C23.8885161,28.4391786 23.3434839,28.7188214 22.8077419,28.7996071 L22.8077419,28.8234286 L22.2327742,28.8234286 L22.2327742,28.7996071 C21.6970323,28.7188214 21.152,28.4391786 20.5821935,28.1460714 C20.0092903,27.8508929 19.4188387,27.5474286 18.9667097,27.5432857 C18.5135484,27.5474286 17.9220645,27.8508929 17.3501935,28.1460714 C16.6781935,28.4899286 16.0464516,28.8172143 15.419871,28.8234286 L15.4033548,28.8234286 C14.7736774,28.8213571 14.1336774,28.4940714 13.4596129,28.1460714 C12.8877419,27.8508929 12.2972903,27.5474286 11.8461935,27.5432857 C11.392,27.5474286 10.8015484,27.8508929 10.2296774,28.1460714 C9.65780645,28.4391786 9.11380645,28.7188214 8.57806452,28.7996071 L8.57806452,28.8234286 L8.00309677,28.8234286 L8.00309677,28.7996071 C7.46632258,28.7188214 6.92232258,28.4391786 6.35148387,28.1460714 C5.7796129,27.8508929 5.18812903,27.5474286 4.736,27.5432857 C4.28283871,27.5474286 3.69032258,27.8508929 3.12051613,28.1460714 C2.44232258,28.4940714 1.8043871,28.8234286 1.17367742,28.8234286 L0.893935484,28.8234286 L0.893935484,27.8871429 L1.17367742,27.8871429 C1.57935484,27.8871429 2.14606452,27.5940357 2.69419355,27.3123214 C3.27122581,27.0150714 3.86374194,26.7116071 4.44903226,26.62875 L4.44903226,26.607 L5.02296774,26.607 L5.02296774,26.62875 C5.60825806,26.7116071 6.20077419,27.0150714 6.77677419,27.3123214 C7.32180645,27.5919643 7.88541935,27.883 8.28903226,27.8871429 C8.69574194,27.883 9.25832258,27.5919643 9.80335484,27.3123214 C10.3793548,27.0150714 10.9729032,26.7116071 11.5571613,26.62875 L11.5571613,26.607 L12.132129,26.607 L12.132129,26.62875 C12.7163871,26.7116071 13.3099355,27.0150714 13.8859355,27.3123214 C14.4340645,27.5940357 15.0007742,27.8850714 15.4054194,27.8871429 C15.8090323,27.8850714 16.3757419,27.5940357 16.9249032,27.3123214 C17.5009032,27.0150714 18.0934194,26.7116071 18.6787097,26.62875 L18.6787097,26.607 L19.2526452,26.607 L19.2526452,26.62875 C19.8379355,26.7116071 20.4314839,27.0150714 21.0074839,27.3123214 C21.5525161,27.5919643 22.1150968,27.883 22.5207742,27.8871429 C22.9254194,27.883 23.4890323,27.5919643 24.0330323,27.3123214 C24.6100645,27.0150714 25.2025806,26.7116071 25.7868387,26.62875 L25.7868387,26.607 L26.3628387,26.607 L26.3628387,26.62875 C26.9470968,26.7116071 27.5406452,27.0150714 28.1156129,27.3123214 C28.6647742,27.5940357 29.2325161,27.8871429 29.6371613,27.8871429 L29.915871,27.8871429 L29.915871,28.8234286" id="Fill-14" ></path>
        </g>
    </g>
</svg>