<?xml version="1.0" encoding="utf-8"?>
<!-- Generator: Adobe Illustrator 16.0.0, SVG Export Plug-In . SVG Version: 6.00 Build 0)  -->
<!DOCTYPE svg PUBLIC "-//W3C//DTD SVG 1.1//EN" "http://www.w3.org/Graphics/SVG/1.1/DTD/svg11.dtd">
<svg version="1.1" id="Calque_1" xmlns="http://www.w3.org/2000/svg" xmlns:xlink="http://www.w3.org/1999/xlink" x="0px" y="0px"
	 width="118px" height="100.5px" viewBox="0 0 118 100.5" enable-background="new 0 0 118 100.5" xml:space="preserve">
<g opacity="0.5">
	<g>
		<defs>
			<rect id="SVGID_1_" x="2.66" y="8.84" width="22.92" height="81.07"/>
		</defs>
		<clipPath id="SVGID_2_">
			<use xlink:href="#SVGID_1_"  overflow="visible"/>
		</clipPath>
		<path clip-path="url(#SVGID_2_)" fill="#454545" d="M13.005,78.575c-3.717,0.197-3.913-3.52-3.913-3.52L6.104,18.358
			c-0.194-3.713,3.522-3.91,3.522-3.91l11.183-0.589l-4.584-5.014L6.348,9.366c-1.271,0.329-3.35,1.269-3.69,3.924l3.835,72.791
			c0.323,1.326,1.323,3.683,4.415,3.826l10.336-0.546l4.334-11.448L13.005,78.575z"/>
	</g>
</g>
<g opacity="0.5">
	<g>
		<defs>
			<rect id="SVGID_3_" x="15.98" y="3.18" width="18.43" height="95.05"/>
		</defs>
		<clipPath id="SVGID_4_">
			<use xlink:href="#SVGID_3_"  overflow="visible"/>
		</clipPath>
		<path clip-path="url(#SVGID_4_)" fill="#454545" d="M20.179,98.226c-0.073,0-0.147-0.013-0.22-0.042
			c-0.303-0.121-0.45-0.464-0.33-0.769l13.543-34.053L21.053,38.728c-0.088-0.18-0.08-0.391,0.021-0.562l7.645-12.935L16.061,4.071
			c-0.167-0.281-0.076-0.644,0.204-0.812s0.644-0.076,0.811,0.204l12.837,21.461c0.111,0.186,0.111,0.418,0.001,0.604l-7.659,12.962
			l12.095,24.585c0.073,0.149,0.08,0.324,0.018,0.042L20.729,97.415C20.636,98.084,20.413,98.226,20.179,98.226"/>
	</g>
</g>
<g opacity="0.5">
	<g>
		<defs>
			<rect id="SVGID_5_" x="24.57" y="11" width="32.43" height="81"/>
		</defs>
		<clipPath id="SVGID_6_">
			<use xlink:href="#SVGID_5_"  overflow="visible"/>
		</clipPath>
		<path clip-path="url(#SVGID_6_)" fill="#454545" d="M49.806,16C53.524,16,54,19.937,54,19.937v13.197l3,3.032V15.354
			C57,13.25,55.667,11,52.858,11H24.571l4.314,5H49.806z M30.244,13h7.346c0.676,0,1.224,0.324,1.224,1s-0.548,1-1.224,1h-7.346
			c-0.676,0-1.224-0.324-1.224-1S29.568,13,30.244,13"/>
		<path clip-path="url(#SVGID_6_)" fill="#454545" d="M54,62.181v14.77c0,3.723-4.195,4.05-4.195,4.05H30.273l-4.93,11h26.73
			C53.206,92,56,91.102,57,87.899V59.48L54,62.181z M33.917,89.604c-2.027,0-3.672-1.645-3.672-3.673
			c0-2.027,1.645-3.672,3.672-3.672c2.028,0,3.673,1.645,3.673,3.672C37.59,87.96,35.945,89.604,33.917,89.604"/>
	</g>
</g>
<path fill="#454545" d="M110.211,11H73.394C70.682,11,68,13.16,68,15.871v12.076l5,4.428V18.363V18h37v0.363v58.871v-0.233H73v0.233
	v-15.13l-5,4.574v20.374c0,2.711,2.682,4.948,5.394,4.948h36.817c2.711,0,4.789-2.237,4.789-4.948V15.871
	C115,13.16,112.922,11,110.211,11 M95.484,16H88.12c-0.678,0-1.227-0.823-1.227-1.5c0-0.678,0.549-1.5,1.227-1.5h7.364
	c0.678,0,1.227,0.822,1.227,1.5C96.711,15.178,96.162,16,95.484,16 M91.803,87.053c-2.034,0-3.683-1.649-3.683-3.682
	s1.648-3.682,3.683-3.682c2.032,0,3.682,1.649,3.682,3.682S93.835,87.053,91.803,87.053"/>
<path fill="#454545" d="M82.038,49.658L63.736,66.04C62.073,67.469,59,66.758,59,64.453V52.976L45.052,66.04
	C43.395,67.469,42,66.758,42,64.453V30.534c0-2.299,1.395-3.016,3.052-1.586L59,42.012V30.534c0-2.299,3.073-3.016,4.736-1.586
	L82.89,45.33C84.275,46.523,83.424,48.469,82.038,49.658"/>
</svg>
