<?xml version="1.0" encoding="utf-8"?>
<!-- Generator: Adobe Illustrator 16.0.0, SVG Export Plug-In . SVG Version: 6.00 Build 0)  -->
<!DOCTYPE svg PUBLIC "-//W3C//DTD SVG 1.1//EN" "http://www.w3.org/Graphics/SVG/1.1/DTD/svg11.dtd">
<svg version="1.1" id="Layer_1" xmlns="http://www.w3.org/2000/svg" xmlns:xlink="http://www.w3.org/1999/xlink" x="0px" y="0px"
	 width="80px" height="60px" viewBox="0 0 80 60" enable-background="new 0 0 80 60" xml:space="preserve">
<polygon fill="#00ADEE" points="77.684,33.134 41.631,33.134 41.906,36.266 38.503,36.266 40.285,56.619 79.408,52.84 "/>
<g>
	<g>
		<g>
			<rect x="13.728" y="19.997" fill="#061922" width="55.829" height="19.704"/>
			<path fill="#FFFFFF" d="M60.039,36.036h-3.344l2.869-5.206l-4.07-7.044h3.457l2.252,4.176l2.203-4.176h3.408L60.039,36.036z"/>
			<path fill="#FFFFFF" d="M42.17,36.056h-6.707l1.505-12.266h3.106l-1.176,9.567h3.597L42.17,36.056z"/>
			<path fill="#FFFFFF" d="M52.529,36.056l-0.801-2.127h-4.402l-0.832,2.127h-3.369l4.709-12.266h3.469l4.627,12.266H52.529z
				 M49.553,27.582l-1.342,3.911h2.648L49.553,27.582z"/>
			<path fill="#FFFFFF" d="M35.109,27.853c0,2.75-1.375,4.127-4.142,4.127h-1.997v4.076h-3.192V23.777h5.074
				c1.309,0,2.324,0.342,3.062,1.029C34.716,25.559,35.109,26.576,35.109,27.853z M31.769,27.885c0-1.031-0.572-1.539-1.735-1.539
				h-1.062v3.062h1.046C31.18,29.408,31.769,28.901,31.769,27.885z"/>
		</g>
	</g>
	<g>
		<g>
			<rect x="0.592" y="3.575" fill="#061922" width="62.394" height="19.705"/>
		</g>
		<g>
			<path fill="#FFFFFF" d="M12.595,18.44c-0.017,0.134-0.082,0.233-0.082,0.233s-0.068,0.066-0.182,0.1
				c-1.593,0.646-3.367,0.431-3.367,0.431c-2.867-0.316-4.689-2.072-5.27-4.342C2.832,11.462,4.541,9.043,4.955,8.53
				c1.01-1.211,2.584-2.07,4.127-2.272c1.973-0.281,3.431,0.183,4.029,0.38c0,0,0.66,0.216,1.16,0.55
				c0.247,0.165,0.28,0.231,0.28,0.231s0.017,0.032-0.049,0.298l-0.463,2.437c-0.017,0.099-0.084,0.15-0.084,0.15
				s-0.032,0.016-0.264-0.133c-1.492-1.06-3.232-0.929-3.232-0.929c-1.328,0.082-2.869,0.78-3.331,2.536
				c-0.416,1.558,0.016,2.868,0.946,3.647c0.627,0.547,1.604,0.831,2.633,0.779c1.128-0.082,2.023-0.528,1.957-0.498
				c0,0,0.049-0.017,0.099-0.031c0.233-0.117,0.281-0.102,0.281-0.102s0.05,0.05,0.017,0.199L12.595,18.44z"/>
			<path fill="#FFFFFF" d="M38.338,18.877h-2.974c-0.048,0-0.098,0-0.098,0s-0.015-0.016-0.031-0.032l-4.127-7.325
				c-0.032-0.033-0.048-0.033-0.048-0.033s-0.034,0-0.034,0.051l-1.021,7.193c-0.016,0.081-0.033,0.096-0.033,0.096
				s-0.032,0.018-0.081,0.018h-2.957c-0.047,0-0.081-0.032-0.081-0.032s-0.063-0.065-0.05-0.131l1.625-11.645
				c0.018-0.065,0.049-0.082,0.049-0.082s0.049-0.049,0.096-0.049h3.301c0.048,0,0.079,0.033,0.079,0.033s0.032,0.017,0.049,0.064
				l3.718,6.53c0.066,0.13,0.114,0.113,0.114,0.113s0.049,0,0.082-0.146l0.942-6.498c0-0.047,0.034-0.064,0.034-0.064
				s0.013-0.017,0.063-0.017h3.103c0.064,0,0.081,0.033,0.081,0.033s0.017,0.017,0.017,0.047l-1.675,11.744
				c-0.018,0.065-0.048,0.113-0.048,0.113S38.418,18.877,38.338,18.877z"/>
			<path fill="#FFFFFF" d="M23.326,7.004c-0.015-0.047-0.032-0.064-0.032-0.064s-0.047-0.049-0.115-0.049h-3.72
				c-0.078,0-0.114,0-0.114,0s-0.047,0.016-0.079,0.082L13.435,18.7c-0.032,0.064-0.017,0.113-0.017,0.113s0.017,0.048,0.116,0.032
				h3.359c0.05,0,0.098-0.032,0.098-0.032s0.017-0.016,0.05-0.081l0.811-1.74c0.049-0.112,0.113-0.162,0.113-0.162
				s0.049-0.065,0.13-0.065h4.076c0.033,0,0.05,0,0.05,0s0.033,0.018,0.033,0.065l0.454,1.869c0.017,0.113,0.034,0.128,0.034,0.128
				s0.048,0.026,0.113,0.026h2.89c0.036,0,0.05-0.026,0.05-0.026s0.031-0.015,0.031-0.064L23.326,7.004z M21.824,14.152
				c0,0-0.016,0.016-0.034,0.016l-2.386-0.016c-0.082,0-0.099-0.018-0.099-0.018s-0.014-0.032,0.017-0.081l1.625-3.685
				c0.017-0.033,0.032-0.033,0.032-0.033s0.016,0,0.016,0.033l0.828,3.721C21.84,14.134,21.824,14.152,21.824,14.152z"/>
			<path fill="#FFFFFF" d="M44.432,6.903c-0.053,0-0.111,0.041-0.131,0.09l-4.533,11.805c-0.021,0.05,0.011,0.09,0.06,0.09h3.102
				c0.051,0,0.111-0.039,0.129-0.088l0.746-1.899c0.02-0.05,0.078-0.09,0.131-0.09h4.107c0.053,0,0.111,0.04,0.129,0.09l0.717,1.896
				c0.018,0.05,0.076,0.09,0.131,0.09h3.131c0.055,0,0.082-0.041,0.064-0.09L47.758,6.993c-0.02-0.05-0.076-0.09-0.131-0.09H44.432z
				 M44.803,14.442c-0.051,0-0.082-0.041-0.064-0.089l1.244-3.625c0.018-0.05,0.045-0.05,0.061,0l1.215,3.623
				c0.018,0.051-0.014,0.091-0.064,0.091H44.803z"/>
			<path fill="#FFFFFF" d="M56.559,15.78c0,0.06,0.047,0.11,0.107,0.11h3.271c0.059,0,0.107,0.047,0.107,0.11v2.795
				c0,0.06-0.049,0.111-0.107,0.111h-6.836c-0.061,0-0.109-0.051-0.109-0.111V6.854c0-0.06,0.049-0.11,0.109-0.11h3.348
				c0.061,0,0.109,0.05,0.109,0.11V15.78z"/>
		</g>
	</g>
	<g>
		<path fill="#061922" d="M16.341,36.894V19.688l14.752,8.609L16.341,36.894z"/>
	</g>
	<polygon fill="#00ADEE" points="17.229,21.236 17.229,35.348 29.329,28.297 	"/>
</g>
<g>
	<path fill="#FFFFFF" d="M53.014,51.004h-1.689v-7.388h-1.99v-1.623h5.682v1.623h-2.002V51.004z"/>
</g>
<g>
	<path fill="#FFFFFF" d="M62.828,51.004H60.98l-0.967-2.331h-3.021l-0.988,2.331h-1.842l4.385-9.987L62.828,51.004z M57.693,47.051
		h1.639l-0.807-1.941L57.693,47.051z"/>
</g>
<g>
	<path fill="#FFFFFF" d="M69.703,51.004h-2.078l-2.131-3.101v3.101h-1.688v-9.011h1.713c1.033,0,1.648,0.145,2.193,0.518
		c0.676,0.453,1.08,1.267,1.08,2.174c0,1.233-0.701,2.18-1.801,2.509L69.703,51.004z M65.494,45.809h0.189
		c0.949,0,1.432-0.378,1.432-1.124c0-0.373-0.156-0.697-0.42-0.867c-0.223-0.141-0.533-0.201-1.033-0.201h-0.168V45.809z"/>
</g>
<g>
	<path fill="#FFFFFF" d="M74.02,51.179h-1.688v-7.388h-1.99v-1.623h5.68v1.623H74.02V51.179z"/>
</g>
<path fill="#FFFFFF" d="M45.766,51.146c-1.469,0-2.559-0.903-2.914-2.416l-0.084-0.356l1.635-0.465l0.086,0.399
	c0.092,0.416,0.141,0.522,0.271,0.694c0.234,0.33,0.619,0.521,1.037,0.521c0.703,0,1.277-0.558,1.277-1.243
	c0-0.456-0.176-0.752-1.17-1.203l-0.75-0.34c-1.328-0.603-1.896-1.312-1.896-2.372c0-1.433,1.162-2.516,2.703-2.516
	c1.062,0,1.891,0.497,2.455,1.479l0.178,0.312l-1.352,0.9l-0.209-0.333c-0.174-0.276-0.252-0.369-0.363-0.473
	c-0.191-0.166-0.432-0.249-0.729-0.249c-0.561,0-0.982,0.379-0.982,0.88c0,0.24,0.072,0.527,0.934,0.902l0.783,0.341
	c1.471,0.645,2.1,1.431,2.1,2.628C48.775,49.868,47.451,51.146,45.766,51.146z"/>
</svg>
