<svg id="Layer_1" xmlns="http://www.w3.org/2000/svg" width="305" height="85" viewBox="0 0 305 85"><g id="layer1"><g id="g3235" fill="#B81D24"><path id="path3015" d="M258.997 78.57c4.18.404 8.355.84 12.52 1.29l9.202-22.717 8.743 24.81c4.49.563 8.97 1.15 13.443 1.77l-15.33-43.51 15.335-37.87h-12.99l-.134.184-8.284 20.46-7.273-20.643h-12.825l13.24 37.57-15.648 38.655z"/><path id="path3019" d="M249.298 77.68V2.347h-12.82v74.28c4.276.324 8.555.68 12.82 1.055"/><path id="path3023" d="M153 73.466c3.462 0 6.918.026 10.37.054V45.843h15.398V34.057h-15.4V14.142h17.737V2.344H150.5v71.132c.83 0 1.666-.012 2.5-.01"/><path id="path3035" d="M113.2 74.187c4.27-.153 8.545-.28 12.826-.385V14.145h11.98v-11.8h-36.79v11.8h11.983v60.042z"/><path id="path3039" d="M15.158 82.132V37.248L30.336 80.32c4.668-.524 9.343-1.018 14.028-1.484V2.346H32.067v46.492L15.687 2.346H2.86v81.4h.077c4.067-.565 8.14-1.1 12.22-1.614"/><path id="path3051" d="M88.856 14.142V2.344h-30.61v75.214c10.156-.877 20.35-1.613 30.582-2.21v-11.81c-5.917.344-11.82.74-17.713 1.18V45.85h15.4V34.054h-15.4V14.142h17.74z"/><path id="path3055" d="M206.512 62.973V2.34h-12.876V74.227c10.24.378 20.444.902 30.612 1.56V63.97c-5.902-.378-11.812-.71-17.736-.997"/></g></g></svg>