<?xml version="1.0" encoding="utf-8"?>
<!-- Generator: Adobe Illustrator 16.0.0, SVG Export Plug-In . SVG Version: 6.00 Build 0)  -->
<!DOCTYPE svg PUBLIC "-//W3C//DTD SVG 1.1//EN" "http://www.w3.org/Graphics/SVG/1.1/DTD/svg11.dtd">
<svg version="1.1" id="Layer_1" xmlns:sketch="http://www.bohemiancoding.com/sketch/ns"
	 xmlns="http://www.w3.org/2000/svg" xmlns:xlink="http://www.w3.org/1999/xlink" x="0px" y="0px" width="34px" height="25px"
	 viewBox="0 0 34 25" enable-background="new 0 0 34 25" xml:space="preserve">
<title>icon-speech@1x</title>
<desc></desc>
<g id="Page-1">
	<g id="icon-speech" transform="translate(1.000000, 1.000000)">
		<path id="icon-messages-2" fill="#FFFFFF" stroke="#0065A6" stroke-width="2" d="M0,10.314c0,5.695,7.021,10.312,15.685,10.312
			c1.274,0,2.502-0.11,3.69-0.3c0.861,1.381,2.957,1.991,4.83,2.179h2.516c0.926-0.117,1.316-0.369,0.571-0.611
			c-1.348-0.439-2.138-1.92-2.576-3.158c3.797-1.764,6.356-4.6,6.63-7.845V9.736C30.891,4.308,24.053,0,15.685,0
			C7.021,0,0,4.618,0,10.314"/>
		<path id="_x21_" d="M14.799,11.842c0.045,0.432,0.363,0.705,0.818,0.705c0.454,0,0.795-0.273,0.84-0.705
			l0.795-7.999C17.299,3.373,16.957,3,16.435,3h-1.636c-0.522,0-0.84,0.373-0.795,0.843L14.799,11.842z M14.004,15.331v0.196
			c0,0.765,0.704,1.353,1.613,1.353c0.932,0,1.613-0.588,1.613-1.353v-0.196c0-0.765-0.682-1.353-1.613-1.353
			C14.708,13.979,14.004,14.566,14.004,15.331L14.004,15.331z"/>
	</g>
</g>
</svg>
