<?xml version="1.0" encoding="UTF-8" standalone="no"?>
<svg width="32px" height="20px" viewBox="0 0 32 20" version="1.1" xmlns="http://www.w3.org/2000/svg" xmlns:xlink="http://www.w3.org/1999/xlink" xmlns:sketch="http://www.bohemiancoding.com/sketch/ns">
    <!-- Generator: Sketch 3.1.1 (8761) - http://www.bohemiancoding.com/sketch -->
    <title>icon-game@1x</title>
    <g id="Page-1" stroke="none" stroke-width="1"  fill-rule="evenodd">
        <path d="M12.1703551,13.0819827 C12.1737837,12.356316 11.6000694,11.764816 10.8892123,11.757816 C10.1772123,11.754316 9.59664085,12.338816 9.5897837,13.066816 C9.58749799,13.7936493 10.1589266,14.3851493 10.8709266,14.389816 C11.5840694,14.393316 12.163498,13.808816 12.1703551,13.0819827 L12.1703551,13.0819827 Z M22.3017837,13.1484827 C22.3086408,12.4204827 21.7349266,11.827816 21.0229266,11.824316 C20.3109266,11.8196493 19.7303551,12.4041493 19.7269266,13.1309827 C19.7212123,13.857816 20.2960694,14.4504827 21.0069266,14.4539827 C21.7200694,14.459816 22.299498,13.8741493 22.3017837,13.1484827 L22.3017837,13.1484827 Z M28.5383551,7.68614932 L28.5303551,9.16314932 C28.5280694,9.21331599 28.5086408,9.25998265 28.475498,9.29381599 C28.4400694,9.32764932 28.3932123,9.34514932 28.3486408,9.34514932 L27.4537837,9.33931599 L27.3417837,9.29964932 L26.4377837,8.55531599 C26.3932123,8.52031599 26.3726408,8.46664932 26.3726408,8.41064932 C26.3726408,8.35698265 26.3977837,8.30331599 26.4412123,8.26948265 L27.3532123,7.53564932 L27.467498,7.49598265 L28.3600694,7.50181599 C28.4080694,7.50181599 28.451498,7.52164932 28.4857837,7.55664932 C28.5200694,7.59164932 28.5383551,7.63714932 28.5383551,7.68614932 L28.5383551,7.68614932 Z M26.8012123,5.88948265 L26.7943551,6.80298265 L26.7566408,6.91848265 L26.0252123,7.83898265 C25.9909266,7.88331599 25.939498,7.90664932 25.8846408,7.90781599 C25.8309266,7.90664932 25.779498,7.88214932 25.7463551,7.83781599 L25.027498,6.90448265 L24.9897837,6.79131599 L24.9943551,5.87781599 C24.995498,5.83114932 25.0137837,5.78331599 25.0480694,5.74948265 C25.0812123,5.71448265 25.1269266,5.69581599 25.1749266,5.69698265 L26.6240694,5.70514932 C26.6709266,5.70631599 26.7166408,5.72498265 26.7497837,5.76114932 C26.7840694,5.79498265 26.8012123,5.84164932 26.8012123,5.88948265 L26.8012123,5.88948265 Z M24.4206408,7.51581599 L25.323498,8.26014932 C25.3669266,8.29514932 25.3909266,8.34881599 25.3909266,8.40481599 C25.3886408,8.45964932 25.3657837,8.51214932 25.323498,8.54714932 L24.4103551,9.28098265 L24.2983551,9.31948265 L23.4023551,9.31364932 C23.355498,9.31248265 23.3109266,9.29498265 23.2777837,9.25881599 C23.2446408,9.22498265 23.2240694,9.17714932 23.2263551,9.12931599 L23.2343551,7.65231599 C23.235498,7.60214932 23.2526408,7.55548265 23.2892123,7.52048265 C23.3223551,7.48781599 23.3680694,7.46914932 23.4149266,7.47031599 L24.3086408,7.47614932 L24.4206408,7.51581599 L24.4206408,7.51581599 Z M23.1063551,13.1531493 C23.1017837,13.7434827 22.8629266,14.274316 22.483498,14.6581493 C22.1017837,15.0419827 21.579498,15.2776493 21.0023551,15.2729827 C20.4252123,15.2694827 19.9040694,15.026816 19.5269266,14.638316 C19.1520694,14.2509827 18.9200694,13.7154827 18.9246408,13.126316 C18.9292123,12.5371493 19.1657837,12.0039827 19.5452123,11.621316 C19.9269266,11.236316 20.451498,11.001816 21.027498,11.0064827 C21.6057837,11.008816 22.1269266,11.2514827 22.5006408,11.6399827 C22.8777837,12.0284827 23.1097837,12.5639827 23.1063551,13.1531493 L23.1063551,13.1531493 Z M24.9623551,10.9259827 L24.9692123,10.014816 L25.0080694,9.89814932 L25.7372123,8.97648265 C25.7737837,8.93331599 25.8217837,8.90764932 25.8777837,8.90881599 C25.9337837,8.90881599 25.9840694,8.93564932 26.0160694,8.97881599 L26.7349266,9.90981599 L26.7749266,10.0264827 L26.7692123,10.9376493 C26.7692123,10.9854827 26.7497837,11.0321493 26.715498,11.0659827 C26.6812123,11.1009827 26.6366408,11.120816 26.587498,11.1196493 L25.1417837,11.110316 C25.0937837,11.1091493 25.0457837,11.0904827 25.0137837,11.054316 C24.979498,11.019316 24.9623551,10.9726493 24.9623551,10.9259827 L24.9623551,10.9259827 Z M17.0446408,10.0591493 C17.0412123,10.6611493 16.5612123,11.1476493 15.9692123,11.141816 C15.3817837,11.138316 14.907498,10.6471493 14.9120694,10.046316 C14.9132123,9.44548265 15.395498,8.95781599 15.9840694,8.96248265 C16.5726408,8.96598265 17.0492123,9.45714932 17.0446408,10.0591493 L17.0446408,10.0591493 Z M12.9920694,13.087816 C12.9897837,13.6769827 12.7520694,14.207816 12.3703551,14.5939827 C11.9909266,14.9754827 11.4663551,15.212316 10.8892123,15.2076493 C10.3109266,15.2041493 9.79206942,14.960316 9.41606942,14.5741493 C9.04006942,14.1856493 8.80921228,13.6501493 8.8137837,13.0609827 C8.81606942,12.471816 9.05264085,11.939816 9.43435513,11.5559827 C9.8137837,11.173316 10.3383551,10.9376493 10.9166408,10.9411493 C11.491498,10.9446493 12.0137837,11.1861493 12.3886408,11.575816 C12.7646408,11.9619827 12.995498,12.4986493 12.9920694,13.087816 L12.9920694,13.087816 Z M9.79664085,8.27881599 C9.79321228,8.88081599 9.31092656,9.36498265 8.72235513,9.36148265 C8.1337837,9.35681599 7.65949799,8.86681599 7.66292656,8.26481599 C7.66635513,7.66281599 8.14635513,7.17864932 8.73492656,7.18214932 C9.3257837,7.18448265 9.79892656,7.67681599 9.79664085,8.27881599 L9.79664085,8.27881599 Z M7.33035513,5.72731599 C7.3257837,6.32931599 6.84464085,6.81464932 6.25492656,6.80881599 C5.66635513,6.80648265 5.19092656,6.31531599 5.19549799,5.71448265 C5.1977837,5.11248265 5.67892656,4.62598265 6.26864085,4.63064932 C6.85835513,4.63531599 7.33264085,5.12531599 7.33035513,5.72731599 L7.33035513,5.72731599 Z M5.16349799,10.7836493 C5.1657837,10.1816493 5.64806942,9.69748265 6.23664085,9.70098265 C6.82635513,9.70448265 7.3017837,10.196816 7.29835513,10.7964827 C7.29264085,11.3984827 6.8137837,11.8826493 6.22292656,11.880316 C5.63435513,11.876816 5.15892656,11.3856493 5.16349799,10.7836493 L5.16349799,10.7836493 Z M4.82864085,8.24498265 C4.82635513,8.84814932 4.34521228,9.33348265 3.75664085,9.32998265 C3.1657837,9.32531599 2.69264085,8.83298265 2.69492656,8.23214932 C2.69949799,7.63131599 3.17835513,7.14598265 3.76921228,7.15064932 C4.36006942,7.15531599 4.83549799,7.64414932 4.82864085,8.24498265 L4.82864085,8.24498265 Z M31.8777837,16.4034827 L31.1143551,8.26014932 C31.123498,6.79831599 30.5509266,5.46948265 29.6172123,4.50464932 C29.3737837,4.25264932 29.1063551,4.02514932 28.8172123,3.82681599 C28.7566408,3.15481599 28.5223551,1.46431599 27.6880694,0.921815986 C27.6903551,0.686149319 27.3737837,0.135482652 25.7417837,0.122649319 C24.107498,0.113315986 23.7840694,0.660482652 23.7840694,0.896149319 C23.1223551,1.31381599 22.8240694,2.44781599 22.6926408,3.24114932 L9.34864085,3.15598265 C9.22635513,2.36148265 8.9417837,1.22281599 8.28692656,0.796982652 C8.28806942,0.560149319 7.96921228,0.0106493189 6.33835513,0.000149318854 C4.70521228,-0.0103506811 4.3817837,0.535649319 4.37949799,0.773649319 C3.53835513,1.30331599 3.2857837,2.99148265 3.21492656,3.66464932 C2.92464085,3.85831599 2.6537837,4.07998265 2.40806942,4.32848265 C1.46292656,5.28164932 0.873212276,6.60348265 0.864069418,8.06648265 L6.94184973e-05,16.199316 C-0.00564486722,17.088316 0.341783704,17.896816 0.909783704,18.4836493 C1.4777837,19.0704827 2.26406942,19.436816 3.13721228,19.4414827 C4.00806942,19.447316 4.79892656,19.0926493 5.3737837,18.5139827 L7.96464085,14.5449827 C8.11892656,14.8704827 8.32349799,15.1679827 8.57264085,15.4234827 C9.16121228,16.0324827 9.97606942,16.4104827 10.8800694,16.4186493 C11.7840694,16.4244827 12.6080694,16.0546493 13.203498,15.453816 C13.5840694,15.0711493 13.8686408,14.5951493 14.0309266,14.0596493 L17.8732123,14.085316 C18.027498,14.620816 18.3086408,15.100316 18.683498,15.488816 C19.2732123,16.0966493 20.0892123,16.4769827 20.9943551,16.4839827 C21.8983551,16.489816 22.7200694,16.1199827 23.3166408,15.5179827 C23.5669266,15.2671493 23.7749266,14.9719827 23.9349266,14.6464827 L26.475498,18.6481493 C27.0423551,19.2349827 27.8286408,19.601316 28.7017837,19.6059827 C29.5737837,19.611816 30.3646408,19.2571493 30.9406408,18.6761493 C31.515498,18.0974827 31.8732123,17.2936493 31.8777837,16.4034827 L31.8777837,16.4034827 Z" id="icon-game"></path>
    </g>
</svg>