<?xml version="1.0" encoding="utf-8"?>
<!-- Generator: Adobe Illustrator 16.0.0, SVG Export Plug-In . SVG Version: 6.00 Build 0)  -->
<!DOCTYPE svg PUBLIC "-//W3C//DTD SVG 1.1//EN" "http://www.w3.org/Graphics/SVG/1.1/DTD/svg11.dtd">
<svg version="1.1" id="Layer_1" xmlns="http://www.w3.org/2000/svg" xmlns:xlink="http://www.w3.org/1999/xlink" x="0px" y="0px"
	 width="254px" height="254px" viewBox="0 0 254 254" enable-background="new 0 0 254 254" xml:space="preserve">
<g>
	<path d="M126.974,253l-0.01-5.508c7.384-0.017,14.783-0.707,21.985-2.057l1.014,5.412
		C142.431,252.26,134.696,252.983,126.974,253z M103.977,250.94c-7.571-1.386-15.052-3.489-22.235-6.247l1.976-5.142
		c6.865,2.639,14.015,4.649,21.251,5.973L103.977,250.94z M172.173,244.503l-1.999-5.131c6.849-2.669,13.493-5.989,19.742-9.874
		l2.909,4.673C186.284,238.238,179.338,241.716,172.173,244.503z M61.039,234.445c-6.544-4.034-12.758-8.7-18.467-13.87l3.697-4.083
		c5.461,4.945,11.401,9.405,17.659,13.264L61.039,234.445z M211.229,220.228l-3.711-4.066c5.432-4.965,10.434-10.457,14.871-16.329
		l4.395,3.318C222.147,209.291,216.916,215.034,211.229,220.228z M26.955,203.563c-4.671-6.133-8.789-12.72-12.241-19.584
		l4.92-2.473c3.299,6.559,7.236,12.856,11.702,18.718L26.955,203.563z M238.943,183.513l-4.926-2.459
		c3.281-6.588,5.959-13.516,7.961-20.59l5.3,1.5C245.183,169.367,242.381,176.614,238.943,183.513z M6.292,162.47
		c-2.121-7.38-3.567-15.014-4.296-22.692l5.483-0.518c0.697,7.338,2.078,14.635,4.106,21.688L6.292,162.47z M251.476,139.256
		l-5.486-0.497c0.329-3.598,0.495-7.271,0.495-10.917c-0.002-3.732-0.177-7.486-0.517-11.166l5.483-0.508
		c0.358,3.846,0.538,7.775,0.54,11.674C251.991,131.655,251.817,135.495,251.476,139.256z M7.411,117.176l-5.485-0.486
		c0.681-7.686,2.078-15.331,4.152-22.721l5.303,1.491C9.397,102.521,8.062,109.83,7.411,117.176z M241.911,94.978
		c-2.014-7.064-4.709-13.986-8.006-20.569l4.926-2.468c3.447,6.89,6.267,14.134,8.373,21.526L241.911,94.978z M19.299,74.852
		l-4.935-2.444c3.409-6.884,7.486-13.5,12.121-19.664l4.402,3.311C26.457,61.947,22.559,68.272,19.299,74.852z M222.241,55.663
		c-4.443-5.862-9.461-11.346-14.902-16.299l3.705-4.073c5.693,5.181,10.938,10.914,15.586,17.043L222.241,55.663z M45.724,39.697
		L42,35.636c5.676-5.207,11.859-9.911,18.379-13.983l2.917,4.671C57.063,30.218,51.15,34.716,45.724,39.697z M189.705,26.063
		c-6.265-3.878-12.917-7.188-19.768-9.838l1.988-5.137c7.166,2.772,14.123,6.235,20.679,10.29L189.705,26.063z M83.018,16.406
		l-2.009-5.128c7.164-2.806,14.632-4.956,22.195-6.391l1.027,5.411C97.001,11.669,89.865,13.724,83.018,16.406z M148.701,10.206
		c-7.199-1.335-14.597-2.011-21.988-2.011h-0.491l-0.043-5.507h0.556c7.706,0,15.44,0.708,22.971,2.103L148.701,10.206z"/>
	<path d="M124.656,120c-2.866,0-5.195-2.326-5.195-5.198c0-2.869,2.329-5.196,5.195-5.196
		c2.873,0,5.198,2.327,5.198,5.196C129.854,117.674,127.528,120,124.656,120z M170.715,73.447v114.301
		c0,1.252-1.016,2.272-2.269,2.272H80.868c-1.253,0-2.272-1.017-2.272-2.272V73.447c0-1.254,1.02-2.272,2.272-2.272h87.578
		C169.699,71.176,170.715,72.193,170.715,73.447z M82.38,80.448c0,2.926,2.374,5.299,5.299,5.299s5.298-2.373,5.298-5.299
		c0-2.925-2.372-5.299-5.298-5.299C84.751,75.149,82.38,77.522,82.38,80.448z M92.978,180.368c0-2.928-2.372-5.301-5.298-5.301
		s-5.299,2.373-5.299,5.301c0,2.927,2.374,5.299,5.299,5.299S92.978,183.295,92.978,180.368z M94.806,163.147
		c4.076,0,7.379-3.306,7.379-7.382c0-4.073-3.303-7.379-7.379-7.379c-4.077,0-7.381,3.306-7.381,7.379
		C87.425,159.842,90.729,163.147,94.806,163.147z M150.176,176.586H99.034v8.324h51.142V176.586z M151.902,171.379
		c2.877,0,5.587-1.124,7.625-3.156c4.2-4.206,4.206-11.051,0-15.26c-0.617-0.615-1.32-1.159-2.091-1.621l-12.634-9.56
		c8.439-6.195,13.92-16.187,13.92-27.459c0-18.813-15.251-34.063-34.065-34.063c-18.81,0-34.063,15.25-34.063,34.063
		c0,18.812,15.25,34.063,34.061,34.063c1.877,0,3.717-0.156,5.508-0.449l12.083,17.453c0.524,1.056,1.205,2.009,2.028,2.832
		C146.312,170.258,149.02,171.379,151.902,171.379z M167.919,180.368c0-2.928-2.374-5.301-5.302-5.301s-5.3,2.373-5.3,5.301
		c0,2.927,2.372,5.299,5.3,5.299S167.919,183.295,167.919,180.368z M167.919,80.448c0-2.925-2.374-5.299-5.302-5.299
		s-5.3,2.374-5.3,5.299c0,2.926,2.372,5.299,5.3,5.299S167.919,83.374,167.919,80.448z M128.383,144.078
		c0.15,0.213,0.173,0.487,0.063,0.722c-0.108,0.233-0.331,0.393-0.587,0.423c-1.064,0.106-2.139,0.164-3.202,0.164
		c-16.862,0-30.583-13.72-30.583-30.584c0-16.861,13.721-30.584,30.581-30.584c16.866,0,30.583,13.723,30.583,30.584
		c0,10.038-4.94,19.447-13.212,25.167c-0.259,0.183-0.605,0.174-0.858-0.017l-19.517-14.769c-0.088-0.067-0.181-0.115-0.271-0.167
		c-0.157-0.088-0.27-0.225-0.328-0.381c-0.108,0.053-0.226,0.094-0.35,0.083c-0.048-0.005-0.102-0.005-0.157-0.013
		c-0.854-0.169-1.742,0.091-2.36,0.684c-0.952,0.914-1.1,2.368-0.348,3.452L128.383,144.078z M121.935,123.671
		c0.881,0.272,1.801,0.409,2.721,0.409c5.115,0,9.274-4.161,9.274-9.272c0-5.115-4.159-9.275-9.274-9.275
		c-5.112,0-9.272,4.16-9.272,9.275c0,3.665,2.157,6.979,5.502,8.47c0.234,0.054,0.425,0.22,0.511,0.444
		c0.102-0.055,0.215-0.081,0.331-0.081C121.794,123.642,121.864,123.649,121.935,123.671z M126.463,143.868l-9.826-14.196
		c-1.165-1.677-0.936-3.924,0.537-5.339c0.361-0.345,0.775-0.616,1.222-0.81c-2.773-1.987-4.476-5.213-4.476-8.715
		c0-5.922,4.814-10.738,10.736-10.738c5.92,0,10.735,4.815,10.735,10.738c0,5.918-4.814,10.732-10.735,10.732
		c-0.038,0-0.076,0-0.113,0l17.084,12.924c7.618-5.473,12.152-14.277,12.152-23.662c0-16.057-13.063-29.121-29.122-29.121
		c-16.056,0-29.12,13.064-29.12,29.121s13.064,29.124,29.12,29.124C125.258,143.926,125.86,143.906,126.463,143.868z
		 M157.404,155.642c-0.479-0.479-1.016-0.874-1.581-1.19l-35.502-26.865l25.163,36.356c0.357,0.772,0.847,1.499,1.483,2.139
		c2.881,2.881,7.555,2.881,10.438,0C160.285,163.195,160.285,158.525,157.404,155.642z M94.806,151.049
		c-2.608,0-4.717,2.111-4.717,4.717c0,2.608,2.109,4.72,4.717,4.72c2.605,0,4.716-2.111,4.716-4.72
		C99.522,153.16,97.409,151.049,94.806,151.049z"/>
</g>
</svg>
