<?xml version="1.0" encoding="utf-8"?>
<!-- Generator: Adobe Illustrator 16.0.0, SVG Export Plug-In . SVG Version: 6.00 Build 0)  -->
<!DOCTYPE svg PUBLIC "-//W3C//DTD SVG 1.1//EN" "http://www.w3.org/Graphics/SVG/1.1/DTD/svg11.dtd">
<svg version="1.1" id="Calque_1" xmlns="http://www.w3.org/2000/svg" xmlns:xlink="http://www.w3.org/1999/xlink" x="0px" y="0px"
	 width="59.375px" height="83px" viewBox="0 0 59.375 83" enable-background="new 0 0 59.375 83" xml:space="preserve">
<path d="M56.013,36.25h-2.144H50.75V22.124c0-7.135-3.587-13.711-9.689-17.587c-1.302-0.824-2.692-1.492-4.301-2.052
	c-8.231-2.843-15.731-0.604-21.241,4.914C11.587,11.336,9.75,16.57,9.75,22.124v2.372c0,2.006-0.063,11.754-0.063,11.754H3.819
	c-1.784,0-3.069,1.852-3.069,3.628v38.823c0,1.793,1.285,3.549,3.085,3.549h52.178c1.792,0,2.737-1.756,2.737-3.549V66.263v-4.127
	V45.051v-5.173C58.75,38.094,57.805,36.25,56.013,36.25 M36.488,70.25H23.36l1.959-11.545c-2.088-1.468-3.434-3.73-3.451-6.479
	c0-4.436,3.609-7.975,8.048-7.971c4.427,0,8.048,3.626,8.048,8.062c0,2.74-1.362,4.902-3.438,6.371L36.488,70.25z M42.75,36.25h-26
	V24.496V22.12c0-3.62,1.231-7.022,3.79-9.588c3.555-3.564,8.314-5.129,13.958-3.179c1.074,0.373,1.539,0.807,2.354,1.321
	c3.978,2.53,5.898,6.812,5.898,11.449V36.25z"/>
</svg>
