<?xml version="1.0" encoding="utf-8"?>
<!-- Generator: Adobe Illustrator 19.0.0, SVG Export Plug-In . SVG Version: 6.00 Build 0)  -->
<svg version="1.1" id="Layer_1" xmlns="http://www.w3.org/2000/svg" xmlns:xlink="http://www.w3.org/1999/xlink" x="0px" y="0px"
	 viewBox="-507 390.7 176.7 61.2" style="enable-background:new -507 390.7 176.7 61.2;" xml:space="preserve">
<style type="text/css">
	.st0{fill:#009DCC;}
</style>
<g>
	<g>
		<path class="st0" d="M-473.9,414.6c3-2.9,4.8-6.7,4.8-10.5c0-9.6-6.5-15.7-17.7-15.7h-10H-507v15.8V435c0,5.3,0.9,8.9,3.1,11.2
			c2.2,2.3,5.5,3.4,16.4,3.4c16,0,24.3-7.8,24.3-19.2C-463.2,423.4-466.5,417.3-473.9,414.6 M-498,404v-8.1h1.5h7.6
			c4.9,0,11.1,1.4,11.1,7.9c0,5.8-5.4,8.6-10.3,8.6h-10L-498,404L-498,404z M-485.7,441.7c-7.2,0-9.6-0.1-10.9-1.4
			c-1.3-1.4-1.4-4-1.4-8.5v-11.7h12.2c9.6,0,13.4,4.6,13.4,10.9C-472.4,437.9-477.2,441.7-485.7,441.7"/>
	</g>
	<g>
		<path class="st0" d="M-459.5,389.9v38.6c0,11.7,9.4,21.1,21.1,21.1s21.1-10.2,21.1-21.8c0-11.7-8.7-20.4-20.4-20.4
			c-4.9,0-10.6,2.5-13,5.9c0,0,0-19.1,0-23.3L-459.5,389.9L-459.5,389.9z M-438.4,441.6c-7,0-12.6-5.9-12.6-13.1s5.6-13.1,12.6-13.1
			s12.6,5.8,12.6,13.1C-425.8,435.7-431.5,441.6-438.4,441.6"/>
	</g>
	<g>
		<path class="st0" d="M-339.5,428.5c5.9-3.4,9.8-10.2,9.1-20.4h-8.5c0.6,9.5-3.7,16.8-11,16.8s-11.6-7.4-11.1-16.8h-8.5
			c-0.8,9.8,2.9,16.7,9.1,20.4c-6.1,3.6-9.8,10.3-9.1,20.5h8.5c-0.4-10.3,3.4-16.8,11-16.8s11.6,6.6,11.1,16.8h8.4
			C-329.5,438.4-333.4,431.8-339.5,428.5"/>
	</g>
	<g>
		<path class="st0" d="M-392.5,407.1c-11.7,0-21.2,9.5-21.2,21.3c0,11.7,9.5,21.2,21.3,21.2c11.7,0,21.2-9.5,21.2-21.3
			C-371.2,416.6-380.8,407.1-392.5,407.1 M-392.4,441.5c-7.1,0-12.9-5.9-12.9-13.2c0-7.3,5.7-13.2,12.9-13.2
			c7.1,0,12.9,5.9,12.9,13.1C-379.5,435.6-385.3,441.5-392.4,441.5"/>
	</g>
</g>
</svg>
