<svg width="203" height="128" viewBox="0 0 203 128" xmlns="http://www.w3.org/2000/svg" xmlns:sketch="http://www.bohemiancoding.com/sketch/ns"><title>colissimo</title><desc></desc><g><path d="M.697 119.107v-109.55c.986-4.345 3.023-7.75 7.793-8.709h187.013c.989.379 2.038.647 2.954 1.155 3.645 2.027 4.243 5.51 4.243 9.234.003 35.504.006 71.009-.016 106.514-.001 1.517-.124 3.058-.407 4.546-.571 3.002-2.463 4.62-5.511 4.881-.835.071-1.679.042-2.519.042-61.541.002-123.083.002-184.625.001-.687 0-1.377.034-2.061-.019-2.072-.158-3.96-.77-4.882-2.82-.769-1.709-1.329-3.513-1.982-5.275zm101.163 5.604c30.317 0 60.635.002 90.952-.001 6.12-.001 7.803-1.661 7.804-7.669v-36.885c-.001-6.338.033-12.677-.014-19.015-.033-4.352-2.041-6.47-6.332-6.839-.759-.065-1.525-.086-2.288-.086-59.184.007-118.367.017-177.551.032-1.831 0-3.672-.055-5.492.107-4.008.355-6.035 2.545-6.145 6.553-.062 2.29-.016 4.582-.016 6.873-.001 16.8-.007 33.601.006 50.402.003 4.079 2.213 6.341 6.291 6.513.838.035 1.68.015 2.52.015h90.265zm42.637-99.202c-.778-2.149-2.613-1.066-4.019-1.292-1.505-.243-1.967.487-1.943 1.965.075 4.659.026 9.32.027 13.98 0 3.432.002 3.344 3.508 3.396 1.714.026 2.275-.528 2.21-2.235-.114-2.975-.093-5.96.012-8.936.08-2.27 1.281-3.537 3.081-3.574 1.875-.039 2.901 1.101 2.97 3.543.078 2.748.164 5.509-.013 8.247-.146 2.243.425 3.166 2.869 2.973 2.937-.231 2.952-.052 2.955-3.079.001-.993-.041-1.988.008-2.979.109-2.198.092-4.423.452-6.583.273-1.635 1.583-2.309 3.283-2.121 1.706.188 2.07 1.424 2.119 2.777.096 2.671.094 5.345.104 8.018.015 4.15.429 4.544 4.611 3.847.507-.085 1.265-.893 1.275-1.379.083-4.122.221-8.261-.058-12.368-.279-4.116-2.876-6.4-6.856-5.935-2.032.237-3.945 1.493-6.093 2.362-3.372-3.251-5.969-3.484-10.502-.627zm-110.879-3.071c0-1.881-.098-3.392.026-4.884.149-1.78-.655-2.614-2.28-3.115-2.997-.923-5.986-1.153-9.01-.289-5.741 1.639-9.611 5.272-10.98 11.12-1.396 5.964.089 11.275 4.877 15.252 4.733 3.932 10.162 4.549 15.898 2.427.519-.192 1.286-.683 1.311-1.075.132-2.056.062-4.124.062-6.418-6.261 3.808-10.586 3.695-13.946-.099-3.063-3.459-3.096-9.172-.073-12.88 3.083-3.784 7.205-3.871 14.115-.039zm15.346 21.596c6.576.002 10.979-4.114 10.961-10.249-.018-5.985-4.452-10.109-10.871-10.112-6.595-.003-10.884 4.053-10.875 10.286.008 6.136 4.222 10.072 10.785 10.075zm134.945 0c6.582.009 11.075-4.155 11.019-10.21-.056-6.014-4.475-10.143-10.865-10.15-6.456-.009-11.073 4.264-11.068 10.241.004 5.908 4.538 10.11 10.914 10.119zm-118.757-33.102c-.072.742-.192 1.408-.192 2.074-.013 9.392.083 18.786-.065 28.176-.045 2.814 1.635 2.265 3.263 2.357 1.743.1 2.811-.076 2.78-2.365-.126-9.39-.049-18.784-.06-28.176 0-.659-.104-1.318-.167-2.066h-5.559zm36.704 15.02c-2.565-2.292-6.492-3.066-9.302-1.838-2.429 1.062-3.843 2.893-3.919 5.646-.075 2.683 1.429 4.208 3.709 5.171 1.119.472 2.319.781 3.376 1.358.496.272 1.128 1.125 1.011 1.499-.187.594-.993 1.457-1.459 1.411-1.221-.12-2.609-.392-3.555-1.103-2.253-1.693-2.481.728-3.458 1.511-1.36 1.091-.269 1.849.551 2.507 2.981 2.391 8.028 2.639 11.174.514 3.499-2.363 4.657-8.329-.45-10.553-1.255-.547-2.569-.976-3.772-1.617-.568-.303-.937-.98-1.397-1.488.711-.306 1.4-.744 2.141-.87.454-.077.995.494 1.485.474.774-.031 1.665-.127 2.27-.541.644-.442 1.013-1.285 1.595-2.081zm19.179-.124c-2.874-2.378-5.966-2.724-9.169-1.754-2.673.809-4.095 3.043-4.149 5.688-.057 2.805 1.529 4.326 3.949 5.246 1.066.405 2.202.704 3.159 1.291.526.323 1.128 1.249 1.001 1.714-.148.541-1.113 1.29-1.619 1.218-1.218-.174-2.514-.565-3.527-1.245-2.153-1.443-2.346.874-3.314 1.585-1.171.859-.511 1.684.328 2.398 3.075 2.615 8.468 2.802 11.745.398 3.607-2.646 3.26-8.141-.685-10.21-1.209-.634-2.575-.975-3.764-1.638-.591-.329-.944-1.084-1.405-1.647.733-.256 1.737-.953 2.153-.696 2.818 1.741 3.863-.295 5.297-2.348zm-44.294 7.787v5.933c0 4.289.187 4.494 4.509 3.905.552-.075 1.412-.948 1.422-1.466.105-5.399.113-10.802-.006-16.2-.012-.538-.955-1.257-1.614-1.522-.655-.263-1.505.002-2.258-.074-1.619-.162-2.139.557-2.077 2.122.096 2.43.025 4.867.024 7.302zm55.739.264c0-2.521-.072-5.045.026-7.562.06-1.553-.412-2.305-2.057-2.126-.756.082-1.6-.175-2.269.079-.599.228-1.432.938-1.441 1.449-.105 5.421-.105 10.846-.002 16.268.01.517.827 1.263 1.418 1.464.754.256 1.664.009 2.498.08 1.404.119 1.884-.487 1.846-1.861-.073-2.595-.021-5.194-.019-7.791zm-49.325-17.064c.055-1.843-1.555-3.502-3.418-3.519-1.723-.017-3.374 1.544-3.468 3.279-.102 1.893 1.416 3.529 3.33 3.588 1.949.061 3.497-1.396 3.556-3.348zm49.79.016c.045-1.984-1.457-3.55-3.386-3.53-1.805.018-3.322 1.536-3.361 3.363-.04 1.876 1.357 3.404 3.2 3.5 2.023.106 3.5-1.283 3.547-3.333z" /><path d="M190.54 91.445c.048 13.964-10.918 24.979-24.88 24.99-13.922.012-25.106-11.101-25.06-24.901.045-13.656 11.169-24.833 24.864-24.982 13.718-.149 25.029 11.079 25.076 24.893zm-24.58-23.737c-12.124-.002-22.285 10.161-22.157 22.163.128 12.059 10.073 21.901 22.136 21.907 12.229.006 22.177-9.959 22.083-22.119-.095-12.119-9.974-21.95-22.062-21.951z" /><path d="M61.218 83.437h4.928c0 4.003-.009 7.874.003 11.746.009 3.019 1.225 4.622 3.488 4.645 2.206.021 3.697-1.714 3.739-4.551.057-3.879.014-7.759.014-11.806h4.647v20.498c-1.637-.51-3.799 1.317-4.708-1.463-1.544.527-3.119 1.369-4.772 1.569-3.989.484-7.154-2.124-7.297-6.065-.174-4.788-.042-9.586-.042-14.573" /><path d="M21.744 93.587c-2.184-2.643-4.269-5.144-6.324-7.67-.472-.58-.997-1.191-1.225-1.878-.51-1.54-.052-2.876 1.341-3.763 1.311-.835 2.703-.83 3.736.37 3.324 3.86 6.635 7.738 9.794 11.734 1.152 1.457.626 3.099-.745 4.268-3.585 3.056-7.2 6.08-10.86 9.047-1.44 1.168-3.45.945-4.498-.428-1.183-1.548-1.143-3.162.34-4.482 2.215-1.973 4.531-3.833 6.8-5.746.507-.428.994-.879 1.641-1.452" /><path d="M53.838 85.322c-.614.656-1.164 1.187-1.648 1.774-.707.857-1.343 1.019-2.523.598-1.452-.518-3.147-.702-4.675-.517-.764.092-1.391 1.325-2.079 2.041.676.616 1.262 1.559 2.049 1.778 1.525.424 3.176.361 4.75.641 2.767.491 4.41 2.144 4.896 4.749.458 2.455-.775 5.055-3.04 6.412-3.892 2.332-10.551 1.708-14.364-1.499l2.469-2.596c2.67.452 4.895.955 7.147 1.166 1.481.139 2.798-.555 2.893-2.252.089-1.613-1.211-1.918-2.489-2.078-1.437-.18-2.876-.344-4.311-.532-2.343-.307-3.999-1.474-4.552-3.858-.613-2.642.382-5.273 2.438-6.69 3.329-2.295 9.696-1.934 13.039.863" /><path d="M97.042 83.429c4.954-.33 4.952-.33 6.382 3.924.896 2.667 1.795 5.332 2.706 7.993.037.107.209.167.55.423.959-2.858 1.899-5.628 2.815-8.405 1.423-4.314 1.416-4.316 6.408-3.911-.547 1.517-1.062 2.973-1.596 4.422-1.789 4.852-3.655 9.677-5.335 14.566-.496 1.443-1.341 1.535-2.565 1.556-1.25.022-2.047-.158-2.532-1.56-2.185-6.312-4.507-12.576-6.833-19.008" /><path d="M86.556 103.822v-20.361h4.724v20.361h-4.724" /><path d="M121.511 83.369h4.79v20.405h-4.79v-20.405" /><path d="M178.097 63.131c.697.426 1.223.715 1.715 1.054 1.618 1.115 3.325 2.135 4.779 3.435.526.469.436 1.628.626 2.473-.852.182-1.934.786-2.513.47-1.981-1.083-3.85-2.408-5.612-3.826-.482-.387-.714-1.496-.552-2.147.143-.572.996-.967 1.557-1.459" /><path d="M124.012 80.198c-1.724-.02-3.062-1.301-3.111-2.979-.053-1.829 1.243-3.097 3.17-3.101 1.879-.004 3.189 1.33 3.101 3.156-.08 1.641-1.488 2.944-3.16 2.924" /><path d="M89.049 80.197c-1.761.024-3.066-1.211-3.114-2.946-.051-1.869 1.245-3.16 3.143-3.13 1.818.029 3.006 1.227 2.997 3.022-.008 1.731-1.296 3.031-3.026 3.054" /><path d="M180.538 61.62l5.834 4.08-.4.579-5.932-4.092.498-.567" /><path d="M53.857 33.803c.038 2.727-2.153 4.993-4.827 4.992-2.618 0-4.788-2.1-4.871-4.711-.085-2.663 2.086-5.032 4.709-5.137 2.569-.104 4.952 2.216 4.989 4.856" /><path d="M184.018 28.921c2.573.01 4.981 2.446 4.954 5.014-.026 2.598-2.457 4.923-5.075 4.854-2.559-.068-4.799-2.331-4.817-4.865-.019-2.624 2.338-5.012 4.938-5.003" /><path d="M179.711 81.675c-.542.704-.962 1.572-1.647 2.086-2.923 2.191-5.962 4.229-8.871 6.439-.683.519-1.253 1.431-1.473 2.267-.559 2.116-1.862 3.148-3.972 2.826-1.766-.269-2.852-1.791-2.611-3.659.244-1.89 1.639-2.775 3.759-2.852 1.178-.044 2.481-.449 3.473-1.086 2.621-1.687 5.074-3.634 7.658-5.382.899-.608 1.986-.935 2.988-1.391l.696.752zm-15.035 13.557c1.092-1.484 2.08-2.254 2.223-3.157.209-1.323-.747-2.504-2.159-2.212-.86.179-2.112 1.284-2.131 2-.022.893 1.045 1.813 2.067 3.369z" /></g></svg>