<?xml version="1.0" encoding="UTF-8" standalone="no"?>
<svg width="32px" height="41px" viewBox="0 0 32 41" version="1.1" xmlns="http://www.w3.org/2000/svg" xmlns:xlink="http://www.w3.org/1999/xlink" xmlns:sketch="http://www.bohemiancoding.com/sketch/ns">
    <!-- Generator: Sketch 3.1.1 (8761) - http://www.bohemiancoding.com/sketch -->
    <title>icon-forfait-time@1x</title>
    <desc></desc>
    <defs></defs>
    <g id="Page-1" stroke="none" stroke-width="1"  fill-rule="evenodd" >
        <g id="icon-forfait-time"  transform="translate(0.000000, 1.000000)">
            <path d="M2.1956129,15.6378205 C2.1956129,7.98974359 8.28180645,1.78823077 15.7925161,1.78823077 L15.7925161,2.36958974 L15.5447742,2.36958974 L15.5447742,5.07769231 L15.7925161,5.07769231 L15.7925161,10.5475128 L21.9396129,4.28712821 L22.0903226,4.02010256 L22.1615484,4.06110256 L23.9504516,2.23923077 C21.5783226,0.734846154 18.7860645,-0.141923077 15.7935484,-0.141923077 C7.24851613,-0.141923077 0.298322581,6.93635897 0.298322581,15.6378205 C0.298322581,18.6854872 1.16541935,21.525 2.64154839,23.9397949 L4.01651613,22.5394872 C2.86451613,20.5063077 2.1956129,18.1545897 2.1956129,15.6378205 L2.1956129,15.6378205 Z M15.7935484,2.36958974 L16.0423226,2.36958974 L16.0423226,5.07769231 L15.7935484,5.07769231 L15.7935484,2.36958974 Z M23.9514839,2.23923077 L22.1615484,4.06215385 L22.5218065,4.27451282 L21.1932903,6.61992308 L20.7618065,6.36551282 L21.9385806,4.28923077 L15.7925161,10.5475128 L15.7925161,15.2604103 L28.0629677,11.5167949 L28.2415484,12.1244359 L15.7945806,15.9206154 L15.7945806,15.2604103 L15.3548387,15.3939231 L15.5344516,15.9994615 L15.7925161,15.9227179 L15.7925161,26.1979487 L15.5437419,26.1979487 L15.5437419,28.9060513 L15.7925161,28.9060513 L15.7925161,29.4874103 C10.7530323,29.4874103 6.36490323,26.6888974 4.01651613,22.5405385 L2.64154839,23.9397949 C5.37909677,28.4193077 10.2420645,31.4175641 15.7935484,31.4175641 C24.0185806,31.4175641 30.7674839,24.8565128 31.259871,16.605 L31.259871,14.6727436 C30.9460645,9.42264103 28.0970323,4.86638462 23.9514839,2.23923077 Z M24.8970323,10.578 L24.6482581,10.1385641 L26.9491613,8.7855641 L27.2,9.22289744 L24.8970323,10.578 L24.8970323,10.578 Z M16.0433548,27.5530513 L16.0433548,28.9060513 L15.7935484,28.9060513 L15.7935484,26.1979487 L16.0433548,26.1979487 L16.0433548,27.5530513 L16.0433548,27.5530513 Z M22.0903226,27.2555385 L20.7618065,24.9122308 L21.1932903,24.6578205 L22.523871,27.0021795 L22.0903226,27.2555385 L22.0903226,27.2555385 Z M26.9512258,22.4911282 L24.6492903,21.1381282 L24.8980645,20.6997436 L27.2020645,22.0548462 L26.9512258,22.4911282 L26.9512258,22.4911282 Z M26.1625806,15.3855128 L28.8216774,15.3855128 L28.8216774,15.8943333 L26.1625806,15.8943333 L26.1625806,15.3855128 Z" id="Fill-1" ></path>
            <path d="M2.76541935,15.3855128 L5.42451613,15.3855128 L5.42451613,15.8943333 L2.76541935,15.8943333 L2.76541935,15.3855128 Z" id="Fill-4" ></path>
            <path d="M4.38503226,22.0548462 L4.63483871,22.4911282 L6.93780645,21.1381282 L6.68903226,20.6997436 L4.38503226,22.0548462" id="Fill-5" ></path>
            <path d="M9.06219355,27.0021795 L9.49574194,27.2555385 L10.8232258,24.9122308 L10.3917419,24.6578205 L9.06219355,27.0021795" id="Fill-6" ></path>
            <path d="M9.06425806,4.27451282 L10.3927742,6.61992308 L10.8242581,6.36551282 L9.49574194,4.02010256 L9.06425806,4.27451282" id="Fill-7" ></path>
            <path d="M4.38709677,9.22289744 L6.68903226,10.578 L6.93780645,10.1385641 L4.63690323,8.7855641 L4.38709677,9.22289744" id="Fill-8" ></path>
            <path d="M7.91122581,36.0684359 L8.94967742,35.0581538 C9.16129032,34.8478974 9.29858065,34.686 9.29858065,34.3926923 C9.29858065,34.0678462 9.04877419,33.8691538 8.70709677,33.8691538 L6.12129032,33.8691538 C5.84877419,33.8691538 5.62064516,34.0983333 5.62064516,34.3758718 C5.62064516,34.6555128 5.84877419,34.8867949 6.12129032,34.8867949 L7.75225806,34.8867949 L6.72103226,35.9443846 C6.53832258,36.1294103 6.47019355,36.2713333 6.47019355,36.4311282 C6.47019355,36.7107692 6.69729032,36.9431026 6.96980645,36.9431026 L7.15251613,36.9431026 C7.80387097,36.9431026 8.19096774,37.1891026 8.19096774,37.6285385 L8.19096774,37.645359 C8.19096774,38.0458974 7.88025806,38.3003077 7.43948387,38.3003077 C7.02348387,38.3003077 6.70554839,38.1625897 6.40103226,37.8997692 C6.31019355,37.8219744 6.1956129,37.7515385 6.03045161,37.7515385 C5.72593548,37.7515385 5.46787097,38.014359 5.46787097,38.3244872 C5.46787097,38.4926923 5.55974194,38.6566923 5.66503226,38.7492051 C6.09858065,39.1276667 6.66735484,39.3652564 7.424,39.3652564 C8.60903226,39.3652564 9.33677419,38.6177949 9.33677419,37.5980513 L9.33677419,37.5833333 C9.33677419,36.579359 8.63070968,36.1935385 7.91122581,36.0684359" id="Fill-16" ></path>
            <path d="M12.196129,33.776641 C10.7860645,33.776641 9.82916129,35.0045385 9.82916129,36.5709487 L9.82916129,36.5877692 C9.82916129,38.1541795 10.7633548,39.3652564 12.1816774,39.3652564 C13.6,39.3652564 14.5476129,38.137359 14.5476129,36.5709487 L14.5476129,36.5541282 C14.5476129,34.9877179 13.6,33.776641 12.196129,33.776641 L12.196129,33.776641 Z M13.3491613,36.5877692 C13.3491613,37.5665128 12.9011613,38.294 12.196129,38.294 C11.4910968,38.294 11.0286452,37.5591538 11.0286452,36.5709487 L11.0286452,36.5541282 C11.0286452,35.5669744 11.483871,34.8478974 12.1816774,34.8478974 C12.8794839,34.8478974 13.3491613,35.5890513 13.3491613,36.5709487 L13.3491613,36.5877692 L13.3491613,36.5877692 Z" id="Fill-17" ></path>
            <path d="M20.3024516,35.0581538 C19.7501935,35.0581538 19.3259355,35.2894359 18.9677419,35.7152051 C18.756129,35.2957436 18.3545806,35.0581538 17.824,35.0581538 C17.2397419,35.0581538 16.8908387,35.3735385 16.6245161,35.7204615 L16.6245161,35.6752564 C16.6245161,35.3514615 16.3674839,35.088641 16.0485161,35.088641 C15.7316129,35.088641 15.4714839,35.3514615 15.4714839,35.6752564 L15.4714839,38.7334359 C15.4714839,39.0572308 15.7316129,39.3200513 16.0485161,39.3200513 C16.3674839,39.3200513 16.6245161,39.0572308 16.6245161,38.7334359 L16.6245161,36.9651795 C16.6245161,36.4090513 16.8908387,36.1231026 17.3223226,36.1231026 C17.755871,36.1231026 17.9974194,36.4090513 17.9974194,36.9651795 L17.9974194,38.7334359 C17.9974194,39.0572308 18.2554839,39.3200513 18.5744516,39.3200513 C18.8934194,39.3200513 19.1504516,39.0572308 19.1504516,38.7334359 L19.1504516,36.9651795 C19.1504516,36.4090513 19.4167742,36.1231026 19.8482581,36.1231026 C20.2807742,36.1231026 20.5233548,36.4090513 20.5233548,36.9651795 L20.5233548,38.7334359 C20.5233548,39.0572308 20.7814194,39.3200513 21.0993548,39.3200513 C21.4172903,39.3200513 21.6753548,39.0572308 21.6753548,38.7334359 L21.6753548,36.579359 C21.6753548,35.5837949 21.1592258,35.0581538 20.3024516,35.0581538" id="Fill-18" ></path>
            <path d="M24.7050323,35.0581538 C24.1207742,35.0581538 23.780129,35.3735385 23.5138065,35.7204615 L23.5138065,35.6752564 C23.5138065,35.3514615 23.2557419,35.088641 22.9378065,35.088641 C22.6188387,35.088641 22.3607742,35.3514615 22.3607742,35.6752564 L22.3607742,38.7334359 C22.3607742,39.0572308 22.6188387,39.3200513 22.9378065,39.3200513 C23.2557419,39.3200513 23.5138065,39.0572308 23.5138065,38.7334359 L23.5138065,36.9651795 C23.5138065,36.4090513 23.7945806,36.1231026 24.2343226,36.1231026 C24.6750968,36.1231026 24.9331613,36.4090513 24.9331613,36.9651795 L24.9331613,38.7334359 C24.9331613,39.0572308 25.1891613,39.3200513 25.508129,39.3200513 C25.828129,39.3200513 26.084129,39.0572308 26.084129,38.7334359 L26.084129,36.5940769 C26.084129,35.6426667 25.5762581,35.0581538 24.7050323,35.0581538" id="Fill-19" ></path>
        </g>
    </g>
</svg>