<?xml version="1.0" encoding="utf-8"?>
<!-- Generator: Adobe Illustrator 16.0.0, SVG Export Plug-In . SVG Version: 6.00 Build 0)  -->
<!DOCTYPE svg PUBLIC "-//W3C//DTD SVG 1.1//EN" "http://www.w3.org/Graphics/SVG/1.1/DTD/svg11.dtd">
<svg version="1.1" id="Calque_1" xmlns="http://www.w3.org/2000/svg" xmlns:xlink="http://www.w3.org/1999/xlink" x="0px" y="0px"
	 width="256px" height="205px" viewBox="0 0 256 205" enable-background="new 0 0 256 205" xml:space="preserve">
<path fill-rule="evenodd" clip-rule="evenodd" d="M225.28,205H30.72C13.754,205,0,191.232,0,174.25V30.75
	C0,13.767,13.754,0,30.72,0h194.56C242.246,0,256,13.767,256,30.75v143.5C256,191.232,242.246,205,225.28,205z M220.16,51.25
	c0-8.491-6.877-15.375-15.36-15.375H51.2c-8.483,0-15.36,6.884-15.36,15.375v102.5c0,8.491,6.877,15.375,15.36,15.375h153.6
	c8.483,0,15.36-6.884,15.36-15.375V51.25z M174.08,127.61v0.515H153.6H133.12v-10.25V102.5V87.125v-10.25H153.6h20.48v0.515
	c11.685,2.375,20.48,12.713,20.48,25.11C194.561,114.897,185.765,125.235,174.08,127.61z M158.72,87.125h-5.12v30.75h5.12
	c8.483,0,15.36-6.884,15.36-15.375S167.203,87.125,158.72,87.125z M102.4,107.625H81.92v20.5H61.44v-20.5v-10.25v-20.5h20.48v20.5
	h20.48v-20.5h20.48v20.5v10.25v20.5H102.4V107.625z"/>
</svg>
