<?xml version="1.0" encoding="utf-8"?>
<!-- Generator: Adobe Illustrator 16.0.0, SVG Export Plug-In . SVG Version: 6.00 Build 0)  -->
<!DOCTYPE svg PUBLIC "-//W3C//DTD SVG 1.1//EN" "http://www.w3.org/Graphics/SVG/1.1/DTD/svg11.dtd">
<!-- <svg version="1.1" id="Layer_1" xmlns="http://www.w3.org/2000/svg" xmlns:xlink="http://www.w3.org/1999/xlink" x="0px" y="0px"
     width="90px" height="90px" viewBox="0 0 90 90" enable-background="new 0 0 90 90" xml:space="preserve">

<circle fill="#FFFFFF" stroke="#0066A7" stroke-width="3" stroke-miterlimit="10" cx="45" cy="45" r="39.334"/>
</svg> -->
<svg class="progress-meter icon" version="1.1" x="0px" y="0px" width="90px" height="90px">
    <!-- <path id='radial' fill="#0065a6"
          stroke-dashoffset="-200"
          stroke-dasharray="282 282"
          stroke-width="8"
          d="M45,4C22.392,4,4,22.393,4,45c0,22.608,18.392,41,41,41s41-18.392,41-41S67.608,4,45,4z"/> -->
    <!-- <path id="radial-progress" fill="none" d="M45,4C22.392,4,4,22.393,4,45c0,22.607,18.392,41,41,41c22.607,0,41-18.393,41-41C86,22.392,67.607,4,45,4z"
    stroke-width="5"/> -->     
    <circle id="radial-background" fill="#FFFFFF" stroke="#0066A7" stroke-width="6" stroke-miterlimit="10" cx="45" cy="45" r="39.334"/>
    <path id="radial-progress-bar" fill="none"
          stroke-dashoffset="-200"
          stroke-dasharray="282 282"
          stroke-width="6"
          d="M45,4C22.392,4,4,22.393,4,45c0,22.608,18.392,41,41,41s41-18.392,41-41S67.608,4,45,4z"/>      
</svg>
