<?xml version="1.0" encoding="utf-8"?>
<!-- Generator: Adobe Illustrator 15.1.0, SVG Export Plug-In . SVG Version: 6.00 Build 0)  -->
<!DOCTYPE svg PUBLIC "-//W3C//DTD SVG 1.1//EN" "http://www.w3.org/Graphics/SVG/1.1/DTD/svg11.dtd">
<svg version="1.1" id="Layer_1" xmlns="http://www.w3.org/2000/svg" xmlns:xlink="http://www.w3.org/1999/xlink" x="0px" y="0px"
	 width="865px" height="270px" viewBox="0 0 865 270" enable-background="new 0 0 865 270" xml:space="preserve">
<g>
	<g>
		<path fill="#EB5B00" d="M191.024,262.458c22.773,15.727,67.834-9.969,100.637-57.482c32.808-47.51,40.938-98.718,18.166-114.443
			c-22.778-15.727-66.703,8.657-99.51,56.171C177.515,194.212,168.255,246.731,191.024,262.458z"/>
		<path fill="#0053A5" d="M134.218,262.458c-22.773,15.727-67.834-9.969-100.638-57.482C0.774,157.466-7.357,106.258,15.414,90.532
			c22.779-15.727,66.703,8.657,99.511,56.171C147.728,194.212,156.987,246.731,134.218,262.458z"/>
		<ellipse fill="#009BCD" cx="162.603" cy="51.042" rx="104.646" ry="50.042"/>
	</g>
</g>
</svg>
