<?xml version="1.0" encoding="UTF-8" standalone="no"?>
<svg width="33px" height="24px" viewBox="0 0 33 24" version="1.1" xmlns="http://www.w3.org/2000/svg" xmlns:xlink="http://www.w3.org/1999/xlink" xmlns:sketch="http://www.bohemiancoding.com/sketch/ns">
    <!-- Generator: Sketch 3.1.1 (8761) - http://www.bohemiancoding.com/sketch -->
    <title>icon-boxmobile@1x</title>
    <desc></desc>
    <defs></defs>
    <g id="Page-1" stroke="none" stroke-width="1"  fill-rule="evenodd" >
        <g id="icon-boxmobile"  transform="translate(1.000000, 1.000000)">
            <path d="M23.6684255,5.99082353 C22.9351489,5.51011765 22.0622979,5.24470588 21.1322553,5.28070588 C20.8476596,5.28917647 20.6222979,5.53976471 20.6325106,5.83764706 C20.6434043,6.13482353 20.8851064,6.36705882 21.1731064,6.35858824 C21.7974468,6.33529412 22.3843404,6.50117647 22.8990638,6.78776471 C23.9298723,7.36305882 24.6556596,8.45929412 24.7012766,9.75529412 C24.7128511,10.0524706 24.955234,10.2868235 25.2411915,10.2755294 C25.5251064,10.2621176 25.7518298,10.0171765 25.7382128,9.71858824 C25.6830638,8.14094118 24.8646809,6.77717647 23.6684255,5.99082353 Z M25.5074043,4.08494118 C24.2648511,3.11576471 22.7077447,2.56164706 21.0369362,2.62517647 C20.9116596,2.63011765 20.8006809,2.688 20.7121702,2.76917647 L20.6597447,2.82494118 C20.5814468,2.92305882 20.5324255,3.04658824 20.5385532,3.18211765 C20.5494468,3.47929412 20.7884255,3.71223529 21.0764255,3.70094118 C22.4469787,3.64729412 23.7242553,4.08564706 24.7625532,4.85576471 C25.9697021,5.75294118 26.843234,7.10188235 27.1441702,8.67458824 C27.2054468,8.99435294 27.2497021,9.32047059 27.2619574,9.65647059 C27.2708085,9.95858824 27.5125106,10.188 27.7998298,10.1795294 C28.0885106,10.1689412 28.3111489,9.91552941 28.3002553,9.61905882 C28.2771064,8.98164706 28.1681702,8.37176471 27.9979574,7.788 C27.5615319,6.29152941 26.6784681,5.00047059 25.5074043,4.08494118 Z M30.2025532,5.50235294 C29.5720851,4.13082353 28.6515745,2.93505882 27.5322553,1.98494118 C26.363234,0.991764706 24.9763404,0.276 23.4594043,-0.0783529412 C22.6471489,-0.267529412 21.8022128,-0.365647059 20.932766,-0.331764706 C20.644766,-0.323294118 20.4234894,-0.0741176471 20.434383,0.223764706 C20.4439149,0.518823529 20.6849362,0.756 20.9722553,0.743294118 C21.5169362,0.722117647 22.0520851,0.760235294 22.573617,0.839294118 C24.1511489,1.07858824 25.5993191,1.75270588 26.7969362,2.74658824 C27.9305532,3.68752941 28.8354043,4.91152941 29.4141277,6.32047059 C29.8246809,7.31858824 30.0772766,8.40494118 30.1174468,9.55129412 C30.1269787,9.84705882 30.3693617,10.0778824 30.6539574,10.0687059 C30.9405957,10.0574118 31.1639149,9.80611765 31.1550638,9.51247059 C31.1033191,8.07741176 30.7649362,6.72211765 30.2025532,5.50235294 Z" id="Fill-1" ></path>
            <path d="M21.952,19.2345882 C21.952,21.4065882 19.9979574,21.4912941 19.7705532,21.4927059 L3.33276596,21.4927059 C3.1053617,21.4927059 2.90451064,21.4651765 2.72068085,21.4221176 C1.22348936,21.0691765 1.15608511,19.4371765 1.1547234,19.2345882 L1.1547234,12.1482353 C1.1547234,9.97341176 3.11285106,9.89152941 3.33276596,9.88941176 L19.7732766,9.88941176 C19.8182128,9.88941176 19.8577021,9.89505882 19.9005957,9.89647059 C21.8682553,9.98117647 21.9492766,11.9237647 21.952,12.1482353 L21.952,19.2345882 L21.952,19.2345882 Z M20.9225532,8.83694118 C20.5868936,8.72964706 20.2083404,8.66329412 19.7732766,8.66329412 L3.33276596,8.66329412 C2.17191489,8.66329412 -0.0272340426,9.39105882 -0.0272340426,12.1482353 L-0.0272340426,19.2345882 C-0.0272340426,20.16 0.390808511,21.7164706 1.78791489,22.3891765 C2.2107234,22.5931765 2.7172766,22.7188235 3.33276596,22.7188235 L19.7732766,22.7188235 C20.9354894,22.7188235 23.1339574,21.9903529 23.1339574,19.2345882 L23.1339574,12.1482353 C23.1339574,11.1409412 22.6382979,9.38682353 20.9225532,8.83694118 L20.9225532,8.83694118 Z" id="Fill-3" ></path>
            <path d="M18.4462979,15.2414118 C17.6170213,15.2414118 16.9429787,14.58 16.9429787,13.7668235 C16.9429787,12.9536471 17.6170213,12.2922353 18.4462979,12.2922353 C19.2748936,12.2922353 19.9516596,12.9536471 19.9516596,13.7668235 C19.9516596,14.58 19.2748936,15.2414118 18.4462979,15.2414118 M18.4462979,11.6802353 C18.3455319,11.6802353 18.2488511,11.6964706 18.1501277,11.7112941 C17.2691064,11.8468235 16.5787234,12.5632941 16.4520851,13.4724706 C16.4384681,13.5698824 16.4228085,13.6658824 16.4228085,13.7668235 C16.4228085,14.9181176 17.330383,15.8512941 18.4462979,15.8512941 C19.5622128,15.8512941 20.4704681,14.9181176 20.4704681,13.7668235 C20.4704681,12.6183529 19.5622128,11.6802353 18.4462979,11.6802353" id="Fill-4" ></path>
            <path d="M18.4462979,13.9355294 C18.5177872,13.9355294 18.5770213,13.8684706 18.5770213,13.7830588 L18.5770213,12.7898824 C18.5770213,12.7037647 18.5177872,12.6367059 18.4462979,12.6367059 C18.3741277,12.6367059 18.3162553,12.7037647 18.3162553,12.7898824 L18.3162553,13.7830588 C18.3162553,13.8684706 18.3741277,13.9355294 18.4462979,13.9355294 Z M18.7411064,13.0997647 L18.7411064,13.4774118 C18.7901277,13.5522353 18.8268936,13.6355294 18.8268936,13.7364706 C18.8268936,13.9828235 18.6566809,14.1832941 18.4462979,14.1832941 C18.2372766,14.1832941 18.0650213,13.9828235 18.0650213,13.7364706 C18.0650213,13.6355294 18.1017872,13.5522353 18.1521702,13.4774118 L18.1521702,13.0997647 C17.9533617,13.2254118 17.8049362,13.4527059 17.8049362,13.7364706 C17.8049362,14.1508235 18.093617,14.4882353 18.4462979,14.4882353 C18.8003404,14.4882353 19.0869787,14.1508235 19.0869787,13.7364706 C19.0869787,13.4527059 18.9385532,13.2254118 18.7411064,13.0997647 Z" id="Fill-5" ></path>
        </g>
    </g>
</svg>