<?xml version="1.0" encoding="utf-8"?>
<!-- Generator: Adobe Illustrator 16.0.0, SVG Export Plug-In . SVG Version: 6.00 Build 0)  -->
<!DOCTYPE svg PUBLIC "-//W3C//DTD SVG 1.1//EN" "http://www.w3.org/Graphics/SVG/1.1/DTD/svg11.dtd">
<svg version="1.1" id="Layer_1" xmlns="http://www.w3.org/2000/svg" xmlns:xlink="http://www.w3.org/1999/xlink" x="0px" y="0px"
	 width="74.074px" height="51.214px" viewBox="0 0 74.074 51.214" enable-background="new 0 0 74.074 51.214" xml:space="preserve">
<g>
	<defs>
		<rect id="SVGID_1_" width="74.074" height="51.214"/>
	</defs>
	<clipPath id="SVGID_2_">
		<!-- <use xlink:href="#SVGID_1_"  overflow="visible"/> -->
	</clipPath>
	<path clip-path="url(#SVGID_1_)" d="M47.619,28.872l-9.5-5.471c-0.855-0.477-1.936-0.17-2.413,0.687
		c-0.477,0.855-0.169,1.935,0.687,2.411l9.5,5.474c0.273,0.152,0.57,0.224,0.862,0.224c0.623,0,1.227-0.329,1.551-0.909
		C48.782,30.43,48.475,29.351,47.619,28.872"/>
	<path clip-path="url(#SVGID_1_)" d="M73.992,44.077l-2.806-8.885c-0.296-0.935-1.294-1.452-2.227-1.157
		c-0.936,0.296-1.452,1.292-1.157,2.227l1.597,5.057l-10.2-5.822l1.783-1.782c5.777-5.823,5.781-12.833,3.857-17.449
		c-2.013-4.83-6.172-7.829-10.86-7.829c-2.588,0-6.4,0.93-10.466,5.108c-4.082-4.21-7.909-5.149-10.506-5.149
		c-4.368,0-8.28,2.607-10.42,6.871l-4.936-2.75L14.931,3.9c-0.294-0.934-1.291-1.452-2.226-1.157
		c-0.933,0.295-1.451,1.292-1.157,2.226L13.137,10l-0.925-0.515L9.607,1.24C9.313,0.306,8.316-0.212,7.382,0.083
		C6.45,0.377,5.931,1.375,6.226,2.309l2.276,7.205l-7.274,2.357c-0.931,0.302-1.443,1.303-1.14,2.234
		c0.243,0.751,0.939,1.227,1.686,1.227c0.181,0,0.366-0.027,0.547-0.087l8.184-2.651l0.743,0.414l-4.7,1.523
		c-0.931,0.303-1.443,1.303-1.14,2.235c0.243,0.75,0.939,1.227,1.686,1.227c0.182,0,0.366-0.028,0.547-0.087l7.837-2.539
		l5.897,3.287c-1.001,4.438-0.212,10.144,4.628,15.023l17.479,17.537L56.596,38.1l10.881,6.21l-4.676,1.517
		c-0.934,0.302-1.443,1.302-1.142,2.232c0.243,0.752,0.94,1.228,1.688,1.228c0.181,0,0.366-0.027,0.547-0.086l8.949-2.899
		C73.773,45.999,74.283,45.006,73.992,44.077 M28.523,31.175c-4.55-4.585-4.585-10.026-3.101-13.587
		c1.45-3.483,4.357-5.647,7.587-5.647c2.902,0,5.909,1.69,8.719,4.898l1.456,1.72l1.681-1.72c2.924-3.506,6.077-4.857,9.116-4.857
		c3.229,0,6.136,2.163,7.586,5.645c1.484,3.562,1.448,9.001-3.097,13.582L43.488,46.19L28.523,31.175z"/>
</g>
</svg>
