<?xml version="1.0" encoding="UTF-8" standalone="no"?>
<svg width="31px" height="31px" viewBox="0 0 31 31" version="1.1" xmlns="http://www.w3.org/2000/svg" xmlns:xlink="http://www.w3.org/1999/xlink" xmlns:sketch="http://www.bohemiancoding.com/sketch/ns">
    <!-- Generator: Sketch 3.1.1 (8761) - http://www.bohemiancoding.com/sketch -->
    <title>icon-international@1x</title>
    <desc></desc>
    <defs></defs>
    <g id="Page-1" stroke="none" stroke-width="1"  fill-rule="evenodd" >
        <path d="M27.1015385,20.60508 C25.4929231,21.13084 23.8609231,21.54996 22.2092308,21.85252 C22.7064615,19.93424 23.0006154,17.78408 23.0338462,15.50248 L28.1378462,15.50248 C28.0873846,17.30916 27.7292308,19.03276 27.1015385,20.60508 L27.1015385,20.60508 Z M18.8172308,28.49272 C20.112,27.20684 21.1938462,25.22656 21.9421538,22.8036 C23.52,22.52832 25.0769231,22.15508 26.6203077,21.69008 C24.9858462,24.97608 22.1821538,27.46352 18.8172308,28.49272 L18.8172308,28.49272 Z M15.8116923,28.9726 L15.8116923,23.36408 C17.4190769,23.34672 19.0178462,23.23016 20.6067692,23.0144 C19.5335385,26.37604 17.8030769,28.67004 15.8116923,28.9726 L15.8116923,28.9726 Z M15.8116923,15.50248 L21.7501538,15.50248 C21.7144615,17.89568 21.4018462,20.1376 20.8812308,22.07696 C19.2012308,22.32248 17.5113846,22.45268 15.8116923,22.47252 L15.8116923,15.50248 L15.8116923,15.50248 Z M15.8116923,7.6384 C17.5113846,7.65948 19.2012308,7.78844 20.8812308,8.0352 C21.4018462,9.97828 21.7144615,12.21772 21.7501538,14.6134 L15.8116923,14.6134 L15.8116923,7.6384 L15.8116923,7.6384 Z M15.8116923,1.1408 C17.8030769,1.44584 19.5335385,3.7386 20.6067692,7.10024 C19.0178462,6.88324 17.4190769,6.77164 15.8116923,6.7518 L15.8116923,1.1408 L15.8116923,1.1408 Z M26.6203077,8.42084 C25.0769231,7.95336 23.52,7.5826 21.9421538,7.31352 C21.1938462,4.88932 20.112,2.90408 18.8172308,1.62192 C22.1821538,2.64988 24.9858462,5.13856 26.6203077,8.42084 L26.6203077,8.42084 Z M28.1378462,14.6134 L23.0338462,14.6134 C23.0006154,12.32932 22.7064615,10.17916 22.2092308,8.2584 C23.8609231,8.56592 25.4929231,8.98504 27.1015385,9.5108 C27.7292308,11.08188 28.0873846,12.80424 28.1378462,14.6134 L28.1378462,14.6134 Z M14.9070769,6.7518 C13.3058462,6.77164 11.7009231,6.88324 10.1132308,7.10024 C11.1852308,3.7386 12.9181538,1.44584 14.9070769,1.1408 L14.9070769,6.7518 L14.9070769,6.7518 Z M14.9070769,14.6134 L8.97353846,14.6134 C9.01046154,12.21772 9.31815385,9.97828 9.84,8.0352 C11.52,7.78844 13.2123077,7.65948 14.9070769,7.6384 L14.9070769,14.6134 L14.9070769,14.6134 Z M14.9070769,22.47252 C13.2123077,22.45268 11.52,22.32248 9.84,22.07696 C9.31815385,20.1376 9.01046154,17.89568 8.97353846,15.50248 L14.9070769,15.50248 L14.9070769,22.47252 L14.9070769,22.47252 Z M14.9070769,28.9726 C12.9181538,28.67004 11.1852308,26.37604 10.1132308,23.0144 C11.7009231,23.23016 13.3058462,23.34672 14.9070769,23.36408 L14.9070769,28.9726 L14.9070769,28.9726 Z M4.10338462,21.69008 C5.64184615,22.15508 7.20615385,22.52832 8.78153846,22.8036 C9.52738462,25.22656 10.6055385,27.20684 11.904,28.49272 C8.54153846,27.46352 5.73292308,24.97608 4.10338462,21.69008 L4.10338462,21.69008 Z M2.58584615,15.50248 L7.68984615,15.50248 C7.72430769,17.78408 8.016,19.93424 8.512,21.85252 C6.86030769,21.54996 5.22830769,21.13084 3.62338462,20.60508 C2.99692308,19.03276 2.63876923,17.30916 2.58584615,15.50248 L2.58584615,15.50248 Z M3.62338462,9.5108 C5.22830769,8.98504 6.86030769,8.56592 8.512,8.2584 C8.016,10.17916 7.72430769,12.32932 7.68984615,14.6134 L2.58584615,14.6134 C2.63876923,12.80424 2.99692308,11.08188 3.62338462,9.5108 L3.62338462,9.5108 Z M11.904,1.62192 C10.6055385,2.90408 9.52738462,4.88932 8.78153846,7.31352 C7.20615385,7.5826 5.64184615,7.95336 4.10338462,8.42084 C5.73292308,5.13856 8.54153846,2.64988 11.904,1.62192 L11.904,1.62192 Z M15.3612308,0 C6.87630769,0 0,6.7394 0,15.05856 C0,23.37524 6.87630769,30.11588 15.3612308,30.11588 C23.8436923,30.11588 30.7212308,23.37524 30.7212308,15.05856 C30.7212308,6.7394 23.8436923,0 15.3612308,0 L15.3612308,0 Z" id="icon-international"></path>
    </g>
</svg>