<?xml version="1.0" encoding="UTF-8" standalone="no"?>
<svg width="31px" height="32px" viewBox="0 0 31 32" version="1.1" xmlns="http://www.w3.org/2000/svg" xmlns:xlink="http://www.w3.org/1999/xlink" xmlns:sketch="http://www.bohemiancoding.com/sketch/ns">
    <!-- Generator: Sketch 3.1.1 (8761) - http://www.bohemiancoding.com/sketch -->
    <title>icon-shopping-cart@1x</title>
    <desc></desc>
    <defs></defs>
    <g id="Page-1" stroke="none" stroke-width="1"  fill-rule="evenodd" >
        <g id="icon-shopping-cart">
            <path d="M28.1467083,11.18848 C28.074375,11.1616 27.9994583,11.1424 27.9167917,11.1424 L23.021375,11.1424 L23.5147917,7.88736 L28.3714583,7.87584 L29.143875,7.87328 L28.1467083,11.18848 L28.1467083,11.18848 Z M26.5954167,16.3392 L22.2334583,16.3392 L22.8185833,12.48256 L27.7553333,12.48256 L26.5954167,16.3392 L26.5954167,16.3392 Z M25.39675,20.3136 L24.99375,20.3136 L21.6315417,20.30208 L22.029375,17.68064 L26.191125,17.68064 L25.5685417,19.74272 L25.39675,20.3136 L25.39675,20.3136 Z M10.7105,20.2688 L10.419875,17.68064 L15.186125,17.68064 L15.2855833,20.28288 L10.7105,20.2688 L10.7105,20.2688 Z M9.38395833,8.44032 L9.32583333,7.91936 L9.91095833,7.91808 L10.0336667,7.91808 L14.814125,7.90784 L14.9368333,11.1424 L9.69783333,11.1424 C9.69525,11.1424 9.69008333,11.14368 9.6875,11.14368 L9.39558333,8.54784 L9.38395833,8.44032 L9.38395833,8.44032 Z M10.26875,16.3392 L9.83733333,12.48256 L14.9872083,12.48256 L15.1344583,16.3392 L10.26875,16.3392 L10.26875,16.3392 Z M20.262375,20.29824 L16.63925,20.28672 L16.5410833,17.68064 L20.6615,17.68064 L20.262375,20.29824 L20.262375,20.29824 Z M21.0502917,15.12064 L20.8655833,16.3392 L16.4894167,16.3392 L16.3421667,12.48256 L21.4494167,12.48256 L21.0502917,15.12064 L21.0502917,15.12064 Z M19.1450833,7.89632 L22.1469167,7.8912 L21.6535,11.1424 L16.2917917,11.1424 L16.2775833,10.73664 L16.1677917,7.90528 L19.1450833,7.89632 L19.1450833,7.89632 Z M29.729,6.53056 L20.5039167,6.5536 L11.3899167,6.5728 L11.2697917,6.57536 L7.81329167,6.58176 L8.15816667,9.65376 L8.1685,9.76128 L9.49891667,21.60512 L14.480875,21.62176 L23.6439583,21.64992 L26.40425,21.65888 L30.9625417,6.52928 L29.729,6.53056 Z M9.54670833,26.50624 C9.17729167,26.31936 8.76654167,26.20416 8.32479167,26.20416 C6.83679167,26.20416 5.62779167,27.39968 5.62779167,28.8768 C5.62779167,29.312 5.74404167,29.71904 5.93133333,30.08256 C6.37695833,30.94912 7.27595833,31.54816 8.32479167,31.54816 C9.81408333,31.54816 11.0217917,30.35136 11.0217917,28.8768 C11.0217917,27.83744 10.416,26.9504 9.54670833,26.50624 Z M26.1278333,23.21792 C26.1278333,22.84672 25.8255833,22.5472 25.451,22.5472 L9.021,22.5472 C9.01454167,22.5472 9.01066667,22.55104 9.00420833,22.55104 L8.536625,18.39488 L7.62341667,10.29888 L7.61179167,10.19136 L7.21654167,6.67008 L7.02666667,6.49856 C6.87425,6.36416 3.30795833,3.17056 2.0615,2.272 C1.81091667,2.0928 1.829,1.83296 1.84966667,1.73056 C1.88066667,1.568 1.972375,1.45792 2.04341667,1.43872 C2.14804167,1.40544 2.398625,1.52704 2.74220833,1.91616 L5.80991667,4.70272 C6.08633333,4.9536 6.513875,4.93568 6.76575,4.66176 C7.02020833,4.38912 7.00083333,3.96544 6.72570833,3.71328 L3.71225,0.98432 C2.86879167,0.00896 2.08345833,0.03968 1.69208333,0.14336 C1.09275,0.30336 0.64325,0.81792 0.516666667,1.48736 C0.383625,2.21056 0.667791667,2.92608 1.26454167,3.35744 C2.29529167,4.09984 5.1615,6.64192 5.92875,7.32544 L6.38729167,11.4048 L6.40020833,11.5136 L7.89595833,24.81408 C7.936,25.15584 8.22791667,25.40928 8.567625,25.40928 C8.59216667,25.40928 8.61929167,25.408 8.64254167,25.40544 C9.01454167,25.36448 9.28320833,25.03296 9.241875,24.6656 L9.15533333,23.88992 L25.451,23.88992 C25.8255833,23.88992 26.1278333,23.58784 26.1278333,23.21792 Z M20.177125,28.25216 L12.5330417,28.25216 C12.15975,28.25216 11.8575,28.55168 11.8575,28.9216 C11.8575,29.2928 12.15975,29.59232 12.5330417,29.59232 L20.177125,29.59232 C20.5504167,29.59232 20.8526667,29.2928 20.8526667,28.9216 C20.8526667,28.55168 20.5504167,28.25216 20.177125,28.25216 Z M24.5649167,26.20544 C23.0782083,26.20544 21.8705,27.40096 21.8705,28.8768 C21.8705,30.35136 23.0782083,31.54944 24.5649167,31.54944 C26.0555,31.54944 27.2619167,30.35136 27.2619167,28.8768 C27.2619167,27.40096 26.0555,26.20544 24.5649167,26.20544 Z" id="Fill-1" ></path>
        </g>
    </g>
</svg>