<?xml version="1.0" encoding="UTF-8" standalone="no"?>
<svg width="32px" height="17px" viewBox="0 0 32 17" version="1.1" xmlns="http://www.w3.org/2000/svg" xmlns:xlink="http://www.w3.org/1999/xlink" xmlns:sketch="http://www.bohemiancoding.com/sketch/ns">
    <!-- Generator: Sketch 3.1.1 (8761) - http://www.bohemiancoding.com/sketch -->
    <title>icon-4G+@1x</title>
    <desc></desc>
    <defs></defs>
    <g id="Page-1" stroke="none" stroke-width="1" fill-rule="evenodd" >
        <path d="M30.9664828,2.91514286 L28.6451494,2.91514286 L29.2371494,0.310785714 C29.2758161,0.141142857 29.1678161,0 29.0011494,0 L27.3504828,0 C27.1824828,0 27.0118161,0.141142857 26.9758161,0.310785714 L26.3864828,2.91921429 L24.0691494,2.91921429 C23.8851494,2.91921429 23.6998161,3.07257143 23.6558161,3.2585 L23.3171494,4.76085714 C23.2744828,4.9495 23.3918161,5.10285714 23.5744828,5.10014286 L25.8931494,5.10014286 L25.3091494,7.67328571 C25.2704828,7.84292857 25.3798161,7.98407143 25.5464828,7.98407143 L27.1944828,7.98407143 C27.3638161,7.98407143 27.5331494,7.84292857 27.5704828,7.67328571 L28.1531494,5.10014286 L30.4731494,5.10014286 C30.6584828,5.10014286 30.8451494,4.94678571 30.8864828,4.76085714 L31.2264828,3.2585 C31.2651494,3.06985714 31.1504828,2.91514286 30.9664828,2.91514286 L30.9664828,2.91514286 Z M23.1558161,7.89857143 L18.9864828,7.89857143 C18.8531494,7.89857143 18.7104828,8.018 18.6784828,8.15914286 L18.1184828,10.5490714 C18.1038161,10.6006429 18.1131494,10.6481429 18.1344828,10.6739286 C18.1584828,10.7065 18.2024828,10.7119286 18.2318161,10.7119286 L19.6771494,10.7119286 C19.6771494,10.7119286 19.2198161,12.7123571 19.2158161,12.7232143 C19.1131494,13.2158571 18.6251494,13.3067857 18.5278161,13.3176429 L18.5251494,13.3203571 L18.5184828,13.3203571 C18.1838161,13.3488571 17.6238161,13.3597143 17.2131494,13.3624286 L17.1998161,13.3624286 C16.6584828,13.3176429 16.2264828,13.1072857 15.9451494,12.7517143 C15.6091494,12.3337143 15.5024828,11.7216429 15.6424828,11.0322143 L16.3958161,7.55657143 C16.6678161,6.24557143 18.0251494,5.09471429 19.3011494,5.09471429 L22.1504828,5.09471429 C22.2811494,5.09471429 22.4264828,4.9495 22.4611494,4.78664286 L22.4611494,4.78528571 L23.1158161,1.84707143 C23.1398161,1.71542857 23.1198161,1.59328571 23.0464828,1.50507143 C22.9838161,1.42907143 22.8851494,1.387 22.7678161,1.387 L19.7811494,1.387 C16.7464828,1.387 13.8611494,3.79321429 13.2158161,6.8685 L13.2131494,6.8685 L12.4064828,10.4730714 C12.2411494,11.2765 12.2371494,12.0663571 12.3984828,12.8155 C12.5598161,13.5741429 12.8771494,14.2554286 13.3411494,14.8444286 C13.7971494,15.4185 14.3691494,15.8677143 15.0411494,16.1825714 C15.7131494,16.492 16.4491494,16.6521429 17.2318161,16.6521429 C17.2358161,16.6521429 17.4838161,16.6602857 17.6891494,16.6602857 C18.3971494,16.6602857 19.7984828,16.6032857 21.2758161,16.2273571 C21.5224828,16.1581429 21.7411494,15.941 21.8038161,15.6953571 L23.5011494,8.37357143 C23.5331494,8.23785714 23.5064828,8.11164286 23.4398161,8.02071429 C23.3744828,7.94471429 23.2744828,7.89857143 23.1558161,7.89857143 L23.1558161,7.89857143 Z M7.41048278,9.82028571 L4.35848278,9.823 L8.47581611,5.85607143 L7.41048278,9.82028571 L7.41048278,9.82028571 Z M11.8411494,9.81757143 L10.9504828,9.81757143 L12.6998161,2.06421429 C12.7238161,1.96378571 12.7078161,1.86878571 12.6611494,1.81042857 C12.6091494,1.74392857 12.5278161,1.73171429 12.4664828,1.73171429 L9.66914945,1.73171429 C9.27314945,1.74121429 8.59314945,2.09678571 8.18514945,2.50528571 C8.18248278,2.508 8.17981611,2.508 0.983816114,9.28828571 C0.627816114,9.65878571 0.558482781,9.78635714 0.443816114,10.2735714 L0.00914944769,12.2495714 C-0.0108505523,12.35 0.00248278102,12.4368571 0.0438161144,12.4925 C0.098482781,12.5644286 0.191816114,12.5752857 0.242482781,12.5752857 L6.77714945,12.5752857 C6.77714945,12.5752857 6.00914945,15.8826429 5.99581611,15.941 C5.97048278,16.0441429 5.98381611,16.1323571 6.03314945,16.1934286 C6.07314945,16.2436429 6.14248278,16.2694286 6.22648278,16.2694286 L9.02114945,16.2694286 C9.27848278,16.2694286 9.54648278,16.0468571 9.60381611,15.7822143 C9.60781611,15.7767857 10.3304828,12.5752857 10.3304828,12.5752857 L11.1584828,12.5752857 C11.2318161,12.5752857 11.3424828,12.4748571 11.3638161,12.35 L11.8438161,9.90035714 C11.8518161,9.85557143 11.8464828,9.82842857 11.8424828,9.81757143 L11.8411494,9.81757143 L11.8411494,9.81757143 Z" id="icon-4G+"></path>
    </g>
</svg>