<?xml version="1.0" encoding="utf-8"?>
<!-- Generator: Adobe Illustrator 16.0.0, SVG Export Plug-In . SVG Version: 6.00 Build 0)  -->
<!DOCTYPE svg PUBLIC "-//W3C//DTD SVG 1.1//EN" "http://www.w3.org/Graphics/SVG/1.1/DTD/svg11.dtd">
<svg version="1.1" id="Layer_1" xmlns="http://www.w3.org/2000/svg" xmlns:xlink="http://www.w3.org/1999/xlink" x="0px" y="0px"
	 width="32px" height="32px" viewBox="0 0 32 32" enable-background="new 0 0 32 32" xml:space="preserve">
<path d="M10.094,14.668c0.571,0.894,1.084,1.546,0.933,2.591c-0.146,1.013-0.086,2.075-0.587,3.005
	c-0.355,0.66,0.23,0.688,0.527,0.943c1.171,1.012,2.676,0.604,4.007,0.923c1,0.24,2.469,1.208,2.749-0.985
	c0.049-0.394,0.66-0.506,1.129-0.522c0.75-0.031,1.455,0.137,2.153,0.389c0.99,0.355,2.659-0.353,3.062-1.26
	c0.168-0.383-0.012-0.44-0.324-0.596c-0.828-0.411-0.778-1.065-0.575-1.9c0.174-0.726,0.312-1.787-0.597-2.121
	c-0.834-0.307-0.303-0.605-0.116-0.785c0.899-0.877,1.427-1.916,1.968-3.06c0.551-1.16-0.011-1.182-0.693-1.381
	c-2.522-0.738-4.84-1.874-6.951-3.442c-0.804-0.599-1.495-0.408-1.554,0.587c-0.058,0.972-0.441,1.309-1.328,1.315
	c-0.351,0.005-0.697,0.11-0.856,0.471c-0.512,1.168-1.234,0.642-1.864,0.188c-0.33-0.24-0.562-0.573-0.997-0.276
	c-0.477,0.324-0.184,0.649-0.001,1c0.531,1.014,0.286,1.184-0.869,1.119c-0.239-0.015-0.436-0.105-0.619-0.207
	c-0.307-0.17-0.578-0.365-0.95-0.264c-0.331,0.082-0.658,0.189-0.993,0.237c-0.451,0.064-1.063-0.158-1.05,0.64
	c0.011,0.684,0.208,1.179,0.999,1.376C8.003,12.977,9.188,13.247,10.094,14.668z"/>
</svg>
