<?xml version="1.0" encoding="utf-8"?>
<!-- Generator: Adobe Illustrator 16.0.0, SVG Export Plug-In . SVG Version: 6.00 Build 0)  -->
<!DOCTYPE svg PUBLIC "-//W3C//DTD SVG 1.1//EN" "http://www.w3.org/Graphics/SVG/1.1/DTD/svg11.dtd">
<svg version="1.1" id="Layer_1" xmlns="http://www.w3.org/2000/svg" xmlns:xlink="http://www.w3.org/1999/xlink" x="0px" y="0px"
	 width="254px" height="254px" viewBox="0 0 254 254" enable-background="new 0 0 254 254" xml:space="preserve">
<g>
	<g>
		<g>
			<path d="M100.158,113.052H85.491v27.271h14.667V113.052z M119.997,113.052H105.33v27.271h14.667V113.052z
				 M139.838,113.052h-14.669v27.271h14.669V113.052z M178.662,113.643h-4.828v-12.768c0-2.339-1.922-4.259-4.262-4.259H75.857
				c-2.345,0-4.262,1.92-4.262,4.259v51.074c0,2.344,1.917,4.258,4.262,4.258h93.715c2.34,0,4.262-1.914,4.262-4.258v-12.768h4.828
				c2.029,0,3.688-1.656,3.688-3.686v-18.16C182.35,115.306,180.691,113.643,178.662,113.643z M165.311,147.691H80.114v-42.56
				h85.196V147.691z"/>
		</g>
	</g>
	<path fill-rule="evenodd" clip-rule="evenodd" d="M126.972,1C57.511,1,1,57.259,1,126.413
		c0,69.152,56.511,125.41,125.972,125.41s125.973-56.258,125.973-125.41C252.945,57.259,196.434,1,126.972,1z M205.719,217.008
		H48.226c-25.506-22-41.688-54.441-41.688-90.595c0-36.155,16.181-68.597,41.688-90.597h157.493
		c25.508,22,41.689,54.442,41.689,90.597C247.408,162.566,231.227,195.008,205.719,217.008z"/>
</g>
</svg>
