<?xml version="1.0" encoding="UTF-8" standalone="no"?>
<svg width="32px" height="19px" viewBox="0 0 32 19" version="1.1" xmlns="http://www.w3.org/2000/svg" xmlns:xlink="http://www.w3.org/1999/xlink" xmlns:sketch="http://www.bohemiancoding.com/sketch/ns">
    <!-- Generator: Sketch 3.1.1 (8761) - http://www.bohemiancoding.com/sketch -->
    <title>icon-serviceclient@1x</title>
    <desc></desc>
    <defs></defs>
    <g id="Page-1" stroke="none" stroke-width="1"  fill-rule="evenodd" >
        <g id="icon-serviceclient"  transform="translate(0.000000, 1.000000)">
            <path d="M7.008,2.416 C7.008,3.07333333 7.232,3.64533333 7.67466667,4.13333333 C8.11733333,4.61733333 8.72666667,4.86133333 9.50266667,4.86133333 C10.1813333,4.86133333 10.7573333,4.61733333 11.2346667,4.13333333 C11.708,3.64533333 11.9453333,3.05733333 11.9453333,2.36933333 C11.9453333,1.68 11.7053333,1.09866667 11.224,0.633333333 C10.7453333,0.158666667 10.1693333,-0.076 9.50266667,-0.076 C8.71333333,-0.076 8.104,0.169333333 7.66666667,0.664 C7.22666667,1.15333333 7.008,1.74 7.008,2.416 M24.5786667,0.653333333 C24.4453333,0.502666667 24.2906667,0.382666667 24.124,0.278666667 C23.7546667,0.0493333333 23.3106667,-0.076 22.7733333,-0.076 C22.1186667,-0.076 21.5413333,0.164 21.052,0.645333333 C20.56,1.128 20.312,1.7 20.312,2.36666667 C20.312,2.82266667 20.4573333,3.25333333 20.7426667,3.66133333 C20.84,3.80266667 20.9533333,3.94 21.0853333,4.076 C21.5986667,4.59866667 22.16,4.86133333 22.7733333,4.86133333 C23.5386667,4.86133333 24.1386667,4.62266667 24.5693333,4.14133333 C25.0013333,3.65866667 25.2186667,3.08666667 25.2186667,2.416 C25.2186667,1.72933333 25.004,1.14133333 24.5786667,0.653333333 M8.28933333,16.1146667 C8.66266667,16.2466667 9.03466667,16.388 9.40533333,16.5026667 C10.956,16.9813333 12.6013333,17.2813333 14.344,17.4013333 C14.9253333,17.44 15.5133333,17.4613333 16.1133333,17.4613333 C17.3493333,17.4613333 18.5306667,17.3773333 19.6573333,17.2133333 C20.6386667,17.0733333 21.5786667,16.8573333 22.4946667,16.5933333 C22.6306667,16.5546667 22.7733333,16.5253333 22.908,16.4813333 C23.9453333,16.1613333 24.9813333,15.76 26.0213333,15.2786667 C27.06,14.7946667 28.1146667,14.232 29.1893333,13.588 C30.4013333,12.8666667 31.1506667,12.2973333 31.4426667,11.8826667 C31.7346667,11.4666667 31.8773333,10.8746667 31.8773333,10.1093333 C31.8773333,9.56266667 31.7266667,9.28933333 31.4346667,9.28933333 C31.348,9.28933333 30.82,9.52133333 29.852,9.98133333 C29.4373333,10.1773333 28.984,10.3773333 28.5053333,10.58 C27.8706667,10.852 27.1826667,11.128 26.432,11.4066667 C25.12,11.8986667 23.5666667,12.328 21.772,12.7026667 C20.7453333,12.9173333 19.6813333,13.0626667 18.5906667,13.1533333 C17.7813333,13.2213333 16.9573333,13.26 16.1133333,13.26 C14.5173333,13.26 12.984,13.1333333 11.5093333,12.8933333 L11.508,12.8933333 C11.164,12.836 10.8173333,12.7813333 10.48,12.7106667 C8.692,12.3466667 7.136,11.912 5.81066667,11.4146667 C5.77066667,11.3986667 5.73466667,11.3826667 5.69333333,11.3666667 C4.42133333,10.8906667 3.31866667,10.424 2.39333333,9.98133333 C1.43466667,9.52133333 0.906666667,9.28933333 0.809333333,9.28933333 C0.513333333,9.28933333 0.366666667,9.56266667 0.366666667,10.1093333 C0.366666667,10.844 0.518666667,11.424 0.825333333,11.8493333 C1.13066667,12.276 1.88533333,12.8573333 3.08933333,13.588 C3.16933333,13.6386667 3.25066667,13.68 3.33333333,13.7293333 C5.008,14.7293333 6.65866667,15.5186667 8.28933333,16.112" id="Fill-1" ></path>
        </g>
    </g>
</svg>