<?xml version="1.0" encoding="UTF-8" standalone="no"?>
<svg width="32px" height="23px" viewBox="0 0 32 23" version="1.1" xmlns="http://www.w3.org/2000/svg" xmlns:xlink="http://www.w3.org/1999/xlink" xmlns:sketch="http://www.bohemiancoding.com/sketch/ns">
    <!-- Generator: Sketch 3.1.1 (8761) - http://www.bohemiancoding.com/sketch -->
    <title>icon-tablet@1x</title>
    <desc></desc>
    <defs></defs>
    <g id="Page-1" stroke="none" stroke-width="1"  fill-rule="evenodd" >
        <path d="M2.60845714,1.42153846 L28.8137143,1.42153846 L28.8137143,21.5630769 L2.60845714,21.5630769 L2.60845714,1.42153846 Z M31.104,11.1212308 C31.104,11.592 30.7264,11.9741538 30.2601143,11.9741538 C29.792,11.9741538 29.4153143,11.592 29.4153143,11.1212308 C29.4153143,10.6504615 29.792,10.2683077 30.2601143,10.2683077 C30.7264,10.2683077 31.104,10.6504615 31.104,11.1212308 L31.104,11.1212308 Z M0,1.36430769 L0,21.6193846 C0,22.3735385 0.604342857,22.9846154 1.3504,22.9846154 L30.4813714,22.9846154 C31.2283429,22.9846154 31.8336,22.3735385 31.8336,21.6193846 L31.8336,1.36430769 C31.8336,0.611076923 31.2283429,0 30.4813714,0 L1.3504,0 C0.604342857,0 0,0.611076923 0,1.36430769 L0,1.36430769 Z" id="icon-tablet"></path>
    </g>
</svg>