<?xml version="1.0" encoding="utf-8"?>
<!-- Generator: Adobe Illustrator 16.0.0, SVG Export Plug-In . SVG Version: 6.00 Build 0)  -->
<!DOCTYPE svg PUBLIC "-//W3C//DTD SVG 1.1//EN" "http://www.w3.org/Graphics/SVG/1.1/DTD/svg11.dtd">
<svg version="1.1" id="Mode_Isolation" xmlns="http://www.w3.org/2000/svg" xmlns:xlink="http://www.w3.org/1999/xlink" x="0px"
	 y="0px" width="51.083px" height="50.583px" viewBox="0 0 51.083 50.583" enable-background="new 0 0 51.083 50.583"
	 xml:space="preserve">
<path d="M48.471,17.609l-14.22-2.137L27.89,2.169c-0.423-0.887-1.298-1.446-2.254-1.446s-1.827,0.56-2.25,1.446
	l-6.361,13.304l-14.22,2.137c-0.946,0.14-1.734,0.824-2.028,1.767c-0.297,0.937-0.048,1.967,0.636,2.658L11.7,32.389L9.272,47.013
	c-0.161,0.972,0.226,1.96,1.001,2.538c0.436,0.325,0.956,0.493,1.473,0.493c0.4,0,0.807-0.096,1.172-0.296l12.718-6.904
	l12.722,6.904c0.368,0.2,0.768,0.296,1.169,0.296c0.52,0,1.04-0.168,1.476-0.493c0.771-0.578,1.165-1.566,1.004-2.538l-2.435-14.624
	l10.294-10.354c0.684-0.691,0.93-1.722,0.633-2.658C50.205,18.434,49.417,17.749,48.471,17.609"/>
</svg>
