<?xml version="1.0" encoding="UTF-8" standalone="no"?>
<svg width="32px" height="25px" viewBox="0 0 32 25" version="1.1" xmlns="http://www.w3.org/2000/svg" xmlns:xlink="http://www.w3.org/1999/xlink" xmlns:sketch="http://www.bohemiancoding.com/sketch/ns">
    <!-- Generator: Sketch 3.1.1 (8761) - http://www.bohemiancoding.com/sketch -->
    <title>icon-bluetooth-per2per@1x</title>
    <desc></desc>
    <defs></defs>
    <g id="Page-1" stroke="none" stroke-width="1"  fill-rule="evenodd" >
        <g id="icon-bluetooth-per2per"  transform="translate(0.000000, 0.000000)">
            <path d="M4.35565714,8.70833333 C4.35565714,8.89259259 4.37302857,9.07222222 4.40868571,9.24537037 C4.65462857,10.4611111 5.71611429,11.3759259 6.9888,11.3759259 C8.44342857,11.3759259 9.62285714,10.1814815 9.62285714,8.70833333 C9.62285714,7.23518519 8.44342857,6.04074074 6.9888,6.04074074 C5.53508571,6.04074074 4.35565714,7.23518519 4.35565714,8.70833333" id="Fill-1" ></path>
            <path d="M11.2768,15.7898148 C11.2054857,14.0527778 10.1284571,12.5787037 8.6208,11.9509259 C8.11794286,11.7416667 7.56662857,11.6259259 6.9888,11.6259259 C4.67931429,11.6259259 2.7968,13.4740741 2.70262857,15.7898148 L2.69805714,15.7898148 L2.69805714,16.1518519 L11.2768,16.1518519 C11.2795429,16.0925926 11.2813714,16.0324074 11.2813714,15.9722222 C11.2813714,15.912037 11.2795429,15.8518519 11.2768,15.7925926 L11.2768,15.7898148" id="Fill-2" ></path>
            <path d="M27.2859429,9.24537037 C27.3216,9.07222222 27.3389714,8.89259259 27.3389714,8.70833333 C27.3389714,8.33981481 27.2658286,7.98888889 27.1323429,7.67037037 C26.7318857,6.71203704 25.7956571,6.04074074 24.7058286,6.04074074 C23.2502857,6.04074074 22.0717714,7.23518519 22.0717714,8.70833333 C22.0717714,10.1814815 23.2502857,11.3759259 24.7058286,11.3759259 C25.9766857,11.3759259 27.0390857,10.4611111 27.2859429,9.24537037" id="Fill-3" ></path>
            <path d="M28.992,15.7925926 L28.992,15.7898148 C28.896,13.4740741 27.0144,11.6259259 24.7058286,11.6259259 C22.3945143,11.6259259 20.512,13.4740741 20.4178286,15.7898148 L20.4132571,15.7898148 L20.4132571,16.1518519 L28.992,16.1518519 C28.9947429,16.0925926 28.9965714,16.0324074 28.9965714,15.9722222 C28.9965714,15.912037 28.9947429,15.8518519 28.992,15.7925926" id="Fill-4" ></path>
            <path d="M30.3798857,0.448148148 L19.0930286,0.448148148 C18.7126857,0.525925926 18.0836571,0.774074074 17.9428571,1.56203704 L17.9428571,7.76574074 L16.8713143,6.74722222 C16.4507429,6.38055556 16.1051429,6.56388889 16.1051429,7.15462963 L16.1051429,10.0990741 L13.7517714,7.86111111 L13.7517714,1.68796296 C13.6932571,1.32314815 13.4765714,0.614814815 12.6656,0.448148148 L1.37782857,0.448148148 C0.997485714,0.525925926 0.369371429,0.774074074 0.227657143,1.56203704 L0.227657143,23.3861111 C0.301714286,23.787963 0.560457143,24.5074074 1.47108571,24.5990741 L12.4342857,24.5990741 C12.768,24.5601852 13.6082286,24.3675926 13.7517714,23.4083333 L13.7517714,15.1490741 L16.1051429,12.912037 L16.1051429,15.8555556 C16.1051429,16.4462963 16.4507429,16.6296296 16.8713143,16.262963 L17.9428571,15.2444444 L17.9428571,23.3861111 C18.0169143,23.787963 18.2765714,24.5074074 19.1872,24.5990741 L30.1485714,24.5990741 C30.4832,24.5601852 31.3234286,24.3675926 31.4669714,23.4083333 L31.4669714,1.68796296 C31.4075429,1.32314815 31.1926857,0.614814815 30.3798857,0.448148148 L30.3798857,0.448148148 Z M5.86788571,1.07314815 L8.10148571,1.07314815 C8.21394286,1.07314815 8.30537143,1.16481481 8.30537143,1.27777778 C8.30537143,1.39259259 8.21394286,1.48333333 8.10148571,1.48333333 L5.86788571,1.48333333 C5.75542857,1.48333333 5.664,1.39259259 5.664,1.27777778 C5.664,1.16481481 5.75542857,1.07314815 5.86788571,1.07314815 L5.86788571,1.07314815 Z M6.98605714,21.8314815 C7.55474286,21.8314815 8.01645714,22.2990741 8.01645714,22.8768519 C8.01645714,23.4537037 7.55474286,23.9222222 6.98605714,23.9222222 C6.42651429,23.9222222 5.97302857,23.4037037 5.95382857,22.8398148 C5.97302857,22.2805556 6.42651429,21.8314815 6.98605714,21.8314815 L6.98605714,21.8314815 Z M12.8621714,20.1296296 C12.8621714,21.2444444 11.7622857,21.2444444 11.7622857,21.2444444 L2.2656,21.2444444 C1.44274286,21.2444444 1.23611429,20.6175926 1.18491429,20.3037037 C1.16754286,20.1990741 1.16754286,20.1296296 1.16754286,20.1296296 L1.16754286,3.13148148 C1.16754286,2.01851852 2.2656,2.01851852 2.2656,2.01851852 L11.7622857,2.01851852 C12.8621714,2.01851852 12.8621714,3.06018519 12.8621714,3.06018519 L12.8621714,7.01574074 L12.5805714,6.74722222 C12.16,6.38055556 11.8144,6.56388889 11.8144,7.15462963 L11.8144,15.8555556 C11.8144,16.4462963 12.16,16.6296296 12.5805714,16.262963 L12.8621714,15.9944444 L12.8621714,20.1296296 L12.8621714,20.1296296 Z M23.5830857,1.07314815 L25.8157714,1.07314815 C25.9300571,1.07314815 26.0205714,1.16481481 26.0205714,1.27777778 C26.0205714,1.39259259 25.9300571,1.48333333 25.8157714,1.48333333 L23.5830857,1.48333333 C23.4706286,1.48333333 23.3801143,1.39259259 23.3801143,1.27777778 C23.3801143,1.16481481 23.4706286,1.07314815 23.5830857,1.07314815 L23.5830857,1.07314815 Z M21.2909714,10.9490741 L18.8818286,8.65925926 L18.8818286,3.13148148 C18.8818286,2.01851852 19.9817143,2.01851852 19.9817143,2.01851852 L29.4774857,2.01851852 C30.5782857,2.01851852 30.5782857,3.06018519 30.5782857,3.06018519 L30.5782857,20.1296296 C30.5782857,21.2444444 29.4774857,21.2444444 29.4774857,21.2444444 L19.9817143,21.2444444 C18.8818286,21.2444444 18.8818286,20.1296296 18.8818286,20.1296296 L18.8818286,14.3509259 L21.2909714,12.0611111 C21.6429714,11.7546296 21.6429714,11.2555556 21.2909714,10.9490741 L21.2909714,10.9490741 Z M24.7003429,23.9222222 C24.1408,23.9222222 23.6882286,23.4037037 23.6699429,22.8398148 C23.6882286,22.2805556 24.1408,21.8314815 24.7003429,21.8314815 C25.2699429,21.8314815 25.7307429,22.2990741 25.7307429,22.8768519 C25.7307429,23.4537037 25.2699429,23.9222222 24.7003429,23.9222222 L24.7003429,23.9222222 Z" id="Fill-5" ></path>
        </g>
    </g>
</svg>