<?xml version="1.0" encoding="UTF-8" standalone="no"?>
<svg width="32px" height="30px" viewBox="0 0 32 30" version="1.1" xmlns="http://www.w3.org/2000/svg" xmlns:xlink="http://www.w3.org/1999/xlink" xmlns:sketch="http://www.bohemiancoding.com/sketch/ns">
    <!-- Generator: Sketch 3.1.1 (8761) - http://www.bohemiancoding.com/sketch -->
    <title>icon-advisor@1x</title>
    <desc></desc>
    <defs></defs>
    <g id="Page-1" stroke="none" stroke-width="1"  fill-rule="evenodd" >
        <g id="icon-advisor">
            <path d="M31.9004444,12.8953846 C31.9004444,10.2380769 29.6888889,8.08384615 26.9582222,8.08384615 C26.925037,8.08384615 26.8894815,8.08615385 26.8562963,8.08615385 L26.8562963,17.1634615 C25.4447407,21.9392308 21.5620741,25.6938462 16.6435556,27.0392308 C16.3934815,26.6896154 15.9774815,26.46 15.506963,26.46 L10.4237037,26.46 C9.6557037,26.46 9.03466667,27.0657692 9.03466667,27.8146154 C9.03466667,28.56 9.6557037,29.1657692 10.4237037,29.1657692 L15.506963,29.1657692 C16.0414815,29.1657692 16.5048889,28.8726923 16.736,28.4423077 C22.2613333,27.0403846 26.6394074,22.8715385 28.2157037,17.5488462 C30.336,17.0053846 31.9004444,15.1280769 31.9004444,12.8953846 Z M21.2871111,18.3484615 C20.6091852,18.7453846 19.9407407,19.0926923 19.2841481,19.3880769 C18.6275556,19.6834615 17.9697778,19.9303846 17.3131852,20.1311538 C16.6577778,20.3296154 15.9727407,20.4784615 15.2604444,20.58 C14.5481481,20.6815385 13.8002963,20.7311538 13.0204444,20.7311538 C11.4986667,20.7311538 10.0859259,20.535 8.77866667,20.1403846 C7.47259259,19.7457692 6.14162963,19.1492308 4.78577778,18.3484615 C4.02607407,17.8961538 3.54844444,17.5396154 3.35407407,17.2788462 C3.16088889,17.0146154 3.06488889,16.6592308 3.06488889,16.2080769 C3.06488889,15.87 3.15733333,15.7026923 3.34340741,15.7026923 C3.40622222,15.7026923 3.74044444,15.8446154 4.34488889,16.1273077 C4.94933333,16.4088462 5.67111111,16.7042308 6.50666667,17.01 C7.34340741,17.3169231 8.32711111,17.5823077 9.45777778,17.8084615 C10.5884444,18.0334615 11.776,18.1465385 13.0204444,18.1465385 C14.272,18.1465385 15.4654815,18.0311538 16.5997037,17.8038462 C17.7315556,17.5730769 18.7128889,17.3076923 19.5437037,17.0053846 C20.3733333,16.7019231 21.0951111,16.4088462 21.7066667,16.1273077 C22.317037,15.8446154 22.6512593,15.7026923 22.7057778,15.7026923 C22.893037,15.7026923 22.9866667,15.87 22.9866667,16.2080769 C22.9866667,16.6788462 22.8942222,17.0423077 22.7117037,17.2984615 C22.528,17.5534615 22.0539259,17.9030769 21.2871111,18.3484615 Z M7.68355556,8.73230769 C7.96088889,8.42884615 8.34962963,8.27769231 8.84503704,8.27769231 C9.26696296,8.27769231 9.63081481,8.42192308 9.93540741,8.71269231 C10.2388148,9.00115385 10.3917037,9.35884615 10.3917037,9.78346154 C10.3917037,10.2069231 10.2411852,10.5692308 9.94014815,10.8669231 C9.63911111,11.1669231 9.27407407,11.3180769 8.84503704,11.3180769 C8.35437037,11.3180769 7.97037037,11.1669231 7.68948148,10.8669231 C7.40977778,10.5692308 7.27111111,10.2173077 7.27111111,9.81230769 C7.27111111,9.39576923 7.40740741,9.03461538 7.68355556,8.73230769 M16.146963,8.72192308 C16.4586667,8.42653846 16.8213333,8.27769231 17.234963,8.27769231 C17.7268148,8.27769231 18.1060741,8.42884615 18.3774815,8.72884615 C18.6465185,9.02769231 18.7804444,9.38884615 18.7804444,9.81230769 C18.7804444,10.2242308 18.6441481,10.5761538 18.3715556,10.8738462 C18.0977778,11.1692308 17.7197037,11.3180769 17.234963,11.3180769 C16.8497778,11.3180769 16.4918519,11.1553846 16.1671111,10.8334615 C15.8423704,10.5103846 15.68,10.1596154 15.68,9.78346154 C15.68,9.37269231 15.8352593,9.01846154 16.146963,8.72192308 M13.0251852,0.459230769 C5.86192593,0.459230769 0.0557037037,6.11423077 0.0557037037,13.0869231 C0.0557037037,20.0619231 5.86192593,25.7157692 13.0251852,25.7157692 C20.1884444,25.7157692 25.9958519,20.0619231 25.9958519,13.0869231 C25.9958519,6.11423077 20.1884444,0.459230769 13.0251852,0.459230769" id="Fill-1" ></path>
        </g>
    </g>
</svg>