<?xml version="1.0" encoding="UTF-8" standalone="no"?>
<svg width="211px" height="193px" viewBox="0 0 211 193" version="1.1" xmlns="http://www.w3.org/2000/svg" xmlns:xlink="http://www.w3.org/1999/xlink" xmlns:sketch="http://www.bohemiancoding.com/sketch/ns">
    <!-- Generator: Sketch 3.2 (9961) - http://www.bohemiancoding.com/sketch -->
    <title>box</title>
    <desc></desc>
    <defs></defs>
    <g id="Page-1" stroke="none" stroke-width="1" fill-rule="evenodd">
        <path d="M210.160643,30.5102335 C209.530163,28.5059782 208.064723,26.8847016 206.134943,26.0421484 L147.453443,0.599595237 C144.164723,-0.830191997 140.313683,0.369808003 138.413723,3.42512715 L117.041303,37.9102335 C117.007223,37.9612974 116.994443,38.0166165 116.960363,38.0676803 L67.5912228,43.7783186 L64.0809828,35.5655527 C63.3951228,33.9527867 62.1384228,32.6464037 60.5537028,31.8804463 L10.3666428,7.9017229 C7.64450282,6.60810587 4.40264282,7.13151013 2.23004282,9.20810587 C0.0531828176,11.2932123 -0.602857182,14.5059782 0.585682818,17.276191 L16.6288428,54.8081059 L16.6288428,151.318744 C16.6288428,153.769808 17.8727628,156.054914 19.9346028,157.391085 L73.1292228,191.829382 C73.1590428,191.842148 73.1846028,191.846404 73.2059028,191.863425 C73.7256228,192.186829 74.2836828,192.433638 74.8630428,192.625127 C74.9865828,192.65917 75.1229028,192.697468 75.2464428,192.722999 C75.8471028,192.880446 76.4520228,192.991085 77.0697228,192.991085 C77.3466228,192.991085 77.6235228,192.974063 77.9004228,192.940021 L177.235103,181.463425 C180.890183,181.037893 183.637883,177.944276 183.637883,174.276191 L183.637883,78.2081059 L209.410883,36.476191 C210.518483,34.6889569 210.791123,32.5144889 210.160643,30.5102335 L210.160643,30.5102335 Z M127.542203,49.7017229 L164.067443,73.3442761 L127.542203,77.5612974 L127.542203,49.7017229 L127.542203,49.7017229 Z M117.969983,46.6932123 C118.238363,46.969808 118.536563,47.2251272 118.851803,47.4549144 L118.851803,78.5655527 L84.1754028,82.5740633 L71.1483228,52.1017229 L117.969983,46.6932123 L117.969983,46.6932123 Z M51.8377428,43.757042 L65.1417228,74.8719357 L31.0659828,52.8166165 C31.0446828,52.5017229 31.0319028,52.1953399 30.9637428,51.8804463 C30.8657628,51.3953399 30.7166628,50.9315101 30.5249628,50.4889569 L21.4383828,29.2378931 L51.8377428,43.757042 L51.8377428,43.757042 Z M31.1128428,63.1953399 L69.8277228,88.2464037 L69.8277228,172.446404 L31.1128428,147.386829 L31.1128428,63.1953399 L31.1128428,63.1953399 Z M84.3117228,177.633638 L84.3117228,91.8208718 C84.4437828,91.6378931 84.5673228,91.4464037 84.6823428,91.2549144 L169.158143,81.4932123 L169.158143,167.833638 L84.3117228,177.633638 L84.3117228,177.633638 Z M172.600223,68.5272548 L131.563643,41.9612974 L147.427883,16.3655527 L192.694643,35.9868293 L172.600223,68.5272548 L172.600223,68.5272548 Z" id="box"></path>
    </g>
</svg>