<?xml version="1.0" encoding="utf-8"?>
<!-- Generator: Adobe Illustrator 16.0.0, SVG Export Plug-In . SVG Version: 6.00 Build 0)  -->
<!DOCTYPE svg PUBLIC "-//W3C//DTD SVG 1.1//EN" "http://www.w3.org/Graphics/SVG/1.1/DTD/svg11.dtd">
<svg version="1.1" id="Layer_1" xmlns="http://www.w3.org/2000/svg" xmlns:xlink="http://www.w3.org/1999/xlink" x="0px" y="0px"
	 width="550px" height="340px" viewBox="0 0 550 340" enable-background="new 0 0 550 340" xml:space="preserve">
<g>
	<path fill="#01325A" d="M102.311,147.641c0-24.624-19.853-44.658-44.256-44.658c-11.795,0-22.938,4.645-31.376,13.079
		c-4.898,4.896-4.898,12.834-0.002,17.732c4.896,4.896,12.833,4.897,17.732,0.002c2.619-2.616,7.11-5.737,13.646-5.737
		c10.755,0,19.179,8.602,19.179,19.581c0,8.987-11.071,17.463-18.005,19.238c-0.808-0.065-1.756-0.1-2.536-0.1
		c-6.924,0-12.692,5.614-12.692,12.539v0.44c0,6.927,5.768,12.538,12.692,12.538c0.78,0,1.651-0.032,2.459-0.102
		c6.934,1.775,18.044,10.253,18.044,19.24c0,10.979-8.229,19.579-18.758,19.579c-5.232,0-10.137-2.037-13.829-5.73
		c-4.894-4.902-12.83-4.902-17.727-0.009c-4.9,4.895-4.902,12.833-0.008,17.73c8.43,8.437,19.646,13.085,31.582,13.085
		c24.591,0,43.854-19.615,43.854-44.655c0-12.873-6.708-23.979-15.702-31.897C95.602,171.621,102.311,160.514,102.311,147.641z"/>
	<path fill="#01325A" d="M209.252,112.595c-5.853-3.695-13.596-1.957-17.297,3.898l-26.448,41.829l-24.646-42.917
		c-3.445-6.004-11.1-8.078-17.118-4.628c-6.004,3.449-8.078,11.112-4.628,17.118l31.237,54.394l-33.521,53.019
		c-3.7,5.854-1.955,13.6,3.898,17.302c2.079,1.314,4.396,1.938,6.688,1.938c4.157,0,8.224-2.064,10.609-5.836l26.448-41.831
		l24.646,42.917c2.318,4.036,6.541,6.297,10.886,6.297c2.116,0,4.263-0.538,6.232-1.669c6.004-3.449,8.077-11.114,4.628-17.118
		l-31.238-54.394l33.521-53.021C216.85,124.04,215.104,116.295,209.252,112.595z"/>
</g>
<g>
	<path fill="#01325A" d="M404,302.936c0,7.215-5.85,13.064-13.065,13.064H250.065C242.85,316,237,310.15,237,302.936V70.064
		C237,62.849,242.85,57,250.065,57h140.869C398.15,57,404,62.849,404,70.064V302.936z"/>
	<path fill="#2D85C4" d="M404,268.91v34.02c0,7.216-6.107,13.07-13.324,13.07h91.948c7.216,0,13.376-5.854,13.376-13.07V173.395
		L404,268.91z"/>
	<path fill="#015998" d="M523.509,125.658L421.892,27.839c-5.2-5.004-13.469-4.781-18.473,0.419L375.812,57h14.864
		C397.893,57,404,62.717,404,69.933V268.91l119.988-124.777C528.992,138.933,528.704,130.664,523.509,125.658z"/>
</g>
<g>
	<path fill="#FFFFFF" d="M454.155,189.398c-0.253-0.266-0.522-0.53-0.796-0.796c6.775-6.976,11.56-16.116,11.56-26.52
		c0-22.477-18.204-40.764-40.46-40.764l-37.313-0.368c-3.339-0.059-6.81,1.276-9.188,3.628c-2.377,2.355-3.957,5.563-3.957,8.91
		v111.453c0,6.927,6.097,12.057,13.023,12.057h37.945c22.53,0,40.179-17.354,40.174-39.447
		C465.192,215.855,465.307,200.88,454.155,189.398z M400,146.153l24.555,0.243c8.695,0,15.396,6.892,15.396,15.687
		c0,8.229-11.785,15.651-16.348,15.651c-0.923,0-1.871,0.266-2.736,0.266H400V146.153z M424.969,232H400v-29h24.639
		c0.571,0,1.118-0.02,1.673-0.094c7.42,0.629,10.159,3.777,11.559,6.197c2.18,3.771,2.204,7.856,2.2,8.101
		C440.07,225.886,433.72,232,424.969,232z"/>
	<path fill="#FFFFFF" d="M324,141.588v-0.037c9,0,14.744,3.824,18.525,10.359c3.469,5.991,10.877,7.892,16.877,4.424
		c5.992-3.469,8.083-11.623,4.613-17.617C355.702,124.351,340.637,115,323.654,115c-0.004,0-0.009,0-0.013,0
		c-20.477,0-39.067,14.694-44.948,34.628c-0.343,1.153-0.693,3.121-0.693,4.323v66.128c0,1.2,0.351,2.302,0.693,3.452
		C284.521,243.299,303.107,257,323.625,257c0.009,0,0.017,0,0.025,0c16.628,0,32.112-8.775,40.406-23.105
		c3.47-5.996,1.421-13.654-4.571-17.123c-6-3.466-13.669-1.494-17.134,4.502c-3.886,6.714-10.877,10.727-18.71,10.727
		c-0.004,0-0.004,0-0.008,0c-8.955,0-16.634-5.595-20.634-13.945v-62.088C307,147.447,316,141.588,324,141.588z"/>
</g>
</svg>
