<?xml version="1.0" encoding="UTF-8" standalone="no"?>
<svg width="37px" height="18px" viewBox="0 0 37 18" version="1.1" xmlns="http://www.w3.org/2000/svg" xmlns:xlink="http://www.w3.org/1999/xlink" xmlns:sketch="http://www.bohemiancoding.com/sketch/ns">
    <!-- Generator: Sketch 3.1.1 (8761) - http://www.bohemiancoding.com/sketch -->
    <title>icon-diagnostic@1x</title>
    <desc></desc>
    <defs></defs>
    <g id="Page-1" stroke="none" stroke-width="1"  fill-rule="evenodd" >
        <g id="icon-diagnostic"  transform="translate(1.000000, 0.000000)">
            <path d="M34.1530435,10.8106364 L26.0131304,7.074 C26.0131304,7.074 25.3173913,6.74345455 25.3416522,6.62972727 C25.8221739,4.39281818 24.8274783,2.01354545 22.784087,0.918818182 C20.3626957,-0.382090909 17.3887826,0.616909091 16.1467826,3.15 C14.9032174,5.68227273 15.8587826,8.78890909 18.2793913,10.0898182 C20.3251304,11.1845455 22.7613913,10.6429091 24.2178261,8.92309091 C24.2898261,8.84045455 24.9487826,9.243 24.9487826,9.243 L32.598,13.9794545 C33.4369565,14.427 34.4621739,14.0833636 34.8918261,13.2079091 C35.319913,12.3332727 34.9912174,11.2614545 34.1530435,10.8106364 L34.1530435,10.8106364 Z M23.8233913,7.26954545 C22.8897391,9.16772727 20.6608696,9.91718182 18.8444348,8.94436364 C17.028,7.96745455 16.311913,5.63972727 17.2432174,3.73745455 C18.176087,1.83927273 20.4026087,1.08818182 22.2221739,2.06345455 C24.0393913,3.03954545 24.7562609,5.36890909 23.8233913,7.26954545 L23.8233913,7.26954545 Z" id="Fill-1" ></path>
            <path d="M22.1626957,3.56645455 L19.6724348,6.16990909 L18.5666087,5.01463636 C18.3646957,4.80354545 18.0383478,4.80354545 17.8372174,5.01463636 C17.6353043,5.22409091 17.636087,5.56609091 17.8372174,5.77636364 L19.3085217,7.31290909 C19.4086957,7.41763636 19.5409565,7.47081818 19.6724348,7.47081818 C19.8046957,7.47081818 19.9361739,7.41763636 20.0371304,7.31290909 L22.8913043,4.329 C23.0932174,4.11790909 23.0932174,3.77590909 22.8913043,3.56645455 C22.6901739,3.35618182 22.3622609,3.35618182 22.1626957,3.56645455" id="Fill-2" ></path>
            <path d="M4.06956522,15.6158182 L23.3882609,15.6158182 C23.8453043,15.6158182 24.2146957,15.2288182 24.2146957,14.751 L24.2146957,10.3999091 C23.8695652,10.6682727 23.4993913,10.8981818 23.1096522,11.0839091 L23.1096522,14.4621818 L4.34582609,14.4621818 L4.34582609,2.92254545 L15.0253043,2.92254545 C15.087913,2.763 15.152087,2.60509091 15.2287826,2.44963636 C15.3446087,2.21154545 15.4768696,1.98654545 15.6185217,1.76890909 L4.06956522,1.76890909 C3.61173913,1.76890909 3.24234783,2.15590909 3.24234783,2.63536364 L3.24234783,14.751 C3.24234783,15.2288182 3.61173913,15.6158182 4.06956522,15.6158182 M15.66,16.7710909 C15.66,16.9306364 15.5371304,17.0590909 15.3845217,17.0590909 L12.0733043,17.0590909 C11.9206957,17.0590909 11.7970435,16.9306364 11.7970435,16.7710909 L11.7970435,16.4814545 L-0.0704347826,16.4814545 L-0.0704347826,17.0590909 C-0.0704347826,17.0590909 -0.0704347826,17.9247273 0.758347826,17.9247273 L26.6986957,17.9247273 C27.5274783,17.9247273 27.5274783,17.0590909 27.5274783,17.0590909 L27.5274783,16.4814545 L15.66,16.4814545 L15.66,16.7710909" id="Fill-3" ></path>
        </g>
    </g>
</svg>