<?xml version="1.0" encoding="utf-8"?>
<!-- Generator: Adobe Illustrator 16.0.0, SVG Export Plug-In . SVG Version: 6.00 Build 0)  -->
<!DOCTYPE svg PUBLIC "-//W3C//DTD SVG 1.1//EN" "http://www.w3.org/Graphics/SVG/1.1/DTD/svg11.dtd">
<svg version="1.1" id="Calque_1" xmlns="http://www.w3.org/2000/svg" xmlns:xlink="http://www.w3.org/1999/xlink" x="0px" y="0px"
	 width="399px" height="373px" viewBox="239.445 114.14 399 373" enable-background="new 239.445 114.14 399 373"
	 xml:space="preserve">
<path d="M632.827,293.796c-0.496-2.666-1.551-5.209-2.915-7.503c-1.674-2.666-3.844-5.022-6.511-6.821
	L390.498,122.28c-6.2-4.216-14.138-5.022-21.082-2.17l-64.365,26.354l-23.191,9.55v-0.062l-21.454,8.743
	c-8.371,3.473-13.891,11.596-13.952,20.648l-0.187,30.57l-0.124,23.812l-0.372,63.372c0,4.279,1.179,8.372,3.349,11.906
	c1.675,2.666,3.845,5.022,6.511,6.821l232.903,157.19c10.294,6.945,24.245,4.217,31.129-6.015L629.355,310.6
	C632.703,305.701,633.944,299.625,632.827,293.796z M329.731,235.942c-10.914,6.759-25.3,3.349-32.059-7.565
	c-6.759-10.913-3.349-25.299,7.565-32.059c10.913-6.759,25.299-3.348,32.058,7.565C344.055,214.797,340.644,229.183,329.731,235.942
	z"/>
<g enable-background="new    ">
	<path fill="#FFFFFF" d="M394.99,328.728v-1.693c0-1.693,1.355-3.217,3.048-3.217h6.604c-0.339-2.709-0.508-5.418-0.508-8.466
		c0-1.185,0-2.54,0.169-3.725h-6.265c-1.692,0-3.048-1.524-3.048-3.217v-1.693c0-1.693,1.355-3.217,3.048-3.217h7.28
		c5.418-28.105,30.138-49.27,59.937-49.27c17.101,0,29.46,5.757,40.974,15.746c1.523,1.354,1.523,3.386,0.169,4.74l-7.11,7.28
		c-1.355,1.524-3.387,1.524-5.08,0c-7.788-7.28-18.285-11.005-28.783-11.005c-20.147,0-36.232,14.053-40.973,32.508h43.513
		c1.862,0,3.217,1.523,3.217,3.217v1.862c0,1.693-1.354,3.048-3.217,3.048h-44.867c-0.17,1.185-0.17,2.201-0.17,3.386
		c0,3.048,0.17,5.926,0.847,8.805h37.418c1.862,0,3.217,1.523,3.217,3.217v1.862c0,1.693-1.354,3.048-3.217,3.048h-34.878
		c6.095,15.576,20.994,26.92,39.28,26.92c12.19,0,20.994-4.909,29.121-11.174c1.524-1.186,3.048-1.016,4.063-0.17l7.789,7.619
		c1.354,1.186,1.016,3.387-0.17,4.571c-11.513,11.175-26.073,16.424-41.143,16.424c-28.105,0-51.64-18.455-58.751-44.19h-8.466
		C396.346,331.945,394.99,330.422,394.99,328.728z"/>
</g>
</svg>
