<?xml version="1.0" encoding="UTF-8" standalone="no"?>
<svg width="31px" height="31px" viewBox="0 0 31 31" version="1.1" xmlns="http://www.w3.org/2000/svg" xmlns:xlink="http://www.w3.org/1999/xlink" xmlns:sketch="http://www.bohemiancoding.com/sketch/ns">
    <!-- Generator: Sketch 3.1.1 (8761) - http://www.bohemiancoding.com/sketch -->
    <title>icon-phone@1x</title>
    <desc></desc>
    <defs></defs>
    <g id="Page-1" stroke="none" stroke-width="1"  fill-rule="evenodd" >
        <path d="M30.3465173,25.2176 L23.7353173,20.6432 C23.4297173,20.3376 22.9321173,20.3376 22.6265173,20.6448 L21.0233173,22.2464 C19.3705173,23.8992 14.1737173,19.7776 12.4857173,18.0912 C10.8009173,16.4064 6.67771726,11.2096 8.33051726,9.5552 L9.93371726,7.952 C10.2393173,7.6464 10.2393173,7.1488 9.93371726,6.8432 L5.36091726,0.2304 C5.05531726,-0.0768 4.56091726,-0.0768 4.25211726,0.2304 L1.11931726,2.344 C-0.245482738,3.712 -2.56708274,8.544 9.73371726,20.8432 C22.0329173,33.144 26.8681173,30.824 28.2329173,29.4576 L28.2361173,29.4576 L30.3465173,26.3264 C30.6537173,26.0192 30.6537173,25.5216 30.3465173,25.2176" id="icon-phone"></path>
    </g>
</svg>