<?xml version="1.0" encoding="UTF-8" standalone="no"?>
<svg width="34px" height="27px" viewBox="0 0 34 27" version="1.1" xmlns="http://www.w3.org/2000/svg" xmlns:xlink="http://www.w3.org/1999/xlink" xmlns:sketch="http://www.bohemiancoding.com/sketch/ns">
    <!-- Generator: Sketch 3.1.1 (8761) - http://www.bohemiancoding.com/sketch -->
    <title>icon-web-tools@1x</title>
    <desc></desc>
    <defs></defs>
    <g id="Page-1" stroke="none" stroke-width="1"  fill-rule="evenodd" >
        <g id="icon-web-tools"  transform="translate(1.000000, 0.000000)">
            <path d="M21.8770526,15.5624516 C21.2218947,17.9863548 19.6471579,18.8425161 18.1111579,18.3930968 C16.9768421,18.0612581 16.4437895,17.4202258 16.208,16.8959032 C15.6101053,17.2094516 14.8134737,17.4289355 13.9056842,17.1632903 C12.4774737,16.7469677 11.6353684,15.3412258 12.1061053,13.6149677 C12.6618947,11.5681935 14.5877895,10.4098065 16.2231579,10.8879677 C17.1882105,11.1701613 17.6429474,11.772871 17.8854737,12.4374194 L17.8888421,12.4243548 C18.1313684,11.8695484 18.5296842,11.6718387 19.0054737,11.8103226 C19.4795789,11.9514194 19.8138947,12.501 19.5258947,13.1063226 L18.1052632,16.1834516 C18.0387368,16.3193226 17.9747368,16.5048387 17.9435789,16.6224194 C17.8004211,17.1432581 18.0715789,17.6449355 18.7149474,17.8339355 C19.7061053,18.1230968 20.7688421,17.3218065 21.2909474,15.3926129 C22.0193684,12.7082903 20.3301053,9.53535484 17.1865263,8.61735484 C14.0286316,7.695 10.9490526,9.59719355 10.0858947,12.7744839 C9.22189474,15.9674516 10.8757895,19.2083226 14.1751579,20.169 C15.5014737,20.5591935 16.5490526,20.5348065 17.7153684,20.2334516 C17.7658947,20.2186452 17.84,20.223871 17.8804211,20.2351935 C18.0218947,20.277871 18.0951579,20.4564194 18.0547368,20.5992581 C18.0235789,20.7168387 17.9317895,20.7699677 17.8526316,20.79 C17.2488421,20.9537419 16.6357895,21.0451935 16,21.0451935 C15.3675789,21.0451935 14.7132632,20.9554839 14.016,20.7508065 C10.4404211,19.7065161 8.56,16.0710968 9.49978947,12.6029032 C10.4404211,9.13383871 13.9208421,7.03480645 17.3448421,8.03729032 C20.7671579,9.03716129 22.6863158,12.5889677 21.8770526,15.5624516 M28.6804211,5.95132258 L7.27747368,1.57122581 C4.69978947,1.04167742 2.13136842,3.13112903 1.54105263,6.23525806 L-0.250105263,15.6800323 C-0.826105263,18.7249355 0.718315789,21.6 3.21010526,22.2088065 L10.8943158,23.7974516 L24.7545263,26.6350645 C27.3338947,27.162871 29.904,25.0751613 30.4909474,21.9710323 L32.2837895,12.528 C32.8724211,9.42125806 31.2597895,6.4773871 28.6804211,5.95132258" id="Fill-1" ></path>
            <path d="M12.864,2.74790323 L14.2736842,3.06145161 C14.2736842,3.06145161 14.3082105,1.81770968 15.4298947,2.04590323 L21.9907368,3.39590323 C21.9907368,3.39590323 23.1023158,3.5936129 22.6290526,4.90877419 L24.0395789,5.22145161 L24.3991579,3.34364516 C24.3991579,3.34364516 24.5498947,2.34812903 23.6336842,2.16087097 L14.5423158,0.297 C14.5423158,0.297 13.8938947,0.077516129 13.3246316,0.695032258 C13.3431579,0.854419355 12.864,2.74790323 12.864,2.74790323" id="Fill-2" ></path>
            <path d="M16.3351579,12.1961613 C15.2757895,11.6753226 13.9056842,12.2693226 13.2901053,13.6236774 C12.8134737,14.6749355 13.1772632,15.579871 14.0766316,16.0205806 C15.1031579,16.524 16.4951579,15.9195484 17.1267368,14.5338387 C17.5663158,13.5670645 17.216,12.6299032 16.3351579,12.1961613" id="Fill-3" ></path>
        </g>
    </g>
</svg>