<?xml version="1.0" encoding="UTF-8" standalone="no"?>
<svg width="25px" height="38px" viewBox="0 0 25 38" version="1.1" xmlns="http://www.w3.org/2000/svg" xmlns:xlink="http://www.w3.org/1999/xlink" xmlns:sketch="http://www.bohemiancoding.com/sketch/ns">
    <!-- Generator: Sketch 3.1.1 (8761) - http://www.bohemiancoding.com/sketch -->
    <title>icon-icon-wifi-phone@1x</title>
    <desc></desc>
    <defs></defs>
    <g id="Page-1" stroke="none" stroke-width="1"  fill-rule="evenodd" >
        <g id="icon-icon-wifi-phone"  transform="translate(0.000000, 1.000000)">
            <path d="M10.07,5.434 C10.408,5.362 10.743,5.578 10.815,5.916 C10.89,6.256 10.675,6.589 10.335,6.663 L10.335,6.662 C9.454,6.853 8.656,7.374 8.128,8.189 C7.602,9.004 7.458,9.949 7.648,10.828 C7.72,11.168 7.505,11.5 7.166,11.572 C6.997,11.61 6.828,11.574 6.694,11.488 C6.558,11.401 6.457,11.262 6.419,11.09 C6.163,9.903 6.361,8.611 7.074,7.508 C7.785,6.404 8.882,5.691 10.07,5.434" id="Fill-1" ></path>
            <path d="M9.462,2.611 C9.8,2.537 10.134,2.751 10.206,3.093 C10.279,3.431 10.065,3.764 9.727,3.837 C8.124,4.184 6.658,5.135 5.699,6.621 C4.74,8.105 4.477,9.834 4.822,11.436 C4.894,11.775 4.679,12.107 4.341,12.183 C4.171,12.219 4.003,12.184 3.867,12.097 C3.733,12.009 3.632,11.869 3.593,11.701 C3.181,9.79 3.501,7.713 4.644,5.94 C5.788,4.167 7.55,3.021 9.462,2.611" id="Fill-2" ></path>
            <path d="M8.815,-0.388 C9.153,-0.46 9.488,-0.245 9.562,0.096 C9.634,0.432 9.418,0.768 9.079,0.841 C6.712,1.35 4.543,2.763 3.126,4.96 C1.707,7.157 1.315,9.712 1.825,12.083 C1.896,12.423 1.683,12.754 1.343,12.829 C1.173,12.864 1.007,12.828 0.87,12.741 C0.736,12.655 0.634,12.517 0.597,12.347 C0.019,9.668 0.468,6.762 2.071,4.277 C3.673,1.794 6.138,0.19 8.815,-0.388" id="Fill-3" ></path>
            <path d="M12.569,10.234 C11.078,9.992 10.837,11.482 10.837,11.482 L7.394,32.633 C7.15,34.124 8.642,34.367 8.642,34.367 L19.37,36.113 C20.86,36.355 21.102,34.865 21.102,34.865 L24.546,13.714 C24.788,12.223 23.298,11.98 23.298,11.98 L12.569,10.234 L12.569,10.234 Z M18.954,11.95 C19.067,11.968 19.146,12.075 19.126,12.188 C19.108,12.3 19,12.378 18.888,12.361 L16.632,11.993 C16.517,11.974 16.442,11.866 16.46,11.754 C16.479,11.641 16.584,11.563 16.698,11.582 L18.954,11.95 L18.954,11.95 Z M14.118,34.553 C13.542,34.46 13.151,33.916 13.245,33.341 C13.339,32.766 13.882,32.375 14.457,32.468 C15.021,32.56 15.406,33.082 15.334,33.645 C15.224,34.203 14.681,34.645 14.118,34.553 L14.118,34.553 Z M11.569,12.781 C11.569,12.781 11.738,11.744 12.847,11.925 L22.44,13.486 C22.44,13.486 23.548,13.666 23.368,14.776 L20.608,31.728 C20.608,31.728 20.427,32.839 19.318,32.659 L9.726,31.097 C9.726,31.097 8.617,30.918 8.798,29.806 L11.569,12.781 L11.569,12.781 Z" id="Fill-4" ></path>
            <path d="M9.13,9.397 C9.13,9.885 9.525,10.28 10.013,10.28 C10.5,10.28 10.896,9.885 10.896,9.397 C10.896,8.909 10.5,8.514 10.013,8.514 C9.525,8.514 9.13,8.909 9.13,9.397" id="Fill-5" ></path>
        </g>
    </g>
</svg>