<svg id="Layer_1" xmlns="http://www.w3.org/2000/svg" width="600" height="80" viewBox="0 0 600 80"><linearGradient id="SVGID_1_" gradientUnits="userSpaceOnUse" x1="756.709" y1="-247.54" x2="756.709" y2="-172.528" gradientTransform="matrix(1 0 0 -1 -256 -170.5)"><stop offset=".5" stop-color="#008356"/><stop offset="1" stop-color="#00AAA0"/></linearGradient><path fill="url(#SVGID_1_)" d="M500.653 2.028c5.17 0 10.04.985 14.593 2.945 4.546 1.963 8.537 4.65 11.947 8.064 3.41 3.417 6.105 7.4 8.078 11.953 1.955 4.554 2.94 9.424 2.94 14.602 0 5.182-.985 10.05-2.94 14.602-1.972 4.554-4.665 8.518-8.077 11.89-3.41 3.378-7.4 6.048-11.947 8.013-4.553 1.96-9.422 2.943-14.593 2.943-5.185 0-10.052-.982-14.608-2.943-4.555-1.965-8.527-4.634-11.89-8.013-3.38-3.372-6.048-7.336-8.01-11.89-1.965-4.552-2.94-9.42-2.94-14.602 0-5.178.976-10.047 2.94-14.602 1.962-4.554 4.63-8.536 8.01-11.953 3.362-3.416 7.335-6.1 11.89-8.064 4.557-1.96 9.424-2.945 14.608-2.945zm-18.736 37.68c0 2.592.496 5.026 1.483 7.306.974 2.275 2.33 4.278 4.06 6 1.726 1.73 3.725 3.087 6 4.063 2.28.988 4.71 1.475 7.308 1.475 2.586 0 5.02-.486 7.29-1.475 2.288-.977 4.28-2.332 6.01-4.062 1.73-1.723 3.074-3.726 4.064-6 .986-2.28 1.48-4.714 1.48-7.306 0-2.59-.494-5.022-1.48-7.304-.99-2.27-2.334-4.274-4.063-6-1.73-1.73-3.724-3.08-6.01-4.062-2.27-.982-4.706-1.475-7.292-1.475-2.598 0-5.028.492-7.308 1.474-2.275.98-4.274 2.333-6 4.062-1.73 1.726-3.086 3.73-4.06 6-.988 2.282-1.483 4.714-1.483 7.303z"/><linearGradient id="SVGID_2_" gradientUnits="userSpaceOnUse" x1="688.461" y1="-247.54" x2="688.461" y2="-172.528" gradientTransform="matrix(1 0 0 -1 -256 -170.5)"><stop offset=".178" stop-color="#007B9B"/><stop offset="1" stop-color="#37BDE9"/></linearGradient><path fill="url(#SVGID_2_)" d="M456.36 4.618c-1.683-1.72-3.903-2.59-6.656-2.59-2.667 0-4.923.79-6.763 2.355-1.85 1.57-2.768 3.85-2.768 6.833v11.42c0 1.257-.26 2.356-.764 3.3-.52.94-1.146 1.727-1.887 2.355-.75.63-1.59 1.1-2.534 1.414-.94.314-1.804.473-2.59.473-.865 0-1.73-.158-2.58-.473-.874-.313-1.695-.784-2.48-1.413-.786-.628-1.41-1.414-1.886-2.354-.47-.944-.705-2.043-.705-3.3v-11.42c0-2.983-.92-5.263-2.76-6.834-1.852-1.563-4.105-2.355-6.776-2.355-2.75 0-4.972.87-6.663 2.59-1.684 1.728-2.523 3.928-2.523 6.598v11.42c0 3.14.595 6.284 1.76 9.425 1.188 3.133 2.897 5.945 5.13 8.413 2.23 2.472 4.988 4.5 8.243 6.067.63.305 1.278.572 1.94.82v20.49c0 2.67.863 4.87 2.594 6.598 1.73 1.727 3.925 2.59 6.598 2.59 2.734 0 5.024-.863 6.818-2.59 1.817-1.73 2.715-3.928 2.715-6.598V47.316c.63-.232 1.235-.496 1.817-.775 3.265-1.567 6.036-3.596 8.3-6.066 2.29-2.468 4.018-5.28 5.185-8.413 1.188-3.14 1.772-6.283 1.772-9.423V11.215c.002-2.67-.85-4.87-2.535-6.597z"/><linearGradient id="SVGID_3_" gradientUnits="userSpaceOnUse" x1="610.415" y1="-247.511" x2="610.415" y2="-172.5" gradientTransform="matrix(1 0 0 -1 -256 -170.5)"><stop offset=".5" stop-color="#0079BF"/><stop offset="1" stop-color="#73CAEE"/></linearGradient><path fill="url(#SVGID_3_)" d="M383.217 46.665c-.73-1.915-1.626-3.698-2.703-5.34-1.09-1.645-2.298-3.09-3.646-4.343-1.347-1.25-2.648-2.27-3.903-3.052 1.165-1.486 2.243-3.23 3.23-5.23.987-1.988 1.48-4.355 1.48-7.1 0-3.594-.808-6.645-2.424-9.152-1.612-2.502-3.7-4.52-6.27-6.05-2.568-1.524-5.44-2.64-8.625-3.34C357.157 2.35 353.935 2 350.707 2h-15.65c-2.974 0-5.442.843-7.413 2.523-1.987 1.687-3.02 3.775-3.11 6.284V69.03c0 2.43 1.023 4.365 3.04 5.81 2.02 1.454 4.51 2.172 7.483 2.172h15.65c3.23 0 6.784-.33 10.66-.998 3.857-.66 7.502-1.913 10.924-3.75 3.412-1.842 6.26-4.33 8.56-7.457 2.3-3.13 3.444-7.162 3.444-12.094 0-2.11-.36-4.13-1.077-6.048zm-40.34-30.67h11.62c.81 0 1.524.167 2.132.493.604.333 1.11.742 1.513 1.217.405.48.71 1.026.91 1.633.2.612.312 1.166.312 1.67 0 .562-.112 1.116-.312 1.68-.2.555-.504 1.086-.91 1.59-.403.51-.908.916-1.514 1.218-.606.302-1.323.454-2.133.454h-11.62v-9.956zm21.222 37.644c-.314.86-.784 1.686-1.41 2.472-.63.79-1.416 1.414-2.356 1.884-.943.472-2.042.71-3.3.71h-13.81v-15.43h13.81c1.258 0 2.356.253 3.3.764.94.51 1.727 1.14 2.356 1.884.626.747 1.096 1.59 1.41 2.53.313.944.473 1.806.473 2.59 0 .864-.16 1.73-.474 2.595z"/><path fill="#0079BF" d="M398.887 76.973c-1.337 0-2.604-.23-3.783-.69-1.167-.45-2.206-1.07-3.082-1.846-.91-.784-1.638-1.71-2.177-2.76-.56-1.095-.854-2.284-.854-3.526 0-1.626.528-3.175 1.55-4.6.494-.68 1.076-1.308 1.75-1.887-.53-.493-.987-1.042-1.37-1.634-.414-.653-.75-1.35-.984-2.063-.27-.742-.394-1.506-.394-2.246 0-1.16.258-2.284.795-3.336.505-1.018 1.188-1.904 2.04-2.645.834-.72 1.808-1.302 2.92-1.73 1.112-.422 2.31-.646 3.59-.646 1.222 0 2.42.224 3.544.646 1.124.43 2.112 1.012 2.94 1.73.852.74 1.55 1.626 2.054 2.644.53 1.052.797 2.175.797 3.337 0 1.043-.244 2.082-.716 3.078-.448.976-1.122 1.875-1.974 2.66-.854.77-1.897 1.395-3.097 1.868l-.022.002 4.8 3.762 3.39-2.76c.46-.394 1.03-.602 1.66-.602 1.448 0 2.47.977 2.47 2.37 0 .525-.18 1.026-.54 1.492-.066.1-.158.183-.246.253l-.044.045c0 .006-.024.017-.024.023l-2.762 2.308 2.874 2.355c.023.02.033.03.043.042.54.457.832 1.093.832 1.786 0 1.4-1.012 2.378-2.47 2.378-.627 0-1.187-.21-1.658-.598l-3.522-2.828c-.572.438-1.122.826-1.613 1.163-.857.565-1.64 1.025-2.358 1.372-.763.37-1.503.646-2.196.82-.735.178-1.466.266-2.16.266zm-2.65-12.3c-.605.372-1.122.816-1.524 1.33-.518.66-.787 1.358-.787 2.147 0 .543.114 1.042.348 1.506.248.506.57.926 1 1.3.447.385.976.693 1.594.92.605.23 1.287.345 2.02.345.763 0 1.595-.247 2.446-.735.592-.338 1.256-.762 1.974-1.27l-7.07-5.54zm2.65-12.555c-.674 0-1.29.1-1.854.31-.548.192-1.02.463-1.392.794-.366.32-.648.687-.862 1.132-.203.422-.304.864-.304 1.367 0 .5.09.935.282 1.33.202.42.47.77.832 1.085.39.338.872.62 1.434.833.552.21 1.188.327 1.886.35.65 0 1.242-.1 1.773-.303.536-.197 1.008-.472 1.39-.804.358-.31.652-.683.854-1.128.203-.416.314-.863.314-1.362 0-.502-.11-.944-.314-1.367-.2-.442-.495-.812-.854-1.132-.382-.33-.854-.6-1.39-.8-.536-.203-1.144-.302-1.793-.302z"/><path fill="#0079BF" d="M398.887 76.973c-1.337 0-2.604-.23-3.783-.69-1.167-.45-2.206-1.07-3.082-1.846-.91-.784-1.638-1.71-2.177-2.76-.56-1.095-.854-2.284-.854-3.526 0-1.626.528-3.175 1.55-4.6.494-.68 1.076-1.308 1.75-1.887-.53-.493-.987-1.042-1.37-1.634-.414-.653-.75-1.35-.984-2.063-.27-.742-.394-1.506-.394-2.246 0-1.16.258-2.284.795-3.336.505-1.018 1.188-1.904 2.04-2.645.834-.72 1.808-1.302 2.92-1.73 1.112-.422 2.31-.646 3.59-.646 1.222 0 2.42.224 3.544.646 1.124.43 2.112 1.012 2.94 1.73.852.74 1.55 1.626 2.054 2.644.53 1.052.797 2.175.797 3.337 0 1.043-.244 2.082-.716 3.078-.448.976-1.122 1.875-1.974 2.66-.854.77-1.897 1.395-3.097 1.868l-.022.002 4.8 3.762 3.39-2.76c.46-.394 1.03-.602 1.66-.602 1.448 0 2.47.977 2.47 2.37 0 .525-.18 1.026-.54 1.492-.066.1-.158.183-.246.253l-.044.045c0 .006-.024.017-.024.023l-2.762 2.308 2.874 2.355c.023.02.033.03.043.042.54.457.832 1.093.832 1.786 0 1.4-1.012 2.378-2.47 2.378-.627 0-1.187-.21-1.658-.598l-3.522-2.828c-.572.438-1.122.826-1.613 1.163-.857.565-1.64 1.025-2.358 1.372-.763.37-1.503.646-2.196.82-.735.178-1.466.266-2.16.266zm-2.65-12.3c-.605.372-1.122.816-1.524 1.33-.518.66-.787 1.358-.787 2.147 0 .543.114 1.042.348 1.506.248.506.57.926 1 1.3.447.385.976.693 1.594.92.605.23 1.287.345 2.02.345.763 0 1.595-.247 2.446-.735.592-.338 1.256-.762 1.974-1.27l-7.07-5.54zm2.65-12.555c-.674 0-1.29.1-1.854.31-.548.192-1.02.463-1.392.794-.366.32-.648.687-.862 1.132-.203.422-.304.864-.304 1.367 0 .5.09.935.282 1.33.202.42.47.77.832 1.085.39.338.872.62 1.434.833.552.21 1.188.327 1.886.35.65 0 1.242-.1 1.773-.303.536-.197 1.008-.472 1.39-.804.358-.31.652-.683.854-1.128.203-.416.314-.863.314-1.362 0-.502-.11-.944-.314-1.367-.2-.442-.495-.812-.854-1.132-.382-.33-.854-.6-1.39-.8-.536-.203-1.144-.302-1.793-.302z"/><linearGradient id="SVGID_4_" gradientUnits="userSpaceOnUse" x1="827.031" y1="-247.54" x2="827.031" y2="-172.65" gradientTransform="matrix(1 0 0 -1 -256 -170.5)"><stop offset=".546" stop-color="#008F30"/><stop offset="1" stop-color="#A6C859"/></linearGradient><path fill="url(#SVGID_4_)" d="M570.968 58.316c.785 0 1.65-.16 2.59-.475.944-.313 1.786-.783 2.536-1.41.74-.63 1.37-1.415 1.886-2.355.505-.944.764-2.044.764-3.3V11.334c0-2.984.918-5.26 2.77-6.832 1.84-1.563 4.094-2.35 6.767-2.35 2.75 0 4.97.864 6.653 2.586 1.682 1.73 2.533 3.927 2.533 6.597v39.445c0 3.14-.58 6.28-1.773 9.424-1.163 3.14-2.89 5.947-5.18 8.42-2.267 2.473-5.038 4.494-8.303 6.063-3.254 1.57-7 2.355-11.24 2.355s-7.986-.785-11.24-2.355c-3.25-1.57-6.015-3.59-8.244-6.063-2.23-2.473-3.938-5.28-5.127-8.42-1.17-3.143-1.763-6.283-1.763-9.424V11.333c0-2.67.84-4.868 2.523-6.597 1.694-1.723 3.903-2.585 6.664-2.585 2.67 0 4.923.79 6.772 2.35 1.844 1.572 2.763 3.85 2.763 6.833v39.445c0 1.256.235 2.355.705 3.3.47.94 1.1 1.726 1.885 2.354.784.627 1.605 1.097 2.48 1.412.848.312 1.714.472 2.578.472z"/><path fill="#00B5D8" d="M184.433 77.903c13.052 0 19.454-11.27 19.454-11.27V77.09l6.138.003V51.69c-.025-14.397-11.53-26.105-25.64-26.105-13.953.03-25.673 12.44-25.64 27.098.027 14.142 10.964 25.22 25.688 25.22zm-.014-6.21c-10.436 0-18.904-8.935-18.906-19.912-.026-10.804 8.72-19.966 18.834-19.984h.042c10.39 0 18.856 8.93 18.88 19.91.007 11-8.444 19.962-18.85 19.987zM237.403 11.87v45.865c-.014 6.618 1.473 11.91 4.804 15.32 4.768 4.865 12.152 6.097 22.81 3.557l-1.31-5.71c-13.242 3.49-19.66-.77-19.635-14.92V31.757h18.467V26.32H244.07V11.87h-6.67zM141.55 77.112h6.496V31.758h12.643v-5.415h-12.716l-.007-1.948c-.02-12.372 3.63-18.647 16.795-14.974l1.538-5.4c-2.932-.727-5.37-1.1-7.87-1.1-10.207 0-16.79 7.192-16.79 21.47v1.953h-6.42v5.415h6.33v45.354zM99.644 77.112h6.6V45.98c0-10.284 3.188-14.443 12.978-14.443 2.63 0 5.64.418 9.02 1.29l1.507-5.978c-4.022-.94-7.1-1.263-10.48-1.263-14.45 0-19.626 7.273-19.626 19.554v31.972zM219.326 26.36h6.603v50.733h-6.604zM227.193 8.592c0-2.636-2.142-4.785-4.785-4.785-2.645 0-4.788 2.15-4.788 4.785 0 2.648 2.143 4.788 4.788 4.788 2.64 0 4.785-2.14 4.785-4.788zM68.568 25.654c-14.137 0-25.6 11.69-25.6 26.12 0 14.43 11.462 26.128 25.6 26.128 14.143 0 25.61-11.7 25.61-26.128 0-14.43-11.467-26.12-25.61-26.12zm0 46.47c-10.806 0-19.56-9.11-19.56-20.35 0-11.238 8.755-20.345 19.56-20.345 10.805 0 19.562 9.107 19.562 20.345 0 11.24-8.757 20.348-19.562 20.348zM9.772 77.112V41.464H39.83v-5.83H9.784V16.703c0-6.21 1.43-8.54 7.437-8.54H43.1V2.013H17.036c-10.294 0-14.034 4.533-14.034 14.162L3 77.113h6.772zM270.392 73.887c4.578 2.427 10.65 4.017 17.46 4.017 10.574 0 17.78-6.02 17.78-15.345 0-9.534-6.964-12.468-16.58-15.304-6.013-1.78-11.464-3.457-11.464-8.872 0-2.262.945-7.225 9.647-7.225 5.214 0 9.59 1.167 13.94 3.38l1.747-5.56c-4.623-2.34-10.007-3.42-14.487-3.42-12.115 0-17.42 6.366-17.42 14.033 0 8.402 6.84 10.988 16.29 13.725 6.557 1.9 11.98 3.693 11.98 9.82 0 4.67-3.678 9.088-11.902 9.088-4.966 0-10.71-1.564-15.06-4.036l-1.93 5.697z"/></svg>