<?xml version="1.0" encoding="UTF-8" standalone="no"?>
<svg width="24px" height="16px" viewBox="0 0 24 16" version="1.1" xmlns="http://www.w3.org/2000/svg" xmlns:xlink="http://www.w3.org/1999/xlink" xmlns:sketch="http://www.bohemiancoding.com/sketch/ns">
    <!-- Generator: Sketch 3.1.1 (8761) - http://www.bohemiancoding.com/sketch -->
    <title>icon-4G@1x</title>
    <desc></desc>
    <defs></defs>
    <g id="Page-1" stroke="none" stroke-width="1"  fill-rule="evenodd" >
        <path d="M16.0848503,10.0215 L16.0848503,10.0215 L16.4917948,6.41466667 C16.6362392,5.05041667 17.9209615,3.85191667 19.2431837,3.85191667 L22.1973503,3.85191667 C22.3348503,3.85191667 22.4681837,3.70175 22.4876281,3.53316667 L22.4876281,3.53033333 L22.851517,0.478833333 C22.864017,0.34 22.826517,0.215333333 22.7431837,0.124666667 C22.6695726,0.0439166667 22.5626281,0 22.4417948,0 L19.3431837,0 C16.1959615,0 13.464017,2.50183333 13.1209615,5.695 L13.1195726,5.69783333 L12.6709615,9.4435 C12.5834615,10.2765 12.6654059,11.0981667 12.9112392,11.87875 C13.1584615,12.6664167 13.5626281,13.37475 14.1070726,13.9839167 C14.6417948,14.58175 15.2834615,15.04925 16.0112392,15.3765 C16.739017,15.6995 17.5209615,15.86525 18.3334615,15.86525 C18.3404059,15.86525 18.5973503,15.8709167 18.8112392,15.8709167 C19.5417948,15.8709167 20.989017,15.8128333 22.4820726,15.4204167 C22.7334615,15.351 22.9348503,15.1243333 22.9737392,14.8693333 L23.8292948,7.99991667 C23.8459615,7.85825 23.8084615,7.72508333 23.726517,7.63441667 C23.651517,7.55083333 23.5431837,7.50691667 23.4223503,7.50691667 L19.0959615,7.50691667 C18.9584615,7.50691667 18.8223503,7.63158333 18.8042948,7.7775 L18.5195726,10.0243333 C18.5126281,10.07675 18.5237392,10.1263333 18.5487392,10.1546667 C18.5792948,10.18725 18.6237392,10.1929167 18.6542948,10.1929167 L20.1542948,10.1929167 C20.1542948,10.1929167 19.9737392,11.7710833 19.9709615,11.7795833 C19.9181837,12.291 19.4195726,12.3873333 19.3223503,12.3986667 L19.3181837,12.4015 L19.314017,12.4015 C18.9681837,12.4284167 18.3904059,12.43975 17.9626281,12.4454167 L17.9487392,12.4454167 C17.3820726,12.3986667 16.9126281,12.1805 16.5792948,11.8121667 C16.1904059,11.3744167 16.014017,10.7411667 16.0848503,10.0243333 L16.0848503,10.0215 L16.0848503,10.0215 Z M7.41818368,8.76633333 L4.2529059,8.76916667 L8.09735034,4.64241667 L7.41818368,8.76633333 L7.41818368,8.76633333 Z M12.0112392,8.76066667 L11.089017,8.76066667 L12.0737392,0.702666667 C12.0862392,0.600666667 12.0598503,0.5015 12.0029059,0.43775 C11.9431837,0.371166667 11.8584615,0.357 11.7959615,0.357 L8.89318368,0.357 C8.48207256,0.368333333 7.8154059,0.7395 7.43762812,1.16025 C7.43485034,1.1645 7.43207256,1.1645 0.697350343,8.21241667 C0.365405898,8.59775 0.308461454,8.72666667 0.240405898,9.23666667 L0.00290589821,11.2894167 C-0.0082052129,11.3914167 0.0126281204,11.4835 0.0640170093,11.543 C0.129294787,11.61525 0.22512812,11.6265833 0.279294787,11.6265833 L7.05568368,11.6265833 C7.05568368,11.6265833 6.61262812,15.0634167 6.60429479,15.1243333 C6.59318368,15.232 6.6154059,15.3255 6.66957256,15.3864167 C6.71818368,15.4388333 6.79179479,15.4671667 6.88068368,15.4671667 L9.77929479,15.4671667 C10.0445726,15.4671667 10.3001281,15.2348333 10.3320726,14.9585833 C10.3320726,14.95575 10.739017,11.6265833 10.739017,11.6265833 L11.5987392,11.6265833 C11.676517,11.6265833 11.7779059,11.5245833 11.7904059,11.39425 L12.0237392,8.84566667 C12.0279059,8.80175 12.0195726,8.77483333 12.014017,8.76066667 L12.0112392,8.76066667 L12.0112392,8.76066667 Z" id="icon-4G"></path>
    </g>
</svg>
