<?xml version="1.0" encoding="utf-8"?>
<!-- Generator: Adobe Illustrator 16.0.0, SVG Export Plug-In . SVG Version: 6.00 Build 0)  -->
<!DOCTYPE svg PUBLIC "-//W3C//DTD SVG 1.1//EN" "http://www.w3.org/Graphics/SVG/1.1/DTD/svg11.dtd">
<svg version="1.1" id="Layer_1" xmlns="http://www.w3.org/2000/svg" xmlns:xlink="http://www.w3.org/1999/xlink" x="0px" y="0px"
	 width="169.875px" height="97.75px" viewBox="0 0 169.875 97.75" enable-background="new 0 0 169.875 97.75" xml:space="preserve">
<defs>
	<radialGradient id="SVGID_1_" cx="16.4375" cy="39.625" r="90.5055" gradientUnits="userSpaceOnUse">
		<stop  offset="0" style="stop-color:#23BCEC"/>
		<stop  offset="0.0778" style="stop-color:#00B4E8"/>
		<stop  offset="0.3108" style="stop-color:#00A2DD"/>
		<stop  offset="0.5436" style="stop-color:#0096D6"/>
		<stop  offset="0.7742" style="stop-color:#008FD1"/>
		<stop  offset="1" style="stop-color:#008CCF"/>
	</radialGradient>
</defs>
<g>
	<path fill="#008CCF" d="M27.461,75.402c0-0.871,0.665-1.541,1.54-1.541c0.878,0,1.57,0.67,1.57,1.541v6.046
		c1.001-1.413,2.421-2.548,4.633-2.548c3.187,0,6.301,2.522,6.301,7.047V86c0,4.505-3.088,7.049-6.301,7.049
		c-2.264,0-3.68-1.131-4.633-2.389v0.693c0,0.848-0.692,1.541-1.57,1.541c-0.845,0-1.54-0.693-1.54-1.541V75.402 M38.342,86v-0.053
		c0-2.617-1.775-4.346-3.882-4.346c-2.112,0-3.969,1.752-3.969,4.346V86c0,2.6,1.857,4.35,3.969,4.35
		C36.593,90.35,38.342,88.68,38.342,86"/>
</g>
<g>
	<path fill="#008CCF" d="M44.129,96.572c-0.46-0.152-0.972-0.541-0.972-1.285c0-0.771,0.589-1.287,1.255-1.287
		c0.259,0,0.412,0.051,0.569,0.105c0.356,0.102,0.641,0.18,1.078,0.18c0.924,0,1.414-0.387,1.931-1.439l0.101-0.283l-5.041-11.27
		c-0.103-0.229-0.18-0.539-0.18-0.742c0-0.877,0.667-1.52,1.542-1.52c0.8,0,1.237,0.462,1.521,1.182l3.651,9.027l3.393-9.027
		c0.26-0.643,0.694-1.182,1.493-1.182c0.825,0,1.492,0.643,1.492,1.465c0,0.258-0.075,0.592-0.128,0.746l-4.964,11.91
		c-1.159,2.775-2.394,3.805-4.577,3.805C45.419,96.957,44.774,96.831,44.129,96.572"/>
</g>
<g>
	<path fill="#008CCF" d="M60.314,83.844v-0.055c0-5.114,3.832-9.312,9.284-9.312c2.778,0,4.606,0.823,6.172,2.034
		c0.337,0.259,0.621,0.69,0.621,1.259c0,0.875-0.698,1.547-1.573,1.547c-0.437,0-0.744-0.156-0.95-0.311
		c-1.235-1.004-2.574-1.62-4.295-1.62c-3.422,0-5.943,2.83-5.943,6.354v0.049c0,3.527,2.495,6.38,5.943,6.38
		c1.9,0,3.185-0.618,4.501-1.726c0.228-0.201,0.567-0.357,0.952-0.357c0.797,0,1.493,0.67,1.493,1.465
		c0,0.488-0.234,0.879-0.517,1.135c-1.7,1.487-3.626,2.418-6.532,2.418C64.222,93.104,60.314,89.012,60.314,83.844"/>
</g>
<g>
	<path fill="#008CCF" d="M78.219,86.08v-0.053c0-3.885,3.083-7.101,7.25-7.101c4.17,0,7.229,3.168,7.229,7.046v0.055
		c0,3.861-3.087,7.074-7.277,7.074C81.28,93.102,78.219,89.941,78.219,86.08 M89.589,86.08v-0.053c0-2.394-1.726-4.369-4.167-4.369
		c-2.498,0-4.093,1.951-4.093,4.314v0.055c0,2.365,1.726,4.35,4.142,4.35C87.992,90.377,89.589,88.42,89.589,86.08"/>
</g>
<g>
	<path fill="#008CCF" d="M96.046,81.887h-0.542c-0.718,0-1.311-0.566-1.311-1.285c0-0.725,0.593-1.312,1.311-1.312h0.542v-1.001
		c0-1.494,0.386-2.625,1.106-3.345c0.719-0.721,1.722-1.082,3.062-1.082c0.611,0,1.126,0.052,1.567,0.131
		c0.564,0.074,1.08,0.593,1.08,1.281c0,0.725-0.592,1.314-1.314,1.289c-0.177-0.024-0.436-0.051-0.645-0.051
		c-1.18,0-1.795,0.643-1.795,2.057v0.748h2.418c0.744,0,1.312,0.562,1.312,1.285c0,0.719-0.595,1.285-1.312,1.285h-2.366v9.492
		c0,0.85-0.696,1.543-1.57,1.543c-0.848,0-1.543-0.693-1.543-1.543V81.887 M104.973,75.559c0-0.926,0.771-1.517,1.772-1.517
		c1.007,0,1.774,0.591,1.774,1.517v0.154c0,0.926-0.769,1.545-1.774,1.545c-1.002,0-1.772-0.619-1.772-1.545V75.559z
		 M105.204,80.628c0-0.874,0.665-1.569,1.541-1.569c0.875,0,1.569,0.695,1.569,1.569v10.751c0,0.873-0.694,1.543-1.569,1.543
		c-0.849,0-1.541-0.67-1.541-1.543V80.628z"/>
</g>
<g>
	<path fill="#008CCF" d="M125.218,91.379c0,0.873-0.696,1.543-1.541,1.543c-0.879,0-1.573-0.67-1.573-1.543v-0.848
		c-1.004,1.414-2.418,2.544-4.629,2.544c-3.188,0-6.303-2.544-6.303-7.048v-0.055c0-4.498,3.061-7.046,6.303-7.046
		c2.235,0,3.652,1.104,4.629,2.394V75.43c0-0.873,0.694-1.543,1.545-1.543c0.873,0,1.569,0.67,1.569,1.543V91.379 M114.312,85.975
		v0.053c0,2.623,1.797,4.351,3.904,4.351c2.088,0,3.938-1.753,3.938-4.351v-0.053c0-2.617-1.85-4.347-3.938-4.347
		C116.085,81.628,114.312,83.275,114.312,85.975"/>
</g>
<g>
	<path fill="#008CCF" d="M128.562,75.559c0-0.926,0.77-1.517,1.772-1.517c1.005,0,1.774,0.591,1.774,1.517v0.154
		c0,0.926-0.771,1.545-1.774,1.545s-1.772-0.619-1.772-1.545V75.559 M128.795,80.628c0-0.874,0.666-1.569,1.54-1.569
		c0.876,0,1.569,0.695,1.569,1.569v10.751c0,0.873-0.693,1.543-1.569,1.543c-0.847,0-1.54-0.67-1.54-1.543V80.628z"/>
</g>
<g>
	<path fill="#008CCF" d="M134.941,91.428c-0.338-0.176-0.59-0.563-0.59-1.078c0-0.692,0.535-1.261,1.256-1.261
		c0.261,0,0.49,0.077,0.668,0.179c1.312,0.877,2.68,1.314,3.914,1.314c1.336,0,2.105-0.566,2.105-1.471v-0.047
		c0-1.06-1.439-1.414-3.035-1.904c-2.005-0.564-4.242-1.387-4.242-3.987v-0.05c0-2.574,2.133-4.145,4.836-4.145
		c1.441,0,2.959,0.41,4.27,1.104c0.438,0.229,0.749,0.646,0.749,1.187c0,0.719-0.567,1.262-1.29,1.262
		c-0.258,0-0.409-0.053-0.616-0.158c-1.106-0.564-2.237-0.925-3.188-0.925c-1.209,0-1.903,0.567-1.903,1.339v0.051
		c0,1.006,1.467,1.416,3.062,1.93c1.979,0.618,4.219,1.519,4.219,3.963v0.05c0,2.856-2.213,4.268-5.039,4.268
		C138.385,93.047,136.512,92.514,134.941,91.428"/>
</g>
<g>
	<path fill="#008CCF" d="M138.434,30.031v-0.095c0-2.581-2.063-4.176-5.771-4.176h-8.307v8.728h7.886
		C135.948,34.488,138.434,33.034,138.434,30.031z"/>
	<path fill="#008CCF" d="M133.508,39.368h-9.15v9.009h9.572c3.941,0,6.334-1.548,6.334-4.504v-0.094
		C140.264,41.009,138.059,39.368,133.508,39.368z"/>
	<path fill="url(#SVGID_1_)" d="M164.645,1.479H34.331h-0.873c-17.391,0-32.074,16.288-32.074,34.137
		c0,17.847,14.586,34.135,32.074,34.135h0.873h100.243c18.851,0,34.135-15.283,34.135-34.135V5.542
		C168.709,3.299,166.889,1.479,164.645,1.479z M50.046,43.638c0,6.053-4.645,10.417-11.496,10.417c-4.832,0-8.446-1.689-11.12-4.271
		c-0.516-0.422-0.938-1.22-0.938-2.064c0-1.501,1.267-2.769,2.768-2.769c0.844,0,1.455,0.329,1.923,0.75
		c2.065,2.065,4.411,3.146,7.461,3.146c3.238,0,5.678-1.971,5.678-4.974v-0.095c0-3.237-2.956-5.067-7.555-5.067h-1.173
		c-1.36,0-2.487-1.126-2.487-2.486c0-0.751,0.329-1.455,1.22-2.346l7.695-8.212H30.104c-1.407,0-2.533-1.126-2.533-2.486
		c0-1.408,1.126-2.534,2.533-2.534h16.798c1.642,0,2.862,0.985,2.862,2.534c0,1.36-0.657,2.158-1.642,3.144l-7.742,8.023
		c4.974,0.61,9.666,3.144,9.666,9.196V43.638z M74.957,49.52c-1.126,0-1.924-0.517-2.627-1.455l-6.006-7.742l-6.006,7.742
		c-0.657,0.797-1.455,1.455-2.487,1.455c-1.455,0-2.627-1.08-2.627-2.486c0-0.799,0.281-1.409,0.797-1.971l7.038-8.446l-6.522-7.742
		c-0.61-0.75-0.938-1.406-0.938-2.157c0-1.596,1.22-2.628,2.628-2.628c1.126,0,1.923,0.516,2.627,1.407l5.584,7.319l5.677-7.271
		c0.657-0.846,1.454-1.455,2.44-1.455c1.501,0,2.674,1.078,2.674,2.486c0,0.798-0.328,1.361-0.797,1.924l-6.71,8.023l6.944,8.211
		c0.61,0.751,0.938,1.408,0.938,2.159C77.584,48.487,76.365,49.52,74.957,49.52z M111.227,49.645
		c-3.098,2.722-6.617,4.41-11.918,4.41c-9.574,0-16.706-7.461-16.706-16.893v-0.094c0-9.337,6.991-16.984,16.938-16.984
		c5.066,0,8.398,1.501,11.261,3.707c0.61,0.469,1.126,1.267,1.126,2.299c0,1.595-1.266,2.814-2.861,2.814
		c-0.797,0-1.359-0.281-1.735-0.562c-2.252-1.83-4.692-2.956-7.836-2.956c-6.24,0-10.838,5.161-10.838,11.59v0.093
		c0,6.429,4.551,11.637,10.838,11.637c3.472,0,5.817-1.125,8.212-3.144c0.422-0.376,1.031-0.657,1.734-0.657
		c1.455,0,2.723,1.221,2.723,2.676C112.164,48.472,111.742,49.176,111.227,49.645z M146.035,44.482c0,5.866-4.833,9.01-12.152,9.01
		H121.59c-1.642,0-2.91-1.268-2.91-2.909V23.556c0-1.642,1.27-2.909,2.91-2.909h11.824c3.753,0,6.709,1.032,8.586,2.909
		c1.455,1.454,2.205,3.238,2.205,5.443v0.093c0,3.942-2.252,6.053-4.691,7.32c3.848,1.313,6.521,3.519,6.521,7.977V44.482z"/>
</g>
</svg>
