<?xml version="1.0" encoding="utf-8"?>
<!-- Generator: Adobe Illustrator 16.0.0, SVG Export Plug-In . SVG Version: 6.00 Build 0)  -->
<!DOCTYPE svg PUBLIC "-//W3C//DTD SVG 1.1//EN" "http://www.w3.org/Graphics/SVG/1.1/DTD/svg11.dtd">
<svg version="1.1" id="Appels_France" xmlns="http://www.w3.org/2000/svg" xmlns:xlink="http://www.w3.org/1999/xlink" x="0px"
	 y="0px" width="75.745px" height="60.683px" viewBox="0 0 75.745 60.683" enable-background="new 0 0 75.745 60.683"
	 xml:space="preserve">
<g>
	<path d="M41.141,35.741c-1.422,0-2.571-1.151-2.571-2.572V22.478c0-1.42,1.149-2.572,2.571-2.572h16.351
		c1.303-2.168,2.62-3.912,3.5-5.182C46.945,12.857,37.125,6.633,35.099,0l-5.734,1.471c0,2.685-0.79,7.714-4.386,8.978
		c-5.03,1.77-6.439-1.012-7.403-4.807c-0.758,0.213-2.83,0.762-2.83,0.762s2.068,5.28,0.073,7.271
		C11.921,16.566,0.98,14.57,0.98,14.57S0.762,18.382,0,19.688C23.619,24.752,13.372,47.3,9.102,52.823
		c7.897,7.443,21.395,8.078,24.831,7.812c7.208-10.889,16.107-3.465,16.107-3.465s6.586-2.799,9.062-6.369
		c-3.885-5.507-5.53-10.557-5.848-15.061H41.141z"/>
	<g>
		<polygon points="75.745,27.821 62.324,17.529 62.324,22.478 41.141,22.478 41.141,33.169 62.324,33.169 
			62.324,38.118 		"/>
	</g>
</g>
</svg>
