<?xml version="1.0" encoding="utf-8"?>
<!-- Generator: Adobe Illustrator 19.2.1, SVG Export Plug-In . SVG Version: 6.00 Build 0)  -->
<svg version="1.1" id="Calque_1" xmlns="http://www.w3.org/2000/svg" xmlns:xlink="http://www.w3.org/1999/xlink" x="0px" y="0px"
	 viewBox="0 0 828.8 418.8" style="enable-background:new 0 0 828.8 418.8;" xml:space="preserve">
<style type="text/css">
	.st0{fill:#009DCC;}
</style>
<g>
	<path class="st0" d="M222.3,147.9h27.6v23.2h-27.6V147.9z M223,181.3h26.2v92.3H223V181.3z"/>
	<path class="st0" d="M276.1,147.9h26.2v125.7h-26.2V147.9z"/>
	<path class="st0" d="M328.1,147.9h26.2v125.7h-26.2V147.9z"/>
	<path class="st0" d="M379.4,147.9H407v23.2h-27.6V147.9z M380.1,181.3h26.2v92.3h-26.2V181.3z"/>
	<path class="st0" d="M431,181.3h26.2v13.1c6-7.7,13.9-14.8,27.2-14.8c12.1,0,21.2,5.3,26,14.6c8.1-9.5,17.7-14.6,30.3-14.6
		c19.5,0,31.2,11.7,31.2,33.9v60.1h-26.2v-51.5c0-12.4-5.5-18.8-15.3-18.8c-9.8,0-15.8,6.4-15.8,18.8v51.5h-26.2v-51.5
		c0-12.4-5.5-18.8-15.3-18.8c-9.8,0-15.8,6.4-15.8,18.8v51.5H431V181.3z"/>
	<path class="st0" d="M595.2,147.9h27.6v23.2h-27.6V147.9z M595.9,181.3h26.2v92.3h-26.2V181.3z"/>
	<path class="st0" d="M651,247.4v-43.7h-11v-22.4h11v-23.6h26.2v23.6h21.7v22.4h-21.7v39.4c0,6,2.6,9,8.4,9c4.8,0,9.1-1.2,12.9-3.3
		v21c-5.5,3.3-11.9,5.3-20.7,5.3C661.9,275.2,651,268.8,651,247.4z"/>
	<path class="st0" d="M711.2,228v-0.3c0-26.3,18.8-48,45.6-48c30.8,0,45,23.9,45,50.1c0,2.1-0.2,4.5-0.4,6.9h-64.2
		c2.6,11.9,10.9,18.1,22.6,18.1c8.8,0,15.2-2.8,22.4-9.5l15,13.3c-8.6,10.7-21,17.2-37.7,17.2C731.6,275.7,711.2,256.2,711.2,228z
		 M776.3,220.2c-1.5-11.7-8.4-19.6-19.5-19.6c-10.8,0-17.9,7.7-20,19.6H776.3z M765.2,140.7l22.6,9.8l-22.4,20.7h-19.3L765.2,140.7z
		"/>
</g>
<g>
	<path class="st0" d="M222.1,10.7H246v20.1h-23.8V10.7z M222.7,39.6h22.6v79.8h-22.6V39.6z"/>
	<path class="st0" d="M266.6,39.6h22.6v11.3c5.2-6.7,11.9-12.8,23.4-12.8c17.1,0,27.1,11.3,27.1,29.6v51.7h-22.6V74.9
		c0-10.7-5.1-16.2-13.7-16.2c-8.6,0-14.1,5.5-14.1,16.2v44.5h-22.6V39.6z"/>
	<path class="st0" d="M363.1,96.7V58.9h-9.5V39.6h9.5V19.2h22.6v20.4h18.8v19.4h-18.8V93c0,5.2,2.2,7.7,7.3,7.7
		c4.2,0,7.9-1,11.2-2.8v18.2c-4.8,2.8-10.3,4.6-17.9,4.6C372.5,120.7,363.1,115.2,363.1,96.7z"/>
	<path class="st0" d="M415,79.9v-0.3c0-22.8,16.2-41.5,39.4-41.5c26.6,0,38.8,20.7,38.8,43.3c0,1.8-0.1,3.9-0.3,6h-55.5
		c2.2,10.3,9.4,15.6,19.5,15.6c7.6,0,13.1-2.4,19.4-8.2l12.9,11.5c-7.4,9.2-18.2,14.9-32.6,14.9C432.7,121.1,415,104.3,415,79.9z
		 M471.3,73.2c-1.3-10.1-7.3-17-16.8-17c-9.4,0-15.5,6.7-17.3,17H471.3z"/>
	<path class="st0" d="M510.1,39.6h22.6v16.1c4.6-11,12.1-18.2,25.5-17.6v23.7H557c-15,0-24.3,9.1-24.3,28.1v29.5h-22.6V39.6z"/>
	<path class="st0" d="M572.4,39.6H595v11.3c5.2-6.7,11.9-12.8,23.4-12.8c17.1,0,27.1,11.3,27.1,29.6v51.7h-22.6V74.9
		c0-10.7-5.1-16.2-13.7-16.2c-8.6,0-14.1,5.5-14.1,16.2v44.5h-22.6V39.6z"/>
	<path class="st0" d="M661.2,79.9v-0.3c0-22.8,16.2-41.5,39.4-41.5c26.6,0,38.8,20.7,38.8,43.3c0,1.8-0.1,3.9-0.3,6h-55.5
		c2.2,10.3,9.4,15.6,19.5,15.6c7.6,0,13.1-2.4,19.4-8.2l12.9,11.5c-7.4,9.2-18.2,14.9-32.6,14.9C678.9,121.1,661.2,104.3,661.2,79.9
		z M717.5,73.2c-1.3-10.1-7.3-17-16.8-17c-9.4,0-15.5,6.7-17.3,17H717.5z"/>
	<path class="st0" d="M760,96.7V58.9h-9.5V39.6h9.5V19.2h22.6v20.4h18.8v19.4h-18.8V93c0,5.2,2.2,7.7,7.3,7.7c4.2,0,7.9-1,11.2-2.8
		v18.2c-4.8,2.8-10.3,4.6-17.9,4.6C769.4,120.7,760,115.2,760,96.7z"/>
</g>
<g>
	<path class="st0" d="M19.5,291.5h19.7v94.7H19.5V291.5z"/>
	<path class="st0" d="M54.4,351.8v-0.3c0-19.9,14.1-36.2,34.4-36.2c23.2,0,33.9,18,33.9,37.8c0,1.6-0.1,3.4-0.3,5.2H74
		c1.9,8.9,8.2,13.6,17,13.6c6.6,0,11.4-2.1,16.9-7.1l11.3,10c-6.5,8.1-15.8,13-28.4,13C69.9,387.8,54.4,373.1,54.4,351.8z
		 M103.5,346c-1.2-8.8-6.4-14.8-14.7-14.8c-8.2,0-13.5,5.8-15.1,14.8H103.5z"/>
	<path class="st0" d="M170.6,316.6h20l11.2,42.2l13.1-42.4h17l13.2,42.6l11.4-42.3h19.6l-21.7,70.1h-17.8L223.3,344l-13.6,42.7H192
		L170.6,316.6z"/>
	<path class="st0" d="M281.5,351.8v-0.3c0-19.9,14.1-36.2,34.4-36.2c23.2,0,33.9,18,33.9,37.8c0,1.6-0.1,3.4-0.3,5.2h-48.4
		c1.9,8.9,8.2,13.6,17,13.6c6.6,0,11.4-2.1,16.9-7.1l11.3,10c-6.5,8.1-15.8,13-28.4,13C297,387.8,281.5,373.1,281.5,351.8z
		 M330.6,346c-1.2-8.8-6.4-14.8-14.7-14.8c-8.2,0-13.5,5.8-15.1,14.8H330.6z"/>
	<path class="st0" d="M361.1,351.8v-0.3c0-19.9,14.1-36.2,34.4-36.2c23.2,0,33.9,18,33.9,37.8c0,1.6-0.1,3.4-0.3,5.2h-48.4
		c1.9,8.9,8.2,13.6,17,13.6c6.6,0,11.4-2.1,16.9-7.1l11.3,10c-6.5,8.1-15.8,13-28.4,13C376.6,387.8,361.1,373.1,361.1,351.8z
		 M410.2,346c-1.2-8.8-6.4-14.8-14.7-14.8c-8.2,0-13.5,5.8-15.1,14.8H410.2z"/>
	<path class="st0" d="M444.1,291.5h19.7V342l23.1-25.3h23.6L484,344l27.4,42.2h-22.8l-17.8-28.6l-7,7.4v21.2h-19.7V291.5z"/>
	<path class="st0" d="M516,336.5h40v18.9h-40V336.5z"/>
	<path class="st0" d="M567.9,351.8v-0.3c0-19.9,14.1-36.2,34.4-36.2c23.2,0,33.9,18,33.9,37.8c0,1.6-0.1,3.4-0.3,5.2h-48.4
		c1.9,8.9,8.2,13.6,17,13.6c6.6,0,11.4-2.1,16.9-7.1l11.3,10c-6.5,8.1-15.8,13-28.4,13C583.4,387.8,567.9,373.1,567.9,351.8z
		 M617,346c-1.2-8.8-6.4-14.8-14.7-14.8c-8.2,0-13.5,5.8-15.1,14.8H617z"/>
	<path class="st0" d="M650.9,316.6h19.7v9.9c4.5-5.8,10.4-11.2,20.4-11.2c14.9,0,23.6,9.9,23.6,25.8v45h-19.7v-38.8
		c0-9.3-4.4-14.1-11.9-14.1c-7.5,0-12.3,4.8-12.3,14.1v38.8h-19.7V316.6z"/>
	<path class="st0" d="M728.7,351.6v-0.3c0-23.2,15.2-35.9,31.7-35.9c10.5,0,17,4.8,21.7,10.4v-34.3h19.7v94.7H782v-10
		c-4.8,6.5-11.4,11.3-21.7,11.3C744.1,387.5,728.7,374.8,728.7,351.6z M782.3,351.6v-0.3c0-11.5-7.7-19.2-16.9-19.2
		c-9.2,0-17,7.5-17,19.2v0.3c0,11.5,7.8,19.2,17,19.2C774.6,370.8,782.3,363.1,782.3,351.6z"/>
</g>
<path class="st0" d="M160.1,25.9c-1.2-8.1-8.8-13.6-16.9-12.4L31.7,30.2C23.5,31.4,17.9,39,19.1,47l32,213.8
	c1.2,8.1,8.8,13.6,16.9,12.4l111.6-16.7c8.1-1.2,13.8-8.7,12.5-16.8L160.1,25.9z M76.4,32.7l22.1-3.3c2-0.3,3.8,0.4,4.1,2.4
	s-1.2,3.2-3.2,3.6l-22.1,3.3c-2,0.3-3.8-0.4-4.1-2.4C72.9,34.2,74.4,33,76.4,32.7 M120.4,251.4c-6.1,0.9-11.8-3.3-12.7-9.4
	c-0.9-6.1,3.3-11.8,9.4-12.7c6.1-0.9,11.8,3.3,12.7,9.4C130.7,244.8,126.5,250.5,120.4,251.4 M170,215L62,231.2l-26.5-177l108-16.2
	L170,215z"/>
</svg>
