<?xml version="1.0" encoding="UTF-8" standalone="no"?>
<svg width="27px" height="32px" viewBox="0 0 27 32" version="1.1" xmlns="http://www.w3.org/2000/svg" xmlns:xlink="http://www.w3.org/1999/xlink" xmlns:sketch="http://www.bohemiancoding.com/sketch/ns">
    <!-- Generator: Sketch 3.1.1 (8761) - http://www.bohemiancoding.com/sketch -->
    <title>icon-reprise-mobile@1x</title>
    <desc></desc>
    <defs></defs>
    <g id="Page-1" stroke="none" stroke-width="1"  fill-rule="evenodd" >
        <g id="icon-reprise-mobile"  transform="translate(0.000000, 1.000000)">
            <path d="M12.73536,10.9312 C11.60676,11.5349333 10.66392,12.3306667 9.91224,13.4101333 C10.19196,13.4997333 10.44144,13.5776 10.74276,13.6746667 C9.87552,14.4789333 9.03636,15.2586667 8.14752,16.0832 C7.76196,14.9130667 7.38936,13.7898667 6.9984,12.6058667 C7.2792,12.6837333 7.5168,12.7370667 7.74576,12.8170667 C7.938,12.8832 8.0514,12.8373333 8.18208,12.6794667 C9.42408,11.1797333 10.93716,10.0128 12.74508,9.2608 C14.60052,8.48746667 16.51428,8.23786667 18.46908,8.91413333 C19.13436,9.1456 20.44872,9.76853333 21.43692,11.0624 C23.24052,13.4250667 23.00616,16.6933333 20.99844,18.9205333 C20.90772,19.0208 20.81484,19.1210667 20.74788,19.2458667 C21.85488,18.6250667 22.79124,17.8250667 23.55048,16.7477333 C23.26752,16.656 23.01264,16.5749333 22.7178,16.4810667 C23.58936,15.6725333 24.43176,14.8938667 25.31628,14.0746667 C25.70076,15.2437333 26.07228,16.3626667 26.46324,17.5498667 C26.20512,17.4794667 25.98696,17.4314667 25.78068,17.3568 C25.5582,17.2768 25.41348,17.3141333 25.24932,17.5125333 C24.01488,18.992 23.00076,20.2709333 21.21228,21.0186667 C19.3482,21.7962667 16.94088,21.9232 14.97744,21.2330667 C14.08968,20.9205333 12.987,20.0981333 12.60576,19.6917333 C10.33992,17.2746667 10.2978,13.7248 12.47616,11.2309333 C12.56256,11.1306667 12.64788,11.0314667 12.73536,10.9312 M18.93996,17.7536 C18.17964,18.1088 17.45388,18.1973333 16.71624,17.8997333 C15.98076,17.6 15.49908,17.0816 15.31656,16.256 L15.6384,16.256 C16.43544,16.256 17.2314,16.2602667 18.02628,16.2517333 C18.67212,16.2464 18.55656,16.3392 18.57924,15.7130667 C18.5868,15.5125333 18.5166,15.4538667 18.3168,15.456 C17.44416,15.4645333 16.57044,15.4581333 15.6978,15.4581333 C15.16104,15.4581333 15.13296,15.4272 15.21936,14.896 C15.22368,14.8704 15.23988,14.8458667 15.2658,14.7893333 L18.5544,14.7893333 L18.5544,13.9957333 L15.35868,13.9957333 C15.46128,13.4144 15.76044,12.992 16.2,12.6816 C17.03052,12.096 17.92476,12.1130667 18.85032,12.5098667 C18.95616,12.0746667 19.05012,11.6874667 19.143,11.3066667 C18.5004,10.9504 17.46468,10.8352 16.65576,11.0464 C15.19344,11.4272 14.1858,12.2933333 13.76136,13.7568 C13.70196,13.9584 13.61232,14.0373333 13.40388,14.0170667 C13.24836,14.0021333 13.08852,14.0149333 12.93084,14.0149333 L12.93084,14.7957333 L13.56804,14.7957333 L13.56804,15.4442667 C13.33692,15.456 13.13172,15.4645333 12.92436,15.4752 L12.92436,16.2517333 C13.11012,16.2517333 13.27212,16.2624 13.4298,16.2474667 C13.5972,16.2378667 13.67388,16.3082667 13.70412,16.4629333 C13.99464,17.9082667 14.9094,18.7872 16.29936,19.2149333 C17.29512,19.5210667 18.26064,19.44 19.197,18.9706667 C19.11276,18.5642667 19.03068,18.1813333 18.93996,17.7536 Z M1.54224,-0.417066667 C1.04004,-0.299733333 0.29268,0.0352 0.11556,0.989866667 L0.11556,28.9290667 C0.21276,29.4496 0.55836,30.3754667 1.77336,30.4853333 L16.11576,30.4853333 C16.53696,30.4416 17.67636,30.2058667 17.86644,28.9536 L17.86644,22.3274667 C17.47548,22.3296 17.0856,22.3061333 16.69896,22.2624 L16.69896,24.7584 C16.69896,26.1856 15.25608,26.1856 15.25608,26.1856 L2.7918,26.1856 C1.34892,26.1856 1.34892,24.7584 1.34892,24.7584 L1.34892,3.00053333 C1.34892,1.57546667 2.7918,1.57546667 2.7918,1.57546667 L15.25608,1.57546667 C16.69896,1.57546667 16.69896,2.90666667 16.69896,2.90666667 L16.69896,7.86453333 C17.0856,7.89546667 17.47548,7.95626667 17.86644,8.048 L17.86644,1.152 C17.79516,0.6976 17.52408,-0.174933333 16.52724,-0.417066667 L1.54224,-0.417066667 Z M7.25328,0.625066667 C7.25328,0.4832 7.371,0.3648 7.51788,0.3648 L10.45224,0.3648 C10.59912,0.3648 10.71792,0.4832 10.71792,0.625066667 C10.71792,0.7712 10.59912,0.8896 10.45224,0.8896 L7.51788,0.8896 C7.371,0.8896 7.25328,0.7712 7.25328,0.625066667 L7.25328,0.625066667 Z M7.63128,28.2293333 C7.65612,27.5125333 8.25228,26.9376 8.98344,26.9376 C9.73296,26.9376 10.33884,27.5370667 10.33884,28.2752 C10.33884,29.0144 9.73296,29.6149333 8.98344,29.6149333 C8.25228,29.6149333 7.65612,28.9504 7.63128,28.2293333 L7.63128,28.2293333 Z" id="Fill-1" ></path>
        </g>
    </g>
</svg>