<?xml version="1.0" encoding="utf-8"?>
<!-- Generator: Adobe Illustrator 16.0.2, SVG Export Plug-In . SVG Version: 6.00 Build 0)  -->
<!DOCTYPE svg PUBLIC "-//W3C//DTD SVG 1.1//EN" "http://www.w3.org/Graphics/SVG/1.1/DTD/svg11.dtd">
<svg version="1.1" id="Layer_1" xmlns="http://www.w3.org/2000/svg" xmlns:xlink="http://www.w3.org/1999/xlink" x="0px" y="0px"
	 width="122px" height="60px" viewBox="0 0 122 60" enable-background="new 0 0 122 60" xml:space="preserve">
	<g id="svg-13008">
		<path fill="#E42829" d="M31.375,19.548c1.313,0,2.625,0,3.938,0c-0.188,0.5-0.375,1-0.563,1.5H40l-1.125,3.188h-6
			c-0.563,1.375-1.125,2.75-1.688,4.125H37l-1.249,3.094l-5.938,0.031c0,0-1.247,2.882-2.188,4.938h6
			c0,0.063-1.313,3.188-1.313,3.188H19.938c0-0.063,4.375-10.313,6.563-15.375c-0.625,0-1.25,0-1.875,0
			c0.375-1.063,0.938-2.125,1.313-3.188c1.688,0,3.188,0,4.875,0C31,20.548,31.188,20.048,31.375,19.548z"/>
		<path fill="#E42829" d="M6.813,20.86h8.813c0,0.063-4.563,10.438-6.75,15.563h5.813l-1.313,3.188H1
			c2.188-5.188,4.375-10.375,6.563-15.563H5.5L6.813,20.86z"/>
		<path fill="#E42829" d="M17.313,20.86H23.5c-1.189,3.754-2.933,6.619-7.125,7.313l1.688-3.938H16
			C16,24.173,17.313,20.86,17.313,20.86z"/>
		<path fill="#E42829" d="M60.625,20.86c2.749,0,5.5,0,8.25,0c0,1.009-6,13.688-6,13.688s-0.254,0.968,0.65,1.5
			c0.865,0.583,2.442,0.608,3.287-0.188c1.03,0,6.563-15,6.563-15c1.188,0,2.375,0,3.563,0C76,23.048,71.641,33.298,70.703,35.484
			c0,0-1.594,4.125-7.078,4.125c-2.299,0-3.972-0.312-5.25-1.313c-3.691-2.889,2.207-11.056,3-14.249c-1.875,0-2.063,0.062-2.063,0
			C59.75,23.048,60.188,21.86,60.625,20.86z"/>
		<path fill="#E42829" d="M106.563,20.86c4.813,0,9.627,0,14.438,0c0,0.063-0.875,2.313-1.313,3.375H113.5
			c-0.563,1.375-1.125,2.75-1.688,4.125c0,0,6.155,0,6,0c-0.375,0.938-0.75,2.063-1.125,3c-2.125,0-4.25,0-6.375,0
			c-0.688,1.75-1.375,3.5-2.063,5.25h6c-0.375,0.875-0.75,1.938-1.125,2.813c-4.125,0-8.25,0-12.375,0
			c0-0.063,6.375-15.188,6.375-15.188h-1.875C105.25,24.048,106.563,20.86,106.563,20.86z"/>
		<path fill="#E42829" d="M78.813,21.048c2.75,0,5.5,0,8.25,0C84.375,27.234,81.688,33.423,79,39.609c-2.063,0-4.125,0-6.188,0
			c2.125-5.063,4.438-10.313,6.563-15.375H77.5C77.938,23.173,78.375,22.11,78.813,21.048z"/>
		<path fill="#E42829" d="M50.106,20.979c-0.32,0-1.289,0.001-1.632,0.013c-5.625-0.013-8.329,5.531-9.225,7.369
			c-3.975,8.157,2.006,11.418,3.844,11.424l3.563,0.014l0.281,0.654h3.137l-0.887-1.404C55.984,38.04,62.331,20.979,50.106,20.979z
			 M47.282,35.883c-0.188-0.313-0.666-1.146-0.854-1.459c0.064,0.1-2.21,1.18-2.21,1.18l0.492,0.938c-0.656,0-1.266,0-1.552-0.797
			v-1.313l3.778-8.579c0.398-1.219,1.336-1.892,1.781-1.892c0.307,0,1.523,0,1.523,0c0.844-0.005,1.477,0.792,1.477,1.89
			L47.282,35.883z"/>
		<path fill="#E42829" d="M101.125,21.048H88.938c-0.438,1-1.313,3.125-1.313,3.188c0.688,0,1.376,0,2.063,0
			c-2.125,5.124-4.25,10.249-6.375,15.374c2.063,0,4.125,0,6.188,0c0.875-2.187,1.75-4.375,2.625-6.562c0,0,6.376,0,6.563,0
			c1.438,0.03,4.781-2.03,5.531-6.313C104.738,23.77,102.75,21.048,101.125,21.048z M96.25,30.048c-0.063,0.062-2,0-2.813,0
			c0.75-1.875,1.688-3.938,2.438-5.813h2.438C98.736,26.305,97.795,29.338,96.25,30.048z"/>
	</g>
</svg>
