<?xml version="1.0" encoding="UTF-8" standalone="no"?>
<svg width="26px" height="24px" viewBox="0 0 26 24" version="1.1" xmlns="http://www.w3.org/2000/svg" xmlns:xlink="http://www.w3.org/1999/xlink" xmlns:sketch="http://www.bohemiancoding.com/sketch/ns">
    <!-- Generator: Sketch 3.1.1 (8761) - http://www.bohemiancoding.com/sketch -->
    <title>icon-piecejointe@1x</title>
    <desc></desc>
    <defs></defs>
    <g id="Page-1" stroke="none" stroke-width="1"  fill-rule="evenodd" >
        <path d="M2.60200079,22.1303472 L0.892500789,20.3009472 C-0.342499211,18.9791472 -0.289908302,16.8809472 1.01363715,15.6275472 L15.568319,1.59774722 C17.8610462,-0.613852776 21.4975008,-0.516652776 23.6726372,1.80954722 C25.8483644,4.13694722 25.7544099,7.82934722 23.4610917,10.0397472 L12.6427281,20.4695472 C12.331319,20.7695472 11.837319,20.7575472 11.5406826,20.4413472 C11.2452281,20.1227472 11.2576372,19.6223472 11.5696372,19.3211472 L22.3874099,8.89254722 C24.0579099,7.28334722 24.1270462,4.59414722 22.5440008,2.90094722 C20.9574099,1.20594722 18.3107281,1.13574722 16.640819,2.74494722 L2.08495533,16.7759472 C1.40481897,17.4293472 1.37822806,18.5207472 2.02231897,19.2119472 L3.73122806,21.0401472 C4.37590988,21.7289472 5.45372806,21.7571472 6.1320917,21.1031472 L16.4629553,11.1449472 C17.141319,10.4909472 17.1702735,9.39774722 16.5250008,8.70714722 C15.8809099,8.01834722 14.8030917,7.99134722 14.1259099,8.64654722 L5.75095533,16.7171472 C5.44072806,17.0171472 4.94495533,17.0039472 4.6500917,16.6889472 C4.35404624,16.3703472 4.36645533,15.8699472 4.67786443,15.5699472 L13.0540008,7.49814722 C14.3540008,6.24174722 16.4192281,6.29574722 17.654819,7.61994722 C18.8927735,8.94054722 18.837819,11.0357472 17.5348644,12.2933472 L7.20400079,22.2509472 C5.90163715,23.5043472 3.83936443,23.4509472 2.60200079,22.1303472" id="icon-piecejointe"></path>
    </g>
</svg>