<?xml version="1.0" encoding="utf-8"?>
<!-- Generator: Adobe Illustrator 16.0.0, SVG Export Plug-In . SVG Version: 6.00 Build 0)  -->
<!DOCTYPE svg PUBLIC "-//W3C//DTD SVG 1.1//EN" "http://www.w3.org/Graphics/SVG/1.1/DTD/svg11.dtd">
<svg version="1.1" id="Calque_1" xmlns="http://www.w3.org/2000/svg" xmlns:xlink="http://www.w3.org/1999/xlink" x="0px" y="0px"
	 width="595.281px" height="211.539px" viewBox="0 0 595.281 211.539" enable-background="new 0 0 595.281 211.539"
	 xml:space="preserve">
<g>
	<g>
		
			<image overflow="visible" opacity="0.75" enable-background="new    " width="2354" height="708" xlink:href="365011A91CECC613.png"  transform="matrix(0.2394 0 0 0.2397 14.7964 20.8799)">
		</image>
		<g>
			<path fill="#FFFFFF" d="M574.275,161.074c0,13.961-12.297,25.284-27.461,25.284H43.391c-15.165,0-27.461-11.323-27.461-25.284
				V47.297c0-13.967,12.296-25.283,27.461-25.283h503.425c15.164,0,27.461,11.316,27.461,25.283v113.777H574.275z"/>
		</g>
	</g>
	<g>
		<path fill="#104A93" d="M184.168,131.259l1.222,4.621c0.243,1.015,0.488,1.957,0.658,2.895h0.055
			c0.207-0.919,0.507-1.898,0.809-2.871l1.485-4.645h1.391l1.409,4.549c0.338,1.087,0.601,2.048,0.809,2.967h0.057
			c0.149-0.919,0.394-1.88,0.694-2.947l1.297-4.566h1.635l-2.932,9.097h-1.502l-1.391-4.346c-0.319-1.015-0.582-1.916-0.809-2.984
			h-0.037c-0.226,1.087-0.507,2.029-0.827,3.009l-1.465,4.321h-1.504l-2.743-9.097h1.689V131.259z"/>
		<path fill="#104A93" d="M201.094,131.259l1.222,4.621c0.243,1.015,0.488,1.957,0.657,2.895h0.057
			c0.208-0.919,0.507-1.898,0.809-2.871l1.485-4.645h1.391l1.409,4.549c0.339,1.087,0.602,2.048,0.809,2.967h0.055
			c0.15-0.919,0.395-1.88,0.695-2.947l1.296-4.566h1.636l-2.932,9.097h-1.503l-1.391-4.346c-0.319-1.015-0.582-1.916-0.807-2.984
			h-0.039c-0.225,1.087-0.507,2.029-0.827,3.009l-1.465,4.321h-1.504l-2.743-9.097h1.69V131.259z"/>
		<path fill="#104A93" d="M218.019,131.259l1.222,4.621c0.244,1.015,0.488,1.957,0.657,2.895h0.057
			c0.208-0.919,0.507-1.898,0.809-2.871l1.484-4.645h1.391l1.408,4.549c0.339,1.087,0.602,2.048,0.809,2.967h0.055
			c0.15-0.919,0.396-1.88,0.695-2.947l1.297-4.566h1.635l-2.932,9.097h-1.503l-1.391-4.346c-0.319-1.015-0.582-1.916-0.807-2.984
			h-0.039c-0.226,1.087-0.508,2.029-0.827,3.009l-1.465,4.321h-1.504l-2.743-9.097h1.692V131.259z"/>
		<path fill="#104A93" d="M232.935,139.376c0-0.674,0.47-1.182,1.127-1.182c0.658,0,1.11,0.489,1.11,1.182
			c0,0.676-0.452,1.184-1.147,1.184C233.385,140.56,232.935,140.052,232.935,139.376z"/>
		<path fill="#104A93" d="M240.25,140.357v-7.837h-1.259v-1.261h1.259v-0.436c0-1.277,0.3-2.441,1.052-3.176
			c0.621-0.598,1.447-0.842,2.217-0.842c0.601,0,1.089,0.132,1.41,0.263l-0.227,1.277c-0.243-0.113-0.562-0.21-1.052-0.21
			c-1.409,0-1.767,1.225-1.767,2.634v0.489h2.2v1.26h-2.2v7.837L240.25,140.357L240.25,140.357z"/>
		<path fill="#104A93" d="M255.985,139.02c0,2.106-0.433,3.366-1.297,4.172c-0.901,0.812-2.18,1.093-3.326,1.093
			c-1.089,0-2.292-0.264-3.026-0.752l0.415-1.277c0.602,0.395,1.54,0.734,2.668,0.734c1.691,0,2.931-0.885,2.931-3.199v-0.998
			h-0.037c-0.488,0.849-1.485,1.522-2.894,1.522c-2.254,0-3.871-1.916-3.871-4.435c0-3.08,2.01-4.812,4.115-4.812
			c1.578,0,2.423,0.812,2.837,1.564h0.037l0.057-1.373h1.467c-0.057,0.639-0.076,1.391-0.076,2.482V139.02z M254.332,134.847
			c0-0.28-0.02-0.525-0.094-0.734c-0.301-0.973-1.091-1.76-2.312-1.76c-1.579,0-2.707,1.33-2.707,3.438
			c0,1.785,0.922,3.271,2.688,3.271c1.034,0,1.955-0.645,2.293-1.693c0.094-0.281,0.131-0.604,0.131-0.885L254.332,134.847
			L254.332,134.847z"/>
		<path fill="#104A93" d="M261.049,140.357v-1.016l1.296-1.26c3.119-2.973,4.547-4.547,4.547-6.393c0-1.234-0.582-2.389-2.405-2.389
			c-1.109,0-2.029,0.568-2.594,1.039l-0.525-1.17c0.827-0.691,2.049-1.235,3.438-1.235c2.632,0,3.741,1.803,3.741,3.552
			c0,2.258-1.635,4.077-4.209,6.555l-0.959,0.906v0.036h5.469v1.373L261.049,140.357L261.049,140.357z"/>
		<path fill="#104A93" d="M280.47,138.177c0,0.789,0.037,1.559,0.131,2.18h-1.485l-0.131-1.146h-0.055
			c-0.509,0.711-1.485,1.351-2.781,1.351c-1.843,0-2.782-1.296-2.782-2.608c0-2.203,1.955-3.402,5.469-3.385v-0.186
			c0-0.733-0.207-2.106-2.068-2.09c-0.864,0-1.748,0.246-2.386,0.676l-0.376-1.104c0.752-0.473,1.861-0.795,3.007-0.795
			c2.781,0,3.458,1.898,3.458,3.707v3.4H280.47z M278.874,135.712c-1.804-0.035-3.853,0.281-3.853,2.047
			c0,1.094,0.715,1.582,1.542,1.582c1.203,0,1.973-0.752,2.235-1.521c0.057-0.191,0.076-0.376,0.076-0.525V135.712L278.874,135.712z
			"/>
		<path fill="#104A93" d="M285.611,139.376c0-0.674,0.47-1.182,1.128-1.182c0.657,0,1.109,0.489,1.109,1.182
			c0,0.676-0.452,1.184-1.147,1.184C286.062,140.56,285.611,140.052,285.611,139.376z"/>
		<path fill="#104A93" d="M299.238,140.035c-0.431,0.209-1.39,0.525-2.611,0.525c-2.744,0-4.529-1.855-4.529-4.639
			c0-2.799,1.916-4.854,4.886-4.854c0.977,0,1.842,0.245,2.292,0.489l-0.376,1.26c-0.395-0.203-1.015-0.43-1.916-0.43
			c-2.086,0-3.214,1.558-3.214,3.438c0,2.105,1.354,3.4,3.158,3.4c0.94,0,1.559-0.227,2.029-0.436L299.238,140.035z"/>
		<path fill="#104A93" d="M312.158,135.731c0,3.366-2.35,4.829-4.529,4.829c-2.442,0-4.358-1.803-4.358-4.68
			c0-3.021,2.011-4.812,4.509-4.812C310.392,131.069,312.158,132.966,312.158,135.731z M304.96,135.828
			c0,1.992,1.127,3.496,2.744,3.496c1.578,0,2.762-1.486,2.762-3.533c0-1.539-0.771-3.479-2.725-3.479
			C305.806,132.311,304.96,134.113,304.96,135.828z"/>
		<path fill="#104A93" d="M317.109,133.718c0-0.954-0.037-1.706-0.074-2.459h1.447l0.074,1.486h0.057
			c0.508-0.865,1.354-1.678,2.877-1.678c1.221,0,2.159,0.753,2.555,1.827h0.037c0.283-0.524,0.658-0.901,1.033-1.188
			c0.547-0.41,1.129-0.639,1.992-0.639c1.223,0,3.008,0.794,3.008,3.952v5.336h-1.617v-5.134c0-1.768-0.658-2.799-1.973-2.799
			c-0.958,0-1.673,0.697-1.975,1.486c-0.074,0.243-0.131,0.523-0.131,0.822v5.623h-1.617v-5.45c0-1.45-0.639-2.481-1.897-2.481
			c-1.015,0-1.784,0.828-2.047,1.652c-0.094,0.227-0.133,0.525-0.133,0.812v5.468h-1.616V133.718z"/>
		<path fill="#104A93" d="M334.261,141.091l5.226-13.627h1.298l-5.263,13.627H334.261z"/>
		<path fill="#104A93" d="M344.96,127.009h1.656v13.348h-1.656V127.009z"/>
		<path fill="#104A93" d="M358.647,138.177c0,0.789,0.037,1.559,0.132,2.18h-1.484l-0.131-1.146h-0.057
			c-0.507,0.711-1.484,1.351-2.781,1.351c-1.843,0-2.781-1.296-2.781-2.608c0-2.203,1.955-3.402,5.47-3.385v-0.186
			c0-0.733-0.207-2.106-2.068-2.09c-0.864,0-1.747,0.246-2.386,0.676l-0.376-1.104c0.752-0.473,1.86-0.795,3.007-0.795
			c2.781,0,3.457,1.898,3.457,3.707L358.647,138.177L358.647,138.177z M357.05,135.712c-1.803-0.035-3.852,0.281-3.852,2.047
			c0,1.094,0.715,1.582,1.541,1.582c1.202,0,1.973-0.752,2.234-1.521c0.057-0.191,0.076-0.376,0.076-0.525V135.712L357.05,135.712z"
			/>
		<path fill="#104A93" d="M364.182,127.009h1.636v5.713h0.037c0.584-1.016,1.637-1.653,3.102-1.653c2.273,0,3.854,1.882,3.854,4.626
			c0,3.254-2.066,4.865-4.098,4.865c-1.314,0-2.367-0.508-3.062-1.689h-0.038l-0.093,1.486h-1.41
			c0.037-0.621,0.074-1.54,0.074-2.352L364.182,127.009L364.182,127.009z M365.817,136.708c0,0.209,0.021,0.412,0.075,0.604
			c0.301,1.146,1.277,1.936,2.48,1.936c1.748,0,2.762-1.41,2.762-3.498c0-1.82-0.939-3.379-2.725-3.379
			c-1.107,0-2.16,0.789-2.5,2.029c-0.057,0.203-0.094,0.43-0.094,0.691L365.817,136.708L365.817,136.708z"/>
		<path fill="#104A93" d="M378.662,136.107c0.037,2.238,1.446,3.157,3.119,3.157c1.184,0,1.918-0.203,2.52-0.472l0.3,1.188
			c-0.582,0.264-1.597,0.579-3.044,0.579c-2.801,0-4.473-1.856-4.473-4.603s1.615-4.89,4.266-4.89c2.988,0,3.759,2.597,3.759,4.269
			c0,0.34-0.019,0.584-0.058,0.771L378.662,136.107L378.662,136.107z M383.511,134.925c0.018-1.033-0.434-2.668-2.295-2.668
			c-1.689,0-2.404,1.521-2.535,2.668H383.511z"/>
		<path fill="#104A93" d="M390.021,127.009h1.654v13.348h-1.654V127.009z"/>
	</g>
	<g>
		<path fill="#104A93" d="M182.191,54.263h5.527v22.222h9.116v4.876h-14.643V54.263z"/>
		<path fill="#104A93" d="M206.274,62.864h2.947l8.562,18.497h-4.157l-2.203-4.78h-7.215l-2.258,4.78h-4.157L206.274,62.864z
			 M209.936,73.255l-2.174-5.61l-2.176,5.61H209.936z"/>
		<path fill="#104A93" d="M220.123,62.864h3.688c0.073,0.019,0.148,0.024,0.221,0.024c0.073,0,0.146,0,0.22,0
			c0.055,0,0.115,0,0.179,0s0.124,0,0.179,0c0.79,0,1.574,0.035,2.354,0.102c0.781,0.065,1.537,0.269,2.271,0.603
			c0.844,0.382,1.532,0.955,2.065,1.713c0.533,0.758,0.798,1.576,0.798,2.441c0,0.716-0.184,1.402-0.551,2.054
			c-0.367,0.65-0.926,1.14-1.679,1.474c1.119,0.316,1.978,0.884,2.574,1.689c0.595,0.812,0.894,1.743,0.894,2.793
			c0,0.901-0.215,1.726-0.646,2.478s-1.042,1.396-1.831,1.928c-0.643,0.436-1.349,0.729-2.121,0.89
			c-0.771,0.155-1.552,0.25-2.34,0.286c-0.203,0.018-0.4,0.023-0.592,0.023s-0.391,0-0.592,0h-5.093V62.864H220.123z M224.61,69.973
			c0.037,0.018,0.069,0.023,0.097,0.023c0.027,0,0.051,0,0.068,0c0.146,0,0.303,0,0.469,0c0.164,0,0.33-0.006,0.495-0.023
			c0.257,0,0.509-0.019,0.757-0.06c0.248-0.042,0.473-0.107,0.674-0.191c0.367-0.149,0.652-0.382,0.854-0.698
			s0.303-0.65,0.303-1.003c0-0.382-0.12-0.716-0.358-1.003c-0.239-0.28-0.542-0.489-0.909-0.62
			c-0.146-0.072-0.312-0.113-0.496-0.144c-0.184-0.024-0.376-0.042-0.577-0.06c-0.038,0-0.079,0-0.124,0c-0.046,0-0.097,0-0.152,0
			c-0.091,0-0.188,0-0.288,0c-0.101,0-0.198,0-0.289,0c-0.093,0.018-0.184,0.023-0.276,0.023c-0.091,0-0.184,0-0.274,0h-0.688v3.755
			L224.61,69.973L224.61,69.973z M225.463,78.037c0.551,0.012,1.083-0.012,1.597-0.077c0.515-0.066,1.019-0.251,1.515-0.55
			c0.349-0.221,0.601-0.478,0.758-0.775c0.155-0.305,0.234-0.645,0.234-1.027c0-0.453-0.115-0.829-0.345-1.128
			c-0.23-0.298-0.564-0.561-1.006-0.775c-0.403-0.186-0.816-0.293-1.238-0.322c-0.422-0.036-0.854-0.054-1.294-0.054
			c-0.018,0-0.042,0-0.068,0c-0.028,0-0.051,0-0.069,0h-1.652v4.709L225.463,78.037L225.463,78.037z"/>
		<path fill="#104A93" d="M236.367,62.864h10.931v3.331h-7.158v4.256h6.855v3.33h-6.855v4.256h7.158v3.324h-10.931V62.864z"/>
		<path fill="#104A93" d="M250.959,62.864h3.772v15.173h6.222v3.324h-9.995L250.959,62.864L250.959,62.864z"/>
		<path fill="#104A93" d="M307.71,82.024c-0.055,0-0.107,0-0.162,0s-0.107,0-0.16,0c-0.082,0-0.148,0-0.203,0s-0.107,0-0.161,0
			c-1.265,0-2.501-0.173-3.711-0.514c-1.21-0.34-2.326-0.841-3.349-1.504c-0.807,0.466-1.701,0.842-2.681,1.134
			c-0.982,0.299-1.985,0.514-3.005,0.663c-0.485,0.071-0.968,0.125-1.453,0.167c-0.484,0.035-0.955,0.054-1.412,0.054
			c-4.302,0-8.026-1.337-11.173-4.017c-3.147-2.675-4.72-6.005-4.72-9.992c0-1.958,0.363-3.778,1.089-5.468
			c0.727-1.683,1.828-3.199,3.308-4.542c1.505-1.373,3.24-2.417,5.203-3.14c1.962-0.722,3.993-1.08,6.091-1.08
			c4.33,0,8.074,1.349,11.234,4.053c3.159,2.704,4.739,6.094,4.739,10.177c0,1.713-0.282,3.283-0.847,4.709
			c-0.564,1.433-1.467,2.794-2.703,4.089c0.269,0.126,0.559,0.239,0.867,0.353c0.311,0.107,0.64,0.19,0.988,0.238
			c0.215,0.048,0.438,0.084,0.666,0.107c0.229,0.024,0.45,0.036,0.665,0.036l0.888-0.036v4.513H307.71z M281.046,67.645l0.081,1.469
			c0.699-0.167,1.398-0.287,2.097-0.347c0.7-0.06,1.398-0.096,2.098-0.096c1.103,0,2.138,0.078,3.106,0.221
			c0.969,0.149,1.909,0.383,2.823,0.699c0.457,0.148,0.907,0.31,1.352,0.495c0.443,0.185,0.894,0.382,1.351,0.603
			c0.081,0.054,0.168,0.096,0.263,0.132c0.094,0.035,0.195,0.077,0.303,0.125c0.833,0.418,1.653,0.871,2.46,1.36
			c0.808,0.49,1.561,1.027,2.259,1.612c0.833-0.782,1.445-1.684,1.837-2.698c0.389-1.009,0.584-2.059,0.584-3.134
			c0-2.59-0.994-4.811-2.986-6.655c-1.99-1.844-4.411-2.77-7.26-2.77c-1.398,0-2.736,0.251-4.014,0.752
			c-1.277,0.502-2.413,1.218-3.408,2.144c-0.753,0.687-1.392,1.492-1.916,2.423c-0.524,0.932-0.854,1.893-0.988,2.896
			c0,0.125-0.007,0.256-0.021,0.405c-0.013,0.149-0.02,0.281-0.02,0.406V67.645z M295.326,76.264
			c-1.399-0.901-2.918-1.713-4.559-2.436c-1.641-0.722-3.348-1.086-5.124-1.086c-0.457,0-0.913,0.035-1.371,0.095
			c-0.457,0.061-0.915,0.18-1.372,0.347c1.103,1.396,2.42,2.411,3.953,3.044c1.534,0.639,3.228,0.955,5.084,0.955
			c0.349,0,0.679-0.029,0.988-0.096c0.309-0.06,0.612-0.137,0.907-0.232c0.242-0.078,0.485-0.161,0.727-0.257
			c0.242-0.102,0.497-0.197,0.767-0.298V76.264L295.326,76.264z"/>
		<path fill="#104A93" d="M314.242,62.864v11.538c0,0.071,0,0.125,0,0.167s0,0.077,0,0.113c0,0.048,0,0.096,0,0.138
			c0,0.041,0,0.077,0,0.113c0,0.346,0.018,0.692,0.053,1.021c0.037,0.334,0.147,0.662,0.332,0.979
			c0.274,0.466,0.646,0.848,1.115,1.141c0.469,0.292,0.994,0.436,1.582,0.436c0.037,0,0.068,0,0.098,0c0.027,0,0.049,0,0.068,0
			c0.479-0.03,0.932-0.161,1.362-0.388c0.431-0.228,0.774-0.531,1.032-0.914c0.275-0.399,0.436-0.823,0.482-1.277
			c0.045-0.447,0.067-0.906,0.067-1.372c0-0.019,0-0.042,0-0.065c0-0.024,0-0.048,0-0.061V62.864h3.772v11.538
			c0,0.937-0.082,1.826-0.248,2.668c-0.166,0.842-0.58,1.629-1.238,2.363c-0.661,0.723-1.471,1.296-2.424,1.731
			c-0.955,0.43-1.945,0.65-2.975,0.65c-0.093,0-0.188-0.006-0.289-0.012c-0.101-0.013-0.197-0.013-0.287-0.013
			c-0.883-0.083-1.731-0.328-2.549-0.728c-0.816-0.4-1.51-0.896-2.078-1.475c-0.734-0.77-1.193-1.581-1.377-2.429
			c-0.184-0.854-0.275-1.762-0.275-2.729V62.864H314.242z"/>
		<path fill="#104A93" d="M335.166,62.864h2.947l8.562,18.497h-4.157l-2.202-4.78h-7.215l-2.258,4.78h-4.157L335.166,62.864z
			 M338.828,73.255l-2.174-5.61l-2.176,5.61H338.828z"/>
		<path fill="#104A93" d="M349.016,62.864h3.772v15.173h6.221v3.324h-9.993V62.864z"/>
		<path fill="#104A93" d="M361.406,62.864h3.771v18.497h-3.771V62.864z"/>
		<path fill="#104A93" d="M371.455,66.195h-3.744v-3.331h11.315v3.331h-3.801v15.166h-3.771V66.195L371.455,66.195z"/>
		<path fill="#104A93" d="M381.229,62.864h10.931v3.331h-7.158v4.256h6.855v3.33h-6.855v4.256h7.158v3.324h-10.931V62.864z
			 M382.771,59.085l6.195-3.33l1.459,2.603l-6.277,3.032L382.771,59.085z"/>
		<path fill="#104A93" d="M192.156,88.488h4.315l12.546,27.104h-6.091l-3.228-7.008H189.13l-3.308,7.008h-6.091L192.156,88.488z
			 M197.521,103.708l-3.188-8.213l-3.186,8.213H197.521z"/>
		<path fill="#104A93" d="M210.088,110.38h3.938c0,0.752,0.283,1.332,0.854,1.744c0.568,0.404,1.229,0.613,1.981,0.613
			c0.716,0,1.335-0.221,1.859-0.662c0.522-0.441,0.785-0.996,0.785-1.664c0-0.92-0.322-1.588-0.964-2.007
			c-0.643-0.418-1.349-0.739-2.12-0.973c-0.073-0.036-0.151-0.065-0.234-0.091c-0.082-0.022-0.16-0.047-0.234-0.059
			c-0.054-0.019-0.104-0.037-0.151-0.055c-0.046-0.018-0.097-0.029-0.15-0.048c-0.606-0.185-1.176-0.388-1.707-0.614
			c-0.533-0.229-1.039-0.556-1.515-0.991c-0.422-0.4-0.767-0.859-1.033-1.373c-0.267-0.52-0.446-1.05-0.537-1.605
			c0-0.096-0.004-0.197-0.014-0.286c-0.01-0.09-0.013-0.186-0.013-0.287c0-1.521,0.595-2.775,1.789-3.766
			c1.192-0.997,2.596-1.492,4.212-1.492c1.579,0,2.97,0.513,4.171,1.539c1.203,1.027,1.795,2.269,1.775,3.719l-3.881-0.023
			c-0.02-0.567-0.258-1.027-0.716-1.379c-0.459-0.353-0.982-0.525-1.57-0.525c-0.606,0-1.092,0.186-1.459,0.549
			c-0.367,0.37-0.551,0.818-0.551,1.355v0.023v0.024c-0.018,0.603,0.203,1.062,0.661,1.379c0.459,0.315,0.964,0.566,1.515,0.752
			c0.055,0.012,0.12,0.035,0.192,0.06c0.073,0.023,0.137,0.048,0.193,0.06c0.092,0.036,0.183,0.065,0.276,0.09
			c0.091,0.023,0.184,0.054,0.274,0.089c0.624,0.186,1.225,0.389,1.804,0.615c0.578,0.221,1.115,0.525,1.61,0.913
			c0.734,0.514,1.276,1.123,1.625,1.814c0.349,0.692,0.524,1.486,0.524,2.389c0,1.652-0.652,3.037-1.955,4.153
			c-1.304,1.122-2.855,1.677-4.654,1.677c-1.725,0-3.253-0.531-4.584-1.6s-1.997-2.411-1.997-4.027L210.088,110.38L210.088,110.38z"
			/>
		<path fill="#104A93" d="M224.68,110.38h3.938c0,0.752,0.284,1.332,0.854,1.744c0.568,0.404,1.229,0.613,1.981,0.613
			c0.716,0,1.335-0.221,1.859-0.662c0.522-0.441,0.785-0.996,0.785-1.664c0-0.92-0.322-1.588-0.964-2.007
			c-0.643-0.418-1.349-0.739-2.121-0.973c-0.073-0.036-0.15-0.065-0.234-0.091c-0.083-0.022-0.16-0.047-0.234-0.059
			c-0.054-0.019-0.104-0.037-0.151-0.055s-0.097-0.029-0.151-0.048c-0.605-0.185-1.176-0.388-1.707-0.614
			c-0.533-0.229-1.039-0.556-1.514-0.991c-0.422-0.4-0.767-0.859-1.033-1.373c-0.267-0.52-0.446-1.05-0.537-1.605
			c0-0.096-0.005-0.197-0.014-0.286c-0.01-0.09-0.013-0.186-0.013-0.287c0-1.521,0.595-2.775,1.789-3.766
			c1.192-0.997,2.596-1.492,4.212-1.492c1.579,0,2.969,0.513,4.17,1.539c1.203,1.027,1.795,2.269,1.776,3.719l-3.881-0.023
			c-0.019-0.567-0.258-1.027-0.716-1.379c-0.46-0.353-0.982-0.525-1.57-0.525c-0.606,0-1.092,0.186-1.459,0.549
			c-0.367,0.37-0.551,0.818-0.551,1.355v0.023v0.024c-0.018,0.603,0.203,1.062,0.661,1.379c0.459,0.315,0.964,0.566,1.515,0.752
			c0.055,0.012,0.119,0.035,0.192,0.06c0.073,0.023,0.137,0.048,0.192,0.06c0.093,0.036,0.184,0.065,0.276,0.09
			c0.091,0.023,0.184,0.054,0.274,0.089c0.624,0.186,1.225,0.389,1.804,0.615c0.577,0.221,1.114,0.525,1.61,0.913
			c0.734,0.514,1.276,1.123,1.625,1.814c0.349,0.692,0.524,1.486,0.524,2.389c0,1.652-0.652,3.037-1.955,4.153
			c-1.304,1.122-2.854,1.677-4.654,1.677c-1.725,0-3.253-0.531-4.584-1.6s-1.997-2.411-1.997-4.027v-0.031H224.68z"/>
		<path fill="#104A93" d="M244.532,97.095v11.537c0,0.066,0,0.119,0,0.16c0,0.043,0,0.084,0,0.113c0,0.049,0,0.096,0,0.139
			c0,0.041,0,0.078,0,0.113c0,0.352,0.018,0.691,0.054,1.025c0.037,0.335,0.147,0.656,0.331,0.975
			c0.275,0.471,0.646,0.848,1.115,1.139c0.469,0.293,0.995,0.441,1.583,0.441c0.037,0,0.068,0,0.097,0c0.027,0,0.049,0,0.069,0
			c0.478-0.035,0.931-0.167,1.362-0.388c0.431-0.228,0.776-0.531,1.033-0.913c0.276-0.4,0.436-0.83,0.482-1.277
			c0.046-0.453,0.068-0.912,0.068-1.379c0-0.018,0-0.035,0-0.06c0-0.03,0-0.048,0-0.065V97.095h3.772v11.537
			c0,0.938-0.082,1.82-0.248,2.668c-0.166,0.842-0.579,1.63-1.239,2.363c-0.661,0.717-1.47,1.295-2.423,1.726
			c-0.955,0.437-1.946,0.649-2.974,0.649c-0.093,0-0.188,0-0.29-0.012c-0.1-0.006-0.197-0.012-0.288-0.012
			c-0.882-0.084-1.731-0.322-2.547-0.729c-0.817-0.399-1.51-0.891-2.079-1.475c-0.734-0.771-1.194-1.576-1.377-2.43
			c-0.183-0.848-0.274-1.762-0.274-2.729V97.095H244.532z"/>
		<path fill="#104A93" d="M258.657,97.095h5.891c0.973,0.029,1.904,0.113,2.795,0.25c0.891,0.132,1.721,0.49,2.492,1.075
			c0.734,0.549,1.312,1.229,1.734,2.041c0.422,0.806,0.634,1.647,0.634,2.513c0,0.221-0.019,0.441-0.055,0.675
			c-0.037,0.238-0.082,0.472-0.137,0.704c-0.147,0.501-0.349,0.984-0.605,1.45c-0.258,0.466-0.551,0.864-0.882,1.2
			c-0.495,0.482-1.046,0.871-1.652,1.15c-0.605,0.287-1.258,0.496-1.955,0.627l5.506,6.811h-4.653l-5.287-7.084h-0.054v7.084h-3.772
			V97.095L258.657,97.095z M264.493,105.905c0.166,0.018,0.34,0.018,0.524,0.012s0.376-0.023,0.577-0.035
			c0.349-0.054,0.694-0.132,1.033-0.239c0.34-0.107,0.63-0.274,0.869-0.489c0.312-0.269,0.544-0.573,0.701-0.913
			c0.157-0.34,0.234-0.704,0.234-1.086c0-0.406-0.093-0.795-0.276-1.164c-0.184-0.377-0.458-0.681-0.825-0.914
			c-0.44-0.304-0.887-0.483-1.336-0.543c-0.45-0.054-0.94-0.083-1.473-0.083h-2.092v5.455h2.064V105.905z"/>
		<path fill="#104A93" d="M281.701,97.095h2.947l8.562,18.496h-4.157l-2.203-4.78h-7.215l-2.257,4.78h-4.157L281.701,97.095z
			 M285.363,107.481l-2.174-5.604l-2.176,5.604H285.363z"/>
		<path fill="#104A93" d="M295.55,97.095h4.239l8.48,13.513V97.095h3.771v18.496h-4.185l-8.534-13.465v13.465h-3.773L295.55,97.095
			L295.55,97.095z"/>
		<path fill="#104A93" d="M330.765,110.56h4.376c-0.771,1.666-2.026,2.997-3.771,3.98c-1.744,0.985-3.59,1.48-5.533,1.498
			c-0.021,0-0.043,0-0.068,0c-0.029,0-0.051,0-0.07,0c-2.918,0-5.404-0.955-7.461-2.863c-2.057-1.91-3.082-4.186-3.082-6.822
			c0-2.621,1.03-4.871,3.096-6.757c2.064-1.887,4.512-2.829,7.338-2.829c2.037,0,3.961,0.507,5.769,1.516
			c1.81,1.009,3.106,2.382,3.896,4.118l-4.295-0.023c-0.625-0.687-1.414-1.235-2.367-1.653c-0.955-0.418-1.946-0.627-2.975-0.627
			c-1.854,0-3.433,0.633-4.736,1.893c-1.303,1.259-1.955,2.757-1.955,4.488c0,1.636,0.666,3.092,1.998,4.356
			c1.33,1.266,2.904,1.904,4.723,1.904c1.01,0,1.943-0.191,2.809-0.58c0.862-0.382,1.633-0.906,2.312-1.574v-0.025H330.765z"/>
		<path fill="#104A93" d="M337.951,97.095h10.93v3.324h-7.157v4.256h6.854v3.331h-6.854v4.256h7.157v3.33h-10.93V97.095z"/>
		<path fill="#104A93" d="M351.056,110.38h3.938c0,0.752,0.283,1.332,0.854,1.744c0.567,0.404,1.229,0.613,1.981,0.613
			c0.717,0,1.336-0.221,1.858-0.662s0.785-0.996,0.785-1.664c0-0.92-0.322-1.588-0.964-2.007c-0.645-0.418-1.35-0.739-2.121-0.973
			c-0.072-0.036-0.15-0.065-0.232-0.091c-0.082-0.022-0.16-0.047-0.234-0.059c-0.055-0.019-0.104-0.037-0.151-0.055
			c-0.046-0.018-0.097-0.029-0.149-0.048c-0.605-0.185-1.177-0.388-1.707-0.614c-0.533-0.229-1.039-0.556-1.516-0.991
			c-0.422-0.4-0.768-0.859-1.031-1.373c-0.269-0.52-0.447-1.05-0.537-1.605c0-0.096-0.006-0.197-0.015-0.286
			c-0.011-0.09-0.015-0.186-0.015-0.287c0-1.521,0.597-2.775,1.789-3.766c1.193-0.997,2.598-1.492,4.213-1.492
			c1.578,0,2.97,0.513,4.172,1.539c1.201,1.027,1.795,2.269,1.775,3.719l-3.881-0.023c-0.021-0.567-0.26-1.027-0.718-1.379
			c-0.46-0.353-0.981-0.525-1.569-0.525c-0.605,0-1.093,0.186-1.459,0.549c-0.367,0.37-0.552,0.818-0.552,1.355v0.023v0.024
			c-0.019,0.603,0.203,1.062,0.661,1.379c0.46,0.315,0.964,0.566,1.516,0.752c0.055,0.012,0.119,0.035,0.191,0.06
			c0.072,0.023,0.139,0.048,0.191,0.06c0.094,0.036,0.185,0.065,0.277,0.09c0.09,0.023,0.184,0.054,0.273,0.089
			c0.623,0.186,1.227,0.389,1.805,0.615c0.577,0.221,1.114,0.525,1.609,0.913c0.734,0.514,1.275,1.123,1.625,1.814
			c0.35,0.692,0.523,1.486,0.523,2.389c0,1.652-0.652,3.037-1.955,4.153c-1.304,1.122-2.854,1.677-4.654,1.677
			c-1.725,0-3.252-0.531-4.584-1.6c-1.33-1.068-1.996-2.411-1.996-4.027v-0.031H351.056z"/>
		<path fill="#104A93" d="M394.395,111.474c-0.731,1.462-1.724,2.584-2.972,3.372c-1.248,0.782-2.664,1.176-4.252,1.176
			c-1.914,0-3.553-0.633-4.916-1.91c-1.36-1.271-2.043-2.817-2.043-4.638c0-1.307,0.41-2.52,1.23-3.641
			c0.821-1.128,1.928-1.976,3.316-2.555c-1.062-0.854-1.786-1.624-2.176-2.311c-0.389-0.686-0.582-1.486-0.582-2.405
			c0-1.408,0.561-2.614,1.684-3.61c1.12-0.991,2.508-1.492,4.16-1.492c1.486,0,2.779,0.513,3.873,1.533
			c1.094,1.015,1.642,2.209,1.642,3.569c0,1.104-0.394,2.113-1.183,3.026c-0.787,0.907-1.92,1.653-3.396,2.244l4.842,4.059
			l2.823-6.762h2.562l-3.596,8.285l5.336,4.459l-1.479,1.6L394.395,111.474z M392.688,110.053l-6.353-5.372
			c-1.183,0.531-2.082,1.206-2.701,2.023c-0.617,0.823-0.926,1.742-0.926,2.77c0,1.301,0.43,2.363,1.287,3.176
			c0.858,0.816,1.963,1.225,3.309,1.225c1.039,0,1.994-0.306,2.863-0.926C391.039,112.333,391.876,111.367,392.688,110.053z
			 M387.205,102.414c1.237-0.437,2.162-0.985,2.774-1.642c0.612-0.657,0.919-1.421,0.919-2.298c0-0.842-0.309-1.559-0.93-2.149
			c-0.616-0.585-1.358-0.877-2.223-0.877c-0.975,0-1.767,0.286-2.379,0.865c-0.613,0.573-0.921,1.337-0.921,2.28
			c0,0.668,0.2,1.283,0.599,1.844C385.447,100.999,386.166,101.661,387.205,102.414z"/>
		<path fill="#104A93" d="M415.152,107.964h5.77c0,1.098,0.416,1.945,1.25,2.549c0.834,0.597,1.803,0.895,2.906,0.895
			c1.049,0,1.955-0.322,2.723-0.967c0.766-0.65,1.148-1.462,1.148-2.441c0-1.342-0.473-2.32-1.41-2.937
			c-0.943-0.608-1.979-1.086-3.107-1.427c-0.107-0.047-0.221-0.095-0.344-0.131c-0.121-0.036-0.236-0.065-0.342-0.09
			c-0.08-0.023-0.154-0.047-0.223-0.071c-0.066-0.023-0.143-0.054-0.223-0.077c-0.887-0.27-1.721-0.567-2.5-0.896
			c-0.781-0.328-1.52-0.812-2.221-1.45c-0.617-0.585-1.121-1.26-1.511-2.018c-0.392-0.758-0.653-1.54-0.788-2.346
			c0-0.149-0.006-0.287-0.02-0.424c-0.014-0.132-0.021-0.275-0.021-0.418c0-2.227,0.875-4.064,2.623-5.521
			c1.747-1.456,3.805-2.185,6.172-2.185c2.311,0,4.35,0.752,6.109,2.257c1.762,1.504,2.631,3.318,2.604,5.449l-5.688-0.036
			c-0.027-0.835-0.377-1.504-1.049-2.018c-0.672-0.513-1.438-0.77-2.301-0.77c-0.887,0-1.6,0.269-2.137,0.806
			c-0.539,0.537-0.809,1.199-0.809,1.981v0.036v0.035c-0.025,0.878,0.297,1.553,0.971,2.018c0.672,0.466,1.41,0.83,2.219,1.099
			c0.08,0.024,0.174,0.054,0.281,0.09c0.107,0.042,0.201,0.071,0.281,0.095c0.135,0.048,0.27,0.09,0.402,0.126
			c0.135,0.036,0.27,0.083,0.404,0.131c0.914,0.269,1.797,0.567,2.643,0.896c0.848,0.334,1.633,0.776,2.359,1.343
			c1.076,0.759,1.869,1.642,2.381,2.656c0.51,1.015,0.768,2.185,0.768,3.503c0,2.418-0.955,4.446-2.865,6.088
			c-1.91,1.637-4.182,2.453-6.816,2.453c-2.529,0-4.768-0.781-6.717-2.346c-1.949-1.562-2.926-3.533-2.926-5.902v-0.035H415.152z"/>
		<path fill="#104A93" d="M437.839,97.095h10.932v3.324h-7.158v4.256h6.854v3.331h-6.854v4.256h7.158v3.33h-10.932V97.095z"/>
		<path fill="#104A93" d="M452.431,97.095h5.893c0.973,0.029,1.904,0.113,2.795,0.25c0.891,0.132,1.721,0.49,2.492,1.075
			c0.732,0.549,1.312,1.229,1.732,2.041c0.422,0.806,0.635,1.647,0.635,2.513c0,0.221-0.02,0.441-0.055,0.675
			c-0.037,0.238-0.082,0.472-0.139,0.704c-0.146,0.501-0.35,0.984-0.605,1.45c-0.258,0.466-0.551,0.864-0.881,1.2
			c-0.496,0.482-1.047,0.871-1.652,1.15c-0.605,0.287-1.258,0.496-1.953,0.627l5.506,6.811h-4.652l-5.287-7.084h-0.055v7.084h-3.771
			V97.095H452.431z M458.267,105.905c0.166,0.018,0.342,0.018,0.525,0.012c0.182-0.006,0.375-0.023,0.576-0.035
			c0.35-0.054,0.693-0.132,1.033-0.239s0.629-0.274,0.867-0.489c0.312-0.269,0.545-0.573,0.701-0.913
			c0.156-0.34,0.234-0.704,0.234-1.086c0-0.406-0.092-0.795-0.275-1.164c-0.184-0.377-0.459-0.681-0.826-0.914
			c-0.439-0.304-0.887-0.483-1.336-0.543c-0.449-0.054-0.938-0.083-1.473-0.083h-2.092v5.455h2.064V105.905z"/>
		<path fill="#104A93" d="M466.31,97.095h3.965l5.479,14.062l5.479-14.062h3.965l-7.875,18.496h-3.109L466.31,97.095z"/>
		<path fill="#104A93" d="M487.511,97.095h3.771v18.496h-3.771V97.095z"/>
		<path fill="#104A93" d="M510.058,110.56h4.377c-0.77,1.666-2.027,2.997-3.771,3.98c-1.742,0.985-3.588,1.48-5.533,1.498
			c-0.02,0-0.041,0-0.068,0s-0.051,0-0.068,0c-2.918,0-5.404-0.955-7.461-2.863c-2.057-1.91-3.084-4.186-3.084-6.822
			c0-2.621,1.031-4.871,3.098-6.757c2.064-1.887,4.51-2.829,7.338-2.829c2.037,0,3.961,0.507,5.768,1.516
			c1.809,1.009,3.107,2.382,3.896,4.118l-4.295-0.023c-0.625-0.687-1.414-1.235-2.369-1.653c-0.953-0.418-1.945-0.627-2.973-0.627
			c-1.855,0-3.434,0.633-4.736,1.893c-1.303,1.259-1.955,2.757-1.955,4.488c0,1.636,0.666,3.092,1.996,4.356
			c1.332,1.266,2.906,1.904,4.723,1.904c1.01,0,1.945-0.191,2.811-0.58c0.861-0.382,1.633-0.906,2.311-1.574v-0.025H510.058z"/>
		<path fill="#104A93" d="M517.246,97.095h10.93v3.324h-7.158v4.256h6.855v3.331h-6.855v4.256h7.158v3.33h-10.93V97.095z"/>
		<path fill="#104A93" d="M530.349,110.38h3.939c0,0.752,0.283,1.332,0.854,1.744c0.568,0.404,1.23,0.613,1.982,0.613
			c0.715,0,1.334-0.221,1.859-0.662c0.52-0.441,0.783-0.996,0.783-1.664c0-0.92-0.322-1.588-0.965-2.007
			c-0.643-0.418-1.348-0.739-2.119-0.973c-0.072-0.036-0.15-0.065-0.234-0.091c-0.082-0.022-0.158-0.047-0.234-0.059
			c-0.053-0.019-0.104-0.037-0.15-0.055s-0.096-0.029-0.15-0.048c-0.605-0.185-1.176-0.388-1.707-0.614
			c-0.531-0.229-1.037-0.556-1.514-0.991c-0.424-0.4-0.768-0.859-1.033-1.373c-0.268-0.52-0.445-1.05-0.537-1.605
			c0-0.096-0.004-0.197-0.014-0.286c-0.01-0.09-0.014-0.186-0.014-0.287c0-1.521,0.596-2.775,1.789-3.766
			c1.193-0.997,2.598-1.492,4.213-1.492c1.578,0,2.971,0.513,4.17,1.539c1.203,1.027,1.795,2.269,1.775,3.719l-3.881-0.023
			c-0.02-0.567-0.258-1.027-0.715-1.379c-0.461-0.353-0.982-0.525-1.57-0.525c-0.605,0-1.092,0.186-1.459,0.549
			c-0.367,0.37-0.551,0.818-0.551,1.355v0.023v0.024c-0.02,0.603,0.203,1.062,0.66,1.379c0.459,0.315,0.965,0.566,1.516,0.752
			c0.055,0.012,0.119,0.035,0.191,0.06c0.072,0.023,0.137,0.048,0.191,0.06c0.094,0.036,0.186,0.065,0.277,0.09
			c0.09,0.023,0.182,0.054,0.273,0.089c0.623,0.186,1.225,0.389,1.805,0.615c0.576,0.221,1.113,0.525,1.609,0.913
			c0.734,0.514,1.275,1.123,1.625,1.814c0.35,0.692,0.523,1.486,0.523,2.389c0,1.652-0.652,3.037-1.955,4.153
			c-1.305,1.122-2.854,1.677-4.654,1.677c-1.725,0-3.252-0.531-4.584-1.6c-1.33-1.068-1.996-2.411-1.996-4.027V110.38
			L530.349,110.38z"/>
	</g>
	<g>
		
			<radialGradient id="SVGID_1_" cx="460.1177" cy="-1194.5928" r="83.2023" gradientTransform="matrix(0.7734 0.532 0.532 -0.7734 375.8775 -1056.821)" gradientUnits="userSpaceOnUse">
			<stop  offset="0" style="stop-color:#C3D200"/>
			<stop  offset="0.2174" style="stop-color:#C0D000"/>
			<stop  offset="0.4018" style="stop-color:#B5CA05"/>
			<stop  offset="0.574" style="stop-color:#A4C118"/>
			<stop  offset="0.738" style="stop-color:#8BB425"/>
			<stop  offset="0.7546" style="stop-color:#87B327"/>
			<stop  offset="1" style="stop-color:#5C7E2C"/>
		</radialGradient>
		<path fill="url(#SVGID_1_)" d="M150.688,140.634c-9.764,14.128-25.793,23.082-42.881,24.309
			c-17.042,1.223-33.997-5.57-45.666-18.007c-11.38-12.129-16.82-29.077-14.936-45.565c0.971-8.489,3.933-16.689,8.496-23.904
			c4.826-7.632,11.8-13.958,19.636-18.389c14.458-8.173,32.192-9.539,47.762-3.821c16.047,5.893,28.774,19.054,34.279,35.208
			c5.442,15.967,3.377,33.859-5.434,48.221c-0.448,0.729-0.915,1.448-1.398,2.153c-0.372,0.545-0.014,0.037,0.148-0.199
			c9.392-13.723,12.552-30.809,8.409-46.947c-4.244-16.527-16.015-30.414-31.476-37.554c-15.128-6.988-32.95-6.784-48.019,0.242
			c-14.803,6.901-26.199,20.417-30.92,36.011c-4.808,15.879-2.217,33.464,6.74,47.395c9.261,14.399,25.007,23.971,42.005,25.764
			c16.542,1.746,33.369-4.063,45.382-15.541c2.901-2.772,5.46-5.867,7.739-9.163C150.718,140.608,151.062,140.091,150.688,140.634z"
			/>
		
			<radialGradient id="SVGID_2_" cx="-294.3848" cy="-86.0684" r="83.2022" gradientTransform="matrix(0.9387 0 0 -0.9387 366.9362 27.9158)" gradientUnits="userSpaceOnUse">
			<stop  offset="0" style="stop-color:#C3D200"/>
			<stop  offset="0.2174" style="stop-color:#C0D000"/>
			<stop  offset="0.4018" style="stop-color:#B5CA05"/>
			<stop  offset="0.574" style="stop-color:#A4C118"/>
			<stop  offset="0.738" style="stop-color:#8BB425"/>
			<stop  offset="0.7546" style="stop-color:#87B327"/>
			<stop  offset="1" style="stop-color:#5C7E2C"/>
		</radialGradient>
		<path fill="url(#SVGID_2_)" d="M151.791,101.545c-0.04,17.171-8.173,33.632-21.557,44.328
			c-13.347,10.666-31.167,14.676-47.83,11.043c-16.25-3.545-30.336-14.426-38.127-29.08c-4.011-7.543-6.217-15.979-6.546-24.508
			c-0.349-9.024,1.812-18.186,5.759-26.277c7.281-14.928,21.118-26.103,37.186-30.215c16.562-4.239,34.507-0.607,48.196,9.583
			c13.534,10.072,21.97,25.983,22.85,42.811c0.044,0.854,0.068,1.71,0.069,2.567c0.002,0.659,0.009,0.038,0.009-0.25
			c-0.037-16.629-7.116-32.497-19.676-43.447c-12.862-11.211-30.429-15.983-47.216-13.106C68.482,47.81,53.915,58.078,45.48,72.406
			c-8.285,14.073-10.015,31.669-5.068,47.192c5.038,15.81,17.137,28.829,32.411,35.229c15.792,6.617,34.188,5.58,49.209-2.576
			c14.62-7.936,25.19-22.258,28.585-38.521c0.819-3.928,1.174-7.928,1.183-11.936C151.8,101.507,151.792,100.885,151.791,101.545z"
			/>
		
			<radialGradient id="SVGID_3_" cx="-283.229" cy="-81.606" r="83.2025" gradientTransform="matrix(0.9387 0 0 -0.9387 366.9362 27.9158)" gradientUnits="userSpaceOnUse">
			<stop  offset="0" style="stop-color:#D7EEF6"/>
			<stop  offset="0.0045" style="stop-color:#D6EDF6"/>
			<stop  offset="0.5031" style="stop-color:#408CC3"/>
			<stop  offset="0.7333" style="stop-color:#184999"/>
			<stop  offset="1" style="stop-color:#184999"/>
		</radialGradient>
		<path fill="url(#SVGID_3_)" d="M162.263,97.356c-0.038,17.171-8.172,33.634-21.556,44.327
			c-13.346,10.666-31.167,14.678-47.83,11.043c-16.25-3.545-30.336-14.426-38.127-29.08c-4.011-7.543-6.217-15.98-6.546-24.509
			c-0.348-9.023,1.812-18.187,5.76-26.277c7.281-14.929,21.117-26.103,37.187-30.216c16.562-4.239,34.505-0.606,48.195,9.583
			c13.533,10.073,21.971,25.984,22.849,42.81c0.045,0.856,0.068,1.713,0.069,2.568c0.001,0.66,0.009,0.039,0.009-0.249
			c-0.038-16.629-7.116-32.498-19.677-43.447c-12.861-11.211-30.429-15.983-47.214-13.105C78.955,43.62,64.388,53.888,55.953,68.217
			c-8.285,14.074-10.015,31.669-5.068,47.193c5.037,15.807,17.137,28.827,32.41,35.229c15.792,6.617,34.189,5.58,49.21-2.574
			c14.618-7.938,25.189-22.26,28.584-38.523c0.82-3.926,1.173-7.926,1.183-11.936C162.272,97.317,162.264,96.696,162.263,97.356z"/>
		<circle fill="#FFFFFF" cx="101.491" cy="100.019" r="57.609"/>
		<g>
			<path fill="#FFFFFF" d="M118.578,103.366c1.82,0.379,3.633,0.788,5.439,1.228c-1.377-2.229-2.805-4.422-4.282-6.581
				C119.378,99.804,118.992,101.588,118.578,103.366z"/>
			<path fill="#FFFFFF" d="M117.854,106.354c2.83,0.591,5.634,1.253,8.411,1.985c0.765,1.314,1.513,2.638,2.242,3.973
				c-5.261,13.715-6.971,27.7-8.533,42.296c-5.251,1.58-12.538,2.685-18.304,2.685c-1.981,0-5.614-0.299-7.543-0.494
				C94.127,156.796,110.128,135.315,117.854,106.354z"/>
			<path fill="#FFFFFF" d="M131.913,112.067c0.25-0.634,0.504-1.269,0.762-1.897c7.979,2.453,15.364,4.759,23.574,8.1
				c-2.699,7.518-9.101,17.218-14.472,22.914C141.777,141.183,137.406,121.603,131.913,112.067z"/>
			<path fill="#FFFFFF" d="M90.401,102.962c-11.295,10.819-24.257,19.304-37.928,26.605c8.595,13.763,23.777,24.442,40.433,27.151
				c10.139-15.356,17.274-32.655,21.925-50.968C106.871,104.24,98.714,103.296,90.401,102.962z"/>
			<path fill="#FFFFFF" d="M72.039,50.5C55.82,60.668,43.746,79.246,43.746,99.799c0,1.523,0.177,4.087,0.293,5.578
				c15.416-3.825,26.19-5.601,39.542-5.601c1.848,0,3.688,0.032,5.527,0.09c6.136-5.959,11.818-12.384,16.989-19.215
				C97.601,69.46,84.997,58.75,72.039,50.5z"/>
			<path fill="#FFFFFF" d="M93.365,100.054c7.489,0.42,14.897,1.323,22.196,2.708c0.638-2.724,1.21-5.473,1.713-8.247
				c-2.856-3.954-5.88-7.779-9.063-11.465C103.667,89.007,98.714,94.68,93.365,100.054z"/>
			<path fill="#FFFFFF" d="M128.429,48.879c-1.694,3.82-3.521,7.565-5.479,11.231c0.039,1.48,0.058,2.964,0.058,4.451
				c0,9.85-0.829,19.574-2.472,29.124c2.772,3.897,5.375,7.907,7.807,12.024c0.852,0.231,1.701,0.47,2.549,0.716
				c5.417-12.689,13.709-26.397,21.421-33.854C146.884,63.237,138.005,53.923,128.429,48.879z"/>
			<path fill="#FFFFFF" d="M110.128,80.486c2.748,3.153,5.373,6.396,7.869,9.725c1.247-8.069,1.913-16.327,1.958-24.729
				C116.946,70.654,113.67,75.66,110.128,80.486z"/>
			<path fill="#FFFFFF" d="M122.768,45.941c0.282,2.61,0.506,5.229,0.668,7.86c1.034-2.088,2.024-4.202,2.973-6.338
				C125.217,46.915,124.002,46.408,122.768,45.941z"/>
			<path fill="#FFFFFF" d="M102.947,42.063c-9.951,0-19.311,2.529-27.475,6.977c9.991,6.481,19.298,14.017,27.838,22.556
				c2.047,2.049,4.036,4.141,5.967,6.275c4.358-5.99,8.329-12.278,11.875-18.828c-0.151-4.849-0.509-9.646-1.066-14.382
				C114.672,42.973,108.916,42.063,102.947,42.063z"/>
			<path fill="#FFFFFF" d="M121.342,154.242c7.363-2.697,14.018-6.859,19.618-12.129c-2.838-8.92-6.403-17.518-10.629-25.723
				C125.928,128.425,122.872,141.103,121.342,154.242z"/>
			<path fill="#FFFFFF" d="M149.921,113.485c2.313,0.979,4.598,2.009,6.857,3.082c1.557-5.217,2.397-10.743,2.397-16.465
				c0-9.289-2.206-18.062-6.117-25.829c-7.607,10.284-14.064,21.465-19.183,33.355C139.299,109.304,144.652,111.255,149.921,113.485
				z"/>
			<path fill="#FFFFFF" d="M83.581,103.284c-13.392,0-26.422,1.584-38.914,4.57c0.954,7.216,3.246,14.011,6.618,20.125
				c12.606-6.746,24.252-15.058,34.679-24.678C85.171,103.291,84.377,103.284,83.581,103.284z"/>
		</g>
		
			<radialGradient id="SVGID_4_" cx="-134.2778" cy="-2541.8599" r="60.6736" gradientTransform="matrix(1 0 0 -0.0887 236.5 -56.9186)" gradientUnits="userSpaceOnUse">
			<stop  offset="0" style="stop-color:#9A9999"/>
			<stop  offset="0.9212" style="stop-color:#FFFFFF;stop-opacity:0"/>
		</radialGradient>
		<ellipse fill="url(#SVGID_4_)" cx="102.222" cy="168.544" rx="60.664" ry="5.383"/>
		
			<radialGradient id="SVGID_5_" cx="-106.251" cy="-43.4204" r="92.9197" gradientTransform="matrix(1 0 0 -1 236.5 35.0381)" gradientUnits="userSpaceOnUse">
			<stop  offset="0" style="stop-color:#D7EEF6"/>
			<stop  offset="0.0045" style="stop-color:#D6EDF6"/>
			<stop  offset="0.5031" style="stop-color:#408CC3"/>
			<stop  offset="0.7333" style="stop-color:#184999"/>
			<stop  offset="1" style="stop-color:#184999"/>
		</radialGradient>
		<path fill="url(#SVGID_5_)" d="M118.368,103.525c1.82,0.38,3.634,0.788,5.439,1.228c-1.377-2.228-2.805-4.422-4.283-6.581
			C119.168,99.963,118.782,101.748,118.368,103.525z"/>
		
			<radialGradient id="SVGID_6_" cx="-106.1509" cy="-43.4224" r="92.9174" gradientTransform="matrix(1 0 0 -1 236.5 35.0381)" gradientUnits="userSpaceOnUse">
			<stop  offset="0" style="stop-color:#C3D200"/>
			<stop  offset="0.2174" style="stop-color:#C0D000"/>
			<stop  offset="0.4018" style="stop-color:#B5CA05"/>
			<stop  offset="0.574" style="stop-color:#A4C118"/>
			<stop  offset="0.738" style="stop-color:#8BB425"/>
			<stop  offset="0.7546" style="stop-color:#87B327"/>
			<stop  offset="1" style="stop-color:#5C7E2C"/>
		</radialGradient>
		<path fill="url(#SVGID_6_)" d="M117.644,106.513c2.831,0.591,5.635,1.255,8.412,1.986c0.765,1.312,1.513,2.637,2.243,3.972
			c-5.262,13.714-6.971,27.7-8.534,42.296c-5.251,1.579-12.538,2.684-18.304,2.684c-1.981,0-5.614-0.299-7.543-0.494
			C93.917,156.957,109.917,135.476,117.644,106.513z"/>
		<defs>
			<filter id="Adobe_OpacityMaskFilter" filterUnits="userSpaceOnUse" x="131.702" y="110.33" width="24.335" height="31.014">
				<feColorMatrix  type="matrix" values="1 0 0 0 0  0 1 0 0 0  0 0 1 0 0  0 0 0 1 0"/>
			</filter>
		</defs>
		<mask maskUnits="userSpaceOnUse" x="131.702" y="110.33" width="24.335" height="31.014" id="SVGID_7_">
			<g filter="url(#Adobe_OpacityMaskFilter)">
				
					<radialGradient id="SVGID_8_" cx="-102.2451" cy="-89.4385" r="18.3058" gradientTransform="matrix(1 0 0 -1 236.5 35.0381)" gradientUnits="userSpaceOnUse">
					<stop  offset="0" style="stop-color:#9A9999"/>
					<stop  offset="0.3596" style="stop-color:#57585C"/>
					<stop  offset="1" style="stop-color:#010202"/>
				</radialGradient>
				<path fill="url(#SVGID_8_)" d="M149.231,130.351c0,0-5.078,6.982-6.855,8.759c0,0-2.665-9.394-3.681-11.17
					C138.695,127.939,143.646,136.826,149.231,130.351z"/>
			</g>
		</mask>
		
			<radialGradient id="SVGID_9_" cx="-115.0532" cy="-65.6758" r="46.6482" gradientTransform="matrix(1 0 0 -1 236.5 35.0381)" gradientUnits="userSpaceOnUse">
			<stop  offset="0" style="stop-color:#C3D200"/>
			<stop  offset="0.2174" style="stop-color:#C0D000"/>
			<stop  offset="0.4018" style="stop-color:#B5CA05"/>
			<stop  offset="0.574" style="stop-color:#A4C118"/>
			<stop  offset="0.738" style="stop-color:#8BB425"/>
			<stop  offset="0.7546" style="stop-color:#87B327"/>
			<stop  offset="1" style="stop-color:#5C7E2C"/>
		</radialGradient>
		<path mask="url(#SVGID_7_)" fill="url(#SVGID_9_)" d="M131.702,112.228c0.25-0.635,0.504-1.268,0.762-1.898
			c7.979,2.453,15.364,4.76,23.573,8.102c-2.698,7.516-9.101,17.217-14.471,22.912C141.567,141.341,137.196,121.763,131.702,112.228
			z"/>
		<defs>
			<filter id="Adobe_OpacityMaskFilter_1_" filterUnits="userSpaceOnUse" x="52.263" y="103.122" width="62.359" height="53.756">
				<feColorMatrix  type="matrix" values="1 0 0 0 0  0 1 0 0 0  0 0 1 0 0  0 0 0 1 0"/>
			</filter>
		</defs>
		<mask maskUnits="userSpaceOnUse" x="52.263" y="103.122" width="62.359" height="53.756" id="SVGID_10_">
			<g filter="url(#Adobe_OpacityMaskFilter_1_)">
				
					<linearGradient id="SVGID_11_" gradientUnits="userSpaceOnUse" x1="-159.5566" y1="-122.4678" x2="-159.6519" y2="-106.8536" gradientTransform="matrix(1 0 0 -1 236.5 35.0381)">
					<stop  offset="0" style="stop-color:#FFFFFF"/>
					<stop  offset="0.4309" style="stop-color:#737176;stop-opacity:0.5993"/>
					<stop  offset="1" style="stop-color:#010202;stop-opacity:0.07"/>
				</linearGradient>
				<path opacity="0.67" fill="url(#SVGID_11_)" enable-background="new    " d="M57.706,135.682c0,0,16.122,18.026,34.147,19.93
					c0,0,1.48-1.625,4.146-6.067C96,149.544,83.984,154.089,57.706,135.682z"/>
			</g>
		</mask>
		
			<radialGradient id="SVGID_12_" cx="-106.1509" cy="-43.3394" r="93.2399" gradientTransform="matrix(1 0 0 -1 236.5 35.0381)" gradientUnits="userSpaceOnUse">
			<stop  offset="0" style="stop-color:#D7EEF6"/>
			<stop  offset="0.0045" style="stop-color:#D6EDF6"/>
			<stop  offset="0.5031" style="stop-color:#408CC3"/>
			<stop  offset="0.7333" style="stop-color:#184999"/>
			<stop  offset="1" style="stop-color:#184999"/>
		</radialGradient>
		<path mask="url(#SVGID_10_)" fill="url(#SVGID_12_)" d="M90.191,103.122c-11.294,10.819-24.258,19.303-37.928,26.605
			c8.595,13.763,23.778,24.442,40.434,27.151c10.138-15.356,17.273-32.656,21.925-50.968
			C106.661,104.4,98.502,103.457,90.191,103.122z"/>
		<defs>
			<filter id="Adobe_OpacityMaskFilter_2_" filterUnits="userSpaceOnUse" x="43.536" y="50.661" width="62.35" height="54.876">
				<feColorMatrix  type="matrix" values="1 0 0 0 0  0 1 0 0 0  0 0 1 0 0  0 0 0 1 0"/>
			</filter>
		</defs>
		<mask maskUnits="userSpaceOnUse" x="43.536" y="50.661" width="62.35" height="54.876" id="SVGID_13_">
			<g filter="url(#Adobe_OpacityMaskFilter_2_)">
				
					<linearGradient id="SVGID_14_" gradientUnits="userSpaceOnUse" x1="-191.1665" y1="-16.8765" x2="-166.2833" y2="-32.6072" gradientTransform="matrix(1 0 0 -1 236.5 35.0381)">
					<stop  offset="0" style="stop-color:#FFFFFF"/>
					<stop  offset="0.4309" style="stop-color:#737176"/>
					<stop  offset="1" style="stop-color:#010202"/>
				</linearGradient>
				<path fill="url(#SVGID_14_)" d="M51.867,72.972c-0.194,0.209,7.87-14.471,19.865-21.294c0,0,5.809,3.618,7.427,4.856
					C79.159,56.534,65.135,58.737,51.867,72.972z"/>
			</g>
		</mask>
		
			<radialGradient id="SVGID_15_" cx="-116.5776" cy="-56.5366" r="73.4031" gradientTransform="matrix(1 0 0 -1 236.5 35.0381)" gradientUnits="userSpaceOnUse">
			<stop  offset="0" style="stop-color:#D7EEF6"/>
			<stop  offset="0.0045" style="stop-color:#D6EDF6"/>
			<stop  offset="0.5031" style="stop-color:#408CC3"/>
			<stop  offset="0.7333" style="stop-color:#184999"/>
			<stop  offset="1" style="stop-color:#184999"/>
		</radialGradient>
		<path mask="url(#SVGID_13_)" fill="url(#SVGID_15_)" d="M71.828,50.661C55.61,60.828,43.536,79.405,43.536,99.959
			c0,1.522,0.177,4.086,0.293,5.578c15.416-3.825,26.191-5.601,39.542-5.601c1.847,0,3.689,0.032,5.527,0.09
			c6.136-5.959,11.817-12.384,16.988-19.214C97.391,69.62,84.786,58.911,71.828,50.661z"/>
		<defs>
			<filter id="Adobe_OpacityMaskFilter_3_" filterUnits="userSpaceOnUse" x="93.155" y="83.21" width="23.908" height="19.712">
				<feColorMatrix  type="matrix" values="1 0 0 0 0  0 1 0 0 0  0 0 1 0 0  0 0 0 1 0"/>
			</filter>
		</defs>
		<mask maskUnits="userSpaceOnUse" x="93.155" y="83.21" width="23.908" height="19.712" id="SVGID_16_">
			<g filter="url(#Adobe_OpacityMaskFilter_3_)">
				
					<linearGradient id="SVGID_17_" gradientUnits="userSpaceOnUse" x1="-123.9058" y1="-71.7944" x2="-128.7295" y2="-64.6856" gradientTransform="matrix(1 0 0 -1 236.5 35.0381)">
					<stop  offset="0" style="stop-color:#9A9999"/>
					<stop  offset="0.3596" style="stop-color:#57585C"/>
					<stop  offset="1" style="stop-color:#010202"/>
				</linearGradient>
				<path fill="url(#SVGID_17_)" d="M96.169,99.503c0,0,9.647,0.255,18.28,2.159c0,0,0.888-4.063,1.523-6.728"/>
			</g>
		</mask>
		
			<radialGradient id="SVGID_18_" cx="-106.252" cy="-43.4214" r="92.9189" gradientTransform="matrix(1 0 0 -1 236.5 35.0381)" gradientUnits="userSpaceOnUse">
			<stop  offset="0" style="stop-color:#C3D200"/>
			<stop  offset="0.2174" style="stop-color:#C0D000"/>
			<stop  offset="0.4018" style="stop-color:#B5CA05"/>
			<stop  offset="0.574" style="stop-color:#A4C118"/>
			<stop  offset="0.738" style="stop-color:#8BB425"/>
			<stop  offset="0.7546" style="stop-color:#87B327"/>
			<stop  offset="1" style="stop-color:#5C7E2C"/>
		</radialGradient>
		<path mask="url(#SVGID_16_)" fill="url(#SVGID_18_)" d="M93.155,100.213c7.489,0.419,14.896,1.322,22.196,2.709
			c0.638-2.725,1.21-5.474,1.712-8.248c-2.856-3.954-5.879-7.779-9.063-11.464C103.456,89.166,98.503,94.84,93.155,100.213z"/>
		<defs>
			<filter id="Adobe_OpacityMaskFilter_4_" filterUnits="userSpaceOnUse" x="120.326" y="49.038" width="31.776" height="57.545">
				<feColorMatrix  type="matrix" values="1 0 0 0 0  0 1 0 0 0  0 0 1 0 0  0 0 0 1 0"/>
			</filter>
		</defs>
		<mask maskUnits="userSpaceOnUse" x="120.326" y="49.038" width="31.776" height="57.545" id="SVGID_19_">
			<g filter="url(#Adobe_OpacityMaskFilter_4_)">
				
					<linearGradient id="SVGID_20_" gradientUnits="userSpaceOnUse" x1="-93.7231" y1="-8.8506" x2="-99.3089" y2="-32.971" gradientTransform="matrix(1 0 0 -1 236.5 35.0381)">
					<stop  offset="0" style="stop-color:#9A9999"/>
					<stop  offset="0.3596" style="stop-color:#57585C"/>
					<stop  offset="1" style="stop-color:#010202"/>
				</linearGradient>
				<path fill="url(#SVGID_20_)" d="M126.128,55.708l2.412-5.585c0,0,13.582,6.728,21.708,21.581
					C150.248,71.705,139.711,59.39,126.128,55.708z"/>
			</g>
		</mask>
		
			<radialGradient id="SVGID_21_" cx="-115.8149" cy="-69.0474" r="68.4606" gradientTransform="matrix(1 0 0 -1 236.5 35.0381)" gradientUnits="userSpaceOnUse">
			<stop  offset="0" style="stop-color:#C3D200"/>
			<stop  offset="0.2174" style="stop-color:#C0D000"/>
			<stop  offset="0.4018" style="stop-color:#B5CA05"/>
			<stop  offset="0.574" style="stop-color:#A4C118"/>
			<stop  offset="0.738" style="stop-color:#8BB425"/>
			<stop  offset="0.7546" style="stop-color:#87B327"/>
			<stop  offset="1" style="stop-color:#5C7E2C"/>
		</radialGradient>
		<path mask="url(#SVGID_19_)" fill="url(#SVGID_21_)" d="M128.219,49.038c-1.694,3.821-3.521,7.565-5.479,11.232
			c0.037,1.479,0.058,2.964,0.058,4.45c0,9.851-0.829,19.575-2.472,29.125c2.772,3.896,5.375,7.906,7.806,12.024
			c0.852,0.231,1.702,0.47,2.55,0.714c5.417-12.688,13.709-26.396,21.42-33.854C146.675,63.396,137.795,54.083,128.219,49.038z"/>
		
			<radialGradient id="SVGID_22_" cx="-106.2495" cy="-43.4214" r="92.9153" gradientTransform="matrix(1 0 0 -1 236.5 35.0381)" gradientUnits="userSpaceOnUse">
			<stop  offset="0" style="stop-color:#D7EEF6"/>
			<stop  offset="0.0045" style="stop-color:#D6EDF6"/>
			<stop  offset="0.5031" style="stop-color:#408CC3"/>
			<stop  offset="0.7333" style="stop-color:#184999"/>
			<stop  offset="1" style="stop-color:#184999"/>
		</radialGradient>
		<path fill="url(#SVGID_22_)" d="M109.917,80.646c2.749,3.153,5.374,6.396,7.871,9.724c1.246-8.068,1.911-16.327,1.958-24.729
			C116.737,70.814,113.459,75.82,109.917,80.646z"/>
		
			<radialGradient id="SVGID_23_" cx="-105.4961" cy="-43.3706" r="92.8989" gradientTransform="matrix(1 0 0 -1 236.5 35.0381)" gradientUnits="userSpaceOnUse">
			<stop  offset="0" style="stop-color:#D7EEF6"/>
			<stop  offset="0.0045" style="stop-color:#D6EDF6"/>
			<stop  offset="0.5031" style="stop-color:#408CC3"/>
			<stop  offset="0.7333" style="stop-color:#184999"/>
			<stop  offset="1" style="stop-color:#184999"/>
		</radialGradient>
		<path fill="url(#SVGID_23_)" d="M122.557,46.102c0.282,2.608,0.506,5.229,0.669,7.859c1.033-2.088,2.024-4.201,2.972-6.338
			C125.006,47.075,123.792,46.568,122.557,46.102z"/>
		
			<radialGradient id="SVGID_24_" cx="-123.8125" cy="-49.625" r="47.6663" gradientTransform="matrix(1 0 0 -1 236.5 35.0381)" gradientUnits="userSpaceOnUse">
			<stop  offset="0" style="stop-color:#C3D200"/>
			<stop  offset="0.2174" style="stop-color:#C0D000"/>
			<stop  offset="0.4018" style="stop-color:#B5CA05"/>
			<stop  offset="0.574" style="stop-color:#A4C118"/>
			<stop  offset="0.738" style="stop-color:#8BB425"/>
			<stop  offset="0.7546" style="stop-color:#87B327"/>
			<stop  offset="1" style="stop-color:#5C7E2C"/>
		</radialGradient>
		<path fill="url(#SVGID_24_)" d="M102.737,42.224c-9.952,0-19.312,2.527-27.475,6.976c9.99,6.481,19.297,14.017,27.836,22.556
			c2.047,2.048,4.036,4.14,5.968,6.275c4.357-5.991,8.329-12.278,11.875-18.828c-0.152-4.849-0.509-9.645-1.066-14.382
			C114.462,43.132,108.706,42.224,102.737,42.224z"/>
		
			<radialGradient id="SVGID_25_" cx="-106.3589" cy="-43.8638" r="92.9167" gradientTransform="matrix(1 0 0 -1 236.5 35.0381)" gradientUnits="userSpaceOnUse">
			<stop  offset="0" style="stop-color:#D7EEF6"/>
			<stop  offset="0.0045" style="stop-color:#D6EDF6"/>
			<stop  offset="0.5031" style="stop-color:#408CC3"/>
			<stop  offset="0.7333" style="stop-color:#184999"/>
			<stop  offset="1" style="stop-color:#184999"/>
		</radialGradient>
		<path fill="url(#SVGID_25_)" d="M121.131,154.401c7.363-2.696,14.018-6.858,19.619-12.129c-2.839-8.919-6.404-17.519-10.63-25.724
			C125.718,128.585,122.662,141.264,121.131,154.401z"/>
		
			<radialGradient id="SVGID_26_" cx="-109.7227" cy="-70.5693" r="57.6303" gradientTransform="matrix(1 0 0 -1 236.5 35.0381)" gradientUnits="userSpaceOnUse">
			<stop  offset="0" style="stop-color:#D7EEF6"/>
			<stop  offset="0.0045" style="stop-color:#D6EDF6"/>
			<stop  offset="0.5031" style="stop-color:#408CC3"/>
			<stop  offset="0.7333" style="stop-color:#184999"/>
			<stop  offset="1" style="stop-color:#184999"/>
		</radialGradient>
		<path fill="url(#SVGID_26_)" d="M149.711,113.645c2.312,0.978,4.599,2.007,6.857,3.081c1.557-5.217,2.396-10.741,2.396-16.465
			c0-9.289-2.205-18.062-6.117-25.829c-7.606,10.284-14.063,21.465-19.183,33.354C139.089,109.462,144.442,111.416,149.711,113.645z
			"/>
		
			<radialGradient id="SVGID_27_" cx="-106.249" cy="-43.8799" r="92.9198" gradientTransform="matrix(1 0 0 -1 236.5 35.0381)" gradientUnits="userSpaceOnUse">
			<stop  offset="0" style="stop-color:#C3D200"/>
			<stop  offset="0.2174" style="stop-color:#C0D000"/>
			<stop  offset="0.4018" style="stop-color:#B5CA05"/>
			<stop  offset="0.574" style="stop-color:#A4C118"/>
			<stop  offset="0.738" style="stop-color:#8BB425"/>
			<stop  offset="0.7546" style="stop-color:#87B327"/>
			<stop  offset="1" style="stop-color:#5C7E2C"/>
		</radialGradient>
		<path fill="url(#SVGID_27_)" d="M83.371,103.443c-13.393,0-26.422,1.585-38.914,4.57c0.954,7.216,3.246,14.01,6.619,20.125
			c12.606-6.746,24.253-15.061,34.679-24.677C84.961,103.45,84.167,103.443,83.371,103.443z"/>
	</g>
</g>
</svg>
