<?xml version="1.0" encoding="UTF-8" standalone="no"?>
<svg width="24px" height="33px" viewBox="0 0 24 33" version="1.1" xmlns="http://www.w3.org/2000/svg" xmlns:xlink="http://www.w3.org/1999/xlink" xmlns:sketch="http://www.bohemiancoding.com/sketch/ns">
    <!-- Generator: Sketch 3.1.1 (8761) - http://www.bohemiancoding.com/sketch -->
    <title>icon-sim@1x</title>
    <desc></desc>
    <defs></defs>
    <g id="Page-1" stroke="none" stroke-width="1"  fill-rule="evenodd" >
        <g id="icon-sim"  transform="translate(11.500000, 18.000000) rotate(19.000000) translate(-11.500000, -18.000000) translate(-4.000000, 1.000000)">
            <path d="M12.17,0.772 L1.047,4.633 C0.836,4.705 0.664,4.853 0.563,5.051 C0.463,5.248 0.446,5.467 0.516,5.668 L9.834,32.51 C9.981,32.928 10.454,33.145 10.891,32.994 L11.034,33.408 L10.893,32.994 L29.239,26.629 C29.678,26.477 29.916,26.012 29.77,25.594 L23.152,6.531 C22.964,5.99 22.346,5.273 21.829,5 L14.144,0.916 C13.643,0.65 12.721,0.584 12.17,0.772 M11.178,33.824 C10.262,34.139 9.271,33.684 8.969,32.81 L-0.352,5.969 C-0.498,5.547 -0.463,5.088 -0.253,4.678 C-0.043,4.268 0.316,3.957 0.76,3.803 L11.879,-0.055 C12.682,-0.332 13.875,-0.244 14.6,0.141 L22.286,4.225 C22.998,4.603 23.76,5.484 24.019,6.232 L30.637,25.293 C30.941,26.168 30.443,27.141 29.527,27.459 L11.178,33.824" id="Fill-1" ></path>
            <path d="M17.733,16.818 L16.323,12.785 L12.201,14.227 L13.611,18.258 L17.733,16.818" id="Fill-2" ></path>
            <path d="M22.638,15.66 L18.164,17.225 C18.154,17.227 18.146,17.227 18.138,17.23 L13.526,18.842 C13.383,18.891 13.229,18.82 13.183,18.684 L11.685,14.406 L10.525,14.81 C8.893,15.381 8.008,17.115 8.556,18.678 L10.494,24.223 L23.984,19.512 L22.638,15.66" id="Fill-3" ></path>
            <path d="M22.465,15.168 L22.045,13.967 C21.498,12.404 19.724,11.598 18.093,12.168 L16.931,12.574 L18.341,16.607 L22.465,15.168" id="Fill-4" ></path>
            <path d="M15.398,23.063 L16.809,27.094 L20.787,25.705 L19.377,21.672 L15.398,23.063" id="Fill-5" ></path>
            <path d="M24.156,20.004 L19.986,21.459 L21.397,25.49 L22.606,25.068 C24.236,24.5 25.122,22.766 24.576,21.205 L24.156,20.004" id="Fill-6" ></path>
            <path d="M10.666,24.715 L11.086,25.914 C11.633,27.477 13.404,28.283 15.037,27.713 L16.151,27.324 L14.741,23.291 L10.666,24.715" id="Fill-7" ></path>
        </g>
    </g>
</svg>