<?xml version="1.0" encoding="UTF-8" standalone="no"?>
<svg width="32px" height="38px" viewBox="0 0 32 38" version="1.1" xmlns="http://www.w3.org/2000/svg" xmlns:xlink="http://www.w3.org/1999/xlink" xmlns:sketch="http://www.bohemiancoding.com/sketch/ns">
    <!-- Generator: Sketch 3.1.1 (8761) - http://www.bohemiancoding.com/sketch -->
    <title>icon_sim-blocked@1x</title>
    <desc></desc>
    <defs></defs>
    <g id="Page-1" stroke="none" stroke-width="1"  fill-rule="evenodd" >
        <g id="icon_sim-blocked"  transform="translate(1.000000, 1.000000)">
            <path d="M29.6226087,7.56481481 L23.8918261,1.01755556 C23.5926957,0.676962963 23.1363478,0.384222222 22.6507826,0.178740741 C22.2375652,0.00422222222 21.8048696,-0.109777778 21.4208696,-0.109777778 L21.4055652,-0.109777778 L10.0024348,-0.125259259 C9.03269565,-0.125259259 8.24382609,0.672740741 8.24243478,1.6537037 L8.22017391,16.6285185 C7.72626087,16.4554074 7.20452174,16.3414074 6.65078261,16.3414074 C3.9906087,16.3414074 1.83269565,18.5257037 1.83408696,21.2180741 L1.83408696,21.888 C1.83408696,22.2637778 2.1373913,22.572 2.50747826,22.572 C2.88173913,22.572 3.18504348,22.2637778 3.18504348,21.888 L3.18504348,21.2138519 C3.18782609,19.2772593 4.73495652,17.7108148 6.65078261,17.7065926 C7.21843478,17.708 7.74573913,17.86 8.21878261,18.1048889 L8.20904348,25.3248889 L0.33426087,25.3277037 C-0.101217391,25.3277037 -0.44626087,25.680963 -0.447652174,26.1172593 L-0.447652174,35.6228889 C-0.44626087,36.062 -0.101217391,36.4138519 0.337043478,36.4180741 L12.970087,36.4180741 C13.4041739,36.4138519 13.752,36.062 13.752,35.6214815 L13.752,32.5786667 L28.7906087,32.5997778 L28.7933913,32.5997778 C29.7631304,32.5997778 30.5547826,31.8017778 30.5547826,30.8208148 L30.5826087,10.1305185 C30.584,9.30859259 30.1624348,8.18125926 29.6226087,7.56481481 L29.6226087,7.56481481 Z M7.84730435,34.0536296 L5.45704348,34.0536296 L5.81321739,30.3817037 C5.43478261,30.1114815 5.18713043,29.670963 5.18713043,29.1671111 C5.18713043,28.3494074 5.84382609,27.6837037 6.65217391,27.6851111 C7.46052174,27.6851111 8.1186087,28.3494074 8.1186087,29.1671111 C8.1186087,29.6695556 7.86956522,30.1114815 7.49113043,30.3817037 L7.84730435,34.0536296 L7.84730435,34.0536296 Z M9.21078261,25.3248889 L9.22052174,18.8803704 C9.77147826,19.501037 10.1165217,20.3131111 10.117913,21.2138519 L10.1193043,25.3248889 L9.21078261,25.3248889 L9.21078261,25.3248889 Z M29.5544348,30.8194074 C29.5544348,31.243037 29.2121739,31.5878519 28.7933913,31.5878519 L13.752,31.5667407 L13.752,27.3825185 C14.1137391,27.626 14.5311304,27.785037 14.9777391,27.854 C15.1307826,27.8779259 15.2824348,27.9018519 15.4424348,27.9018519 L16.586087,27.9004444 L16.5833043,23.5205926 L12.3982609,23.5234074 L12.3996522,24.8266667 C12.3996522,24.996963 12.4233043,25.1616296 12.4497391,25.3248889 L11.4702609,25.3248889 L11.4688696,21.2138519 C11.4674783,19.4827407 10.5686957,17.9711852 9.22191304,17.107037 L9.2413913,1.65511111 C9.24417391,1.23148148 9.58365217,0.888074074 10.0024348,0.888074074 L14.5728696,0.893703704 L21.418087,0.903555556 C21.9704348,0.903555556 22.7746087,1.27088889 23.141913,1.68888889 L28.8754783,8.23614815 C29.2525217,8.66822222 29.5822609,9.55207407 29.5822609,10.1291111 L29.5544348,30.8194074 L29.5544348,30.8194074 Z" id="Fill-1" ></path>
            <path d="M24.4622609,18.2611111 L26.2514783,18.2597037 L26.250087,16.9536296 C26.250087,16.7974074 26.2250435,16.6482222 26.2041739,16.499037 C25.9815652,15.0198519 24.728,13.8798519 23.205913,13.8798519 L23.2045217,13.8798519 L22.0107826,13.8812593 L22.0135652,18.2625185 L24.4622609,18.2611111" id="Fill-2" ></path>
            <path d="M17.1565217,18.2639259 L21.3916522,18.2611111 L21.3888696,13.8812593 L18.9457391,13.8826667 L17.1537391,13.8854815 L17.1565217,18.2639259" id="Fill-3" ></path>
            <path d="M21.9718261,23.5163704 L21.976,27.8962222 L23.2170435,27.8948148 C24.8907826,27.8948148 26.2570435,26.5141481 26.2556522,24.8168148 L26.2542609,23.5121481 L21.9718261,23.5163704" id="Fill-4" ></path>
            <path d="M26.2542609,22.9787407 L26.2514783,18.7959259 L23.9293913,18.7973333 L21.6546087,18.8001481 C21.6462609,18.8001481 21.637913,18.7973333 21.6295652,18.7973333 L16.8935652,18.8001481 C16.7474783,18.8001481 16.6278261,18.6819259 16.6278261,18.5327407 L16.6222609,13.8854815 L15.4313043,13.8854815 C13.7547826,13.8868889 12.3913043,15.2675556 12.3913043,16.9648889 L12.3982609,22.99 L19.7916522,22.9843704 L26.2542609,22.9787407" id="Fill-5" ></path>
            <path d="M19.2643478,23.5177778 L17.258087,23.5205926 L17.2608696,27.899037 L21.349913,27.8962222 L21.3443478,23.5163704 L19.2643478,23.5177778" id="Fill-6" ></path>
        </g>
    </g>
</svg>