<svg width="270" height="198" viewBox="0 0 270 198" xmlns="http://www.w3.org/2000/svg" xmlns:sketch="http://www.bohemiancoding.com/sketch/ns"><title>cb</title><desc></desc><g><path d="M.846 96.611v-96.194h268.65v96.199l-268.65-.005" fill="#454545" /><path d="M269.496 96.611v.005l-268.65-.005v101.249l268.65.005v-101.254" fill-opacity=".7" /><path d="M269.496 96.611h-268.65l268.65.005" fill="#1A1918" /><path d="M83.307 94.741h57.609c-.509-11.346-3.415-23.05-12.215-30.567-10.482-8.96-28.842-12.281-45.248-12.281-17.076 0-35.959 3.648-46.497 13.256-9.087 8.271-11.051 21.592-11.051 33.557 0 12.532 3.843 27.105 13.701 35.507 10.482 8.929 27.467 11.301 43.847 11.301 15.917 0 33.149-2.673 43.57-11.161 10.391-8.467 13.983-22.738 13.983-35.647v-.06h-57.699v-3.904" fill="#fff" /><path d="M144.784 98.646v44.778h80.139v-.06c11.726-.583 21.05-10.221 21.05-22.055 0-11.839-9.324-22.095-21.05-22.683v.02h-80.139" fill="#fff" /><path d="M244.513 74.214c0-11.402-9.072-20.447-20.506-20.447-.786 0-1.758-.146-2.529-.06h-76.694v41.034h80.799c10.593-.904 18.929-9.723 18.929-20.527" fill="#fff" /></g></svg>