<svg xmlns="http://www.w3.org/2000/svg"><symbol id="shape-icon-arrow-d" viewBox="0 0 64 64"><path d="M5.85 14.572l-4.032 3.934 30.22 30.978 30.085-31.11-4.05-3.916L32.02 41.395"/></symbol><symbol id="shape-icon-arrow-u" viewBox="0 0 64 64"><path d="M58.092 49.37l4.03-3.933-30.218-30.98-30.086 31.11 4.05 3.917L31.92 22.548"/></symbol><symbol id="shape-icon-back-button" viewBox="0 0 612 612"><path d="M353.812 172.125c-7.478 0-14.21 2.926-19.335 7.612l-.058-.077-114.75 105.188c-5.91 5.45-9.295 13.1-9.295 21.152s3.385 15.7 9.295 21.152L334.42 432.34l.058-.076c5.125 4.686 11.857 7.61 19.335 7.61 15.836 0 28.688-12.85 28.688-28.687 0-8.357-3.633-15.836-9.352-21.076l.058-.075L281.52 306l91.685-84.054-.058-.077c5.72-5.222 9.353-12.68 9.353-21.058 0-15.835-12.852-28.687-28.688-28.687zM306 0C137.012 0 0 137.012 0 306s137.012 306 306 306 306-137.012 306-306S474.988 0 306 0zm0 554.625C168.912 554.625 57.375 443.088 57.375 306S168.912 57.375 306 57.375 554.625 168.912 554.625 306 443.088 554.625 306 554.625z"/></symbol><symbol id="shape-icon-big-arrow-d" viewBox="0 0 33.7 34.3"><path d="M16.8 34.3c.1 0 .2 0 .2-.1.7-.1 1.5-.9 2.7-2.5.1-.2.6-.7 1.3-1.5 3.3-3.9 11.7-13.7 12.4-14.4.5-.5.4-1.3-.3-1.3h-5.9c-1.3 0-1.9-.8-1.9-1.5V1.9c0-.8-.4-1.7-1.3-1.8-.1-.1-.2-.1-.3-.1H10C8.5 0 8.2.9 8.2 2v10.8c0 1.4-.7 1.7-1.6 1.7H.8c-.8 0-1.1.7-.4 1.4.2.2 1.7 1.9 3.6 4.1 3.8 4.4 9.2 10.7 10.2 12 1.2 1.5 1.9 2.3 2.6 2.3"/></symbol><symbol id="shape-icon-big-arrow-u" viewBox="0 0 33.7 34.3"><path d="M16.9 0c-.1 0-.2 0-.2.1-.7.1-1.5.9-2.7 2.5-.1.2-.6.7-1.3 1.5C9.4 8 1 17.8.3 18.5c-.5.5-.4 1.3.3 1.3h5.9c1.3 0 1.9.8 1.9 1.5v11.1c0 .8.4 1.7 1.3 1.8.1.1.2.1.3.1h13.7c1.5 0 1.8-.9 1.8-2V21.5c0-1.4.7-1.7 1.6-1.7h5.8c.8 0 1.1-.7.4-1.4-.2-.2-1.7-1.9-3.6-4.1-3.8-4.4-9.2-10.7-10.2-12C18.3.8 17.6 0 16.9 0"/></symbol><symbol id="shape-icon-cancel" viewBox="0 0 512 512"><path d="M479.8 131.01L376.026 27.164 256 147.19 136.012 27.164 32.202 131.01l120.026 119.952L32.2 370.987l103.812 103.848L256 354.808l120.026 120.027L479.8 370.987 359.81 250.962 479.8 131.01z"/></symbol><symbol id="shape-icon-check" viewBox="0 0 56 41"><title>Rectangle 62</title><path d="M20.927 40.077c.768 0 1.536-.29 2.12-.876L54.166 8.085c1.174-1.174 1.17-3.07-.002-4.24l-2.828-2.83c-1.168-1.167-3.07-1.172-4.24 0L20.928 27.177 8.907 15.158c-1.17-1.17-3.07-1.172-4.243 0l-2.828 2.827c-1.168 1.168-1.172 3.072 0 4.243l16.97 16.97c.584.585 1.352.877 2.12.878z" fill-rule="evenodd"/></symbol><symbol id="shape-icon-customer-trouble" viewBox="0 0 32 19"><title>icon-serviceclient@1x</title><path d="M7.008 3.416c0 .657.224 1.23.667 1.717.442.484 1.052.728 1.828.728.68 0 1.255-.243 1.732-.727.473-.488.71-1.076.71-1.764 0-.69-.24-1.272-.72-1.737-.48-.475-1.056-.71-1.723-.71-.79 0-1.398.247-1.836.74-.44.49-.658 1.077-.658 1.753m17.57-1.763c-.133-.15-.287-.27-.454-.375-.37-.23-.813-.355-1.35-.355-.655 0-1.233.24-1.723.722s-.738 1.055-.738 1.72c0 .457.145.888.43 1.295.098.142.21.28.344.415.513.522 1.074.785 1.688.785.766 0 1.365-.24 1.796-.72.433-.483.65-1.055.65-1.726 0-.685-.216-1.272-.642-1.76m-.623 9.98c-.373-.13-.746-.272-1.116-.387-1.552-.48-3.197-.778-4.94-.898-.58-.04-1.17-.06-1.77-.06-1.235 0-2.417.083-3.543.247-.98.14-1.92.355-2.837.62-.137.038-.28.067-.414.11-1.037.32-2.073.723-3.113 1.203-1.04.484-2.094 1.047-3.168 1.69-1.212.722-1.96 1.292-2.254 1.706-.29.416-.433 1.008-.433 1.773 0 .546.15.82.442.82.086 0 .613-.233 1.582-.693.414-.196.867-.396 1.346-.6.635-.27 1.323-.547 2.074-.825 1.312-.492 2.865-.922 4.66-1.297 1.026-.215 2.09-.36 3.18-.45.81-.067 1.635-.106 2.48-.106 1.595 0 3.128.126 4.603.365h.002c.344.058.69.112 1.027.183 1.79.364 3.344.8 4.67 1.297l.117.047c1.272.477 2.376.943 3.3 1.386.96.46 1.488.692 1.585.692.296 0 .442-.273.442-.82 0-.734-.15-1.314-.458-1.74-.307-.426-1.06-1.008-2.266-1.738-.08-.05-.16-.092-.244-.142-1.674-1-3.324-1.79-4.955-2.382"/></symbol><symbol id="shape-icon-home" viewBox="0 0 27.021 23.94"><path d="M3.674 23.336s-.024.604.566.604l6.81-.008.01-5.58s-.095-.92.798-.92h2.826c1.056 0 .99.92.99.92l-.01 5.562h6.666c.75 0 .715-.752.715-.752v-10.29L13.65 4.516l-9.976 8.358v10.463z"/><path d="M0 12.095s.847 1.56 2.694 0l11.038-9.338 10.35 9.28c2.137 1.542 2.938 0 2.938 0L13.732 0 0 12.095zM23.83 2.735h-2.662l.01 3.228 2.652 2.25"/></symbol><symbol id="shape-icon-information" viewBox="0 0 475 475"><path d="M238 0C107 0 0 107 0 238s107 237 238 237 237-106 237-237S369 0 238 0zm0 432c-107 0-194-87-194-194S131 44 238 44s194 87 194 194-87 194-194 194z"/><path d="M270 323l-20 9 26-133c3-14-12-29-28-20l-49 27c-9 5-12 17-7 26s17 12 26 7l12-6-25 127c-2 11 7 23 19 23 3 0 6-1 8-2l53-23c10-4 14-15 10-25s-15-14-25-10zM257 143c15 0 27-12 27-27s-12-27-27-27-27 12-27 27 12 27 27 27z"/></symbol><symbol id="shape-icon-reference" viewBox="0 0 294.842 294.842"><path d="M288.842 0H6C2.687 0 0 2.687 0 6v282.842c0 3.313 2.687 6 6 6h240.42c3.314 0 6-2.687 6-6s-2.686-6-6-6H12V12h270.842v276.842c0 3.313 2.687 6 6 6s6-2.687 6-6V6c0-3.313-2.687-6-6-6z"/><path d="M65.815 62.42c-12.683 0-23 10.318-23 23s10.317 23 23 23 23-10.316 23-23-10.317-23-23-23zm0 34c-6.065 0-11-4.934-11-11s4.935-11 11-11 11 4.936 11 11-4.934 11-11 11zM246.815 79.42h-140c-3.313 0-6 2.688-6 6s2.687 6 6 6h140c3.313 0 6-2.686 6-6s-2.686-6-6-6zM65.815 124.42c-3.313 0-6 2.688-6 6s2.687 6 6 6c6.065 0 11 4.936 11 11s-4.935 11-11 11-11-4.934-11-11c0-3.312-2.687-6-6-6s-6 2.688-6 6c0 12.684 10.317 23 23 23s23-10.316 23-23-10.317-23-23-23zM246.815 141.42h-140c-3.313 0-6 2.688-6 6s2.687 6 6 6h140c3.313 0 6-2.686 6-6s-2.686-6-6-6zM65.815 186.42c-12.683 0-23 10.318-23 23s10.317 23 23 23 23-10.316 23-23-10.317-23-23-23zm0 34c-6.065 0-11-4.934-11-11s4.935-11 11-11 11 4.936 11 11-4.934 11-11 11zM246.815 203.42h-140c-3.313 0-6 2.688-6 6s2.687 6 6 6h140c3.313 0 6-2.686 6-6s-2.686-6-6-6z"/></symbol><symbol id="shape-icon-socket" viewBox="0 0 492.616 492.616"><path d="M468.2 135.742c-22.7-50.8-63.9-90.9-116-113.1-82.7-35.2-170.7-28.4-241.6 18.5C41.3 86.942 0 163.742 0 246.642c0 62.4 23.3 121.9 65.7 167.5 42.2 45.4 99.3 73.1 160.9 78 .9.1 1.8.1 2.7.1 8.7 0 17.2-3.3 23.6-9.3 7.2-6.7 11.4-16.1 11.4-26v-75.9c0-1.1-.1-2.2-.3-3.2.2-1 .3-2.1.3-3.2 0-9.9-8.1-18-18-18-45.7 0-82.8-37.1-82.8-82.8v-54.6h165.6v54.6c0 23-9.7 45.1-26.5 60.7-7.3 6.8-7.7 18.1-1 25.4 6.8 7.3 18.1 7.7 25.4 1 24.2-22.4 38-54.2 38-87.1v-72.6c0-9.9-8.1-18-18-18h-39.2v-59c0-9.9-8.1-18-18-18s-18 8.1-18 18v59h-51.2v-59c0-9.9-8.1-18-18-18s-18 8.1-18 18v59h-39.2c-9.9 0-18 8.1-18 18v72.6c.1 59.5 43.9 108.8 100.9 117.5v64.9c-107.9-9.1-192.3-101-192.3-209.5 0-70.8 35.3-136.4 94.5-175.5 60.6-40.1 136.3-45.7 207.6-15.4 43.7 18.5 78.2 52.2 97.2 94.7 40.6 90.9 21.4 190.3-49 253.1-7.4 6.6-8.1 18-1.4 25.4 6.6 7.4 18 8.1 25.4 1.4 38.7-34.6 65.1-79.4 76.4-129.8 12-53.8 5.7-110.8-18.5-164.9z"/></symbol><symbol id="shape-icon-thin-cancel" viewBox="0 0 117 117"><path d="M1.2 4l98.2 98.2 13.7 13.7c1.8 1.8 4.7-1 2.8-2.8-32.8-32.8-65.5-65.6-98.2-98.3C13.1 10.3 8.6 5.7 4 1.1 2.2-.7-.7 2.1 1.2 4z"/><path d="M4 115.8l98.2-98.2 13.7-13.7c1.8-1.8-1-4.7-2.8-2.8-32.8 32.7-65.5 65.5-98.3 98.2L1.1 113c-1.8 1.8 1.1 4.6 2.9 2.8z"/></symbol><symbol id="shape-icon-thin-check" viewBox="0 0 406.8 281.8"><path d="M385.6 0L146.2 239.4l-125-125L0 135.6l146.2 146.2L406.8 21.2"/></symbol></svg>