<svg xmlns="http://www.w3.org/2000/svg"><symbol id="shape-icon-big-smartphone" viewBox="0 0 20.332 35"><path d="M17.968 0H2.364A2.37 2.37 0 0 0 0 2.364v30.271A2.371 2.371 0 0 0 2.364 35h15.604a2.37 2.37 0 0 0 2.364-2.364V2.364A2.37 2.37 0 0 0 17.968 0zM7.67 1.704h4.992a.286.286 0 0 1 0 .573H7.67a.286.286 0 1 1 0-.573zm2.496 32.114a1.182 1.182 0 1 1 0-2.363 1.182 1.182 0 0 1 0 2.363zm8.521-3.193H1.645V3.749h17.042v26.876z"/></symbol><symbol id="shape-icon-box" viewBox="0 0 36 13"><path d="M4.284 4.543c.502 0 .91-.435.91-.975s-.408-.977-.91-.977-.91.438-.91.978.408.975.91.975zm5.13-.012c.02.003.038.014.06.014.5 0 .91-.437.91-.975 0-.02-.01-.036-.012-.055-.027-.514-.415-.924-.9-.924-.5 0-.91.438-.91.978 0 .517.38.93.852.963zm-2.536.013c.504 0 .91-.435.91-.975a.978.978 0 0 0-.486-.85.83.83 0 0 0-.424-.127c-.502 0-.91.438-.91.978 0 .173.055.327.128.47.156.297.44.505.782.505zM34.434.117a2.149 2.149 0 0 0-.51-.06H2.073c-.8 0-1.987.57-1.987 2.135v6.844c0 .372.107.818.338 1.21L1.471 9.1c0-.023-.01-.04-.01-.064V2.19c0-.423.21-.645.612-.655h31.85c.395 0 .6.224.61.656v6.844c0 .424-.208.646-.617.66H18.974V7.916h-1.922v1.776H2.074c-.37 0-.57-.208-.602-.595L.425 10.244c.303.512.823.926 1.65.926H17.05v1.605h1.922V11.17h14.95c.798 0 1.988-.57 1.988-2.136V2.19c0-.75-.406-1.815-1.478-2.074z" fill-rule="evenodd"/></symbol><symbol id="shape-icon-hang-up" viewBox="0 0 435.933 435.933"><path d="M286.482 279.088a3.48 3.48 0 0 1-.023 4.225l-65.723 85.483a3.473 3.473 0 0 1-5.526 0l-65.727-85.483a3.485 3.485 0 0 1-.017-4.224 3.47 3.47 0 0 1 4.069-1.137l43.516 17.176V194.393a3.477 3.477 0 0 1 3.486-3.48h34.877a3.483 3.483 0 0 1 3.485 3.48v100.74l43.516-17.177a3.477 3.477 0 0 1 4.067 1.132zM196.93 65.927C-28.392 70.252-1.475 181.812 3.69 198.193c5.532 27.833 26.852 41.76 48.488 33.864l41.166-12.881c22.179-8.096 36.25-38.272 31.408-67.418l-.917-5.518c74.849-21.183 139.407-15.746 189.768-1.727l-.396 2.353c-4.819 29.149 9.231 59.333 31.423 67.423l41.164 17.16c18.604 6.791 36.965-6.287 45.271-27.171.107.09.173.15.173.15s1.139-2.812 2.288-7.625c.093-.375.163-.786.262-1.155.191-.881.383-1.792.575-2.785.115-.561.246-1.092.353-1.658l-.041-.035c6.017-35.513-.204-129.777-237.745-125.243z"/></symbol><symbol id="shape-icon-logo-bouygues-mini" viewBox="0 0 256 220"><path fill="#EB5B00" d="M150.546 211.933c18.076 12.482 53.843-7.914 79.881-45.627 26.041-37.713 32.495-78.359 14.42-90.841-18.08-12.483-52.947 6.872-78.988 44.586-26.037 37.71-33.385 79.397-15.313 91.882z"/><path fill="#0053A5" d="M105.455 211.933c-18.077 12.482-53.843-7.914-79.882-45.627-26.04-37.713-32.494-78.359-14.419-90.842 18.08-12.483 52.945 6.871 78.987 44.585 26.038 37.712 33.387 79.399 15.314 91.884z"/><ellipse fill="#009BCD" cx="127.985" cy="44.119" rx="83.064" ry="39.721"/></symbol><symbol id="shape-icon-power" viewBox="0 0 894.523 894.524"><path d="M552.37 259.144v81.492c42.571 31.953 70.069 82.823 70.069 140.144 0 96.77-78.408 175.178-175.178 175.178-96.767 0-175.18-78.408-175.18-175.178 0-57.32 27.503-108.19 70.072-140.144v-81.492C259.295 298.489 202.01 382.959 202.01 480.78c0 135.45 109.804 245.252 245.252 245.252 135.446 0 245.252-109.802 245.252-245.252 0-97.821-57.285-182.291-140.144-221.636z"/><path d="M482.297 445.851V235.424c0-19.305-15.553-34.931-35.035-34.931-19.374 0-35.037 15.871-35.037 34.931v210.427c0 19.305 15.558 34.929 35.037 34.929 19.376 0 35.035-15.871 35.035-34.929z"/></symbol><symbol id="shape-icon-shopping-cart" viewBox="0 0 31 32"><title>icon-shopping-cart@1x</title><path d="M28.147 11.188a.65.65 0 0 0-.23-.046H23.02l.494-3.255 4.856-.011.773-.003-.997 3.315zm-1.552 5.151h-4.362l.586-3.856h4.936l-1.16 3.856zm-1.198 3.975h-.403l-3.362-.012.397-2.621h4.162l-.622 2.062-.172.57zm-14.686-.045l-.291-2.588h4.766l.1 2.602-4.575-.014zM9.383 8.44l-.058-.52.585-.002h.123l4.78-.01.123 3.234h-5.24l-.01.002-.291-2.596-.012-.108zm.885 7.9l-.432-3.857h5.15l.147 3.856H10.27zm9.993 3.958l-3.623-.011-.098-2.606h4.12l-.399 2.617zm.788-5.177l-.184 1.218h-4.377l-.147-3.856h5.107l-.399 2.638zm-1.905-7.225l3.002-.005-.493 3.251h-5.362l-.014-.405-.11-2.832 2.977-.009zM29.73 6.531l-9.225.023-9.114.019-.12.002-3.457.007.345 3.072.01.107 1.33 11.844 4.983.017 9.163.028 2.76.009 4.559-15.13-1.234.002zM9.547 26.506a2.693 2.693 0 0 0-1.222-.302c-1.488 0-2.697 1.196-2.697 2.673 0 .435.116.842.303 1.206a2.688 2.688 0 0 0 2.394 1.465c1.49 0 2.697-1.197 2.697-2.671 0-1.04-.606-1.927-1.475-2.37zm16.58-3.288a.673.673 0 0 0-.676-.67H9.021c-.006 0-.01.003-.017.003l-.467-4.156-.914-8.096-.011-.108-.395-3.52-.19-.172C6.874 6.364 3.308 3.17 2.06 2.272a.523.523 0 0 1-.211-.541c.03-.163.122-.273.193-.292.105-.034.356.088.7.477L5.81 4.703a.68.68 0 0 0 .956-.041.666.666 0 0 0-.04-.949L3.712.984C2.87.01 2.083.04 1.692.144 1.092.303.643.817.517 1.486a1.868 1.868 0 0 0 .748 1.87c1.03.743 3.897 3.285 4.664 3.968l.458 4.08.013.109 1.496 13.3a.676.676 0 0 0 .747.591.673.673 0 0 0 .599-.74l-.087-.775h16.296a.675.675 0 0 0 .677-.672zm-5.95 5.034h-7.644c-.373 0-.675.3-.675.67 0 .37.302.67.675.67h7.644c.373 0 .676-.3.676-.67 0-.37-.303-.67-.676-.67zm4.388-2.047c-1.487 0-2.695 1.196-2.695 2.672 0 1.474 1.208 2.672 2.695 2.672 1.49 0 2.697-1.198 2.697-2.672 0-1.476-1.207-2.672-2.697-2.672z" fill-rule="evenodd"/></symbol><symbol id="shape-icon-user-tlv" viewBox="0 0 48 48"><path d="M45 48H3c0-5.427 6.348-9.96 15-11.442v-2.22c-3.57-2.082-6-5.907-6-10.338v-.303c-1.74-.624-3-2.244-3-4.197 0-1.953 1.26-3.573 3-4.197V15c0-6.627 5.373-12 12-12s12 5.373 12 12v.303c1.74.624 3 2.244 3 4.197 0 1.953-1.26 3.573-3 4.197V24c0 4.431-2.43 8.256-6 10.335v2.22C38.655 38.04 45 42.573 45 48z"/></symbol></svg>