<svg xmlns="http://www.w3.org/2000/svg" xmlns:xlink="http://www.w3.org/1999/xlink"><defs><path id="shape-icon-2g-a" d="M0 0h118.21v78.43H0z"/><clipPath id="shape-icon-2g-b"><use xlink:href="#shape-icon-2g-a" overflow="visible"/></clipPath><path id="shape-icon-3g-a" d="M0 0h151.926v79.992H0z"/><clipPath id="shape-icon-3g-b"><use xlink:href="#shape-icon-3g-a" overflow="visible"/></clipPath><path id="shape-icon-flat-phone-a" d="M0 0h47v81H0z"/><clipPath id="shape-icon-flat-phone-b"><use xlink:href="#shape-icon-flat-phone-a" overflow="visible"/></clipPath></defs><symbol id="shape-icon-2g" viewBox="0 0 118.211 78.431"><path clip-path="url(#shape-icon-2g-b)" d="M.014 75.273l.326-2.506 30.828-36.274c2.832-3.377 6.21-7.952 6.21-13.072 0-4.574-2.506-8.605-7.735-8.605-4.575 0-8.932 4.25-11.438 6.863-.87.87-1.96.762-2.723 0l-5.447-5.99c-.544-.655-.544-1.962.328-2.834C11.996 11.11 19.62 2.18 31.278 2.18c12.635 0 19.607 8.605 19.607 20.37 0 6.208-2.614 12.527-8.06 18.954l-20.59 24.182H42.17c.98 0 1.635.98 1.526 2.07l-.98 7.517c-.11 1.09-1.2 2.07-2.18 2.07H1.538c-1.088 0-1.633-.98-1.524-2.07M95.142 0c9.804 0 17.104 3.813 22.658 10.35.654.87.544 2.177-.437 3.05l-5.773 5.663c-1.306.98-2.614.98-3.594 0-2.833-2.723-6.863-5.446-13.617-5.446-13.073 0-24.4 13.508-24.4 29.084 0 11.548 7.297 21.57 16.883 21.57 5.12 0 9.042-1.308 11.11-2.615l1.31-9.586H92.31c-1.09 0-1.743-.872-1.635-1.962l1.198-8.497c.22-1.197 1.09-2.07 2.18-2.07h19.28c.98 0 1.634.982 1.525 2.07l-3.595 26.146c-.218 1.743-.98 2.724-1.743 3.377-1.09.87-9.694 7.298-24.4 7.298-17.757 0-30.61-15.14-30.61-33.876C54.51 18.954 72.375 0 95.142 0"/></symbol><symbol id="shape-icon-3g" viewBox="0 0 151.926 79.992"><path clip-path="url(#shape-icon-3g-b)" d="M127.996 33.562h-11.378c-.806 0-1.343-.806-1.254-1.702l.897-6.27c.09-.897.896-1.703 1.7-1.703h11.38l1.88-13.17c.09-.895.986-1.612 1.793-1.612h6.897c.807 0 1.345.717 1.255 1.612l-1.882 13.17h11.378c.808 0 1.346.806 1.255 1.702l-.896 6.27c-.09.896-.897 1.702-1.703 1.702H137.94l-1.792 13.08c-.18.896-.986 1.612-1.792 1.612h-6.9c-.805 0-1.432-.716-1.253-1.612l1.793-13.08zM.765 67.13l5.98-5.414c.902-.903 2.256-.903 3.27.562 1.693 2.257 5.415 5.302 10.83 5.302 6.32 0 11.283-4.737 11.283-11.618 0-5.19-3.95-10.04-11.395-10.04H14.98c-1.015 0-1.806-.903-1.58-2.258l1.016-7.106c.225-1.467 1.128-2.257 2.256-2.257h5.64c8.462 0 13.65-5.752 13.65-12.296 0-4.512-3.158-7.446-7.445-7.446-4.963 0-8.122 3.61-10.153 5.528-.903.903-2.03 1.016-2.82.113l-5.416-6.318c-.676-.79-.45-2.144.34-2.934 2.142-2.256 9.25-9.928 20.418-9.928 11.056 0 19.405 7.108 19.405 17.938 0 10.38-7.897 18.276-13.31 20.87v.34c4.06 2.03 9.926 7.67 9.926 16.02 0 13.31-10.04 23.804-26.06 23.804-12.748 0-18.614-7.22-20.532-10.04-.564-.79-.338-2.145.45-2.822"/><path clip-path="url(#shape-icon-3g-b)" d="M95.408 0c10 0 17.442 3.888 23.108 10.554.666.89.556 2.222-.444 3.11l-5.89 5.778c-1.332 1-2.665 1-3.665 0-2.89-2.777-7-5.555-13.888-5.555-13.333 0-24.887 13.777-24.887 29.664 0 11.776 7.443 21.998 17.22 21.998 5.222 0 9.222-1.333 11.333-2.666l1.333-9.777h-7.11c-1.112 0-1.78-.89-1.668-2l1.223-8.665c.222-1.222 1.11-2.11 2.222-2.11h19.664c1 0 1.668 1 1.557 2.11l-3.666 26.664c-.222 1.777-1 2.777-1.776 3.443-1.11.89-9.888 7.444-24.887 7.444-18.11 0-31.218-15.442-31.218-34.552C53.967 19.33 72.187 0 95.407 0"/></symbol><symbol id="shape-icon-4g-plus" viewBox="0 0 200 145"><path d="M170.718 51.485l2.386-16.697c.114-1.135 1.25-2.043 2.272-2.043h8.747c1.02 0 1.702.908 1.59 2.043l-2.385 16.697h14.426c1.02 0 1.702 1.022 1.59 2.16l-1.14 7.95c-.11 1.136-1.133 2.158-2.155 2.158h-14.427l-2.27 16.583c-.228 1.137-1.252 2.046-2.273 2.046h-8.747c-1.02 0-1.816-.91-1.587-2.046l2.27-16.583H154.59c-1.02 0-1.702-1.022-1.59-2.158l1.136-7.95c.115-1.138 1.137-2.16 2.16-2.16M.7 97.65l1.555-11.738 53.75-61.958c.424-.567.99-.848 2.122-.848h8.204c1.275 0 2.265 1.13 1.982 2.686L59.965 86.05h10.043c1.415 0 2.264 1.132 2.12 2.547l-1.27 8.77c-.142 1.416-1.414 2.69-2.83 2.69H57.986L55.58 118.16c-.28 1.413-1.554 2.688-2.828 2.688H40.445c-1.272 0-2.262-1.274-2.12-2.688l2.545-17.823H2.68c-1.415 0-2.264-1.273-1.98-2.686m42.716-12.023l4.95-31.26-27.016 31.26h22.066z"/><path d="M127.436 20.42c12.73 0 22.206 4.95 29.42 13.437.85 1.132.707 2.83-.566 3.96l-7.495 7.356c-1.697 1.274-3.395 1.274-4.67 0-3.678-3.536-8.91-7.073-17.68-7.073-16.974 0-31.684 17.54-31.684 37.768 0 14.995 9.478 28.008 21.927 28.008 6.646 0 11.74-1.698 14.426-3.396l1.697-12.447h-9.053c-1.413 0-2.263-1.132-2.12-2.548l1.555-11.032c.28-1.555 1.413-2.688 2.83-2.688h25.036c1.273 0 2.12 1.273 1.98 2.688l-4.67 33.948c-.28 2.266-1.27 3.538-2.26 4.386-1.416 1.132-12.59 9.477-31.686 9.477-23.056 0-39.748-19.66-39.748-43.99 0-33.242 23.198-57.854 52.762-57.854"/></symbol><symbol id="shape-icon-4g" viewBox="0 0 200 145"><path d="M3.674 104.762l1.95-14.708L72.97 12.426c.53-.71 1.24-1.062 2.657-1.062h10.28c1.595 0 2.835 1.417 2.482 3.366l-10.46 75.5h12.586c1.77 0 2.834 1.417 2.656 3.19l-1.594 10.986c-.18 1.774-1.772 3.37-3.545 3.37H75.45l-3.013 22.685c-.354 1.77-1.95 3.37-3.544 3.37h-15.42c-1.594 0-2.834-1.6-2.657-3.37l3.19-22.332H6.156c-1.773 0-2.837-1.593-2.482-3.366m53.52-15.064L63.4 50.53 29.548 89.7h27.647zM162.47 7.997c15.946 0 27.82 6.204 36.86 16.836 1.062 1.42.886 3.546-.71 4.963l-9.394 9.215c-2.127 1.596-4.25 1.596-5.85 0-4.606-4.43-11.166-8.862-22.153-8.862-21.266 0-39.696 21.977-39.696 47.32 0 18.785 11.874 35.09 27.47 35.09 8.332 0 14.71-2.126 18.078-4.253l2.128-15.595h-11.346c-1.773 0-2.834-1.417-2.655-3.19l1.948-13.823c.354-1.95 1.77-3.368 3.542-3.368h31.372c1.596 0 2.657 1.593 2.48 3.367l-5.85 42.534c-.354 2.835-1.596 4.432-2.834 5.494-1.775 1.417-15.773 11.875-39.7 11.875-28.888 0-49.8-24.636-49.8-55.12 0-41.647 29.065-72.483 66.11-72.483"/></symbol><symbol id="shape-icon-arobase" viewBox="-1427 1429 25 24"><style>.st0{fill:#0065A6;}</style><g id="Page-1"><path id="icon-internet" class="st0" d="M-1411.6 1440c-.1.5-.3 1-.5 1.6-.2.5-.4 1-.7 1.5-.3.5-.5.8-.8 1.1-.4.4-.9.8-1.3 1-.4.3-.9.4-1.4.4-.7 0-1.3-.2-1.7-.7-.4-.5-.6-1.1-.6-1.9 0-1 .2-2 .6-3 .4-1 1-1.9 1.7-2.5.8-.7 1.6-1 2.6-1 .5 0 1 .2 1.5.7.4.5.7 1 .7 1.6 0 .3 0 .7-.1 1.2m-12 9.7c1.1 1 2.4 1.8 3.9 2.4 1.5.6 3.1.8 4.9.8 2.2 0 4.3-.5 6.4-1.4 2-1 3.6-2.3 4.9-4h-2.8c-1 1-2.2 1.9-3.6 2.5-1.5.6-3 .9-4.6.9-1.3 0-2.6-.2-3.8-.7-1.2-.5-2.3-1.1-3.2-2-.9-.9-1.6-1.9-2.1-3-.5-1.2-.8-2.4-.8-3.7 0-1.4.3-2.7.8-4 .6-1.3 1.3-2.4 2.3-3.4 1-1 2.2-1.8 3.5-2.3 1.3-.6 2.7-.8 4.2-.8 1.2 0 2.3.2 3.4.5 1.1.4 2 .9 2.8 1.5.8.7 1.4 1.5 1.9 2.4.5.9.7 2 .7 3.2v.6c0 .8-.2 1.7-.5 2.4-.3.8-.7 1.5-1.1 2.1-.4.6-.9 1.1-1.4 1.4-.5.3-1 .5-1.5.5s-.8-.2-.8-.5c0-.6.1-1 .2-1.5l1.5-5c.6-2 .9-3.1 1-3.3l.1-.4s-.3 0-1-.1h-1l-.7 1.4c-.4-.7-.8-1.2-1.4-1.5-.6-.3-1.3-.5-2-.5-2 0-3.7.7-5.1 2.1-.9.8-1.6 1.9-2.1 3.1-.5 1.2-.8 2.5-.8 3.8 0 1.4.4 2.5 1.2 3.4.8.9 1.9 1.3 3.3 1.3.8 0 1.6-.2 2.2-.5.6-.3 1.2-.8 1.8-1.4h.1c0 .6.3 1.1.7 1.4.4.4.9.5 1.6.5.8 0 1.6-.2 2.5-.6.9-.4 1.8-1 2.7-1.7.9-.8 1.6-1.7 2.1-2.8.6-1.1.9-2.4 1-3.8v-.6c0-1.4-.3-2.7-.9-3.8-.6-1.2-1.4-2.2-2.4-3-1-.8-2.2-1.5-3.5-1.9-1.3-.4-2.8-.7-4.2-.7-1.9 0-3.6.3-5.3 1-1.7.7-3.1 1.6-4.4 2.7-1.3 1.2-2.2 2.5-2.9 4.1-.7 1.5-1 3.1-1 4.8 0 1.6.3 3.1.9 4.5.4 1.4 1.2 2.6 2.3 3.6"/></g></symbol><symbol id="shape-icon-box" viewBox="0 0 36 13"><path d="M4.284 4.543c.502 0 .91-.435.91-.975s-.408-.977-.91-.977-.91.44-.91.98.408.974.91.974zm5.13-.012c.02.004.038.015.06.015.5 0 .91-.437.91-.975 0-.02-.01-.036-.012-.055-.027-.514-.415-.924-.9-.924-.5 0-.91.44-.91.98 0 .516.38.93.852.962zm-2.536.014c.504 0 .91-.435.91-.975 0-.373-.202-.687-.486-.85-.128-.076-.267-.128-.424-.128-.502 0-.91.438-.91.978 0 .173.055.327.128.47.156.297.44.505.782.505zM34.434.117c-.156-.038-.326-.06-.51-.06H2.074c-.8 0-1.988.57-1.988 2.135v6.844c0 .372.107.818.338 1.21L1.47 9.1c0-.023-.01-.04-.01-.064V2.19c0-.423.21-.645.613-.655h31.85c.395 0 .6.224.61.656v6.845c0 .424-.208.646-.617.66H18.974v-1.78h-1.922v1.777H2.074c-.37 0-.57-.208-.602-.595L.425 10.244c.303.512.823.926 1.65.926H17.05v1.605h1.922V11.17h14.95c.798 0 1.988-.57 1.988-2.136V2.19c0-.75-.406-1.815-1.478-2.074z" fill-rule="evenodd"/></symbol><symbol id="shape-icon-flat-phone" viewBox="0 0 47 81"><path clip-path="url(#shape-icon-flat-phone-b)" d="M47 4.87C47 2.18 44.867 0 42.155 0H4.975C2.26 0 0 2.18 0 4.87v71.26C0 78.82 2.262 81 4.974 81h37.18C44.868 81 47 78.82 47 76.13V4.87zM20.07 2h7.365c.68 0 1.23.822 1.23 1.5S28.112 5 27.434 5H20.07c-.677 0-1.226-.822-1.226-1.5S19.394 2 20.07 2m3.683 74.052c-2.034 0-3.682-1.648-3.682-3.68 0-2.034 1.65-3.683 3.683-3.683s3.682 1.647 3.682 3.68c0 2.033-1.65 3.682-3.682 3.682M42 66H5V7h37v59z"/></symbol><symbol id="shape-icon-phone" viewBox="0 0 31 31"><title>icon-phone@1x</title><path d="M30.347 25.218l-6.612-4.575c-.305-.305-.803-.305-1.108.002l-1.604 1.6c-1.652 1.654-6.85-2.467-8.537-4.154-1.685-1.684-5.808-6.88-4.155-8.535l1.604-1.603c.305-.306.305-.803 0-1.11L5.36.23c-.305-.307-.8-.307-1.108 0L1.12 2.344c-1.365 1.368-3.687 6.2 8.614 18.5 12.3 12.3 17.134 9.98 18.5 8.614h.002l2.11-3.132c.308-.307.308-.804 0-1.108" fill-rule="evenodd"/></symbol><symbol id="shape-icon-tv" viewBox="0 0 32 25"><title>icon-tv@1x</title><path d="M29.46 20.407H1.594c.003-2.624.007-16.165.01-18.795h27.865c-.003 2.63-.01 16.17-.01 18.795M29.947 0H1.124C.51 0 .01.507.01 1.128L0 20.89c0 .627.5 1.133 1.115 1.133h10.56c-1.82.277-3.623.722-5.373 1.39-.456.173-.684.662-.512 1.074.17.41.65.6 1.073.438 5.587-2.13 11.75-2.13 17.335 0 .425.16.902-.027 1.075-.438.17-.412-.057-.9-.514-1.074-1.75-.668-3.55-1.113-5.376-1.39h10.552c.615 0 1.113-.506 1.113-1.132l.01-19.762c0-.62-.5-1.128-1.113-1.128M3.557 17.745h23.948c.12 0 .22-.102.22-.225V3.562c0-.124-.1-.224-.22-.224H3.557c-.122 0-.218.1-.218.224V17.52c0 .123.095.225.217.225m24.006.928h-.903c-.087 0-.16.074-.16.164v.458c0 .09.073.16.16.16h.903c.088 0 .16-.07.16-.16v-.458c0-.09-.072-.164-.16-.164m-1.587 0h-.905c-.088 0-.157.074-.16.164v.458c.003.09.072.16.16.16h.906c.087 0 .158-.07.158-.16v-.458c0-.09-.07-.164-.158-.164" fill-rule="evenodd"/></symbol></svg>