<svg xmlns="http://www.w3.org/2000/svg"><symbol id="shape-icon-cancel" viewBox="0 0 512 512"><path d="M479.8 131.01L376.026 27.164 256 147.19 136.012 27.164 32.202 131.01l120.026 119.952L32.2 370.987l103.812 103.848L256 354.808l120.026 120.027L479.8 370.987 359.81 250.962 479.8 131.01z"/></symbol><symbol id="shape-icon-check" viewBox="0 0 512 512"><path d="M432 64L192 304 80 192 0 272l192 192 320-320-80-80z"/></symbol><symbol id="shape-icon-close" viewBox="0 0 31.1 31.1"><path d="M31.1 1.4L29.7 0 15.6 14.1 1.4 0 0 1.4l14.1 14.2L0 29.7l1.4 1.4L15.6 17l14.1 14.1 1.4-1.4L17 15.6"/></symbol><symbol id="shape-icon-email" viewBox="0 0 26 18"><path d="M18.12 9.002l5.807-4.398.06 8.797-5.866-4.398zm5.73 6.8c-.016.02-.035.036-.054.054-.013.007-.023.018-.036.027-.02.015-.042.03-.064.042-.013.006-.026.015-.038.02l-.08.03c-.017 0-.027.005-.04.01-.04.007-.08.015-.126.015L2.69 15.992c-.044 0-.09-.005-.127-.015-.014-.002-.028-.007-.04-.014-.028-.006-.052-.014-.077-.024-.017-.007-.03-.018-.042-.027-.02-.01-.04-.022-.064-.036-.012-.008-.026-.02-.036-.03l-.055-.05c-.004-.006-.01-.01-.013-.016l7.315-5.53s1.463 1.44 3.47 1.44c2.002.002 3.443-1.44 3.443-1.44l7.394 5.54-.01.012zM2.006 4.6l5.876 4.398-5.81 4.39-.066-8.79zm.145-2.41L2.2 2.15c.017-.013.027-.026.044-.035.02-.014.037-.024.055-.035.016-.01.033-.016.05-.026.02-.01.04-.014.064-.022.017-.003.036-.013.052-.016.03-.005.055-.007.084-.007.013-.003.027-.005.04-.005l20.728.005c.01 0 .025.004.04.005l.08.007c.018.004.037.01.053.015.022.007.045.012.066.022.018.008.03.02.048.025.02.012.04.023.058.037.015.01.027.022.04.03.02.017.052.05.052.05l.013.016-8.274 6.246S14.16 9.55 13.003 9.55c-1.16-.004-2.506-1.094-2.506-1.094L2.14 2.21c.005-.003.007-.01.01-.02zM23.3.008L2.572 0C1.91 0 1.307.25.85.664c-.218.2-.406.433-.545.694-.197.37-.308.788-.305 1.24L.094 15.39c.01 1.436 1.177 2.6 2.608 2.6L23.43 18c.625 0 1.196-.227 1.642-.596.572-.475.934-1.196.928-2.003l-.093-12.795C25.897 1.168 24.73.007 23.3.007z" fill-rule="evenodd"/></symbol><symbol id="shape-icon-equipment" viewBox="0 0 136.2 80.8"><path d="M87.6 78.7v-5.2h2.7c-.1-.7-.1-1.4 0-2.1H62.8V61c0-.3-.5-.6-1-.6h-9.2c-.6 0-1 .3-1 .6v10.3H2.1V36.9h88.3c-.1-.7-.1-1.4 0-2.1H2.1c-1.1 0-2.1.9-2.1 2.1v34.5c0 1.1.9 2.1 2.1 2.1h7.3v4.9c0 1.1.9 2.1 2.1 2.1h15.4c1.1 0 2.1-.9 2.1-2.1v-4.7-.2h22.7V76c0 .3.5.6 1 .6h9.2c.6 0 1-.3 1-.6v-2.5h22.7v5.3c0 1.1.9 2.1 2.1 2.1H91c-.4-.6-.7-1.3-.8-2.1l-2.6-.1zm-60.8-.5H11.5v-4.7h15.4l-.1 4.7zm0 1v-1 1z"/><circle cx="13.1" cy="45.4" r="3.7"/><circle cx="23.6" cy="45.4" r="3.7"/><circle cx="34.1" cy="45.4" r="3.7"/><path d="M132.2 0H95.6c-2.2 0-4 1.8-4 4v72.8c0 2.2 1.8 4 4 4h36.7c2.2 0 4-1.8 4-4V4c-.1-2.2-1.9-4-4.1-4zm-22.3 3.6h7.9c.3 0 .5.2.5.5s-.2.5-.5.5h-7.9c-.3 0-.5-.2-.5-.5s.3-.5.5-.5zm25 67.4h-42V6.2h41.9l.1 64.8z"/></symbol><symbol id="shape-icon-gender-f" viewBox="125 10 260 200"><path d="M160 224h96c-35.375 0-64-28.656-64-64v-32c64 0 64-64 64-64s0 64 64 64v32c0 35.344-28.688 64-64 64h96c17.688 0 32-14.328 32-32-17.688 0-32-14.328-32-32V96c0-53.016-43-96-96-96-53.063 0-96 42.984-96 96v64c0 17.672-14.344 32-32 32 0 17.672 14.313 32 32 32zM352 288h-64l32 32-64 96-64-96 32-32h-64c-35.375 0-64 28.656-64 64v128c0 17.688 14.313 32 32 32h256c17.688 0 32-14.313 32-32V352c0-35.344-28.687-64-64-64z"/></symbol><symbol id="shape-icon-gender-m" viewBox="0 0 512 512"><path d="M509.265 95.034c-.08-3.92-2.356-7.48-5.93-9.218-3.558-1.724-7.793-1.345-10.967.992-29.483 21.54-61.07 13.33-77.16-4.888-18.705-21.187-42.922-66.088-100.56-62.82-34.266 1.95-50.34 16.938-58.473 34.662-8.122-17.734-24.187-32.723-58.464-34.66-57.636-3.27-81.863 41.63-100.568 62.818-16.095 18.227-47.68 26.44-77.15 4.888-3.183-2.327-7.418-2.706-10.972-.972-3.547 1.74-5.834 5.287-5.91 9.198-.418 20.604 5.317 51.727 38.608 72.37 53.546 33.217 135.225 41.394 187.934-5.122 0 0 16.084-16.932 26.543-37.8 10.46 20.868 26.554 37.8 26.554 37.8 52.698 46.515 134.357 38.338 187.902 5.123 33.296-20.644 39.032-51.767 38.613-72.37z"/></symbol><symbol id="shape-icon-good-deal" viewBox="0 0 49.59 66.81"><path d="M44.09 54.49c.49-1.94.87-3.47 1.19-5.37.47-2.79.88-5.19-.65-6.87a4.47 4.47 0 0 0-1-.83l-.47-.28.05-.68V35.64c.94-4 5.64-23.91 6.31-28.16a5.54 5.54 0 0 0-4.39-6.6 5.8 5.8 0 0 0-6.82 4C37.29 8.26 34.87 18.75 33 27l-.82 3.62-1-3.79c-2.16-8.3-5.12-19.67-5.76-22.2A6 6 0 0 0 18.25.14a5.6 5.6 0 0 0-3.73 2.67A7.51 7.51 0 0 0 14 8.38c.56 2.33 1.42 6.19 2.44 10.9l.27 1.26-1.28-.18A7 7 0 0 0 10 22a5.75 5.75 0 0 0-2 3.65l-.12.93-.93-.16a5.38 5.38 0 0 0-.95-.08 6.11 6.11 0 0 0-4 1.54A5.94 5.94 0 0 0 .22 34c.71 2.72 1.17 4.52 1.53 6 .52 2.06.83 3.3 1.4 5.25v.3c-.09 1.64-.4 10.1 3 15.24 4 6.07 10.62 6.07 13.82 6.07h13.32c3.16 0 7.94 0 9.77-8.05.39-1.75.73-3.11 1.03-4.32zM16.14 8a5.83 5.83 0 0 1 .42-4.45A3.39 3.39 0 0 1 18.76 2a3.83 3.83 0 0 1 4.55 3c1 4 7.85 30.19 7.91 30.42a1.12 1.12 0 0 0 1.09.75 1.07 1.07 0 0 0 1-.78c0-.23 5.45-24.68 7.05-30a3.61 3.61 0 0 1 4.23-2.63c1.52.3 3.14 1.65 2.69 4.46C46.74 11 42.77 28 41.09 35.11l-.08.33a.86.86 0 0 0 0 .19v4.84l-1-.14a37.23 37.23 0 0 0-4.86-.26h-12l-1-4.75c-.73-3.46-1.66-7.89-2.34-11C18.06 16.43 16.85 11 16.14 8zm-4.6 15.36a4.6 4.6 0 0 1 4.1-1 2.79 2.79 0 0 1 1.94 2.22c.86 4 1.7 8 2.33 11l.94 4.49h-2.62a8.66 8.66 0 0 0-3.39.63l-.94.4-.28-1C13 38 11.87 33.9 11 30.54c0-.09 0-.17-.07-.24-.27-1.07-.51-2-.7-2.81a4 4 0 0 1 1.31-4.14zM3.76 39c-.35-1.34-.76-3-1.41-5.45a4.12 4.12 0 0 1 1.2-4.31 3.52 3.52 0 0 1 3.23-.86 3 3 0 0 1 2 2.27l.09.33c1.06 4.68 2.72 10.02 3.2 11.61l.11.35-.16.33a4.93 4.93 0 0 0-.53 2.22A5.54 5.54 0 0 0 11.7 47l.22.8-.79.28a4.42 4.42 0 0 1-1.49.25A5.2 5.2 0 0 1 7.76 48a3.44 3.44 0 0 1-2.15-2.08c-.8-2.64-1.13-4-1.72-6.35zm38.11 15.4c-.28 1.12-.6 2.39-.95 3.95-1.49 6.51-4.47 6.51-7.63 6.51H20c-3 0-8.59 0-11.92-5.1-1.4-2.15-2.27-5.26-2.59-9.25l-.12-1.47 1.49.63a7.31 7.31 0 0 0 5.72-.07l.52-.25.45.37a7.47 7.47 0 0 0 4.72 1.66h14.11a1 1 0 1 0 0-1.93H18.23c-3 0-4.56-2.06-4.56-4a3.16 3.16 0 0 1 1.06-2.4 5.18 5.18 0 0 1 3.5-1.05H35.1c5.77 0 7.21.78 7.83 1.45.87 1 .64 2.75.19 5.38-.3 1.77-.65 3.21-1.11 5z"/></symbol><symbol id="shape-icon-popup-sale" viewBox="0 0 76.2 68.5"><path d="M47.3 8.1L25.5 39.7h14.6l-5.5 20.5.1.1 21.8-31.6H41.9l5.5-20.5-.1-.1z"/><path d="M62.8 61.2c-15.1 11.7-36.8 9-48.5-6.1-5.6-7.2-8.1-16.3-7-25.3l.3-2.1-6.1 4.8c-.4.3-1 .1-1.2-.3-.2-.3-.3-.6-.3-.8 0-.2.1-.4.3-.5L7.9 25H8l.2-.1c.3-.3.8-.3 1.1-.1l6.5 6.6c.3.5.1 1.1-.4 1.4-.3.2-.7.2-1 0L9.6 28l-.2 1.8c-2.2 17.7 10.5 33.8 28.2 36s33.8-10.5 36-28.2c1.8-15-7-29.3-21.3-34.4-.6-.3-1.7-.6-3.5-1.2-.4-.2-.6-.8-.5-1.2.2-.6.7-.9 1.1-.8l3.4 1 .4.1c.5.2 1.1.4 1.7.7l.3.2c.9.4 1.7.8 2.5 1.2 3.4 1.8 6.5 4.2 9.1 7 .8.8 1.5 1.6 2.1 2.5 11.8 15.1 9 36.8-6.1 48.5z"/></symbol><symbol id="shape-icon-warning" viewBox="36.799 1.713 26.402 96.574"><path d="M62.635 2.318c-.377-.387-.894-.605-1.434-.605H38.8c-.54 0-1.058.22-1.435.605-.377.386-.58.91-.565 1.45l1.68 60.798c.03 1.082.916 1.943 2 1.943h19.045c1.082 0 1.97-.862 1.998-1.946L63.2 3.768c.015-.54-.188-1.063-.565-1.45zM59.484 76.747H40.517c-1.104 0-2 .896-2 2v17.54c0 1.104.896 2 2 2h18.97c1.103 0 2-.896 2-2v-17.54c-.003-1.104-.897-2-2.003-2z"/></symbol></svg>