<svg xmlns="http://www.w3.org/2000/svg"><defs><linearGradient id="shape-icon-byou-a" gradientUnits="userSpaceOnUse" x1="731.762" y1="851.18" x2="731.762" y2="776.168" gradientTransform="translate(-231.055 -774.14)"><stop offset=".5" stop-color="#008356"/><stop offset="1" stop-color="#00aaa0"/></linearGradient><linearGradient id="shape-icon-byou-b" gradientUnits="userSpaceOnUse" x1="663.514" y1="851.18" x2="663.514" y2="776.168" gradientTransform="translate(-231.055 -774.14)"><stop offset=".178" stop-color="#007b9b"/><stop offset="1" stop-color="#37bde9"/></linearGradient><linearGradient id="shape-icon-byou-c" gradientUnits="userSpaceOnUse" x1="585.469" y1="851.152" x2="585.469" y2="776.141" gradientTransform="translate(-231.055 -774.14)"><stop offset=".5" stop-color="#0079bf"/><stop offset="1" stop-color="#73caee"/></linearGradient><linearGradient id="shape-icon-byou-d" gradientUnits="userSpaceOnUse" x1="802.086" y1="851.18" x2="802.086" y2="776.291" gradientTransform="translate(-231.055 -774.14)"><stop offset=".546" stop-color="#008f30"/><stop offset="1" stop-color="#a6c859"/></linearGradient></defs><symbol id="shape-icon-arrow-d" viewBox="0 0 64 64"><path d="M5.85 14.572l-4.032 3.934 30.219 30.978 30.086-31.109-4.05-3.917L32.02 41.395z"/></symbol><symbol id="shape-icon-arrow-r" viewBox="0 0 64 64"><path d="M16.571 58.092l3.934 4.032 30.978-30.22L20.374 1.818l-3.917 4.05 26.937 26.054z"/></symbol><symbol id="shape-icon-byou" viewBox="323.875 1.167 274.375 76.833"><path fill="url(#shape-icon-byou-a)" d="M500.653 2.028c5.171 0 10.039.985 14.593 2.945 4.547 1.963 8.537 4.649 11.947 8.064 3.411 3.417 6.105 7.399 8.078 11.953 1.954 4.554 2.938 9.424 2.938 14.602 0 5.182-.984 10.051-2.938 14.602-1.973 4.555-4.666 8.519-8.078 11.891-3.41 3.378-7.4 6.048-11.947 8.014-4.553 1.961-9.422 2.942-14.593 2.942-5.185 0-10.052-.981-14.607-2.942-4.556-1.966-8.527-4.635-11.892-8.014-3.378-3.372-6.047-7.336-8.01-11.891-1.964-4.551-2.938-9.42-2.938-14.602 0-5.178.976-10.047 2.938-14.602 1.963-4.554 4.632-8.536 8.01-11.953 3.363-3.416 7.336-6.101 11.892-8.064 4.556-1.96 9.423-2.945 14.607-2.945zm-18.737 37.681c0 2.591.496 5.025 1.483 7.305a18.913 18.913 0 0 0 4.06 6.002 18.987 18.987 0 0 0 6 4.062c2.28.987 4.712 1.476 7.309 1.476 2.586 0 5.021-.486 7.291-1.476a18.935 18.935 0 0 0 6.01-4.062c1.729-1.724 3.073-3.727 4.063-6.002.985-2.279 1.479-4.713 1.479-7.305 0-2.59-.494-5.021-1.479-7.303-.99-2.27-2.334-4.274-4.063-6a18.99 18.99 0 0 0-6.01-4.062c-2.271-.982-4.705-1.475-7.291-1.475-2.598 0-5.028.493-7.309 1.475a19.07 19.07 0 0 0-6 4.062 18.982 18.982 0 0 0-4.06 6c-.988 2.282-1.483 4.714-1.483 7.303z"/><path fill="url(#shape-icon-byou-b)" d="M456.359 4.618c-1.682-1.721-3.902-2.59-6.655-2.59-2.667 0-4.923.791-6.763 2.355-1.85 1.571-2.769 3.849-2.769 6.833v11.421c0 1.256-.26 2.355-.765 3.299-.519.941-1.146 1.727-1.887 2.355a7.703 7.703 0 0 1-2.535 1.413c-.939.314-1.804.473-2.591.473a7.394 7.394 0 0 1-2.579-.473 8.561 8.561 0 0 1-2.479-1.413 7.037 7.037 0 0 1-1.887-2.355c-.469-.944-.705-2.043-.705-3.299V11.215c0-2.982-.921-5.262-2.761-6.833-1.851-1.563-4.104-2.355-6.774-2.355-2.749 0-4.972.869-6.662 2.59-1.685 1.728-2.523 3.928-2.523 6.598v11.421c0 3.14.595 6.283 1.76 9.424a26.381 26.381 0 0 0 5.129 8.413c2.232 2.472 4.989 4.5 8.244 6.067.63.306 1.278.571 1.941.819v20.49c0 2.67.862 4.869 2.593 6.598 1.729 1.728 3.924 2.592 6.597 2.592 2.734 0 5.024-.864 6.818-2.592 1.817-1.729 2.715-3.928 2.715-6.598V47.316a21.08 21.08 0 0 0 1.816-.775c3.265-1.568 6.036-3.598 8.3-6.067a25.192 25.192 0 0 0 5.185-8.413c1.188-3.141 1.772-6.284 1.772-9.424V11.215c.002-2.67-.85-4.87-2.535-6.597z"/><path fill="url(#shape-icon-byou-c)" d="M383.217 46.665a27.642 27.642 0 0 0-2.703-5.341c-1.089-1.644-2.298-3.09-3.646-4.342-1.348-1.249-2.648-2.271-3.903-3.052 1.165-1.486 2.243-3.229 3.229-5.229.987-1.989 1.479-4.356 1.479-7.1 0-3.595-.807-6.646-2.423-9.153a18.789 18.789 0 0 0-6.271-6.049c-2.567-1.525-5.44-2.641-8.625-3.342A44.707 44.707 0 0 0 350.707 2h-15.65c-2.974 0-5.441.843-7.413 2.523-1.986 1.687-3.021 3.775-3.108 6.284v58.224c0 2.428 1.021 4.363 3.04 5.81 2.02 1.453 4.509 2.171 7.481 2.171h15.65c3.229 0 6.784-.33 10.659-.998a35.66 35.66 0 0 0 10.925-3.75 25.593 25.593 0 0 0 8.559-7.457c2.3-3.131 3.444-7.162 3.444-12.094 0-2.111-.36-4.129-1.077-6.048zm-40.341-30.671h11.621c.81 0 1.523.168 2.132.494a5.385 5.385 0 0 1 1.514 1.217 4.89 4.89 0 0 1 .91 1.633c.2.612.312 1.166.312 1.671 0 .561-.112 1.115-.312 1.678a5.525 5.525 0 0 1-.91 1.592 4.413 4.413 0 0 1-1.514 1.217c-.605.302-1.322.454-2.132.454h-11.621v-9.956zm21.223 37.645a8.752 8.752 0 0 1-1.409 2.473 6.954 6.954 0 0 1-2.355 1.885c-.943.473-2.042.709-3.299.709h-13.811v-15.43h13.811c1.257 0 2.354.254 3.299.765.939.511 1.727 1.14 2.355 1.884a7.66 7.66 0 0 1 1.409 2.53c.314.944.474 1.806.474 2.59a7.597 7.597 0 0 1-.474 2.594z"/><path fill="#0079BF" d="M398.887 76.973c-1.337 0-2.604-.229-3.783-.688a10.144 10.144 0 0 1-3.082-1.847 9.127 9.127 0 0 1-2.177-2.76 7.707 7.707 0 0 1-.854-3.527c0-1.627.526-3.176 1.55-4.602a11.06 11.06 0 0 1 1.749-1.886 8.626 8.626 0 0 1-1.369-1.634 9.194 9.194 0 0 1-.985-2.062 6.55 6.55 0 0 1-.394-2.246c0-1.162.258-2.285.795-3.337a8.465 8.465 0 0 1 2.041-2.646 9.878 9.878 0 0 1 2.92-1.729c1.11-.422 2.31-.646 3.589-.646 1.222 0 2.421.225 3.544.646 1.123.43 2.11 1.012 2.938 1.729a8.458 8.458 0 0 1 2.055 2.646 7.366 7.366 0 0 1 .797 3.337 7.158 7.158 0 0 1-.717 3.077c-.448.976-1.122 1.875-1.975 2.659-.854.77-1.896 1.396-3.097 1.869l-.022.002 4.801 3.762 3.39-2.76a2.498 2.498 0 0 1 1.66-.602c1.446 0 2.468.977 2.468 2.371 0 .523-.18 1.024-.539 1.49-.066.1-.158.184-.246.253l-.044.046c0 .006-.024.016-.024.022l-2.762 2.307 2.874 2.354c.023.021.033.029.043.043.54.457.831 1.093.831 1.785 0 1.398-1.012 2.377-2.469 2.377a2.551 2.551 0 0 1-1.659-.598l-3.521-2.828c-.572.438-1.122.826-1.613 1.164-.856.564-1.64 1.024-2.357 1.371-.763.371-1.503.646-2.195.82a9.159 9.159 0 0 1-2.161.268zm-2.65-12.299a5.657 5.657 0 0 0-1.523 1.33c-.519.659-.787 1.357-.787 2.146 0 .543.114 1.041.348 1.506a4.02 4.02 0 0 0 1.001 1.299c.446.386.976.693 1.593.922a5.703 5.703 0 0 0 2.021.344c.763 0 1.595-.248 2.446-.736a24.232 24.232 0 0 0 1.974-1.271l-7.073-5.54zm2.65-12.556c-.674 0-1.29.099-1.854.31a4.125 4.125 0 0 0-1.392.795c-.367.32-.648.687-.863 1.131a3.086 3.086 0 0 0-.304 1.367c0 .5.091.934.282 1.328.202.42.471.771.832 1.086.39.338.872.619 1.434.834.552.209 1.188.326 1.886.348.651 0 1.242-.098 1.773-.301a4.472 4.472 0 0 0 1.389-.805c.358-.312.652-.684.854-1.129.203-.416.313-.863.313-1.361 0-.502-.11-.945-.313-1.367a3.41 3.41 0 0 0-.854-1.133 4.525 4.525 0 0 0-1.389-.802 5.105 5.105 0 0 0-1.794-.301z"/><path fill="#0079BF" d="M398.887 76.973c-1.337 0-2.604-.229-3.783-.688a10.144 10.144 0 0 1-3.082-1.847 9.127 9.127 0 0 1-2.177-2.76 7.707 7.707 0 0 1-.854-3.527c0-1.627.526-3.176 1.55-4.602a11.06 11.06 0 0 1 1.749-1.886 8.626 8.626 0 0 1-1.369-1.634 9.194 9.194 0 0 1-.985-2.062 6.55 6.55 0 0 1-.394-2.246c0-1.162.258-2.285.795-3.337a8.465 8.465 0 0 1 2.041-2.646 9.878 9.878 0 0 1 2.92-1.729c1.11-.422 2.31-.646 3.589-.646 1.222 0 2.421.225 3.544.646 1.123.43 2.11 1.012 2.938 1.729a8.458 8.458 0 0 1 2.055 2.646 7.366 7.366 0 0 1 .797 3.337 7.158 7.158 0 0 1-.717 3.077c-.448.976-1.122 1.875-1.975 2.659-.854.77-1.896 1.396-3.097 1.869l-.022.002 4.801 3.762 3.39-2.76a2.498 2.498 0 0 1 1.66-.602c1.446 0 2.468.977 2.468 2.371 0 .523-.18 1.024-.539 1.49-.066.1-.158.184-.246.253l-.044.046c0 .006-.024.016-.024.022l-2.762 2.307 2.874 2.354c.023.021.033.029.043.043.54.457.831 1.093.831 1.785 0 1.398-1.012 2.377-2.469 2.377a2.551 2.551 0 0 1-1.659-.598l-3.521-2.828c-.572.438-1.122.826-1.613 1.164-.856.564-1.64 1.024-2.357 1.371-.763.371-1.503.646-2.195.82a9.159 9.159 0 0 1-2.161.268zm-2.65-12.299a5.657 5.657 0 0 0-1.523 1.33c-.519.659-.787 1.357-.787 2.146 0 .543.114 1.041.348 1.506a4.02 4.02 0 0 0 1.001 1.299c.446.386.976.693 1.593.922a5.703 5.703 0 0 0 2.021.344c.763 0 1.595-.248 2.446-.736a24.232 24.232 0 0 0 1.974-1.271l-7.073-5.54zm2.65-12.556c-.674 0-1.29.099-1.854.31a4.125 4.125 0 0 0-1.392.795c-.367.32-.648.687-.863 1.131a3.086 3.086 0 0 0-.304 1.367c0 .5.091.934.282 1.328.202.42.471.771.832 1.086.39.338.872.619 1.434.834.552.209 1.188.326 1.886.348.651 0 1.242-.098 1.773-.301a4.472 4.472 0 0 0 1.389-.805c.358-.312.652-.684.854-1.129.203-.416.313-.863.313-1.361 0-.502-.11-.945-.313-1.367a3.41 3.41 0 0 0-.854-1.133 4.525 4.525 0 0 0-1.389-.802 5.105 5.105 0 0 0-1.794-.301z"/><path fill="url(#shape-icon-byou-d)" d="M570.968 58.316c.785 0 1.648-.16 2.591-.476a7.72 7.72 0 0 0 2.535-1.409c.74-.631 1.37-1.416 1.886-2.356.505-.944.764-2.044.764-3.3V11.333c0-2.984.918-5.261 2.771-6.832 1.84-1.564 4.093-2.35 6.766-2.35 2.749 0 4.968.863 6.652 2.585 1.682 1.729 2.533 3.927 2.533 6.597v39.444c0 3.142-.581 6.281-1.773 9.425a25.117 25.117 0 0 1-5.181 8.42c-2.267 2.474-5.037 4.494-8.303 6.063-3.254 1.569-7.001 2.354-11.238 2.354-4.24 0-7.987-.785-11.241-2.354-3.251-1.572-6.015-3.592-8.244-6.063a26.411 26.411 0 0 1-5.127-8.42c-1.168-3.144-1.762-6.283-1.762-9.425V11.333c0-2.67.84-4.868 2.522-6.597 1.694-1.723 3.903-2.585 6.664-2.585 2.669 0 4.923.788 6.772 2.35 1.844 1.571 2.763 3.848 2.763 6.832v39.444c0 1.257.236 2.355.706 3.3a6.95 6.95 0 0 0 1.885 2.354 8.627 8.627 0 0 0 2.479 1.412c.85.313 1.716.473 2.58.473z"/></symbol><symbol id="shape-icon-magnifying-glass" viewBox="0 0 45.008 45.009"><path d="M43.462 35.997l-11.401-11.37a16.874 16.874 0 0 0 1.845-7.676c0-4.528-1.765-8.785-4.966-11.986A16.84 16.84 0 0 0 16.953 0 16.84 16.84 0 0 0 4.966 4.965 16.846 16.846 0 0 0 0 16.952c0 4.528 1.764 8.785 4.966 11.986a16.839 16.839 0 0 0 11.986 4.965c2.714 0 5.325-.646 7.675-1.842l11.371 11.402a5.267 5.267 0 0 0 3.732 1.546 5.278 5.278 0 0 0 3.732-9.012zM9.444 24.459c-2.005-2.006-3.109-4.671-3.109-7.507s1.104-5.502 3.11-7.508c2.005-2.005 4.671-3.11 7.507-3.11s5.502 1.104 7.508 3.11c2.005 2.005 3.11 4.671 3.11 7.507s-1.105 5.502-3.11 7.508a10.552 10.552 0 0 1-7.508 3.109 10.55 10.55 0 0 1-7.508-3.109z"/></symbol><symbol id="shape-icon-sensation" viewBox="42.938 0.562 61 12"><path d="M91.753 4.644a3.788 3.788 0 1 0 .185 7.572c1.93-.087 3.517-1.674 3.606-3.604a3.79 3.79 0 0 0-3.791-3.968zm.011 6.141c-1.271.004-2.303-1.049-2.306-2.348-.002-1.299 1.024-2.354 2.297-2.356 1.271-.002 2.304 1.048 2.306 2.349.001 1.297-1.027 2.353-2.297 2.355zM62.466 6.094c-1.475.002-2.198 1.123-2.196 2.712v3.301h-1.611V8.811c-.006-2.581 1.671-4.161 3.982-4.164 2.293-.006 3.647 1.666 3.647 4.15v3.311h-1.61v-3.31c-.003-1.544-.606-2.708-2.212-2.704zM99.834 6.094c-1.477.002-2.197 1.123-2.195 2.712v3.301h-1.611V8.811c-.006-2.58 1.67-4.16 3.981-4.164 2.294-.006 3.647 1.666 3.647 4.15v3.311h-1.612v-3.31c-.001-1.544-.605-2.708-2.21-2.704zM80.407 8.428a3.79 3.79 0 0 0-3.796-3.779c-2.09.005-3.782 1.821-3.778 3.912.005 2.092 1.701 3.666 3.794 3.662.887-.002 1.895-.445 2.337-1.053v.938l1.443.002V8.428zm-3.782 2.357c-1.247.004-2.262-1.049-2.264-2.346-.004-1.297 1.007-2.353 2.255-2.354 1.245-.003 2.26 1.047 2.264 2.347.001 1.297-1.008 2.351-2.255 2.353zM80.884 2.794v6.433c-.004 2.267 1.457 3.584 4.576 2.738l-.349-1.301c-1.623.539-2.676-.048-2.672-1.771V6.064h2.613V4.759h-2.613V2.794h-1.555zM86.939 3.179a.936.936 0 1 0-1.161-.908.938.938 0 0 0 1.161.908zM87.494 12.107V4.761h-1.555l-.001 7.346zM46.813 10.711c1.43 0 1.956-.941 1.956-1.744 0-2.376-5.553-1.426-5.553-4.979 0-1.678 1.052-3.114 3.578-3.114 1.12 0 2.106.202 3.102.507l-.37 1.505c-1.133-.348-1.906-.506-2.962-.506-1.182 0-1.639.653-1.639 1.288 0 2.523 5.61 1.66 5.61 5.041 0 1.975-1.232 3.514-3.632 3.514-1.151 0-2.587-.214-3.679-.816l.53-1.434c1.162.554 2.074.738 3.059.738zM68.38 6.654c0-.394.302-.717 1.147-.717.754 0 1.521.22 2.179.583l.465-1.266a5.26 5.26 0 0 0-2.463-.61c-1.985 0-2.858 1.05-2.858 2.17 0 2.504 4.229 1.767 4.229 3.138 0 .511-.486.979-1.488.979-.773 0-1.529-.224-2.322-.652l-.5 1.207c.836.508 1.824.736 2.896.736 1.887 0 2.909-1.027 2.909-2.348-.004-2.683-4.194-2.001-4.194-3.22zM58.091 7.271c-.336-1.575-1.674-2.629-3.362-2.626-2.088.005-3.717 1.702-3.714 3.792.004 2.149 1.729 3.785 3.893 3.785 1.081 0 2.194-.347 2.934-1.015l-.735-1.128c-.547.504-1.256.753-2.062.753-1.188 0-2.343-.899-2.509-1.927h4.253c1.329.001 1.551-.458 1.302-1.634zm-1.809.389h-3.704c.316-.92 1.125-1.577 2.152-1.579 1-.001 1.605.521 1.803 1.2.071.246.043.379-.251.379z"/></symbol></svg>