<svg xmlns="http://www.w3.org/2000/svg"><defs><linearGradient id="shape-icon-4g-network-a" gradientUnits="userSpaceOnUse" x1="121.598" y1="-2310.709" x2="173.266" y2="-2310.709" gradientTransform="matrix(1 0 0 -1 0 -2239.243)"><stop offset="0" stop-color="#FFF" stop-opacity="0"/><stop offset=".085" stop-color="#F6FCFD" stop-opacity=".085"/><stop offset=".224" stop-color="#DEF2F8" stop-opacity=".224"/><stop offset=".399" stop-color="#B6E3F0" stop-opacity=".399"/><stop offset=".603" stop-color="#7FCEE5" stop-opacity=".603"/><stop offset=".83" stop-color="#39B3D7" stop-opacity=".83"/><stop offset="1" stop-color="#009DCC"/></linearGradient><linearGradient id="shape-icon-4g-network-b" gradientUnits="userSpaceOnUse" x1="78.893" y1="-2266.48" x2="174.42" y2="-2266.48" gradientTransform="matrix(1 0 0 -1 0 -2239.243)"><stop offset="0" stop-color="#FFF" stop-opacity="0"/><stop offset="1" stop-color="#009DCC"/></linearGradient><linearGradient id="shape-icon-4g-network-c" gradientUnits="userSpaceOnUse" x1="87.946" y1="-2344.367" x2="183.754" y2="-2344.367" gradientTransform="matrix(1 0 0 -1 0 -2239.243)"><stop offset="0" stop-color="#FFF" stop-opacity="0"/><stop offset="1" stop-color="#009DCC"/></linearGradient><linearGradient id="shape-icon-4g-network-d" gradientUnits="userSpaceOnUse" x1="102.466" y1="-2322.329" x2="179.754" y2="-2322.329" gradientTransform="matrix(1 0 0 -1 0 -2239.243)"><stop offset="0" stop-color="#FFF" stop-opacity="0"/><stop offset="1" stop-color="#009DCC"/></linearGradient><linearGradient id="shape-icon-4g-network-e" gradientUnits="userSpaceOnUse" x1="105.38" y1="-2333.392" x2="176.333" y2="-2333.392" gradientTransform="matrix(1 0 0 -1 0 -2239.243)"><stop offset="0" stop-color="#FFF" stop-opacity="0"/><stop offset="1" stop-color="#009DCC"/></linearGradient><linearGradient id="shape-icon-4g-network-f" gradientUnits="userSpaceOnUse" x1="125.992" y1="-2300.138" x2="177.661" y2="-2300.138" gradientTransform="matrix(1 0 0 -1 0 -2239.243)"><stop offset="0" stop-color="#FFF" stop-opacity="0"/><stop offset=".085" stop-color="#F6FCFD" stop-opacity=".085"/><stop offset=".224" stop-color="#DEF2F8" stop-opacity=".224"/><stop offset=".399" stop-color="#B6E3F0" stop-opacity=".399"/><stop offset=".603" stop-color="#7FCEE5" stop-opacity=".603"/><stop offset=".83" stop-color="#39B3D7" stop-opacity=".83"/><stop offset="1" stop-color="#009DCC"/></linearGradient><linearGradient id="shape-icon-4g-network-g" gradientUnits="userSpaceOnUse" x1="122.162" y1="-2278.101" x2="187.684" y2="-2278.101" gradientTransform="matrix(1 0 0 -1 0 -2239.243)"><stop offset="0" stop-color="#FFF" stop-opacity="0"/><stop offset="1" stop-color="#009DCC"/></linearGradient><linearGradient id="shape-icon-4g-network-h" gradientUnits="userSpaceOnUse" x1="136.209" y1="-2289.163" x2="185.395" y2="-2289.163" gradientTransform="matrix(1 0 0 -1 0 -2239.243)"><stop offset="0" stop-color="#FFF" stop-opacity="0"/><stop offset="1" stop-color="#009DCC"/></linearGradient><linearGradient id="shape-icon-4g-network-i" gradientUnits="userSpaceOnUse" x1="108.47" y1="-2255.028" x2="149.34" y2="-2255.028" gradientTransform="matrix(1 0 0 -1 0 -2239.243)"><stop offset="0" stop-color="#FFF" stop-opacity="0"/><stop offset="1" stop-color="#009DCC"/></linearGradient><linearGradient id="shape-icon-4g-network-j" gradientUnits="userSpaceOnUse" x1="107.644" y1="-2244.053" x2="135.551" y2="-2244.053" gradientTransform="matrix(1 0 0 -1 0 -2239.243)"><stop offset="0" stop-color="#FFF" stop-opacity="0"/><stop offset="1" stop-color="#009DCC"/></linearGradient><linearGradient id="shape-icon-4g-network-k" gradientUnits="userSpaceOnUse" x1="78.659" y1="-2355.82" x2="187.472" y2="-2355.82" gradientTransform="matrix(1 0 0 -1 0 -2239.243)"><stop offset="0" stop-color="#FFF" stop-opacity="0"/><stop offset="1" stop-color="#009DCC"/></linearGradient><linearGradient id="shape-icon-4g-network-l" gradientUnits="userSpaceOnUse" x1="98.595" y1="-2366.016" x2="163.856" y2="-2366.016" gradientTransform="matrix(1 0 0 -1 0 -2239.243)"><stop offset="0" stop-color="#FFF" stop-opacity="0"/><stop offset=".018" stop-color="#FAFDFE" stop-opacity=".018"/><stop offset=".388" stop-color="#90D4E9" stop-opacity=".388"/><stop offset=".686" stop-color="#43B7D9" stop-opacity=".686"/><stop offset=".896" stop-color="#13A4D0" stop-opacity=".896"/><stop offset="1" stop-color="#009DCC"/></linearGradient></defs><symbol id="shape-icon-4g-network" viewBox="0 0 187.7 135.2"><path fill="url(#shape-icon-4g-network-a)" d="M169.5 67.7h-44.1c-2.1 0-3.8 1.7-3.8 3.8s1.7 3.8 3.8 3.8h44.1c2.1 0 3.8-1.7 3.8-3.8s-1.7-3.8-3.8-3.8z"/><path fill="url(#shape-icon-4g-network-b)" d="M170.6 23.5h-88c-2.1 0-3.8 1.7-3.8 3.8 0 2.1 1.7 3.8 3.8 3.8h88c2.1 0 3.8-1.7 3.8-3.8 0-2.2-1.7-3.8-3.8-3.8z"/><path fill="url(#shape-icon-4g-network-c)" d="M180 101.3H91.7c-2.1 0-3.8 1.7-3.8 3.8s1.7 3.8 3.8 3.8H180c2.1 0 3.8-1.7 3.8-3.8s-1.7-3.8-3.8-3.8z"/><path fill="url(#shape-icon-4g-network-d)" d="M176 79.3h-69.7c-2.1 0-3.8 1.7-3.8 3.8 0 2.1 1.7 3.8 3.8 3.8H176c2.1 0 3.8-1.7 3.8-3.8 0-2.1-1.7-3.8-3.8-3.8z"/><path fill="url(#shape-icon-4g-network-e)" d="M172.9 90.4h-64c-1.9 0-3.5 1.7-3.5 3.8 0 2.1 1.6 3.8 3.5 3.8h64c1.9 0 3.5-1.7 3.5-3.8-.1-2.1-1.6-3.8-3.5-3.8z"/><path fill="url(#shape-icon-4g-network-f)" d="M173.9 57.1h-44.1c-2.1 0-3.8 1.7-3.8 3.8 0 2.1 1.7 3.8 3.8 3.8h44.1c2.1 0 3.8-1.7 3.8-3.8 0-2.1-1.7-3.8-3.8-3.8z"/><path fill="url(#shape-icon-4g-network-g)" d="M183.9 35.1h-58c-2.1 0-3.8 1.7-3.8 3.8 0 2.1 1.7 3.8 3.8 3.8h58c2.1 0 3.8-1.7 3.8-3.8 0-2.1-1.7-3.8-3.8-3.8z"/><path fill="url(#shape-icon-4g-network-h)" d="M181.9 46.1h-42.2c-1.9 0-3.5 1.7-3.5 3.8 0 2.1 1.6 3.8 3.5 3.8h42.2c1.9 0 3.5-1.7 3.5-3.8 0-2.1-1.6-3.8-3.5-3.8z"/><g><path fill="url(#shape-icon-4g-network-i)" d="M145.6 12h-33.3c-2.1 0-3.8 1.7-3.8 3.8 0 2.1 1.7 3.8 3.8 3.8h33.3c2.1 0 3.8-1.7 3.8-3.8-.1-2.1-1.8-3.8-3.8-3.8z"/></g><g><path fill="url(#shape-icon-4g-network-j)" d="M132.1 1h-21c-1.9 0-3.5 1.7-3.5 3.8 0 2.1 1.6 3.8 3.5 3.8h21c1.9 0 3.5-1.7 3.5-3.8 0-2.1-1.6-3.8-3.5-3.8z"/></g><g><path fill="#0055A4" d="M0 88.1l1.2-9.2 42.1-48.5c.3-.4.8-.7 1.7-.7h6.4c1 0 1.8.9 1.6 2.1L46.5 79h7.9c1.1 0 1.8.9 1.7 2l-1 6.9c-.2 1.1-1.2 2.1-2.3 2.1h-7.9L43 104.2c-.2 1.1-1.2 2.1-2.2 2.1h-9.6c-1 0-1.8-1-1.7-2.1l2-14H1.6c-1.1 0-1.8-1-1.6-2.1zm33.5-9.4l3.9-24.5-21.2 24.5h17.3z"/><path class="st10" d="M99.3 27.6c10 0 17.4 3.9 23.1 10.5.7.9.6 2.2-.4 3.1l-5.9 5.8c-1.3 1-2.7 1-3.7 0-2.9-2.8-7-5.5-13.9-5.5-13.3 0-24.8 13.7-24.8 29.6 0 11.7 7.4 21.9 17.2 21.9 5.2 0 9.2-1.3 11.3-2.7l1.3-9.8h-7.1c-1.1 0-1.8-.9-1.7-2l1.2-8.6c.2-1.2 1.1-2.1 2.2-2.1h19.6c1 0 1.7 1 1.6 2.1l-3.7 26.6c-.2 1.8-1 2.8-1.8 3.4-1.1.9-9.9 7.4-24.8 7.4-17.9.1-31-15.3-31-34.4 0-26 18.2-45.3 41.3-45.3z"/></g><g><path fill="#0055A4" d="M131.8 60.8h-11.3c-.8 0-1.3-.8-1.2-1.7l.9-6.2c.1-.9.9-1.7 1.7-1.7h11.3l1.9-13.1c.1-.9 1-1.6 1.8-1.6h6.9c.8 0 1.3.7 1.2 1.6l-2 13.1h11.3c.8 0 1.3.8 1.2 1.7l-.9 6.2c-.1.9-.9 1.7-1.7 1.7h-11.3l-1.8 13c-.2.9-1 1.6-1.8 1.6h-6.9c-.8 0-1.4-.7-1.2-1.6l1.9-13z"/></g><g><path fill="url(#shape-icon-4g-network-k)" d="M183.7 112.8H82.4c-2.1 0-3.8 1.7-3.8 3.8 0 2.1 1.7 3.8 3.8 3.8h101.2c2.1 0 3.8-1.7 3.8-3.8.1-2.1-1.6-3.8-3.7-3.8z"/></g><g><path fill="url(#shape-icon-4g-network-l)" d="M159.9 122.9h-57.4c-2.2 0-3.9 1.8-3.9 3.9 0 2.2 1.8 3.9 3.9 3.9h57.4c2.2 0 3.9-1.8 3.9-3.9.1-2.2-1.7-3.9-3.9-3.9z"/></g><path fill="none" d="M0 0h187.7v135.2H0z"/></symbol><symbol id="shape-icon-4g-plus" viewBox="0 0 200 145"><path d="M170.718 51.485l2.386-16.697c.114-1.135 1.25-2.043 2.272-2.043h8.747c1.02 0 1.702.908 1.59 2.043l-2.385 16.697h14.426c1.02 0 1.702 1.022 1.59 2.16l-1.14 7.95c-.11 1.136-1.133 2.158-2.155 2.158h-14.427l-2.27 16.583c-.228 1.137-1.252 2.046-2.273 2.046h-8.747c-1.02 0-1.816-.91-1.587-2.046l2.27-16.583H154.59c-1.02 0-1.702-1.022-1.59-2.158l1.136-7.95c.115-1.138 1.137-2.16 2.16-2.16M.7 97.65l1.555-11.738 53.75-61.958c.424-.567.99-.848 2.122-.848h8.204c1.275 0 2.265 1.13 1.982 2.686L59.965 86.05h10.043c1.415 0 2.264 1.132 2.12 2.547l-1.27 8.77c-.142 1.416-1.414 2.69-2.83 2.69H57.986L55.58 118.16c-.28 1.413-1.554 2.688-2.828 2.688H40.445c-1.272 0-2.262-1.274-2.12-2.688l2.545-17.823H2.68c-1.415 0-2.264-1.273-1.98-2.686m42.716-12.023l4.95-31.26-27.016 31.26h22.066z"/><path d="M127.436 20.42c12.73 0 22.206 4.95 29.42 13.437.85 1.132.707 2.83-.566 3.96l-7.495 7.356c-1.697 1.274-3.395 1.274-4.67 0-3.678-3.536-8.91-7.073-17.68-7.073-16.974 0-31.684 17.54-31.684 37.768 0 14.995 9.478 28.008 21.927 28.008 6.646 0 11.74-1.698 14.426-3.396l1.697-12.447h-9.053c-1.413 0-2.263-1.132-2.12-2.548l1.555-11.032c.28-1.555 1.413-2.688 2.83-2.688h25.036c1.273 0 2.12 1.273 1.98 2.688l-4.67 33.948c-.28 2.266-1.27 3.538-2.26 4.386-1.416 1.132-12.59 9.477-31.686 9.477-23.056 0-39.748-19.66-39.748-43.99 0-33.242 23.198-57.854 52.762-57.854"/></symbol><symbol id="shape-icon-4g" viewBox="0 0 200 145"><path d="M3.674 104.762l1.95-14.708L72.97 12.426c.53-.71 1.24-1.062 2.657-1.062h10.28c1.595 0 2.835 1.417 2.482 3.366l-10.46 75.5h12.586c1.77 0 2.834 1.417 2.656 3.19l-1.594 10.986c-.18 1.774-1.772 3.37-3.545 3.37H75.45l-3.013 22.685c-.354 1.77-1.95 3.37-3.544 3.37h-15.42c-1.594 0-2.834-1.6-2.657-3.37l3.19-22.332H6.156c-1.773 0-2.837-1.593-2.482-3.366m53.52-15.064L63.4 50.53 29.548 89.7h27.647zM162.47 7.997c15.946 0 27.82 6.204 36.86 16.836 1.062 1.42.886 3.546-.71 4.963l-9.394 9.215c-2.127 1.596-4.25 1.596-5.85 0-4.606-4.43-11.166-8.862-22.153-8.862-21.266 0-39.696 21.977-39.696 47.32 0 18.785 11.874 35.09 27.47 35.09 8.332 0 14.71-2.126 18.078-4.253l2.128-15.595h-11.346c-1.773 0-2.834-1.417-2.655-3.19l1.948-13.823c.354-1.95 1.77-3.368 3.542-3.368h31.372c1.596 0 2.657 1.593 2.48 3.367l-5.85 42.534c-.354 2.835-1.596 4.432-2.834 5.494-1.775 1.417-15.773 11.875-39.7 11.875-28.888 0-49.8-24.636-49.8-55.12 0-41.647 29.065-72.483 66.11-72.483"/></symbol><symbol id="shape-icon-arobase" viewBox="-1427 1429 25 24"><style>.st0{fill:#0065A6;}</style><g id="Page-1"><path id="icon-internet" class="st0" d="M-1411.6 1440c-.1.5-.3 1-.5 1.6-.2.5-.4 1-.7 1.5-.3.5-.5.8-.8 1.1-.4.4-.9.8-1.3 1-.4.3-.9.4-1.4.4-.7 0-1.3-.2-1.7-.7-.4-.5-.6-1.1-.6-1.9 0-1 .2-2 .6-3 .4-1 1-1.9 1.7-2.5.8-.7 1.6-1 2.6-1 .5 0 1 .2 1.5.7.4.5.7 1 .7 1.6 0 .3 0 .7-.1 1.2m-12 9.7c1.1 1 2.4 1.8 3.9 2.4 1.5.6 3.1.8 4.9.8 2.2 0 4.3-.5 6.4-1.4 2-1 3.6-2.3 4.9-4h-2.8c-1 1-2.2 1.9-3.6 2.5-1.5.6-3 .9-4.6.9-1.3 0-2.6-.2-3.8-.7-1.2-.5-2.3-1.1-3.2-2-.9-.9-1.6-1.9-2.1-3-.5-1.2-.8-2.4-.8-3.7 0-1.4.3-2.7.8-4 .6-1.3 1.3-2.4 2.3-3.4 1-1 2.2-1.8 3.5-2.3 1.3-.6 2.7-.8 4.2-.8 1.2 0 2.3.2 3.4.5 1.1.4 2 .9 2.8 1.5.8.7 1.4 1.5 1.9 2.4.5.9.7 2 .7 3.2v.6c0 .8-.2 1.7-.5 2.4-.3.8-.7 1.5-1.1 2.1-.4.6-.9 1.1-1.4 1.4-.5.3-1 .5-1.5.5s-.8-.2-.8-.5c0-.6.1-1 .2-1.5l1.5-5c.6-2 .9-3.1 1-3.3l.1-.4s-.3 0-1-.1h-1l-.7 1.4c-.4-.7-.8-1.2-1.4-1.5-.6-.3-1.3-.5-2-.5-2 0-3.7.7-5.1 2.1-.9.8-1.6 1.9-2.1 3.1-.5 1.2-.8 2.5-.8 3.8 0 1.4.4 2.5 1.2 3.4.8.9 1.9 1.3 3.3 1.3.8 0 1.6-.2 2.2-.5.6-.3 1.2-.8 1.8-1.4h.1c0 .6.3 1.1.7 1.4.4.4.9.5 1.6.5.8 0 1.6-.2 2.5-.6.9-.4 1.8-1 2.7-1.7.9-.8 1.6-1.7 2.1-2.8.6-1.1.9-2.4 1-3.8v-.6c0-1.4-.3-2.7-.9-3.8-.6-1.2-1.4-2.2-2.4-3-1-.8-2.2-1.5-3.5-1.9-1.3-.4-2.8-.7-4.2-.7-1.9 0-3.6.3-5.3 1-1.7.7-3.1 1.6-4.4 2.7-1.3 1.2-2.2 2.5-2.9 4.1-.7 1.5-1 3.1-1 4.8 0 1.6.3 3.1.9 4.5.4 1.4 1.2 2.6 2.3 3.6"/></g></symbol><symbol id="shape-icon-arrow-d" viewBox="0 0 64 64"><path d="M5.85 14.572l-4.032 3.934 30.22 30.978 30.085-31.11-4.05-3.916L32.02 41.395"/></symbol><symbol id="shape-icon-close" viewBox="0 0 16 16"><path d="M9.207 8.5l2.768-2.768c.195-.195.195-.512 0-.707-.195-.195-.512-.195-.707 0L8.5 7.793 5.732 5.025c-.195-.195-.512-.195-.707 0-.195.195-.195.512 0 .707L7.793 8.5l-2.768 2.768c-.195.195-.195.512 0 .707.195.195.512.195.707 0L8.5 9.207l2.768 2.768c.195.195.512.195.707 0s.195-.512 0-.707L9.207 8.5z"/></symbol><symbol id="shape-icon-cloud" viewBox="0 0 37 26"><title>icon-cloud@1x</title><path d="M33.557 12.257c.355-.95.545-1.975.545-3.05 0-4.843-3.926-8.775-8.776-8.775-3.037 0-5.71 1.542-7.29 3.89-1.003-.913-2.33-1.47-3.8-1.47-3.134 0-5.673 2.54-5.673 5.673 0 .193.01.38.026.565-.25-.026-.504-.038-.764-.038-4.12 0-7.463 3.342-7.463 7.463 0 4.12 3.342 7.462 7.463 7.462.807 0 1.592-.132 2.32-.368 2.098 1.447 5.178 2.364 8.616 2.364 2.994 0 5.728-.7 7.77-1.842.878.405 1.86.634 2.896.634 3.832 0 6.937-3.107 6.937-6.94 0-2.28-1.105-4.306-2.808-5.57zm-8.685 7.185c.02 0 .043-.013.064-.017.188-.04.396-.254.738-.673l.345-.413v-.002c.904-1.062 3.207-3.757 3.402-3.953.123-.128.097-.363-.095-.363h-1.624c-.36 0-.517-.23-.517-.405V10.58c0-.223-.12-.462-.348-.506-.023-.006-.04-.018-.067-.018H23c-.392 0-.496.238-.496.553v2.943c0 .384-.195.47-.425.47h-1.59c-.218 0-.3.193-.113.38.063.062.47.53.992 1.14 1.03 1.193 2.52 2.936 2.802 3.295.314.4.502.604.7.604zm-10.07-9.385c-.02 0-.043.01-.064.016-.188.04-.396.256-.738.674-.04.046-.168.2-.346.412h-.002c-.9 1.063-3.205 3.757-3.4 3.953-.122.128-.098.364.095.364h1.624c.363 0 .518.23.518.404v3.038c0 .224.12.463.348.506.023.006.04.018.066.018h3.773c.39 0 .495-.237.495-.552v-2.945c0-.383.195-.468.425-.468h1.59c.217 0 .297-.195.112-.382-.063-.062-.47-.53-.992-1.14-1.03-1.192-2.522-2.936-2.803-3.295-.314-.396-.502-.603-.7-.603z" fill-rule="evenodd"/></symbol><symbol id="shape-icon-customer-service-plus" viewBox="-1423 1431 32 20"><style>.st0{fill:#0065A6;}</style><g id="Page-1"><g id="icon-services_x2B_"><path id="Fill-1" class="st0" d="M-1406.9 1450.6c-2.4 0-4.7-.3-6.8-1-2.1-.7-4.2-1.7-6.4-3.1-1.2-.8-2-1.4-2.3-1.8-.3-.5-.5-1.1-.5-1.8 0-.6.1-.9.4-.9.1 0 .6.2 1.6.7 1 .5 2.1 1 3.5 1.5 1.3.5 2.9 1 4.7 1.4 1.8.4 3.7.6 5.7.6s3.9-.2 5.7-.6c1.8-.4 3.4-.9 4.7-1.4 1.3-.5 2.5-1 3.4-1.5 1-.5 1.5-.7 1.6-.7.3 0 .4.3.4.9 0 .8-.1 1.4-.4 1.9-.3.4-1.1 1-2.3 1.8-1.1.7-2.1 1.3-3.2 1.8-1 .5-2.1.9-3.1 1.3-1 .3-2.1.6-3.3.8-1 0-2.2.1-3.4.1"/><path id="Fill-2" class="st0" d="M-1398 1436.6h-1.6v1.7c0 .4-.3.7-.7.7-.4 0-.7-.3-.7-.7v-1.7h-1.6c-.3 0-.6-.3-.6-.7 0-.4.3-.7.6-.7h1.6v-1.7c0-.4.3-.7.7-.7.4 0 .7.3.7.7v1.7h1.6c.3 0 .6.3.6.7 0 .4-.3.7-.6.7m-2.3-4.8c-2.2 0-4 1.9-4 4.2 0 2.3 1.8 4.2 4 4.2s4-1.9 4-4.2c0-2.3-1.8-4.2-4-4.2"/><path id="Fill-3" class="st0" d="M-1410.8 1436.6h-1.6v1.7c0 .4-.3.7-.7.7-.4 0-.7-.3-.7-.7v-1.7h-1.6c-.3 0-.6-.3-.6-.7 0-.4.3-.7.6-.7h1.6v-1.7c0-.4.3-.7.7-.7.4 0 .7.3.7.7v1.7h1.6c.3 0 .6.3.6.7 0 .4-.3.7-.6.7m-2.4-4.8c-2.2 0-4 1.9-4 4.2 0 2.3 1.8 4.2 4 4.2s4-1.9 4-4.2c0-2.3-1.8-4.2-4-4.2"/></g></g></symbol><symbol id="shape-icon-email" viewBox="0 0 26 18"><title>icon-email@1x</title><path d="M18.12 9.002l5.807-4.398.06 8.797-5.866-4.398zm5.73 6.8c-.016.02-.035.036-.054.054-.013.007-.023.018-.036.027-.02.015-.042.03-.064.042-.013.006-.026.015-.038.02l-.08.03c-.017 0-.027.005-.04.01-.04.007-.08.015-.126.015L2.69 15.992c-.044 0-.09-.005-.127-.015-.014-.002-.028-.007-.04-.014-.028-.006-.052-.014-.077-.024-.017-.007-.03-.018-.042-.027-.02-.01-.04-.022-.064-.036-.012-.008-.026-.02-.036-.03l-.055-.05c-.004-.006-.01-.01-.013-.016l7.315-5.53s1.463 1.44 3.47 1.44c2.002.002 3.443-1.44 3.443-1.44l7.394 5.54-.01.012zM2.006 4.6l5.876 4.398-5.81 4.39-.066-8.79zm.145-2.41L2.2 2.15c.017-.013.027-.026.044-.035.02-.014.037-.024.055-.035.016-.01.033-.016.05-.026.02-.01.04-.014.064-.022.017-.003.036-.013.052-.016.03-.005.055-.007.084-.007.013-.003.027-.005.04-.005l20.728.005c.01 0 .025.004.04.005l.08.007c.018.004.037.01.053.015.022.007.045.012.066.022.018.008.03.02.048.025.02.012.04.023.058.037.015.01.027.022.04.03.02.017.052.05.052.05l.013.016-8.274 6.246S14.16 9.55 13.003 9.55c-1.16-.004-2.506-1.094-2.506-1.094L2.14 2.21c.005-.003.007-.01.01-.02zM23.3.008L2.572 0C1.91 0 1.307.25.85.664c-.218.2-.406.433-.545.694-.197.37-.308.788-.305 1.24L.094 15.39c.01 1.436 1.177 2.6 2.608 2.6L23.43 18c.625 0 1.196-.227 1.642-.596.572-.475.934-1.196.928-2.003l-.093-12.795C25.897 1.168 24.73.007 23.3.007z" fill-rule="evenodd"/></symbol><symbol id="shape-icon-film" viewBox="0 0 31 38"><title>icon-film@1x</title><path d="M19.947 35.483l.246-.923 1.64.444-.245.923-1.64-.444zm.476-1.787l.244-.925 1.64.446-.244.923-1.64-.443zm.474-1.787l.245-.93 1.64.445-.246.926-1.64-.442zM1.243 30.424l.246-.926 1.64.442-.247.926-1.64-.444zm20.128-.306l.25-.926 1.637.444-.245.923-1.64-.442zM1.72 28.636l.245-.924 1.64.443-.245.924-1.64-.443zm20.126-.306l.244-.922 1.642.443-.247.926-1.64-.444zM2.193 26.85l.247-.927 1.64.445-.248.924-1.64-.443zm20.127-.308l.248-.923 1.64.44-.248.925-1.64-.444zm-19.65-1.48l.244-.926 1.64.443-.246.924-1.64-.443zm20.126-.31l.246-.924 1.64.445-.244.924-1.642-.444zm-19.652-1.48l.244-.923 1.64.44-.246.926-1.638-.444zm20.127-.306l.246-.925 1.642.446-.247.925-1.64-.443zM3.62 21.484l.246-.924 1.638.444-.245.926-1.64-.446zm20.128-.306l.244-.924 1.64.442-.246.928-1.638-.446zM4.092 19.695l.246-.923 1.638.443-.244.924-1.64-.446zm20.127-.305l.243-.925 1.64.444-.243.924-1.64-.445zm-4.85 10.4L6.175 26.22c-.468-.126-.75-.618-.624-1.09l1.827-6.876c.124-.47.61-.755 1.077-.63l13.198 3.57c.468.127.75.617.625 1.088l-1.83 6.878c-.104.397-.462.66-.852.66-.075 0-.15-.01-.227-.03zM4.567 17.907l.244-.927 1.644.447-.248.923-1.64-.442zm20.127-.305l.244-.926 1.64.443-.243.925-1.642-.443zM5.04 16.12l.247-.926 1.638.446-.245.923-1.64-.442zm20.13-.306l.244-.926 1.64.445-.245.924-1.64-.443zm-19.655-1.48l.247-.927 1.64.444-.246.928-1.64-.443zm20.128-.307l.247-.926 1.64.444-.246.926-1.64-.443zm-19.65-1.484l.244-.925 1.64.444-.246.926-1.637-.445zm20.125-.306l.246-.924 1.64.443-.246.926-1.64-.445zM6.463 10.754l.25-.924 1.638.443-.244.927-1.642-.446zm20.13-.306l.246-.924 1.64.443-.25.927-1.64-.446zM6.94 8.965l.246-.92 1.64.44-.245.924-1.64-.446zm20.13-.304l.245-.922 1.64.443-.247.924-1.638-.442zm-4.95 10.773l-13.197-3.57c-.468-.126-.748-.615-.624-1.087L10.123 7.9c.125-.474.61-.758 1.08-.63l13.198 3.57c.467.125.748.616.623 1.09L23.2 18.8c-.104.397-.465.66-.854.66-.075 0-.15-.01-.225-.03zM7.417 7.178l.244-.925 1.64.445-.244.924-1.64-.444zm20.125-.304l.25-.925 1.64.44-.246.927-1.643-.444zM7.89 5.392l.245-.926 1.64.444-.246.925-1.64-.443zm.474-1.79l.246-.925 1.64.444-.246.927-1.64-.445zm.475-1.787l.244-.927 1.64.446-.247.924-1.64-.444zM8.23 0L0 31.002v.042l3.714 1.003.913-3.436c.125-.47.61-.755 1.08-.627l13.197 3.568c.467.13.75.62.624 1.09l-.912 3.438 3.58.97h.153l8.235-31.03-3.722-1.008-.916 3.437c-.122.474-.61.754-1.078.628L11.67 5.507c-.468-.128-.748-.618-.623-1.09L11.96.98 8.344 0H8.23z" fill-rule="evenodd"/></symbol><symbol id="shape-icon-music" viewBox="0 0 26 32"><title>icon-music@1x</title><path d="M25.168 4.11c.014-.447 0-.83-.026-1.187L25.13 2.3c-.017.007-.033.015-.048.02C24.61-.844 22.447.146 22.447.146l-12 5.084c-2.053.687-2.553 3.177-2.676 4.286l-.037.022v15.076l.028.03c-1.172-.548-2.914-.46-4.59.372C1.42 25.89.234 27.313 0 28.64v.915c.035.18.09.356.17.524.765 1.59 3.346 1.91 5.77.71 2.017-1 3.283-2.738 3.204-4.21l.028.03V11.06l14.6-6.345.24 10.353c-1.17-.5-2.866-.394-4.5.415-2.42 1.2-3.765 3.46-2.998 5.063.763 1.59 3.34 1.91 5.76.708 1.774-.876 2.964-2.328 3.173-3.667l-.28-13.48" fill-rule="evenodd"/></symbol><symbol id="shape-icon-priority-internet" viewBox="-1423 1426 32 30"><style>.st0{fill:#0065A6;}</style><g id="Page-1"><g id="icon-internet-prize"><path id="Fill-1" class="st0" d="M-1404.3 1437.6c-.2-.1-.6-.2-1.2-.2-2.1 0-3.8 2-3.8 4.3 0 1.1.5 1.8 1.6 1.8 1.4 0 2.7-1.8 2.9-3.3l.5-2.6zm1.4 10.4c-1.3.7-2.7 1-4.3 1-3.9 0-7.3-2.9-7.3-7.5 0-5 3.4-9.3 8.8-9.3 4.2 0 7 2.9 7 7 0 3.6-2 5.7-4.3 5.7-1 0-1.8-.6-1.8-2.1h-.1c-.8 1.4-1.9 2.1-3.4 2.1-1.4 0-2.6-1.1-2.6-3 0-3 2.4-5.7 5.7-5.7 1 0 1.9.2 2.6.5l-.8 4.4c-.4 1.8-.1 2.7.7 2.7 1.2 0 2.6-1.6 2.6-4.4 0-3.5-2.1-6-5.8-6-3.9 0-7.2 3.1-7.2 8 0 4 2.6 6.5 6.2 6.5 1.4 0 2.6-.3 3.6-.8l.4.9z"/><path id="Fill-2" class="st0" d="M-1417 1449.7c-2.4.2-3.4-1.4-4.6-2.9 2.2.3 3.8 1.3 4.6 2.9"/><path id="Fill-3" class="st0" d="M-1396.6 1449.7c1-2 2.8-2.4 4.7-3-1.3 1.6-2.3 3.2-4.7 3"/><path id="Fill-4" class="st0" d="M-1399.4 1452.3c1.5-1.6 3.4-1.4 5.3-1.6-1.8 1.7-3.9 2.3-5.3 1.6"/><path id="Fill-5" class="st0" d="M-1414.1 1452.3c-2.3.8-3.8-.4-5.5-1.6 2 .1 3.9 0 5.5 1.6"/><path id="Fill-6" class="st0" d="M-1422.5 1442.4c1.6.9 3.1 1.7 3.5 3.7-1.6.4-2.9-1.6-3.5-3.7"/><path id="Fill-7" class="st0" d="M-1394.5 1446.2c.3-1.7 1.2-2.7 3.4-3.7-.3 1.9-1.8 3.6-3.4 3.7"/><path id="Fill-8" class="st0" d="M-1397.3 1453.9c-1.8.6-3.6 1.3-5.6 0 1.9-1 3.8-.3 5.6 0"/><path id="Fill-9" class="st0" d="M-1410.5 1453.9c-1.9 1.4-3.8.7-5.6.1 1.8-.5 3.6-1.1 5.6-.1"/><path id="Fill-10" class="st0" d="M-1393.5 1442.5c-.2-2.1.9-3.2 2.3-4.4-.3 1.8-.3 3.6-2.3 4.4"/><path id="Fill-11" class="st0" d="M-1422.4 1438.1c1.4 1.2 2.6 2.4 2.3 4.4-2-.8-2-2.6-2.3-4.4"/><path id="Fill-12" class="st0" d="M-1392.4 1434.2c.4 2.5.2 3.6-1 4.4-.8-1.1-.4-2.7 1-4.4"/><path id="Fill-13" class="st0" d="M-1421.2 1434.2c1.4 1.5 1.8 3.2 1.1 4.5-1.7-1.2-1.2-2.9-1.1-4.5"/><path id="Fill-14" class="st0" d="M-1406.4 1454.2c2-.2 3.5.9 5.2 1.7-1.8.4-4.1-.4-5.2-1.7"/><path id="Fill-15" class="st0" d="M-1407.2 1454.2c-.9 1.3-2.9 1.9-5.2 1.7 1.6-.9 3.1-1.9 5.2-1.7"/><path id="Fill-16" class="st0" d="M-1396.6 1448.8c-.5-1.2-.5-1.2.3-4.7 1 1.4.9 4-.3 4.7"/><path id="Fill-17" class="st0" d="M-1417.3 1443.9c.2 1.7 1.1 3.2.3 4.8-1.2-.5-1.3-2.9-.3-4.8"/><path id="Fill-18" class="st0" d="M-1419.1 1430.9c.9 1.4.8 3.1-.1 4.2-1.1-.7-.7-2.6.1-4.2"/><path id="Fill-19" class="st0" d="M-1394.5 1430.8c1 2.5 1.1 3.3.2 4.3-1-1-1.1-2.5-.2-4.3"/><path id="Fill-20" class="st0" d="M-1415.9 1447c.7 1.6 1.9 2.8 1.6 4.5-1.4-.4-2-2-1.6-4.5"/><path id="Fill-21" class="st0" d="M-1394.8 1445.5c-1.2-1.4-.8-3.1-1-4.7 1.4 1.2 1.9 3.2 1 4.7"/><path id="Fill-22" class="st0" d="M-1399.2 1451.5c-.4-1.8.9-3 1.5-4.4.5 2.1-.1 3.9-1.5 4.4"/><path id="Fill-23" class="st0" d="M-1418.8 1445.4c-.8-1.4-.5-3 .9-4.6.3 1.7-.1 3.6-.9 4.6"/><path id="Fill-24" class="st0" d="M-1411.1 1453.3c-1.5-.1-2.5-1.4-2.6-3.6 1 1.1 2.5 1.8 2.6 3.6"/><path id="Fill-25" class="st0" d="M-1400 1449.8c0 2-1 3.4-2.5 3.5.1-1.8 1.6-2.4 2.5-3.5"/><path id="Fill-26" class="st0" d="M-1395.9 1432.2c-1.2-.8-1.8-2.4-1.3-3.9.8 1.2 2 2.2 1.3 3.9"/><path id="Fill-27" class="st0" d="M-1416.3 1428.4c.5 1.5-.1 3-1.2 3.8-.9-.9-.2-2.5 1.2-3.8"/><path id="Fill-28" class="st0" d="M-1396.1 1437.4c1.5 1.2 2.6 2.4 2.3 4.4-1.5-1.1-1.6-2.8-2.3-4.4"/><path id="Fill-29" class="st0" d="M-1417.6 1437.6c-.5 1.5-.7 3.1-2.1 4.2-.4-2 .7-3.2 2.1-4.2"/><path id="Fill-30" class="st0" d="M-1407.7 1453.8c-1.6.2-2.6-.5-3.3-2.4 1.2.7 2.8.8 3.3 2.4"/><path id="Fill-31" class="st0" d="M-1405.9 1453.8c.5-1.7 2.1-1.7 3.3-2.4-.6 1.8-1.7 2.6-3.3 2.4"/><path id="Fill-32" class="st0" d="M-1394.1 1438.1c-1.5-.7-2-2.1-3-3.3 1.7.3 3.1 1.8 3 3.3"/><path id="Fill-33" class="st0" d="M-1413 1426.7c-.1 1.5-.7 2.5-2.1 3.1-.6-.9.3-2.1 2.1-3.1"/><path id="Fill-34" class="st0" d="M-1400.6 1426.7c1.7.9 2.6 2 2.2 3.1-1.5-.5-2-1.6-2.2-3.1"/><path id="Fill-35" class="st0" d="M-1419.5 1438.1c-.2-1.4 1.5-3.1 3-3.3-1 1.2-1.6 2.6-3 3.3"/><path id="Fill-36" class="st0" d="M-1395.1 1434.7c-1.6-.3-2.5-1.5-3.7-2.3 1.5-.2 3.3.9 3.7 2.3"/><path id="Fill-37" class="st0" d="M-1414.8 1432.4c-1.2.8-2.1 2.1-3.6 2.4.2-1.4 1.5-2.3 3.6-2.4"/><path id="Fill-38" class="st0" d="M-1397 1432.2c-1.3-.4-2.6-.9-4-1.4 1.8-.5 3.5 0 4.1 1.1 0 .1 0 .2-.1.3"/><path id="Fill-39" class="st0" d="M-1412.4 1428.4c.3-1.7 1.7-1.7 2.9-2.2-.6 1.3-1.5 2.1-2.9 2.2"/><path id="Fill-40" class="st0" d="M-1404 1426.2c1.2.5 2.6.5 2.9 2-1.2.3-2.2-.5-2.9-2"/><path id="Fill-41" class="st0" d="M-1416.8 1432c.6-1.2 2.1-1.6 4.1-1.3-1.4.5-2.6 1.4-4.1 1.3"/><path id="Fill-42" class="st0" d="M-1410.4 1429.8c-1.3.1-2.6.1-3.9.2v-.3c1.3-.9 2.6-.6 3.9-.1v.2"/><path id="Fill-43" class="st0" d="M-1399.3 1430c-1.3-.1-2.6-.1-4-.2 1.2-.9 3.1-.9 4 0v.2"/></g></g></symbol><symbol id="shape-icon-tv" viewBox="0 0 32 25"><title>icon-tv@1x</title><path d="M29.46 20.407H1.594c.003-2.624.007-16.165.01-18.795H29.47c-.004 2.63-.01 16.17-.01 18.795M29.946 0H1.124C.51 0 .01.507.01 1.128L0 20.89c0 .627.5 1.133 1.115 1.133h10.56c-1.82.277-3.623.722-5.373 1.39-.456.173-.684.662-.512 1.074.17.41.65.6 1.073.438 5.587-2.13 11.75-2.13 17.335 0 .425.16.902-.027 1.075-.438.17-.412-.057-.9-.514-1.074-1.75-.668-3.55-1.113-5.377-1.39h10.552c.615 0 1.113-.506 1.113-1.132l.01-19.76c0-.62-.5-1.13-1.113-1.13M3.557 17.746h23.948c.12 0 .22-.102.22-.225V3.562c0-.124-.1-.224-.22-.224H3.557c-.122 0-.218.1-.218.224V17.52c0 .123.094.225.216.225m24.006.928h-.903c-.088 0-.16.074-.16.164v.458c0 .09.072.16.16.16h.902c.088 0 .16-.07.16-.16v-.458c0-.09-.072-.164-.16-.164m-1.587 0h-.905c-.088 0-.157.074-.16.164v.458c.003.09.072.16.16.16h.906c.087 0 .158-.07.158-.16v-.458c0-.09-.07-.164-.158-.164" fill-rule="evenodd"/></symbol><symbol id="shape-icon-wonder" viewBox="-1456.1 1391.7 43.6 43.8"><style>.st1{display:none;}</style><g id="Calque_1"><g id="Page-1"><g id="icon-question"><path id="Fill-1" class="st0" d="M-1429.9 1415.5c2.4-1.2 4.1-3.2 4.1-6.5v-.1c0-4.3-3-7.1-7.5-7.5h-2.3c-2.8.2-4.9 1.4-6.6 3-.5.4-.7 1-.7 1.6 0 1.1.9 2 2.1 2 .5 0 1-.2 1.4-.5 1.5-1.3 3.1-2 5-2 2.6 0 4.2 1.4 4.2 3.5v.1c0 2.3-1.9 3.7-5.4 4-1 .1-1.6.9-1.4 1.9l.4 3.2c.1.9.7 1.5 1.6 1.5h.2c.8 0 1.4-.7 1.6-1.5l.1-1.7c1-.2 2.2-.5 3.2-1zm-4.5 7.1c-.3-.1-.5-.1-.8-.1-1.5 0-2.6 1.1-2.6 2.6v.4c0 .6.2 1.2.6 1.6.5.6 1.2.9 2 .9 1.5 0 2.6-1.1 2.6-2.6v-.4c0-1.2-.7-2.1-1.8-2.4z"/></g></g><path class="st0" d="M-1434.3 1392c-11.9 0-21.6 9.7-21.6 21.6s9.7 21.6 21.6 21.6 21.6-9.7 21.6-21.6-9.7-21.6-21.6-21.6zm0 39.1c-9.7 0-17.5-7.8-17.5-17.5s7.8-17.5 17.5-17.5 17.5 7.8 17.5 17.5-7.8 17.5-17.5 17.5z"/></g></symbol></svg>