<svg xmlns="http://www.w3.org/2000/svg" xmlns:xlink="http://www.w3.org/1999/xlink"><defs><linearGradient id="shape-icon-forfait-byou-two-a" gradientUnits="userSpaceOnUse" x1="698.748" y1="-568.636" x2="698.748" y2="-493.623" gradientTransform="matrix(1 0 0 -1 -233.04 -491.596)"><stop offset=".5" stop-color="#008356"/><stop offset="1" stop-color="#00AAA0"/></linearGradient><linearGradient id="shape-icon-forfait-byou-two-b" gradientUnits="userSpaceOnUse" x1="630.5" y1="-568.634" x2="630.5" y2="-493.623" gradientTransform="matrix(1 0 0 -1 -233.04 -491.596)"><stop offset=".178" stop-color="#007B9B"/><stop offset="1" stop-color="#37BDE9"/></linearGradient><linearGradient id="shape-icon-forfait-byou-two-c" gradientUnits="userSpaceOnUse" x1="552.455" y1="-568.607" x2="552.455" y2="-493.596" gradientTransform="matrix(1 0 0 -1 -233.04 -491.596)"><stop offset=".5" stop-color="#0079BF"/><stop offset="1" stop-color="#73CAEE"/></linearGradient><linearGradient id="shape-icon-forfait-byou-two-d" gradientUnits="userSpaceOnUse" x1="769.072" y1="-568.634" x2="769.072" y2="-493.747" gradientTransform="matrix(1 0 0 -1 -233.04 -491.596)"><stop offset=".546" stop-color="#008F30"/><stop offset="1" stop-color="#A6C859"/></linearGradient><linearGradient id="shape-icon-forfait-byou-a" gradientUnits="userSpaceOnUse" x1="756.709" y1="-247.54" x2="756.709" y2="-172.528" gradientTransform="matrix(1 0 0 -1 -256 -170.5)"><stop offset=".5" stop-color="#008356"/><stop offset="1" stop-color="#00AAA0"/></linearGradient><linearGradient id="shape-icon-forfait-byou-b" gradientUnits="userSpaceOnUse" x1="688.461" y1="-247.54" x2="688.461" y2="-172.528" gradientTransform="matrix(1 0 0 -1 -256 -170.5)"><stop offset=".178" stop-color="#007B9B"/><stop offset="1" stop-color="#37BDE9"/></linearGradient><linearGradient id="shape-icon-forfait-byou-c" gradientUnits="userSpaceOnUse" x1="610.415" y1="-247.511" x2="610.415" y2="-172.5" gradientTransform="matrix(1 0 0 -1 -256 -170.5)"><stop offset=".5" stop-color="#0079BF"/><stop offset="1" stop-color="#73CAEE"/></linearGradient><linearGradient id="shape-icon-forfait-byou-d" gradientUnits="userSpaceOnUse" x1="827.031" y1="-247.54" x2="827.031" y2="-172.65" gradientTransform="matrix(1 0 0 -1 -256 -170.5)"><stop offset=".546" stop-color="#008F30"/><stop offset="1" stop-color="#A6C859"/></linearGradient><path id="shape-icon-map-pin-a" d="M0-.003h1459.02V2689.76H0z"/><clipPath id="shape-icon-map-pin-b"><use xlink:href="#shape-icon-map-pin-a" overflow="visible"/></clipPath></defs><symbol id="shape-icon-add" viewBox="0 0 24 24"><path d="M18 10h-4V6c0-1.104-.896-2-2-2s-2 .896-2 2l.07 4H6c-1.104 0-2 .896-2 2s.896 2 2 2l4.07-.07L10 18c0 1.104.896 2 2 2s2-.896 2-2v-4.07l4 .07c1.104 0 2-.896 2-2s-.896-2-2-2z"/></symbol><symbol id="shape-icon-cancel" viewBox="0 0 512 512"><path d="M479.8 131.01L376.026 27.164 256 147.19 136.012 27.164 32.202 131.01l120.026 119.952L32.2 370.987l103.812 103.848L256 354.808l120.026 120.027L479.8 370.987 359.81 250.962 479.8 131.01z"/></symbol><symbol id="shape-icon-check" viewBox="0 0 512 512"><path d="M432 64L192 304 80 192 0 272l192 192 320-320-80-80z"/></symbol><symbol id="shape-icon-colissimo" viewBox="0 0 203 128"><title>colissimo</title><path fill="#EA7400" d="M.697 119.107V9.557C1.683 5.212 3.72 1.807 8.49.847h187.013c.99.38 2.038.648 2.954 1.156 3.645 2.027 4.243 5.51 4.243 9.234.003 35.504.006 71.01-.017 106.514 0 1.518-.123 3.06-.406 4.547-.57 3.002-2.463 4.62-5.512 4.88-.834.072-1.68.044-2.52.044-61.54.003-123.082.003-184.624 0-.686 0-1.376.035-2.06-.018-2.072-.158-3.96-.77-4.882-2.82-.768-1.71-1.328-3.513-1.98-5.275zm101.163 5.604c30.318 0 60.635.003 90.953 0 6.12 0 7.803-1.66 7.804-7.67V80.157c0-6.338.032-12.678-.015-19.015-.033-4.35-2.04-6.47-6.332-6.838-.758-.065-1.524-.086-2.287-.086-59.185.007-118.367.017-177.55.032-1.832 0-3.673-.055-5.493.107-4.01.355-6.036 2.545-6.146 6.553-.062 2.29-.016 4.582-.016 6.873 0 16.8-.007 33.602.006 50.403.003 4.078 2.213 6.34 6.29 6.512.84.035 1.68.016 2.52.016h90.266zm42.637-99.2c-.778-2.15-2.613-1.067-4.02-1.293-1.505-.243-1.966.487-1.942 1.965.074 4.66.025 9.32.027 13.98 0 3.432.002 3.344 3.508 3.396 1.714.026 2.275-.528 2.21-2.235-.114-2.975-.093-5.96.012-8.936.08-2.27 1.28-3.537 3.08-3.574 1.876-.04 2.9 1.1 2.97 3.543.08 2.748.165 5.51-.012 8.247-.146 2.243.425 3.166 2.87 2.973 2.937-.23 2.95-.052 2.954-3.08 0-.992-.04-1.987.008-2.978.11-2.198.092-4.423.45-6.583.274-1.635 1.585-2.31 3.284-2.12 1.707.187 2.07 1.423 2.12 2.776.095 2.672.093 5.346.103 8.02.014 4.15.428 4.543 4.61 3.846.507-.085 1.265-.893 1.274-1.38.083-4.12.22-8.26-.058-12.367-.28-4.117-2.876-6.4-6.856-5.936-2.03.237-3.945 1.493-6.093 2.362-3.37-3.25-5.968-3.484-10.5-.627zm-110.88-3.072c0-1.88-.097-3.392.027-4.884.15-1.78-.655-2.614-2.28-3.115-2.997-.924-5.986-1.154-9.01-.29-5.74 1.64-9.61 5.272-10.98 11.12-1.396 5.964.09 11.275 4.877 15.252 4.734 3.932 10.163 4.55 15.9 2.427.518-.193 1.285-.684 1.31-1.076.132-2.056.062-4.124.062-6.418-6.26 3.808-10.586 3.695-13.946-.1-3.063-3.458-3.096-9.17-.073-12.88 3.083-3.783 7.205-3.87 14.115-.038zm15.347 21.596c6.576.002 10.98-4.114 10.96-10.25-.017-5.984-4.45-10.108-10.87-10.11-6.595-.004-10.884 4.052-10.875 10.285.007 6.135 4.22 10.07 10.784 10.074zm134.945 0c6.58.01 11.074-4.155 11.018-10.21-.056-6.014-4.475-10.143-10.865-10.15-6.455-.01-11.072 4.264-11.067 10.24.003 5.91 4.537 10.11 10.913 10.12zM65.15 10.932c-.072.742-.192 1.408-.192 2.074-.013 9.392.083 18.786-.065 28.176-.045 2.814 1.635 2.265 3.263 2.357 1.743.1 2.81-.077 2.78-2.366-.126-9.39-.05-18.784-.06-28.176 0-.66-.104-1.318-.167-2.066h-5.558zm36.704 15.02c-2.565-2.292-6.492-3.066-9.302-1.838-2.43 1.062-3.843 2.893-3.92 5.646-.074 2.683 1.43 4.208 3.71 5.17 1.12.473 2.32.782 3.376 1.36.496.27 1.128 1.124 1.01 1.498-.186.594-.992 1.457-1.458 1.41-1.22-.12-2.61-.39-3.555-1.102-2.253-1.693-2.48.728-3.458 1.51-1.36 1.092-.27 1.85.55 2.508 2.98 2.39 8.028 2.64 11.174.514 3.5-2.363 4.657-8.33-.45-10.553-1.255-.547-2.57-.976-3.772-1.617-.568-.303-.937-.98-1.397-1.488.71-.306 1.4-.744 2.14-.87.455-.077.996.494 1.486.474.775-.03 1.666-.127 2.27-.54.645-.443 1.014-1.286 1.596-2.082zm19.18-.124c-2.875-2.378-5.968-2.724-9.17-1.754-2.673.81-4.095 3.043-4.15 5.688-.056 2.805 1.53 4.326 3.95 5.246 1.066.405 2.202.704 3.16 1.29.525.324 1.127 1.25 1 1.715-.148.54-1.113 1.29-1.62 1.218-1.218-.173-2.513-.564-3.526-1.244-2.152-1.443-2.346.874-3.313 1.585-1.17.86-.51 1.685.327 2.4 3.076 2.614 8.47 2.8 11.746.397 3.606-2.646 3.26-8.14-.686-10.21-1.21-.634-2.574-.975-3.764-1.638-.592-.33-.944-1.085-1.405-1.648.733-.256 1.737-.953 2.153-.696 2.82 1.74 3.864-.295 5.297-2.348zM76.74 33.615v5.933c0 4.29.188 4.494 4.51 3.905.552-.075 1.412-.948 1.422-1.466.105-5.4.113-10.802-.006-16.2-.012-.538-.955-1.257-1.614-1.522-.655-.263-1.505.002-2.258-.074-1.62-.16-2.14.558-2.077 2.123.096 2.43.025 4.867.024 7.302zm55.74.264c0-2.522-.072-5.046.025-7.563.06-1.553-.412-2.305-2.057-2.126-.756.083-1.6-.174-2.27.08-.6.228-1.432.938-1.44 1.45-.105 5.42-.105 10.845-.003 16.267.01.517.828 1.263 1.418 1.464.755.257 1.664.01 2.498.08 1.405.12 1.886-.486 1.848-1.86-.072-2.595-.02-5.194-.018-7.79zM83.155 16.814c.055-1.843-1.555-3.502-3.418-3.52-1.723-.016-3.374 1.545-3.468 3.28-.103 1.893 1.415 3.53 3.33 3.588 1.948.06 3.496-1.396 3.555-3.348zm49.79.016c.045-1.983-1.457-3.55-3.387-3.53-1.805.02-3.322 1.537-3.36 3.364-.04 1.876 1.356 3.404 3.2 3.5 2.023.106 3.5-1.283 3.547-3.333z"/><path fill="#454545" d="M190.54 91.445c.048 13.964-10.918 24.98-24.88 24.99-13.922.012-25.105-11.102-25.06-24.9.044-13.657 11.17-24.834 24.863-24.983 13.72-.15 25.03 11.08 25.077 24.893zm-24.58-23.737c-12.124-.002-22.285 10.16-22.157 22.163.13 12.06 10.073 21.9 22.137 21.907 12.23.007 22.177-9.96 22.082-22.118-.094-12.12-9.974-21.95-22.062-21.952zM61.218 83.438h4.928c0 4.002-.01 7.873.003 11.746.008 3.02 1.224 4.62 3.487 4.645 2.206.02 3.697-1.716 3.74-4.552.056-3.88.013-7.76.013-11.807h4.647v20.5c-1.637-.51-3.8 1.316-4.708-1.464-1.545.527-3.12 1.37-4.773 1.57-3.99.482-7.154-2.125-7.297-6.066-.174-4.787-.042-9.586-.042-14.572M21.744 93.587c-2.184-2.644-4.27-5.144-6.324-7.67-.472-.58-.997-1.19-1.225-1.878-.51-1.54-.052-2.877 1.34-3.765 1.312-.834 2.704-.83 3.737.37 3.324 3.86 6.635 7.738 9.794 11.734 1.152 1.456.626 3.098-.745 4.268-3.584 3.056-7.2 6.08-10.86 9.047-1.44 1.168-3.45.945-4.497-.428-1.183-1.55-1.143-3.162.34-4.482 2.215-1.973 4.53-3.833 6.8-5.746.507-.43.994-.88 1.64-1.453M53.838 85.322c-.614.656-1.164 1.187-1.648 1.773-.707.857-1.343 1.02-2.523.598-1.452-.518-3.147-.7-4.675-.517-.764.093-1.39 1.325-2.08 2.04.677.617 1.263 1.56 2.05 1.78 1.525.423 3.176.36 4.75.64 2.767.49 4.41 2.145 4.896 4.75.458 2.454-.775 5.055-3.04 6.41-3.892 2.333-10.55 1.71-14.364-1.498l2.47-2.596c2.67.45 4.894.955 7.146 1.166 1.48.14 2.798-.555 2.893-2.252.09-1.613-1.21-1.918-2.49-2.078-1.436-.18-2.875-.344-4.31-.532-2.343-.307-4-1.474-4.552-3.858-.612-2.642.383-5.272 2.44-6.69 3.328-2.294 9.695-1.933 13.038.864M97.042 83.43c4.954-.33 4.952-.33 6.382 3.924.896 2.666 1.795 5.332 2.706 7.992.037.107.21.168.55.424.96-2.858 1.9-5.63 2.815-8.405 1.423-4.314 1.416-4.316 6.407-3.91-.547 1.517-1.062 2.972-1.596 4.42-1.79 4.853-3.654 9.678-5.334 14.567-.496 1.442-1.342 1.535-2.565 1.556-1.25.022-2.048-.158-2.532-1.56-2.185-6.313-4.507-12.577-6.833-19.008M86.556 103.822v-20.36h4.724v20.36h-4.724M121.512 83.37h4.79v20.403h-4.79V83.37M178.098 63.13c.696.427 1.223.716 1.715 1.055 1.617 1.115 3.324 2.135 4.778 3.435.527.47.438 1.628.627 2.473-.852.183-1.934.786-2.513.47-1.98-1.082-3.85-2.408-5.612-3.826-.482-.387-.714-1.495-.552-2.146.144-.572.996-.967 1.558-1.46M124.012 80.198c-1.724-.02-3.062-1.302-3.11-2.98-.054-1.827 1.243-3.096 3.17-3.1 1.88-.005 3.188 1.33 3.1 3.155-.08 1.642-1.488 2.945-3.16 2.925M89.05 80.197c-1.762.023-3.067-1.21-3.115-2.946-.05-1.868 1.245-3.16 3.143-3.13 1.818.03 3.006 1.228 2.997 3.022-.008 1.732-1.296 3.032-3.026 3.055M180.538 61.62l5.834 4.08-.4.58-5.932-4.093.498-.567"/><path fill="#EA7400" d="M53.857 33.803c.038 2.727-2.153 4.993-4.827 4.992-2.618 0-4.788-2.1-4.87-4.71-.086-2.664 2.085-5.033 4.708-5.138 2.57-.104 4.952 2.216 4.99 4.856M184.018 28.92c2.573.01 4.98 2.447 4.955 5.015-.027 2.598-2.457 4.923-5.076 4.854-2.56-.07-4.8-2.332-4.816-4.866-.02-2.624 2.338-5.012 4.938-5.003"/><path fill="#454545" d="M179.71 81.675c-.54.704-.96 1.572-1.645 2.087-2.924 2.19-5.963 4.23-8.87 6.438-.685.52-1.255 1.43-1.474 2.267-.56 2.116-1.862 3.148-3.972 2.826-1.766-.27-2.852-1.79-2.61-3.66.243-1.89 1.638-2.773 3.76-2.85 1.177-.045 2.48-.45 3.472-1.088 2.62-1.687 5.074-3.633 7.658-5.38.898-.61 1.986-.937 2.988-1.393l.695.753zm-15.034 13.557c1.092-1.484 2.08-2.254 2.223-3.157.208-1.323-.747-2.505-2.16-2.212-.86.18-2.11 1.283-2.13 2-.023.893 1.044 1.813 2.066 3.37z"/></symbol><symbol id="shape-icon-delivery" viewBox="0 0 32 18"><title>icon-delivery@1x</title><path d="M7.51 12.708c-1.43 0-2.587 1.18-2.587 2.637s1.158 2.637 2.588 2.637c1.43 0 2.59-1.18 2.59-2.637s-1.16-2.637-2.59-2.637zm0 4.336c-.92 0-1.667-.762-1.667-1.7 0-.935.748-1.698 1.668-1.698.92 0 1.668.763 1.668 1.7 0 .936-.748 1.698-1.667 1.698zm17.134-4.336c-1.428 0-2.587 1.18-2.587 2.637s1.16 2.637 2.587 2.637c1.43 0 2.588-1.18 2.588-2.637s-1.16-2.637-2.588-2.637zm0 4.336c-.92 0-1.668-.762-1.668-1.7 0-.935.748-1.698 1.668-1.698.92 0 1.67.763 1.67 1.7 0 .936-.75 1.698-1.67 1.698zm6.062-8.53l-7.632-6.922C21.87.333 19.656.004 19.656.004H3.988C1.288.005.773 3.16.773 3.16v9.775c0 1.973 1.485 2.412 1.485 2.412h2.12c.09-3.085 2.98-3.288 2.98-3.288 3.505-.062 3.49 3.287 3.49 3.287H21.51c.167-3.472 3.23-3.298 3.23-3.298 3.193.314 3.24 3.296 3.24 3.296h.627s4.957-1.957 2.096-6.83zM19.76 7.677V3.124h3.79l5.182 4.552h-8.97z" fill-rule="evenodd"/></symbol><symbol id="shape-icon-fast-delivery" viewBox="0 0 51 23"><title>Fill 1</title><path d="M50.892 13.293s.128-1.745-2.123-2.738c-2.253-.99-5.02-2.02-5.02-2.02l-5.404-7.208S37.578.16 35.516.16c-2.123 0-23.74.074-23.74.074S10.19.16 9.78 1.714c-.034.133-.07.283-.105.448h3.62c1.203 0 2.185.98 2.186 2.19 0 1.203-.98 2.183-2.186 2.183H9.126c-.038.517-.07 1.08-.1 1.67h1.886c1.204 0 2.184.98 2.184 2.184 0 .583-.226 1.133-.638 1.546-.413.414-.96.64-1.548.64H8.918c0 .537.002 1.094.01 1.667h.397c1.204.003 2.183.984 2.183 2.188 0 1.207-.98 2.19-2.185 2.19h-.266c.007.134.01.263.017.4 0 0 .112 1.93 1.28 1.93h2.432c-.16-.477-.25-.985-.25-1.515 0-2.64 2.15-4.787 4.79-4.787s4.787 2.148 4.787 4.787c0 .53-.09 1.038-.25 1.514H38.61c-.16-.476-.25-.985-.25-1.515 0-2.64 2.15-4.787 4.79-4.787s4.788 2.148 4.788 4.787c0 .53-.09 1.04-.25 1.516h1.402s1.544 0 1.802-1.673c.256-1.673 0-5.984 0-5.984zM31.478 8.46V2.523h4.875c1.832.4 5.24 5.935 5.24 5.935H31.478zm-14.153 7.576c-1.878 0-3.4 1.523-3.4 3.4 0 .547.14 1.056.37 1.513.557 1.114 1.698 1.887 3.03 1.887 1.33 0 2.47-.773 3.03-1.888.227-.458.37-.967.37-1.515 0-1.876-1.523-3.4-3.4-3.4zm25.825 0c-1.88 0-3.4 1.523-3.4 3.4 0 .547.14 1.057.37 1.514.558 1.114 1.698 1.887 3.03 1.887 1.33 0 2.47-.773 3.028-1.886.23-.457.37-.967.37-1.515 0-1.876-1.52-3.4-3.398-3.4zM13.295 5.356c.555 0 1.005-.45 1.006-1.007 0-.557-.45-1.008-1.006-1.008h-3.83l-7.56-.002H1.9c-.038 0-.076.008-.114.012-.03.003-.06.003-.087.008-.04.01-.08.024-.12.037-.022.008-.047.013-.07.022-.04.016-.076.04-.114.06l-.057.03c-.042.03-.08.063-.116.096-.01.01-.023.018-.034.028-.037.037-.068.08-.1.12-.006.01-.016.02-.023.03-.02.03-.035.064-.052.096-.013.026-.03.048-.04.075-.05.12-.08.253-.08.392 0 .277.114.53.296.71.092.09.2.165.32.216.015.006.03.008.044.014.048.018.095.035.145.045.027.005.056.005.085.01.038.003.076.01.115.01h7.327l4.068.003zm-2.385 6.04h.002c.035 0 .07-.006.103-.01.033-.003.067-.003.1-.01.032-.007.062-.02.093-.03.032-.01.065-.015.095-.028.035-.015.067-.036.1-.054.023-.014.048-.024.07-.038.037-.025.07-.056.103-.085.014-.012.03-.022.046-.037.034-.035.064-.074.093-.112l.03-.036c.027-.04.048-.085.07-.13.006-.014.016-.026.022-.04.02-.047.032-.095.044-.143.005-.016.012-.03.015-.047.014-.066.02-.133.02-.203s-.006-.137-.02-.203c-.007-.04-.02-.074-.034-.11-.007-.026-.012-.054-.023-.08-.01-.024-.026-.047-.04-.07-.016-.034-.032-.07-.053-.1-.013-.018-.03-.034-.043-.052-.025-.033-.05-.067-.078-.096-.02-.022-.046-.04-.07-.058-.026-.022-.05-.046-.08-.066-.025-.017-.054-.03-.08-.044-.03-.017-.06-.035-.09-.048-.03-.013-.063-.02-.096-.03-.03-.01-.06-.023-.093-.03-.032-.006-.067-.006-.1-.01-.034-.002-.067-.01-.1-.01H8.975l-4.3-.002c-.556 0-1.007.45-1.007 1.006 0 .278.113.53.294.713.183.183.434.295.713.296h6.233zm-.583 5.035c0-.555-.45-1.006-1.006-1.007H6.79c-.557 0-1.007.45-1.007 1.007 0 .28.114.53.297.712.18.183.433.297.71.297h2.532c.555 0 1.005-.453 1.005-1.01z" fill-rule="evenodd"/></symbol><symbol id="shape-icon-forfait-byou-two" viewBox="0 0 565.166 80"><path fill="url(#shape-icon-forfait-byou-two-a)" d="M465.653 2.028c5.17 0 10.04.985 14.593 2.945 4.548 1.963 8.537 4.65 11.947 8.064 3.41 3.417 6.105 7.4 8.078 11.953 1.955 4.554 2.94 9.424 2.94 14.602 0 5.182-.985 10.05-2.94 14.602-1.972 4.556-4.665 8.52-8.077 11.892-3.41 3.378-7.4 6.048-11.947 8.015-4.553 1.962-9.422 2.942-14.593 2.942-5.185 0-10.052-.98-14.606-2.94-4.557-1.968-8.527-4.637-11.893-8.016-3.378-3.372-6.047-7.336-8.01-11.892-1.964-4.55-2.938-9.42-2.938-14.602 0-5.178.977-10.047 2.938-14.602 1.963-4.554 4.632-8.536 8.01-11.953 3.363-3.416 7.336-6.1 11.893-8.064 4.555-1.96 9.422-2.945 14.606-2.945zm-18.738 37.68c0 2.592.496 5.026 1.483 7.306.974 2.275 2.33 4.278 4.062 6.002 1.726 1.73 3.725 3.086 6 4.062 2.278.986 4.71 1.475 7.308 1.475 2.586 0 5.02-.484 7.29-1.475 2.288-.98 4.28-2.332 6.01-4.062 1.73-1.724 3.074-3.727 4.064-6.002.984-2.28 1.48-4.713 1.48-7.305 0-2.59-.495-5.022-1.48-7.304-.99-2.27-2.334-4.274-4.063-6-1.73-1.73-3.724-3.08-6.01-4.062-2.272-.982-4.706-1.475-7.292-1.475-2.598 0-5.028.492-7.31 1.474-2.273.98-4.272 2.333-6 4.062-1.728 1.726-3.086 3.73-4.06 6-.988 2.282-1.483 4.714-1.483 7.303z"/><path fill="url(#shape-icon-forfait-byou-two-b)" d="M421.36 4.618c-1.683-1.72-3.903-2.59-6.656-2.59-2.667 0-4.923.79-6.763 2.355-1.85 1.57-2.768 3.85-2.768 6.833v11.42c0 1.257-.26 2.356-.766 3.3-.52.94-1.146 1.727-1.887 2.355-.752.63-1.593 1.1-2.536 1.414-.938.314-1.804.473-2.59.473-.865 0-1.73-.158-2.58-.473-.874-.313-1.694-.784-2.48-1.413-.785-.628-1.41-1.414-1.887-2.354-.47-.944-.704-2.043-.704-3.3v-11.42c0-2.983-.922-5.263-2.762-6.834-1.85-1.563-4.103-2.355-6.772-2.355-2.75 0-4.973.87-6.662 2.59-1.686 1.728-2.523 3.928-2.523 6.598v11.42c0 3.14.596 6.284 1.76 9.425 1.19 3.133 2.897 5.945 5.13 8.413 2.23 2.472 4.988 4.5 8.244 6.067.63.306 1.277.57 1.94.82v20.49c0 2.67.862 4.868 2.593 6.597 1.73 1.728 3.925 2.592 6.597 2.592 2.734 0 5.024-.865 6.818-2.593 1.817-1.73 2.715-3.928 2.715-6.598V47.315c.63-.232 1.234-.496 1.816-.775 3.265-1.567 6.036-3.597 8.3-6.066 2.29-2.468 4.018-5.28 5.185-8.413 1.19-3.14 1.773-6.283 1.773-9.423V11.215c.003-2.67-.85-4.87-2.534-6.597z"/><path fill="url(#shape-icon-forfait-byou-two-c)" d="M348.217 46.665c-.73-1.915-1.626-3.698-2.703-5.34-1.09-1.645-2.298-3.09-3.646-4.343-1.35-1.25-2.648-2.27-3.903-3.052 1.165-1.486 2.243-3.23 3.23-5.23.986-1.988 1.478-4.355 1.478-7.1 0-3.594-.807-6.645-2.423-9.152-1.613-2.502-3.7-4.52-6.27-6.05-2.567-1.524-5.44-2.64-8.626-3.34C322.157 2.35 318.936 2 315.707 2h-15.65c-2.974 0-5.44.843-7.413 2.523-1.985 1.687-3.02 3.775-3.107 6.284V69.03c0 2.43 1.02 4.364 3.04 5.81 2.02 1.454 4.51 2.172 7.48 2.172h15.65c3.23 0 6.784-.33 10.66-.998 3.855-.66 7.502-1.912 10.924-3.75 3.412-1.842 6.26-4.328 8.56-7.457 2.3-3.13 3.444-7.162 3.444-12.094 0-2.11-.36-4.13-1.077-6.048zm-40.34-30.67h11.62c.81 0 1.522.167 2.132.493.603.333 1.107.742 1.513 1.217.405.48.71 1.026.91 1.633.2.612.312 1.166.312 1.67 0 .562-.112 1.116-.312 1.68-.2.555-.504 1.086-.91 1.59-.403.51-.908.916-1.514 1.218-.606.302-1.323.454-2.133.454h-11.62v-9.956zm21.222 37.644c-.313.86-.784 1.687-1.41 2.472-.63.79-1.416 1.414-2.354 1.886-.943.472-2.042.71-3.3.71h-13.81V43.274h13.81c1.258 0 2.355.254 3.3.766.938.513 1.727 1.142 2.354 1.885.626.747 1.098 1.59 1.41 2.53.313.943.473 1.807.473 2.59 0 .863-.16 1.728-.474 2.594z"/><path fill="#0079BF" d="M363.887 76.973c-1.337 0-2.604-.23-3.783-.688-1.167-.45-2.206-1.072-3.082-1.848-.91-.785-1.638-1.71-2.177-2.76-.56-1.096-.854-2.285-.854-3.527 0-1.627.526-3.176 1.55-4.602.494-.678 1.076-1.307 1.75-1.886-.53-.493-.987-1.042-1.37-1.634-.414-.652-.75-1.348-.984-2.062-.27-.742-.394-1.506-.394-2.246 0-1.162.258-2.285.795-3.337.505-1.02 1.188-1.903 2.04-2.646.834-.717 1.808-1.3 2.92-1.73 1.112-.42 2.31-.645 3.59-.645 1.222 0 2.42.225 3.544.646 1.124.43 2.11 1.013 2.94 1.73.852.74 1.55 1.626 2.054 2.645.53 1.052.797 2.175.797 3.337 0 1.043-.244 2.082-.716 3.077-.448.976-1.122 1.875-1.976 2.66-.854.77-1.896 1.395-3.097 1.868l-.02.002 4.8 3.762 3.39-2.76c.46-.396 1.03-.603 1.66-.603 1.447 0 2.47.977 2.47 2.37 0 .523-.18 1.024-.54 1.49-.065.1-.158.185-.246.253l-.044.047c0 .006-.023.016-.023.02l-2.763 2.308 2.874 2.355c.023.02.033.027.043.04.54.458.832 1.095.832 1.786 0 1.398-1.012 2.377-2.47 2.377-.627 0-1.187-.21-1.658-.598l-3.52-2.828c-.573.438-1.123.826-1.614 1.164-.855.565-1.64 1.025-2.356 1.372-.764.37-1.504.646-2.195.82-.74.183-1.47.27-2.163.27zm-2.65-12.3c-.604.372-1.122.815-1.522 1.33-.52.66-.787 1.358-.787 2.147 0 .543.114 1.04.348 1.506.248.506.57.926 1 1.3.447.385.978.692 1.596.92.604.23 1.285.345 2.02.345.763 0 1.595-.247 2.446-.735.592-.338 1.256-.762 1.974-1.27l-7.075-5.54zm2.65-12.555c-.674 0-1.29.1-1.854.31-.55.192-1.02.463-1.393.795-.367.32-.647.688-.863 1.13-.2.423-.304.866-.304 1.368 0 .5.09.935.282 1.33.202.42.47.77.832 1.085.39.338.872.62 1.434.834.554.208 1.19.325 1.888.347.65 0 1.24-.098 1.772-.3.535-.198 1.007-.474 1.39-.806.357-.31.65-.683.853-1.128.203-.416.312-.863.312-1.36 0-.503-.11-.946-.312-1.368-.2-.44-.495-.812-.854-1.133-.383-.33-.855-.6-1.39-.8-.536-.203-1.145-.302-1.793-.302z"/><path fill="#0079BF" d="M363.887 76.973c-1.337 0-2.604-.23-3.783-.688-1.167-.45-2.206-1.072-3.082-1.848-.91-.785-1.638-1.71-2.177-2.76-.56-1.096-.854-2.285-.854-3.527 0-1.627.526-3.176 1.55-4.602.494-.678 1.076-1.307 1.75-1.886-.53-.493-.987-1.042-1.37-1.634-.414-.652-.75-1.348-.984-2.062-.27-.742-.394-1.506-.394-2.246 0-1.162.258-2.285.795-3.337.505-1.02 1.188-1.903 2.04-2.646.834-.717 1.808-1.3 2.92-1.73 1.112-.42 2.31-.645 3.59-.645 1.222 0 2.42.225 3.544.646 1.124.43 2.11 1.013 2.94 1.73.852.74 1.55 1.626 2.054 2.645.53 1.052.797 2.175.797 3.337 0 1.043-.244 2.082-.716 3.077-.448.976-1.122 1.875-1.976 2.66-.854.77-1.896 1.395-3.097 1.868l-.02.002 4.8 3.762 3.39-2.76c.46-.396 1.03-.603 1.66-.603 1.447 0 2.47.977 2.47 2.37 0 .523-.18 1.024-.54 1.49-.065.1-.158.185-.246.253l-.044.047c0 .006-.023.016-.023.02l-2.763 2.308 2.874 2.355c.023.02.033.027.043.04.54.458.832 1.095.832 1.786 0 1.398-1.012 2.377-2.47 2.377-.627 0-1.187-.21-1.658-.598l-3.52-2.828c-.573.438-1.123.826-1.614 1.164-.855.565-1.64 1.025-2.356 1.372-.764.37-1.504.646-2.195.82-.74.183-1.47.27-2.163.27zm-2.65-12.3c-.604.372-1.122.815-1.522 1.33-.52.66-.787 1.358-.787 2.147 0 .543.114 1.04.348 1.506.248.506.57.926 1 1.3.447.385.978.692 1.596.92.604.23 1.285.345 2.02.345.763 0 1.595-.247 2.446-.735.592-.338 1.256-.762 1.974-1.27l-7.075-5.54zm2.65-12.555c-.674 0-1.29.1-1.854.31-.55.192-1.02.463-1.393.795-.367.32-.647.688-.863 1.13-.2.423-.304.866-.304 1.368 0 .5.09.935.282 1.33.202.42.47.77.832 1.085.39.338.872.62 1.434.834.554.208 1.19.325 1.888.347.65 0 1.24-.098 1.772-.3.535-.198 1.007-.474 1.39-.806.357-.31.65-.683.853-1.128.203-.416.312-.863.312-1.36 0-.503-.11-.946-.312-1.368-.2-.44-.495-.812-.854-1.133-.383-.33-.855-.6-1.39-.8-.536-.203-1.145-.302-1.793-.302z"/><path fill="url(#shape-icon-forfait-byou-two-d)" d="M535.968 58.316c.785 0 1.647-.16 2.59-.477.944-.313 1.786-.784 2.536-1.41.74-.63 1.37-1.415 1.886-2.355.505-.944.764-2.044.764-3.3V11.333c0-2.984.918-5.26 2.77-6.832 1.84-1.563 4.094-2.35 6.767-2.35 2.75 0 4.97.864 6.653 2.586 1.682 1.73 2.533 3.927 2.533 6.597v39.444c0 3.142-.58 6.28-1.773 9.425-1.163 3.142-2.89 5.946-5.18 8.42-2.27 2.474-5.038 4.494-8.305 6.063-3.254 1.568-7 2.354-11.237 2.354-4.24 0-7.986-.786-11.24-2.355-3.25-1.572-6.015-3.592-8.244-6.063-2.23-2.474-3.938-5.278-5.127-8.42-1.17-3.144-1.763-6.283-1.763-9.425V11.333c0-2.67.84-4.868 2.52-6.597 1.695-1.723 3.904-2.585 6.665-2.585 2.67 0 4.923.79 6.772 2.35 1.844 1.572 2.763 3.85 2.763 6.833v39.444c0 1.257.236 2.354.706 3.3.47.94 1.1 1.728 1.885 2.354.784.628 1.605 1.1 2.48 1.413.85.313 1.716.473 2.58.473z"/><path fill="#00B5D8" d="M184.433 77.902c13.052 0 19.454-11.27 19.454-11.27V77.09l6.138.004V51.69c-.023-14.397-11.528-26.105-25.64-26.105-13.953.03-25.673 12.44-25.64 27.1.027 14.14 10.964 25.217 25.688 25.217zm-.014-6.21c-10.438 0-18.904-8.936-18.906-19.91-.026-10.806 8.72-19.968 18.834-19.986h.042c10.39 0 18.856 8.93 18.88 19.91.007 11-8.444 19.962-18.85 19.987zM237.403 11.87v45.864c-.014 6.62 1.475 11.91 4.806 15.32 4.767 4.864 12.15 6.098 22.81 3.557l-1.31-5.71c-13.243 3.492-19.66-.77-19.638-14.92V31.758h18.47V26.32h-18.47V11.87h-6.67zM141.55 77.11h6.496V31.76h12.643v-5.415h-12.716l-.007-1.948c-.02-12.372 3.63-18.647 16.795-14.974l1.538-5.4c-2.932-.727-5.37-1.1-7.87-1.1-10.207 0-16.79 7.192-16.79 21.47v1.953h-6.42v5.415h6.33V77.11zM99.644 77.11h6.603V45.98c0-10.284 3.187-14.44 12.977-14.44 2.63 0 5.64.417 9.02 1.29l1.507-5.98c-4.02-.938-7.1-1.26-10.48-1.26-14.448 0-19.624 7.272-19.624 19.554l-.002 31.967zM219.326 26.36h6.603v50.734h-6.604zM227.193 8.592c0-2.636-2.142-4.785-4.783-4.785-2.646 0-4.788 2.15-4.788 4.785 0 2.648 2.143 4.788 4.788 4.788 2.64 0 4.783-2.14 4.783-4.788zM68.568 25.654c-14.137 0-25.6 11.69-25.6 26.12 0 14.43 11.462 26.13 25.6 26.13 14.145 0 25.61-11.7 25.61-26.13s-11.467-26.12-25.61-26.12zm0 46.47c-10.806 0-19.56-9.11-19.56-20.35 0-11.238 8.755-20.345 19.56-20.345 10.807 0 19.562 9.107 19.562 20.345 0 11.24-8.757 20.348-19.562 20.348zM9.772 77.11V41.465H39.83v-5.83H9.784V16.703c0-6.21 1.43-8.54 7.437-8.54H43.1V2.013H17.036c-10.294 0-14.034 4.533-14.034 14.162L3 77.113h6.77l.002-.002z"/></symbol><symbol id="shape-icon-forfait-byou" viewBox="0 0 600 80"><path fill="url(#shape-icon-forfait-byou-a)" d="M500.653 2.028c5.17 0 10.04.985 14.593 2.945 4.546 1.963 8.537 4.65 11.947 8.064 3.41 3.417 6.105 7.4 8.078 11.953 1.955 4.554 2.94 9.424 2.94 14.602 0 5.182-.985 10.05-2.94 14.602-1.972 4.554-4.665 8.518-8.077 11.89-3.41 3.378-7.4 6.048-11.947 8.013-4.553 1.96-9.422 2.943-14.593 2.943-5.185 0-10.052-.982-14.608-2.943-4.555-1.965-8.527-4.634-11.89-8.013-3.38-3.372-6.048-7.336-8.01-11.89-1.965-4.552-2.94-9.42-2.94-14.602 0-5.178.976-10.047 2.94-14.602 1.962-4.554 4.63-8.536 8.01-11.953 3.362-3.416 7.335-6.1 11.89-8.064 4.557-1.96 9.424-2.945 14.608-2.945zm-18.736 37.68c0 2.592.496 5.026 1.483 7.306.974 2.275 2.33 4.278 4.06 6 1.726 1.73 3.725 3.087 6 4.063 2.28.988 4.71 1.475 7.308 1.475 2.586 0 5.02-.486 7.29-1.475 2.288-.977 4.28-2.332 6.01-4.062 1.73-1.723 3.074-3.726 4.064-6 .986-2.28 1.48-4.714 1.48-7.306 0-2.59-.494-5.022-1.48-7.304-.99-2.27-2.334-4.274-4.063-6-1.73-1.73-3.724-3.08-6.01-4.062-2.27-.982-4.706-1.475-7.292-1.475-2.598 0-5.028.492-7.308 1.474-2.275.98-4.274 2.333-6 4.062-1.73 1.726-3.086 3.73-4.06 6-.988 2.282-1.483 4.714-1.483 7.303z"/><path fill="url(#shape-icon-forfait-byou-b)" d="M456.36 4.618c-1.683-1.72-3.903-2.59-6.656-2.59-2.667 0-4.923.79-6.763 2.355-1.85 1.57-2.768 3.85-2.768 6.833v11.42c0 1.257-.26 2.356-.764 3.3-.52.94-1.146 1.727-1.887 2.355-.75.63-1.59 1.1-2.534 1.414-.94.314-1.804.473-2.59.473-.865 0-1.73-.158-2.58-.473-.874-.313-1.695-.784-2.48-1.413-.786-.628-1.41-1.414-1.886-2.354-.47-.944-.705-2.043-.705-3.3v-11.42c0-2.983-.92-5.263-2.76-6.834-1.852-1.563-4.105-2.355-6.776-2.355-2.75 0-4.972.87-6.663 2.59-1.684 1.728-2.523 3.928-2.523 6.598v11.42c0 3.14.595 6.284 1.76 9.425 1.188 3.133 2.897 5.945 5.13 8.413 2.23 2.472 4.988 4.5 8.243 6.067.63.305 1.278.572 1.94.82v20.49c0 2.67.863 4.87 2.594 6.598 1.73 1.727 3.925 2.59 6.598 2.59 2.734 0 5.024-.863 6.818-2.59 1.817-1.73 2.715-3.928 2.715-6.598V47.316c.63-.232 1.235-.496 1.817-.775 3.265-1.567 6.036-3.596 8.3-6.066 2.29-2.468 4.018-5.28 5.185-8.413 1.188-3.14 1.772-6.283 1.772-9.423V11.215c.002-2.67-.85-4.87-2.535-6.597z"/><path fill="url(#shape-icon-forfait-byou-c)" d="M383.217 46.665c-.73-1.915-1.626-3.698-2.703-5.34-1.09-1.645-2.298-3.09-3.646-4.343-1.347-1.25-2.648-2.27-3.903-3.052 1.165-1.486 2.243-3.23 3.23-5.23.987-1.988 1.48-4.355 1.48-7.1 0-3.594-.808-6.645-2.424-9.152-1.612-2.502-3.7-4.52-6.27-6.05-2.568-1.524-5.44-2.64-8.625-3.34C357.157 2.35 353.935 2 350.707 2h-15.65c-2.974 0-5.442.843-7.413 2.523-1.987 1.687-3.02 3.775-3.11 6.284V69.03c0 2.43 1.023 4.365 3.04 5.81 2.02 1.454 4.51 2.172 7.483 2.172h15.65c3.23 0 6.784-.33 10.66-.998 3.857-.66 7.502-1.913 10.924-3.75 3.412-1.842 6.26-4.33 8.56-7.457 2.3-3.13 3.444-7.162 3.444-12.094 0-2.11-.36-4.13-1.077-6.048zm-40.34-30.67h11.62c.81 0 1.524.167 2.132.493.604.333 1.11.742 1.513 1.217.405.48.71 1.026.91 1.633.2.612.312 1.166.312 1.67 0 .562-.112 1.116-.312 1.68-.2.555-.504 1.086-.91 1.59-.403.51-.908.916-1.514 1.218-.606.302-1.323.454-2.133.454h-11.62v-9.956zm21.222 37.644c-.314.86-.784 1.686-1.41 2.472-.63.79-1.416 1.414-2.356 1.884-.943.472-2.042.71-3.3.71h-13.81v-15.43h13.81c1.258 0 2.356.253 3.3.764.94.51 1.727 1.14 2.356 1.884.626.747 1.096 1.59 1.41 2.53.313.944.473 1.806.473 2.59 0 .864-.16 1.73-.474 2.595z"/><path fill="#0079BF" d="M398.887 76.973c-1.337 0-2.604-.23-3.783-.69-1.167-.45-2.206-1.07-3.082-1.846-.91-.784-1.638-1.71-2.177-2.76-.56-1.095-.854-2.284-.854-3.526 0-1.626.528-3.175 1.55-4.6.494-.68 1.076-1.308 1.75-1.887-.53-.493-.987-1.042-1.37-1.634-.414-.653-.75-1.35-.984-2.063-.27-.742-.394-1.506-.394-2.246 0-1.16.258-2.284.795-3.336.505-1.018 1.188-1.904 2.04-2.645.834-.72 1.808-1.302 2.92-1.73 1.112-.422 2.31-.646 3.59-.646 1.222 0 2.42.224 3.544.646 1.124.43 2.112 1.012 2.94 1.73.852.74 1.55 1.626 2.054 2.644.53 1.052.797 2.175.797 3.337 0 1.043-.244 2.082-.716 3.078-.448.976-1.122 1.875-1.974 2.66-.854.77-1.897 1.395-3.097 1.868l-.022.002 4.8 3.762 3.39-2.76c.46-.394 1.03-.602 1.66-.602 1.448 0 2.47.977 2.47 2.37 0 .525-.18 1.026-.54 1.492-.066.1-.158.183-.246.253l-.044.045c0 .006-.024.017-.024.023l-2.762 2.308 2.874 2.355c.023.02.033.03.043.042.54.457.832 1.093.832 1.786 0 1.4-1.012 2.378-2.47 2.378-.627 0-1.187-.21-1.658-.598l-3.522-2.828c-.572.438-1.122.826-1.613 1.163-.857.565-1.64 1.025-2.358 1.372-.763.37-1.503.646-2.196.82-.735.178-1.466.266-2.16.266zm-2.65-12.3c-.605.372-1.122.816-1.524 1.33-.518.66-.787 1.358-.787 2.147 0 .543.114 1.042.348 1.506.248.506.57.926 1 1.3.447.385.976.693 1.594.92.605.23 1.287.345 2.02.345.763 0 1.595-.247 2.446-.735.592-.338 1.256-.762 1.974-1.27l-7.07-5.54zm2.65-12.555c-.674 0-1.29.1-1.854.31-.548.192-1.02.463-1.392.794-.366.32-.648.687-.862 1.132-.203.422-.304.864-.304 1.367 0 .5.09.935.282 1.33.202.42.47.77.832 1.085.39.338.872.62 1.434.833.552.21 1.188.327 1.886.35.65 0 1.242-.1 1.773-.303.536-.197 1.008-.472 1.39-.804.358-.31.652-.683.854-1.128.203-.416.314-.863.314-1.362 0-.502-.11-.944-.314-1.367-.2-.442-.495-.812-.854-1.132-.382-.33-.854-.6-1.39-.8-.536-.203-1.144-.302-1.793-.302z"/><path fill="#0079BF" d="M398.887 76.973c-1.337 0-2.604-.23-3.783-.69-1.167-.45-2.206-1.07-3.082-1.846-.91-.784-1.638-1.71-2.177-2.76-.56-1.095-.854-2.284-.854-3.526 0-1.626.528-3.175 1.55-4.6.494-.68 1.076-1.308 1.75-1.887-.53-.493-.987-1.042-1.37-1.634-.414-.653-.75-1.35-.984-2.063-.27-.742-.394-1.506-.394-2.246 0-1.16.258-2.284.795-3.336.505-1.018 1.188-1.904 2.04-2.645.834-.72 1.808-1.302 2.92-1.73 1.112-.422 2.31-.646 3.59-.646 1.222 0 2.42.224 3.544.646 1.124.43 2.112 1.012 2.94 1.73.852.74 1.55 1.626 2.054 2.644.53 1.052.797 2.175.797 3.337 0 1.043-.244 2.082-.716 3.078-.448.976-1.122 1.875-1.974 2.66-.854.77-1.897 1.395-3.097 1.868l-.022.002 4.8 3.762 3.39-2.76c.46-.394 1.03-.602 1.66-.602 1.448 0 2.47.977 2.47 2.37 0 .525-.18 1.026-.54 1.492-.066.1-.158.183-.246.253l-.044.045c0 .006-.024.017-.024.023l-2.762 2.308 2.874 2.355c.023.02.033.03.043.042.54.457.832 1.093.832 1.786 0 1.4-1.012 2.378-2.47 2.378-.627 0-1.187-.21-1.658-.598l-3.522-2.828c-.572.438-1.122.826-1.613 1.163-.857.565-1.64 1.025-2.358 1.372-.763.37-1.503.646-2.196.82-.735.178-1.466.266-2.16.266zm-2.65-12.3c-.605.372-1.122.816-1.524 1.33-.518.66-.787 1.358-.787 2.147 0 .543.114 1.042.348 1.506.248.506.57.926 1 1.3.447.385.976.693 1.594.92.605.23 1.287.345 2.02.345.763 0 1.595-.247 2.446-.735.592-.338 1.256-.762 1.974-1.27l-7.07-5.54zm2.65-12.555c-.674 0-1.29.1-1.854.31-.548.192-1.02.463-1.392.794-.366.32-.648.687-.862 1.132-.203.422-.304.864-.304 1.367 0 .5.09.935.282 1.33.202.42.47.77.832 1.085.39.338.872.62 1.434.833.552.21 1.188.327 1.886.35.65 0 1.242-.1 1.773-.303.536-.197 1.008-.472 1.39-.804.358-.31.652-.683.854-1.128.203-.416.314-.863.314-1.362 0-.502-.11-.944-.314-1.367-.2-.442-.495-.812-.854-1.132-.382-.33-.854-.6-1.39-.8-.536-.203-1.144-.302-1.793-.302z"/><path fill="url(#shape-icon-forfait-byou-d)" d="M570.968 58.316c.785 0 1.65-.16 2.59-.475.944-.313 1.786-.783 2.536-1.41.74-.63 1.37-1.415 1.886-2.355.505-.944.764-2.044.764-3.3V11.334c0-2.984.918-5.26 2.77-6.832 1.84-1.563 4.094-2.35 6.767-2.35 2.75 0 4.97.864 6.653 2.586 1.682 1.73 2.533 3.927 2.533 6.597v39.445c0 3.14-.58 6.28-1.773 9.424-1.163 3.14-2.89 5.947-5.18 8.42-2.267 2.473-5.038 4.494-8.303 6.063-3.254 1.57-7 2.355-11.24 2.355s-7.986-.785-11.24-2.355c-3.25-1.57-6.015-3.59-8.244-6.063-2.23-2.473-3.938-5.28-5.127-8.42-1.17-3.143-1.763-6.283-1.763-9.424V11.333c0-2.67.84-4.868 2.523-6.597 1.694-1.723 3.903-2.585 6.664-2.585 2.67 0 4.923.79 6.772 2.35 1.844 1.572 2.763 3.85 2.763 6.833v39.445c0 1.256.235 2.355.705 3.3.47.94 1.1 1.726 1.885 2.354.784.627 1.605 1.097 2.48 1.412.848.312 1.714.472 2.578.472z"/><path fill="#00B5D8" d="M184.433 77.903c13.052 0 19.454-11.27 19.454-11.27V77.09l6.138.003V51.69c-.025-14.397-11.53-26.105-25.64-26.105-13.953.03-25.673 12.44-25.64 27.098.027 14.142 10.964 25.22 25.688 25.22zm-.014-6.21c-10.436 0-18.904-8.935-18.906-19.912-.026-10.804 8.72-19.966 18.834-19.984h.042c10.39 0 18.856 8.93 18.88 19.91.007 11-8.444 19.962-18.85 19.987zM237.403 11.87v45.865c-.014 6.618 1.473 11.91 4.804 15.32 4.768 4.865 12.152 6.097 22.81 3.557l-1.31-5.71c-13.242 3.49-19.66-.77-19.635-14.92V31.757h18.467V26.32H244.07V11.87h-6.67zM141.55 77.112h6.496V31.758h12.643v-5.415h-12.716l-.007-1.948c-.02-12.372 3.63-18.647 16.795-14.974l1.538-5.4c-2.932-.727-5.37-1.1-7.87-1.1-10.207 0-16.79 7.192-16.79 21.47v1.953h-6.42v5.415h6.33v45.354zM99.644 77.112h6.6V45.98c0-10.284 3.188-14.443 12.978-14.443 2.63 0 5.64.418 9.02 1.29l1.507-5.978c-4.022-.94-7.1-1.263-10.48-1.263-14.45 0-19.626 7.273-19.626 19.554v31.972zM219.326 26.36h6.603v50.733h-6.604zM227.193 8.592c0-2.636-2.142-4.785-4.785-4.785-2.645 0-4.788 2.15-4.788 4.785 0 2.648 2.143 4.788 4.788 4.788 2.64 0 4.785-2.14 4.785-4.788zM68.568 25.654c-14.137 0-25.6 11.69-25.6 26.12 0 14.43 11.462 26.128 25.6 26.128 14.143 0 25.61-11.7 25.61-26.128 0-14.43-11.467-26.12-25.61-26.12zm0 46.47c-10.806 0-19.56-9.11-19.56-20.35 0-11.238 8.755-20.345 19.56-20.345 10.805 0 19.562 9.107 19.562 20.345 0 11.24-8.757 20.348-19.562 20.348zM9.772 77.112V41.464H39.83v-5.83H9.784V16.703c0-6.21 1.43-8.54 7.437-8.54H43.1V2.013H17.036c-10.294 0-14.034 4.533-14.034 14.162L3 77.113h6.772zM270.392 73.887c4.578 2.427 10.65 4.017 17.46 4.017 10.574 0 17.78-6.02 17.78-15.345 0-9.534-6.964-12.468-16.58-15.304-6.013-1.78-11.464-3.457-11.464-8.872 0-2.262.945-7.225 9.647-7.225 5.214 0 9.59 1.167 13.94 3.38l1.747-5.56c-4.623-2.34-10.007-3.42-14.487-3.42-12.115 0-17.42 6.366-17.42 14.033 0 8.402 6.84 10.988 16.29 13.725 6.557 1.9 11.98 3.693 11.98 9.82 0 4.67-3.678 9.088-11.902 9.088-4.966 0-10.71-1.564-15.06-4.036l-1.93 5.697z"/></symbol><symbol id="shape-icon-forfait-pro" viewBox="0 0 1350 350"><path d="M1251.176 142.61c-43.082.088-77.885 35.084-77.806 78.14.108 44.228 36.948 79.773 81.603 77.735 39.7-1.8 72.366-34.447 74.235-74.136 2.117-44.825-33.685-81.81-78.032-81.74zm.228 126.403c-26.16.06-47.396-21.59-47.445-48.313-.05-26.726 21.106-48.45 47.255-48.5 26.16-.054 47.414 21.576 47.453 48.32.03 26.706-21.106 48.433-47.264 48.493zM1154.095 149.466c-10.91-2.55-19.964-3.637-30.265-3.637-40.584 0-60.315 19.663-60.315 60.116v94.28h30.818v-91.974c0-25.595 6.863-33.398 29.37-33.398 6.808 0 14.62 1.127 23.227 3.35l6.165 1.592 7.27-28.864-6.27-1.466zM976.566 61.145H890.17V300.47h29.275v-89.43h52.927c45.09 0 90.588-23.425 90.588-75.754v-.645c0-44.646-33.91-73.495-86.394-73.495zm-57.12 27.34h55.186c37.326 0 58.732 17.175 58.732 47.123v.645c0 28.57-24.12 47.767-60.022 47.767h-53.896V88.486zM581.232 300.115c40.618 0 60.537-35.07 60.537-35.07v32.538l19.097.01V218.54c-.078-44.8-35.88-81.23-79.783-81.23-43.418.095-79.893 38.716-79.783 84.327.09 44 34.11 78.478 79.932 78.478zm-.04-19.325c-32.47 0-58.827-27.8-58.836-61.962-.08-33.624 27.138-62.132 58.608-62.19h.13c32.33 0 58.677 27.79 58.746 61.954.03 34.228-26.267 62.118-58.648 62.198zM746.072 94.63v142.722c-.05 20.59 4.578 37.06 14.943 47.67 14.834 15.143 37.82 18.97 70.98 11.068l-4.074-17.772c-41.212 10.87-61.18-2.394-61.1-46.424V156.52h57.47V139.6h-57.47V94.63h-20.748zM447.795 297.652h20.215V156.518h39.343v-16.853h-39.57l-.03-6.062c-.058-38.497 11.295-58.025 52.27-46.592l4.788-16.808c-9.13-2.26-16.714-3.42-24.488-3.42-31.767 0-52.25 22.38-52.25 66.807v6.076h-19.978v16.853h19.702V297.65zM317.383 297.652h20.542v-96.884c0-31.997 9.92-44.943 40.382-44.943 8.18 0 17.555 1.3 28.068 4.016l4.688-18.603c-12.512-2.922-22.095-3.926-32.608-3.926-44.96 0-61.07 22.635-61.07 60.847v99.495zM689.815 139.72h20.542v157.874h-20.542zM714.295 84.43c0-8.205-6.667-14.89-14.895-14.89-8.23 0-14.895 6.686-14.895 14.89 0 8.243 6.665 14.898 14.895 14.898 8.228 0 14.895-6.656 14.895-14.9zM220.687 137.524c-44 0-79.665 36.375-79.665 81.285 0 44.9 35.664 81.306 79.665 81.306 44.01 0 79.685-36.406 79.685-81.307 0-44.91-35.674-81.286-79.685-81.286zm0 144.6c-33.626 0-60.874-28.344-60.874-63.315 0-34.975 27.247-63.315 60.874-63.315 33.617 0 60.864 28.34 60.864 63.314 0 34.97-27.246 63.315-60.863 63.315zM37.73 297.652v-110.93h93.53v-18.14h-93.5v-58.915c0-19.33 4.45-26.575 23.142-26.575h80.525V63.96h-81.09c-32.034 0-43.674 14.104-43.674 44.07 0 23.372 0 34.67-.01 189.622H37.73z"/></symbol><symbol id="shape-icon-forfait-sens" viewBox="0 0 104 13"><path d="M91.753 4.644c-2.094.004-3.785 1.705-3.78 3.796.005 2.15 1.795 3.876 3.965 3.777 1.93-.087 3.516-1.674 3.606-3.603.103-2.176-1.637-3.973-3.79-3.97zm.01 6.14c-1.27.005-2.302-1.048-2.305-2.347-.002-1.298 1.025-2.354 2.297-2.356 1.27 0 2.303 1.05 2.305 2.35.002 1.297-1.026 2.353-2.296 2.355zM62.466 6.094c-1.475.002-2.2 1.123-2.196 2.713v3.3h-1.612V8.81c-.005-2.58 1.67-4.16 3.982-4.163 2.293-.006 3.648 1.666 3.648 4.15v3.31h-1.61v-3.31c-.003-1.543-.606-2.707-2.212-2.703zM99.834 6.094c-1.476.002-2.198 1.123-2.196 2.713v3.3h-1.61V8.81c-.006-2.58 1.67-4.16 3.98-4.163 2.294-.006 3.648 1.666 3.648 4.15v3.31h-1.612v-3.31c0-1.543-.604-2.707-2.21-2.703zM80.407 8.428c-.006-2.09-1.703-3.782-3.795-3.78-2.09.006-3.783 1.822-3.78 3.913.006 2.093 1.702 3.666 3.795 3.663.887-.002 1.895-.445 2.337-1.053v.938h1.443V8.43zm-3.782 2.357c-1.247.004-2.26-1.048-2.263-2.345-.004-1.298 1.006-2.353 2.254-2.355 1.246-.003 2.26 1.047 2.264 2.346 0 1.3-1.008 2.353-2.255 2.355zM80.884 2.794v6.433c-.004 2.266 1.457 3.583 4.576 2.738l-.348-1.3c-1.623.538-2.676-.05-2.673-1.772v-2.83h2.613V4.76H82.44V2.793h-1.556zM86.94 3.18c.338-.08.61-.355.688-.693.14-.613-.324-1.154-.914-1.154-.516 0-.936.42-.934.938 0 .59.547 1.05 1.16.91zM87.494 12.107V4.76H85.94l-.002 7.347M46.813 10.71c1.43 0 1.956-.94 1.956-1.743 0-2.376-5.554-1.426-5.554-4.98 0-1.677 1.052-3.113 3.578-3.113 1.12 0 2.106.202 3.102.507l-.37 1.506c-1.133-.348-1.906-.506-2.962-.506-1.182 0-1.64.653-1.64 1.288 0 2.523 5.61 1.66 5.61 5.04 0 1.976-1.23 3.515-3.63 3.515-1.152 0-2.588-.214-3.68-.817l.53-1.433c1.162.555 2.074.738 3.06.738zM68.38 6.654c0-.394.3-.717 1.148-.717.753 0 1.52.22 2.178.583l.465-1.266c-.698-.38-1.58-.61-2.462-.61-1.986 0-2.858 1.05-2.858 2.17 0 2.505 4.228 1.767 4.228 3.138 0 .51-.486.98-1.488.98-.774 0-1.53-.224-2.322-.653l-.5 1.206c.835.508 1.824.736 2.895.736 1.887 0 2.91-1.027 2.91-2.347-.002-2.683-4.193-2.002-4.193-3.22zM58.09 7.272c-.335-1.575-1.673-2.63-3.36-2.627-2.09.005-3.72 1.702-3.716 3.792.004 2.15 1.73 3.785 3.893 3.785 1.08 0 2.195-.346 2.934-1.014l-.734-1.128c-.547.504-1.257.753-2.062.753-1.188 0-2.343-.9-2.51-1.927h4.254c1.33 0 1.552-.458 1.303-1.634zm-1.808.388h-3.704c.317-.92 1.125-1.577 2.153-1.58 1 0 1.606.522 1.803 1.2.07.247.043.38-.25.38z"/><g><path d="M28.206 12.237c1.973 0 2.94-1.704 2.94-1.704v1.58h.93v-3.84c-.005-2.176-1.744-3.946-3.877-3.946-2.11.004-3.883 1.88-3.877 4.097.003 2.138 1.656 3.813 3.883 3.813zm-.002-.938c-1.578 0-2.858-1.353-2.86-3.012-.003-1.634 1.32-3.02 2.85-3.022h.005c1.57 0 2.85 1.35 2.853 3.01.002 1.663-1.276 3.02-2.85 3.023zM36.215 2.253v6.934c-.002 1 .223 1.8.726 2.316.722.735 1.838.922 3.45.538l-.198-.863c-2.002.528-2.973-.115-2.97-2.256V5.26h2.793v-.822h-2.792V2.253h-1.008zM21.722 12.117h.982V5.26h1.912v-.82h-1.922v-.293c-.004-1.87.547-2.82 2.54-2.264l.23-.817c-.443-.11-.81-.167-1.19-.167-1.542 0-2.538 1.087-2.538 3.245v.295h-.97v.82h.957v6.857zM15.386 12.117h.998V7.41c0-1.555.482-2.184 1.962-2.184.397 0 .853.063 1.363.195l.227-.903c-.608-.142-1.073-.19-1.584-.19-2.185 0-2.968 1.1-2.968 2.956v4.834zM33.48 4.444h1v7.67h-1zM34.67 1.758c0-.4-.323-.724-.723-.724-.4 0-.724.325-.724.724 0 .4.324.724.724.724.4 0 .724-.324.724-.724zM10.688 4.337c-2.138 0-3.87 1.768-3.87 3.95 0 2.182 1.73 3.95 3.87 3.95s3.872-1.77 3.872-3.95c0-2.182-1.734-3.95-3.872-3.95zm0 7.026c-1.634 0-2.958-1.377-2.958-3.076 0-1.7 1.324-3.077 2.958-3.077 1.633 0 2.957 1.377 2.957 3.077s-1.324 3.076-2.957 3.076zM1.798 12.117v-5.39h4.544v-.88H1.8V2.984c0-.94.216-1.29 1.125-1.29h3.913v-.93h-3.94C1.34.763.776 1.447.776 2.903v9.213h1.022z"/></g></symbol><symbol id="shape-icon-l-add" viewBox="0 0 14 13"><title>Rectangle 153</title><path d="M7.864 5.636V.216H6.136v5.42H.716v1.728h5.42v5.42h1.728v-5.42h5.42V5.636h-5.42z" stroke="#979797" fill-rule="evenodd"/></symbol><symbol id="shape-icon-map-pin" viewBox="0 0 1459.02 2689.76"><path clip-path="url(#shape-icon-map-pin-b)" fill="#0069A6" d="M1424.904 617.95c-10.22-48.36-22.8-96.48-38.14-143.824-102.642-277.8-357.36-474.13-655.316-474.13-299.745 0-555.675 198.606-657.262 478.874l-1.953-4.744c-258.93 801.658 245.053 1797.99 461.872 2087.14 11.36 15.057 22.56 28.61 33.677 40.658l6.25 6.896 7.95 8.15c7.628 7.712 15.58 14.858 23.208 21.264 3.407 2.635 6.656 5.394 10.22 7.91l2.6 1.986 2.27 1.67 5.035 3.73 5.84 3.897c3.242 2.228 6.732 4.213 10.22 6.25 3.898 2.142 7.953 4.378 12.016 6.363l.724.24 7.23 3.698 8.11 3.73 8.275 2.884c4.95 1.745 10.06 3.24 14.93 4.504l1.297.24c5.276 1.255 10.386 2.235 15.505 2.925l1.13.325c5.84.398 11.608 1.172 17.607 1.172h2.6c6.248 0 12.33-.773 18.338-1.496l7.628-1.18.973-.323 6.978-1.42c3.25-.732 6.49-1.504 9.74-2.76 7.71-2.234 15.088-5.11 22.31-8.358l6.497-2.918 1.38-.73 8.434-4.263c2.923-1.505 6.006-3.167 8.682-5.152 2.842-1.745 5.684-3.73 8.684-5.643l2.758-1.986 5.767-4.022 2.187-1.38 6.655-5.226 8.6-7.146c3.25-2.76 6.49-5.435 9.74-8.4l6.978-6.406 1.62-1.745c2.76-2.76 5.6-5.643 8.6-8.642l2.602-2.925c12.82-13.345 25.725-28.8 38.944-46.374C1128.81 2289.15 1587.19 1391.007 1424.904 617.95m-679.497 542.935c-214.218 0-388.278-184.72-388.278-412.49 0-227.813 174.06-412.625 388.277-412.625 214.542 0 388.52 184.812 388.52 412.624 0 227.77-173.978 412.49-388.52 412.49"/></symbol><symbol id="shape-icon-promo-flat" viewBox="0 0 134 138"><title>forme_plate</title><path d="M.03 0L0 128.344C0 139.462 10.37 137 10.37 137s107.858-13.52 114.123-14.8c7.72-1.577 9.226-9.216 9.226-9.216V.084L.03 0z"/></symbol><symbol id="shape-icon-promo-round" viewBox="0 0 134 148"><title>forme_ronde</title><path d="M133.72 10.083C133.72-.062 124.03 0 124.03 0h-114s-10-.082-10 10L0 138.344C0 149.462 10.37 147 10.37 147s107.858-13.52 114.123-14.8c7.72-1.577 9.226-9.216 9.226-9.216v-112.9"/></symbol><symbol id="shape-icon-r-check" viewBox="0 0 56 41"><title>Rectangle 62</title><path d="M20.927 40.077c.768 0 1.536-.29 2.12-.876L54.166 8.085c1.174-1.174 1.17-3.07-.002-4.24l-2.828-2.83c-1.168-1.167-3.07-1.172-4.24 0L20.928 27.177 8.907 15.158c-1.17-1.17-3.07-1.172-4.243 0l-2.828 2.827c-1.168 1.168-1.172 3.072 0 4.243l16.97 16.97c.584.585 1.352.877 2.12.878z" fill-rule="evenodd"/></symbol><symbol id="shape-icon-recycling" viewBox="0 0 65.3 81"><path fill="#fff" d="M44.8 18.9c.3.1 1.2.3 1.2.5V4.9C46 2.2 43.5 0 40.8 0H4C1.3 0 0 2.2 0 4.9v71.2C0 78.8 1.3 81 4 81h36.8c2.7 0 5.2-2.2 5.2-4.9V56.9c-1 .2-2.6.3-3.9.3H41V66H4V7h37v11c2 .2 2.6.5 3.8.9M22.5 68.7c2 0 3.7 1.6 3.7 3.7 0 2-1.6 3.7-3.7 3.7-2 0-3.7-1.6-3.7-3.7s1.6-3.7 3.7-3.7M26.6 5h-7.4c-.6 0-1.2-.8-1.2-1.5S18.6 2 19.3 2h7.4c.7 0 1.2.8 1.2 1.5S27.3 5 26.6 5"/><path fill="#fff" d="M62.3 34.8C60 37 57.8 39 55.6 41.1c.8.2 1.4.5 2.2.7-2 2.8-4.4 4.9-7.3 6.6.2-.3.4-.6.7-.9 5.2-5.8 5.8-14.4 1.1-20.6-2.6-3.4-6-5-7.7-5.6-5.1-1.8-10-1.1-14.9.9-4.7 2-8.6 5-11.8 9-.3.4-.6.5-1.1.4-.6-.2-1.2-.3-1.9-.6 1 3.1 2 6.1 3 9.1 2.3-2.2 4.5-4.2 6.7-6.3-.8-.3-1.4-.5-2.2-.7 2-2.8 4.4-4.9 7.3-6.5-.2.3-.4.5-.7.8-5.7 6.6-5.5 15.9.3 22.2 1 1.1 3.9 3.2 6.2 4 5.1 1.8 11.3 1.5 16.2-.6 4.6-2 7.3-5.3 10.5-9.2.4-.5.8-.6 1.4-.4.5.2 1.1.3 1.8.5-1.1-3.1-2.1-6.1-3.1-9.1m-16.8.2l-.5 2h-8v2h7.5l-.5 2h-6.7c.2 2 .6 2.1 1.1 2.7 1 1.2 2.3 1.9 3.9 1.9 1.9 0 3.6-.5 4.6-1.6v4.5c-1 .6-2.8 1-4.5 1-2.9 0-5.3-1.2-7.1-3.2-1.3-1.3-2.1-3.2-2.5-5.2h-2.2l.5-2h1.5v-.8-1.2h-1.9l.5-2H33c.4-2 1.2-3.6 2.5-5 1.9-2 4.3-3 7.3-3 1.7 0 3.1.3 4.3.9l-1 4c-.8-.8-2.1-1.3-3.7-1.3s-2.9.6-3.9 1.8c-.6.7-1 1.5-1.2 2.5h8.2z"/></symbol><symbol id="shape-icon-sim" viewBox="0 0 24 33"><title>icon-sim@1x</title><g fill-rule="evenodd"><path d="M13.635 1.572l-11.774.03c-.222 0-.433.083-.593.237-.16.153-.246.354-.245.567l.07 28.413c.004.443.38.803.843.802v.438l.002-.437 19.42-.046c.463 0 .84-.363.838-.805l-.052-20.18c0-.572-.352-1.45-.752-1.878L15.455 2.35c-.387-.414-1.237-.776-1.82-.778M1.937 32.5c-.97 0-1.757-.753-1.758-1.678L.103 2.41c0-.447.182-.87.514-1.19C.95.9 1.39.725 1.86.724L13.63.695c.848 0 1.948.47 2.508 1.07l5.937 6.365c.55.59.984 1.67.986 2.462l.052 20.177c.003.926-.785 1.683-1.754 1.686L1.936 32.5"/><path d="M13.67 18.555l-.02-4.272-4.366.02.02 4.27 4.367-.018"/><path d="M18.685 19.057l-4.74.023c-.01 0-.017-.004-.026-.004l-4.886.023c-.15 0-.274-.12-.273-.262l-.023-4.533-1.228.005c-1.73.008-3.13 1.36-3.122 3.016l.027 5.874 14.29-.063-.02-4.08"/><path d="M18.682 18.535l-.006-1.272c-.008-1.656-1.423-2.995-3.15-2.988l-1.232.006.02 4.273 4.368-.018M9.43 23.7l.02 4.27 4.215-.018-.02-4.272-4.215.02M18.706 23.658l-4.416.02.022 4.27 1.28-.006c1.726-.006 3.13-1.358 3.12-3.01l-.006-1.274M4.418 23.72l.006 1.27c.01 1.657 1.42 2.996 3.15 2.99l1.18-.007-.02-4.272-4.316.02"/></g></symbol><symbol id="shape-icon-simcard" viewBox="0 0 995 768"><path d="M734.487 724.576V131.7c0-11.214-4.552-21.343-11.887-28.686L624.146 14.74c-7.354-7.344-17.486-11.88-28.683-11.88H288.176c-2.8 0-5.542.286-8.192.827-2.613.546-5.17 1.348-7.595 2.36-4.872 2.058-9.238 5.03-12.896 8.69-7.333 7.344-11.868 17.496-11.868 28.688v681.15c0 22.406 18.157 40.562 40.55 40.562H693.92c22.41.002 40.567-18.155 40.567-40.56zM583.97 168.724c34.187.01 61.88 27.74 61.88 61.917v33.348l-71.695-.032.02-95.23h9.794zm-33.814-.014l-.02 95.208-47.062.014.056-95.245 47.026.023zm-71.098 95.23l-47.044-.03V168.7l47.062.01-.018 95.23zM336.303 479.987l-.02-249.406c.038-34.233 27.693-61.894 61.918-61.903H408l-.018 100.755v18.544h237.87V480.01l-309.547-.024zm61.822 119.29c-34.224.015-61.898-27.74-61.86-61.962l-.02-33.314 71.715.012-.038 95.28-9.797-.015zm33.814-.008l.074-95.223 46.97-.033v95.303l-47.045-.047zm71.134.023l-.037-95.245 47.007.016.037 95.255-47.006-.024zm70.987.01l.057-95.263 71.658.033.036 33.328c0 34.186-27.747 61.926-61.934 61.926l-9.815-.023z"/></symbol></svg>