<svg xmlns="http://www.w3.org/2000/svg" xmlns:xlink="http://www.w3.org/1999/xlink"><defs><path id="shape-icon-rounded-advisor-a" d="M0 0h70.272v78.882H0z"/><clipPath id="shape-icon-rounded-advisor-b"><use xlink:href="#shape-icon-rounded-advisor-a" overflow="visible"/></clipPath></defs><symbol id="shape-icon-big-smartphone" viewBox="0 0 20.332 35"><path d="M17.968 0H2.364C1.064 0 0 1.063 0 2.364v30.27C0 33.937 1.064 35 2.364 35h15.604c1.3 0 2.364-1.063 2.364-2.364V2.364c0-1.3-1.064-2.364-2.364-2.364zM7.67 1.704h4.992c.158 0 .286.128.286.287 0 .16-.128.287-.286.287H7.67c-.158 0-.286-.128-.286-.286 0-.158.128-.286.286-.286zm2.496 32.114c-.653 0-1.182-.53-1.182-1.182 0-.653.53-1.182 1.182-1.182s1.182.53 1.182 1.182c0 .653-.53 1.182-1.182 1.182zm8.52-3.193H1.647V3.75h17.04v26.875z"/></symbol><symbol id="shape-icon-cancel" viewBox="0 0 512 512"><path d="M479.8 131.01L376.026 27.164 256 147.19 136.012 27.164 32.202 131.01l120.026 119.952L32.2 370.987l103.812 103.848L256 354.808l120.026 120.027L479.8 370.987 359.81 250.962 479.8 131.01z"/></symbol><symbol id="shape-icon-check" viewBox="0 0 512 512"><path d="M432 64L192 304 80 192 0 272l192 192 320-320-80-80z"/></symbol><symbol id="shape-icon-click-to-chat" viewBox="0 0 139.5 81.1"><path d="M47.8 6.8c23.1 0 41.9 13.8 41.9 30.8S71 68.4 47.8 68.4a51.76 51.76 0 0 1-9.8-.9 28 28 0 0 1-17.6 6.6 13.4 13.4 0 0 1-2-.1c-2.5-.2-3.5-1.1-1.5-1.8 3.6-1.3 5.7-5.7 6.9-9.4C13.8 57.7 7 49.5 6 40.1v-4.8C7.7 19.4 25.7 6.8 47.8 6.8m0-6.8C22.6 0 2.1 14.8 0 34.5v6.4c1 9.6 6.5 18.3 15.3 24.6a1.38 1.38 0 0 0-.4.3A7.72 7.72 0 0 0 9.7 74c.2 1.9 1.4 6.4 8.1 7a20.9 20.9 0 0 0 2.5.1 33.84 33.84 0 0 0 19.1-6.3 59.32 59.32 0 0 0 8.4.6c26.9 0 47.9-16.5 47.9-37.7S74.6 0 47.8 0"/><path d="M51.1 53.4v1.1a3.4 3.4 0 1 1-6.8 0v-1.1a3.4 3.4 0 0 1 6.8 0m-2.3-35.6a15.91 15.91 0 0 0-12.3 5.5 2.83 2.83 0 0 0-.9 2c0 2.2 2.6 3.7 4.8 1.8a10.84 10.84 0 0 1 8.3-4c4.2 0 7.1 2.6 7.1 6.3 0 5.3-5.4 6.5-8.6 6.7a2.47 2.47 0 0 0-2.3 2.7l.6 6.1a2.35 2.35 0 0 0 2.2 2.1h.2a2.36 2.36 0 0 0 2.2-2.2l.3-4c7.2-1.2 11.3-5.4 11.3-11.7 0-6.6-5.3-11.3-12.9-11.3M139.3 50.6a4.33 4.33 0 0 1 .1-.5c-1.3-12.8-14.7-22.5-31.1-22.5a36.07 36.07 0 0 0-10 1.3 32.27 32.27 0 0 1 1.9 10.8c0 11.4-6 21.5-15.7 28.5 5.7 5.3 14.2 8.6 23.9 8.6a34.76 34.76 0 0 0 5.5-.4c8.6 6.9 19.1 4.2 19.3 2.9-9.1-1.2-3.5-8.9-3.6-8.9 5.7-3.4 9.2-9.8 9.9-16.1 0-.2-.1-.3-.1-.5v-3.2zm-34.9 5.6a3.2 3.2 0 1 1 3.2-3.2 3.1 3.1 0 0 1-3.2 3.2m9.2 0a3.2 3.2 0 1 1 3.2-3.2 3.22 3.22 0 0 1-3.2 3.2m9.1 0a3.2 3.2 0 1 1 3.2-3.2 3.16 3.16 0 0 1-3.2 3.2"/></symbol><symbol id="shape-icon-need-help" viewBox="0 0 95.5 80.9"><path d="M47.8 6.8c22 0 40 12.5 41.7 28.4V40c-1 9.4-7.7 17.6-17.6 22.7 1.2 3.7 3.3 8.1 6.9 9.4 2 .7 1 1.6-1.5 1.8a14.08 14.08 0 0 1-2 .1 27.53 27.53 0 0 1-17.5-6.6 52.54 52.54 0 0 1-9.8.9c-23.3.1-42-13.7-42-30.7S24.7 6.8 47.8 6.8m0-6.8C21 0 0 16.5 0 37.6s21 37.6 47.8 37.6a61.49 61.49 0 0 0 8.4-.6 33.46 33.46 0 0 0 19 6.3 21.75 21.75 0 0 0 2.5-.1c6.7-.5 7.9-5 8.1-6.9a7.72 7.72 0 0 0-5.2-8.2.54.54 0 0 1-.4-.3c8.8-6.3 14.3-15 15.3-24.6v-6.4C93.4 14.8 72.9 0 47.8 0"/><path d="M63.7 38H31.9a1.7 1.7 0 0 0 0 3.4h31.8a1.69 1.69 0 0 0 1.7-1.7 1.75 1.75 0 0 0-1.7-1.7M63.7 50.1H31.8a1.7 1.7 0 0 0 0 3.4h31.9a1.7 1.7 0 1 0 0-3.4M31.8 29.5h31.9a1.7 1.7 0 0 0 0-3.4H31.8a1.7 1.7 0 1 0 0 3.4"/></symbol><symbol id="shape-icon-rounded-advisor" viewBox="0 0 70.272 78.882"><path clip-path="url(#shape-icon-rounded-advisor-b)" d="M70.242 70.79l-.005-.128v-.112c-.684-16.366-9.656-28.075-23.704-32.108 5.727-3.737 9.524-10.19 9.524-17.523 0-7.51-6.99-20.92-20.92-20.92C23.598 0 14.21 9.384 14.21 20.92c0 7.488 3.97 14.054 9.904 17.752C10.77 43.054.952 55.16.074 69.892c-.048.287-.074.59-.074.893v2.452c0 3.12 2.526 5.645 5.643 5.645H64.6c3.04 0 5.535-2.408 5.638-5.45l.005-.166c.018-.41.03-.822.03-1.242 0-.415-.013-.827-.03-1.234M19.858 20.92c0-8.426 6.852-15.278 15.275-15.278 10.737 0 15.28 10.927 15.28 15.277 0 .085-.014.166-.016.252-2.023 2.655-5.1 3.783-7.68 4.22-.75-1.832-2.55-3.13-4.653-3.13-2.783 0-5.04 2.254-5.04 5.037 0 2.78 2.257 5.034 5.04 5.034 2.27 0 4.17-1.518 4.8-3.588 1.377-.216 3.964-1.03 6.377-1.98-2.298 5.53-7.754 9.432-14.11 9.432-8.422 0-15.275-6.854-15.275-15.28M64.6 73.243v-.005H5.644v-2.452h.034c.65-15.713 13.585-28.253 29.458-28.253 15.995 0 28.694 9.61 29.464 28.253h.002v.02c.012.407.03.81.03 1.22-.002.405-.02.812-.03 1.217"/></symbol><symbol id="shape-icon-sim" viewBox="0 0 24 33"><title>icon-sim@1x</title><g fill-rule="evenodd"><path d="M13.635 1.572l-11.774.03c-.222 0-.433.083-.593.237-.16.153-.246.354-.245.567l.07 28.413c.004.443.38.803.843.802v.438l.002-.437 19.42-.046c.463 0 .84-.363.838-.805l-.052-20.18c0-.572-.352-1.45-.752-1.878L15.455 2.35c-.387-.414-1.237-.776-1.82-.778M1.937 32.5c-.97 0-1.757-.753-1.758-1.678L.103 2.41c0-.447.182-.87.514-1.19C.95.9 1.39.725 1.86.724L13.63.695c.848 0 1.948.47 2.508 1.07l5.937 6.365c.55.59.984 1.67.986 2.462l.052 20.177c.003.926-.785 1.683-1.754 1.686L1.936 32.5"/><path d="M13.67 18.555l-.02-4.272-4.366.02.02 4.27 4.367-.018"/><path d="M18.685 19.057l-4.74.023c-.01 0-.017-.004-.026-.004l-4.886.023c-.15 0-.274-.12-.273-.262l-.023-4.533-1.228.005c-1.73.008-3.13 1.36-3.122 3.016l.027 5.874 14.29-.063-.02-4.08"/><path d="M18.682 18.535l-.006-1.272c-.008-1.656-1.423-2.995-3.15-2.988l-1.232.006.02 4.273 4.368-.018M9.43 23.7l.02 4.27 4.215-.018-.02-4.272-4.215.02M18.706 23.658l-4.416.02.022 4.27 1.28-.006c1.726-.006 3.13-1.358 3.12-3.01l-.006-1.274M4.418 23.72l.006 1.27c.01 1.657 1.42 2.996 3.15 2.99l1.18-.007-.02-4.272-4.316.02"/></g></symbol><symbol id="shape-icon-timer-clock" viewBox="28.285 30.296 52.993 50.842"><path d="M54.78 40.368c-11.27 0-20.384 9.113-20.384 20.385 0 11.27 9.114 20.385 20.384 20.385 11.272 0 20.386-9.113 20.386-20.385 0-11.272-9.113-20.385-20.386-20.385m.72 37.413v-2.878h-1.678v2.64c-8.634-.48-15.35-7.437-15.828-16.068h2.397v-1.68h-2.396c.48-8.633 7.194-15.588 15.828-16.068v2.64h1.68v-2.64c8.87.24 15.828 7.436 16.307 16.067h-2.64v1.68h2.64c-.48 8.872-7.676 15.827-16.31 16.308M51.663 37.01h1.44v2.158h3.117V37.01h1.438c.48 0 .96-.48.96-.96v-4.795c0-.48-.478-.96-.96-.96h-5.995c-.48 0-.96.48-.96.96v4.796c0 .48.48.96.96.96"/><path d="M37.034 45.884c.24.24.72.24.96 0l.72-.72 1.198 1.2 1.438-1.44-1.198-1.198.72-.72c.24-.24.24-.72 0-.96l-2.398-2.397c-.24-.24-.72-.24-.96 0l-2.877 2.877c-.24.24-.24.72 0 .96l2.397 2.397zM69.65 46.124l1.2-1.2.718.72c.24.24.72.24.96 0l2.397-2.398c.24-.24.24-.72 0-.96l-2.88-2.876c-.237-.24-.718-.24-.958 0l-2.397 2.397c-.24.24-.24.72 0 .96l.72.72-1.2 1.198 1.44 1.44zM62.935 51.4c-.24-.24-.48-.24-.72-.24s-.48.24-.72.24l-7.674 8.393c-.24.24-.24.48-.24.96 0 .24.24.48.48.72s.48.24.96.24c.238 0 .48 0 .72-.24l7.672-8.394c.24-.24.24-.48.24-.96l-.717-.72"/></symbol></svg>