<svg xmlns="http://www.w3.org/2000/svg"><symbol id="shape-icon-arrow-d" viewBox="0 0 64 64"><path d="M5.85 14.572l-4.032 3.934 30.22 30.978 30.085-31.11-4.05-3.916L32.02 41.395"/></symbol><symbol id="shape-icon-arrow-u" viewBox="0 0 64 64"><path d="M58.092 49.37l4.03-3.933-30.218-30.98-30.086 31.11 4.05 3.917L31.92 22.548"/></symbol><symbol id="shape-icon-check" viewBox="0 0 512 512"><path d="M432 64L192 304 80 192 0 272l192 192 320-320-80-80z"/></symbol><symbol id="shape-icon-warning" viewBox="0 0 88.2 81"><path d="M86.3 58.3l-28.1-49C54.7 3.4 49.5 0 44.1 0c-4.3 0-8.4 2.1-11.7 6-.9 1.1-1.7 2.2-2.5 3.5L24.4 19 2.9 56.2c-3.5 6-3.9 12.4-1.1 17.2 2.8 4.8 8.4 7.7 15.3 7.7H71c7 0 12.6-2.9 15.3-7.7 2.5-4.3 2.5-9.8 0-15.1M44.1 69.2c-2.8 0-5.1-2.3-5.1-5.1s2.3-5.1 5.1-5.1 5.1 2.3 5.1 5.1-2.3 5.1-5.1 5.1M45.2 55h-2.3c-3.1-19-4.7-28.7-4.7-30.2 0-1.8.6-3.2 1.8-4.3 1.2-1.1 2.5-1.7 4-1.7 1.6 0 3 .6 4.1 1.8 1.1 1.2 1.7 2.5 1.7 4.1.1 1.5-1.4 11.3-4.6 30.3"/></symbol></svg>