<svg xmlns="http://www.w3.org/2000/svg" xmlns:xlink="http://www.w3.org/1999/xlink"><defs><path id="shape-icon-cb-white-a" d="M47 43.666h65.333v36H47z"/><clipPath id="shape-icon-cb-white-f"><use xlink:href="#shape-icon-cb-white-a" overflow="visible"/></clipPath><path id="shape-icon-cb-white-b" d="M47 43.666h65.333v36H47z"/><clipPath id="shape-icon-cb-white-g"><use xlink:href="#shape-icon-cb-white-b" overflow="visible"/></clipPath><path id="shape-icon-cb-white-c" d="M47 43.666h65.333v36H47z"/><clipPath id="shape-icon-cb-white-h"><use xlink:href="#shape-icon-cb-white-c" overflow="visible"/></clipPath><path id="shape-icon-cb-white-d" d="M47 43.666h65.333v36H47z"/><clipPath id="shape-icon-cb-white-i"><use xlink:href="#shape-icon-cb-white-d" overflow="visible"/></clipPath><path id="shape-icon-cb-white-e" d="M47 43.666h65.333v36H47z"/><clipPath id="shape-icon-cb-white-j"><use xlink:href="#shape-icon-cb-white-e" overflow="visible"/></clipPath></defs><symbol id="shape-icon-cb-white" viewBox="28.551 18.282 103.394 64.333"><path fill="#FFF" d="M131.944 25.84v31.607c-1.196-.197-2.417-.328-3.668-.328-.312 0-.616.034-.927.048v-31.33c0-1.585-2.644-2.962-4.224-2.962H37c-1.58 0-3.85 1.382-3.85 2.962v48.345c0 1.586 2.27 3.836 3.85 3.836h68.964c-.035.492-.075.983-.075 1.483 0 1.06.097 2.092.24 3.11h-69.13c-4.103 0-8.444-4.333-8.444-8.432V25.84c0-4.326 4.457-7.558 8.445-7.558H123.505c3.983 0 8.44 3.232 8.44 7.557"/><path fill="#FFF" d="M105.91 43.42v-.007H82.76v12.74h23.15v-.01c3.504-.01 6.346-2.857 6.346-6.366 0-3.507-2.842-6.35-6.346-6.357M105.91 28.647H82.76v12.73h23.15v-.01c3.504 0 6.346-2.848 6.346-6.36 0-3.51-2.842-6.358-6.346-6.36M81.057 41.376v-1.068c0-6.396-5.193-11.577-11.584-11.577H58.667c-6.39 0-11.57 5.182-11.57 11.578v4.354c0 6.387 5.18 11.57 11.57 11.57h10.806c6.39 0 11.584-5.184 11.584-11.57V43.42H64.05v-2.044h17.007z"/><path fill="#FFF" d="M43.8 18.282H37c-3.988 0-8.446 3.23-8.446 7.557V74.183c0 4.098 4.343 8.432 8.446 8.432h69.128c-.143-1.02-.24-2.053-.24-3.11 0-.5.042-.99.076-1.484H36.998c-1.58 0-3.85-2.252-3.85-3.836V25.84c0-1.58 2.27-2.964 3.85-2.964H123.13c1.58 0 4.22 1.378 4.22 2.963v31.33c.31-.015.615-.05.93-.05 1.25 0 2.47.13 3.666.33V25.84c0-4.326-4.455-7.558-8.44-7.558H43.8z"/><path fill="#FFF" d="M116.695 82.614h6.803c3.988 0 8.446-3.23 8.446-7.557V26.713c0-4.098-4.343-8.43-8.446-8.43h-69.13c.144 1.018.24 2.05.24 3.11 0 .5-.04.99-.074 1.483h68.963c1.58 0 3.85 2.252 3.85 3.836V75.058c0 1.58-2.27 2.963-3.85 2.963H37.368c-1.58 0-4.22-1.377-4.22-2.962v-31.33c-.312.014-.616.05-.93.05-1.25 0-2.47-.13-3.667-.33v31.61c0 4.325 4.457 7.558 8.442 7.558h79.703v-.002z"/><g clip-path="url(#shape-icon-cb-white-f)"><path fill="none" stroke="#FFF" stroke-width="4.5" stroke-linecap="round" stroke-linejoin="round" stroke-miterlimit="10" d="M47.667 63.333c6.015 0 6.015 8 12.028 8 6.015 0 6.015-8 12.03-8 6.013 0 6.013 8 12.026 8 6.016 0 6.016-8 12.03-8 6.014 0 6.014 8 12.028 8 6.013 0 6.013-8 12.024-8 6.015 0 6.015 8 12.028 8 6.017 0 6.017-8 12.033-8 6.015 0 6.015 8 12.028 8 6.02 0 6.02-8 12.038-8 6.018 0 6.02 8 12.037 8"/></g></symbol><symbol id="shape-icon-hand" viewBox="0 0 97.333 161.246"><path fill="#FD9B67" d="M10.672 121.37H8.82c-3.41 0-6.172-2.817-6.172-6.29v-36.5c0-3.476 2.762-6.292 6.17-6.292h1.855c3.407 0 6.168 2.816 6.168 6.292v36.5c0 3.473-2.763 6.29-6.168 6.29z"/><path fill="#FD9B67" d="M10.67 121.37H8.82c-3.41 0-6.174-2.817-6.174-6.29 0 0-1.772-14.742-1.772-24.402 0-9.663.393-27.268 1.772-33.39C4.03 51.16 5.41 50.992 8.82 50.992h1.852c3.407 0 6.168 2.815 6.168 6.294v57.79c0 3.476-2.763 6.293-6.17 6.293zM26.535 126.69h-2.237c-4.12 0-7.458-3.43-7.458-7.657v-44.42c0-4.23 3.336-7.658 7.458-7.658h2.236c4.117 0 7.455 3.428 7.455 7.658v44.42c0 4.23-3.34 7.656-7.455 7.656z"/><path fill="#FD9B67" d="M38.225 117.283H35.85c-4.376 0-7.923-3.602-7.923-8.04V62.61c0-4.44 3.547-8.04 7.922-8.04h2.375c4.375 0 7.923 3.6 7.923 8.04v46.633c0 4.44-3.548 8.04-7.923 8.04zM61.316 159.213h-2.273c-4.18 0-7.568-3.417-7.568-7.633V61.567c0-4.215 3.387-7.63 7.568-7.63h2.272c4.18 0 7.57 3.417 7.57 7.63v90.013c-.003 4.218-3.39 7.633-7.57 7.633z"/><path fill="#FFF" d="M67.1 152.62v1.955c0 2.9-2.565 5.25-5.728 5.25h-1.72c-3.168 0-5.73-2.347-5.73-5.25v-1.955c-.005-2.897 13.18-2.897 13.18 0z"/><path fill="#FFB795" d="M67.1 151.996v1.582c0 2.898-2.565 5.25-5.728 5.25H59.65c-3.166 0-5.73-2.348-5.73-5.25v-1.582c-.003-2.9 13.18-2.9 13.18 0z"/><path fill="#FD9B67" d="M37.446 158.908l-2.217-.29c-4.084-.54-6.95-4.357-6.397-8.538L40.56 60.832c.548-4.177 4.306-7.13 8.386-6.593l2.22.29c4.084.54 6.948 4.36 6.398 8.536l-11.73 89.25c-.55 4.177-4.306 7.13-8.388 6.592z"/><path fill="#FFF" d="M43.955 153.12l-.255 1.933c-.378 2.877-3.19 4.877-6.28 4.47l-1.682-.216c-3.09-.412-5.29-3.068-4.913-5.94l.254-1.94c.38-2.877 13.254-1.182 12.875 1.692z"/><path fill="#FFB49C" d="M44.038 152.5l-.206 1.566c-.377 2.875-3.188 4.877-6.28 4.473l-1.68-.222c-3.09-.408-5.292-3.067-4.915-5.94l.205-1.573c.378-2.87 13.253-1.18 12.876 1.695z"/><path fill="#FD9B67" d="M81.22 100.47l-2.112.566c-3.895 1.04-7.897-1.263-8.94-5.144L62.994 69.19c-1.045-3.882 1.266-7.87 5.16-8.91l2.112-.564c3.894-1.04 7.897 1.263 8.938 5.144l7.178 26.7c1.044 3.883-1.264 7.874-5.16 8.91z"/><path fill="#FD9B67" d="M72.527 64.327h-62.6c-4.02 0-7.28-1.32-7.28-7.26 0-5.94 7.28-15.974 7.28-15.974 2.5-5.352 3.26-7.26 7.278-7.26H65.25c4.02 0 4.645 2.25 7.278 7.26 0 0 7.28 10.948 7.28 15.974 0 5.028-3.26 7.26-7.28 7.26z"/><path fill="#FD9B67" d="M72.527 83.206h-62.6c-4.02 0-7.28-3.25-7.28-7.262V59.97c0-4.008 3.26-7.26 7.28-7.26h62.6c4.022 0 7.28 3.252 7.28 7.26v15.975c0 4.01-3.258 7.26-7.28 7.26z"/><path fill="#FD9B67" d="M84.27 84.11c3.154 11.434 9.268 13.406 11.24 18.925 1.972 5.52-14.196 17.55-24.25-4.14-2.602-5.596-4.142-14.196-4.142-14.196l4.14-10.054c0-.002 9.86-1.97 13.012 9.463z"/><path fill="#FFF" d="M9.152 27.918h64.472v11.83H9.152z"/><path fill="#009ECE" d="M79.54 31.467H3.24V-51.34S10.595-75 41.353-75 79.54-51.34 79.54-51.34v82.807z"/><path fill="#0055A2" d="M70.668-15.85h2.366v47.317h-2.366z"/></symbol><symbol id="shape-icon-maintenance" viewBox="0 0 440.473 240.158"><path fill="#F2D500" d="M207.49 0c20.772 0 37.606 16.836 37.606 37.605v164.948c0 20.768-16.835 37.604-37.605 37.604-20.768 0-37.604-16.837-37.604-37.604V37.605C169.886 16.835 186.723 0 207.49 0z"/><g fill="#009DCC"><path stroke="#F2D500" stroke-width="2" stroke-miterlimit="10" d="M198.566 180.084h18.558v18.557h-18.558z"/><path d="M234.325 189.897c2.25 0 4.076 1.14 4.076 2.547 0 1.404-1.824 2.545-4.075 2.545h-52.96c-2.25 0-4.075-1.142-4.075-2.546 0-1.406 1.824-2.547 4.074-2.547h52.96z"/><path stroke="#F2D500" stroke-width="2" stroke-miterlimit="10" d="M167.874 178.128c5.934 0 10.744 4.81 10.744 10.747v8.79c0 5.934-4.81 10.745-10.744 10.745-5.936 0-10.746-4.812-10.746-10.744v-8.79c0-5.938 4.81-10.748 10.746-10.748zM246.016 178.128c5.934 0 10.744 4.81 10.744 10.747v8.79c0 5.934-4.81 10.745-10.744 10.745-5.935 0-10.745-4.812-10.745-10.744v-8.79c0-5.938 4.81-10.748 10.746-10.748z"/></g><g fill="#009DCC"><path stroke="#F2D500" stroke-width="2" stroke-miterlimit="10" d="M198.566 36.63h18.558v18.56h-18.558z"/><path d="M234.325 39.118c2.25 0 4.076 1.14 4.076 2.548 0 1.404-1.824 2.545-4.075 2.545h-52.96c-2.25 0-4.075-1.14-4.075-2.544 0-1.407 1.824-2.548 4.074-2.548h52.96z"/><path stroke="#F2D500" stroke-width="2" stroke-miterlimit="10" d="M167.874 27.35c5.934 0 10.744 4.81 10.744 10.746v8.792c0 5.934-4.81 10.744-10.744 10.744-5.936 0-10.746-4.81-10.746-10.744v-8.792c0-5.935 4.81-10.746 10.746-10.746zM246.016 27.35c5.934 0 10.744 4.81 10.744 10.746v8.792c0 5.934-4.81 10.744-10.744 10.744-5.935 0-10.745-4.81-10.745-10.744v-8.792c0-5.935 4.81-10.746 10.746-10.746z"/></g><path fill="#F2D500" d="M283.616 36.932l-27.182 3.37v4.18l26.176 2.363 15.87.107h120.765V36.786H297.813"/><path fill="#F2D500" d="M434.51 20.582c3.352-.048 6.025 3.48 5.962 7.89l-.345 24.385c-.067 4.41-2.843 8.018-6.195 8.066l-95.336 1.364c-3.36.048-6.03-3.48-5.968-7.892l.35-24.385c.064-4.408 2.836-8.02 6.195-8.063l95.336-1.365z"/><path fill="#009DCC" d="M423.43 36.7c1.98-.028 3.556 2.03 3.515 4.6-.032 2.576-1.667 4.683-3.643 4.71l-72.888 1.044c-1.977.028-3.552-2.033-3.516-4.607.037-2.573 1.673-4.675 3.648-4.704L423.43 36.7zM346.612 63.442v-1c.043-2.57 1.673-4.68 3.648-4.704l72.888-1.043c1.976-.034 3.55 3.03 3.514 5.6M427.57 19.4v1c-.032 2.573-1.666 4.682-3.643 4.71l-72.887 1.042c-1.977.028-3.553-3.034-3.516-5.607"/><path fill="#F2D500" stroke="#009DCC" stroke-width="2" stroke-linecap="round" stroke-linejoin="round" stroke-miterlimit="10" d="M137.92 207.677V179.74c0-1.4 1.134-2.532 2.532-2.532h32.39c-5.6-9.288-15.784-15.5-27.42-15.5-13.24 0-24.598 8.04-29.466 19.5h-58.07c-4.868-11.46-16.227-19.5-29.465-19.5-11.636 0-21.82 6.212-27.42 15.5h33.39c1.398 0 2.53 1.133 2.53 2.53v27.94c0 1.397-1.132 2.53-2.53 2.53H1c5.6 9.288 15.784 15.5 27.42 15.5 12.85 0 23.922-7.575 29.015-18.5h58.973c5.093 10.925 16.166 18.5 29.014 18.5 11.637 0 21.82-6.212 27.42-15.5h-32.39c-1.398 0-2.53-1.133-2.53-2.53z"/></symbol><symbol id="shape-icon-phone-404-left-big" viewBox="0 0 109.761 189.969"><path fill="#0055A4" d="M54.898 178.337c-4.483-.297-8.026-4.032-8.026-8.604 0-4.575 3.54-8.312 8.026-8.608v-6.336H11.676V16.416h43.222v-4.69h-8.026c-1.583 0-2.87-1.928-2.87-3.518 0-1.59 1.29-3.52 2.87-3.52h8.026V0h-43.28C5.285 0 0 5.117 0 11.423v167.12c0 6.314 5.286 11.426 11.617 11.426h43.28v-11.633z"/></symbol><symbol id="shape-icon-phone-404-left" viewBox="0 0 50.703 173.229"><path fill="#0055A4" d="M50.703 162.544c-4.305-.054-7.775-3.56-7.775-7.87 0-4.314 3.47-7.817 7.775-7.87v-5.754H10.695V14.87h40.008v-4.276h-7.775c-1.448 0-2.63-1.76-2.63-3.208 0-1.45 1.184-3.208 2.63-3.208h7.775V-.1H10.64C4.84-.1 0 4.567 0 10.317v152.396c0 5.754 4.84 10.417 10.64 10.417h40.063v-10.586z"/></symbol><symbol id="shape-icon-phone-404-right-big" viewBox="0 0 109.761 189.969"><path fill="#0055A4" d="M109.76 11.423C109.76 5.117 104.78 0 98.443 0H54.88v4.69h9.19c1.58 0 2.87 1.928 2.87 3.52 0 1.59-1.29 3.517-2.87 3.517h-9.19v4.69h43.203v138.37H54.88v6.338c.197-.014.393-.03.592-.03 4.746 0 8.6 3.868 8.6 8.638 0 4.767-3.854 8.634-8.6 8.634-.2 0-.395-.017-.59-.03v11.633h43.565c6.333 0 11.313-5.11 11.313-11.425V11.423z"/></symbol><symbol id="shape-icon-phone-404-right" viewBox="0 0 50 173.229"><path fill="#0055A4" d="M49.998 10.417C49.998 4.667 45.436 0 39.638 0H0v4.277h8.155c1.45 0 2.627 1.757 2.627 3.208 0 1.45-1.178 3.208-2.627 3.208H0v4.277h39.307v126.18H0v5.763c.094-.004.187-.015.28-.015 4.35 0 7.876 3.528 7.876 7.875 0 4.348-3.527 7.876-7.875 7.876-.094 0-.187-.012-.28-.016v10.595h39.64c5.8 0 10.36-4.664 10.36-10.418V10.417h-.002z"/></symbol><symbol id="shape-icon-scene-hand" viewBox="-31.391 0 146.333 207.492"><path fill="#FFF" d="M47.006 188.74c39.094 0 15.19.167 29.7.167 7.995 0 16.414-2.95 23.502-6.447 6.495-3.203 15.43-8.226 13.806-16.925-1.152-6.168-7.537-9.45-13.306-9.967-7.776-.688-15.53 1.375-23.175 2.416-4.983.68-10.083.996-15.11.996H38.48 21.35c-5.03 0-10.13-.316-15.11-.996-7.647-1.04-15.398-3.104-23.176-2.416-5.767.516-12.15 3.8-13.305 9.967-1.627 8.7 7.31 13.72 13.805 16.925 7.087 3.496 15.506 6.447 23.5 6.447 14.512 0-9.392-.168 29.7-.168h10.24z"/><circle fill="#FFF" cx="1.653" cy="196.615" r="6.349"/><circle fill="#FFF" cx="75.761" cy="196.615" r="6.349"/><path opacity=".25" fill="#454545" d="M58.53 173.943L43.34 159.21h20.406l4.76 13.147M34.726 173.943l-15.19-14.734H39.94l4.76 13.147"/><g><path fill="#FD9B67" d="M11.8 137.37H9.945c-3.41 0-6.17-2.817-6.17-6.29v-36.5c0-3.476 2.76-6.292 6.17-6.292H11.8c3.407 0 6.168 2.816 6.168 6.292v36.5c0 3.473-2.764 6.29-6.17 6.29z"/><path fill="#FD9B67" d="M11.797 137.37h-1.85c-3.41 0-6.174-2.817-6.174-6.29 0 0-1.772-14.742-1.772-24.402 0-9.663.394-27.268 1.773-33.39 1.383-6.128 2.765-6.295 6.173-6.295H11.8c3.406 0 6.167 2.815 6.167 6.294v57.79c0 3.476-2.763 6.293-6.17 6.293zM27.662 142.69h-2.237c-4.12 0-7.458-3.428-7.458-7.657v-44.42c0-4.23 3.336-7.658 7.458-7.658h2.236c4.118 0 7.456 3.428 7.456 7.658v44.42c0 4.23-3.338 7.656-7.454 7.656z"/><path fill="#FD9B67" d="M39.352 133.283h-2.376c-4.375 0-7.922-3.6-7.922-8.04V78.61c0-4.44 3.547-8.04 7.922-8.04h2.376c4.375 0 7.923 3.6 7.923 8.04v46.633c0 4.44-3.548 8.04-7.923 8.04zM62.443 175.213H60.17c-4.18 0-7.568-3.417-7.568-7.633V77.567c0-4.215 3.387-7.63 7.568-7.63h2.272c4.18 0 7.57 3.417 7.57 7.63v90.013c-.003 4.218-3.39 7.633-7.57 7.633z"/><path fill="#FFF" d="M68.228 168.62v1.955c0 2.9-2.566 5.25-5.73 5.25h-1.72c-3.167 0-5.73-2.347-5.73-5.25v-1.955c-.004-2.898 13.18-2.898 13.18 0z"/><path fill="#FFB795" d="M68.228 167.996v1.582c0 2.9-2.566 5.25-5.73 5.25h-1.722c-3.165 0-5.73-2.348-5.73-5.25v-1.582c-.002-2.9 13.182-2.9 13.182 0z"/><path fill="#FD9B67" d="M38.573 174.908l-2.217-.29c-4.083-.54-6.95-4.357-6.396-8.538l11.727-89.248c.548-4.177 4.306-7.13 8.386-6.593l2.22.29c4.084.54 6.948 4.36 6.398 8.536l-11.73 89.25c-.55 4.177-4.305 7.13-8.387 6.592z"/><path fill="#FFF" d="M45.082 169.12l-.255 1.933c-.378 2.876-3.19 4.876-6.28 4.47l-1.682-.217c-3.09-.41-5.29-3.068-4.913-5.94l.254-1.94c.38-2.876 13.255-1.18 12.876 1.693z"/><path fill="#FFB49C" d="M45.165 168.5l-.206 1.567c-.378 2.875-3.19 4.877-6.28 4.472l-1.682-.222c-3.09-.408-5.29-3.067-4.914-5.94l.205-1.573c.377-2.872 13.252-1.18 12.875 1.695z"/><path fill="#FD9B67" d="M82.348 116.47l-2.113.566c-3.894 1.04-7.897-1.262-8.94-5.144L64.12 85.19c-1.045-3.882 1.266-7.87 5.16-8.91l2.112-.564c3.894-1.04 7.898 1.263 8.938 5.144l7.18 26.7c1.042 3.883-1.268 7.874-5.162 8.91z"/><path fill="#FD9B67" d="M73.654 80.327h-62.6c-4.02 0-7.28-1.32-7.28-7.26 0-5.94 7.28-15.974 7.28-15.974 2.5-5.352 3.26-7.26 7.278-7.26h48.045c4.02 0 4.645 2.25 7.278 7.26 0 0 7.28 10.948 7.28 15.974 0 5.028-3.258 7.26-7.28 7.26z"/><path fill="#FD9B67" d="M73.654 99.206h-62.6c-4.02 0-7.28-3.25-7.28-7.262V75.97c0-4.008 3.26-7.26 7.28-7.26h62.6c4.023 0 7.28 3.252 7.28 7.26v15.975c0 4.01-3.257 7.26-7.28 7.26z"/><path fill="#FD9B67" d="M85.397 100.11c3.155 11.434 9.268 13.405 11.24 18.925 1.972 5.52-14.196 17.55-24.25-4.14-2.602-5.595-4.142-14.196-4.142-14.196l4.14-10.054c0-.002 9.86-1.97 13.012 9.463z"/><path fill="#FFF" d="M10.28 43.918h64.47v11.83H10.28z"/><path fill="#009ECE" d="M80.666 47.467h-76.3V-35.34S11.72-59 42.48-59s38.186 23.66 38.186 23.66v82.807z"/><path fill="#0055A2" d="M71.795.15h2.366v47.317h-2.365z"/></g></symbol><symbol id="shape-icon-scene-server" viewBox="223.131 72.406 101.081 127.188"><path fill="#0055A4" d="M230.48 199.593c-6.124 0-7.35-2.676-7.35-8.7v-90.37c0-7.364 3.062-9.373 9.185-12.72 6.123-3.347 22.35-11.38 26.328-13.388 3.98-2.01 10.103-2.01 15.918-2.01h39.187s4.286 1.006.61 3.348c-3.67 2.343-16.53 7.363-22.04 10.71-5.51 3.348-9.185 3.683-9.185 16.736v85.014c0 6.023-2.755 11.38-12.245 11.38H230.48z"/><path fill="#0055A4" d="M294.824 192.9c-5.817 3.348-7.35 6.36-7.35-4.686v-84.347c0-8.367 1.837-10.71 7.96-14.057 6.123-3.347 18.676-9.707 23.267-12.05 4.593-2.343 5.512-4.35 5.512 5.355v84.345c0 6.024-1.838 10.043-6.123 12.72-4.286 2.678-17.448 9.374-23.266 12.72z"/><path fill="#009DCC" d="M231.163 110.563h41.504c.74 0 1.34.6 1.34 1.34v.668c0 .74-.6 1.34-1.34 1.34h-41.504c-.737 0-1.34-.6-1.34-1.34v-.668c0-.74.603-1.34 1.34-1.34zM231.163 123.95h41.504c.74 0 1.34.6 1.34 1.34v.67c0 .74-.6 1.34-1.34 1.34h-41.504c-.737 0-1.34-.6-1.34-1.34v-.67c0-.74.603-1.34 1.34-1.34zM231.163 137.337h41.504c.74 0 1.34.602 1.34 1.342v.668c0 .74-.6 1.34-1.34 1.34h-41.504c-.737 0-1.34-.6-1.34-1.34v-.67c0-.74.603-1.34 1.34-1.34z"/></symbol><symbol id="shape-icon-scene-skate" viewBox="49.814 133.098 144.643 47.532"><path fill="#FFF" d="M127.255 166.406c39.094 0 15.19.168 29.7.168 7.995 0 16.414-2.95 23.502-6.447 6.495-3.203 15.43-8.225 13.806-16.926-1.152-6.167-7.537-9.45-13.306-9.964-7.776-.69-15.53 1.375-23.175 2.416-4.983.678-10.083.996-15.11.996H118.73 101.6c-5.03 0-10.13-.318-15.11-.996-7.647-1.04-15.4-3.105-23.176-2.416-5.767.514-12.152 3.797-13.305 9.965-1.627 8.702 7.31 13.722 13.805 16.927 7.087 3.496 15.506 6.447 23.5 6.447 14.51 0-9.392-.168 29.7-.168h10.24z"/><circle fill="#FFF" cx="81.902" cy="174.282" r="6.349"/><circle fill="#FFF" cx="156.01" cy="174.282" r="6.349"/><path opacity=".25" fill="#454545" d="M138.78 151.61l-15.19-14.735h20.404l4.762 13.15M114.975 151.61l-15.19-14.735h20.404l4.76 13.15"/></symbol><symbol id="shape-icon-scene-splashes" viewBox="17.47 46.007 13.224 34.821"><path fill="#FFF" d="M29.345 50.614l.304.685-2.3 1.02s2.008 1.323 2.574 1.627l-.354.66c-.58-.31-2.426-1.524-2.633-1.662l-1.145-.753 1.252-.557 2.3-1.02"/><path fill="#FFF" d="M22.303 46.007l.445.603c-.17.127-.395.35-.654.612-.37.37-.816.817-1.302 1.177 0 0 2.717 1.256 3.636 1.525l-.21.72c-.963-.282-3.626-1.514-3.74-1.566l-1.145-.532 1.015-.75c.44-.326.853-.74 1.215-1.105.28-.282.524-.525.74-.686m1.378 3.966l.75.037c-.02.373-.376 1.887-4.792 2.772 0 0 2.25 1.23 4.695 1.427 3.123.25 3.626 1.8 3.683 2.027l-.728.183c-.014-.05-.345-1.248-3.017-1.464-2.572-.207-4.895-1.463-4.993-1.517l-1.808-.99 2.02-.402c4.017-.805 4.19-2.063 4.19-2.075m.538.67l.186-.634-.4-.022.425-.063s.004.03 0 .086h-.026l-.186.634zm-.53-.607s-.01-.022-.007-.063l.32.017-.313.046zM29.927 76.63l.343-.67-2.237-1.148s2.08-1.21 2.662-1.48l-.314-.68c-.596.276-2.508 1.386-2.722 1.51l-1.186.69 1.218.626 2.237 1.15"/><path fill="#FFF" d="M22.635 80.828c-.207-.173-.436-.43-.7-.728-.34-.385-.73-.82-1.15-1.17l-.97-.81 1.174-.464c.115-.045 2.844-1.124 3.82-1.35l.17.728c-.933.217-3.715 1.317-3.715 1.317.464.388.884.86 1.23 1.25.246.275.456.51.62.648l-.48.58m1.6-3.88c.002-.014-.102-1.28-4.064-2.31l-1.993-.52 1.86-.883c.1-.048 2.492-1.17 5.073-1.23 2.68-.063 3.078-1.24 3.096-1.29l.715.224c-.068.22-.658 1.74-3.792 1.814-2.45.057-4.77 1.158-4.77 1.158 4.36 1.135 4.63 2.666 4.627 3.04l-.75-.005m.574-.64l.148.646h.027c0 .055-.006.085-.006.085l-.423-.09.4.005-.148-.645zm-.564.577l.313.064-.323-.002c0-.04.01-.062.01-.062z"/></symbol><symbol id="shape-icon-skate" viewBox="40.697 47.281 212.661 69.885"><path d="M154.555 96.254c57.478 0 22.334.246 43.668.246 11.754 0 24.133-4.34 34.553-9.48 9.55-4.71 22.688-12.09 20.298-24.885-1.694-9.068-11.083-13.896-19.562-14.65-11.435-1.016-22.832 2.02-34.074 3.55-7.324.998-14.822 1.465-22.215 1.465h-35.198-25.19c-7.393 0-14.89-.467-22.216-1.464-11.242-1.53-22.64-4.567-34.075-3.55-8.478.753-17.866 5.58-19.56 14.65C38.59 74.93 51.73 82.308 61.28 87.02c10.42 5.14 22.8 9.48 34.553 9.48 21.333 0-13.81-.246 43.667-.246h15.055z"/><circle cx="98.167" cy="107.833" r="9.333"/><circle cx="196.833" cy="107.833" r="9.333"/></symbol></svg>