<svg xmlns="http://www.w3.org/2000/svg"><defs><linearGradient id="shape-icon-forfait-byou-a" gradientUnits="userSpaceOnUse" x1="756.709" y1="-247.54" x2="756.709" y2="-172.528" gradientTransform="matrix(1 0 0 -1 -256 -170.5)"><stop offset=".5" stop-color="#008356"/><stop offset="1" stop-color="#00AAA0"/></linearGradient><linearGradient id="shape-icon-forfait-byou-b" gradientUnits="userSpaceOnUse" x1="688.461" y1="-247.54" x2="688.461" y2="-172.528" gradientTransform="matrix(1 0 0 -1 -256 -170.5)"><stop offset=".178" stop-color="#007B9B"/><stop offset="1" stop-color="#37BDE9"/></linearGradient><linearGradient id="shape-icon-forfait-byou-c" gradientUnits="userSpaceOnUse" x1="610.415" y1="-247.511" x2="610.415" y2="-172.5" gradientTransform="matrix(1 0 0 -1 -256 -170.5)"><stop offset=".5" stop-color="#0079BF"/><stop offset="1" stop-color="#73CAEE"/></linearGradient><linearGradient id="shape-icon-forfait-byou-d" gradientUnits="userSpaceOnUse" x1="827.031" y1="-247.54" x2="827.031" y2="-172.65" gradientTransform="matrix(1 0 0 -1 -256 -170.5)"><stop offset=".546" stop-color="#008F30"/><stop offset="1" stop-color="#A6C859"/></linearGradient><linearGradient id="shape-icon-plan-data-gradients-bg-a" gradientUnits="userSpaceOnUse" y1="91.28" x2="540" y2="91.28" gradientTransform="matrix(1 0 0 -1 0 101.28)"><stop offset="0" stop-color="#FFF"/><stop offset=".298" stop-color="#FFF" stop-opacity="0"/><stop offset=".704" stop-color="#FFF" stop-opacity="0"/><stop offset="1" stop-color="#FFF"/></linearGradient><linearGradient id="shape-icon-plan-data-gradients-bg-b" gradientUnits="userSpaceOnUse" x1="-.9" y1="51.28" x2="579.104" y2="51.28" gradientTransform="matrix(1 0 0 -1 0 101.28)"><stop offset="0" stop-color="#FFF"/><stop offset=".298" stop-color="#FFF" stop-opacity="0"/><stop offset=".704" stop-color="#FFF" stop-opacity="0"/><stop offset="1" stop-color="#FFF"/></linearGradient><linearGradient id="shape-icon-plan-data-gradients-bg-c" gradientUnits="userSpaceOnUse" y1="11.28" x2="540" y2="11.28" gradientTransform="matrix(1 0 0 -1 0 101.28)"><stop offset="0" stop-color="#FFF"/><stop offset=".298" stop-color="#FFF" stop-opacity="0"/><stop offset=".704" stop-color="#FFF" stop-opacity="0"/><stop offset="1" stop-color="#FFF"/></linearGradient></defs><symbol id="shape-icon-4g-plus" viewBox="0 0 200 145"><path d="M170.718 51.485l2.386-16.697c.114-1.135 1.25-2.043 2.272-2.043h8.747c1.02 0 1.702.908 1.59 2.043l-2.385 16.697h14.426c1.02 0 1.702 1.022 1.59 2.16l-1.14 7.95c-.11 1.136-1.133 2.158-2.155 2.158h-14.427l-2.27 16.583c-.228 1.137-1.252 2.046-2.273 2.046h-8.747c-1.02 0-1.816-.91-1.587-2.046l2.27-16.583H154.59c-1.02 0-1.702-1.022-1.59-2.158l1.136-7.95c.115-1.138 1.137-2.16 2.16-2.16M.7 97.65l1.555-11.738 53.75-61.958c.424-.567.99-.848 2.122-.848h8.204c1.275 0 2.265 1.13 1.982 2.686L59.965 86.05h10.043c1.415 0 2.264 1.132 2.12 2.547l-1.27 8.77c-.142 1.416-1.414 2.69-2.83 2.69H57.986L55.58 118.16c-.28 1.413-1.554 2.688-2.828 2.688H40.445c-1.272 0-2.262-1.274-2.12-2.688l2.545-17.823H2.68c-1.415 0-2.264-1.273-1.98-2.686m42.716-12.023l4.95-31.26-27.016 31.26h22.066z"/><path d="M127.436 20.42c12.73 0 22.206 4.95 29.42 13.437.85 1.132.707 2.83-.566 3.96l-7.495 7.356c-1.697 1.274-3.395 1.274-4.67 0-3.678-3.536-8.91-7.073-17.68-7.073-16.974 0-31.684 17.54-31.684 37.768 0 14.995 9.478 28.008 21.927 28.008 6.646 0 11.74-1.698 14.426-3.396l1.697-12.447h-9.053c-1.413 0-2.263-1.132-2.12-2.548l1.555-11.032c.28-1.555 1.413-2.688 2.83-2.688h25.036c1.273 0 2.12 1.273 1.98 2.688l-4.67 33.948c-.28 2.266-1.27 3.538-2.26 4.386-1.416 1.132-12.59 9.477-31.686 9.477-23.056 0-39.748-19.66-39.748-43.99 0-33.242 23.198-57.854 52.762-57.854"/></symbol><symbol id="shape-icon-4g" viewBox="0 0 200 145"><path d="M3.674 104.762l1.95-14.708L72.97 12.426c.53-.71 1.24-1.062 2.657-1.062h10.28c1.595 0 2.835 1.417 2.482 3.366l-10.46 75.5h12.586c1.77 0 2.834 1.417 2.656 3.19l-1.594 10.986c-.18 1.774-1.772 3.37-3.545 3.37H75.45l-3.013 22.685c-.354 1.77-1.95 3.37-3.544 3.37h-15.42c-1.594 0-2.834-1.6-2.657-3.37l3.19-22.332H6.156c-1.773 0-2.837-1.593-2.482-3.366m53.52-15.064L63.4 50.53 29.548 89.7h27.647zM162.47 7.997c15.946 0 27.82 6.204 36.86 16.836 1.062 1.42.886 3.546-.71 4.963l-9.394 9.215c-2.127 1.596-4.25 1.596-5.85 0-4.606-4.43-11.166-8.862-22.153-8.862-21.266 0-39.696 21.977-39.696 47.32 0 18.785 11.874 35.09 27.47 35.09 8.332 0 14.71-2.126 18.078-4.253l2.128-15.595h-11.346c-1.773 0-2.834-1.417-2.655-3.19l1.948-13.823c.354-1.95 1.77-3.368 3.542-3.368h31.372c1.596 0 2.657 1.593 2.48 3.367l-5.85 42.534c-.354 2.835-1.596 4.432-2.834 5.494-1.775 1.417-15.773 11.875-39.7 11.875-28.888 0-49.8-24.636-49.8-55.12 0-41.647 29.065-72.483 66.11-72.483"/></symbol><symbol id="shape-icon-arrow-l" viewBox="0 0 64 64"><path d="M24.548 31.922L51.484 5.868l-3.917-4.05-31.11 30.086 30.98 30.22 3.933-4.032"/></symbol><symbol id="shape-icon-big-smartphone" viewBox="0 0 20.332 35"><path d="M17.968 0H2.364C1.064 0 0 1.063 0 2.364v30.27C0 33.937 1.064 35 2.364 35h15.604c1.3 0 2.364-1.063 2.364-2.364V2.364c0-1.3-1.064-2.364-2.364-2.364zM7.67 1.704h4.992c.158 0 .286.128.286.287 0 .16-.128.287-.286.287H7.67c-.158 0-.286-.128-.286-.286 0-.158.128-.286.286-.286zm2.496 32.114c-.653 0-1.182-.53-1.182-1.182 0-.653.53-1.182 1.182-1.182s1.182.53 1.182 1.182c0 .653-.53 1.182-1.182 1.182zm8.52-3.193H1.647V3.75h17.04v26.875z"/></symbol><symbol id="shape-icon-double-sim" viewBox="0 0 96 81"><path d="M65.3 58.4l.9 4.8c.2 1.3.1 2.6-.5 3.8L76 65l-1.6-8.4-9.1 1.8zm11.2-2.1l1.5 8.4c3.5-.6 5.8-4 5.1-7.4l-.4-2.1-6.2 1.1zm-54.9 0l.4 2.1c.6 3.5 4 5.8 7.4 5.1L44 60.8l-1.6-8.4-20.8 3.9zm23-4.3l1.6 8.4c3.5-.6 5.8-4 5.1-7.4l-.4-2.1-6.3 1.1zM73 46.1l-9.7 1.8 1.6 8.4 10.2-1.9 1-.2 6.3-1.2-1.6-8.4-7.8 1.5zm-11.6-8.6l1.6 8.4 5-.9-1.5-8.4-5.1.9zm11.2-2.1l-4.2.8 1.5 8.4 3.6-.7 6.8-1.3-.4-2.1c-.6-3.1-3.3-5.2-6.3-5.2-.2 0-.6 0-1 .1M24 34.2c-3.5.6-5.8 4-5.1 7.4l2.3 12.6 20.9-3.9 2.1-.4 6.3-1.2-1.6-8.4-9.8 1.8L28 44.3l-2-10.5-2 .4zm4.1-.8l1.6 8.4 6.3-1.2-1.6-8.4-6.3 1.2zm12.6-2.3l-4.2.8 1.6 8.4 10.5-1.9-.4-2.1c-.6-3.1-3.3-5.2-6.3-5.2-.4-.1-.8-.1-1.2 0M64.9 4.3L47.1 7.6l4 3.6 14.6-2.7 17.9 16.1 8.2 43.9-43.9 8.2-.7-3.6-4.2.9.7 3.6c.2 1.1.8 2.1 1.8 2.7.7.5 1.6.7 2.4.7.3 0 .5 0 .8-.1l43.9-8.2c2.3-.4 3.8-2.7 3.4-5l-8.2-43.9c-.2-.9-.6-1.8-1.3-2.4l-18-16c-.8-.7-1.8-1.1-2.8-1.1h-.8M4.3 9.7l29.5-5.5 17.9 16.1 8.2 43.9L16 72.4 4.3 9.7zM33 .1L3.5 5.6c-1.1.2-2.1.8-2.8 1.7-.6.9-.9 2.1-.7 3.2l11.7 62.8c.2 1.1.8 2.1 1.8 2.7.7.5 1.6.7 2.4.7.3 0 .5 0 .8-.1l43.9-8.2c2.3-.4 3.8-2.7 3.4-5l-8.2-43.9c-.2-.9-.6-1.8-1.3-2.4l-17.9-16C35.8.4 34.8 0 33.8 0c-.3 0-.5 0-.8.1"/></symbol><symbol id="shape-icon-forfait-byou" viewBox="0 0 600 80"><path fill="url(#shape-icon-forfait-byou-a)" d="M500.653 2.028c5.17 0 10.04.985 14.593 2.945 4.546 1.963 8.537 4.65 11.947 8.064 3.41 3.417 6.105 7.4 8.078 11.953 1.955 4.554 2.94 9.424 2.94 14.602 0 5.182-.985 10.05-2.94 14.602-1.972 4.554-4.665 8.518-8.077 11.89-3.41 3.378-7.4 6.048-11.947 8.013-4.553 1.96-9.422 2.943-14.593 2.943-5.185 0-10.052-.982-14.608-2.943-4.555-1.965-8.527-4.634-11.89-8.013-3.38-3.372-6.048-7.336-8.01-11.89-1.965-4.552-2.94-9.42-2.94-14.602 0-5.178.976-10.047 2.94-14.602 1.962-4.554 4.63-8.536 8.01-11.953 3.362-3.416 7.335-6.1 11.89-8.064 4.557-1.96 9.424-2.945 14.608-2.945zm-18.736 37.68c0 2.592.496 5.026 1.483 7.306.974 2.275 2.33 4.278 4.06 6 1.726 1.73 3.725 3.087 6 4.063 2.28.988 4.71 1.475 7.308 1.475 2.586 0 5.02-.486 7.29-1.475 2.288-.977 4.28-2.332 6.01-4.062 1.73-1.723 3.074-3.726 4.064-6 .986-2.28 1.48-4.714 1.48-7.306 0-2.59-.494-5.022-1.48-7.304-.99-2.27-2.334-4.274-4.063-6-1.73-1.73-3.724-3.08-6.01-4.062-2.27-.982-4.706-1.475-7.292-1.475-2.598 0-5.028.492-7.308 1.474-2.275.98-4.274 2.333-6 4.062-1.73 1.726-3.086 3.73-4.06 6-.988 2.282-1.483 4.714-1.483 7.303z"/><path fill="url(#shape-icon-forfait-byou-b)" d="M456.36 4.618c-1.683-1.72-3.903-2.59-6.656-2.59-2.667 0-4.923.79-6.763 2.355-1.85 1.57-2.768 3.85-2.768 6.833v11.42c0 1.257-.26 2.356-.764 3.3-.52.94-1.146 1.727-1.887 2.355-.75.63-1.59 1.1-2.534 1.414-.94.314-1.804.473-2.59.473-.865 0-1.73-.158-2.58-.473-.874-.313-1.695-.784-2.48-1.413-.786-.628-1.41-1.414-1.886-2.354-.47-.944-.705-2.043-.705-3.3v-11.42c0-2.983-.92-5.263-2.76-6.834-1.852-1.563-4.105-2.355-6.776-2.355-2.75 0-4.972.87-6.663 2.59-1.684 1.728-2.523 3.928-2.523 6.598v11.42c0 3.14.595 6.284 1.76 9.425 1.188 3.133 2.897 5.945 5.13 8.413 2.23 2.472 4.988 4.5 8.243 6.067.63.305 1.278.572 1.94.82v20.49c0 2.67.863 4.87 2.594 6.598 1.73 1.727 3.925 2.59 6.598 2.59 2.734 0 5.024-.863 6.818-2.59 1.817-1.73 2.715-3.928 2.715-6.598V47.316c.63-.232 1.235-.496 1.817-.775 3.265-1.567 6.036-3.596 8.3-6.066 2.29-2.468 4.018-5.28 5.185-8.413 1.188-3.14 1.772-6.283 1.772-9.423V11.215c.002-2.67-.85-4.87-2.535-6.597z"/><path fill="url(#shape-icon-forfait-byou-c)" d="M383.217 46.665c-.73-1.915-1.626-3.698-2.703-5.34-1.09-1.645-2.298-3.09-3.646-4.343-1.347-1.25-2.648-2.27-3.903-3.052 1.165-1.486 2.243-3.23 3.23-5.23.987-1.988 1.48-4.355 1.48-7.1 0-3.594-.808-6.645-2.424-9.152-1.612-2.502-3.7-4.52-6.27-6.05-2.568-1.524-5.44-2.64-8.625-3.34C357.157 2.35 353.935 2 350.707 2h-15.65c-2.974 0-5.442.843-7.413 2.523-1.987 1.687-3.02 3.775-3.11 6.284V69.03c0 2.43 1.023 4.365 3.04 5.81 2.02 1.454 4.51 2.172 7.483 2.172h15.65c3.23 0 6.784-.33 10.66-.998 3.857-.66 7.502-1.913 10.924-3.75 3.412-1.842 6.26-4.33 8.56-7.457 2.3-3.13 3.444-7.162 3.444-12.094 0-2.11-.36-4.13-1.077-6.048zm-40.34-30.67h11.62c.81 0 1.524.167 2.132.493.604.333 1.11.742 1.513 1.217.405.48.71 1.026.91 1.633.2.612.312 1.166.312 1.67 0 .562-.112 1.116-.312 1.68-.2.555-.504 1.086-.91 1.59-.403.51-.908.916-1.514 1.218-.606.302-1.323.454-2.133.454h-11.62v-9.956zm21.222 37.644c-.314.86-.784 1.686-1.41 2.472-.63.79-1.416 1.414-2.356 1.884-.943.472-2.042.71-3.3.71h-13.81v-15.43h13.81c1.258 0 2.356.253 3.3.764.94.51 1.727 1.14 2.356 1.884.626.747 1.096 1.59 1.41 2.53.313.944.473 1.806.473 2.59 0 .864-.16 1.73-.474 2.595z"/><path fill="#0079BF" d="M398.887 76.973c-1.337 0-2.604-.23-3.783-.69-1.167-.45-2.206-1.07-3.082-1.846-.91-.784-1.638-1.71-2.177-2.76-.56-1.095-.854-2.284-.854-3.526 0-1.626.528-3.175 1.55-4.6.494-.68 1.076-1.308 1.75-1.887-.53-.493-.987-1.042-1.37-1.634-.414-.653-.75-1.35-.984-2.063-.27-.742-.394-1.506-.394-2.246 0-1.16.258-2.284.795-3.336.505-1.018 1.188-1.904 2.04-2.645.834-.72 1.808-1.302 2.92-1.73 1.112-.422 2.31-.646 3.59-.646 1.222 0 2.42.224 3.544.646 1.124.43 2.112 1.012 2.94 1.73.852.74 1.55 1.626 2.054 2.644.53 1.052.797 2.175.797 3.337 0 1.043-.244 2.082-.716 3.078-.448.976-1.122 1.875-1.974 2.66-.854.77-1.897 1.395-3.097 1.868l-.022.002 4.8 3.762 3.39-2.76c.46-.394 1.03-.602 1.66-.602 1.448 0 2.47.977 2.47 2.37 0 .525-.18 1.026-.54 1.492-.066.1-.158.183-.246.253l-.044.045c0 .006-.024.017-.024.023l-2.762 2.308 2.874 2.355c.023.02.033.03.043.042.54.457.832 1.093.832 1.786 0 1.4-1.012 2.378-2.47 2.378-.627 0-1.187-.21-1.658-.598l-3.522-2.828c-.572.438-1.122.826-1.613 1.163-.857.565-1.64 1.025-2.358 1.372-.763.37-1.503.646-2.196.82-.735.178-1.466.266-2.16.266zm-2.65-12.3c-.605.372-1.122.816-1.524 1.33-.518.66-.787 1.358-.787 2.147 0 .543.114 1.042.348 1.506.248.506.57.926 1 1.3.447.385.976.693 1.594.92.605.23 1.287.345 2.02.345.763 0 1.595-.247 2.446-.735.592-.338 1.256-.762 1.974-1.27l-7.07-5.54zm2.65-12.555c-.674 0-1.29.1-1.854.31-.548.192-1.02.463-1.392.794-.366.32-.648.687-.862 1.132-.203.422-.304.864-.304 1.367 0 .5.09.935.282 1.33.202.42.47.77.832 1.085.39.338.872.62 1.434.833.552.21 1.188.327 1.886.35.65 0 1.242-.1 1.773-.303.536-.197 1.008-.472 1.39-.804.358-.31.652-.683.854-1.128.203-.416.314-.863.314-1.362 0-.502-.11-.944-.314-1.367-.2-.442-.495-.812-.854-1.132-.382-.33-.854-.6-1.39-.8-.536-.203-1.144-.302-1.793-.302z"/><path fill="#0079BF" d="M398.887 76.973c-1.337 0-2.604-.23-3.783-.69-1.167-.45-2.206-1.07-3.082-1.846-.91-.784-1.638-1.71-2.177-2.76-.56-1.095-.854-2.284-.854-3.526 0-1.626.528-3.175 1.55-4.6.494-.68 1.076-1.308 1.75-1.887-.53-.493-.987-1.042-1.37-1.634-.414-.653-.75-1.35-.984-2.063-.27-.742-.394-1.506-.394-2.246 0-1.16.258-2.284.795-3.336.505-1.018 1.188-1.904 2.04-2.645.834-.72 1.808-1.302 2.92-1.73 1.112-.422 2.31-.646 3.59-.646 1.222 0 2.42.224 3.544.646 1.124.43 2.112 1.012 2.94 1.73.852.74 1.55 1.626 2.054 2.644.53 1.052.797 2.175.797 3.337 0 1.043-.244 2.082-.716 3.078-.448.976-1.122 1.875-1.974 2.66-.854.77-1.897 1.395-3.097 1.868l-.022.002 4.8 3.762 3.39-2.76c.46-.394 1.03-.602 1.66-.602 1.448 0 2.47.977 2.47 2.37 0 .525-.18 1.026-.54 1.492-.066.1-.158.183-.246.253l-.044.045c0 .006-.024.017-.024.023l-2.762 2.308 2.874 2.355c.023.02.033.03.043.042.54.457.832 1.093.832 1.786 0 1.4-1.012 2.378-2.47 2.378-.627 0-1.187-.21-1.658-.598l-3.522-2.828c-.572.438-1.122.826-1.613 1.163-.857.565-1.64 1.025-2.358 1.372-.763.37-1.503.646-2.196.82-.735.178-1.466.266-2.16.266zm-2.65-12.3c-.605.372-1.122.816-1.524 1.33-.518.66-.787 1.358-.787 2.147 0 .543.114 1.042.348 1.506.248.506.57.926 1 1.3.447.385.976.693 1.594.92.605.23 1.287.345 2.02.345.763 0 1.595-.247 2.446-.735.592-.338 1.256-.762 1.974-1.27l-7.07-5.54zm2.65-12.555c-.674 0-1.29.1-1.854.31-.548.192-1.02.463-1.392.794-.366.32-.648.687-.862 1.132-.203.422-.304.864-.304 1.367 0 .5.09.935.282 1.33.202.42.47.77.832 1.085.39.338.872.62 1.434.833.552.21 1.188.327 1.886.35.65 0 1.242-.1 1.773-.303.536-.197 1.008-.472 1.39-.804.358-.31.652-.683.854-1.128.203-.416.314-.863.314-1.362 0-.502-.11-.944-.314-1.367-.2-.442-.495-.812-.854-1.132-.382-.33-.854-.6-1.39-.8-.536-.203-1.144-.302-1.793-.302z"/><path fill="url(#shape-icon-forfait-byou-d)" d="M570.968 58.316c.785 0 1.65-.16 2.59-.475.944-.313 1.786-.783 2.536-1.41.74-.63 1.37-1.415 1.886-2.355.505-.944.764-2.044.764-3.3V11.334c0-2.984.918-5.26 2.77-6.832 1.84-1.563 4.094-2.35 6.767-2.35 2.75 0 4.97.864 6.653 2.586 1.682 1.73 2.533 3.927 2.533 6.597v39.445c0 3.14-.58 6.28-1.773 9.424-1.163 3.14-2.89 5.947-5.18 8.42-2.267 2.473-5.038 4.494-8.303 6.063-3.254 1.57-7 2.355-11.24 2.355s-7.986-.785-11.24-2.355c-3.25-1.57-6.015-3.59-8.244-6.063-2.23-2.473-3.938-5.28-5.127-8.42-1.17-3.143-1.763-6.283-1.763-9.424V11.333c0-2.67.84-4.868 2.523-6.597 1.694-1.723 3.903-2.585 6.664-2.585 2.67 0 4.923.79 6.772 2.35 1.844 1.572 2.763 3.85 2.763 6.833v39.445c0 1.256.235 2.355.705 3.3.47.94 1.1 1.726 1.885 2.354.784.627 1.605 1.097 2.48 1.412.848.312 1.714.472 2.578.472z"/><path fill="#00B5D8" d="M184.433 77.903c13.052 0 19.454-11.27 19.454-11.27V77.09l6.138.003V51.69c-.025-14.397-11.53-26.105-25.64-26.105-13.953.03-25.673 12.44-25.64 27.098.027 14.142 10.964 25.22 25.688 25.22zm-.014-6.21c-10.436 0-18.904-8.935-18.906-19.912-.026-10.804 8.72-19.966 18.834-19.984h.042c10.39 0 18.856 8.93 18.88 19.91.007 11-8.444 19.962-18.85 19.987zM237.403 11.87v45.865c-.014 6.618 1.473 11.91 4.804 15.32 4.768 4.865 12.152 6.097 22.81 3.557l-1.31-5.71c-13.242 3.49-19.66-.77-19.635-14.92V31.757h18.467V26.32H244.07V11.87h-6.67zM141.55 77.112h6.496V31.758h12.643v-5.415h-12.716l-.007-1.948c-.02-12.372 3.63-18.647 16.795-14.974l1.538-5.4c-2.932-.727-5.37-1.1-7.87-1.1-10.207 0-16.79 7.192-16.79 21.47v1.953h-6.42v5.415h6.33v45.354zM99.644 77.112h6.6V45.98c0-10.284 3.188-14.443 12.978-14.443 2.63 0 5.64.418 9.02 1.29l1.507-5.978c-4.022-.94-7.1-1.263-10.48-1.263-14.45 0-19.626 7.273-19.626 19.554v31.972zM219.326 26.36h6.603v50.733h-6.604zM227.193 8.592c0-2.636-2.142-4.785-4.785-4.785-2.645 0-4.788 2.15-4.788 4.785 0 2.648 2.143 4.788 4.788 4.788 2.64 0 4.785-2.14 4.785-4.788zM68.568 25.654c-14.137 0-25.6 11.69-25.6 26.12 0 14.43 11.462 26.128 25.6 26.128 14.143 0 25.61-11.7 25.61-26.128 0-14.43-11.467-26.12-25.61-26.12zm0 46.47c-10.806 0-19.56-9.11-19.56-20.35 0-11.238 8.755-20.345 19.56-20.345 10.805 0 19.562 9.107 19.562 20.345 0 11.24-8.757 20.348-19.562 20.348zM9.772 77.112V41.464H39.83v-5.83H9.784V16.703c0-6.21 1.43-8.54 7.437-8.54H43.1V2.013H17.036c-10.294 0-14.034 4.533-14.034 14.162L3 77.113h6.772zM270.392 73.887c4.578 2.427 10.65 4.017 17.46 4.017 10.574 0 17.78-6.02 17.78-15.345 0-9.534-6.964-12.468-16.58-15.304-6.013-1.78-11.464-3.457-11.464-8.872 0-2.262.945-7.225 9.647-7.225 5.214 0 9.59 1.167 13.94 3.38l1.747-5.56c-4.623-2.34-10.007-3.42-14.487-3.42-12.115 0-17.42 6.366-17.42 14.033 0 8.402 6.84 10.988 16.29 13.725 6.557 1.9 11.98 3.693 11.98 9.82 0 4.67-3.678 9.088-11.902 9.088-4.966 0-10.71-1.564-15.06-4.036l-1.93 5.697z"/></symbol><symbol id="shape-icon-forfait-pro" viewBox="0 0 1350 350"><path d="M1251.176 142.61c-43.082.088-77.885 35.084-77.806 78.14.108 44.228 36.948 79.773 81.603 77.735 39.7-1.8 72.366-34.447 74.235-74.136 2.117-44.825-33.685-81.81-78.032-81.74zm.228 126.403c-26.16.06-47.396-21.59-47.445-48.313-.05-26.726 21.106-48.45 47.255-48.5 26.16-.054 47.414 21.576 47.453 48.32.03 26.706-21.106 48.433-47.264 48.493zM1154.095 149.466c-10.91-2.55-19.964-3.637-30.265-3.637-40.584 0-60.315 19.663-60.315 60.116v94.28h30.818v-91.974c0-25.595 6.863-33.398 29.37-33.398 6.808 0 14.62 1.127 23.227 3.35l6.165 1.592 7.27-28.864-6.27-1.466zM976.566 61.145H890.17V300.47h29.275v-89.43h52.927c45.09 0 90.588-23.425 90.588-75.754v-.645c0-44.646-33.91-73.495-86.394-73.495zm-57.12 27.34h55.186c37.326 0 58.732 17.175 58.732 47.123v.645c0 28.57-24.12 47.767-60.022 47.767h-53.896V88.486zM581.232 300.115c40.618 0 60.537-35.07 60.537-35.07v32.538l19.097.01V218.54c-.078-44.8-35.88-81.23-79.783-81.23-43.418.095-79.893 38.716-79.783 84.327.09 44 34.11 78.478 79.932 78.478zm-.04-19.325c-32.47 0-58.827-27.8-58.836-61.962-.08-33.624 27.138-62.132 58.608-62.19h.13c32.33 0 58.677 27.79 58.746 61.954.03 34.228-26.267 62.118-58.648 62.198zM746.072 94.63v142.722c-.05 20.59 4.578 37.06 14.943 47.67 14.834 15.143 37.82 18.97 70.98 11.068l-4.074-17.772c-41.212 10.87-61.18-2.394-61.1-46.424V156.52h57.47V139.6h-57.47V94.63h-20.748zM447.795 297.652h20.215V156.518h39.343v-16.853h-39.57l-.03-6.062c-.058-38.497 11.295-58.025 52.27-46.592l4.788-16.808c-9.13-2.26-16.714-3.42-24.488-3.42-31.767 0-52.25 22.38-52.25 66.807v6.076h-19.978v16.853h19.702V297.65zM317.383 297.652h20.542v-96.884c0-31.997 9.92-44.943 40.382-44.943 8.18 0 17.555 1.3 28.068 4.016l4.688-18.603c-12.512-2.922-22.095-3.926-32.608-3.926-44.96 0-61.07 22.635-61.07 60.847v99.495zM689.815 139.72h20.542v157.874h-20.542zM714.295 84.43c0-8.205-6.667-14.89-14.895-14.89-8.23 0-14.895 6.686-14.895 14.89 0 8.243 6.665 14.898 14.895 14.898 8.228 0 14.895-6.656 14.895-14.9zM220.687 137.524c-44 0-79.665 36.375-79.665 81.285 0 44.9 35.664 81.306 79.665 81.306 44.01 0 79.685-36.406 79.685-81.307 0-44.91-35.674-81.286-79.685-81.286zm0 144.6c-33.626 0-60.874-28.344-60.874-63.315 0-34.975 27.247-63.315 60.874-63.315 33.617 0 60.864 28.34 60.864 63.314 0 34.97-27.246 63.315-60.863 63.315zM37.73 297.652v-110.93h93.53v-18.14h-93.5v-58.915c0-19.33 4.45-26.575 23.142-26.575h80.525V63.96h-81.09c-32.034 0-43.674 14.104-43.674 44.07 0 23.372 0 34.67-.01 189.622H37.73z"/></symbol><symbol id="shape-icon-forfait-sens" viewBox="0 0 104 13"><path d="M91.753 4.644c-2.094.004-3.785 1.705-3.78 3.796.005 2.15 1.795 3.876 3.965 3.777 1.93-.087 3.516-1.674 3.606-3.603.103-2.176-1.637-3.973-3.79-3.97zm.01 6.14c-1.27.005-2.302-1.048-2.305-2.347-.002-1.298 1.025-2.354 2.297-2.356 1.27 0 2.303 1.05 2.305 2.35.002 1.297-1.026 2.353-2.296 2.355zM62.466 6.094c-1.475.002-2.2 1.123-2.196 2.713v3.3h-1.612V8.81c-.005-2.58 1.67-4.16 3.982-4.163 2.293-.006 3.648 1.666 3.648 4.15v3.31h-1.61v-3.31c-.003-1.543-.606-2.707-2.212-2.703zM99.834 6.094c-1.476.002-2.198 1.123-2.196 2.713v3.3h-1.61V8.81c-.006-2.58 1.67-4.16 3.98-4.163 2.294-.006 3.648 1.666 3.648 4.15v3.31h-1.612v-3.31c0-1.543-.604-2.707-2.21-2.703zM80.407 8.428c-.006-2.09-1.703-3.782-3.795-3.78-2.09.006-3.783 1.822-3.78 3.913.006 2.093 1.702 3.666 3.795 3.663.887-.002 1.895-.445 2.337-1.053v.938h1.443V8.43zm-3.782 2.357c-1.247.004-2.26-1.048-2.263-2.345-.004-1.298 1.006-2.353 2.254-2.355 1.246-.003 2.26 1.047 2.264 2.346 0 1.3-1.008 2.353-2.255 2.355zM80.884 2.794v6.433c-.004 2.266 1.457 3.583 4.576 2.738l-.348-1.3c-1.623.538-2.676-.05-2.673-1.772v-2.83h2.613V4.76H82.44V2.793h-1.556zM86.94 3.18c.338-.08.61-.355.688-.693.14-.613-.324-1.154-.914-1.154-.516 0-.936.42-.934.938 0 .59.547 1.05 1.16.91zM87.494 12.107V4.76H85.94l-.002 7.347M46.813 10.71c1.43 0 1.956-.94 1.956-1.743 0-2.376-5.554-1.426-5.554-4.98 0-1.677 1.052-3.113 3.578-3.113 1.12 0 2.106.202 3.102.507l-.37 1.506c-1.133-.348-1.906-.506-2.962-.506-1.182 0-1.64.653-1.64 1.288 0 2.523 5.61 1.66 5.61 5.04 0 1.976-1.23 3.515-3.63 3.515-1.152 0-2.588-.214-3.68-.817l.53-1.433c1.162.555 2.074.738 3.06.738zM68.38 6.654c0-.394.3-.717 1.148-.717.753 0 1.52.22 2.178.583l.465-1.266c-.698-.38-1.58-.61-2.462-.61-1.986 0-2.858 1.05-2.858 2.17 0 2.505 4.228 1.767 4.228 3.138 0 .51-.486.98-1.488.98-.774 0-1.53-.224-2.322-.653l-.5 1.206c.835.508 1.824.736 2.895.736 1.887 0 2.91-1.027 2.91-2.347-.002-2.683-4.193-2.002-4.193-3.22zM58.09 7.272c-.335-1.575-1.673-2.63-3.36-2.627-2.09.005-3.72 1.702-3.716 3.792.004 2.15 1.73 3.785 3.893 3.785 1.08 0 2.195-.346 2.934-1.014l-.734-1.128c-.547.504-1.257.753-2.062.753-1.188 0-2.343-.9-2.51-1.927h4.254c1.33 0 1.552-.458 1.303-1.634zm-1.808.388h-3.704c.317-.92 1.125-1.577 2.153-1.58 1 0 1.606.522 1.803 1.2.07.247.043.38-.25.38z"/><g><path d="M28.206 12.237c1.973 0 2.94-1.704 2.94-1.704v1.58h.93v-3.84c-.005-2.176-1.744-3.946-3.877-3.946-2.11.004-3.883 1.88-3.877 4.097.003 2.138 1.656 3.813 3.883 3.813zm-.002-.938c-1.578 0-2.858-1.353-2.86-3.012-.003-1.634 1.32-3.02 2.85-3.022h.005c1.57 0 2.85 1.35 2.853 3.01.002 1.663-1.276 3.02-2.85 3.023zM36.215 2.253v6.934c-.002 1 .223 1.8.726 2.316.722.735 1.838.922 3.45.538l-.198-.863c-2.002.528-2.973-.115-2.97-2.256V5.26h2.793v-.822h-2.792V2.253h-1.008zM21.722 12.117h.982V5.26h1.912v-.82h-1.922v-.293c-.004-1.87.547-2.82 2.54-2.264l.23-.817c-.443-.11-.81-.167-1.19-.167-1.542 0-2.538 1.087-2.538 3.245v.295h-.97v.82h.957v6.857zM15.386 12.117h.998V7.41c0-1.555.482-2.184 1.962-2.184.397 0 .853.063 1.363.195l.227-.903c-.608-.142-1.073-.19-1.584-.19-2.185 0-2.968 1.1-2.968 2.956v4.834zM33.48 4.444h1v7.67h-1zM34.67 1.758c0-.4-.323-.724-.723-.724-.4 0-.724.325-.724.724 0 .4.324.724.724.724.4 0 .724-.324.724-.724zM10.688 4.337c-2.138 0-3.87 1.768-3.87 3.95 0 2.182 1.73 3.95 3.87 3.95s3.872-1.77 3.872-3.95c0-2.182-1.734-3.95-3.872-3.95zm0 7.026c-1.634 0-2.958-1.377-2.958-3.076 0-1.7 1.324-3.077 2.958-3.077 1.633 0 2.957 1.377 2.957 3.077s-1.324 3.076-2.957 3.076zM1.798 12.117v-5.39h4.544v-.88H1.8V2.984c0-.94.216-1.29 1.125-1.29h3.913v-.93h-3.94C1.34.763.776 1.447.776 2.903v9.213h1.022z"/></g></symbol><symbol id="shape-icon-france-map" viewBox="0 0 78.2 78.6"><path d="M74.9 18h-.6l-.1-1-1-.2-1.3.5-1.6-1-1 .6-1.7-2.4-.6.3-.6-.5-1.7.5-1.5-1.1-1.5.3-.7-.3-2.3-2.2-.8-.1V8.3L56 9.9l-1.7-.1L54 7l-2.6-.2-.5-1.7-1.4-.2-.8-2.4-1.9.6-1-.8-.7-2.3-2.5.3-2.2.4-.9.8-.7 4.1-.6.8-.1 1.2-.6.8-1.4.7-2.1.8-1.8.4-1.3.9-.5 1.1.9.2.5.1 1.5.3-1-.1-1.1.3-1 .3-1.3.6-4.8-.9h-.8l-.6-1.5.5-.7v-.7l-.5-.3-1 .3h-1.6l-.7-.6-.4.4.7.6-.4.9 1.2 3-.3 4 .8.9-1.2.1h-1.2l-.1-.5.2-.3-1 .1v.7l-.4.1-.3-.3-.8.3.1-1-1.3.2-1.4.7-1.2-1.9-.9-.6.1-1-1.5.5-1.2-.1-1.7 1.7-.4-1-.6.9-.8-.8-2 .4-.4-.4-2.3.8v.7l-.6.1.4.8H2l1.2-.3-.5.5.8.7-1.3.2-.5-.5-.7.3.5.5.2.4.4-.4 1 1-.9.4H.1c.1 0 2.2.7 2.1 2.4l1.4.7v-.9l1.2.1.2.5 1.9.4L8 26.7l.4-.2 1 .5.2.7-.2 1 .5.6V28l.8-.3h1.4v.5H11l.9.9 2.2.1-.8.6.2.7-.6.2 1.6.6.9-.5 2.2.5h-2.1l-.6.9 1.2.8-.2.4-.9.7.2.6-.6.3 1.5 1.4.5 2s.5 0 .7.1c.1 0 1.5 1.5 1.6 1.6l1.2.3-.8 1 1.2 1.6h-.8l.5.8-.7 1.1-.9.5-.8-.8-1.3-.5.2.7 1.5 1 .3.6v.1l.1.1 1 .5 1 1.1.7 1.6.1 2.8-.8-2.9-1.3-1.4-.1-.8-.5.5c.3 1.3-1.1 7.2-1.2 7.3l.7-.6.6 1.1h-1.4l-.2.8-1 5.2-1.1 2.7-1 1.3-1 .7-1.1.2.2.5h.7l.4.8.7-.5.6.7-.6 1.5.8.3.7-.7.3.6 3 1.3.7 1.2 2.2.1 1.6 1.1 1.4-.1.7.6.7-.3h.6l1.3.4.1-1.5 1.1.2 2 1.1.9-.1.5 1h1.3l.7.4-.2.6.9.3 1 1.5 1.6-.9.8.5 1.1.8.9-.7.7.5.8-.9H44l.5.4.5-.6-.6-.8-.5-.3-.2-2.2c0-.1 0-2.5 1.6-3.4 0 0 .6-.4 1.6-.3.1 0 1.1-.9 1.5-.8.1-.1 1.1-1.8 2.9-1.7l.4.8.9.1 1.4.1.6.8 1.3.3.3-.8h.8l.5.8 1.4-.3.8.7-.7.5.6.4 1.9.1.6.9 1.2.5-.1-.7 1.7.5-.1-.8 1.4.4.3-.7 1.3.1 1-.9-.9-.2.7-.8.9-.1.8-1.4h.8l1.1-1.5 1.7-.2.6-1.8 1.1-.9-.5-1.2-1.6.3-1.7-.5-1.5-.8-.7-.6.4-.9-.6-.7.4-1 .3-.4.7-.2-.1-1.3-1-.2-1.6-2.5 1.7-.1.7-.6h.8l.1-1.3.5-.6-1-.5-.2-1.4-1.1-.9.1-.9 1.3-.4.2-1.2-1.2-1-.7-.3.9-.3-.4-1.3-2.5-.1-1 .8v.9l-1.6.8h-.2l-.2-.5 1.2-1-.6-1.7.5-1.2-.1-1v-.1l1.6-.9.3-1.2L71 34v-.6l-1.4-.2.6-.5.8-.2.1-1 .2.7.7.9.4-.5.7-.1 1-1.4-.4-1.1 1-2.2-.3-.6 2.2-6.1 1.1-.9.4-1.4-3.2-.8z"/></symbol><symbol id="shape-icon-plan-data-gradients-bg" viewBox="0 0 580.1 100"><title>logo_data_100go</title><g opacity=".8"><path fill="url(#shape-icon-plan-data-gradients-bg-a)" d="M10 0h520c5.5 0 10 4.5 10 10s-4.5 10-10 10H10C4.5 20 0 15.5 0 10 .1 4.4 4.5 0 10 0z"/><path fill="url(#shape-icon-plan-data-gradients-bg-b)" d="M50.1 40h520c5.5 0 10 4.5 10 10s-4.5 10-10 10h-520c-5.5 0-10-4.5-10-10 0-5.6 4.4-10 10-10z"/><path fill="url(#shape-icon-plan-data-gradients-bg-c)" d="M10 80h520c5.5 0 10 4.5 10 10s-4.5 10-10 10H10c-5.5 0-10-4.5-10-10 .1-5.6 4.5-10 10-10z"/></g></symbol><symbol id="shape-icon-press" viewBox="0 0 292.17 259.15"><title>Presse</title><path d="M262.13 143.8h-.21a5.79 5.79 0 0 0-1.39.18l-91 21.45a5.612 5.612 0 0 0 2.64 10.91l90.92-21.44a5.62 5.62 0 0 0 3.74-2.33 5.52 5.52 0 0 0 .91-4.17 5.62 5.62 0 0 0-5.65-4.6M172.2 213.51l90.92-21.44a5.58 5.58 0 0 0-1-11.1h-.21a5.22 5.22 0 0 0-1.39.18l-91 21.45a5.617 5.617 0 0 0 2.68 10.91M262.13 106.61h-.21a5.79 5.79 0 0 0-1.39.18l-91 21.45a5.612 5.612 0 0 0 2.64 10.91l90.92-21.44a5.62 5.62 0 0 0 3.74-2.33 5.52 5.52 0 0 0 .91-4.17 5.62 5.62 0 0 0-5.65-4.6M204.59 82.58h-.34a5.47 5.47 0 0 0-1.57.26l-33.22 8.3a5.585 5.585 0 0 0 2.81 10.81l33.09-8.27a5.66 5.66 0 0 0 3.79-2.33 5.46 5.46 0 0 0 .94-4.16 5.6 5.6 0 0 0-5.5-4.63"/><path d="M140.5 246.41L11.16 216.09V37.51L140.5 67.83zm-88-231.45l67.29 36.49-67.31-15.78zm99.18 52.87l129.33-30.32v178.58l-129.35 30.32zm88-52.87v20.71l-67.27 15.78zm48.23 211a5.56 5.56 0 0 0 4.26-5.4V30.44a5.6 5.6 0 0 0-1.59-4 5.51 5.51 0 0 0-3.92-1.68 7.25 7.25 0 0 0-1.38.15l-34.44 8.15V5.64A5.59 5.59 0 0 0 245.29 0a5.28 5.28 0 0 0-2.65.65L146.08 53 49.5.64a5.65 5.65 0 0 0-3.21-.59 5.55 5.55 0 0 0-5 5.57v27.45L6.9 24.91a6.54 6.54 0 0 0-1-.09h-.55a5.6 5.6 0 0 0-5.32 5.59v190.1a5.56 5.56 0 0 0 4.27 5.4l140.5 33.06a5.66 5.66 0 0 0 2.63 0z"/><path d="M115.71 126.51l-79.76-18.7V82.2l79.76 18.7zm6.89-35.52L31.69 69.6a5.68 5.68 0 0 0-2.28-.09 5.56 5.56 0 0 0-4.61 5.57v37.23a5.57 5.57 0 0 0 4.27 5.4l90.9 21.44a5.59 5.59 0 0 0 6.75-4.12 5.48 5.48 0 0 0 .15-1.28V96.56a5.56 5.56 0 0 0-4.27-5.52M22.55 151.96a6.21 6.21 0 0 0 5.1 6.07l91 21.45a6.232 6.232 0 0 0 2.91-12.12l-90.87-21.43a6.1 6.1 0 0 0-1.62-.21h-.36a6.2 6.2 0 0 0-6.16 6.24M22.55 189.15a6.2 6.2 0 0 0 5.1 6.07l91 21.46a6.26 6.26 0 0 0 2.93-12.17l-90.89-21.38a6.1 6.1 0 0 0-1.62-.21h-.36a6.21 6.21 0 0 0-6.16 6.24"/></symbol><symbol id="shape-icon-promo-flat" viewBox="0 0 134 138"><title>forme_plate</title><path d="M.03 0L0 128.344C0 139.462 10.37 137 10.37 137s107.858-13.52 114.123-14.8c7.72-1.577 9.226-9.216 9.226-9.216V.084L.03 0z"/></symbol><symbol id="shape-icon-promo-round" viewBox="0 0 134 148"><title>forme_ronde</title><path d="M133.72 10.083C133.72-.062 124.03 0 124.03 0h-114s-10-.082-10 10L0 138.344C0 149.462 10.37 147 10.37 147s107.858-13.52 114.123-14.8c7.72-1.577 9.226-9.216 9.226-9.216v-112.9"/></symbol><symbol id="shape-icon-sms" viewBox="0 0 32 23"><title>icon-sms@1x</title><path d="M0 10.314c0 5.696 7.02 10.313 15.685 10.313 1.274 0 2.503-.11 3.69-.3.862 1.38 2.958 1.99 4.83 2.18h2.515c.927-.12 1.317-.37.572-.613-1.348-.44-2.137-1.92-2.576-3.158 3.797-1.763 6.357-4.6 6.63-7.845V9.737C30.89 4.308 24.053 0 15.686 0 7.02 0 0 4.618 0 10.314" fill-rule="evenodd"/></symbol><symbol id="shape-icon-world-map" viewBox="0 0 81.8 81.1"><path fill-rule="evenodd" clip-rule="evenodd" d="M67.4 33.4c.6.5 1 1.9 1.5 2.7 1.1 1.8 2.6 4.3 5.3 2.3 2.2 1.7-4.5 6.5-4.9 8.6-.1.5.6 2.1.4 2.6-.5 1.4-1.2 2.7-1.7 3.9-.3.7-.6.7-.7 1.8-.1 1.1-.3.8-.6 1.3-.4.9-1 2.3-1.7 2.9-1.1 1-2 1.6-3.4 1.6-1.6-.1-1.6.8-2.6-1.4-.5-1.1-1.2-2.3-1.3-3.8-.1-1.6-2-2.9-1-4.5 1.1-1.8.3-1.9.1-3.8-.1-1.4-1.5-2-1.7-3.1 0 .3.4-1.5.5-1.5.4-.7-1-.6-1.3-.8-.6-.5-1-1-1.9-1.1-1.8-.2-4.1 2.3-5.7.6-.9-1-3.4-3-2.7-4-.5-.4-.3-3.3-.1-4.4.2-1 .7-1.5 1.3-2.2.5-.6 1.5-1.1 1.7-2.4.2-1.1 1.2-1.1 1.8-2.2 1.4 1.1 3.2-.5 5-.7.3 0 2.7-.2 2.5.3 0 0-.2 1.5-.3 1.4.4.6 3.6 1.8 4.1 1.7.2-.1.3-2.2 1.3-1.2.6.5.8.2 1.2.9.7-.2 1.4-.1 1.9.4.4-.9 1.9-.5 2.4.3 0-1.1.2-2.3.4-3.3-1.5.3-6.2-.9-3.4-2.5-.1 0-.2-.1-.3-.1.7-.2 2.2-.7 3-.6.9.1 1.3.8 2.4.7 2-.1-3-2.1-.7-3.4-.9-.3-2.6 1.2-3.1 0-.7.4-.6 1.3-1.3 1.1-.3.7-.6 1.2-.6 1.9-.3 0-.6.1-.9.1.3.1.7.2 1 .2-.8.1-1.5.4-2.1.7.2.4.1.1-.1.4.4.1.6.4.8.6-.2.1-.5.4-.4.4-.7 0-.7 0-1.1-.4.2 0 .4-.1.5-.2-.8-.3-1.4-1.1-1.2-1.8-.5-.3-3-2.2-3-2.3-1.2.9 2.1 2.8 2.7 3.4-.7-.2-1.1.4-1.3.9 0-1.3-.9-1.3-1.8-2.1-1.4-1.2-.6-.9-2.2-.6-1.5.3-.8-.3-2 .8-.4.4-.8.6-1.2 1-.2.3.4.6-.1 1-.8.7-4.3 1-4.1-.7 0-.3.6-2.6.5-2.5 1.5-1.2 3.1 1.7 3.5-1.2-.2-.4-1.5-1.4-1.5-1.5 0-.6 1.1.2 1.1-.9.6.2 2.7-.7 3.5-1.2 1.9-1.1 0-2.6 1.6-3.5.5 1.7-.2 2.6 2.5 2.1 1.7-.3 2-1 2.6-2.5 1.5 1.1-.2-1.5 2.4-.9-.8-1.2-2.2.5-2.8-.9-.5-1.1 0-1.7.9-2.3 8 5.1 13.9 13.2 16.2 22.4-.7-1.8-3.1 0-3.8-2.5 0 0-.9.1-1.1.2.2.7 2 1.9 1.9 2.4-.5 1.6 1.9 1.7 2.4.3.2.4.5.2.8.4 1 4.3-3.7 3.4-6 5.5-.5.5-1.6-3-2.2-3.7-1-1.2-2.1-3.1-2.6-4.4-.1.1-.2.3-.2.4-.3-.3-.5-.6-.8-.9.2.8 1.4 3.5 1.8 3.8m3.7 23.1c-1.1 0 .7-6.9 2.8-6.5 1 2.1-.7 6.5-2.8 6.5M41.9 9.8c.2-.4.1-.6.2-1-.3 0-.5.1-.8.1.1-1.6 1.7-.5 2.8-.8 1.9-.5 1.6 1.6.1 1.5-.5.8-1.4.3-2.3.2M39.7 7c-2.1-.2-.8.6-2.2 1.2-.8.4-2.7 0-2.8 1.1-.1.8-.9 1.9-1.3 2.7-.8 1.7-3.1-2.1-3.3-3-.2-.9-.8-1.7.3-2.2 1-.5.5-1.4-.5-1.5 2.2-.7 10.5-3.4 12.5-1.3 1.5 1.5-1.5.2-1.9 1.1.6.1 1.2.3 1.8.4-.6.4-1.7 1.6-2.6 1.5M13.2 33.8c1.2-1.3 3.7.1 4.7 1-1.5.9-2.3-1.7-4.7-1m5.5 1.7c-.3-1.5 1.3-.6 2 0-.7.2-1.5.2-2.3.2-.4-.1-.6.1-.6-.4.3.1.6.2.9.2m15.7 14.7c-.6 1.2-.4 2.8-1 4.2-.8 1.6-2.2 1-3.4 2.4-.9 1.1-.3 2.5-1.5 3.3 0-.3.1-.4.1-.6-.6 2.4-1.2 1.6-2.7 2.4 1.3.6.5 1.3-.1 1.9-.2.3-1.1 0-1.4.2-.3.2 0 .6 0 .6-.5.2 0 1.1-1.2.3.4.7.6 2.3-.6 2.7.2 0 .5 2.1-.4 2.8-.6.4.4 1.7-.4 2-.4.2-1.9-1.2-2.2-1.7-.6-.9.4-4-.6-4.3.4-1.5.1-3.5.3-5.1.2-1.4.2-3.3.3-4.9.1-2.7-.9-3.9-2.9-5.4-.4-.3-1.2-1.9-1.3-2.4-.1-.5-.7-1.2-.9-1.8-.2-.5.4-.4.4-.9.1-.5-.5-.3-.1-1.2.3-.5.7-.8.9-1.4.3-.7.9-2.5-.8-2.8 0 1.9-2.8-1.8-3.3-2.2-1.8-1.6-4.3-1.3-6.3-2.5-2.8-1.7.6-8.2 1.7-10.7 1.8-3.8 4.2-7.3 7.2-10.4 2.4-.3 1.7 3.7 3.5 3.3.4-.8 1.7-4.3.8-4.7.9-.6 0-2.1 1.1-2.6.6-.3 2.6 1 3.1 1.4-1.2 1.7 1.2 2.1 1.8.4.7 1.1.8 3 2 3.1.2.2-.3.3.4.2-.5.5-.4.6-1.1.8 1.5-.4 2.3.3 1.2 1.4-1.4 1.4-3.9 0-5.4 1.8.7-.5 1.4-.6 2.1-.3-.5.9.4 1.3 1.4 1.6-.8.4-1.6.8-2.3 1.3-.1-.1-.2-.2-.2-.3.5-.3 1.1-.9 1.3-1.4-1.1.2-3.6 1.8-3.1 2.7-2.9.6-2.1 2.5-3.3 4-.4.5-1.9.5-2.2 1.4-.4 1.4.6 2.5.3 3.8-1.2-.7-.6-2-1.4-2.7-.6-.5-2.8-.8-2.6.3-.9-.1-.7.1-1.1-.7-.9.7-1.1.1-2.2 1.2-.9 1-1.7 3.9.2 4.6 1.6.6 1.6-1.4 2.6-1.4 1-.1 1.5.6.8 1.4-1.5 1.7 1.2 1.3 1.8 1.8-1.6 3.3 1.5 1.9 2.8 3.5.4-1.5 1.9-2.2 3-2 .4.1.9.7 1.2.8 1.1.2 1.8-.2 2.9-.2 0 1.1 1.4 1.6 1.9 2.6 1.8-1.4 4 1.8 2.2 3.6.5-.6 1-.9 1.7-.7-.2.2-.3.4-.4.7 1.6-1.5 5 .9 6.5 1.6.7 1.4-.4 1.9-1.1 3.2M25.6 7.4c.9.5.8 1 0 1.8-.3-.5-1.6-1.8-1.7-.7-.1.8 1.6.7.7 2.2-.3-.3-.8-.4-1.1-.7.2.4.3.8.6 1.2-.5-.2-1.1-.4-1.6-.7-.6-.8-1.4-1-2.3-.6 1.1-.8 4-3.3 5.4-2.5M28 20.7c.1 0-.4-.4-.4-.4v.4c-.4-.9-1.8-.2-1.7-1.1.1-.8 1.3-1.3 1.6-.9.7.2 1.2 1 .5 2M30.4 6c-.4.1-.7.3-1.1.2.3-.7.5-.3 1.1-.2m18.1 9.5c1.1.9-.6 2.1-1.7 2.2v-.6c-.1-.5.9-2.3 1.7-1.6m1.8-1.3c-.1 0-.3.1-.4.1.9.5 2.2 2.9 1.4 3.2.1.1.2.2.4.3-1 .4-1.8.3-2.8.8.3-.3.5-.8.9-1-.2 0-.5-.1-.7-.1.1-.6.4-1.1 1-1.4-.9-.4-1.6-.8-1.2-1.6 0-.2-.1-.3-.3-.4.6-1 1.1-.7 1.7.1m4.6-4c.8-.1 1.2-1.8 1.8-2.4 1.1-1 2.3.3 3.4 1 .2.6-.4.7-.5 1-.3.9-2 1-.6 2.5-.3.1-.5.2-.8.3.9.2.5.9.1 1.5-.9 1.3-1 .6-1.5.3-.7-.4-.9-.9-1.8-1.3-.7-.3-1.9.9-1.4-1.1-1-.7.2-1.7 1.3-1.8m-14 70.9c22.6 0 40.9-18.2 40.9-40.6C81.8 18.2 63.4 0 40.9 0 18.3 0 0 18.2 0 40.6c0 22.3 18.3 40.5 40.9 40.5"/></symbol></svg>