<svg xmlns="http://www.w3.org/2000/svg"><symbol id="shape-icon-100e-refunded" viewBox="-581 409.1 27.1 23.7"><path d="M-567.9 422.7c-.2-1.1-.9-1.8-1.7-1.7-.8.1-1.2 1-1 2.1.2 1.1.8 1.8 1.7 1.7.8-.1 1.1-1 1-2.1M-562 421.7c-.2-1.1-.9-1.8-1.6-1.7-.8.1-1.2 1-1 2.1.2 1.1.8 1.8 1.7 1.7.7-.1 1.1-1 .9-2.1"/><path d="M-575.3 412.1c1.4.8 2.4 1.9 3 3l-6.2 2.5-1.2.5-.8.3c-.8.3-.5 1.1-.5 1.1l1.2 3 1.2 2.9 2.8 6.9c.3.8 1.1.5 1.1.5l10.6-4.2 1.1-.4 8.4-3.4c.8-.3.5-1.1.5-1.1l-5.2-12.8c-.3-.8-1.1-.5-1.1-.5l-2.6 1-1.9.7-6.1 2.4c-.5-.9-1.1-1.8-1.9-2.5 0 0-1-.9-3-1.9-1.5-.7-2.8-1-2.8-1-.4-.1-.8.2-.9.6-.1.3.1.6.4.8 0 0 2.3.7 3.9 1.6m-.3 12.8l-1.5.2c-.3.1-.7-.2-.7-.5-.1-.3.2-.7.5-.7l1.5-.2c.3-.1.7.2.7.5.1.3-.1.7-.5.7m2.9 1.7c-.4.1-.7-.2-.8-.5l-.7-4.2-.5.2c-.1 0-.2.1-.2.1-.3 0-.6-.2-.7-.5 0-.3.1-.5.3-.6l.8-.4c.2-.1.4-.2.6-.2.4-.1.7.2.8.5l.8 4.8c.2.4 0 .7-.4.8m1-9.8c.1.3.1.6.1.9 0 .4.4.7.8.7s.8-.4.7-.8c0-.3 0-.6-.1-.9.2.1.3.3.4.5.2.6-.1 1.3-.7 1.5-.6.2-1.3-.1-1.5-.7-.2-.4-.1-.8.3-1.2m2.9 9.2c-1.6.3-2.9-.9-3.2-2.7-.3-1.7.6-3.3 2.2-3.5 1.6-.3 2.9.9 3.2 2.7.3 1.7-.5 3.3-2.2 3.5m6-1c-1.6.3-2.9-.9-3.2-2.7-.3-1.7.6-3.3 2.2-3.5 1.6-.3 2.9.9 3.2 2.7.3 1.7-.6 3.3-2.2 3.5m5.6-4.4c-.2.4-.5.6-1 .7-.8.1-1.4-.3-1.7-.9h-.2c-.1 0-.3-.1-.3-.2v-.2c0-.1.1-.1.2-.1h.2v-.2-.2h-.2c-.1 0-.3-.1-.3-.2s.1-.3.2-.3h.2c.1-.7.5-1.2 1.3-1.4.4-.1.7 0 .9.1.1 0 .2.1.2.2.1 0 .1.1.2.2 0 .2-.1.4-.3.4h-.2s-.1 0-.1-.1c-.1-.1-.2-.1-.3-.2h-.3c-.3.1-.5.2-.6.5l.7-.1c.1 0 .3.1.3.2v.1c0 .1-.1.2-.2.2l-.8.1v.4l.8-.1c.1 0 .3.1.3.2v.2c0 .1-.1.1-.2.1l-.7.1c.2.3.4.4.8.4.3 0 .4-.2.5-.4l.1-.1s.1 0 .1-.1c.1 0 .2 0 .3.1.1.1.1.1.1.2.1.3 0 .3 0 .4"/></symbol><symbol id="shape-icon-14d-reconsider" viewBox="0 0 612 792"><path d="M194.067 312.397l-16.023 4.153c-2.374.594-5.638 1.188-8.01 1.188-10.683 0-19.88-8.902-19.88-19.584 0-9.198 5.933-16.913 15.132-19.584l29.375-8.604c8.606-2.374 15.134-3.857 21.365-3.857h.594c12.46 0 22.55 10.088 22.55 22.55v167.352c0 12.462-10.088 22.553-22.55 22.553-12.464 0-22.552-10.09-22.552-22.553V312.397zM384.564 431.977h-85.458c-12.166 0-22.254-8.9-22.254-21.065 0-9.495 3.857-16.913 10.682-24.925l90.204-104.743c8.604-10.09 15.133-15.43 28.482-15.43 12.166 0 21.958 9.495 21.958 21.66V394.89h10.98c10.385 0 18.69 8.31 18.69 18.693 0 10.387-8.308 18.397-18.69 18.397H428.18V456.9c0 12.166-9.792 21.66-21.958 21.66-12.165 0-21.658-9.494-21.658-21.66v-24.923zm0-37.09V330.2l-55.19 64.686h55.19z"/><path d="M109.417 604.755c-5.062 0-10.125-1.91-14.02-5.737-56.435-55.48-87.7-129.66-88.04-208.877-.167-38.932 7.15-76.96 21.746-113.025C44.2 239.81 66.44 206.303 95.206 177.52c55.473-56.404 129.633-87.652 208.827-87.99 38.978-.173 76.96 7.15 113.026 21.746 37.304 15.098 70.81 37.336 99.595 66.102 56.402 55.473 87.65 129.632 87.988 208.826.167 38.932-7.15 76.96-21.746 113.026-15.11 37.335-37.373 70.867-66.172 99.667-7.81 7.81-20.475 7.81-28.285 0-7.81-7.81-7.81-20.475 0-28.285 49.438-49.437 76.5-114.866 76.204-184.237-.293-68.47-27.312-132.58-76.082-180.522l-.122-.12c-49.437-49.438-114.85-76.457-184.236-76.204-68.47.29-132.58 27.31-180.523 76.08l-.12.122C74.124 255.17 47.06 320.6 47.358 389.97c.292 68.47 27.312 132.58 76.082 180.522 7.875 7.744 7.984 20.406.24 28.283-3.914 3.983-9.088 5.98-14.263 5.98z"/><g><path d="M196.713 664.81c-.552 0-1.107-.023-1.664-.07l-44.095-3.673-44.096-1.838c-7.18-.3-13.647-4.427-16.94-10.812-3.296-6.386-2.913-14.047 1.003-20.07l24.11-37.093c.124-.192.252-.382.383-.57l25.963-37.09c4.08-5.83 10.957-9.055 18.045-8.46 7.092.59 13.336 4.905 16.396 11.33l18.465 38.774 19.903 39.803c1.62 2.888 2.542 6.22 2.542 9.766 0 10.978-8.847 19.892-19.802 19.998h-.215zm-53.13-44.085l9.45.394c.276.01.552.027.828.05l9.045.754-4.485-8.97c-.057-.113-.113-.228-.168-.345l-3.788-7.956-6.083 8.688-4.796 7.383z"/><path d="M139.153 600.388H170.5v32.048h-31.347z"/></g></symbol><symbol id="shape-icon-4g" viewBox="0 0 24 16"><title>icon-4G@1x</title><path d="M16.085 10.021v.002l.407-3.607c.144-1.365 1.43-2.563 2.75-2.563h2.955c.138 0 .27-.15.29-.32V3.53l.365-3.05c.012-.14-.025-.265-.11-.355-.072-.08-.18-.125-.3-.125h-3.1c-3.146 0-5.878 2.502-6.22 5.695l-.002.003-.45 3.745c-.087.834-.005 1.655.24 2.436.248.786.653 1.495 1.197 2.104.535.598 1.176 1.065 1.904 1.393.73.322 1.51.488 2.323.488.007 0 .264.006.478.006.732 0 2.18-.057 3.672-.45.25-.07.453-.296.492-.55L23.83 8c.016-.142-.022-.275-.103-.366-.075-.083-.184-.127-.305-.127h-4.326c-.138 0-.274.125-.292.27l-.284 2.247c-.007.053.004.102.03.13.03.033.074.04.104.04h1.5s-.18 1.577-.183 1.586c-.052.51-.55.607-.648.62l-.004.002h-.004c-.346.026-.924.038-1.35.043h-.015c-.568-.046-1.037-.264-1.37-.633-.39-.438-.566-1.07-.495-1.788v-.002zM7.418 8.768l-3.165.003L8.097 4.64l-.68 4.124zm4.593-.005h-.92l.984-8.057C12.086.6 12.06.5 12.004.438c-.06-.067-.146-.08-.208-.08H8.893c-.41.01-1.078.382-1.455.802-.003.005-.006.005-6.74 7.052-.333.386-.39.515-.458 1.025L.003 11.29c-.01.1.01.194.06.253.066.072.162.084.216.084h6.776s-.443 3.436-.452 3.497c-.01.108.01.2.066.262.048.053.122.08.21.08h2.9c.265 0 .52-.23.552-.507l.407-3.333h.86c.077 0 .178-.102.19-.233l.234-2.548c.004-.044-.004-.07-.01-.085h-.003z" fill-rule="evenodd"/></symbol><symbol id="shape-icon-delivery" viewBox="0 0 32 18"><title>icon-delivery@1x</title><path d="M7.51 12.708c-1.43 0-2.587 1.18-2.587 2.637s1.158 2.637 2.588 2.637c1.43 0 2.59-1.18 2.59-2.637s-1.16-2.637-2.59-2.637zm0 4.336c-.92 0-1.667-.762-1.667-1.7 0-.935.748-1.698 1.668-1.698.92 0 1.668.763 1.668 1.7 0 .936-.748 1.698-1.667 1.698zm17.134-4.336c-1.428 0-2.587 1.18-2.587 2.637s1.16 2.637 2.587 2.637c1.43 0 2.588-1.18 2.588-2.637s-1.16-2.637-2.588-2.637zm0 4.336c-.92 0-1.668-.762-1.668-1.7 0-.935.748-1.698 1.668-1.698.92 0 1.67.763 1.67 1.7 0 .936-.75 1.698-1.67 1.698zm6.062-8.53l-7.632-6.922C21.87.333 19.656.004 19.656.004H3.988C1.288.005.773 3.16.773 3.16v9.775c0 1.973 1.485 2.412 1.485 2.412h2.12c.09-3.085 2.98-3.288 2.98-3.288 3.505-.062 3.49 3.287 3.49 3.287H21.51c.167-3.472 3.23-3.298 3.23-3.298 3.193.314 3.24 3.296 3.24 3.296h.627s4.957-1.957 2.096-6.83zM19.76 7.677V3.124h3.79l5.182 4.552h-8.97z" fill-rule="evenodd"/></symbol><symbol id="shape-icon-exclusive-promo" viewBox="239.445 114.14 399 373"><path d="M632.827 293.796c-.496-2.666-1.55-5.21-2.915-7.503-1.674-2.666-3.844-5.022-6.51-6.82L390.497 122.28c-6.2-4.216-14.138-5.022-21.082-2.17l-64.365 26.354-23.19 9.55v-.062l-21.454 8.743c-8.37 3.473-13.89 11.596-13.952 20.648l-.187 30.57-.124 23.812-.372 63.372c0 4.28 1.18 8.372 3.35 11.906 1.675 2.666 3.845 5.022 6.51 6.82l232.904 157.19c10.294 6.946 24.245 4.218 31.13-6.014l109.69-162.4c3.35-4.9 4.59-10.975 3.473-16.804zM329.73 235.942c-10.913 6.76-25.3 3.35-32.058-7.565-6.76-10.913-3.35-25.3 7.565-32.06 10.913-6.758 25.3-3.347 32.058 7.566 6.76 10.914 3.35 25.3-7.564 32.06z"/><path fill="#FFF" d="M394.99 328.728v-1.693c0-1.693 1.355-3.217 3.048-3.217h6.604c-.34-2.71-.508-5.418-.508-8.466 0-1.185 0-2.54.17-3.725h-6.266c-1.692 0-3.048-1.524-3.048-3.217v-1.693c0-1.693 1.355-3.217 3.048-3.217h7.28c5.418-28.105 30.138-49.27 59.937-49.27 17.1 0 29.46 5.757 40.974 15.746 1.522 1.354 1.522 3.386.168 4.74l-7.11 7.28c-1.355 1.524-3.387 1.524-5.08 0-7.788-7.28-18.285-11.005-28.783-11.005-20.147 0-36.232 14.054-40.973 32.51h43.513c1.862 0 3.217 1.522 3.217 3.216v1.862c0 1.693-1.354 3.048-3.217 3.048h-44.867c-.17 1.185-.17 2.2-.17 3.386 0 3.048.17 5.926.847 8.805h37.418c1.862 0 3.217 1.523 3.217 3.217v1.862c0 1.693-1.354 3.048-3.217 3.048h-34.878c6.095 15.576 20.994 26.92 39.28 26.92 12.19 0 20.994-4.91 29.12-11.174 1.525-1.186 3.05-1.016 4.064-.17l7.788 7.62c1.354 1.185 1.016 3.386-.17 4.57-11.513 11.175-26.073 16.424-41.143 16.424-28.105 0-51.64-18.455-58.75-44.19h-8.467c-1.692 0-3.048-1.522-3.048-3.216z"/></symbol><symbol id="shape-icon-secure-payment" viewBox="0 0 36 23"><title>icon-paiement-secure@1x</title><g fill-rule="evenodd"><path d="M30.578 16.68c0-.324-.256-.587-.572-.587-.315 0-.57.263-.57.588 0 .223.122.416.3.515l-.21 1.286h.96l-.21-1.285c.18-.1.302-.292.302-.514M30.006 13.327c-.584 0-1.06.488-1.06 1.087v.698h2.12v-.698c0-.6-.476-1.087-1.06-1.087M23.36 16.508c0-3.624 2.776-6.59 6.26-6.796V1.005c0-.48-.38-.868-.846-.868H1.842c-.467 0-.847.39-.847.868v16.06c0 .48.38.868.847.868H23.51c-.096-.46-.15-.936-.15-1.425zM15.965 5.415h6.207c.94 0 1.702.785 1.702 1.75 0 .966-.76 1.75-1.7 1.75v.002h-6.208V5.415zm-.117 3.502H11.29v.214h4.557v.342c0 1.758-1.39 3.184-3.105 3.184H9.845c-1.712 0-3.102-1.426-3.102-3.184v-.848c0-1.76 1.39-3.186 3.102-3.186h2.897c1.714 0 3.105 1.426 3.105 3.186v.293zm6.324 3.716h-6.206V9.13h6.207c.94.002 1.702.784 1.702 1.75 0 .965-.76 1.75-1.7 1.75v.003z"/><path d="M30.006 10.39c-3.29 0-5.965 2.744-5.965 6.118 0 3.376 2.677 6.122 5.966 6.122 3.29 0 5.965-2.746 5.965-6.122 0-3.374-2.675-6.118-5.964-6.118zm2.694 8.588c0 .46-.364.833-.81.833h-3.767c-.448 0-.812-.373-.812-.832v-3.383c0-.422.31-.77.708-.824v-.355c0-1.125.892-2.04 1.988-2.04s1.988.915 1.988 2.04v.356c.397.054.706.403.706.825v3.383z"/></g></symbol></svg>