<svg xmlns="http://www.w3.org/2000/svg"><symbol id="shape-icon-cancel" viewBox="0 0 512 512"><path d="M479.8 131.01L376.026 27.164 256 147.19 136.012 27.164 32.202 131.01l120.026 119.952L32.2 370.987l103.812 103.848L256 354.808l120.026 120.027L479.8 370.987 359.81 250.962 479.8 131.01z"/></symbol><symbol id="shape-icon-check" viewBox="0 0 512 512"><path d="M432 64L192 304 80 192 0 272l192 192 320-320-80-80z"/></symbol><symbol id="shape-icon-r-error" viewBox="0 0 792 612"><circle cx="404.979" cy="305.955" r="240.888"/><path fill="#FFF" d="M401.596 2C235.5 2 100.856 138.066 100.856 305.907c0 167.842 134.645 303.907 300.738 303.907 166.092 0 300.733-136.065 300.733-303.907C702.327 138.067 567.685 2 401.597 2zm1.813 542.657c-130.98 0-237.158-107.3-237.158-239.657 0-132.357 106.18-239.657 237.157-239.657 130.976 0 237.154 107.3 237.154 239.657 0 132.357-106.176 239.657-237.155 239.657z"/><path fill="#FFF" d="M572.652 215.16l-79.026-79.083-91.404 91.404-91.375-91.403-79.056 79.082 91.406 91.346-91.405 91.404 79.057 79.084 91.375-91.405 91.404 91.404 79.026-79.084-91.375-91.404 91.375-91.347z"/></symbol><symbol id="shape-icon-simcard" viewBox="0 0 995 768"><path d="M734.487 724.576V131.7c0-11.214-4.552-21.343-11.887-28.686L624.146 14.74c-7.354-7.344-17.486-11.88-28.683-11.88H288.176c-2.8 0-5.542.286-8.192.827-2.613.546-5.17 1.348-7.595 2.36-4.872 2.058-9.238 5.03-12.896 8.69-7.333 7.344-11.868 17.496-11.868 28.688v681.15c0 22.406 18.157 40.562 40.55 40.562H693.92c22.41.002 40.567-18.155 40.567-40.56zM583.97 168.724c34.187.01 61.88 27.74 61.88 61.917v33.348l-71.695-.032.02-95.23h9.794zm-33.814-.014l-.02 95.208-47.062.014.056-95.245 47.026.023zm-71.098 95.23l-47.044-.03V168.7l47.062.01-.018 95.23zM336.303 479.987l-.02-249.406c.038-34.233 27.693-61.894 61.918-61.903H408l-.018 100.755v18.544h237.87V480.01l-309.547-.024zm61.822 119.29c-34.224.015-61.898-27.74-61.86-61.962l-.02-33.314 71.715.012-.038 95.28-9.797-.015zm33.814-.008l.074-95.223 46.97-.033v95.303l-47.045-.047zm71.134.023l-.037-95.245 47.007.016.037 95.255-47.006-.024zm70.987.01l.057-95.263 71.658.033.036 33.328c0 34.186-27.747 61.926-61.934 61.926l-9.815-.023z"/></symbol></svg>