<svg xmlns="http://www.w3.org/2000/svg"><symbol id="shape-icon-4g-plus" viewBox="0 0 32 17"><title>icon-4G+@1x</title><path d="M30.966 2.915h-2.32l.59-2.604c.04-.17-.068-.31-.235-.31h-1.65c-.168 0-.338.14-.374.31l-.59 2.61H24.07c-.185 0-.37.153-.414.34l-.34 1.5c-.042.19.076.343.258.34h2.32l-.585 2.573c-.04.17.07.31.236.31h1.648c.17 0 .34-.14.376-.31l.583-2.573h2.32c.185 0 .372-.153.413-.34l.34-1.5c.04-.19-.076-.345-.26-.345zM23.156 7.9h-4.17c-.133 0-.276.118-.308.26l-.56 2.39c-.014.05-.005.098.016.124.024.033.068.038.098.038h1.445l-.46 2.01c-.104.494-.592.585-.69.596l-.002.002h-.007c-.334.03-.894.04-1.305.042H17.2c-.542-.044-.974-.255-1.255-.61-.336-.418-.443-1.03-.303-1.72l.754-3.475c.272-1.31 1.63-2.462 2.905-2.462h2.85c.13 0 .276-.146.31-.308v-.002l.656-2.938c.024-.132.004-.254-.07-.342-.062-.076-.16-.118-.278-.118H19.78c-3.034 0-5.92 2.406-6.564 5.482l-.003-.002-.807 3.605c-.165.803-.17 1.593-.008 2.342.162.76.48 1.44.943 2.03.457.573 1.03 1.023 1.7 1.338.673.31 1.41.47 2.192.47.004 0 .252.007.457.007.707 0 2.108-.057 3.586-.433.246-.07.465-.286.528-.532l1.697-7.32c.033-.137.006-.263-.06-.354-.066-.075-.166-.12-.284-.12zM7.41 9.82l-3.052.003 4.118-3.967L7.41 9.82zm4.43-.002h-.89l1.75-7.754c.024-.1.008-.195-.04-.254-.05-.066-.132-.078-.194-.078H9.67c-.397.01-1.077.365-1.485.773-.003.003-.005.003-7.2 6.783-.357.37-.427.498-.54.986L.008 12.25c-.02.1-.008.187.034.242.054.072.148.083.198.083h6.535s-.768 3.308-.78 3.366c-.027.104-.013.192.036.253.04.05.11.076.193.076H9.02c.258 0 .526-.223.584-.488.004-.005.726-3.207.726-3.207h.828c.074 0 .184-.1.206-.225l.48-2.45c.008-.044.002-.072-.002-.082z" fill-rule="evenodd"/></symbol><symbol id="shape-icon-4g" viewBox="0 0 24 16"><title>icon-4G@1x</title><path d="M16.085 10.021v.002l.407-3.607c.144-1.365 1.43-2.563 2.75-2.563h2.955c.138 0 .27-.15.29-.32V3.53l.365-3.05c.012-.14-.025-.265-.11-.355-.072-.08-.18-.125-.3-.125h-3.1c-3.146 0-5.878 2.502-6.22 5.695l-.002.003-.45 3.745c-.087.834-.005 1.655.24 2.436.248.786.653 1.495 1.197 2.104.535.598 1.176 1.065 1.904 1.393.73.322 1.51.488 2.323.488.007 0 .264.006.478.006.732 0 2.18-.057 3.672-.45.25-.07.453-.296.492-.55L23.83 8c.016-.142-.022-.275-.103-.366-.075-.083-.184-.127-.305-.127h-4.326c-.138 0-.274.125-.292.27l-.284 2.247c-.007.053.004.102.03.13.03.033.074.04.104.04h1.5s-.18 1.577-.183 1.586c-.052.51-.55.607-.648.62l-.004.002h-.004c-.346.026-.924.038-1.35.043h-.015c-.568-.046-1.037-.264-1.37-.633-.39-.438-.566-1.07-.495-1.788v-.002zM7.418 8.768l-3.165.003L8.097 4.64l-.68 4.124zm4.593-.005h-.92l.984-8.057C12.086.6 12.06.5 12.004.438c-.06-.067-.146-.08-.208-.08H8.893c-.41.01-1.078.382-1.455.802-.003.005-.006.005-6.74 7.052-.333.386-.39.515-.458 1.025L.003 11.29c-.01.1.01.194.06.253.066.072.162.084.216.084h6.776s-.443 3.436-.452 3.497c-.01.108.01.2.066.262.048.053.122.08.21.08h2.9c.265 0 .52-.23.552-.507l.407-3.333h.86c.077 0 .178-.102.19-.233l.234-2.548c.004-.044-.004-.07-.01-.085h-.003z" fill-rule="evenodd"/></symbol><symbol id="shape-icon-add" viewBox="0 0 24 24"><path d="M18 10h-4V6c0-1.104-.896-2-2-2s-2 .896-2 2l.07 4H6c-1.104 0-2 .896-2 2s.896 2 2 2l4.07-.07L10 18c0 1.104.896 2 2 2s2-.896 2-2v-4.07l4 .07c1.104 0 2-.896 2-2s-.896-2-2-2z"/></symbol><symbol id="shape-icon-advisor" viewBox="0 0 32 30"><title>icon-advisor@1x</title><path d="M31.9 12.895c0-2.657-2.21-4.81-4.942-4.81h-.102v9.078c-1.41 4.776-5.294 8.53-10.212 9.876-.25-.35-.667-.58-1.137-.58h-5.083c-.768 0-1.39.606-1.39 1.355 0 .745.622 1.35 1.39 1.35h5.083c.534 0 .998-.292 1.23-.723 5.524-1.402 9.902-5.57 11.48-10.893 2.12-.545 3.683-2.422 3.683-4.655zm-10.613 5.453c-.678.397-1.346.745-2.003 1.04-.656.295-1.314.542-1.97.743-.656.2-1.34.348-2.054.45-.712.102-1.46.15-2.24.15-1.52 0-2.934-.195-4.24-.59-1.307-.394-2.638-.99-3.994-1.792-.76-.452-1.238-.808-1.432-1.07-.193-.263-.29-.62-.29-1.07 0-.338.093-.505.28-.505.062 0 .396.142 1 .424.605.282 1.327.577 2.163.883.836.307 1.82.572 2.95.798 1.13.225 2.32.34 3.563.34 1.252 0 2.445-.117 3.58-.344 1.132-.23 2.113-.496 2.944-.8.83-.302 1.55-.595 2.163-.877.61-.282.944-.424 1-.424.186 0 .28.167.28.505 0 .47-.093.834-.275 1.09-.184.255-.658.605-1.425 1.05zM7.684 8.732c.277-.303.666-.454 1.16-.454.423 0 .787.144 1.09.435.305.288.458.646.458 1.07 0 .424-.15.786-.452 1.084-.3.3-.666.45-1.095.45-.49 0-.875-.15-1.156-.45-.28-.298-.42-.65-.42-1.055 0-.416.137-.777.414-1.08m8.463-.01c.312-.295.674-.444 1.088-.444.492 0 .87.15 1.142.45.27.3.403.66.403 1.084 0 .412-.136.764-.408 1.062-.274.295-.652.444-1.137.444-.385 0-.743-.163-1.068-.485-.325-.323-.487-.673-.487-1.05 0-.41.155-.765.467-1.06M13.025.458C5.862.46.055 6.113.055 13.086c0 6.975 5.807 12.63 12.97 12.63s12.97-5.655 12.97-12.63C25.996 6.114 20.19.46 13.026.46" fill-rule="evenodd"/></symbol><symbol id="shape-icon-arrow-d" viewBox="0 0 64 64"><path d="M5.85 14.572l-4.032 3.934 30.22 30.978 30.085-31.11-4.05-3.916L32.02 41.395"/></symbol><symbol id="shape-icon-arrow-u" viewBox="0 0 64 64"><path d="M58.092 49.37l4.03-3.933-30.218-30.98-30.086 31.11 4.05 3.917L31.92 22.548"/></symbol><symbol id="shape-icon-battery" viewBox="0 0 32 36.5"><path d="M30 13.25h-2c0-1.654-1.346-3-3-3H3c-1.654 0-3 1.346-3 3v10c0 1.654 1.346 3 3 3h22c1.654 0 3-1.346 3-3h2c1.104 0 2-.896 2-2v-6c0-1.103-.896-2-2-2zm-4 10c0 .552-.448 1-1 1H3c-.552 0-1-.448-1-1v-10c0-.552.448-1 1-1h22c.552 0 1 .448 1 1v10zm4-2h-2v-6h2v6zm-16.553-6.105c-.246-.493-.897-.895-1.447-.895H5c-.55 0-1 .45-1 1v6c0 .55.45 1 1 1h11c.55 0 .8-.402.553-.895l-3.106-6.21z"/></symbol><symbol id="shape-icon-camera" viewBox="0 0 32 23"><title>icon-camera@1x</title><g fill-rule="evenodd"><path d="M16.116 21.004c-4.64.002-8.423-3.806-8.415-8.466.01-4.666 3.806-8.487 8.42-8.476 4.595.01 8.35 3.797 8.386 8.45.036 4.648-3.762 8.492-8.39 8.492M31.568 4.43c0-1.414-.838-2.25-2.24-2.253-1.673-.003-3.345-.005-5.017.004-.273.002-.427-.038-.518-.364-.256-.9-.983-1.447-1.93-1.45-3.838-.014-7.675-.014-11.513 0-.93.003-1.675.54-1.915 1.396-.102.365-.267.423-.587.42-1.62-.013-3.24-.005-4.86-.005-1.548 0-2.346.8-2.346 2.356v15.81c0 1.593.798 2.405 2.365 2.405h13.096c4.4 0 8.8.002 13.202-.002 1.426 0 2.262-.847 2.263-2.292.003-5.34.002-10.682 0-16.024"/><path d="M16.187 7.116c-3.065-.01-5.458 2.353-5.467 5.398-.01 3.025 2.374 5.454 5.358 5.46 2.997.005 5.406-2.4 5.414-5.41.007-3.006-2.363-5.44-5.305-5.448zm3.7 5.836c-.06.05-.14.086-.243.104-.115.022-.208.016-.284-.01 0-.002 0-.002-.002-.002-.227-.08-.304-.34-.357-.62-.277-1.46-1.34-2.347-2.743-2.33-.433.044-.816-.01-.833-.503-.017-.467.377-.517.73-.548 1.8-.16 3.69 1.42 3.88 3.237.03.265.03.527-.148.672z"/></g></symbol><symbol id="shape-icon-check" viewBox="0 0 512 512"><path d="M432 64L192 304 80 192 0 272l192 192 320-320-80-80z"/></symbol><symbol id="shape-icon-close" viewBox="0 0 16 16"><path d="M9.207 8.5l2.768-2.768c.195-.195.195-.512 0-.707-.195-.195-.512-.195-.707 0L8.5 7.793 5.732 5.025c-.195-.195-.512-.195-.707 0-.195.195-.195.512 0 .707L7.793 8.5l-2.768 2.768c-.195.195-.195.512 0 .707.195.195.512.195.707 0L8.5 9.207l2.768 2.768c.195.195.512.195.707 0s.195-.512 0-.707L9.207 8.5z"/></symbol><symbol id="shape-icon-cplus-start" viewBox="0 0 80 60"><path fill="#00ADEE" d="M77.684 33.134H41.63l.276 3.132h-3.403l1.782 20.353 39.123-3.78"/><path fill="#061922" d="M13.728 19.997h55.83V39.7h-55.83z"/><path fill="#FFF" d="M60.04 36.036h-3.345l2.87-5.206-4.07-7.044h3.456l2.253 4.176 2.203-4.176h3.408l-6.775 12.25zM42.17 36.056h-6.707l1.505-12.266h3.106l-1.176 9.567h3.597l-.325 2.7zM52.53 36.056l-.802-2.127h-4.402l-.832 2.126h-3.37l4.71-12.266h3.47l4.626 12.266h-3.4zm-2.977-8.474l-1.342 3.91h2.65l-1.307-3.91zM35.11 27.853c0 2.75-1.376 4.127-4.143 4.127H28.97v4.076h-3.192v-12.28h5.074c1.31 0 2.324.343 3.062 1.03.802.753 1.195 1.77 1.195 3.047zm-3.34.032c0-1.03-.573-1.54-1.736-1.54h-1.062v3.063h1.046c1.162 0 1.75-.507 1.75-1.523z"/><path fill="#061922" d="M.592 3.575h62.394V23.28H.592z"/><g fill="#FFF"><path d="M12.595 18.44c-.017.134-.082.233-.082.233s-.068.066-.182.1c-1.592.646-3.366.43-3.366.43-2.867-.315-4.69-2.07-5.27-4.34-.862-3.4.847-5.82 1.26-6.333 1.01-1.21 2.585-2.07 4.128-2.272 1.973-.28 3.43.183 4.03.38 0 0 .66.216 1.16.55.246.165.28.23.28.23s.016.033-.05.3l-.463 2.436c-.018.1-.085.15-.085.15s-.032.016-.264-.133c-1.49-1.06-3.23-.928-3.23-.928-1.33.082-2.87.78-3.332 2.536-.416 1.558.016 2.868.946 3.647.627.547 1.604.83 2.633.78 1.128-.083 2.023-.53 1.957-.5l.1-.03c.232-.117.28-.102.28-.102s.05.05.017.2l-.465 2.667zM38.338 18.877h-3.072l-.03-.032-4.128-7.325c-.032-.033-.048-.033-.048-.033s-.034 0-.034.05l-1.02 7.194c-.017.082-.034.097-.034.097s-.032.018-.08.018h-2.958c-.047 0-.08-.032-.08-.032s-.064-.065-.05-.13l1.624-11.646c.018-.065.05-.082.05-.082s.048-.05.095-.05h3.3c.05 0 .08.034.08.034s.032.016.05.063l3.717 6.53c.066.13.114.113.114.113s.05 0 .082-.146l.942-6.498c0-.047.034-.064.034-.064s.013-.017.063-.017h3.103c.064 0 .08.034.08.034s.018.017.018.047L38.48 18.746c-.017.065-.047.113-.047.113s-.015.02-.095.02zM23.326 7.004c-.015-.047-.032-.064-.032-.064s-.047-.05-.115-.05H19.344s-.047.017-.08.083L13.436 18.7c-.032.064-.017.113-.017.113s.017.048.116.032h3.36c.05 0 .097-.032.097-.032s.018-.016.05-.08l.812-1.74c.05-.113.113-.163.113-.163s.05-.065.13-.065H22.22s.034.018.034.065l.454 1.87c.017.112.034.127.034.127s.048.026.113.026h2.89c.036 0 .05-.026.05-.026s.03-.015.03-.064l-2.5-11.76zm-1.502 7.148s-.016.016-.034.016l-2.386-.016c-.082 0-.1-.018-.1-.018s-.013-.032.018-.08l1.625-3.686c.017-.033.032-.033.032-.033s.015 0 .015.033l.828 3.72c.017.046 0 .064 0 .064zM44.432 6.903c-.053 0-.11.04-.13.09l-4.534 11.805c-.02.05.01.09.06.09h3.102c.05 0 .11-.04.13-.088l.745-1.9c.02-.05.078-.09.13-.09h4.108c.053 0 .11.04.13.09l.716 1.897c.017.05.075.09.13.09h3.13c.056 0 .083-.04.065-.09L47.758 6.993c-.02-.05-.076-.09-.13-.09H44.43zm.37 7.54c-.05 0-.08-.042-.063-.09l1.243-3.625c.018-.05.045-.05.06 0l1.216 3.623c.017.052-.015.092-.065.092h-2.392zM56.56 15.78c0 .06.046.11.106.11h3.27c.06 0 .108.047.108.11v2.795c0 .06-.05.11-.107.11H53.1c-.06 0-.108-.05-.108-.11V6.855c0-.06.05-.11.11-.11h3.347c.06 0 .108.05.108.11v8.925z"/></g><g><path fill="#061922" d="M16.34 36.894V19.688l14.753 8.61-14.752 8.596z"/></g><path fill="#00ADEE" d="M17.23 21.236v14.112l12.1-7.05"/><g><path fill="#FFF" d="M53.014 51.004h-1.69v-7.388h-1.99v-1.623h5.683v1.623h-2.002v7.388z"/></g><g><path fill="#FFF" d="M62.828 51.004H60.98l-.967-2.33h-3.02l-.99 2.33h-1.84l4.384-9.987 4.28 9.987zm-5.135-3.953h1.64l-.808-1.94-.832 1.94z"/></g><g><path fill="#FFF" d="M69.703 51.004h-2.078l-2.13-3.1v3.1h-1.69v-9.01h1.714c1.032 0 1.647.144 2.192.517.676.454 1.08 1.268 1.08 2.175 0 1.233-.7 2.18-1.8 2.51l2.71 3.81zm-4.21-5.195h.19c.95 0 1.432-.38 1.432-1.125 0-.373-.156-.697-.42-.867-.223-.14-.533-.2-1.033-.2h-.168v2.19z"/></g><g><path fill="#FFF" d="M74.02 51.18h-1.688v-7.39h-1.99V42.17h5.68v1.623H74.02v7.39z"/></g><path fill="#FFF" d="M45.766 51.146c-1.47 0-2.56-.903-2.914-2.416l-.084-.356 1.635-.465.086.398c.09.416.14.522.27.694.234.33.62.52 1.037.52.703 0 1.277-.557 1.277-1.242 0-.456-.176-.752-1.17-1.203l-.75-.34c-1.328-.603-1.896-1.312-1.896-2.372 0-1.433 1.162-2.516 2.703-2.516 1.063 0 1.892.496 2.456 1.478l.178.312-1.352.9-.21-.333c-.173-.276-.25-.37-.362-.473-.19-.166-.432-.25-.73-.25-.56 0-.98.38-.98.88 0 .24.07.528.933.903l.783.34c1.47.646 2.1 1.432 2.1 2.63 0 1.63-1.325 2.91-3.01 2.91z"/></symbol><symbol id="shape-icon-email" viewBox="0 0 26 18"><title>email icon</title><path d="M18.12 9.002l5.807-4.398.06 8.797-5.866-4.398zm5.73 6.8c-.016.02-.035.036-.054.054-.013.007-.023.018-.036.027-.02.015-.042.03-.064.042-.013.006-.026.015-.038.02l-.08.03c-.017 0-.027.005-.04.01-.04.007-.08.015-.126.015L2.69 15.992c-.044 0-.09-.005-.127-.015-.014-.002-.028-.007-.04-.014-.028-.006-.052-.014-.077-.024-.017-.007-.03-.018-.042-.027-.02-.01-.04-.022-.064-.036-.012-.008-.026-.02-.036-.03l-.055-.05c-.004-.006-.01-.01-.013-.016l7.315-5.53s1.463 1.44 3.47 1.44c2.002.002 3.443-1.44 3.443-1.44l7.394 5.54-.01.012zM2.006 4.6l5.876 4.398-5.81 4.39-.066-8.79zm.145-2.41L2.2 2.15c.017-.013.027-.026.044-.035.02-.014.037-.024.055-.035.016-.01.033-.016.05-.026.02-.01.04-.014.064-.022.017-.003.036-.013.052-.016.03-.005.055-.007.084-.007.013-.003.027-.005.04-.005l20.728.005c.01 0 .025.004.04.005l.08.007c.018.004.037.01.053.015.022.007.045.012.066.022.018.008.03.02.048.025.02.012.04.023.058.037.015.01.027.022.04.03.02.017.052.05.052.05l.013.016-8.274 6.246S14.16 9.55 13.003 9.55c-1.16-.004-2.506-1.094-2.506-1.094L2.14 2.21c.005-.003.007-.01.01-.02zM23.3.008L2.572 0C1.91 0 1.307.25.85.664c-.218.2-.406.433-.545.694-.197.37-.308.788-.305 1.24L.094 15.39c.01 1.436 1.177 2.6 2.608 2.6L23.43 18c.625 0 1.196-.227 1.642-.596.572-.475.934-1.196.928-2.003l-.093-12.795C25.897 1.168 24.73.007 23.3.007z" fill-rule="evenodd"/></symbol><symbol id="shape-icon-exit" viewBox="0 0 947.204 947.204"><path d="M927.204 115.602h-421c-11 0-20 9-20 20v674c0 11 9 20 20 20h421c11 0 20-9 20-20v-674c0-11-9-20-20-20zm-342.5 394.9c-20.7 0-37.5-16.8-37.5-37.5s16.8-37.5 37.5-37.5 37.5 16.8 37.5 37.5-16.8 37.5-37.5 37.5zM6.504 738.902c1.9 9.5 10.3 16 19.6 16 1.3 0 2.7-.1 4-.4l126.9-26.1c8.8-1.8 15.3-9.3 15.9-18.2l6-86.4 64.8 71.9-17.1 108c-1.7 10.9 5.7 21.2 16.6 22.9l30.1 4.8c1.1.2 2.1.2 3.1.2 9.7 0 18.2-7 19.7-16.9l20.8-131.8c.9-6-.9-12-4.9-16.5l-76.8-85.5 47.2-67.3 3.2 41.2c.4 5.5 3.4 10.4 8 13.4l84.9 54.9c3.4 2.2 7.1 3.2 10.8 3.2 6.6 0 13-3.2 16.8-9.102l16.6-25.6c6-9.3 3.3-21.7-5.9-27.7l-63-40.7-7.1-91.2c-.5-5.8-3.4-11.2-8.2-14.6l-73.2-53.2c-2.8-2-6.1-3.3-9.6-3.7l-142.4-15.6c-.7-.1-1.5-.1-2.2-.1-8.9 0-16.8 5.9-19.2 14.6l-27.7 98.7c-3 10.6 3.2 21.7 13.9 24.7l29.3 8.2c1.8.5 3.6.7 5.4.7 8.7 0 16.8-5.8 19.2-14.6l16.1-57.5 63.9 7-96.4 129.1c-2.3 3.1-3.7 6.8-3.9 10.7l-6.4 100.6-89.3 18.4c-10.8 2.3-17.8 12.8-15.6 23.6l6.1 29.902z"/><circle cx="368.604" cy="296.002" r="81.4"/></symbol><symbol id="shape-icon-france-map" viewBox="0 0 18.9 16.4"><path d="M4.4 8.5c.6.9 1.1 1.5.9 2.6-.1 1-.1 2.1-.6 3-.4.7.2.7.5.9 1.2 1 2.7.6 4 .9 1 .2 2.5 1.2 2.7-1 0-.4.7-.5 1.1-.5.8 0 1.5.1 2.2.4 1 .4 2.7-.4 3.1-1.3.2-.4 0-.4-.3-.6-.8-.4-.8-1.1-.6-1.9.2-.7.3-1.8-.6-2.1-.8-.3-.3-.6-.1-.8.9-.9 1.4-1.9 2-3.1.6-1 0-1-.7-1.2-2.5-.7-4.8-1.9-7-3.4-.8-.6-1.5-.4-1.6.6-.1 1-.4 1.3-1.3 1.3-.4 0-.7.1-.9.5-.4 1.1-1.1.6-1.7.1-.3-.2-.6-.6-1-.3-.5.3-.2.6 0 1 .5 1 .3 1.2-.9 1.1-.2 0-.4-.1-.6-.2-.3-.1-.6-.3-1-.2-.3.1-.7.2-1 .2-.4.1-1-.1-1 .6s.2 1.2 1 1.4c1.3.3 2.5.6 3.4 2z"/></symbol><symbol id="shape-icon-hang-up" viewBox="0 0 435.933 435.933"><path d="M286.482 279.088c.944 1.25.94 2.973-.023 4.225l-65.724 85.483c-.658.867-1.682 1.368-2.762 1.368s-2.102-.5-2.764-1.368l-65.727-85.483c-.476-.62-.722-1.368-.722-2.12 0-.74.237-1.485.706-2.104.94-1.254 2.607-1.725 4.07-1.138l43.515 17.176V194.393c0-1.926 1.557-3.48 3.487-3.48h34.877c1.92 0 3.485 1.554 3.485 3.48v100.74l43.515-17.177c1.458-.586 3.125-.115 4.067 1.132zM196.93 65.928C-28.392 70.25-1.475 181.81 3.69 198.192c5.532 27.833 26.852 41.76 48.488 33.864l41.166-12.88c22.18-8.097 36.25-38.273 31.408-67.42l-.917-5.517c74.85-21.183 139.407-15.746 189.768-1.727l-.396 2.353c-4.82 29.15 9.23 59.333 31.423 67.423l41.164 17.16c18.604 6.79 36.965-6.288 45.27-27.172.108.09.174.15.174.15s1.14-2.812 2.288-7.625c.093-.375.163-.786.262-1.155.19-.88.383-1.792.575-2.785.115-.56.246-1.092.353-1.658l-.04-.035c6.016-35.513-.205-129.777-237.746-125.243z"/></symbol><symbol id="shape-icon-hd" viewBox="0 0 256 205"><path fill-rule="evenodd" clip-rule="evenodd" d="M225.28 205H30.72C13.754 205 0 191.232 0 174.25V30.75C0 13.767 13.754 0 30.72 0h194.56C242.246 0 256 13.767 256 30.75v143.5c0 16.982-13.754 30.75-30.72 30.75zm-5.12-153.75c0-8.49-6.877-15.375-15.36-15.375H51.2c-8.483 0-15.36 6.884-15.36 15.375v102.5c0 8.49 6.877 15.375 15.36 15.375h153.6c8.483 0 15.36-6.884 15.36-15.375V51.25zm-46.08 76.36v.515h-40.96v-51.25h40.96v.515c11.685 2.375 20.48 12.713 20.48 25.11s-8.795 22.735-20.48 25.11zm-15.36-40.485h-5.12v30.75h5.12c8.483 0 15.36-6.884 15.36-15.375s-6.877-15.375-15.36-15.375zm-56.32 20.5H81.92v20.5H61.44v-51.25h20.48v20.5h20.48v-20.5h20.48v51.25H102.4v-20.5z"/></symbol><symbol id="shape-icon-help" viewBox="0 0 91.999 92"><path d="M45.385.004C19.982.344-.335 21.214.005 46.62c.34 25.392 21.208 45.714 46.61 45.376 25.398-.342 45.718-21.213 45.38-46.615-.34-25.394-21.21-45.715-46.61-45.376zM45.25 74l-.255-.004c-3.912-.116-6.67-2.998-6.56-6.852.11-3.788 2.935-6.538 6.718-6.538l.227.004c4.02.12 6.748 2.972 6.635 6.937-.112 3.8-2.893 6.453-6.766 6.453zm16.454-32.66c-.92 1.308-2.943 2.93-5.492 4.917l-2.807 1.938c-1.54 1.198-2.47 2.325-2.82 3.434-.275.872-.41 1.103-.434 2.88l-.003.45H39.43l.03-.907c.13-3.728.223-5.92 1.768-7.733 2.424-2.846 7.77-6.29 7.998-6.435.766-.577 1.412-1.234 1.893-1.936 1.124-1.552 1.622-2.773 1.622-3.973 0-1.665-.494-3.205-1.47-4.576-.94-1.322-2.724-1.992-5.304-1.992-2.56 0-4.31.812-5.36 2.478-1.077 1.713-1.622 3.512-1.622 5.35v.457h-11.05l.02-.477c.284-6.77 2.7-11.643 7.177-14.487C37.946 18.917 41.446 18 45.53 18c5.346 0 9.86 1.3 13.412 3.86 3.6 2.597 5.426 6.485 5.426 11.557 0 2.837-.896 5.502-2.664 7.924z"/></symbol><symbol id="shape-icon-mobile-recovery" viewBox="0 0 27 32"><title>icon-reprise-mobile@1x</title><path d="M12.735 11.93c-1.128.605-2.07 1.4-2.823 2.48.28.09.53.168.83.265L8.15 17.083c-.386-1.17-.76-2.293-1.15-3.477.28.078.52.13.748.21.192.067.305.02.436-.137 1.242-1.5 2.755-2.667 4.563-3.42 1.856-.773 3.77-1.022 5.724-.346.664.232 1.98.855 2.967 2.148 1.804 2.363 1.57 5.63-.44 7.86-.09.1-.182.2-.25.324 1.108-.62 2.044-1.42 2.803-2.498-.282-.092-.537-.173-.832-.267.87-.807 1.714-1.586 2.598-2.405.385 1.17.756 2.288 1.147 3.475-.258-.07-.476-.12-.682-.193-.222-.08-.367-.043-.53.156-1.235 1.48-2.25 2.758-4.038 3.506-1.864.776-4.27.903-6.235.213-.887-.312-1.99-1.135-2.37-1.54-2.267-2.418-2.31-5.968-.13-8.462.086-.1.17-.2.258-.3m6.205 6.824c-.76.355-1.486.443-2.224.146-.735-.3-1.217-.818-1.4-1.644h.322c.797 0 1.593.004 2.388-.004.646-.006.53.087.553-.54.007-.2-.063-.258-.263-.256-.873.01-1.747.002-2.62.002-.536 0-.564-.03-.478-.562.004-.026.02-.05.046-.107h3.288v-.794H15.36c.1-.582.4-1.004.84-1.314.83-.586 1.725-.57 2.65-.172l.293-1.203c-.643-.357-1.678-.472-2.487-.26-1.463.38-2.47 1.246-2.895 2.71-.058.2-.148.28-.356.26-.156-.015-.315-.002-.473-.002v.78h.638v.65l-.644.03v.777c.186 0 .348.01.506-.005.167-.01.244.06.274.216.29 1.445 1.205 2.324 2.595 2.752.995.306 1.96.225 2.897-.244-.084-.406-.166-.79-.257-1.216zM1.542.584C1.04.7.292 1.033.116 1.99v27.94c.097.52.442 1.445 1.657 1.555h14.343c.42-.043 1.56-.28 1.75-1.53v-6.628c-.39.003-.78-.02-1.167-.065v2.496c0 1.428-1.444 1.428-1.444 1.428H2.792c-1.443 0-1.443-1.428-1.443-1.428V4c0-1.425 1.442-1.425 1.442-1.425h12.464c1.443 0 1.443 1.332 1.443 1.332v4.958c.386.03.775.09 1.166.183V2.152c-.07-.454-.342-1.327-1.34-1.57H1.543zm5.71 1.04c0-.14.12-.26.266-.26h2.934c.147 0 .266.12.266.26 0 .147-.12.266-.266.266H7.518c-.147 0-.265-.12-.265-.265zm.38 27.605c.024-.717.62-1.292 1.35-1.292.75 0 1.357.6 1.357 1.337 0 .74-.607 1.34-1.357 1.34-.73 0-1.327-.665-1.352-1.386z" fill-rule="evenodd"/></symbol><symbol id="shape-icon-password-hiden" viewBox="0 0 30 30"><title>icon-password-hiden</title><path d="M28.862 1.168c-.392-.392-1.024-.392-1.414 0l-7.08 7.08c-1.798-.682-3.556-.992-5.222-.992-3.854.002-7.19 1.52-9.668 3.132C3 12.008 1.366 13.728.886 14.27c-.382.43-.352 1.096.062 1.488.038.036.088.052.13.08.024.046.012.102.046.142 2.074 2.458 4.114 4.194 6.1 5.412L.282 28.334c-.392.39-.392 1.024 0 1.414.194.196.45.294.706.294.256 0 .512-.098.708-.294L28.862 2.582c.39-.392.39-1.024 0-1.414zm-18.196 9.4c.244-.25.514-.468.794-.674 1.164-.332 2.4-.534 3.686-.534 1.146.002 2.338.182 3.564.544l-3.598 3.6c-.004-.048-.02-.092-.02-.14 0-.752.374-1.384.916-1.798-.2-.032-.4-.062-.61-.062-2.204 0-3.996 1.848-3.996 4.13 0 .474.098.916.242 1.336l-1.756 1.758c-.664-1.026-1.054-2.256-1.054-3.586 0-1.788.7-3.4 1.832-4.574zM2.558 15.51c.53-.574 1.94-1.994 4.008-3.338.64-.418 1.34-.818 2.084-1.186-.732 1.21-1.172 2.626-1.172 4.156 0 1.708.548 3.266 1.446 4.55l-.688.688c-1.81-1.058-3.712-2.626-5.678-4.87zm20.928-5.708l-1.542 1.542c1.622.954 3.294 2.286 5.002 4.176-.252.29-.56.638-.984 1.078-1.046 1.086-2.602 2.512-4.534 3.654-.35.206-.724.392-1.098.576 1.456-1.432 2.372-3.444 2.372-5.686 0-1.324-.35-2.55-.912-3.642l-1.002 1c.352.808.556 1.698.556 2.642 0 1.788-.698 3.4-1.832 4.572-1.132 1.172-2.694 1.894-4.424 1.896-.984 0-1.904-.256-2.732-.678l-1.972 1.974c1.476.506 2.912.754 4.27.754 3.8-.002 7.012-1.7 9.378-3.49 1.182-.894 2.156-1.818 2.892-2.58.73-.76 1.238-1.372 1.438-1.596.038-.044.028-.104.052-.152.046-.032.096-.046.136-.084.414-.392.44-1.058.062-1.488-1.704-1.924-3.422-3.386-5.126-4.468zm-8.088 9.964c2.206 0 3.996-1.85 3.996-4.132 0-.242-.032-.476-.076-.706l-4.746 4.748c.266.058.544.09.826.09z" fill-rule="evenodd"/></symbol><symbol id="shape-icon-password" viewBox="0 0 30 18"><title>icon-password@1x</title><g fill-rule="evenodd"><path d="M17.534 8.058c-1.216 0-2.196-1.072-2.196-2.396 0-.794.374-1.46.916-1.898-.2-.034-.4-.065-.61-.065-2.204 0-3.996 1.95-3.996 4.358 0 2.41 1.792 4.362 3.996 4.362 2.206 0 3.994-1.953 3.994-4.362 0-.447-.08-.874-.196-1.28-.37.75-1.074 1.28-1.908 1.28"/><path d="M28.858 7.627C26.566 4.9 24.252 3.042 21.98 1.873 19.708.7 17.478.223 15.392.223c-3.854.003-7.19 1.607-9.668 3.31C3.246 5.24 1.612 7.054 1.13 7.626c-.38.456-.35 1.16.064 1.57.038.04.086.056.13.088.024.048.01.105.046.15 2.396 2.997 4.75 5.026 7.022 6.305 2.274 1.278 4.472 1.8 6.508 1.8 3.798 0 7.012-1.793 9.378-3.683 1.18-.943 2.156-1.92 2.892-2.723.73-.802 1.238-1.448 1.438-1.685.038-.047.026-.11.052-.163.044-.032.094-.047.136-.09.412-.41.44-1.114.062-1.57zm-13.524 7.75c-1.726-.002-3.286-.764-4.422-2C9.78 12.138 9.08 10.436 9.08 8.55s.7-3.59 1.832-4.828c.244-.264.514-.494.792-.714 1.166-.348 2.4-.56 3.688-.56 1.156 0 2.358.193 3.596.58.27.215.534.438.77.694 1.134 1.24 1.832 2.94 1.832 4.828 0 1.887-.698 3.59-1.832 4.826-1.134 1.237-2.694 2-4.424 2zm-12.53-6.44c.53-.604 1.94-2.103 4.008-3.522.638-.44 1.34-.863 2.082-1.252-.73 1.275-1.17 2.772-1.17 4.387 0 2.785 1.266 5.236 3.192 6.743-.622-.234-1.254-.51-1.9-.872-1.966-1.105-4.054-2.88-6.212-5.484zm23.402 1.15c-1.044 1.146-2.6 2.65-4.532 3.857-.35.217-.726.412-1.098.608 1.454-1.514 2.372-3.635 2.372-6.002 0-1.552-.416-2.985-1.092-4.226 1.722 1.013 3.51 2.493 5.334 4.625-.25.305-.56.672-.984 1.137z"/></g></symbol><symbol id="shape-icon-phone" viewBox="0 0 31 31"><title>icon-phone@1x</title><path d="M30.347 25.218l-6.612-4.575c-.305-.305-.803-.305-1.108.002l-1.604 1.6c-1.652 1.654-6.85-2.467-8.537-4.154-1.685-1.684-5.808-6.88-4.155-8.535l1.604-1.603c.305-.306.305-.803 0-1.11L5.36.23c-.305-.307-.8-.307-1.108 0L1.12 2.344c-1.365 1.368-3.687 6.2 8.614 18.5 12.3 12.3 17.134 9.98 18.5 8.614h.002l2.11-3.132c.308-.307.308-.804 0-1.108" fill-rule="evenodd"/></symbol><symbol id="shape-icon-promo-flat" viewBox="0 0 134 138"><title>forme_plate</title><path d="M.03 0L0 128.344C0 139.462 10.37 137 10.37 137s107.858-13.52 114.123-14.8c7.72-1.577 9.226-9.216 9.226-9.216V.084L.03 0z"/></symbol><symbol id="shape-icon-promo-round" viewBox="0 0 134 148"><title>forme_ronde</title><path d="M133.72 10.083C133.72-.062 124.03 0 124.03 0h-114s-10-.082-10 10L0 138.344C0 149.462 10.37 147 10.37 147s107.858-13.52 114.123-14.8c7.72-1.577 9.226-9.216 9.226-9.216v-112.9"/></symbol><symbol id="shape-icon-sim" viewBox="0 0 24 33"><title>icon-sim@1x</title><g fill-rule="evenodd"><path d="M13.635 1.572l-11.774.03c-.222 0-.433.083-.593.237-.16.153-.246.354-.245.567l.07 28.413c.004.443.38.803.843.802v.438l.002-.437 19.42-.046c.463 0 .84-.363.838-.805l-.052-20.18c0-.572-.352-1.45-.752-1.878L15.455 2.35c-.387-.414-1.237-.776-1.82-.778M1.937 32.5c-.97 0-1.757-.753-1.758-1.678L.103 2.41c0-.447.182-.87.514-1.19C.95.9 1.39.725 1.86.724L13.63.695c.848 0 1.948.47 2.508 1.07l5.937 6.365c.55.59.984 1.67.986 2.462l.052 20.177c.003.926-.785 1.683-1.754 1.686L1.936 32.5"/><path d="M13.67 18.555l-.02-4.272-4.366.02.02 4.27 4.367-.018"/><path d="M18.685 19.057l-4.74.023c-.01 0-.017-.004-.026-.004l-4.886.023c-.15 0-.274-.12-.273-.262l-.023-4.533-1.228.005c-1.73.008-3.13 1.36-3.122 3.016l.027 5.874 14.29-.063-.02-4.08"/><path d="M18.682 18.535l-.006-1.272c-.008-1.656-1.423-2.995-3.15-2.988l-1.232.006.02 4.273 4.368-.018M9.43 23.7l.02 4.27 4.215-.018-.02-4.272-4.215.02M18.706 23.658l-4.416.02.022 4.27 1.28-.006c1.726-.006 3.13-1.358 3.12-3.01l-.006-1.274M4.418 23.72l.006 1.27c.01 1.657 1.42 2.996 3.15 2.99l1.18-.007-.02-4.272-4.316.02"/></g></symbol><symbol id="shape-icon-simcard" viewBox="0 0 995 768"><path d="M734.487 724.576V131.7c0-11.214-4.552-21.343-11.887-28.686L624.146 14.74c-7.354-7.344-17.486-11.88-28.683-11.88H288.176c-2.8 0-5.542.286-8.192.827-2.613.546-5.17 1.348-7.595 2.36-4.872 2.058-9.238 5.03-12.896 8.69-7.333 7.344-11.868 17.496-11.868 28.688v681.15c0 22.406 18.157 40.562 40.55 40.562H693.92c22.41.002 40.567-18.155 40.567-40.56zM583.97 168.724c34.187.01 61.88 27.74 61.88 61.917v33.348l-71.695-.032.02-95.23h9.794zm-33.814-.014l-.02 95.208-47.062.014.056-95.245 47.026.023zm-71.098 95.23l-47.044-.03V168.7l47.062.01-.018 95.23zM336.303 479.987l-.02-249.406c.038-34.233 27.693-61.894 61.918-61.903H408l-.018 100.755v18.544h237.87V480.01l-309.547-.024zm61.822 119.29c-34.224.015-61.898-27.74-61.86-61.962l-.02-33.314 71.715.012-.038 95.28-9.797-.015zm33.814-.008l.074-95.223 46.97-.033v95.303l-47.045-.047zm71.134.023l-.037-95.245 47.007.016.037 95.255-47.006-.024zm70.987.01l.057-95.263 71.658.033.036 33.328c0 34.186-27.747 61.926-61.934 61.926l-9.815-.023z"/></symbol><symbol id="shape-icon-sms-mms" viewBox="0 0 32 25"><title>icon-SMS-MMS@1x</title><g fill-rule="evenodd"><path d="M11.16 8.31c0 3.766 4.556 6.82 10.177 6.82.827 0 1.624-.073 2.394-.198.56.912 1.92 1.316 3.134 1.44h1.632c.603-.077.856-.243.37-.403-.873-.292-1.385-1.27-1.67-2.09 2.406-1.14 4.046-2.958 4.286-5.042v-1.06c-.403-3.52-4.792-6.292-10.145-6.292-5.62 0-10.177 3.055-10.177 6.823"/><path d="M23.792 20.705l-5.034-3.592c-.234-.24-.612-.24-.846.002l-1.218 1.258c-1.26 1.3-5.218-1.94-6.503-3.264-1.28-1.323-4.42-5.405-3.16-6.704l1.218-1.258c.232-.24.232-.63 0-.87L4.765 1.083c-.232-.24-.61-.24-.844 0l-2.384 1.66C.496 3.818-1.27 7.614 8.096 17.27c9.365 9.662 13.048 7.837 14.086 6.765h.002l1.608-2.46c.234-.24.234-.63 0-.87"/></g></symbol><symbol id="shape-icon-sms" viewBox="0 0 32 23"><title>icon-sms@1x</title><path d="M0 10.314c0 5.696 7.02 10.313 15.685 10.313 1.274 0 2.503-.11 3.69-.3.862 1.38 2.958 1.99 4.83 2.18h2.515c.927-.12 1.317-.37.572-.613-1.348-.44-2.137-1.92-2.576-3.158 3.797-1.763 6.357-4.6 6.63-7.845V9.737C30.89 4.308 24.053 0 15.686 0 7.02 0 0 4.618 0 10.314" fill-rule="evenodd"/></symbol><symbol id="shape-icon-spotify-colored" viewBox="0 0 566.93 170.04"><path d="M87.996 1.277c-46.25 0-83.743 37.493-83.743 83.742 0 46.253 37.494 83.744 83.743 83.744 46.25 0 83.743-37.49 83.743-83.745 0-46.247-37.49-83.74-83.745-83.74zm38.404 120.78c-1.504 2.467-4.718 3.24-7.177 1.737-19.665-12.02-44.417-14.734-73.567-8.075-2.81.643-5.61-1.118-6.25-3.926-.642-2.81 1.11-5.61 3.927-6.25 31.9-7.292 59.263-4.153 81.336 9.335 2.46 1.51 3.24 4.72 1.73 7.18zm10.25-22.8c-1.894 3.074-5.912 4.038-8.98 2.15-22.506-13.833-56.823-17.84-83.448-9.758-3.453 1.042-7.1-.904-8.148-4.35-1.04-3.454.907-7.094 4.354-8.144 30.413-9.228 68.22-4.758 94.07 11.127 3.07 1.89 4.04 5.91 2.15 8.976zm.88-23.743c-26.994-16.03-71.52-17.505-97.29-9.684-4.137 1.255-8.513-1.08-9.767-5.22-1.254-4.14 1.08-8.512 5.22-9.77 29.582-8.98 78.757-7.245 109.83 11.202 3.723 2.21 4.944 7.016 2.738 10.733-2.2 3.722-7.02 4.95-10.73 2.74zM232.09 78.586c-14.46-3.448-17.033-5.868-17.033-10.953 0-4.804 4.523-8.037 11.25-8.037 6.52 0 12.984 2.455 19.762 7.51.204.152.46.213.714.173.253-.04.477-.178.625-.387l7.06-9.952c.29-.41.21-.974-.18-1.287-8.068-6.473-17.152-9.62-27.77-9.62-15.612 0-26.517 9.37-26.517 22.774 0 14.375 9.407 19.465 25.663 23.394 13.836 3.188 16.17 5.858 16.17 10.63 0 5.29-4.72 8.578-12.32 8.578-8.44 0-15.324-2.843-23.025-9.512-.19-.165-.452-.24-.694-.226-.255.02-.488.14-.65.334l-7.916 9.42c-.332.392-.29.976.094 1.314 8.96 8 19.98 12.224 31.872 12.224 16.823 0 27.694-9.192 27.694-23.42.03-12.01-7.16-18.66-24.77-22.943zM294.95 64.326c-7.292 0-13.273 2.872-18.205 8.757V66.46c0-.524-.424-.95-.946-.95H262.85c-.523 0-.946.426-.946.95v73.6c0 .524.423.95.946.95H275.8c.52 0 .945-.426.945-.95V116.83c4.933 5.536 10.915 8.24 18.205 8.24 13.55 0 27.265-10.43 27.265-30.367.02-19.942-13.7-30.375-27.25-30.375zM307.16 94.7c0 10.154-6.254 17.24-15.21 17.24-8.852 0-15.53-7.408-15.53-17.24 0-9.83 6.678-17.237 15.53-17.237 8.81 0 15.21 7.247 15.21 17.237zM357.37 64.326c-17.45 0-31.12 13.436-31.12 30.592 0 16.97 13.577 30.264 30.906 30.264 17.51 0 31.223-13.39 31.223-30.48 0-17.032-13.62-30.374-31.01-30.374zm0 47.714c-9.28 0-16.278-7.457-16.278-17.344 0-9.93 6.755-17.134 16.064-17.134 9.34 0 16.385 7.457 16.385 17.35 0 9.928-6.8 17.128-16.17 17.128zM425.64 65.51h-14.247V50.944c0-.522-.422-.948-.945-.948h-12.945c-.524 0-.95.426-.95.948V65.51h-6.224c-.522 0-.944.426-.944.95v11.126c0 .522.422.95.943.95h6.224v28.79c0 11.635 5.79 17.534 17.212 17.534 4.644 0 8.497-.96 12.128-3.018.295-.165.478-.483.478-.82v-10.597c0-.327-.17-.636-.45-.807-.282-.177-.633-.186-.922-.043-2.494 1.255-4.905 1.834-7.6 1.834-4.154 0-6.007-1.887-6.007-6.114V78.54h14.247c.523 0 .944-.426.944-.95V66.466c.02-.523-.4-.95-.93-.95zM475.28 65.567v-1.79c0-5.262 2.018-7.61 6.544-7.61 2.7 0 4.867.537 7.295 1.347.298.094.61.047.853-.132.25-.18.39-.466.39-.77v-10.91c0-.417-.267-.786-.67-.91-2.564-.762-5.846-1.545-10.76-1.545-11.958 0-18.28 6.734-18.28 19.467v2.74h-6.22c-.52 0-.95.426-.95.948v11.184c0 .522.43.95.95.95h6.22v44.408c0 .523.423.95.945.95h12.947c.523 0 .95-.427.95-.95V78.538h12.087l18.517 44.398c-2.103 4.665-4.17 5.593-6.992 5.593-2.28 0-4.683-.682-7.14-2.026-.23-.127-.504-.148-.753-.07-.247.086-.455.27-.56.51l-4.388 9.627c-.21.456-.03.99.408 1.226 4.58 2.48 8.716 3.54 13.827 3.54 9.56 0 14.844-4.453 19.502-16.433l22.46-58.04c.114-.292.08-.622-.1-.88-.177-.258-.464-.413-.778-.413h-13.478c-.404 0-.765.257-.897.636l-13.806 39.438L498.28 66.18c-.137-.367-.49-.61-.883-.61h-22.12zM446.5 65.51h-12.947c-.523 0-.95.426-.95.95v56.484c0 .523.427.95.95.95H446.5c.522 0 .95-.427.95-.95v-56.48c0-.524-.42-.95-.95-.95zM440.1 39.79c-5.13 0-9.29 4.153-9.29 9.282 0 5.132 4.162 9.29 9.29 9.29 5.127 0 9.285-4.158 9.285-9.29 0-5.128-4.16-9.28-9.28-9.28zM553.52 83.67c-5.124 0-9.11-4.114-9.11-9.11s4.038-9.16 9.158-9.16c5.124 0 9.11 4.114 9.11 9.107 0 4.997-4.04 9.164-9.16 9.164zm.05-17.364c-4.667 0-8.198 3.71-8.198 8.253 0 4.54 3.506 8.2 8.15 8.2 4.667 0 8.202-3.707 8.202-8.253 0-4.54-3.51-8.2-8.15-8.2zm2.02 9.138l2.577 3.608h-2.173l-2.32-3.31h-1.995v3.31h-1.82v-9.564h4.265c2.222 0 3.683 1.137 3.683 3.05.01 1.57-.9 2.527-2.21 2.906zm-1.54-4.315h-2.372v3.024h2.372c1.184 0 1.89-.58 1.89-1.514 0-.984-.71-1.51-1.89-1.51z"/></symbol><symbol id="shape-icon-spotify" viewBox="0 0 602.285 602.286"><path fill="#1ED760" d="M296.82 0C130.598 0-4.323 134.92-4.323 301.144c0 166.582 134.92 301.142 301.143 301.142 166.582 0 301.144-134.922 301.144-301.142C598.324 134.92 463.402 0 296.82 0zm138.16 434.624c-5.398 8.996-16.91 11.514-25.905 6.117-70.88-43.175-159.746-52.888-264.805-29.142-10.074 2.158-20.147-3.96-22.307-14.033s3.958-20.148 14.032-22.307c114.77-26.266 213.354-15.11 292.508 33.46 9.354 5.398 11.873 16.91 6.476 25.906zm37.056-82.032c-6.836 11.152-21.228 14.393-32.38 7.914-80.952-49.65-204.36-64.04-300.063-35.258-12.593 3.598-25.545-3.238-29.143-15.47-3.6-12.594 3.237-25.545 15.83-29.145 109.376-33.1 245.376-17.27 338.562 39.937 10.433 6.477 14.03 20.868 7.194 32.022zm3.24-85.63C378.13 209.397 218.025 204 125.2 232.062c-14.75 4.68-30.58-3.956-35.26-18.708-4.676-14.75 3.96-30.582 18.71-35.26 106.497-32.38 283.514-25.904 395.048 40.297 13.312 7.917 17.63 25.187 9.714 38.5-7.555 13.672-24.825 17.988-38.137 10.072z"/></symbol><symbol id="shape-icon-user" viewBox="0 0 22 24"><title>icon-user@1x</title><g fill-rule="evenodd"><path d="M21.17 23.135c0-.14-.005-.276-.01-.415v-.006c-.275-6.342-4.774-9.613-10.442-9.613-5.625 0-10.21 4.268-10.44 9.614H.266v.835H21.16c.005-.138.01-.276.01-.415M10.718 12.387c3.542 0 6.415-2.757 6.415-6.16 0-1.976-2.042-6.156-6.415-6.156C7.176.07 4.303 2.83 4.303 6.23c0 3.402 2.873 6.16 6.415 6.16"/></g></symbol><symbol id="shape-icon-warning-bubble" viewBox="15 0 70 64"><path d="M15.875 27.098C15.875 41.822 31.168 53.82 50 53.82c1.26 0 2.522-.04 3.823-.16l18.018 9.68c.328.202.733.283 1.14.283.487 0 1.017-.12 1.424-.448.773-.527 1.14-1.464.976-2.4l-2.44-13.868c7.12-5.084 11.187-12.202 11.187-19.808C84.125 12.374 68.832.375 50 .375s-34.125 12-34.125 26.722zm4.922 0c0-12.04 13.137-21.842 29.244-21.842s29.244 9.803 29.244 21.842c0 6.386-3.74 12.406-10.29 16.594-.853.53-1.26 1.506-1.098 2.48l1.83 10.454L55.49 48.98c-.445-.243-.936-.324-1.423-.285-1.383.123-2.766.204-4.066.204-16.107 0-29.203-9.762-29.203-21.802z"/><path d="M47.756 13.5h6.87V32h-6.87z"/><circle cx="51.191" cy="37.688" r="3.562"/></symbol><symbol id="shape-icon-world-map" viewBox="0 0 48.625 48.625"><path d="M35.432 10.815l.047.36-.542.113-.072.77h.648l.862-.084.445-.53-.472-.183-.26-.297-.388-.63-.186-.89-.73.148-.206.315v.354l.352.24"/><path d="M34.81 11.11l.038-.48-.43-.186-.6.14-.444.713v.463h.52M22.46 13.158l-.133.34h-.64v.33h.153l.022.162.392-.033.245-.152.063-.307.317-.027.125-.257-.29-.06-.256.005zM20.812 13.757l-.025.323.463-.04.048-.323-.278-.22"/><path d="M48.62 24.06c-.008-.71-.044-1.416-.11-2.11-.226-2.318-.78-4.54-1.61-6.62-.062-.156-.12-.313-.185-.466-1.106-2.613-2.66-4.992-4.56-7.045-.125-.135-.252-.267-.38-.397-.358-.373-.727-.737-1.11-1.086C36.346 2.402 30.606 0 24.313 0c-6.345 0-12.126 2.445-16.46 6.44-1.01.93-1.938 1.947-2.78 3.035C1.896 13.583 0 18.73 0 24.312 0 37.72 10.907 48.625 24.313 48.625c9.43 0 17.617-5.4 21.647-13.268.862-1.682 1.533-3.475 1.985-5.354.115-.477.214-.956.3-1.44.245-1.382.38-2.802.38-4.25 0-.085-.005-.168-.006-.252zm-4.577-9.716l.14-.158c.186.36.36.724.524 1.094l-.23-.01-.434.06v-.986zm-3.513-4.242l.004-1.086c.382.405.75.822 1.102 1.254l-.438.652-1.53-.014-.097-.32.96-.486zm-29.328-2.7v-.04h.487l.04-.167h.798v.348l-.23.306h-1.097l.002-.447zm.778 1.086s.487-.083.53-.083 0 .486 0 .486l-1.1.07-.208-.25.778-.222zm33.612 9.65h-1.78l-1.083-.806-1.142.11v.697h-.36l-.39-.28-1.977-.5v-1.28l-2.503.195-.776.417h-.993l-.487-.05-1.207.67v1.262l-2.467 1.78.205.76h.5l-.13.724-.352.13-.02 1.89 2.133 2.43h.93l.055-.15h1.668l.48-.444h.947l.52.52 1.41.146-.188 1.875 1.565 2.763-.824 1.575.056.742.648.647v1.784l.852 1.146v1.482h.736c-4.096 5.03-10.33 8.25-17.305 8.25C12.01 46.624 2 36.614 2 24.312c0-3.097.636-6.05 1.78-8.732v-.696l.8-.97c.276-.522.573-1.032.89-1.53l.036.406-.926 1.125c-.287.542-.555 1.096-.798 1.665v1.27l.927.446v1.765l.888 1.518.723.11.094-.52-.853-1.315-.166-1.28h.5l.21 1.317 1.234 1.8-.318.58.784 1.2 1.947.48v-.314l.78.11-.074.557.612.112.945.258 1.335 1.52 1.705.13.167 1.39-1.167.817-.055 1.242-.167.76 1.69 2.113.128.724s.612.165.687.165c.074 0 1.372.983 1.372.983v3.82l.463.13-.315 1.76.78 1.04-.145 1.746 1.03 1.81 1.32 1.153 1.328.024.13-.426-.976-.822.056-.408.175-.5.037-.51-.66-.02-.333-.418.548-.527.074-.4-.613-.174.036-.37.872-.132 1.326-.637.446-.816 1.39-1.78-.315-1.39.428-.742 1.28.04.86-.683.278-2.686.955-1.214.168-.78-.87-.278-.576-.943-1.965-.02-1.558-.594-.075-1.11-.52-.91-1.41-.02-.813-1.278-.723-.353-.038.39-1.316.077-.482-.67-1.373-.28-1.13 1.307-1.78-.302-.13-2.006-1.298-.222.52-.984-.148-.565-1.707 1.14-1.074-.13-.383-.84.234-.864.592-1.09 1.363-.69h2.63l-.006.802.946.44-.075-1.372.682-.686 1.376-.904.094-.636 1.372-1.428 1.458-.808-.13-.106.99-.93.36.096.167.208.375-.416.092-.04-.41-.06-.418-.138v-.4l.22-.18h.488l.223.097.193.39.236-.037v-.034l.068.022.684-.105.097-.334.39.098v.363l-.362.25h.002l.053.396 1.24.38.002.016.285-.024.02-.537-.983-.447-.057-.258.815-.278.036-.78-.852-.52-.056-1.314-1.168.574h-.426l.112-1-1.59-.376-.658.497v1.516l-1.183.374-.474.988-.515.083V10.55l-1.112-.153-.556-.362-.224-.82 1.99-1.163.972-.296.098.654.542-.028.042-.33.567-.08.01-.115-.244-.1-.056-.35.697-.058.422-.44.023-.03h.005l.128-.13 1.465-.186.648.55-1.698.905 2.162.51.28-.724h.945l.333-.63-.668-.167V6.21l-2.095-.928-1.446.167-.816.428.056 1.038-.853-.13-.13-.574.817-.742-1.483-.074-.426.13-.185.5.556.093-.112.555-.945.056-.148.37-1.37.04s-.04-.78-.094-.78l1.076-.018.817-.798-.446-.223-.593.577-.984-.056-.593-.815h-1.26l-1.317.983h1.206l.11.353-.313.292 1.335.037.204.48-1.503-.055-.074-.37-.945-.205-.5-.278-1.125.01C14.888 3.587 19.417 2 24.312 2c5.642 0 10.797 2.11 14.73 5.574l-.265.474-1.03.403-.433.472.1.55.53.073.32.8.917-.37.152 1.07h-.276l-.752-.11-.834.14-.807 1.14-1.154.18-.168.99.487.114-.142.634-1.146-.23-1.05.23-.224.585.182 1.227.617.29 1.035-.007.7-.063.212-.556 1.092-1.418.72.147.707-.64.132.5 1.742 1.174-.213.286-.785-.042.3.428.484.106.566-.236-.012-.682.25-.126-.2-.214-1.163-.648-.306-.86h.965l.31.305.83.718.036.867.863.918.32-1.258.598-.326.113 1.028.583.64 1.163-.02c.224.58.426 1.168.603 1.77l-.12.11zm-32.33-7.092l.583-.278.528.126-.182.71-.57.18-.36-.738zm3.098 1.67v.458h-1.334l-.5-.14.125-.32.642-.264h.876v.265h.192zm.614.64v.444l-.334.215-.416.077v-.737h.75zm-.376-.182v-.53l.46.42-.46.11zm.21 1.07v.433l-.32.32h-.71l.112-.486.335-.028.07-.167.512-.07zm-1.767-.89h.738l-.945 1.322-.39-.21.084-.555.514-.555zm3.02.738v.432h-.71l-.194-.28v-.402h.056l.847.25zm-.656-.594l.202-.212.34.212-.272.225-.27-.225zm28.55 5.767l.07-.082c.03.126.06.252.088.38l-.158-.298z"/><path d="M3.782 14.884v.696c.243-.568.51-1.122.798-1.665l-.798.97z"/></symbol></svg>