<svg xmlns="http://www.w3.org/2000/svg"><symbol id="shape-icon-cancel" viewBox="0 0 512 512"><path d="M479.8 131.01L376.026 27.164 256 147.19 136.012 27.164 32.202 131.01l120.026 119.952L32.2 370.987l103.812 103.848L256 354.808l120.026 120.027L479.8 370.987 359.81 250.962 479.8 131.01z"/></symbol><symbol id="shape-icon-check" viewBox="0 0 512 512"><path d="M432 64L192 304 80 192 0 272l192 192 320-320-80-80z"/></symbol><symbol id="shape-icon-email" viewBox="0 0 26 18"><path d="M18.12 9.002l5.807-4.398.06 8.797-5.866-4.398zm5.73 6.8c-.016.02-.035.036-.054.054-.013.007-.023.018-.036.027-.02.015-.042.03-.064.042-.013.006-.026.015-.038.02l-.08.03c-.017 0-.027.005-.04.01-.04.007-.08.015-.126.015L2.69 15.992c-.044 0-.09-.005-.127-.015-.014-.002-.028-.007-.04-.014-.028-.006-.052-.014-.077-.024-.017-.007-.03-.018-.042-.027-.02-.01-.04-.022-.064-.036-.012-.008-.026-.02-.036-.03l-.055-.05c-.004-.006-.01-.01-.013-.016l7.315-5.53s1.463 1.44 3.47 1.44c2.002.002 3.443-1.44 3.443-1.44l7.394 5.54-.01.012zM2.006 4.6l5.876 4.398-5.81 4.39-.066-8.79zm.145-2.41L2.2 2.15c.017-.013.027-.026.044-.035.02-.014.037-.024.055-.035.016-.01.033-.016.05-.026.02-.01.04-.014.064-.022.017-.003.036-.013.052-.016.03-.005.055-.007.084-.007.013-.003.027-.005.04-.005l20.728.005c.01 0 .025.004.04.005l.08.007c.018.004.037.01.053.015.022.007.045.012.066.022.018.008.03.02.048.025.02.012.04.023.058.037.015.01.027.022.04.03.02.017.052.05.052.05l.013.016-8.274 6.246S14.16 9.55 13.003 9.55c-1.16-.004-2.506-1.094-2.506-1.094L2.14 2.21c.005-.003.007-.01.01-.02zM23.3.008L2.572 0C1.91 0 1.307.25.85.664c-.218.2-.406.433-.545.694-.197.37-.308.788-.305 1.24L.094 15.39c.01 1.436 1.177 2.6 2.608 2.6L23.43 18c.625 0 1.196-.227 1.642-.596.572-.475.934-1.196.928-2.003l-.093-12.795C25.897 1.168 24.73.007 23.3.007z" fill-rule="evenodd"/></symbol><symbol id="shape-icon-gender-f" viewBox="125 10 260 200"><path d="M160 224h96c-35.375 0-64-28.656-64-64v-32c64 0 64-64 64-64s0 64 64 64v32c0 35.344-28.688 64-64 64h96c17.688 0 32-14.328 32-32-17.688 0-32-14.328-32-32V96c0-53.016-43-96-96-96-53.063 0-96 42.984-96 96v64c0 17.672-14.344 32-32 32 0 17.672 14.313 32 32 32zM352 288h-64l32 32-64 96-64-96 32-32h-64c-35.375 0-64 28.656-64 64v128c0 17.688 14.313 32 32 32h256c17.688 0 32-14.313 32-32V352c0-35.344-28.687-64-64-64z"/></symbol><symbol id="shape-icon-gender-m" viewBox="0 0 512 512"><path d="M509.265 95.034c-.08-3.92-2.356-7.48-5.93-9.218-3.558-1.724-7.793-1.345-10.967.992-29.483 21.54-61.07 13.33-77.16-4.888-18.705-21.187-42.922-66.088-100.56-62.82-34.266 1.95-50.34 16.938-58.473 34.662-8.122-17.734-24.187-32.723-58.464-34.66-57.636-3.27-81.863 41.63-100.568 62.818-16.095 18.227-47.68 26.44-77.15 4.888-3.183-2.327-7.418-2.706-10.972-.972-3.547 1.74-5.834 5.287-5.91 9.198-.418 20.604 5.317 51.727 38.608 72.37 53.546 33.217 135.225 41.394 187.934-5.122 0 0 16.084-16.932 26.543-37.8 10.46 20.868 26.554 37.8 26.554 37.8 52.698 46.515 134.357 38.338 187.902 5.123 33.296-20.644 39.032-51.767 38.613-72.37z"/></symbol><symbol id="shape-icon-warning" viewBox="36.799 1.713 26.402 96.574"><path d="M62.635 2.318c-.377-.387-.894-.605-1.434-.605H38.8c-.54 0-1.058.22-1.435.605-.377.386-.58.91-.565 1.45l1.68 60.798c.03 1.082.916 1.943 2 1.943h19.045c1.082 0 1.97-.862 1.998-1.946L63.2 3.768c.015-.54-.188-1.063-.565-1.45zM59.484 76.747H40.517c-1.104 0-2 .896-2 2v17.54c0 1.104.896 2 2 2h18.97c1.103 0 2-.896 2-2v-17.54c-.003-1.104-.897-2-2.003-2z"/></symbol></svg>