<svg xmlns="http://www.w3.org/2000/svg"><symbol id="shape-icon-autonomy" viewBox="0 0 254 254"><path d="M100.158 113.052H85.49v27.27h14.668v-27.27zm19.84 0H105.33v27.27h14.667v-27.27zm19.84 0h-14.67v27.27h14.67v-27.27zm38.824.59h-4.828v-12.767c0-2.34-1.922-4.26-4.262-4.26H75.857c-2.345 0-4.262 1.92-4.262 4.26v51.074c0 2.343 1.917 4.257 4.262 4.257h93.715c2.34 0 4.262-1.914 4.262-4.258v-12.77h4.828c2.03 0 3.688-1.655 3.688-3.685v-18.16c0-2.03-1.66-3.692-3.688-3.692zm-13.35 34.05H80.113v-42.56h85.196v42.56z"/><path fill-rule="evenodd" clip-rule="evenodd" d="M126.972 1C57.512 1 1 57.26 1 126.413c0 69.152 56.51 125.41 125.972 125.41s125.973-56.258 125.973-125.41C252.945 57.26 196.435 1 126.972 1zm78.747 216.008H48.225c-25.506-22-41.688-54.44-41.688-90.595s16.18-68.597 41.688-90.597H205.72c25.507 22 41.688 54.442 41.688 90.597 0 36.153-16.18 68.595-41.69 90.595z"/></symbol><symbol id="shape-icon-camera" viewBox="0 0 32 23"><title>icon-camera@1x</title><g fill-rule="evenodd"><path d="M16.116 21.004c-4.64.002-8.423-3.806-8.415-8.466.01-4.666 3.806-8.487 8.42-8.476 4.595.01 8.35 3.797 8.386 8.45.036 4.648-3.762 8.492-8.39 8.492M31.568 4.43c0-1.414-.838-2.25-2.24-2.253-1.673-.003-3.345-.005-5.017.004-.273.002-.427-.038-.518-.364-.256-.9-.983-1.447-1.93-1.45-3.838-.014-7.675-.014-11.513 0-.93.003-1.675.54-1.915 1.396-.102.365-.267.423-.587.42-1.62-.013-3.24-.005-4.86-.005-1.548 0-2.346.8-2.346 2.356v15.81c0 1.593.798 2.405 2.365 2.405h13.096c4.4 0 8.8.002 13.202-.002 1.426 0 2.262-.847 2.263-2.292.003-5.34.002-10.682 0-16.024"/><path d="M16.187 7.116c-3.065-.01-5.458 2.353-5.467 5.398-.01 3.025 2.374 5.454 5.358 5.46 2.997.005 5.406-2.4 5.414-5.41.007-3.006-2.363-5.44-5.305-5.448zm3.7 5.836c-.06.05-.14.086-.243.104-.115.022-.208.016-.284-.01 0-.002 0-.002-.002-.002-.227-.08-.304-.34-.357-.62-.277-1.46-1.34-2.347-2.743-2.33-.433.044-.816-.01-.833-.503-.017-.467.377-.517.73-.548 1.8-.16 3.69 1.42 3.88 3.237.03.265.03.527-.148.672z"/></g></symbol><symbol id="shape-icon-cancel" viewBox="0 0 512 512"><path d="M479.8 131.01L376.026 27.164 256 147.19 136.012 27.164 32.202 131.01l120.026 119.952L32.2 370.987l103.812 103.848L256 354.808l120.026 120.027L479.8 370.987 359.81 250.962 479.8 131.01z"/></symbol><symbol id="shape-icon-clock" viewBox="0 0 100 100"><path d="M50 1.42C23.213 1.42 1.42 23.213 1.42 50S23.213 98.58 50 98.58 98.58 76.787 98.58 50 76.787 1.42 50 1.42zm0 86.823c-21.087 0-38.244-17.155-38.244-38.243S28.913 11.757 50 11.757 88.244 28.912 88.244 50 71.087 88.243 50 88.243z"/><path d="M75.318 48.5h-21.83V22.25c0-2.21-1.792-4-4-4s-4 1.79-4 4V52.5c0 2.21 1.79 4 4 4h25.83c2.21 0 4-1.79 4-4s-1.79-4-4-4z"/></symbol><symbol id="shape-icon-contact" viewBox="0 0 76.5 51"><path d="M39.1 30.9c-.3.2-.6.3-.8.3-.3 0-.6-.1-.8-.3l-4.9-3.7L7.4 45.3h61.8L44 27.2l-4.9 3.7zM5.7 7.1v36l24.4-17.6L5.7 7.1zm40.7 18.3L70.8 43V7.1L46.4 25.4zM8.5 5.7L38.2 28 68 5.7H8.5zM5.7 0h65.2c3.1 0 5.7 2.5 5.7 5.7v39.7c0 3.1-2.5 5.7-5.7 5.7H5.7C2.5 51 0 48.5 0 45.3V5.7C0 2.5 2.5 0 5.7 0z"/></symbol><symbol id="shape-icon-facebook" viewBox="0 0 60.734 60.733"><path d="M57.378 0H3.352C1.502 0 0 1.5 0 3.354V57.38c0 1.852 1.502 3.353 3.352 3.353h29.086v-23.52h-7.914v-9.166h7.914v-6.76c0-7.843 4.79-12.116 11.787-12.116 3.355 0 6.232.252 7.07.36v8.2h-4.853c-3.805 0-4.54 1.81-4.54 4.463v5.85h9.08l-1.188 9.167h-7.892v23.52h15.475c1.852 0 3.355-1.503 3.355-3.35V3.35C60.732 1.5 59.23 0 57.378 0z"/></symbol><symbol id="shape-icon-games" viewBox="0 0 254 254"><path d="M1.546 115.388h21.74v5.472H1.545zM1.546 131.807h21.74v5.474H1.545zM228.8 115.388h21.737v5.472H228.8zM228.8 131.807h21.737v5.474H228.8zM131.732 1.678h5.473v21.74h-5.473zM115.314 1.678h5.473v21.74h-5.473zM131.732 228.93h5.473v21.737h-5.473zM115.314 228.93h5.473v21.737h-5.473zM2.594 110.4H8.1C15.24 57.52 57.308 15.58 110.27 8.54V3.023C54.283 10.133 9.8 54.506 2.593 110.4zM8.123 142.326H2.608c7.204 55.9 51.68 100.276 107.66 107.39v-5.51c-52.96-7.04-95.007-49-102.145-101.88zM243.98 110.4h5.508C242.3 54.63 198 10.33 142.195 3.073v5.515c52.784 7.19 94.666 49.06 101.786 101.812zM142.195 244.135v5.517C198 242.394 242.3 198.096 249.49 142.327h-5.51c-7.12 52.75-49 94.62-101.785 101.808z"/><g><path d="M169.738 158.715v-.162c0-9.365-12.846-16.8-31.295-18.992v-20.837c9.855-4.35 16.738-14.2 16.738-25.663 0-15.49-12.556-28.043-28.047-28.043-15.49 0-28.044 12.555-28.044 28.043 0 11.465 6.882 21.315 16.736 25.664v20.804c-18.213 2.102-31.03 9.305-31.556 18.443h-.03V158.556l.015 6.12.047 5.192.006.172c.775 10.8 19.122 18.944 42.678 18.944 24.373 0 42.75-8.45 42.75-19.658l.005-.652c.03-7.393.022-9.33-.002-9.96m-62.113-72.88c-2.1-2.1-1.177-6.428 2.058-9.663 3.237-3.237 7.562-4.158 9.662-2.056 2.102 2.1 1.178 6.424-2.06 9.662-3.234 3.235-7.558 4.157-9.66 2.058m19.508 35.27c1.98 0 3.914-.21 5.777-.6v36.944l-.006.75c-.594.52-2.686 1.36-5.77 1.36-3.088 0-5.18-.84-5.767-1.362l-.007-37.69c1.865.39 3.794.597 5.773.597m-37.357 37.432c.02-5.47 10.29-11.44 26.05-13.42v3.96c-10.664 1.505-18.174 5.093-18.174 9.284 0 5.548 13.133 10.042 29.335 10.042 16.208 0 29.34-4.494 29.34-10.043 0-4.155-7.372-7.716-17.884-9.243v-3.963c15.613 2.018 25.762 7.96 25.762 13.398v.2l.002.024c-.314 7.96-17.223 14.645-37.214 14.645-20.104 0-37.092-6.76-37.216-14.78v-.105zm74.433 10.117l-.005.674c0 6.68-15.285 14.123-37.218 14.123-10.107 0-19.62-1.624-26.786-4.57-6.214-2.56-10.08-5.976-10.365-9.16l-.042-4.587c5.8 6.537 20.078 11.057 37.2 11.057 17.143 0 31.438-4.53 37.225-11.08 0 1.01-.005 2.18-.01 3.542"/></g></symbol><symbol id="shape-icon-information" viewBox="0 0 475 475"><path d="M238 0C107 0 0 107 0 238s107 237 238 237 237-106 237-237S369 0 238 0zm0 432c-107 0-194-87-194-194S131 44 238 44s194 87 194 194-87 194-194 194z"/><path d="M270 323l-20 9 26-133c3-14-12-29-28-20l-49 27c-9 5-12 17-7 26s17 12 26 7l12-6-25 127c-2 11 7 23 19 23 3 0 6-1 8-2l53-23c10-4 14-15 10-25s-15-14-25-10zM257 143c15 0 27-12 27-27s-12-27-27-27-27 12-27 27 12 27 27 27z"/></symbol><symbol id="shape-icon-internet" viewBox="0 0 254 254"><path d="M126.993 252.768C57.52 252.768 1 196.305 1 126.898 1 57.495 57.52 1.03 126.993 1.03c69.472 0 125.99 56.464 125.99 125.87 0 69.405-56.518 125.868-125.99 125.868zm0-246.2c-66.42 0-120.454 53.98-120.454 120.33 0 66.352 54.035 120.33 120.453 120.33 66.417 0 120.452-53.978 120.452-120.33 0-66.35-54.036-120.33-120.452-120.33z"/><path d="M186.882 110.37c-7.05-27.287-31.872-47.504-61.333-47.504-29.463 0-54.287 20.218-61.336 47.504H53.876v31.67h10.337c7.05 27.284 31.874 47.503 61.335 47.503s54.284-20.22 61.333-47.504h10.34v-31.67h-10.338zm-8.97 37.435c-5.03 2.14-12.635-3.34-17.363 2.02-4.728 5.345-2.223 7.217-6.67 16.94-4.444 9.725 1.67-12.5-14.998-8.612-12.302 2.873-2.216 15.565 3.916 22.03-5.44 1.742-11.235 2.694-17.25 2.694-8.2 0-15.992-1.753-23.033-4.904.26-1.602-.43-4.13-3.08-8.152-8.056-12.222 1.388-1.108 0-14.724-1.18-11.566-20.815-9.296-26.683-8.353-.602-1.54-1.142-3.104-1.61-4.704h108.812c-.576 1.972-1.263 3.89-2.04 5.765zm-95.7-32.638h5.336l1.67 9.105c.492 2.62.95 5.466 1.31 7.696h.064c.36-2.39.884-5.042 1.44-7.763l1.867-9.04h5.305l1.765 9.3c.49 2.59.85 4.948 1.18 7.403h.067c.325-2.455.817-5.043 1.276-7.663l1.798-9.04h5.078l-5.7 22.07h-5.4l-1.87-9.493c-.423-2.226-.786-4.293-1.047-6.813h-.063c-.395 2.486-.755 4.586-1.276 6.812l-2.096 9.494h-5.47l-5.233-22.07zm29.255 0h5.337l1.67 9.105c.492 2.62.95 5.466 1.31 7.696h.064c.36-2.39.884-5.042 1.442-7.763l1.867-9.04h5.3l1.772 9.3c.49 2.59.85 4.948 1.175 7.403h.066c.326-2.455.82-5.043 1.278-7.663l1.8-9.04h5.077l-5.695 22.07h-5.404l-1.865-9.493c-.427-2.226-.787-4.293-1.047-6.813h-.063c-.392 2.486-.754 4.586-1.278 6.812l-2.096 9.494h-5.47l-5.24-22.07zm29.258 0h5.336l1.67 9.105c.493 2.62.952 5.466 1.313 7.696h.063c.36-2.39.887-5.042 1.442-7.763l1.863-9.04h5.31l1.765 9.3c.494 2.59.854 4.948 1.182 7.403h.062c.327-2.455.82-5.043 1.276-7.663l1.8-9.04h5.075l-5.698 22.07h-5.396l-1.866-9.493c-.43-2.226-.79-4.293-1.048-6.813h-.07c-.387 2.486-.748 4.586-1.27 6.812l-2.097 9.494h-5.47l-5.24-22.07zm-69.58-4.797c3.947-13.536 12.82-24.99 24.535-32.29 3.718 1.588 11.087 6.136 10.7 14.234-.556 11.667 19.168-3.057 19.168-3.057s9.167-7.224 13.892 4.446c2.842 7.028 6.024-14.07 11.806-17.984 1.6.818 3.157 1.704 4.667 2.665l.6.39c11.174 7.326 19.615 18.485 23.438 31.595H71.145z"/></symbol><symbol id="shape-icon-mail" viewBox="0 0 254 254"><path d="M249.01 101.56C236.933 43.87 185.414 2 126.507 2c-8.623 0-17.31.902-25.823 2.685C33.045 18.845-10.477 85.34 3.667 152.917c12.075 57.69 63.595 99.562 122.502 99.562 8.622 0 17.31-.903 25.823-2.686 32.766-6.86 60.9-26.057 79.225-54.048 18.328-27.998 24.645-61.447 17.79-94.185zm-21.173 91.967c-17.734 27.094-44.962 45.67-76.67 52.308-8.242 1.726-16.653 2.6-24.997 2.6-57.004 0-106.86-40.52-118.543-96.345C-6.063 86.695 36.054 22.346 101.513 8.643c8.24-1.726 16.65-2.6 24.996-2.6 57.002 0 106.858 40.52 118.545 96.347 6.632 31.677.516 64.046-17.218 91.137z"/><path d="M126.508 8.74c-8.16 0-16.383.855-24.442 2.54C38.062 24.68-3.12 87.598 10.264 151.536 21.69 206.12 70.434 245.74 126.17 245.74c8.16 0 16.384-.854 24.442-2.543 31.007-6.488 57.63-24.652 74.97-51.143 17.34-26.492 23.318-58.14 16.834-89.112C230.99 48.357 182.244 8.74 126.508 8.74zm95.69 181.098c-16.75 25.59-42.464 43.135-72.414 49.402-7.786 1.63-15.733 2.456-23.614 2.456-53.832 0-100.912-38.263-111.95-90.987C1.294 88.95 41.07 28.18 102.894 15.24c7.79-1.63 15.733-2.458 23.615-2.458 53.83 0 100.915 38.267 111.95 90.988 6.263 29.917.488 60.482-16.26 86.068z"/><path d="M173.737 89.198H79.192c-3.727 0-6.754 3.028-6.754 6.753v67.535c0 3.728 3.027 6.754 6.754 6.754h94.545c3.73 0 6.753-3.027 6.753-6.755V95.95c0-3.724-3.022-6.752-6.753-6.752zM79.192 115.16l25.92 17.625-25.92 25.926v-43.55zm4.775 48.325l26.832-26.83 15.674 10.658 15.59-10.733 26.9 26.905H83.966zm89.77-4.774l-26.023-26.022 26.023-17.908v43.93zm0-51.827l-.147-.208-47.126 32.46-47.27-32.13V95.95h94.544v10.933z"/></symbol><symbol id="shape-icon-minus" viewBox="0 0 15.7 15.7"><path d="M7.8 15.7C3.5 15.7 0 12.2 0 7.8S3.5 0 7.8 0s7.8 3.5 7.8 7.8-3.4 7.9-7.8 7.9zM7.8.5C3.7.5.5 3.8.5 7.8c0 4.1 3.3 7.3 7.3 7.3 4.1 0 7.3-3.3 7.3-7.3.1-4-3.2-7.3-7.3-7.3z"/><path d="M3.8 6.8h8v2h-8z"/></symbol><symbol id="shape-icon-music-video" viewBox="0 0 254 254"><path d="M133.852 251.758c-1.46 0-2.677-1.148-2.744-2.62-.07-1.518 1.1-2.805 2.617-2.877l.658-.033c1.547-.058 2.817 1.068 2.905 2.584.09 1.52-1.07 2.816-2.582 2.905l-.724.04c-.044.003-.087.003-.13.003zm-13.79-.008c-.054 0-.108-.004-.164-.006l-.69-.04c-1.515-.088-2.672-1.39-2.583-2.906.09-1.515 1.355-2.674 2.907-2.583l.69.04c1.515.09 2.672 1.39 2.583 2.906-.086 1.462-1.298 2.59-2.743 2.59zm28.176-1.628c-1.312 0-2.47-.937-2.707-2.267-.265-1.496.73-2.924 2.226-3.19l.682-.12c1.504-.268 2.924.732 3.19 2.227.263 1.494-.73 2.922-2.228 3.188l-.68.12c-.16.027-.322.042-.482.042zm-42.558-.035c-.16 0-.32-.013-.483-.042l-.714-.13c-1.49-.284-2.47-1.726-2.187-3.217.283-1.49 1.725-2.468 3.217-2.187l.645.12c1.496.266 2.493 1.69 2.227 3.188-.236 1.33-1.395 2.27-2.705 2.27zm56.65-3.302c-1.19 0-2.287-.78-2.64-1.977-.427-1.46.41-2.988 1.868-3.414l.633-.188c1.444-.453 2.984.374 3.433 1.827.44 1.453-.377 2.992-1.83 3.433l-.69.208c-.257.077-.517.11-.772.11zm-70.74-.053c-.264 0-.532-.037-.798-.116l-.697-.218c-1.448-.457-2.25-2.002-1.79-3.45.46-1.448 2.01-2.25 3.45-1.79l.632.193c1.452.442 2.274 1.978 1.834 3.43-.358 1.188-1.45 1.952-2.63 1.952zm84.34-4.927c-1.062 0-2.074-.62-2.525-1.656-.604-1.397.04-3.015 1.43-3.617l.6-.263c1.38-.623 3.01-.002 3.63 1.385.624 1.385.005 3.013-1.378 3.63l-.666.294c-.357.15-.726.225-1.09.225zm-97.938-.08c-.364 0-.734-.074-1.09-.227l-.66-.293c-1.387-.618-2.01-2.242-1.392-3.63.62-1.39 2.245-2.02 3.632-1.392l.605.266c1.394.603 2.035 2.223 1.43 3.614-.45 1.04-1.46 1.66-2.525 1.66zm110.837-6.48c-.946 0-1.87-.49-2.38-1.37-.765-1.314-.317-2.996.995-3.76l.562-.33c1.308-.776 2.995-.352 3.772.945.78 1.305.354 2.992-.948 3.772l-.622.366c-.437.254-.91.376-1.38.376zm-123.74-.11c-.48 0-.963-.12-1.405-.387l-.6-.355c-1.303-.78-1.728-2.47-.947-3.77.778-1.306 2.464-1.726 3.77-.948l.588.352c1.306.774 1.733 2.463.958 3.768-.514.86-1.427 1.34-2.365 1.34zm135.78-7.932c-.84 0-1.663-.378-2.2-1.102-.916-1.212-.67-2.936.546-3.847l.528-.398c1.205-.928 2.934-.696 3.854.512.924 1.206.692 2.932-.514 3.854l-.566.435c-.498.368-1.073.548-1.65.548zm-147.813-.137c-.58 0-1.163-.183-1.66-.56l-.578-.44c-1.198-.937-1.413-2.66-.48-3.86.934-1.2 2.665-1.407 3.86-.48l.52.4c1.21.918 1.447 2.645.528 3.852-.54.71-1.36 1.088-2.19 1.088zm158.818-9.263c-.73 0-1.458-.29-2-.86-1.043-1.108-.99-2.85.113-3.89l.462-.445c1.09-1.056 2.83-1.04 3.888.05 1.064 1.087 1.04 2.827-.047 3.888l-.526.512c-.534.5-1.213.745-1.89.745zm-169.812-.16c-.685 0-1.37-.254-1.904-.767l-.512-.496c-1.087-1.062-1.11-2.8-.048-3.89 1.06-1.086 2.803-1.102 3.888-.05l.48.468c1.094 1.05 1.13 2.792.08 3.887-.54.562-1.263.848-1.985.848zm179.655-10.58c-.598 0-1.19-.187-1.687-.587-1.175-.96-1.412-2.615-.457-3.793l.43-.527c.95-1.186 2.687-1.37 3.87-.413 1.18.952 1.366 2.682.41 3.866l-.322.395c-.558.688-1.403 1.06-2.242 1.06zm-189.465-.07c-.796 0-1.586-.345-2.13-1.01l-.448-.55c-.952-1.184-.767-2.912.416-3.867 1.18-.957 2.914-.768 3.868.416l.422.52c.96 1.173.79 2.906-.387 3.87-.512.416-1.128.62-1.74.62zm197.965-11.54c-.503 0-1.01-.137-1.466-.424-1.28-.81-1.67-2.507-.857-3.792l.37-.586c.806-1.283 2.507-1.674 3.79-.858 1.287.808 1.672 2.504.86 3.79l-.37.586c-.524.83-1.413 1.284-2.327 1.284zm-206.45-.19c-.907 0-1.795-.448-2.32-1.27l-.37-.58c-.818-1.276-.443-2.98.837-3.797 1.285-.813 2.982-.44 3.8.838l.367.58c.818 1.276.444 2.978-.836 3.797-.46.294-.973.434-1.478.434zm213.52-12.456c-.4 0-.808-.084-1.19-.27-1.367-.66-1.943-2.302-1.285-3.672l.293-.612c.65-1.374 2.287-1.954 3.664-1.307 1.37.65 1.953 2.29 1.307 3.664l-.31.64c-.473.982-1.455 1.557-2.48 1.557zm-220.562-.19c-1.022 0-2.005-.574-2.48-1.557l-.302-.635c-.65-1.373-.065-3.012 1.307-3.662 1.372-.65 3.013-.068 3.664 1.305l.29.607c.658 1.37.082 3.014-1.288 3.672-.384.185-.79.27-1.19.27zm226.08-13.207c-.294 0-.595-.046-.892-.146-1.438-.494-2.203-2.057-1.712-3.492l.217-.644c.482-1.438 2.05-2.21 3.482-1.73 1.438.48 2.214 2.04 1.73 3.48l-.228.67c-.384 1.14-1.456 1.862-2.6 1.862zm-231.572-.19c-1.146 0-2.215-.72-2.604-1.866l-.222-.65c-.488-1.44.283-3.002 1.72-3.49 1.437-.488 3 .28 3.487 1.723l.222.65c.49 1.438-.282 3-1.72 3.49-.292.097-.59.144-.883.144zm235.452-13.77c-.188 0-.384-.02-.578-.063-1.482-.316-2.432-1.78-2.113-3.267l.14-.66c.308-1.483 1.753-2.446 3.257-2.13 1.483.31 2.436 1.766 2.13 3.253l-.147.694c-.28 1.29-1.42 2.172-2.69 2.172zm-239.308-.19c-1.27 0-2.41-.882-2.686-2.17l-.102-.49c-.313-1.482.618-3.04 2.103-3.354 1.476-.312 2.922.537 3.236 2.025l.14.663c.318 1.484-.628 2.948-2.113 3.266-.194.042-.39.06-.58.06zm241.497-14.125c-.086 0-.173-.003-.26-.012-1.514-.143-2.625-1.482-2.48-2.994l.062-.674c.134-1.517 1.48-2.646 2.98-2.497 1.515.132 2.632 1.467 2.497 2.978l-.062.7c-.135 1.426-1.335 2.497-2.737 2.497zm-243.663-.192c-1.403 0-2.6-1.07-2.735-2.492l-.063-.704c-.133-1.514.986-2.848 2.5-2.98 1.555-.16 2.846.988 2.978 2.5l.06.67c.144 1.51-.967 2.852-2.48 2.995-.086.01-.174.013-.26.013zm244.145-14.28c-1.485 0-2.71-1.19-2.746-2.687l-.018-.672c-.045-1.517 1.146-2.784 2.67-2.83 1.49.002 2.78 1.152 2.826 2.668l.02.703c.036 1.52-1.167 2.78-2.687 2.815-.018.002-.04.002-.063.002zM4.75 126.468h-.065c-1.517-.034-2.72-1.293-2.684-2.813l.02-.705c.045-1.517 1.32-2.61 2.83-2.67 1.518.046 2.71 1.314 2.666 2.83l-.02.675c-.032 1.493-1.257 2.682-2.745 2.682zm243.402-14.232c-1.34 0-2.51-.98-2.717-2.344l-.1-.688c-.223-1.503.814-2.9 2.32-3.12 1.492-.244 2.898.816 3.117 2.32l.104.677c.22 1.505-.816 2.904-2.318 3.126-.133.017-.268.028-.406.028zm-242.17-.196c-.134 0-.27-.008-.404-.03-1.502-.22-2.54-1.616-2.32-3.12l.102-.688c.225-1.503 1.628-2.523 3.124-2.315 1.502.223 2.54 1.623 2.316 3.126l-.1.676c-.203 1.368-1.376 2.35-2.718 2.35zm239.27-13.99c-1.21 0-2.314-.8-2.654-2.022l-.183-.674c-.397-1.466.467-2.974 1.935-3.372 1.48-.403 2.976.47 3.375 1.933l.178.66c.4 1.462-.46 2.976-1.922 3.38-.246.064-.49.096-.73.096zM8.905 97.866c-.238 0-.48-.03-.72-.098-1.467-.397-2.333-1.906-1.935-3.372l.185-.675c.4-1.466 1.903-2.315 3.38-1.924 1.464.403 2.324 1.917 1.923 3.38l-.18.657c-.332 1.226-1.44 2.032-2.652 2.032zm231.77-13.55c-1.09 0-2.12-.652-2.555-1.73l-.25-.612c-.574-1.404.095-3.013 1.498-3.59 1.41-.572 3.016.093 3.587 1.495l.27.667c.566 1.41-.118 3.01-1.532 3.573-.334.135-.677.197-1.018.197zm-227.173-.188c-.34 0-.685-.062-1.02-.196-1.41-.563-2.097-2.164-1.532-3.574l.272-.668c.577-1.4 2.18-2.07 3.588-1.495 1.404.577 2.074 2.186 1.497 3.59l-.25.614c-.43 1.077-1.462 1.73-2.554 1.73zM234.5 71.224c-.967 0-1.902-.51-2.406-1.417l-.332-.6c-.736-1.33-.255-3.003 1.07-3.74 1.337-.73 3.008-.248 3.738 1.075l.334.602c.736 1.326.255 3-1.072 3.738-.424.232-.88.342-1.332.342zm-214.793-.19c-.45 0-.906-.11-1.33-.344-1.327-.736-1.81-2.41-1.074-3.738l.328-.593c.728-1.333 2.398-1.824 3.732-1.097 1.332.728 1.823 2.398 1.094 3.732l-.34.622c-.502.904-1.44 1.416-2.41 1.416zm207.022-12.12c-.822 0-1.624-.374-2.147-1.105l-.396-.548c-.892-1.23-.62-2.95.612-3.84 1.234-.895 2.95-.615 3.84.612l.317.44c.884 1.235.647 3.02-.588 3.903-.5.358-1.078.536-1.64.536zM27.42 58.77c-.554 0-1.112-.167-1.596-.513-1.237-.88-1.522-2.6-.64-3.834l.415-.578c.887-1.228 2.605-1.51 3.84-.612 1.23.89 1.503 2.61.61 3.84l-.39.544c-.537.753-1.383 1.153-2.24 1.153zm190.318-11.095c-.747 0-1.488-.3-2.03-.897l-.456-.497c-1.03-1.12-.955-2.856.16-3.884 1.115-1.034 2.857-.956 3.883.158l.473.518c1.024 1.12.944 2.86-.178 3.882-.526.484-1.194.72-1.852.72zm-181.185-.298c-.653 0-1.298-.22-1.803-.683-1.12-1.022-1.28-2.67-.258-3.792l.167-.182.29-.322c1.023-1.125 2.758-1.206 3.885-.19 1.125 1.02 1.21 2.76.192 3.884l-.31.342c-.565.615-1.37.943-2.164.943zm170.838-9.83c-.646 0-1.298-.23-1.815-.69l-.5-.43c-1.147-.992-1.28-2.73-.286-3.878.988-1.15 2.728-1.28 3.878-.292l.547.478c1.142 1.005 1.248 2.742.24 3.88-.547.616-1.303.93-2.064.93zM46.888 37.39c-.77 0-1.533-.32-2.077-.948-.996-1.146-.874-2.88.273-3.877l.55-.473c1.16-.978 2.892-.838 3.874.325.98 1.157.836 2.892-.322 3.875l-.496.425c-.522.453-1.164.673-1.803.673zm149.04-8.695c-.534 0-1.075-.156-1.552-.48l-.56-.38c-1.26-.85-1.59-2.56-.737-3.818.854-1.257 2.56-1.585 3.816-.738l.584.395c1.252.856 1.576 2.568.72 3.822-.53.78-1.393 1.198-2.272 1.198zm-137.56-.13c-.88 0-1.744-.42-2.276-1.2-.853-1.256-.53-2.967.727-3.822l.59-.397c1.262-.845 2.968-.507 3.813.756.844 1.262.506 2.97-.756 3.815l-.552.373c-.474.322-1.012.475-1.546.475zm125.13-7.31c-.433 0-.865-.098-1.27-.31l-.598-.305c-1.354-.69-1.89-2.346-1.2-3.7.69-1.353 2.347-1.885 3.698-1.2l.635.326c1.348.7 1.873 2.36 1.172 3.708-.492.942-1.447 1.482-2.438 1.482zM70.8 21.158c-.992 0-1.95-.54-2.44-1.482-.703-1.347-.177-3.007 1.17-3.707l.625-.322c1.35-.698 3.008-.16 3.7 1.19.695 1.352.16 3.01-1.19 3.703l-.6.308c-.404.21-.838.31-1.264.31zm99.47-5.813c-.32 0-.643-.056-.96-.174l-.646-.242c-1.427-.53-2.147-2.113-1.617-3.537.53-1.422 2.11-2.142 3.536-1.616l.645.24c1.428.532 2.148 2.114 1.62 3.538-.414 1.108-1.464 1.792-2.577 1.792zm-86.243-.072c-1.112 0-2.16-.682-2.574-1.786-.534-1.422.188-3.006 1.608-3.54l.654-.244c1.417-.53 3.005.192 3.536 1.617.53 1.42-.193 3.005-1.616 3.535l-.642.24c-.317.12-.643.177-.965.177zm72.41-4.226c-.22 0-.443-.026-.663-.08l-.65-.16c-1.475-.353-2.39-1.836-2.033-3.313.355-1.477 1.85-2.378 3.313-2.035l.69.168c1.474.364 2.373 1.854 2.01 3.328-.313 1.254-1.435 2.092-2.667 2.092zM97.86 11c-1.234 0-2.358-.838-2.666-2.09-.364-1.475.536-2.965 2.01-3.33l.69-.167c1.478-.34 2.96.557 3.314 2.034.354 1.477-.557 2.96-2.034 3.315l-.65.157c-.224.054-.444.08-.663.08zm44.335-2.574c-.11 0-.225-.007-.336-.02l-.675-.08c-1.51-.178-2.588-1.545-2.41-3.053.177-1.51 1.56-2.587 3.05-2.41l.704.083c1.503.185 2.575 1.557 2.393 3.065-.172 1.396-1.357 2.416-2.728 2.416zm-30.09-.024c-1.368 0-2.553-1.02-2.726-2.412-.187-1.506.884-2.88 2.392-3.067l.7-.083c1.49-.194 2.874.9 3.053 2.41.177 1.508-.9 2.875-2.41 3.052l-.67.08c-.112.013-.227.02-.34.02zm15.636-.9h-.016l-.67-.002h-.495c-1.52 0-2.75-1.23-2.75-2.75 0-1.518 1.23-2.75 2.75-2.75h1.198c1.518.01 2.74 1.248 2.733 2.767-.006 1.513-1.236 2.734-2.75 2.734zM177.843 72.17H78.268c-3.93 0-7.112 3.186-7.112 7.113v99.575c0 3.932 3.18 7.112 7.112 7.112h99.575c3.93 0 7.112-3.18 7.112-7.112V79.283c0-3.928-3.182-7.112-7.112-7.112zm-10.67 99.576H106.72v3.556c0 1.966-1.59 3.557-3.556 3.557s-3.556-1.592-3.556-3.558v-3.556h-10.67c-1.965 0-3.555-1.59-3.555-3.557 0-1.966 1.59-3.557 3.557-3.557h10.67v-3.557c0-1.966 1.59-3.556 3.555-3.556s3.556 1.59 3.556 3.556v3.557h60.456c1.966 0 3.557 1.59 3.557 3.556 0 1.965-1.59 3.556-3.556 3.556zm10.67-21.338H78.268V79.283h99.575v71.125zm-27.513-39.09c3.396 1.94 3.396 5.115 0 7.056l-37.438 21.393c-3.396 1.938-6.175.326-6.175-3.584V93.508c0-3.91 2.778-5.525 6.175-3.584l37.438 21.393z"/></symbol><symbol id="shape-icon-one-euro" viewBox="0 0 115 80"><path d="M15 47.528c-2.74 0-5-2.222-5-4.96V27.482c-2 .707-4.86-.432-5.884-2.74-1.113-2.502.047-5.433 2.55-6.545l6.395-2.834c1.534-.684 3.29-.542 4.7.374 1.408.915 2.24 2.48 2.24 4.16V42.57c0 2.737-2.26 4.958-5 4.958zM59.113 40.23C53.09 40.23 48 35.192 48 28.76v-11.7c0-1.957 1.543-3.543 3.5-3.543S55 15.103 55 17.06v11.7c0 2.5 2.03 4.385 4.113 4.385 2.252 0 3.887-2.205 3.887-4.384v-11.7c0-1.957 1.543-3.543 3.5-3.543S70 15.103 70 17.06v11.7c0 6.54-4.892 11.47-10.887 11.47z"/><path fill="#00ABC4" d="M36.172 66.696c-6.21 0-12.862-4.934-12.862-12.276 0-6.927 5.77-12.56 12.862-12.56 2.538 0 5.644.288 7.148 2.547.775 1.162.93 2.598.41 3.84-.752 1.804-2.827 2.656-4.632 1.904-.604-.25-1.1-.65-1.468-1.14-.332-.035-.805-.065-1.458-.065-2.79 0-5.777 2.2-5.777 5.475 0 2.97 3.05 5.19 5.777 5.19 1.11 0 1.8-.456 1.804-.46 1.394-1.373 3.638-1.356 5.01.038 1.372 1.396 1.355 3.64-.04 5.01-.423.418-2.74 2.498-6.774 2.498z"/><path d="M99.625 40.207c-6.427 0-11.625-5.13-11.625-11.68V26.2c0-6.548 5.198-11.68 11.625-11.68 6.287 0 11.375 5.132 11.375 11.68v2.326c0 6.55-5.088 11.68-11.375 11.68zm0-18.6C97.13 21.607 95 23.582 95 26.2v2.326c0 2.62 2.13 4.594 4.625 4.594 2.71 0 4.375-2.31 4.375-4.594V26.2c0-2.282-1.666-4.593-4.375-4.593z"/><path fill="#00ABC4" d="M57.125 67.76C50.698 67.76 46 62.588 46 55.985v-2.352c0-6.603 4.698-11.774 11.125-11.774C63.518 41.86 68 46.92 68 53.633v2.352c0 6.71-4.482 11.774-10.875 11.774zm0-18.815c-2.495 0-4.125 2.017-4.125 4.688v2.352c0 2.672 1.63 4.688 4.125 4.688 2.836 0 3.875-2.43 3.875-4.688v-2.352c0-2.258-1.04-4.688-3.875-4.688z"/><path d="M77.5 40.442c-1.957 0-3.5-1.586-3.5-3.543V17.77C74 15.81 75.487 14 77.444 14h7.794c1.957 0 3.543 1.543 3.543 3.5S87.196 21 85.24 21H81v15.9c0 1.956-1.543 3.542-3.5 3.542zM42.292 30.657c-1.49-.596-3.143-.108-4.09 1.087-.234.076-.748-.003-1.677-.003-2.245 0-4.676-.74-5.663-3.74h6.194c1.174 0 2.125-.826 2.125-2 0-1.175-.95-2-2.124-2H30.9c1.005-2 3.37-3.47 5.625-3.47.72 0 1.233.072 1.586.114.37.51.88.944 1.503 1.204 1.807.752 3.88-.092 4.633-1.898.51-1.228.352-2.7-.416-3.853-1.526-2.29-4.706-2.582-7.306-2.582-7.287 0-13.215 5.79-13.215 12.903 0 7.54 6.832 12.607 13.214 12.607 5.788 0 7.39-2.88 7.74-3.764.73-1.815-.156-3.877-1.972-4.603z"/><path fill="#00ABC4" d="M95.734 42.994c-2.762 0-5.116.976-7 2.59-1.84-1.62-4.22-2.59-6.985-2.59-1.626 0-3.12.345-4.486.948-.65-.762-1.623-1.255-2.702-1.255-1.957 0-3.562 1.586-3.562 3.542v16.177c0 1.957 1.543 3.543 3.5 3.543s3.5-1.586 3.5-3.543V53.48c0-1.97 1.496-3.4 3.615-3.4 2.53 0 3.385 1.832 3.385 3.4v8.927c0 1.957 1.543 3.543 3.5 3.543s3.5-1.586 3.5-3.543V53.48c0-1.97 1.496-3.4 3.615-3.4 2.53 0 3.385 1.832 3.385 3.4v8.927c0 1.957 1.543 3.543 3.5 3.543s3.5-1.586 3.5-3.543V53.48c0-5.978-4.27-10.486-10.266-10.486z"/><circle fill="#00ABC4" cx="14.914" cy="61.404" r="5.609"/></symbol><symbol id="shape-icon-pinterest" viewBox="0 0 310.05 310.05"><path d="M245.265 31.772C223.923 11.284 194.388 0 162.1 0c-49.32 0-79.653 20.217-96.415 37.176-20.658 20.9-32.504 48.65-32.504 76.14 0 34.512 14.437 61.002 38.612 70.857 1.623.665 3.256 1 4.857 1 5.1 0 9.14-3.337 10.54-8.69.816-3.07 2.707-10.647 3.53-13.936 1.76-6.495.337-9.62-3.5-14.142-6.993-8.273-10.25-18.056-10.25-30.788 0-37.818 28.16-78.01 80.353-78.01 41.412 0 67.137 23.536 67.137 61.424 0 23.91-5.15 46.052-14.504 62.35-6.5 11.326-17.93 24.826-35.477 24.826-7.59 0-14.405-3.117-18.706-8.55-4.063-5.138-5.402-11.774-3.768-18.69 1.846-7.814 4.363-15.965 6.8-23.845 4.442-14.39 8.642-27.984 8.642-38.83 0-18.55-11.404-31.013-28.375-31.013-21.568 0-38.465 21.906-38.465 49.87 0 13.716 3.645 23.974 5.295 27.913-2.717 11.512-18.865 79.953-21.928 92.86-1.77 7.533-12.44 67.038 5.22 71.783 19.84 5.33 37.575-52.623 39.38-59.172 1.463-5.325 6.582-25.464 9.72-37.844 9.577 9.226 25 15.463 40.005 15.463 28.29 0 53.73-12.73 71.637-35.844 17.367-22.418 26.932-53.664 26.932-87.978 0-26.826-11.52-53.272-31.605-72.556z"/></symbol><symbol id="shape-icon-plus" viewBox="0 0 84 84"><path d="M42 0C18.804 0 0 18.807 0 42c0 23.197 18.804 42 42 42 23.194 0 42-18.803 42-42C84 18.807 65.194 0 42 0zm5.11 47.11v20.14H36.89V47.11H16.75V36.89h20.14V16.754l10.222-.002v20.14H67.25V47.11H47.11z"/></symbol><symbol id="shape-icon-pro" viewBox="0 0 254 254"><path d="M126.632 238.768c-61.83 0-112.134-50.252-112.134-112.02C14.498 64.975 64.8 14.72 126.632 14.72c61.83 0 112.137 50.254 112.137 112.025 0 61.77-50.308 112.02-112.138 112.02zm0-221.46c-60.402 0-109.546 49.094-109.546 109.44 0 60.34 49.144 109.434 109.546 109.434 60.405 0 109.548-49.093 109.548-109.435 0-60.345-49.143-109.438-109.548-109.438z"/><path d="M135.64 250c-1.327 0-2.457-1.014-2.576-2.357-.128-1.427.924-2.683 2.348-2.81l.533-.043c1.413-.123 2.675.966 2.78 2.39.106 1.43-.954 2.665-2.38 2.772l-.018.003-.458.035c-.078.008-.157.01-.23.01zm-18.006 0c-.063 0-.127-.002-.192-.008l-.258-.018c-1.425-.106-2.624-1.358-2.52-2.78.104-1.426 1.176-2.518 2.642-2.4l.515.038c1.426.103 2.496 1.345 2.392 2.77-.1 1.363-1.234 2.398-2.578 2.398zm-18.316-2.763c-.19 0-.383-.02-.577-.064l-.532-.124c-1.39-.335-2.246-1.732-1.91-3.124.334-1.386 1.738-2.24 3.12-1.91l.47.108c1.395.32 2.27 1.704 1.95 3.1-.273 1.2-1.34 2.013-2.52 2.013zm54.85-.053c-1.19 0-2.332-.78-2.613-1.963-.33-1.39.408-2.753 1.796-3.09 1.393-.326 3.036.464 3.372 1.853.336 1.387-.267 2.727-1.656 3.064l-.283.067c-.206.048-.41.07-.614.07zM81.625 241.7c-.314 0-.635-.06-.946-.18l-.52-.207c-1.32-.545-1.95-2.06-1.405-3.382.545-1.32 2.06-1.937 3.38-1.404l.44.176c1.33.524 1.984 2.028 1.46 3.356-.4 1.02-1.376 1.642-2.41 1.642zm90.192-.082c-1.04 0-2.057-.58-2.46-1.57-.54-1.32-.03-2.777 1.288-3.324.005 0 .248-.1.255-.104 1.316-.526 2.948.054 3.485 1.373.54 1.318.03 2.777-1.29 3.323-.004 0-.247.1-.255.103-.326.13-.677.198-1.024.198zm16.43-8.088c-.894 0-1.76-.462-2.238-1.288-.718-1.234-.3-2.82.935-3.537l.403-.243c1.223-.743 2.816-.347 3.554.88.738 1.223.346 2.814-.88 3.553l-.475.284c-.41.236-.86.35-1.3.35zm-123.25-.016c-.453 0-.91-.118-1.326-.365l-.41-.244c-1.238-.712-1.663-2.295-.95-3.534.715-1.24 2.292-1.668 3.535-.95l.48.284c1.227.735 1.626 2.32.892 3.55-.483.808-1.34 1.258-2.222 1.258zm138.42-10.6c-.74 0-1.476-.317-1.986-.926-.917-1.096-.774-2.73.322-3.646l.42-.346c1.11-.905 2.74-.743 3.64.362.91 1.104.747 2.735-.36 3.64l-.377.312c-.483.406-1.074.604-1.66.604zm-153.6-.025c-.58 0-1.16-.192-1.64-.587l-.407-.333c-1.103-.91-1.256-2.543-.345-3.645.91-1.098 2.544-1.258 3.643-.345l.39.318c1.105.905 1.267 2.535.36 3.643-.51.625-1.254.95-2.003.95zm166.987-12.777c-.622 0-1.246-.223-1.74-.674-1.06-.962-1.133-2.602-.173-3.657l.318-.354c.944-1.075 2.58-1.178 3.652-.23 1.07.944 1.174 2.58.23 3.652l-.373.413c-.51.56-1.21.848-1.914.848zm-180.472-.068c-.673 0-1.336-.273-1.83-.828l-.127-.14-.208-.236c-.957-1.06-.87-2.697.192-3.652 1.062-.958 2.7-.873 3.654.19l.23.26c.95 1.065.916 2.77-.15 3.72-.512.454-1.14.687-1.76.687zm191.767-14.618c-.487 0-.98-.137-1.42-.43-1.192-.78-1.525-2.388-.738-3.582l.272-.42c.776-1.197 2.38-1.545 3.578-.76 1.198.776 1.543 2.38.765 3.58l-.294.444c-.493.756-1.322 1.167-2.163 1.167zm-202.95-.03c-.847 0-1.678-.416-2.173-1.18l-.27-.414c-.788-1.19-.46-2.8.733-3.584 1.198-.788 2.8-.463 3.586.733l.293.443c.778 1.2.437 2.804-.763 3.582-.434.283-.924.418-1.406.418zm211.876-16.21c-.35 0-.707-.07-1.05-.224-1.305-.58-1.893-2.11-1.312-3.416l.22-.484c.586-1.304 2.12-1.885 3.423-1.296 1.304.59 1.88 2.12 1.294 3.423l-.207.46c-.43.963-1.375 1.538-2.367 1.538zm-220.79-.017c-.984 0-1.926-.567-2.358-1.524l-.22-.485c-.577-1.306.014-2.832 1.32-3.41 1.307-.584 2.833.007 3.415 1.32l.2.448c.59 1.3.01 2.833-1.292 3.423-.347.156-.708.23-1.064.23zM9.81 161.646c-1.098 0-2.08-.66-2.39-1.784l-.07-.252c-.378-1.38.396-2.925 1.772-3.304 1.377-.38 2.77.304 3.15 1.68l.068.253c.378 1.378-.396 2.924-1.773 3.304-.252.07-.507.102-.757.102zm233.52-.012c-.207 0-.418-.027-.627-.086-1.373-.376-2.22-1.673-1.844-3.05l.067-.256c.38-1.374 1.833-2.316 3.212-1.934 1.38.377 2.225 1.673 1.85 3.052l-.068.252c-.322 1.17-1.423 2.022-2.59 2.022zM6.34 143.584c-1.292 0-2.41-.966-2.567-2.282l-.062-.534c-.156-1.42.87-2.698 2.29-2.855 1.438-.155 2.7.87 2.856 2.29l.056.487c.17 1.418-.844 2.706-2.264 2.876-.104.012-.208.018-.31.018zm240.574-.038c-.096 0-.196-.008-.294-.02-1.42-.165-2.44-1.41-2.272-2.83l.055-.494c.16-1.42 1.446-2.435 2.858-2.29 1.42.157 2.443 1.436 2.286 2.855l-.05.45c-.157 1.324-1.284 2.33-2.584 2.33zm.76-18.467c-1.387 0-2.533-1.1-2.587-2.494l-.017-.513c-.055-1.43 1.06-2.63 2.49-2.68 1.423-.12 2.628 1.06 2.68 2.488l.02.515c.054 1.428-1.062 2.628-2.492 2.68-.03.004-.064.004-.095.004zm-242.086 0c-.03 0-.064 0-.095-.005-1.43-.05-2.544-1.25-2.493-2.68l.02-.517c.053-1.428 1.308-2.593 2.68-2.49 1.43.05 2.545 1.252 2.494 2.683l-.02.516c-.052 1.395-1.2 2.493-2.586 2.493zm240.038-18.407c-1.218 0-2.305-.864-2.54-2.105l-.096-.496c-.27-1.402.644-2.762 2.05-3.032 1.404-.283 2.76.645 3.033 2.047l.1.516c.264 1.405-.66 2.76-2.062 3.025-.165.03-.326.045-.485.045zm-237.99-.002c-.155 0-.317-.014-.477-.042-1.405-.263-2.33-1.615-2.068-3.02l.103-.53c.276-1.404 1.624-2.317 3.04-2.04 1.402.277 2.314 1.637 2.037 3.04l-.092.48c-.23 1.244-1.32 2.113-2.54 2.113zm233.147-17.876c-1.066 0-2.067-.665-2.44-1.73l-.167-.47c-.486-1.343.214-2.825 1.56-3.31 1.342-.488 2.826.214 3.31 1.562l.18.5c.476 1.35-.234 2.826-1.582 3.3-.286.104-.578.148-.86.148zm-228.3-.018c-.29 0-.586-.047-.875-.15-1.345-.486-2.043-1.968-1.56-3.312l.17-.478c.48-1.347 1.958-2.05 3.303-1.575 1.347.476 2.054 1.954 1.577 3.304l-.18.498c-.378 1.058-1.373 1.714-2.434 1.714zM233.26 71.884c-.927 0-1.82-.5-2.288-1.37l-.23-.42c-.688-1.252-.233-2.826 1.02-3.516 1.255-.688 2.827-.235 3.514 1.02l.264.48c.672 1.26.196 2.827-1.067 3.502-.388.205-.805.304-1.213.304zM20.027 71.85c-.416 0-.837-.102-1.23-.315-1.256-.68-1.723-2.25-1.043-3.507l.257-.468c.69-1.25 2.263-1.708 3.516-1.02 1.252.687 1.71 2.262 1.02 3.513l-.24.442c-.47.862-1.358 1.354-2.28 1.354zm203.198-15.527c-.783 0-1.554-.35-2.062-1.024l-.312-.41c-.864-1.138-.642-2.763.496-3.627 1.142-.863 2.763-.645 3.628.498l.31.41c.863 1.138.64 2.763-.496 3.627-.468.354-1.017.526-1.563.526zm-193.152-.048c-.544 0-1.095-.172-1.562-.526-1.138-.865-1.36-2.49-.497-3.627l.33-.435c.88-1.128 2.506-1.334 3.633-.453 1.128.877 1.332 2.502.456 3.632l-.296.384c-.51.673-1.28 1.025-2.063 1.025zM210.937 42.46c-.646 0-1.295-.243-1.8-.73l-.36-.346c-1.032-.99-1.063-2.63-.077-3.66.988-1.028 2.63-1.06 3.66-.075l.38.365c1.024.993 1.054 2.63.057 3.66-.507.52-1.183.785-1.86.785zm-168.565-.04c-.68 0-1.36-.27-1.868-.796-.99-1.03-.955-2.672.075-3.66l.353-.342c1.018-.998 2.658-.98 3.66.04 1 1.02.983 2.66-.04 3.658l-.39.38c-.5.48-1.147.72-1.79.72zm154.316-11.8c-.516 0-1.03-.152-1.487-.47l-.417-.296c-1.17-.82-1.45-2.436-.632-3.606.824-1.168 2.44-1.454 3.606-.63l.423.296c1.166.822 1.45 2.437.627 3.607-.502.715-1.306 1.1-2.12 1.1zm-140.063-.034c-.814 0-1.616-.385-2.12-1.1-.822-1.17-.54-2.785.63-3.606l.395-.28c1.163-.833 2.78-.567 3.612.585.837 1.16.574 2.778-.586 3.615l-.445.316c-.453.318-.97.47-1.485.47zM180.8 21.083c-.395 0-.797-.09-1.17-.28l-.433-.215c-1.283-.632-1.812-2.18-1.183-3.465.632-1.28 2.182-1.807 3.468-1.18l.49.245c1.275.647 1.783 2.206 1.14 3.48-.463.896-1.37 1.415-2.31 1.415zm-108.297-.02c-.954 0-1.87-.528-2.322-1.438-.633-1.282-.11-2.833 1.17-3.468l.43-.214c1.27-.657 2.83-.152 3.483 1.122.65 1.27.148 2.83-1.123 3.483l-.49.245c-.368.184-.762.27-1.147.27zm91.136-6.973c-.25 0-.507-.036-.758-.113l-.534-.17c-1.36-.437-2.108-1.897-1.666-3.258.438-1.358 1.89-2.11 3.26-1.666l.452.145c1.368.416 2.136 1.86 1.72 3.228-.343 1.114-1.367 1.832-2.475 1.832zm-73.985-.007c-1.09 0-2.105-.696-2.46-1.788-.444-1.36.3-2.82 1.66-3.263l.524-.167c1.36-.42 2.814.342 3.238 1.707.423 1.364-.34 2.815-1.705 3.237l-.456.146c-.268.086-.536.127-.802.127zm55.96-4.27c-.14 0-.28-.01-.42-.033l-.477-.073c-1.412-.212-2.388-1.53-2.18-2.942.213-1.415 1.537-2.378 2.944-2.18l.543.085c1.412.23 2.37 1.562 2.14 2.972-.207 1.27-1.306 2.172-2.55 2.172zm-37.704-.04c-1.26 0-2.453-.885-2.662-2.15-.23-1.412.602-2.723 2.012-2.953l.285-.045c1.41-.246 2.853.72 3.078 2.127.224 1.408-.61 2.714-2.018 2.945l-.26.04c-.145.023-.29.035-.434.035zm19.238-1.436h-1.003c-1.43 0-2.588-1.158-2.588-2.588 0-1.43 1.158-2.59 2.588-2.59h1.003c1.43 0 2.588 1.16 2.588 2.59s-1.16 2.587-2.588 2.587zM132.19 88.308c3.545 0 5.898-2.476 6.42-5.94l1.783-14.243c0-3.28-2.875-5.94-6.42-5.94h-15.396c-3.546 0-6.42 2.66-6.42 5.94l1.782 14.243c.445 3.877 2.874 5.94 6.42 5.94 2.722 0 3.317-.826 6.29-.826 3.196 0 3.723.826 5.54.826M139.995 127.448l-30.08 15.915-.84 5.044 31.626-16.73M137.003 109.49l-23.515 12.44-3.115 18.692 29.24-15.47M113.945 119.19l22.675-11.997-.637-3.824-21.278 11.256M107.078 169.264l3.425 4.07 34.132-18.056-3.17-19.01-33.304 17.62-1.082 6.498c-.27 1.327-2.26 6.425 0 8.878M117.29 181.403l6.51 7.74c2.258 2.447 2.707 2.447 4.968 0l16.72-19.88c.826-.897 1.074-2.094 1.05-3.334l-29.248 15.473zM135.218 98.776l-1.18-7.07c-2.258-2.453-13.252-2.453-15.513 0l-2.907 17.44 19.6-10.37zM145.487 160.387l-.086-.516-31.987 16.925 2.422 2.877 30.402-16.084c-.28-1.317-.664-2.497-.75-3.2"/></symbol><symbol id="shape-icon-screen" viewBox="0 0 254 254"><path fill-rule="evenodd" clip-rule="evenodd" d="M127.424 1C58.068 1 1.847 57.167 1.847 126.452c0 69.282 56.222 125.45 125.577 125.45 69.353 0 125.576-56.168 125.576-125.45C253 57.167 196.776 1 127.424 1zm110.09 174.466l-16.16 5.213 3.566 16.603-16.896 1.743.035 16.985-16.887-1.81-3.496 16.614-16.14-5.278-6.877 15.528-14.688-8.526-9.954 13.764-12.597-11.394-12.597 11.394-9.953-13.764-14.69 8.526-6.874-15.528-16.142 5.278L63.67 214.2l-16.887 1.81.036-16.984-16.896-1.743 3.565-16.604-16.163-5.214 6.94-15.5-14.725-8.462 10.01-13.718-12.64-11.334 12.646-11.337-10.012-13.72 14.726-8.46-6.94-15.5 16.16-5.214-3.564-16.603 16.895-1.74-.036-16.983 16.886 1.81 3.495-16.618 16.142 5.282 6.874-15.53 14.69 8.524 9.953-13.76 12.598 11.39 12.595-11.39 9.954 13.76 14.688-8.523 6.876 15.528 16.14-5.282 3.497 16.618 16.886-1.81-.034 16.983 16.896 1.74-3.567 16.604 16.16 5.214-6.942 15.5 14.73 8.462-10.014 13.718 12.645 11.337-12.646 11.335 10.012 13.718-14.73 8.46 6.942 15.503z"/><path d="M149.442 82.375h-44.04c-3.67 0-6.67 3-6.67 6.672v85.43c0 3.673 3 6.677 6.67 6.677h44.04c3.666 0 6.67-3 6.67-6.674V89.047c0-3.672-3.004-6.672-6.67-6.672zm-29.064 4.81h14.09c.446 0 .808.36.808.81 0 .445-.36.807-.808.807h-14.09c-.445 0-.808-.362-.808-.807 0-.45.363-.81.808-.81zm7.045 90.634c-1.843 0-3.337-1.494-3.337-3.34 0-1.845 1.495-3.332 3.337-3.332 1.84 0 3.335 1.487 3.335 3.332 0 1.846-1.494 3.34-3.335 3.34zm24.05-9.013h-48.098V92.955h48.097v75.852z"/></symbol><symbol id="shape-icon-screenshot" viewBox="0 0 254 254"><path d="M114.128 250.908c-.923-.098-1.842-.198-2.76-.31l.985-8.09c.862.105 1.725.2 2.59.288l-.815 8.112zm30.503-.66l-1.158-8.07c.86-.12 1.717-.257 2.57-.397l1.336 8.04c-.91.153-1.827.296-2.747.43zm-46.94-2.092c-.904-.212-1.81-.44-2.707-.675l2.07-7.884c.83.22 1.67.43 2.51.624l-1.872 7.936zm63.25-1.393l-2.228-7.843c.834-.235 1.663-.482 2.49-.74l2.407 7.79c-.884.27-1.775.535-2.67.793zm-79.197-3.53c-.866-.336-1.728-.675-2.584-1.023l3.082-7.547c.807.33 1.618.652 2.435.97l-2.934 7.6zm94.897-2.112l-3.267-7.468c.796-.346 1.587-.698 2.373-1.064l3.42 7.398c-.837.385-1.68.766-2.526 1.135zm-110.034-4.904c-.818-.45-1.63-.903-2.437-1.373l4.082-7.055c.75.435 1.503.86 2.262 1.273l-3.908 7.156zm124.83-2.777l-4.243-6.957c.742-.46 1.48-.916 2.214-1.382l4.376 6.875c-.776.493-1.557.982-2.347 1.464zm-138.896-6.2c-.748-.553-1.49-1.11-2.224-1.677l4.976-6.458c.69.536 1.38 1.054 2.08 1.57l-4.832 6.565zm152.534-3.375l-5.12-6.347c.672-.545 1.34-1.093 2-1.654l5.263 6.23c-.712.597-1.426 1.184-2.143 1.77zM39.8 216.475c-.67-.647-1.33-1.295-1.985-1.963l5.798-5.725c.607.616 1.223 1.22 1.845 1.823l-5.657 5.864zm177.526-3.917l-5.917-5.604c.597-.632 1.188-1.27 1.774-1.913l6.03 5.485c-.62.68-1.246 1.358-1.888 2.033zM28.602 204.12c-.575-.72-1.142-1.457-1.7-2.194l6.494-4.922c.525.688 1.053 1.376 1.592 2.055l-6.386 5.06zm199.377-4.393l-6.615-4.768c.514-.71 1.017-1.42 1.51-2.134l6.706 4.632c-.526.763-1.06 1.513-1.6 2.27zM19.14 190.39c-.474-.79-.935-1.588-1.39-2.39l7.085-4.028c.43.758.866 1.51 1.31 2.26l-7.006 4.16zm217.684-4.798l-7.178-3.863c.406-.762.812-1.526 1.202-2.305l7.267 3.69c-.42.837-.85 1.66-1.29 2.477zm-225.23-10.058c-.364-.852-.717-1.705-1.06-2.57l7.57-3.017c.32.8.648 1.6.986 2.39l-7.495 3.197zm232.116-5.156l-7.637-2.85c.303-.81.6-1.628.885-2.457l7.697 2.682c-.303.885-.624 1.757-.945 2.626zM6.103 159.796c-.247-.897-.483-1.792-.71-2.697l7.907-1.982c.21.847.432 1.682.66 2.515l-7.857 2.163zm242.378-5.41l-7.95-1.803c.194-.843.376-1.692.55-2.54l7.985 1.618c-.182.915-.38 1.82-.584 2.727zM2.77 143.447c-.12-.916-.234-1.84-.335-2.756l8.1-.908c.097.862.202 1.726.317 2.586l-8.08 1.078zm248.298-5.534l-8.118-.722c.077-.863.143-1.73.207-2.6l8.127.554c-.06.926-.13 1.848-.216 2.768zM10.83 111.252l-8.082-1.065c.122-.924.253-1.84.396-2.758l8.052 1.25c-.13.857-.253 1.713-.366 2.572zm230.782-5.148c-.15-.85-.312-1.7-.482-2.544l7.987-1.618c.182.91.357 1.823.52 2.738l-8.025 1.424zM13.902 95.98l-7.865-2.14c.246-.9.5-1.79.763-2.676l7.814 2.314c-.246.832-.485 1.662-.712 2.503zm223.946-4.99c-.264-.83-.538-1.65-.826-2.468l7.7-2.675c.304.877.6 1.758.884 2.645l-7.758 2.497zM18.998 81.24l-7.506-3.175c.363-.858.736-1.71 1.12-2.563l7.428 3.352c-.357.79-.704 1.584-1.04 2.386zm213.087-4.74c-.373-.776-.755-1.555-1.142-2.323l7.272-3.678c.417.827.826 1.66 1.227 2.497l-7.357 3.503zM26.028 67.33l-7.007-4.16c.474-.797.955-1.588 1.443-2.372l6.923 4.3c-.46.74-.913 1.482-1.358 2.23zm198.416-4.4c-.47-.725-.956-1.443-1.445-2.155l6.72-4.616c.524.766 1.038 1.538 1.547 2.31l-6.823 4.46zM34.86 54.473l-6.395-5.053c.576-.727 1.16-1.45 1.75-2.16l6.282 5.19c-.55.666-1.098 1.342-1.637 2.024zm180.203-3.988c-.568-.656-1.144-1.304-1.724-1.95l6.054-5.458c.62.69 1.232 1.38 1.834 2.083l-6.165 5.326zM45.32 42.9l-5.672-5.848c.668-.646 1.343-1.285 2.026-1.92l5.532 5.987c-.634.59-1.262 1.182-1.885 1.78zm158.797-3.504c-.652-.575-1.31-1.15-1.975-1.715l5.28-6.21c.704.597 1.398 1.207 2.093 1.82l-5.398 6.106zM57.214 32.83l-4.84-6.558c.747-.553 1.496-1.094 2.253-1.624l4.69 6.665c-.706.493-1.406 1-2.103 1.516zm134.576-2.984c-.723-.482-1.452-.965-2.187-1.437l4.403-6.86c.78.5 1.553 1.012 2.32 1.527l-4.536 6.77zM70.337 24.42l-3.932-7.142c.81-.443 1.623-.882 2.443-1.31l3.778 7.22c-.767.404-1.53.813-2.29 1.232zm107.958-2.398c-.78-.384-1.56-.762-2.35-1.13l3.433-7.39c.846.394 1.686.796 2.52 1.207l-3.603 7.312zm-93.847-4.176l-2.932-7.605c.858-.33 1.72-.655 2.59-.97l2.774 7.664c-.814.295-1.626.6-2.432.912zm79.427-1.77c-.82-.28-1.646-.546-2.475-.804l2.42-7.783c.887.274 1.767.56 2.645.856l-2.59 7.73zM99.32 13.21l-1.897-7.925c.906-.218 1.813-.425 2.723-.62l1.698 7.97c-.844.183-1.688.376-2.525.574zm49.48-1.09c-.85-.167-1.704-.32-2.563-.467l1.365-8.032c.917.155 1.83.32 2.734.496L148.8 12.12zm-34.11-1.516l-.828-8.11c.925-.09 1.852-.173 2.78-.247l.63 8.125c-.865.07-1.724.145-2.583.232zm18.143 7.812c-.807-.07-1.613-.12-2.424-.148l-.446-.005.576-16.333.38.003c.98.044 1.786.083 2.646.157l-.733 16.326zm-1.82 233.154c-.807-.03-1.613-.036-2.425-.022l-.447.017-.257-16.34.38-.017c.98-.005 1.786-.01 2.65.02l.1 16.342zm104.148-129.508c.01-.808-.005-1.613-.043-2.424l-.032-.446 16.33-.714.03.377c.032.986.055 1.792.053 2.65l-16.337.557zm-217.11 2.316c-.057.807-.092 1.613-.107 2.426l.002.444-16.34-.284-.003-.378c.028-.983.053-1.79.11-2.648l16.337.44z"/><circle cx="119.308" cy="106.858" r="1.551"/><path d="M112.515 104.03c1.56 0 2.824 1.267 2.824 2.828 0 1.562-1.267 2.827-2.825 2.827-1.563 0-2.828-1.264-2.828-2.827 0-1.56 1.265-2.827 2.828-2.827z"/><path d="M146.782 95.584h-36.037c-5.13 0-9.286 4.16-9.286 9.288v68.914c0 5.13 4.156 9.288 9.285 9.288h36.037c5.13 0 9.288-4.157 9.288-9.288v-68.914c0-5.13-4.158-9.288-9.288-9.288zm-28.254 16.626h-6.375c-2.956 0-5.353-2.396-5.353-5.352s2.397-5.352 5.353-5.352h6.375c2.955 0 5.352 2.395 5.352 5.352s-2.397 5.352-5.352 5.352z"/><path d="M87.284 94.888l14.793-1.913 1.457-14.268 9.195 12.508 9.343-5.016-1.62 5.032h4.1l4.21-13.054-14.895 7.996-13.19-17.943-2.17 21.27-21.01 2.72 14.805 11.522-11.71 15.636 16.764-2.733v-3.956l-7.835 1.278 8.2-10.954"/></symbol><symbol id="shape-icon-selfie" viewBox="0 0 254 254"><path fill-rule="evenodd" clip-rule="evenodd" d="M215.115 215.112l.022-.027c45.85-45.88 48.407-118.88 7.746-167.89-2.392-3.025-4.978-5.95-7.77-8.74-2.797-2.796-5.72-5.383-8.748-7.774C157.348-9.985 84.327-7.416 38.455 38.458c-45.877 45.876-48.44 118.9-7.764 167.92 2.39 3.023 4.974 5.947 7.768 8.74 2.792 2.792 5.715 5.378 8.742 7.767 49.022 40.67 122.04 38.104 167.914-7.77v-.002zM56.327 226.38v-29.134l-29.136-.003C-2.62 155.178-2.67 98.385 27.05 56.326h29.274l.003-29.275c42.06-29.72 98.853-29.667 140.918.14v29.135h29.134c29.816 42.066 29.865 98.86.14 140.92h-29.27l-.004 29.278c-42.06 29.72-98.85 29.667-140.916-.143z"/><path d="M113.143 100.086c-5.473 0-9.914 4.948-9.914 11.053v7.69c-2.276 2.428-2.965 9.23-2.965 12.82h25.452c0-3.588-.387-10.39-2.66-12.822v-7.69c0-6.1-4.44-11.052-9.914-11.052zm7.74 14.082c-.048 0-.09-.03-.136-.035-.126.373-.282.73-.462 1.077-1.33 2.596-4.024 4.378-7.144 4.378-2.705 0-5.084-1.347-6.54-3.396l-.003-.007c-.222-.31-.425-.636-.6-.98-.18-.342-.335-.7-.463-1.072-.043.005-.082.035-.134.035-.787 0-1.43-.856-1.43-1.917 0-.772.348-1.406.838-1.704.15.61.33.987.368.98-.133-.223 1.493-3.69 7.3-2.594 1.673.315 2.74-.697 3.312-2.058.075.02.143.043.223.062 3.854.908 4.847 4.452 4.732 4.587.034.012.2-.52.31-1.332.008.065.025.13.036.197.69.137 1.23.9 1.23 1.86-.003 1.065-.645 1.92-1.435 1.92z"/><path d="M116.52 109.787c-.85 0-1.537.692-1.537 1.54 0 .846.688 1.537 1.536 1.537.85 0 1.54-.69 1.54-1.538 0-.847-.69-1.537-1.54-1.54zM111.302 111.326c0-.847-.69-1.538-1.54-1.54-.85 0-1.54.693-1.54 1.54 0 .847.69 1.538 1.54 1.538.85 0 1.54-.69 1.54-1.538zM115.21 116.142c-.49.334-1.245.525-2.068.525-.825 0-1.582-.19-2.074-.525-.23-.153-.534-.125-.73.066-.198.193-.23.5-.08.73.515.79 1.62 1.28 2.882 1.28 1.265 0 2.368-.49 2.88-1.282.152-.23.118-.535-.08-.73-.195-.19-.5-.217-.73-.064zM162.244 127.178l-.28.604c-.514-.85-1.237-2.144-2.048-3.593-2.28-4.09-5.408-9.692-8.646-14.062l-.066-.084c-3.22-3.983-6.795-5.922-10.935-5.922-1.35 0-2.767.218-4.208.642-4.897 1.447-5.652 4.54-5.75 5.8-.19 2.43 1.677 7 6.684 9.367l.004 3.625c2.482-.667 5.532-2.002 5.778-3.994.2-1.647-.648-3.232-2.15-3.948-4.463-2.117-5.277-3.975-5.205-4.65.312-3.007 6.626-4.078 11.763 2.26 3.03 4.1 6.05 9.51 8.256 13.464.716 1.28 1.332 2.388 1.85 3.26l-14.664 31.64c-1.445-.39-2.706-.566-3.982-.566-.795 0-1.524.068-2.236.13-.78.07-1.585.143-2.62.143-.688 0-1.403-.03-2.19-.095-4.67-.38-12.165-4.027-15.592-5.966-1.693-1.244-1.85-2.05-1.537-3.703h-5.178c-.283 2.442.137 5.284 3.826 7.938l.113.083.12.068c1.098.624 10.923 6.12 17.83 6.688.928.075 1.78.11 2.61.11 1.266 0 2.23-.087 3.087-.162.646-.06 1.203-.107 1.77-.107.927 0 2.106.116 4.44.97l.5.2-.266.562 12.75 5.926 18.92-40.7-12.746-5.928z"/><path d="M134.615 141.698v-19.382l-1.38-.966c-1.474-.875-2.713-1.95-3.704-3.108v17.86H96.653V92.98h32.88v12.003c1.043-.873 2.45-1.668 4.35-2.227.245-.073.49-.14.733-.2V87.383c0-4.045-3.278-7.32-7.322-7.32h-28.4c-4.044 0-7.32 3.275-7.32 7.32v54.315c0 4.04 3.276 7.32 7.32 7.32h28.4c4.044 0 7.322-3.28 7.322-7.32zm-9.91-54.884c.867 0 1.57.702 1.57 1.57s-.703 1.57-1.57 1.57c-.866 0-1.57-.702-1.57-1.57s.704-1.57 1.57-1.57zm-18.406.294h13.587v2.564H106.3v-2.564zm6.792 56.27c-1.51 0-2.733-1.22-2.733-2.73s1.222-2.733 2.732-2.733c1.51 0 2.734 1.223 2.734 2.733s-1.225 2.73-2.734 2.73z"/></symbol><symbol id="shape-icon-simplicity" viewBox="0 0 254 254"><path d="M131.825 250.446l-.36-8.127c.864-.044 1.728-.09 2.586-.15l.555 8.118c-.922.065-1.848.117-2.78.158zm-13.872-.12c-.922-.065-1.842-.133-2.763-.213l.7-8.106c.86.074 1.726.136 2.594.196l-.53 8.124zm30.42-1.733l-1.442-8.01c.855-.156 1.705-.32 2.553-.49l1.615 7.977c-.906.185-1.813.36-2.726.523zm-46.917-.437c-.913-.18-1.823-.374-2.728-.575l1.786-7.94c.838.19 1.682.37 2.53.533l-1.588 7.983zm63.07-3.617l-2.502-7.746c.825-.265 1.645-.54 2.46-.828l2.676 7.688c-.873.3-1.753.6-2.634.885zm-79.16-.73c-.875-.31-1.748-.615-2.616-.935l2.81-7.64c.82.3 1.64.593 2.465.88l-2.66 7.694zm94.627-5.455l-3.523-7.34c.78-.37 1.557-.75 2.327-1.142l3.675 7.262c-.82.415-1.647.826-2.48 1.22zm-109.978-1.022c-.834-.418-1.66-.844-2.48-1.282l3.826-7.184c.762.41 1.53.804 2.303 1.19l-3.648 7.277zm124.472-7.164l-4.48-6.793c.727-.48 1.446-.965 2.162-1.456l4.607 6.71c-.756.518-1.52 1.03-2.29 1.54zm-138.828-1.3c-.766-.522-1.527-1.054-2.28-1.594l4.742-6.617c.705.508 1.413 1 2.13 1.492l-4.593 6.718zm152.097-8.736l-5.33-6.15c.653-.568 1.3-1.138 1.942-1.722l5.463 6.026c-.685.628-1.38 1.24-2.076 1.846zm-165.19-1.558c-.69-.62-1.374-1.246-2.05-1.887l5.584-5.92c.63.596 1.265 1.18 1.905 1.755l-5.437 6.05zm177.024-10.157l-6.103-5.383c.576-.653 1.144-1.31 1.706-1.97l6.208 5.26c-.594.7-1.198 1.398-1.81 2.092zM30.96 206.645c-.6-.7-1.19-1.415-1.774-2.13l6.307-5.14c.548.666 1.102 1.337 1.662 1.99l-6.194 5.28zm198.808-11.406l-6.764-4.522c.484-.726.96-1.452 1.43-2.185l6.855 4.388c-.5.782-1.006 1.55-1.52 2.32zM21.03 193.277c-.498-.775-.986-1.554-1.468-2.338l6.927-4.272c.455.744.917 1.48 1.386 2.21l-6.846 4.4zm217.067-12.45l-7.3-3.604c.382-.775.755-1.555 1.12-2.342l7.385 3.43c-.393.847-.796 1.684-1.205 2.517zm-225.118-2.11c-.395-.84-.777-1.68-1.15-2.53l7.45-3.277c.346.79.703 1.573 1.066 2.353l-7.367 3.454zm231.453-13.314l-7.72-2.578c.275-.82.54-1.646.8-2.482l7.774 2.405c-.277.89-.562 1.773-.854 2.655zm-237.488-2.2c-.278-.885-.545-1.77-.803-2.665l7.82-2.258c.24.84.49 1.663.748 2.485l-7.765 2.438zm241.688-13.93l-7.994-1.522c.16-.845.31-1.698.454-2.55l8.027 1.333c-.15.916-.313 1.828-.487 2.74zM3.046 147.005c-.154-.912-.3-1.826-.434-2.738l8.05-1.192c.13.858.264 1.72.41 2.57l-8.026 1.36zm247.59-14.26l-8.127-.436c.045-.867.083-1.735.11-2.604l8.134.264c-.03.928-.07 1.85-.12 2.774zM1.348 130.446c-.034-.925-.056-1.848-.07-2.776l8.14-.104c.01.865.032 1.728.063 2.59l-8.134.29zm240.972-13.71c-.066-.866-.146-1.73-.232-2.592l8.1-.806c.092.915.174 1.837.245 2.758l-8.113.638zm-232.37-2.14l-8.1-.78c.087-.93.187-1.844.297-2.766l8.078.965c-.1.858-.192 1.717-.275 2.58zm230.128-13.264c-.182-.842-.375-1.686-.574-2.52l7.915-1.897c.215.898.42 1.806.616 2.71l-7.956 1.707zm-227.6-2.088l-7.924-1.86c.213-.904.435-1.8.667-2.696l7.88 2.034c-.217.837-.425 1.675-.622 2.52zm223.31-12.863c-.295-.816-.598-1.627-.91-2.433l7.59-2.942c.333.866.66 1.733.974 2.61l-7.655 2.764zM17.047 84.356l-7.603-2.904c.332-.87.674-1.732 1.026-2.595l7.533 3.083c-.328.8-.646 1.606-.955 2.416zm212.48-12.227c-.398-.765-.808-1.527-1.22-2.28l7.127-3.926c.445.81.884 1.626 1.313 2.447l-7.22 3.76zM23.575 70.225l-7.14-3.904c.443-.812.896-1.616 1.355-2.416l7.06 4.047c-.432.754-.857 1.51-1.275 2.273zM221.427 58.85c-.5-.704-1.004-1.402-1.517-2.097l6.542-4.844c.55.747 1.09 1.5 1.624 2.253l-6.65 4.688zm-189.49-1.764l-6.56-4.817c.546-.748 1.104-1.488 1.668-2.22l6.453 4.958c-.527.684-1.048 1.378-1.562 2.078zm179.69-10.322c-.59-.635-1.188-1.26-1.79-1.886l5.85-5.658c.645.667 1.28 1.335 1.906 2.013l-5.966 5.53zM41.967 45.17L36.1 39.53c.644-.668 1.294-1.33 1.954-1.987l5.73 5.78c-.61.61-1.217 1.224-1.816 1.844zm158.345-9.087c-.67-.552-1.348-1.103-2.03-1.643l5.05-6.385c.722.57 1.438 1.155 2.15 1.742l-5.17 6.286zM53.48 34.7l-5.06-6.374c.725-.577 1.455-1.145 2.19-1.7l4.918 6.484c-.688.52-1.37 1.05-2.048 1.59zm134.194-7.715c-.74-.455-1.48-.912-2.232-1.356l4.155-7c.795.47 1.585.954 2.366 1.44l-4.29 6.915zM66.28 25.845l-4.175-6.986c.793-.474 1.59-.94 2.393-1.395l4.024 7.072c-.75.43-1.5.864-2.24 1.31zm107.652-6.193c-.79-.355-1.586-.704-2.383-1.043l3.165-7.5c.857.367 1.706.737 2.554 1.12l-3.338 7.422zm-93.8-.863L76.937 11.3c.846-.36 1.695-.714 2.55-1.06l3.038 7.55c-.802.323-1.6.658-2.395.997zm79.2-4.563c-.828-.25-1.66-.487-2.498-.715l2.142-7.853c.894.243 1.782.497 2.67.763l-2.314 7.804zm-64.524-.588l-2.17-7.842c.895-.25 1.794-.488 2.696-.716l1.974 7.895c-.836.21-1.67.434-2.5.662zm49.34-2.83c-.855-.14-1.713-.26-2.575-.377l1.082-8.063c.92.122 1.836.253 2.747.396l-1.253 8.043zm-34.09-.313l-1.11-8.064c.917-.123 1.84-.238 2.763-.346l.914 8.086c-.86.1-1.715.207-2.567.324zm18.587-1.055c-.863-.02-1.73-.032-2.6-.032l-.476.005V1.277l.406-.005c1.052.005 1.918.01 2.84.03l-.17 8.14z"/><path fill-rule="evenodd" clip-rule="evenodd" d="M124.933 68.766c-32.692 0-59.194 26.477-59.194 59.133 0 32.66 26.5 59.132 59.193 59.132 32.69 0 59.19-26.473 59.19-59.133 0-32.658-26.5-59.134-59.19-59.134zm.79 104.598c-25.136 0-45.514-20.355-45.514-45.466 0-25.112 20.376-45.466 45.513-45.466 25.135 0 45.513 20.354 45.513 45.466 0 25.11-20.38 45.466-45.513 45.466z"/><path d="M142.088 109.79l-17.144 17.142-17.167-17.17-12.265 12.264 29.432 29.433 29.41-29.408"/></symbol><symbol id="shape-icon-social" viewBox="0 0 254 254"><path d="M32.285 91.474l-12.693-4.792c-1.03 2.693-1.964 5.46-2.78 8.222l13.028 3.794c.716-2.424 1.54-4.86 2.445-7.224zM37.592 79.882L25.625 73.51c-1.374 2.546-2.66 5.176-3.827 7.806l12.43 5.434c1.022-2.314 2.156-4.627 3.364-6.868zM52.442 59.21l-9.948-9.182c-1.968 2.11-3.88 4.322-5.688 6.58l10.63 8.395c1.592-1.992 3.275-3.937 5.006-5.793zM44.35 69.077L33.305 61.23c-1.68 2.334-3.294 4.774-4.8 7.252l11.624 6.973c1.322-2.177 2.743-4.327 4.22-6.378zM28.527 103.622l-13.208-3.125c-.67 2.788-1.238 5.65-1.69 8.507l13.41 2.096c.4-2.508.898-5.027 1.487-7.478zM61.735 50.446l-8.708-10.352c-2.227 1.85-4.405 3.8-6.472 5.798l9.466 9.67c1.826-1.758 3.748-3.482 5.715-5.116zM33.95 165.927l-12.46 5.35c1.143 2.637 2.41 5.262 3.762 7.817l12.014-6.283c-1.192-2.25-2.307-4.568-3.315-6.883zM29.653 153.968l-13.05 3.71c.793 2.764 1.71 5.535 2.722 8.238l12.726-4.7c-.89-2.383-1.697-4.818-2.397-7.248zM39.76 177.243l-11.67 6.896c1.483 2.477 3.078 4.92 4.744 7.27l11.102-7.764c-1.466-2.07-2.87-4.227-4.175-6.403zM26.375 116.156l-13.502-1.42c-.302 2.858-.5 5.767-.58 8.65l13.57.386c.074-2.54.246-5.107.512-7.616zM26.94 141.545l-13.424 2.002c.43 2.848.978 5.715 1.63 8.53l13.23-3.037c-.574-2.472-1.057-4.997-1.435-7.495zM25.847 128.875l-13.574.29c.062 2.876.24 5.786.524 8.653l13.51-1.323c-.25-2.522-.407-5.09-.46-7.62zM215.03 81.802l12.102-6.12c-1.312-2.562-2.737-5.107-4.24-7.564l-11.602 7.016c1.325 2.166 2.585 4.406 3.74 6.668zM225.443 118.28l13.53-1.128c-.245-2.883-.603-5.777-1.063-8.607l-13.4 2.156c.404 2.488.72 5.04.933 7.58zM208.52 70.865l11.218-7.6c-1.63-2.378-3.375-4.723-5.186-6.97l-10.6 8.43c1.59 1.976 3.13 4.042 4.57 6.14zM200.652 60.834l10.152-8.96c-1.922-2.156-3.95-4.26-6.035-6.256l-9.44 9.698c1.84 1.76 3.63 3.62 5.322 5.518zM220.074 93.47l12.792-4.517c-.97-2.708-2.058-5.418-3.233-8.047l-12.406 5.48c1.04 2.32 1.996 4.702 2.847 7.084zM46.987 187.732L36.3 196.055c1.79 2.27 3.685 4.496 5.633 6.614l10.02-9.104c-1.716-1.87-3.388-3.832-4.966-5.834zM223.562 105.7l13.272-2.842c-.614-2.826-1.343-5.655-2.166-8.402l-13.013 3.853c.728 2.413 1.368 4.9 1.907 7.39zM162.932 20.06c-2.733-.937-5.545-1.78-8.353-2.514l-3.434 13.056c2.475.643 4.95 1.386 7.355 2.213l4.432-12.754zM72.06 42.93l-7.306-11.37c-2.447 1.556-4.857 3.216-7.165 4.94l8.155 10.783c2.035-1.517 4.16-2.983 6.316-4.353zM83.254 36.805l-5.778-12.212c-2.616 1.223-5.22 2.567-7.743 3.99l6.707 11.733c2.22-1.255 4.513-2.436 6.814-3.51zM191.564 51.875l8.914-10.178c-2.194-1.903-4.478-3.73-6.783-5.444l-8.118 10.815c2.03 1.507 4.045 3.124 5.987 4.807zM181.396 44.13l7.55-11.215c-2.408-1.597-4.906-3.13-7.435-4.543l-6.67 11.754c2.23 1.25 4.435 2.593 6.556 4.005zM176.36 25.657c-2.6-1.286-5.278-2.482-7.968-3.563l-5.09 12.507c2.366.955 4.725 2.01 7.01 3.138l6.05-12.08zM150.115 222.957l3.265 13.098c2.794-.686 5.62-1.502 8.394-2.425l-4.297-12.797c-2.438.806-4.915 1.522-7.362 2.124zM55.504 197.23l-9.538 9.602c2.068 2.03 4.234 4.003 6.437 5.854l8.774-10.295c-1.94-1.634-3.85-3.37-5.673-5.16zM194.512 198.77l9.323 9.81c2.106-1.98 4.163-4.063 6.108-6.192l-10.053-9.07c-1.713 1.87-3.523 3.707-5.378 5.452zM203.24 189.45l10.5 8.55c1.838-2.225 3.607-4.555 5.27-6.915l-11.13-7.728c-1.462 2.082-3.023 4.132-4.64 6.092zM162.293 219.093l4.95 12.565c2.694-1.05 5.382-2.213 7.99-3.47l-5.908-12.147c-2.296 1.103-4.66 2.13-7.032 3.053zM173.87 213.716l6.528 11.828c2.533-1.38 5.053-2.878 7.48-4.46l-7.427-11.294c-2.136 1.392-4.348 2.71-6.58 3.926zM210.705 179.11l11.516 7.145c1.54-2.445 2.998-4.98 4.34-7.53l-12.038-6.24c-1.178 2.24-2.46 4.468-3.817 6.624zM224.332 143.652l13.377 2.3c.493-2.832.88-5.726 1.15-8.603l-13.515-1.267c-.24 2.537-.58 5.082-1.013 7.57zM239.31 122.917l-13.57.443c.034 1.09.056 2.183.053 3.288 0 1.46-.03 2.91-.092 4.36l13.564.575c.068-1.642.104-3.278.104-4.923.002-1.254-.018-2.497-.06-3.743zM138.59 28.192c2.527.316 5.076.738 7.577 1.25l2.742-13.214c-2.842-.58-5.737-1.06-8.607-1.423l-1.713 13.387zM221.35 156.014l12.967 3.988c.855-2.75 1.617-5.57 2.26-8.38l-13.24-2.983c-.57 2.47-1.235 4.954-1.987 7.374zM216.78 167.902l12.34 5.63c1.205-2.62 2.325-5.316 3.33-8.037l-12.747-4.65c-.88 2.387-1.864 4.76-2.924 7.057zM184.67 206.896l7.99 10.91c2.344-1.697 4.648-3.506 6.852-5.37l-8.81-10.264c-1.94 1.646-3.972 3.232-6.033 4.724zM137.52 225.234l1.568 13.402c2.874-.332 5.773-.78 8.618-1.328l-2.597-13.246c-2.506.487-5.06.88-7.59 1.172zM82.092 230.752c2.69 1.112 5.443 2.13 8.183 3.025l4.243-12.818c-2.412-.793-4.838-1.69-7.21-2.667l-5.216 12.46zM82.793 22.27l5.14 12.485c2.36-.96 4.79-1.84 7.214-2.614l-4.155-12.844c-2.756.88-5.515 1.876-8.2 2.973zM65.167 205.583l-8.223 10.737c2.326 1.76 4.725 3.438 7.13 4.986l7.385-11.322c-2.12-1.37-4.238-2.845-6.293-4.4zM75.832 212.643l-6.79 11.687c2.512 1.442 5.11 2.803 7.724 4.047l5.864-12.17c-2.3-1.094-4.586-2.295-6.798-3.564zM95.854 235.443c2.8.752 5.657 1.41 8.498 1.95l2.55-13.25c-2.5-.478-5.02-1.057-7.485-1.72l-3.563 13.02zM125.363 13.893v13.493h.445c2.574 0 5.157.1 7.678.29l1.035-13.456c-2.86-.216-5.796-.327-8.712-.327h-.445zM125.808 225.913l-1.108-.004-.093 13.49 1.2.006c2.492 0 5.01-.084 7.487-.24l-.88-13.47c-2.185.144-4.41.217-6.606.217zM96.58 17.667l3.48 13.04c2.457-.643 4.98-1.207 7.494-1.666l-2.46-13.27c-2.857.522-5.72 1.16-8.515 1.897zM110.838 14.87l1.777 13.376c2.52-.333 5.095-.57 7.652-.712l-.745-13.473c-2.9.16-5.82.434-8.684.81zM110.09 238.33c2.87.397 5.793.688 8.685.86l.822-13.466c-2.542-.154-5.113-.406-7.64-.76l-1.867 13.367z"/><path d="M125.808 4C57.69 4 2.274 59.02 2.274 126.65c0 67.627 55.416 122.65 123.533 122.65S249.34 194.278 249.34 126.65C249.34 59.02 193.925 4 125.808 4zm0 239.902c-65.122 0-118.103-52.598-118.103-117.253 0-64.656 52.98-117.253 118.103-117.253 65.122 0 118.1 52.597 118.1 117.252 0 64.657-52.978 117.252-118.1 117.252z"/><path d="M176.282 119.285c-3.375-8.137-9.748-12.27-18.953-12.27h-11.04c1.868-4.19 3.946-10.27 3.946-17.597 0-2.004-.16-4.088-.54-6.207-1.453-8.51-7.304-13.04-15.61-12.133-3.29.377-4.42 3.48-7.15 11.01-2.263 6.238-5.364 14.788-9.86 21.653-3.307 5.054-9.198 9.038-14.146 11.492v-.624H66.516v53.77h36.42v-2.957c5.735-.282 8.996-.12 9.758.128l6.52 3.764 4.875 3.02c4.728 2.533 25.428 2.776 34.306 1.466 11.41-1.65 14.168-10.95 14.28-11.352.9-3.082 8.755-30.743 3.606-43.16zm-10.482 41.21c-.068.204-1.723 5.298-8.443 6.254-9.55 1.41-27.264.553-29.897-.694.025.02-4.318-2.688-4.318-2.688l-8.185-4.573c-1.9-.634-6.208-.703-12.02-.446v-35.422c5.87-2.356 14.955-7.422 20.138-15.3 4.956-7.564 8.22-16.557 10.605-23.136 0 0 2.097-5.196 2.606-6.4 3.626.02 5.627 2.005 6.373 6.298.295 1.682.41 3.35.41 4.966 0 10.655-5.507 19.142-5.588 19.242l-3.63 5.5 23.478.013c6.275 0 10.073 2.432 12.335 7.883 3.562 8.583-1.608 30.71-3.865 38.502z"/></symbol><symbol id="shape-icon-storage" viewBox="0 0 254 254"><path d="M126.974 253l-.01-5.508c7.384-.017 14.783-.707 21.985-2.057l1.013 5.412c-7.532 1.413-15.267 2.136-22.99 2.153zm-22.997-2.06c-7.57-1.386-15.052-3.49-22.235-6.247l1.976-5.142c6.865 2.64 14.015 4.65 21.25 5.974l-.99 5.416zm68.196-6.437l-2-5.13c6.85-2.67 13.494-5.99 19.743-9.875l2.91 4.673c-6.542 4.068-13.488 7.546-20.653 10.333zM61.04 234.445c-6.545-4.034-12.76-8.7-18.468-13.87l3.697-4.083c5.46 4.945 11.4 9.405 17.658 13.264l-2.89 4.69zm150.19-14.217l-3.712-4.066c5.432-4.965 10.434-10.457 14.87-16.33l4.396 3.32c-4.637 6.14-9.868 11.882-15.555 17.076zM26.954 203.563c-4.67-6.133-8.79-12.72-12.24-19.584l4.92-2.474c3.298 6.56 7.235 12.856 11.7 18.718l-4.38 3.34zm211.988-20.05l-4.926-2.46c3.28-6.587 5.96-13.515 7.96-20.59l5.3 1.5c-2.094 7.404-4.896 14.65-8.334 21.55zM6.293 162.47c-2.122-7.38-3.568-15.014-4.297-22.692l5.483-.518c.696 7.338 2.077 14.635 4.105 21.688l-5.293 1.522zm245.183-23.214l-5.486-.497c.33-3.6.495-7.272.495-10.918-.002-3.732-.177-7.486-.517-11.166l5.483-.508c.36 3.846.54 7.775.54 11.674 0 3.813-.173 7.653-.514 11.414zM7.41 117.176l-5.484-.486c.68-7.686 2.078-15.33 4.152-22.72l5.303 1.49c-1.983 7.06-3.318 14.37-3.97 21.716zm234.5-22.198c-2.013-7.064-4.708-13.986-8.005-20.57l4.926-2.467c3.448 6.89 6.268 14.135 8.374 21.527l-5.293 1.51zM19.3 74.852l-4.936-2.444c3.41-6.884 7.486-13.5 12.12-19.664l4.403 3.31c-4.43 5.893-8.328 12.218-11.588 18.798zm202.94-19.19c-4.442-5.86-9.46-11.345-14.9-16.298l3.704-4.073c5.693 5.182 10.938 10.915 15.586 17.044l-4.39 3.33zM45.725 39.698L42 35.637c5.676-5.208 11.86-9.912 18.38-13.984l2.916 4.67c-6.233 3.895-12.146 8.393-17.572 13.374zm143.98-13.634c-6.264-3.878-12.916-7.188-19.767-9.838l1.988-5.137c7.166 2.772 14.123 6.235 20.68 10.29l-2.9 4.685zM83.02 16.406l-2.01-5.128c7.165-2.806 14.633-4.956 22.196-6.39l1.027 5.41c-7.23 1.37-14.365 3.426-21.212 6.108zm65.683-6.2c-7.198-1.335-14.596-2.01-21.987-2.01h-.49l-.044-5.508h.555c7.706 0 15.44.708 22.97 2.103l-1.004 5.416zM124.656 120c-2.866 0-5.195-2.326-5.195-5.198 0-2.87 2.33-5.196 5.196-5.196 2.873 0 5.198 2.327 5.198 5.196 0 2.872-2.326 5.198-5.198 5.198zm46.06-46.553v114.3c0 1.253-1.017 2.273-2.27 2.273H80.868c-1.253 0-2.272-1.017-2.272-2.272v-114.3c0-1.255 1.02-2.273 2.272-2.273h87.578c1.253 0 2.27 1.018 2.27 2.272zm-88.336 7c0 2.927 2.374 5.3 5.3 5.3s5.297-2.373 5.297-5.3c0-2.924-2.372-5.298-5.298-5.298-2.93 0-5.3 2.372-5.3 5.298zm10.598 99.92c0-2.927-2.372-5.3-5.298-5.3s-5.3 2.373-5.3 5.3c0 2.928 2.375 5.3 5.3 5.3s5.298-2.372 5.298-5.3zm1.828-17.22c4.076 0 7.38-3.306 7.38-7.382 0-4.073-3.304-7.38-7.38-7.38-4.077 0-7.38 3.307-7.38 7.38 0 4.077 3.303 7.382 7.38 7.382zm55.37 13.44H99.034v8.323h51.142v-8.324zm1.726-5.208c2.877 0 5.587-1.125 7.625-3.157 4.2-4.206 4.206-11.05 0-15.26-.617-.615-1.32-1.16-2.09-1.62l-12.635-9.56c8.44-6.196 13.92-16.188 13.92-27.46 0-18.813-15.25-34.063-34.065-34.063-18.81 0-34.063 15.25-34.063 34.063 0 18.812 15.25 34.063 34.06 34.063 1.878 0 3.718-.156 5.51-.45l12.082 17.454c.524 1.056 1.205 2.01 2.028 2.832 2.038 2.036 4.746 3.157 7.628 3.157zm16.017 8.988c0-2.928-2.375-5.3-5.303-5.3s-5.3 2.372-5.3 5.3c0 2.927 2.372 5.3 5.3 5.3s5.302-2.373 5.302-5.3zm0-99.92c0-2.925-2.375-5.3-5.303-5.3s-5.3 2.375-5.3 5.3c0 2.926 2.372 5.3 5.3 5.3s5.302-2.374 5.302-5.3zm-39.537 63.63c.15.213.173.487.063.722-.108.233-.33.393-.587.423-1.065.106-2.14.164-3.203.164-16.862 0-30.583-13.72-30.583-30.584 0-16.86 13.72-30.584 30.58-30.584 16.867 0 30.584 13.722 30.584 30.583 0 10.038-4.94 19.447-13.212 25.167-.26.183-.605.174-.858-.017l-19.517-14.77c-.087-.066-.18-.114-.27-.166-.157-.088-.27-.225-.328-.38-.108.052-.226.093-.35.082-.048-.006-.102-.006-.157-.014-.854-.17-1.742.09-2.36.684-.952.914-1.1 2.368-.348 3.452l10.546 15.236zm-6.448-20.407c.88.273 1.8.41 2.72.41 5.116 0 9.275-4.16 9.275-9.272 0-5.115-4.16-9.275-9.274-9.275-5.112 0-9.272 4.16-9.272 9.275 0 3.665 2.157 6.98 5.502 8.47.234.054.425.22.51.444.103-.055.216-.08.332-.08.066 0 .136.007.207.03zm4.528 20.198l-9.826-14.196c-1.165-1.677-.936-3.924.537-5.34.36-.344.775-.615 1.222-.81-2.773-1.986-4.476-5.212-4.476-8.714 0-5.922 4.814-10.738 10.736-10.738 5.92 0 10.735 4.815 10.735 10.738 0 5.918-4.813 10.732-10.734 10.732h-.113l17.084 12.924c7.618-5.473 12.152-14.277 12.152-23.662 0-16.057-13.064-29.12-29.123-29.12-16.056 0-29.12 13.063-29.12 29.12s13.064 29.124 29.12 29.124c.6 0 1.203-.02 1.806-.058zm30.94 11.774c-.478-.48-1.015-.874-1.58-1.19l-35.502-26.865 25.164 36.356c.357.772.847 1.5 1.483 2.14 2.88 2.88 7.555 2.88 10.438 0 2.88-2.888 2.88-7.558 0-10.44zm-62.597-4.593c-2.608 0-4.717 2.11-4.717 4.716 0 2.608 2.108 4.72 4.716 4.72 2.605 0 4.716-2.11 4.716-4.72 0-2.606-2.113-4.717-4.716-4.717z"/></symbol><symbol id="shape-icon-twitter" viewBox="0 0 612 612"><path d="M612 116.258c-22.525 9.98-46.694 16.75-72.088 19.772 25.93-15.527 45.777-40.155 55.184-69.41-24.322 14.378-51.17 24.82-79.775 30.48-22.906-24.438-55.49-39.66-91.63-39.66-69.333 0-125.55 56.218-125.55 125.514 0 9.828 1.11 19.427 3.25 28.606-104.325-5.24-196.834-55.223-258.75-131.174-10.822 18.51-16.98 40.078-16.98 63.1 0 43.56 22.182 81.994 55.836 104.48-20.575-.688-39.926-6.348-56.867-15.756v1.568c0 60.806 43.29 111.554 100.692 123.104-10.517 2.83-21.607 4.398-33.08 4.398-8.107 0-15.947-.803-23.634-2.333 15.985 49.907 62.336 86.2 117.253 87.194-42.946 33.655-97.098 53.656-155.915 53.656-10.134 0-20.116-.612-29.944-1.72 55.568 35.68 121.537 56.484 192.44 56.484 230.947 0 357.187-191.29 357.187-357.188l-.42-16.253C573.87 163.525 595.21 141.42 612 116.257z"/></symbol></svg>