<svg xmlns="http://www.w3.org/2000/svg"><defs><linearGradient id="shape-icon-forfait-byou-a" gradientUnits="userSpaceOnUse" x1="756.709" y1="-247.54" x2="756.709" y2="-172.528" gradientTransform="matrix(1 0 0 -1 -256 -170.5)"><stop offset=".5" stop-color="#008356"/><stop offset="1" stop-color="#00AAA0"/></linearGradient><linearGradient id="shape-icon-forfait-byou-b" gradientUnits="userSpaceOnUse" x1="688.461" y1="-247.54" x2="688.461" y2="-172.528" gradientTransform="matrix(1 0 0 -1 -256 -170.5)"><stop offset=".178" stop-color="#007B9B"/><stop offset="1" stop-color="#37BDE9"/></linearGradient><linearGradient id="shape-icon-forfait-byou-c" gradientUnits="userSpaceOnUse" x1="610.415" y1="-247.511" x2="610.415" y2="-172.5" gradientTransform="matrix(1 0 0 -1 -256 -170.5)"><stop offset=".5" stop-color="#0079BF"/><stop offset="1" stop-color="#73CAEE"/></linearGradient><linearGradient id="shape-icon-forfait-byou-d" gradientUnits="userSpaceOnUse" x1="827.031" y1="-247.54" x2="827.031" y2="-172.65" gradientTransform="matrix(1 0 0 -1 -256 -170.5)"><stop offset=".546" stop-color="#008F30"/><stop offset="1" stop-color="#A6C859"/></linearGradient><linearGradient id="shape-icon-logo-bandyou-a" gradientUnits="userSpaceOnUse" x1="219.175" y1="104.028" x2="219.175" y2="11.559"><stop offset=".5" stop-color="#009266"/><stop offset="1" stop-color="#00B6AA"/></linearGradient><linearGradient id="shape-icon-logo-bandyou-b" gradientUnits="userSpaceOnUse" x1="135.044" y1="104.028" x2="135.044" y2="11.559"><stop offset=".178" stop-color="#0084A3"/><stop offset="1" stop-color="#00C2F3"/></linearGradient><linearGradient id="shape-icon-logo-bandyou-c" gradientUnits="userSpaceOnUse" x1="38.834" y1="103.993" x2="38.834" y2="11.523"><stop offset=".5" stop-color="#0081C8"/><stop offset="1" stop-color="#5BCBF5"/></linearGradient><linearGradient id="shape-icon-logo-bandyou-d" gradientUnits="userSpaceOnUse" x1="305.863" y1="104.028" x2="305.863" y2="11.71"><stop offset=".546" stop-color="#0D9C4A"/><stop offset="1" stop-color="#9BCD6A"/></linearGradient></defs><symbol id="shape-icon-btv" viewBox="-4.859 -4.797 512 512"><path d="M502.256 474.35c0 15.41-12.493 27.903-27.9 27.903H27.902C12.493 502.253 0 489.76 0 474.35V27.902C0 12.493 12.494 0 27.903 0h446.45c15.41 0 27.902 12.494 27.902 27.903V474.35z"/><path fill="#FFF" d="M354.723 372.96H153.938c-3.353 0-6.07 2.717-6.07 6.057 0 3.352 2.718 6.062 6.07 6.062h200.785c3.345 0 6.056-2.71 6.056-6.063-.002-3.34-2.713-6.058-6.057-6.058zM447.95 117.18H60.696c-4.455 0-8.08 3.623-8.08 8.078V352.76c0 4.47 3.625 8.08 8.08 8.08H447.95c4.468 0 8.078-3.61 8.078-8.08V125.257c0-4.454-3.61-8.078-8.08-8.078zm-4.04 231.542H64.737V129.297H443.91v219.425z"/><path fill="#FFF" d="M159.23 240.89h-26.445v25.4c0 9.9.28 15.506 3.052 18.463 2.644 2.807 7.814 3.08 23.522 3.08 18.386 0 28.897-8.29 28.897-23.27 0-13.707-8.283-23.673-29.027-23.673zM176.745 205.888c0-14.06-13.5-17.18-24.13-17.18h-19.83v35.723h21.717c10.594.002 22.243-6 22.243-18.542z"/><path fill="#FFF" d="M431.757 141.417h-354.9v195.187h354.9V141.417zM155.497 304.9c-23.63 0-30.838-2.4-35.56-7.442-4.72-5.033-6.737-12.92-6.737-24.31v-66.64-34.252h43.788c24.307 0 38.327 13.31 38.327 34.027 0 8.196-4.06 16.582-10.464 22.78 16.017 5.88 23.265 19.042 23.265 34.28 0 24.68-18.01 41.556-52.617 41.556zm69.418.038c-7.072 0-12.8-5.708-12.82-12.765-.014-7.05 5.7-12.795 12.765-12.81 7.058-.013 12.8 5.697 12.807 12.762.014 7.057-5.702 12.792-12.752 12.813zm20.165-36.09v-77.565h18.76v23.863h31.507v15.757H263.84v33.918c-.048 20.78 12.657 27.864 32.223 21.344l4.196 15.704c-37.625 10.182-55.222-5.704-55.18-33.02zm132.88 12.928c-3.522 13.857-11.063 23.162-26.698 23.162-16.016 0-21.88-8.078-26.432-23.162-6.703-22.22-20.545-66.712-20.545-66.712h20.654s14.645 48.606 20.156 65.386c1.403 4.265 2.528 7.355 6.833 7.355 4.318 0 5.892-2.063 7.186-7.355 5.873-23.755 16.807-65.386 16.807-65.386h19.517s-11.846 44.49-17.48 66.712z"/></symbol><symbol id="shape-icon-canalplus-channel-black" viewBox="343.944 266.307 154.833 63.833"><path fill="#FFDC2E" d="M487.693 287.49l1.4 15.9 8.9-1.5-5.3-30.6-24.8 4.4 2.3 13.4"/><path fill="#4CC8F2" d="M371.197 297.69l-.8-4.8 97.496-17.2-1-5.3-122.296 21.5 5.4 30.6 15.8-2.8-1.8-21.3"/><path fill="#D3E07A" d="M375.796 323.39l-1-5.3-9 1.6.9 9.6 123.696-10.8-1.3-15.1"/><path fill="#FCB731" d="M470.193 289.09l2.1 11.8-97.497 17.2 1 5.3 113.296-20-1.4-15.9"/><path fill="#0096D7" d="M470.193 289.09l-2.3-13.4-97.496 17.2.8 4.8-7.2.7 1.8 21.3 9-1.6 97.496-17.2"/><path d="M352.897 280.89h124.196v31H352.897z"/><path fill="#FFF" d="M372.496 304.59c0 .2-.1.4-.1.4s-.1.1-.3.2c-2.5 1-5.3.7-5.3.7-4.5-.5-7.4-3.3-8.3-6.9-1.4-5.4 1.3-9.2 2-10 1.6-1.9 4.1-3.3 6.5-3.6 3.1-.4 5.4.3 6.4.6 0 0 1 .3 1.8.9.398.3.398.4.398.4l-.1.5-.7 3.8c0 .2-.1.2-.1.2s-.1 0-.4-.2c-2.4-1.7-5.1-1.5-5.1-1.5-2.1.1-4.5 1.2-5.3 4-.7 2.5 0 4.5 1.5 5.8 1 .9 2.5 1.3 4.2 1.2 1.8-.1 3.2-.8 3.1-.8h.2l.4-.2s.1.1 0 .3l-.798 4.2zm13.4-13l-2.7 6c-.1.1 0 .1 0 .1h4.1v-.1l-1.4-6c.1 0 0 0 0 0m43.5-.1s-.102 0 0 0l-2.7 6c-.102.2 0 .2 0 .2l.1.1h3.9v-.1l-1.3-6.2m-35.5 13.8h-4.9v-.2l-.7-3c0-.1-.1-.1-.1-.1H381.496c-.1 0-.2.1-.2.1s-.1.1-.2.3l-1.3 2.8-.1.1s-.1.1-.2.1h-5.4c-.1 0-.2-.1-.2-.1v-.2l9.4-18.898.1-.1h6.2c.1 0 .2.1.2.1l.1.1 4 18.9c.1-.002.1.098 0 .098.1 0 0 0 0 0m20.9 0h-4.902l-.1-.1-6.6-11.8-.1-.1s-.1 0-.1.1l-1.602 11.6c0 .1-.1.2-.1.2H396.392c-.1 0-.1-.1-.1-.1s-.1-.1-.1-.2l2.6-18.8c0-.1.1-.1.1-.1s.1-.1.2-.1h5.3c.1 0 .1.1.1.1s.1 0 .1.1l6 10.5c.1.2.2.2.2.2s.1 0 .1-.2l1.5-10.5c0-.1.1-.1.1-.1s0-.1.1-.1l5 .1h.1v.1l-2.7 18.9c0 .1-.1.2-.1.2s.102.1-.097.1m22.4.1h-4.8c-.1.1-.2-.1-.2-.1l-.1-.2-.6-3c0-.2-.102-.2-.102-.2s-.1-.1-.3-.1h-6.1c-.1 0-.2.1-.2.1s-.1.1-.2.3l-1.4 3c0 .1-.1.1-.1.1H417.493c-.1 0-.2-.1-.2-.1s0-.1.102-.2l9.5-19 .1-.1H433.095c.1 0 .2.1.2.1v.1l3.9 19.3c.1-.1.1-.1 0 0 .1-.1.1 0 0 0m13.798-.3c0 .2-.1.2-.1.2s0 .1-.2.1h-10.7c-.3 0-.4-.1-.4-.1s-.1-.1 0-.3l2.7-18.6c0-.2.1-.3.1-.3h5.4v.2l-2 14.5c0 .2.1.2.1.2h5.6c.102 0 .2.1.2.1v.2l-.7 3.8zm20.7-7.4s0 .1-.1.1h-6.7c-.1 0-.2.1-.2.1s-.1 0-.1.2v7.1c0 .1-.1.1-.1.1H458.993v-7.3c0-.1-.102-.1-.102-.1s0-.1-.1-.1h-7s-.1-.1-.1-.2v-5.2c0-.1.1-.1.1-.1h7.202s.1 0 .1-.1v-6.3-.1h5.5s.1.1.1.2v6.3h7s.1 0 .1.2v5.3c0-.1-.1-.1-.1-.1"/><path d="M353.497 276.19v-8.9h2.3v7h2.8v1.9M359.597 276.19v-8.9h5.1v2h-2.8v1.4h2.6v2h-2.6v1.6h2.8v1.9M372.296 273.29c0 .7-.1 1.2-.3 1.602-.3.5-.7.9-1.3 1.2-.5.2-1.1.4-1.8.4s-1.3-.102-2-.4c-.3-.1-.6-.3-.8-.4-.1-.1-.2-.1-.3-.2l1-1.9c.7.6 1.4.9 2 .9.3 0 .6-.1.8-.2.2-.2.3-.4.3-.7 0-.2-.1-.5-.4-.6-.1-.1-.3-.2-.5-.2-.1 0-.2-.1-.5-.1l-.5-.1c-.3-.1-.6-.2-.9-.4-.7-.4-1-1-1-2 0-.9.3-1.6.8-2.2.6-.6 1.3-.8 2.2-.8 1 0 1.9.2 2.8.7l-.9 1.8c-.5-.4-1-.6-1.5-.6-.3 0-.5.1-.7.2-.198.1-.3.3-.3.6 0 .2.2.5.5.6.102 0 .5.2 1.102.4.7.2 1.3.5 1.6.9.398.3.598.8.598 1.5M382.596 275.79c0 .1-.1.2-.3.3-.6.2-1.2.3-1.8.3-.8 0-1.6-.198-2.4-.6-1.5-.8-2.4-2.3-2.4-4 0-1 .3-1.8.8-2.6s1.2-1.4 2.1-1.7c.602-.3 1.2-.398 1.8-.398.4 0 .9.1 1.4.2.2 0 .3.1.4.1l.1.1c.1 0 .2.1.2.2v2.3c0 .1 0 .1-.1.1l-.1-.1c-.2-.2-.4-.3-.8-.4-.4-.1-.7-.2-1-.2-1 0-1.9.5-2.3 1.5-.1.3-.2.6-.2 1 0 .7.3 1.2.7 1.7.5.4 1 .6 1.7.6.8 0 1.4-.2 1.8-.7l.1-.1s.1.1.1.2v2.2h.2zM389.696 276.19v-3.7h-3.4v3.7h-2.3v-8.9h2.3v3.4h3.4v-3.4h2.3v8.9M399.395 276.19l-.6-1.5h-3.2l-.6 1.5h-2.4l3.4-8.9h2.5l3.4 8.9h-2.5zm-2.2-6.098l-1 2.8h1.9l-.9-2.8zM402.495 267.29h2.3v8.9h-2.3zM413.295 276.19l-4.3-5.4v5.4h-2.3v-8.9h2.3l4.3 5.5v-5.5h2.3v8.9M417.295 276.19v-8.9h5v2h-2.7v1.4h2.6v2h-2.6v1.6h2.7v1.9M429.794 273.29c0 .7-.1 1.2-.3 1.602-.3.5-.7.9-1.3 1.2-.5.2-1.1.4-1.8.4s-1.3-.102-2-.4c-.3-.1-.6-.3-.8-.4-.1-.1-.2-.1-.3-.2l1-1.9c.7.6 1.4.9 2 .9.3 0 .6-.1.8-.2.2-.2.3-.4.3-.7 0-.2-.1-.5-.4-.6-.1-.1-.3-.2-.5-.2-.1 0-.2-.1-.5-.1l-.5-.1c-.3-.1-.6-.2-.9-.4-.7-.4-1-1-1-2 0-.9.3-1.6.8-2.2.6-.6 1.3-.8 2.2-.8 1 0 1.9.2 2.8.7l-.9 1.8c-.5-.4-1-.6-1.5-.6-.2 0-.5.1-.7.2-.2.1-.3.3-.3.6 0 .2.2.5.5.6.1 0 .5.2 1.1.4.7.2 1.302.5 1.602.9.398.3.598.8.598 1.5"/></symbol><symbol id="shape-icon-canalplus-channel-white" viewBox="343.778 265.973 154.832 63.834"><path fill="#FFDC2E" d="M487.693 287.49l1.4 15.9 8.9-1.5-5.3-30.6-24.8 4.4 2.3 13.4"/><path fill="#4CC8F2" d="M371.197 297.69l-.8-4.8 97.496-17.2-1-5.3-122.296 21.5 5.4 30.6 15.8-2.8-1.8-21.3"/><path fill="#D3E07A" d="M375.796 323.39l-1-5.3-9 1.6.9 9.6 123.696-10.8-1.3-15.1"/><path fill="#FCB731" d="M470.193 289.09l2.1 11.8-97.497 17.2 1 5.3 113.296-20-1.4-15.9"/><path fill="#0096D7" d="M470.193 289.09l-2.3-13.4-97.496 17.2.8 4.8-7.2.7 1.8 21.3 9-1.6 97.496-17.2"/><path d="M352.897 280.89h124.196v31H352.897z"/><path fill="#FFF" d="M372.496 304.59c0 .2-.1.4-.1.4s-.1.1-.3.2c-2.5 1-5.3.7-5.3.7-4.5-.5-7.4-3.3-8.3-6.9-1.4-5.4 1.3-9.2 2-10 1.6-1.9 4.1-3.3 6.5-3.6 3.1-.4 5.4.3 6.4.6 0 0 1 .3 1.8.9.398.3.398.4.398.4l-.1.5-.7 3.8c0 .2-.1.2-.1.2s-.1 0-.4-.2c-2.4-1.7-5.1-1.5-5.1-1.5-2.1.1-4.5 1.2-5.3 4-.7 2.5 0 4.5 1.5 5.8 1 .9 2.5 1.3 4.2 1.2 1.8-.1 3.2-.8 3.1-.8h.2l.4-.2s.1.1 0 .3l-.798 4.2zm13.4-13l-2.7 6c-.1.1 0 .1 0 .1h4.1v-.1l-1.4-6c.1 0 0 0 0 0m43.5-.1s-.102 0 0 0l-2.7 6c-.102.2 0 .2 0 .2l.1.1h3.9v-.1l-1.3-6.2m-35.5 13.8h-4.9v-.2l-.7-3c0-.1-.1-.1-.1-.1H381.496c-.1 0-.2.1-.2.1s-.1.1-.2.3l-1.3 2.8-.1.1s-.1.1-.2.1h-5.4c-.1 0-.2-.1-.2-.1v-.2l9.4-18.898.1-.1h6.2c.1 0 .2.1.2.1l.1.1 4 18.9c.1-.002.1.098 0 .098.1 0 0 0 0 0m20.9 0h-4.902l-.1-.1-6.6-11.8-.1-.1s-.1 0-.1.1l-1.602 11.6c0 .1-.1.2-.1.2H396.392c-.1 0-.1-.1-.1-.1s-.1-.1-.1-.2l2.6-18.8c0-.1.1-.1.1-.1s.1-.1.2-.1h5.3c.1 0 .1.1.1.1s.1 0 .1.1l6 10.5c.1.2.2.2.2.2s.1 0 .1-.2l1.5-10.5c0-.1.1-.1.1-.1s0-.1.1-.1l5 .1h.1v.1l-2.7 18.9c0 .1-.1.2-.1.2s.102.1-.097.1m22.4.1h-4.8c-.1.1-.2-.1-.2-.1l-.1-.2-.6-3c0-.2-.102-.2-.102-.2s-.1-.1-.3-.1h-6.1c-.1 0-.2.1-.2.1s-.1.1-.2.3l-1.4 3c0 .1-.1.1-.1.1H417.493c-.1 0-.2-.1-.2-.1s0-.1.102-.2l9.5-19 .1-.1H433.095c.1 0 .2.1.2.1v.1l3.9 19.3c.1-.1.1-.1 0 0 .1-.1.1 0 0 0m13.798-.3c0 .2-.1.2-.1.2s0 .1-.2.1h-10.7c-.3 0-.4-.1-.4-.1s-.1-.1 0-.3l2.7-18.6c0-.2.1-.3.1-.3h5.4v.2l-2 14.5c0 .2.1.2.1.2h5.6c.102 0 .2.1.2.1v.2l-.7 3.8zm20.7-7.4s0 .1-.1.1h-6.7c-.1 0-.2.1-.2.1s-.1 0-.1.2v7.1c0 .1-.1.1-.1.1H458.993v-7.3c0-.1-.102-.1-.102-.1s0-.1-.1-.1h-7s-.1-.1-.1-.2v-5.2c0-.1.1-.1.1-.1h7.202s.1 0 .1-.1v-6.3-.1h5.5s.1.1.1.2v6.3h7s.1 0 .1.2v5.3c0-.1-.1-.1-.1-.1M353.497 276.19v-8.9h2.3v7h2.8v1.9M359.597 276.19v-8.9h5.1v2h-2.8v1.4h2.6v2h-2.6v1.6h2.8v1.9M372.296 273.29c0 .7-.1 1.2-.3 1.602-.3.5-.7.9-1.3 1.2-.5.2-1.1.4-1.8.4s-1.3-.102-2-.4c-.3-.1-.6-.3-.8-.4-.1-.1-.2-.1-.3-.2l1-1.9c.7.6 1.4.9 2 .9.3 0 .6-.1.8-.2.2-.2.3-.4.3-.7 0-.2-.1-.5-.4-.6-.1-.1-.3-.2-.5-.2-.1 0-.2-.1-.5-.1l-.5-.1c-.3-.1-.6-.2-.9-.4-.7-.4-1-1-1-2 0-.9.3-1.6.8-2.2.6-.6 1.3-.8 2.2-.8 1 0 1.9.2 2.8.7l-.9 1.8c-.5-.4-1-.6-1.5-.6-.3 0-.5.1-.7.2-.198.1-.3.3-.3.6 0 .2.2.5.5.6.102 0 .5.2 1.102.4.7.2 1.3.5 1.6.9.398.3.598.8.598 1.5M382.596 275.79c0 .1-.1.2-.3.3-.6.2-1.2.3-1.8.3-.8 0-1.6-.198-2.4-.6-1.5-.8-2.4-2.3-2.4-4 0-1 .3-1.8.8-2.6s1.2-1.4 2.1-1.7c.602-.3 1.2-.398 1.8-.398.4 0 .9.1 1.4.2.2 0 .3.1.4.1l.1.1c.1 0 .2.1.2.2v2.3c0 .1 0 .1-.1.1l-.1-.1c-.2-.2-.4-.3-.8-.4-.4-.1-.7-.2-1-.2-1 0-1.9.5-2.3 1.5-.1.3-.2.6-.2 1 0 .7.3 1.2.7 1.7.5.4 1 .6 1.7.6.8 0 1.4-.2 1.8-.7l.1-.1s.1.1.1.2v2.2h.2zM389.696 276.19v-3.7h-3.4v3.7h-2.3v-8.9h2.3v3.4h3.4v-3.4h2.3v8.9M399.395 276.19l-.6-1.5h-3.2l-.6 1.5h-2.4l3.4-8.9h2.5l3.4 8.9h-2.5zm-2.2-6.098l-1 2.8h1.9l-.9-2.8zM402.495 267.29h2.3v8.9h-2.3zM413.295 276.19l-4.3-5.4v5.4h-2.3v-8.9h2.3l4.3 5.5v-5.5h2.3v8.9M417.295 276.19v-8.9h5v2h-2.7v1.4h2.6v2h-2.6v1.6h2.7v1.9M429.794 273.29c0 .7-.1 1.2-.3 1.602-.3.5-.7.9-1.3 1.2-.5.2-1.1.4-1.8.4s-1.3-.102-2-.4c-.3-.1-.6-.3-.8-.4-.1-.1-.2-.1-.3-.2l1-1.9c.7.6 1.4.9 2 .9.3 0 .6-.1.8-.2.2-.2.3-.4.3-.7 0-.2-.1-.5-.4-.6-.1-.1-.3-.2-.5-.2-.1 0-.2-.1-.5-.1l-.5-.1c-.3-.1-.6-.2-.9-.4-.7-.4-1-1-1-2 0-.9.3-1.6.8-2.2.6-.6 1.3-.8 2.2-.8 1 0 1.9.2 2.8.7l-.9 1.8c-.5-.4-1-.6-1.5-.6-.2 0-.5.1-.7.2-.2.1-.3.3-.3.6 0 .2.2.5.5.6.1 0 .5.2 1.1.4.7.2 1.302.5 1.602.9.398.3.598.8.598 1.5"/></symbol><symbol id="shape-icon-canalsalt-panorama" viewBox="0 0 471.112 175.001"><path fill="#0062AC" d="M204.72 2.326h93.622v109.11h-93.62z"/><path fill="#0089C8" d="M126.42 2.325h78.295v109.112H126.42z"/><path fill="#2F4955" d="M80.005 127.05H2.043L2 17.93h77.963"/><path fill="#AC2879" d="M342.7 17.922h49.98v109.13H342.7z"/><path fill="#D71D78" d="M392.546 2.307h77.2v109.13h-77.2z"/><path fill="#3C708B" d="M79.995 17.928h46.443V127.05H79.995z"/><path fill="#6B308F" d="M298.087 17.922h44.945v109.13h-44.945z"/><path fill="#FFF" d="M66.79 76.764c-.244.086-.486.162-.486.162.325-.162-4.16 2.09-9.82 2.498-5.153.254-10.063-1.164-13.213-3.908-4.656-3.914-6.828-10.47-4.742-18.285 2.334-8.818 10.057-12.313 16.706-12.725 0 0 8.74-.67 16.22 4.66 1.166.738 1.338.662 1.338.662s.324-.247.412-.747l2.328-12.228c.335-1.334.242-1.494.242-1.494s-.168-.338-1.412-1.16c-2.492-1.668-5.81-2.753-5.81-2.753-2.99-.992-10.315-3.326-20.212-1.906-7.734.996-15.635 5.32-20.705 11.388-2.078 2.575-10.647 14.72-6.318 31.753 2.904 11.396 12.055 20.206 26.438 21.804 0 0 8.897 1.07 16.896-2.168.572-.176.912-.5.912-.5s.318-.498.406-1.168L68.3 77.263c.164-.752-.088-.998-.088-.998s-.237-.087-1.42.5zM119.635 32.972s-.23-.253-.576-.253H99.83s-.24.088-.4.41L70.177 91.96c-.16.33-.087.567-.087.567s.088.246.582.162h16.85c.265 0 .5-.163.5-.163s.087-.078.24-.4l4.074-8.73c.247-.566.563-.805.563-.805s.262-.338.665-.338H114.252s.166.088.166.338l2.285 9.37c.076.565.158.642.158.642s.25.14.577.14h14.487c.185 0 .268-.14.268-.14s.144-.076.144-.312l-12.55-59c-.07-.235-.15-.32-.15-.32zm-7.388 36.167s-.07.097-.157.097l-11.973-.098c-.412 0-.497-.08-.497-.08s-.072-.16.085-.41l8.154-18.478c.08-.17.17-.17.17-.17s.073 0 .073.17l4.144 18.653c.093.234 0 .314 0 .314zM202.58 33.057s-.07-.173-.4-.173h-15.56c-.25 0-.323.088-.323.088s-.175.085-.175.32l-4.728 32.597c-.156.733-.398.733-.398.733s-.24.072-.57-.57l-18.65-32.76c-.094-.235-.274-.32-.274-.32s-.142-.164-.38-.164h-16.555c-.244 0-.488.248-.488.248s-.16.074-.235.41l-8.158 58.412c-.066.32.252.648.252.648s.157.162.406.162h14.827c.24 0 .406-.086.406-.086s.082-.076.164-.477l5.132-36.095c0-.25.16-.25.16-.25s.084 0 .24.176l20.7 36.732c.09.084.172.172.172.172h15.391c.416 0 .482-.088.482-.088s.173-.246.258-.574l8.395-58.908c0-.16-.095-.235-.095-.235zM409.826 32.71v13.195h12.636V92.69h15.588V45.904h12.965V32.71M337.144 55.853c-2.635-.8-4.48-1.28-5.35-1.6-1.527-.48-2.963-1.2-4.012-2.152-.947-.807-1.436-1.85-1.436-2.963 0-2.965 2.88-5.202 6.72-5.202 3.524 0 6.798 1.28 10.15 4.08l6.257-12.158c-6.016-3.193-12.727-4.877-19.045-4.877-12.162 0-20.395 8.158-20.395 20.23 0 6.48 2.312 10.957 7.037 13.355 2.232 1.2 4.15 1.926 9.12 3.362 5.046 1.43 6.474 2.08 8.08 3.674.792.812 1.263 2.01 1.263 3.208 0 3.598-2.87 5.914-7.52 5.914-4.546 0-8.94-1.918-13.757-6.074l-6.62 12.48c2.878 1.996 4.077 2.71 7.278 3.992 4.88 1.998 8.883 2.883 13.596 2.883 9.67 0 17.752-4.086 21.11-10.562 1.282-2.56 2.235-7.19 2.235-10.87 0-4.643-1.117-7.84-3.838-10.717-2.55-2.8-5.353-4.327-10.873-6zM303.044 77.566H286.09c-.32 0-.562-.256-.562-.545V32.23c0-.294-.25-.545-.545-.545H268.19c-.303 0-.547.25-.547.546v59.91c0 .31.244.55.547.55h34.854c.297 0 .55-.24.55-.55V78.116c0-.306-.253-.55-.55-.55z"/><path fill="#FFF" d="M409.826 45.905h12.636V92.69h15.588V45.904h12.965V32.71h-41.19M222.95 32.808c-.265 0-.563.206-.656.45l-22.77 59.276c-.1.25.05.454.312.454h15.56c.27 0 .565-.193.667-.443l3.738-9.533c.103-.25.394-.453.667-.453h20.615c.262 0 .562.202.654.452l3.59 9.522c.098.25.385.454.656.454h15.723c.266 0 .408-.205.318-.454l-22.37-59.275c-.095-.246-.394-.452-.66-.452h-16.042zm1.864 37.862c-.264 0-.41-.205-.325-.45l6.247-18.204c.085-.25.22-.25.308.002l6.096 18.2c.084.247-.07.452-.33.452h-11.996zM376.285 32.808c-.266 0-.564.206-.658.45l-22.77 59.276c-.098.25.05.454.312.454h15.56c.268 0 .564-.193.666-.443l3.738-9.533c.102-.25.393-.453.666-.453h20.615c.262 0 .562.202.654.452l3.59 9.522c.097.25.384.454.655.454h15.723c.266 0 .408-.205.318-.454L392.983 33.26c-.094-.246-.39-.452-.656-.452h-16.042zm1.863 37.862c-.264 0-.41-.205-.326-.45l6.248-18.204c.086-.25.22-.25.31.002l6.095 18.2c.082.247-.07.452-.33.452h-11.997z"/><text transform="translate(0 173.34)" fill="#0089C8" font-family="&apos;CanalBoldRomain&apos;" font-size="41.228">PANORAMA</text></symbol><symbol id="shape-icon-cancel" viewBox="0 0 512 512"><path d="M479.8 131.01L376.026 27.164 256 147.19 136.012 27.164 32.202 131.01l120.026 119.952L32.2 370.987l103.812 103.848L256 354.808l120.026 120.027L479.8 370.987 359.81 250.962 479.8 131.01z"/></symbol><symbol id="shape-icon-check" viewBox="0 0 512 512"><path d="M432 64L192 304 80 192 0 272l192 192 320-320-80-80z"/></symbol><symbol id="shape-icon-cplus-start" viewBox="0 0 80 60"><path fill="#00ADEE" d="M77.684 33.134H41.63l.276 3.132h-3.403l1.782 20.353 39.123-3.78"/><path fill="#061922" d="M13.728 19.997h55.83V39.7h-55.83z"/><path fill="#FFF" d="M60.04 36.036h-3.345l2.87-5.206-4.07-7.044h3.456l2.253 4.176 2.203-4.176h3.408l-6.775 12.25zM42.17 36.056h-6.707l1.505-12.266h3.106l-1.176 9.567h3.597l-.325 2.7zM52.53 36.056l-.802-2.127h-4.402l-.832 2.126h-3.37l4.71-12.266h3.47l4.626 12.266h-3.4zm-2.977-8.474l-1.342 3.91h2.65l-1.307-3.91zM35.11 27.853c0 2.75-1.376 4.127-4.143 4.127H28.97v4.076h-3.192v-12.28h5.074c1.31 0 2.324.343 3.062 1.03.802.753 1.195 1.77 1.195 3.047zm-3.34.032c0-1.03-.573-1.54-1.736-1.54h-1.062v3.063h1.046c1.162 0 1.75-.507 1.75-1.523z"/><path fill="#061922" d="M.592 3.575h62.394V23.28H.592z"/><g fill="#FFF"><path d="M12.595 18.44c-.017.134-.082.233-.082.233s-.068.066-.182.1c-1.592.646-3.366.43-3.366.43-2.867-.315-4.69-2.07-5.27-4.34-.862-3.4.847-5.82 1.26-6.333 1.01-1.21 2.585-2.07 4.128-2.272 1.973-.28 3.43.183 4.03.38 0 0 .66.216 1.16.55.246.165.28.23.28.23s.016.033-.05.3l-.463 2.436c-.018.1-.085.15-.085.15s-.032.016-.264-.133c-1.49-1.06-3.23-.928-3.23-.928-1.33.082-2.87.78-3.332 2.536-.416 1.558.016 2.868.946 3.647.627.547 1.604.83 2.633.78 1.128-.083 2.023-.53 1.957-.5l.1-.03c.232-.117.28-.102.28-.102s.05.05.017.2l-.465 2.667zM38.338 18.877h-3.072l-.03-.032-4.128-7.325c-.032-.033-.048-.033-.048-.033s-.034 0-.034.05l-1.02 7.194c-.017.082-.034.097-.034.097s-.032.018-.08.018h-2.958c-.047 0-.08-.032-.08-.032s-.064-.065-.05-.13l1.624-11.646c.018-.065.05-.082.05-.082s.048-.05.095-.05h3.3c.05 0 .08.034.08.034s.032.016.05.063l3.717 6.53c.066.13.114.113.114.113s.05 0 .082-.146l.942-6.498c0-.047.034-.064.034-.064s.013-.017.063-.017h3.103c.064 0 .08.034.08.034s.018.017.018.047L38.48 18.746c-.017.065-.047.113-.047.113s-.015.02-.095.02zM23.326 7.004c-.015-.047-.032-.064-.032-.064s-.047-.05-.115-.05H19.344s-.047.017-.08.083L13.436 18.7c-.032.064-.017.113-.017.113s.017.048.116.032h3.36c.05 0 .097-.032.097-.032s.018-.016.05-.08l.812-1.74c.05-.113.113-.163.113-.163s.05-.065.13-.065H22.22s.034.018.034.065l.454 1.87c.017.112.034.127.034.127s.048.026.113.026h2.89c.036 0 .05-.026.05-.026s.03-.015.03-.064l-2.5-11.76zm-1.502 7.148s-.016.016-.034.016l-2.386-.016c-.082 0-.1-.018-.1-.018s-.013-.032.018-.08l1.625-3.686c.017-.033.032-.033.032-.033s.015 0 .015.033l.828 3.72c.017.046 0 .064 0 .064zM44.432 6.903c-.053 0-.11.04-.13.09l-4.534 11.805c-.02.05.01.09.06.09h3.102c.05 0 .11-.04.13-.088l.745-1.9c.02-.05.078-.09.13-.09h4.108c.053 0 .11.04.13.09l.716 1.897c.017.05.075.09.13.09h3.13c.056 0 .083-.04.065-.09L47.758 6.993c-.02-.05-.076-.09-.13-.09H44.43zm.37 7.54c-.05 0-.08-.042-.063-.09l1.243-3.625c.018-.05.045-.05.06 0l1.216 3.623c.017.052-.015.092-.065.092h-2.392zM56.56 15.78c0 .06.046.11.106.11h3.27c.06 0 .108.047.108.11v2.795c0 .06-.05.11-.107.11H53.1c-.06 0-.108-.05-.108-.11V6.855c0-.06.05-.11.11-.11h3.347c.06 0 .108.05.108.11v8.925z"/></g><g><path fill="#061922" d="M16.34 36.894V19.688l14.753 8.61-14.752 8.596z"/></g><path fill="#00ADEE" d="M17.23 21.236v14.112l12.1-7.05"/><g><path fill="#FFF" d="M53.014 51.004h-1.69v-7.388h-1.99v-1.623h5.683v1.623h-2.002v7.388z"/></g><g><path fill="#FFF" d="M62.828 51.004H60.98l-.967-2.33h-3.02l-.99 2.33h-1.84l4.384-9.987 4.28 9.987zm-5.135-3.953h1.64l-.808-1.94-.832 1.94z"/></g><g><path fill="#FFF" d="M69.703 51.004h-2.078l-2.13-3.1v3.1h-1.69v-9.01h1.714c1.032 0 1.647.144 2.192.517.676.454 1.08 1.268 1.08 2.175 0 1.233-.7 2.18-1.8 2.51l2.71 3.81zm-4.21-5.195h.19c.95 0 1.432-.38 1.432-1.125 0-.373-.156-.697-.42-.867-.223-.14-.533-.2-1.033-.2h-.168v2.19z"/></g><g><path fill="#FFF" d="M74.02 51.18h-1.688v-7.39h-1.99V42.17h5.68v1.623H74.02v7.39z"/></g><path fill="#FFF" d="M45.766 51.146c-1.47 0-2.56-.903-2.914-2.416l-.084-.356 1.635-.465.086.398c.09.416.14.522.27.694.234.33.62.52 1.037.52.703 0 1.277-.557 1.277-1.242 0-.456-.176-.752-1.17-1.203l-.75-.34c-1.328-.603-1.896-1.312-1.896-2.372 0-1.433 1.162-2.516 2.703-2.516 1.063 0 1.892.496 2.456 1.478l.178.312-1.352.9-.21-.333c-.173-.276-.25-.37-.362-.473-.19-.166-.432-.25-.73-.25-.56 0-.98.38-.98.88 0 .24.07.528.933.903l.783.34c1.47.646 2.1 1.432 2.1 2.63 0 1.63-1.325 2.91-3.01 2.91z"/></symbol><symbol id="shape-icon-fanion-shadow" viewBox="0 0 5 12"><path d="M.05 11.704S4.95 10.316 4.95 5.626C4.952.934.05.296.05.296v11.408z"/></symbol><symbol id="shape-icon-fanion-txt" viewBox="0 0 166 46"><path d="M159.518 40.154H21.378c-7.45 0-10.1-6.297-10.1-6.297S2.987 12.222 1.163 5.743C-.323.463 7.52.546 7.52.546h154.536L165.5 3.74v41.714c-.455-6.29-5.982-5.3-5.982-5.3z"/></symbol><symbol id="shape-icon-flat-fanion" viewBox="0 0 159.727 39.608"><path d="M153.182 0H0v39.565c.695-.04 1.186.043 1.186.043H132.25c8.972 0 14.044-8.044 14.044-8.044s11.422-19.888 13.246-26.367C161.026-.083 153.182 0 153.182 0z"/></symbol><symbol id="shape-icon-forfait-byou-prefix" viewBox="0 0 750 80"><linearGradient id="shape-icon-forfait-byou-prefix-a" gradientUnits="userSpaceOnUse" x1="1270.545" y1="578.04" x2="1270.545" y2="503.028" gradientTransform="translate(-627 -500)"><stop offset=".5" stop-color="#008356"/><stop offset="1" stop-color="#00AAA0"/></linearGradient><path fill="url(#shape-icon-forfait-byou-prefix-a)" d="M643.49 3.028c5.17 0 10.04.985 14.593 2.945 4.546 1.963 8.537 4.65 11.947 8.064 3.41 3.417 6.104 7.4 8.078 11.953 1.953 4.554 2.938 9.424 2.938 14.602 0 5.182-.984 10.05-2.938 14.602-1.974 4.555-4.666 8.52-8.078 11.89-3.41 3.38-7.4 6.05-11.947 8.015-4.553 1.96-9.422 2.94-14.593 2.94-5.186 0-10.053-.98-14.608-2.94-4.555-1.967-8.527-4.636-11.89-8.015-3.38-3.372-6.048-7.336-8.01-11.89-1.966-4.552-2.94-9.42-2.94-14.603 0-5.178.976-10.047 2.94-14.602 1.962-4.554 4.63-8.536 8.01-11.953 3.36-3.416 7.335-6.1 11.89-8.064 4.556-1.96 9.424-2.945 14.608-2.945zm-18.736 37.68c0 2.592.496 5.026 1.483 7.306.974 2.275 2.33 4.278 4.06 6.002 1.726 1.73 3.725 3.086 6 4.062 2.28.987 4.71 1.475 7.308 1.475 2.586 0 5.02-.485 7.29-1.475 2.288-.978 4.28-2.332 6.012-4.062 1.73-1.724 3.072-3.727 4.062-6.002.985-2.28 1.48-4.713 1.48-7.305 0-2.59-.495-5.022-1.48-7.304-.99-2.27-2.335-4.274-4.063-6-1.73-1.73-3.724-3.08-6.01-4.062-2.27-.982-4.706-1.475-7.292-1.475-2.598 0-5.027.492-7.308 1.474-2.275.98-4.274 2.333-6 4.062-1.73 1.726-3.086 3.73-4.06 6-.988 2.282-1.483 4.714-1.483 7.303z"/><linearGradient id="shape-icon-forfait-byou-prefix-b" gradientUnits="userSpaceOnUse" x1="1202.295" y1="578.039" x2="1202.295" y2="503.027" gradientTransform="translate(-627 -500)"><stop offset=".178" stop-color="#007B9B"/><stop offset="1" stop-color="#37BDE9"/></linearGradient><path fill="url(#shape-icon-forfait-byou-prefix-b)" d="M599.196 5.618c-1.683-1.72-3.902-2.59-6.655-2.59-2.666 0-4.922.79-6.762 2.355-1.85 1.57-2.77 3.85-2.77 6.833v11.42c0 1.257-.26 2.356-.764 3.3-.52.94-1.146 1.727-1.887 2.355-.752.63-1.593 1.1-2.535 1.414-.94.314-1.805.473-2.592.473-.863 0-1.728-.158-2.578-.473-.874-.313-1.695-.784-2.48-1.413-.786-.628-1.41-1.414-1.886-2.354-.47-.944-.705-2.043-.705-3.3v-11.42c0-2.983-.92-5.263-2.76-6.834-1.852-1.563-4.104-2.355-6.775-2.355-2.75 0-4.97.87-6.662 2.59-1.684 1.728-2.523 3.928-2.523 6.598v11.42c0 3.14.596 6.284 1.76 9.425 1.19 3.133 2.898 5.945 5.13 8.413 2.23 2.473 4.99 4.5 8.244 6.067.63.306 1.277.57 1.94.82v20.49c0 2.67.862 4.868 2.594 6.598 1.728 1.727 3.924 2.59 6.597 2.59 2.734 0 5.024-.863 6.818-2.59 1.816-1.73 2.715-3.93 2.715-6.6V48.317c.63-.232 1.233-.496 1.815-.775 3.266-1.567 6.036-3.597 8.3-6.065 2.29-2.47 4.02-5.28 5.186-8.414 1.187-3.14 1.77-6.283 1.77-9.423V12.215c.003-2.67-.85-4.87-2.534-6.597z"/><linearGradient id="shape-icon-forfait-byou-prefix-c" gradientUnits="userSpaceOnUse" x1="1124.252" y1="578.012" x2="1124.252" y2="503.001" gradientTransform="translate(-627 -500)"><stop offset=".5" stop-color="#0079BF"/><stop offset="1" stop-color="#73CAEE"/></linearGradient><path fill="url(#shape-icon-forfait-byou-prefix-c)" d="M526.054 47.665c-.73-1.915-1.626-3.698-2.703-5.34-1.088-1.645-2.297-3.09-3.645-4.343-1.347-1.25-2.647-2.27-3.903-3.052 1.165-1.486 2.243-3.23 3.23-5.23.986-1.988 1.48-4.355 1.48-7.1 0-3.594-.808-6.645-2.424-9.152-1.612-2.502-3.7-4.52-6.27-6.05-2.57-1.524-5.442-2.64-8.626-3.34C499.994 3.35 496.772 3 493.544 3h-15.65c-2.974 0-5.44.843-7.412 2.523-1.987 1.687-3.02 3.775-3.11 6.284V70.03c0 2.43 1.022 4.364 3.04 5.81 2.022 1.454 4.51 2.172 7.482 2.172h15.65c3.23 0 6.784-.33 10.66-.998 3.857-.66 7.502-1.912 10.924-3.75 3.41-1.842 6.258-4.328 8.56-7.457 2.3-3.13 3.443-7.162 3.443-12.094 0-2.11-.36-4.13-1.076-6.048zm-40.34-30.67h11.62c.81 0 1.524.167 2.132.493.605.333 1.11.742 1.514 1.217.405.48.71 1.026.91 1.633.2.612.312 1.166.312 1.67 0 .562-.112 1.116-.312 1.68-.2.555-.504 1.086-.91 1.59-.402.51-.908.916-1.514 1.218-.605.302-1.322.454-2.132.454h-11.62v-9.956zm21.223 37.644c-.313.86-.783 1.687-1.41 2.472-.63.79-1.416 1.414-2.355 1.885-.943.472-2.042.71-3.3.71h-13.81v-15.43h13.81c1.258 0 2.356.253 3.3.764.94.512 1.727 1.14 2.355 1.885.627.747 1.097 1.59 1.41 2.53.313.944.474 1.806.474 2.59 0 .863-.16 1.728-.473 2.594z"/><path fill="#0079BF" d="M541.724 77.973c-1.337 0-2.604-.23-3.783-.688-1.165-.45-2.204-1.072-3.08-1.847-.91-.785-1.64-1.71-2.177-2.76-.56-1.096-.854-2.285-.854-3.527 0-1.626.525-3.175 1.55-4.6.492-.68 1.074-1.308 1.748-1.887-.53-.493-.987-1.042-1.37-1.634-.414-.653-.75-1.35-.984-2.063-.27-.742-.394-1.506-.394-2.246 0-1.16.258-2.284.795-3.336.505-1.018 1.188-1.903 2.04-2.646.834-.717 1.81-1.3 2.92-1.73 1.112-.42 2.31-.645 3.59-.645 1.223 0 2.422.225 3.545.646 1.123.43 2.11 1.01 2.938 1.728.853.74 1.55 1.628 2.054 2.646.53 1.052.797 2.175.797 3.337 0 1.044-.245 2.082-.718 3.078-.447.976-1.122 1.875-1.975 2.66-.854.77-1.896 1.395-3.096 1.868l-.02.002 4.8 3.762 3.39-2.76c.457-.395 1.03-.602 1.66-.602 1.446 0 2.467.977 2.467 2.37 0 .524-.18 1.025-.54 1.49-.064.1-.156.185-.245.254l-.043.046c0 .006-.025.016-.025.022l-2.763 2.307 2.875 2.355c.022.02.033.028.043.042.54.457.83 1.093.83 1.785 0 1.397-1.012 2.376-2.47 2.376-.626 0-1.187-.21-1.657-.598l-3.522-2.828c-.57.438-1.12.826-1.61 1.164-.857.564-1.64 1.024-2.358 1.37-.764.372-1.504.647-2.196.82-.74.18-1.47.27-2.162.27zm-2.65-12.3c-.605.372-1.122.816-1.524 1.33-.518.66-.787 1.358-.787 2.147 0 .543.114 1.04.348 1.506.25.506.573.926 1.003 1.3.445.385.975.692 1.593.92.604.23 1.286.345 2.02.345.763 0 1.595-.247 2.446-.735.592-.338 1.256-.762 1.975-1.27l-7.074-5.54zm2.65-12.555c-.674 0-1.29.1-1.854.31-.55.192-1.02.463-1.393.795-.367.32-.648.687-.863 1.13-.202.423-.303.865-.303 1.368 0 .5.09.935.282 1.33.202.42.47.77.832 1.085.39.338.872.62 1.434.833.553.21 1.188.327 1.887.35.65 0 1.242-.1 1.773-.302.534-.197 1.006-.473 1.39-.805.356-.31.65-.683.853-1.128.204-.416.315-.863.315-1.36 0-.504-.11-.946-.314-1.368-.2-.442-.493-.812-.853-1.133-.383-.33-.854-.6-1.39-.8-.536-.203-1.144-.302-1.793-.302z"/><path fill="#0079BF" d="M541.724 77.973c-1.337 0-2.604-.23-3.783-.688-1.165-.45-2.204-1.072-3.08-1.847-.91-.785-1.64-1.71-2.177-2.76-.56-1.096-.854-2.285-.854-3.527 0-1.626.525-3.175 1.55-4.6.492-.68 1.074-1.308 1.748-1.887-.53-.493-.987-1.042-1.37-1.634-.414-.653-.75-1.35-.984-2.063-.27-.742-.394-1.506-.394-2.246 0-1.16.258-2.284.795-3.336.505-1.018 1.188-1.903 2.04-2.646.834-.717 1.81-1.3 2.92-1.73 1.112-.42 2.31-.645 3.59-.645 1.223 0 2.422.225 3.545.646 1.123.43 2.11 1.01 2.938 1.728.853.74 1.55 1.628 2.054 2.646.53 1.052.797 2.175.797 3.337 0 1.044-.245 2.082-.718 3.078-.447.976-1.122 1.875-1.975 2.66-.854.77-1.896 1.395-3.096 1.868l-.02.002 4.8 3.762 3.39-2.76c.457-.395 1.03-.602 1.66-.602 1.446 0 2.467.977 2.467 2.37 0 .524-.18 1.025-.54 1.49-.064.1-.156.185-.245.254l-.043.046c0 .006-.025.016-.025.022l-2.763 2.307 2.875 2.355c.022.02.033.028.043.042.54.457.83 1.093.83 1.785 0 1.397-1.012 2.376-2.47 2.376-.626 0-1.187-.21-1.657-.598l-3.522-2.828c-.57.438-1.12.826-1.61 1.164-.857.564-1.64 1.024-2.358 1.37-.764.372-1.504.647-2.196.82-.74.18-1.47.27-2.162.27zm-2.65-12.3c-.605.372-1.122.816-1.524 1.33-.518.66-.787 1.358-.787 2.147 0 .543.114 1.04.348 1.506.25.506.573.926 1.003 1.3.445.385.975.692 1.593.92.604.23 1.286.345 2.02.345.763 0 1.595-.247 2.446-.735.592-.338 1.256-.762 1.975-1.27l-7.074-5.54zm2.65-12.555c-.674 0-1.29.1-1.854.31-.55.192-1.02.463-1.393.795-.367.32-.648.687-.863 1.13-.202.423-.303.865-.303 1.368 0 .5.09.935.282 1.33.202.42.47.77.832 1.085.39.338.872.62 1.434.833.553.21 1.188.327 1.887.35.65 0 1.242-.1 1.773-.302.534-.197 1.006-.473 1.39-.805.356-.31.65-.683.853-1.128.204-.416.315-.863.315-1.36 0-.504-.11-.946-.314-1.368-.2-.442-.493-.812-.853-1.133-.383-.33-.854-.6-1.39-.8-.536-.203-1.144-.302-1.793-.302z"/><linearGradient id="shape-icon-forfait-byou-prefix-d" gradientUnits="userSpaceOnUse" x1="1340.868" y1="578.04" x2="1340.868" y2="503.151" gradientTransform="translate(-627 -500)"><stop offset=".546" stop-color="#008F30"/><stop offset="1" stop-color="#A6C859"/></linearGradient><path fill="url(#shape-icon-forfait-byou-prefix-d)" d="M713.805 59.316c.785 0 1.65-.16 2.59-.476.944-.313 1.786-.784 2.536-1.41.74-.63 1.37-1.415 1.888-2.355.505-.944.764-2.044.764-3.3V12.333c0-2.984.918-5.26 2.77-6.832 1.842-1.563 4.095-2.35 6.768-2.35 2.75 0 4.968.864 6.65 2.586 1.684 1.73 2.534 3.927 2.534 6.597v39.444c0 3.142-.58 6.28-1.772 9.425-1.163 3.14-2.892 5.946-5.182 8.42-2.266 2.474-5.037 4.494-8.302 6.063-3.254 1.57-7 2.354-11.24 2.354s-7.985-.786-11.24-2.355c-3.25-1.57-6.015-3.592-8.243-6.063-2.23-2.474-3.938-5.28-5.128-8.42-1.168-3.144-1.762-6.283-1.762-9.425V12.333c0-2.67.84-4.868 2.523-6.597 1.693-1.723 3.902-2.585 6.664-2.585 2.67 0 4.923.79 6.77 2.35 1.845 1.572 2.764 3.85 2.764 6.833v39.444c0 1.257.236 2.355.706 3.3.472.94 1.1 1.728 1.886 2.354.783.628 1.604 1.1 2.48 1.413.847.313 1.712.473 2.577.473z"/><path fill="#00B5D8" d="M327.27 78.902c13.052 0 19.454-11.27 19.454-11.27V78.09l6.138.003V52.69c-.025-14.397-11.53-26.105-25.64-26.105-13.953.03-25.673 12.44-25.64 27.1.027 14.14 10.964 25.217 25.688 25.217zm-.014-6.21c-10.435 0-18.903-8.935-18.905-19.91-.025-10.806 8.72-19.968 18.835-19.986h.042c10.39 0 18.856 8.93 18.88 19.91.007 11-8.444 19.962-18.85 19.987zM380.24 12.87v45.864c-.015 6.62 1.473 11.91 4.804 15.32 4.768 4.865 12.152 6.098 22.81 3.557l-1.31-5.71c-13.242 3.492-19.66-.77-19.635-14.92V32.758h18.466V27.32H386.91V12.87h-6.67zM284.387 78.11h6.496V32.76h12.643v-5.415H290.81l-.006-1.948c-.02-12.372 3.63-18.647 16.795-14.974l1.537-5.4c-2.932-.727-5.37-1.1-7.87-1.1-10.207 0-16.79 7.192-16.79 21.47v1.953h-6.42v5.415h6.33V78.11zM242.48 78.11h6.602V46.98c0-10.284 3.187-14.442 12.977-14.442 2.63 0 5.64.418 9.02 1.29l1.506-5.978c-4.02-.94-7.1-1.262-10.48-1.262-14.45 0-19.625 7.273-19.625 19.554v31.97zM362.163 27.36h6.603v50.733h-6.603zM211.405 26.654c-14.137 0-25.6 11.69-25.6 26.12 0 14.43 11.462 26.13 25.6 26.13 14.143 0 25.61-11.7 25.61-26.13s-11.467-26.12-25.61-26.12zm0 46.47c-10.806 0-19.56-9.11-19.56-20.35 0-11.238 8.755-20.345 19.56-20.345 10.805 0 19.562 9.107 19.562 20.345 0 11.24-8.757 20.348-19.562 20.348zM152.61 78.11V42.465h30.057v-5.83H152.62V17.703c0-6.21 1.43-8.54 7.438-8.54h25.877V3.013h-26.062c-10.294 0-14.034 4.533-14.034 14.162l-.003 60.938h6.772v-.003zM413.23 74.887c4.577 2.428 10.648 4.018 17.46 4.018 10.572 0 17.777-6.02 17.777-15.346 0-9.534-6.963-12.468-16.58-15.304-6.012-1.78-11.463-3.457-11.463-8.872 0-2.262.945-7.225 9.646-7.225 5.215 0 9.592 1.167 13.94 3.38l1.747-5.56c-4.623-2.34-10.007-3.42-14.486-3.42-12.114 0-17.42 6.366-17.42 14.033 0 8.402 6.84 10.988 16.292 13.726 6.555 1.898 11.98 3.69 11.98 9.82 0 4.67-3.68 9.087-11.903 9.087-4.967 0-10.712-1.564-15.06-4.037l-1.93 5.697z"/><path fill="none" d="M142.837 1h600v80h-600z"/><g fill="#00B5D8"><path d="M7.11 72.945V9.195c0-1.096.39-2.05 1.17-2.864.78-.812 1.71-1.22 2.79-1.22 1.078 0 2.032.392 2.863 1.17.83.782 1.245 1.753 1.245 2.915v60.363h37.005c1.03 0 1.9.382 2.615 1.146.713.765 1.07 1.652 1.07 2.665s-.356 1.875-1.07 2.59c-.714.713-1.586 1.07-2.615 1.07H11.095c-1.096 0-2.034-.407-2.814-1.222-.78-.812-1.17-1.767-1.17-2.863zM64.635 50.832v-.2c0-7.67 2.407-14.16 7.222-19.473 4.814-5.313 10.824-7.97 18.03-7.97 7.47 0 13.42 2.615 17.854 7.844s6.65 11.514 6.65 18.85c0 1.03-.358 1.902-1.072 2.615-.714.714-1.587 1.07-2.618 1.07H72.504c.53 5.562 2.556 9.917 6.076 13.062 3.52 3.146 7.686 4.718 12.5 4.718 5.71 0 10.775-2.027 15.19-6.082.764-.594 1.51-.89 2.242-.89.962 0 1.784.323 2.465.97.68.648 1.02 1.453 1.02 2.416 0 1.03-.415 1.876-1.244 2.54-5.512 5.312-12.136 7.97-19.872 7.97-7.404 0-13.63-2.573-18.676-7.72-5.046-5.146-7.57-11.72-7.57-19.722zm7.87-3.088h33.966c-.397-5.18-2.058-9.463-4.98-12.85-2.92-3.387-6.872-5.08-11.853-5.08-4.55 0-8.41 1.693-11.58 5.08s-5.022 7.67-5.553 12.85z"/></g></symbol><symbol id="shape-icon-forfait-byou" viewBox="0 0 600 80"><path fill="url(#shape-icon-forfait-byou-a)" d="M500.653 2.028c5.17 0 10.04.985 14.593 2.945 4.546 1.963 8.537 4.65 11.947 8.064 3.41 3.417 6.105 7.4 8.078 11.953 1.955 4.554 2.94 9.424 2.94 14.602 0 5.182-.985 10.05-2.94 14.602-1.972 4.554-4.665 8.518-8.077 11.89-3.41 3.378-7.4 6.048-11.947 8.013-4.553 1.96-9.422 2.943-14.593 2.943-5.185 0-10.052-.982-14.608-2.943-4.555-1.965-8.527-4.634-11.89-8.013-3.38-3.372-6.048-7.336-8.01-11.89-1.965-4.552-2.94-9.42-2.94-14.602 0-5.178.976-10.047 2.94-14.602 1.962-4.554 4.63-8.536 8.01-11.953 3.362-3.416 7.335-6.1 11.89-8.064 4.557-1.96 9.424-2.945 14.608-2.945zm-18.736 37.68c0 2.592.496 5.026 1.483 7.306.974 2.275 2.33 4.278 4.06 6 1.726 1.73 3.725 3.087 6 4.063 2.28.988 4.71 1.475 7.308 1.475 2.586 0 5.02-.486 7.29-1.475 2.288-.977 4.28-2.332 6.01-4.062 1.73-1.723 3.074-3.726 4.064-6 .986-2.28 1.48-4.714 1.48-7.306 0-2.59-.494-5.022-1.48-7.304-.99-2.27-2.334-4.274-4.063-6-1.73-1.73-3.724-3.08-6.01-4.062-2.27-.982-4.706-1.475-7.292-1.475-2.598 0-5.028.492-7.308 1.474-2.275.98-4.274 2.333-6 4.062-1.73 1.726-3.086 3.73-4.06 6-.988 2.282-1.483 4.714-1.483 7.303z"/><path fill="url(#shape-icon-forfait-byou-b)" d="M456.36 4.618c-1.683-1.72-3.903-2.59-6.656-2.59-2.667 0-4.923.79-6.763 2.355-1.85 1.57-2.768 3.85-2.768 6.833v11.42c0 1.257-.26 2.356-.764 3.3-.52.94-1.146 1.727-1.887 2.355-.75.63-1.59 1.1-2.534 1.414-.94.314-1.804.473-2.59.473-.865 0-1.73-.158-2.58-.473-.874-.313-1.695-.784-2.48-1.413-.786-.628-1.41-1.414-1.886-2.354-.47-.944-.705-2.043-.705-3.3v-11.42c0-2.983-.92-5.263-2.76-6.834-1.852-1.563-4.105-2.355-6.776-2.355-2.75 0-4.972.87-6.663 2.59-1.684 1.728-2.523 3.928-2.523 6.598v11.42c0 3.14.595 6.284 1.76 9.425 1.188 3.133 2.897 5.945 5.13 8.413 2.23 2.472 4.988 4.5 8.243 6.067.63.305 1.278.572 1.94.82v20.49c0 2.67.863 4.87 2.594 6.598 1.73 1.727 3.925 2.59 6.598 2.59 2.734 0 5.024-.863 6.818-2.59 1.817-1.73 2.715-3.928 2.715-6.598V47.316c.63-.232 1.235-.496 1.817-.775 3.265-1.567 6.036-3.596 8.3-6.066 2.29-2.468 4.018-5.28 5.185-8.413 1.188-3.14 1.772-6.283 1.772-9.423V11.215c.002-2.67-.85-4.87-2.535-6.597z"/><path fill="url(#shape-icon-forfait-byou-c)" d="M383.217 46.665c-.73-1.915-1.626-3.698-2.703-5.34-1.09-1.645-2.298-3.09-3.646-4.343-1.347-1.25-2.648-2.27-3.903-3.052 1.165-1.486 2.243-3.23 3.23-5.23.987-1.988 1.48-4.355 1.48-7.1 0-3.594-.808-6.645-2.424-9.152-1.612-2.502-3.7-4.52-6.27-6.05-2.568-1.524-5.44-2.64-8.625-3.34C357.157 2.35 353.935 2 350.707 2h-15.65c-2.974 0-5.442.843-7.413 2.523-1.987 1.687-3.02 3.775-3.11 6.284V69.03c0 2.43 1.023 4.365 3.04 5.81 2.02 1.454 4.51 2.172 7.483 2.172h15.65c3.23 0 6.784-.33 10.66-.998 3.857-.66 7.502-1.913 10.924-3.75 3.412-1.842 6.26-4.33 8.56-7.457 2.3-3.13 3.444-7.162 3.444-12.094 0-2.11-.36-4.13-1.077-6.048zm-40.34-30.67h11.62c.81 0 1.524.167 2.132.493.604.333 1.11.742 1.513 1.217.405.48.71 1.026.91 1.633.2.612.312 1.166.312 1.67 0 .562-.112 1.116-.312 1.68-.2.555-.504 1.086-.91 1.59-.403.51-.908.916-1.514 1.218-.606.302-1.323.454-2.133.454h-11.62v-9.956zm21.222 37.644c-.314.86-.784 1.686-1.41 2.472-.63.79-1.416 1.414-2.356 1.884-.943.472-2.042.71-3.3.71h-13.81v-15.43h13.81c1.258 0 2.356.253 3.3.764.94.51 1.727 1.14 2.356 1.884.626.747 1.096 1.59 1.41 2.53.313.944.473 1.806.473 2.59 0 .864-.16 1.73-.474 2.595z"/><path fill="#0079BF" d="M398.887 76.973c-1.337 0-2.604-.23-3.783-.69-1.167-.45-2.206-1.07-3.082-1.846-.91-.784-1.638-1.71-2.177-2.76-.56-1.095-.854-2.284-.854-3.526 0-1.626.528-3.175 1.55-4.6.494-.68 1.076-1.308 1.75-1.887-.53-.493-.987-1.042-1.37-1.634-.414-.653-.75-1.35-.984-2.063-.27-.742-.394-1.506-.394-2.246 0-1.16.258-2.284.795-3.336.505-1.018 1.188-1.904 2.04-2.645.834-.72 1.808-1.302 2.92-1.73 1.112-.422 2.31-.646 3.59-.646 1.222 0 2.42.224 3.544.646 1.124.43 2.112 1.012 2.94 1.73.852.74 1.55 1.626 2.054 2.644.53 1.052.797 2.175.797 3.337 0 1.043-.244 2.082-.716 3.078-.448.976-1.122 1.875-1.974 2.66-.854.77-1.897 1.395-3.097 1.868l-.022.002 4.8 3.762 3.39-2.76c.46-.394 1.03-.602 1.66-.602 1.448 0 2.47.977 2.47 2.37 0 .525-.18 1.026-.54 1.492-.066.1-.158.183-.246.253l-.044.045c0 .006-.024.017-.024.023l-2.762 2.308 2.874 2.355c.023.02.033.03.043.042.54.457.832 1.093.832 1.786 0 1.4-1.012 2.378-2.47 2.378-.627 0-1.187-.21-1.658-.598l-3.522-2.828c-.572.438-1.122.826-1.613 1.163-.857.565-1.64 1.025-2.358 1.372-.763.37-1.503.646-2.196.82-.735.178-1.466.266-2.16.266zm-2.65-12.3c-.605.372-1.122.816-1.524 1.33-.518.66-.787 1.358-.787 2.147 0 .543.114 1.042.348 1.506.248.506.57.926 1 1.3.447.385.976.693 1.594.92.605.23 1.287.345 2.02.345.763 0 1.595-.247 2.446-.735.592-.338 1.256-.762 1.974-1.27l-7.07-5.54zm2.65-12.555c-.674 0-1.29.1-1.854.31-.548.192-1.02.463-1.392.794-.366.32-.648.687-.862 1.132-.203.422-.304.864-.304 1.367 0 .5.09.935.282 1.33.202.42.47.77.832 1.085.39.338.872.62 1.434.833.552.21 1.188.327 1.886.35.65 0 1.242-.1 1.773-.303.536-.197 1.008-.472 1.39-.804.358-.31.652-.683.854-1.128.203-.416.314-.863.314-1.362 0-.502-.11-.944-.314-1.367-.2-.442-.495-.812-.854-1.132-.382-.33-.854-.6-1.39-.8-.536-.203-1.144-.302-1.793-.302z"/><path fill="#0079BF" d="M398.887 76.973c-1.337 0-2.604-.23-3.783-.69-1.167-.45-2.206-1.07-3.082-1.846-.91-.784-1.638-1.71-2.177-2.76-.56-1.095-.854-2.284-.854-3.526 0-1.626.528-3.175 1.55-4.6.494-.68 1.076-1.308 1.75-1.887-.53-.493-.987-1.042-1.37-1.634-.414-.653-.75-1.35-.984-2.063-.27-.742-.394-1.506-.394-2.246 0-1.16.258-2.284.795-3.336.505-1.018 1.188-1.904 2.04-2.645.834-.72 1.808-1.302 2.92-1.73 1.112-.422 2.31-.646 3.59-.646 1.222 0 2.42.224 3.544.646 1.124.43 2.112 1.012 2.94 1.73.852.74 1.55 1.626 2.054 2.644.53 1.052.797 2.175.797 3.337 0 1.043-.244 2.082-.716 3.078-.448.976-1.122 1.875-1.974 2.66-.854.77-1.897 1.395-3.097 1.868l-.022.002 4.8 3.762 3.39-2.76c.46-.394 1.03-.602 1.66-.602 1.448 0 2.47.977 2.47 2.37 0 .525-.18 1.026-.54 1.492-.066.1-.158.183-.246.253l-.044.045c0 .006-.024.017-.024.023l-2.762 2.308 2.874 2.355c.023.02.033.03.043.042.54.457.832 1.093.832 1.786 0 1.4-1.012 2.378-2.47 2.378-.627 0-1.187-.21-1.658-.598l-3.522-2.828c-.572.438-1.122.826-1.613 1.163-.857.565-1.64 1.025-2.358 1.372-.763.37-1.503.646-2.196.82-.735.178-1.466.266-2.16.266zm-2.65-12.3c-.605.372-1.122.816-1.524 1.33-.518.66-.787 1.358-.787 2.147 0 .543.114 1.042.348 1.506.248.506.57.926 1 1.3.447.385.976.693 1.594.92.605.23 1.287.345 2.02.345.763 0 1.595-.247 2.446-.735.592-.338 1.256-.762 1.974-1.27l-7.07-5.54zm2.65-12.555c-.674 0-1.29.1-1.854.31-.548.192-1.02.463-1.392.794-.366.32-.648.687-.862 1.132-.203.422-.304.864-.304 1.367 0 .5.09.935.282 1.33.202.42.47.77.832 1.085.39.338.872.62 1.434.833.552.21 1.188.327 1.886.35.65 0 1.242-.1 1.773-.303.536-.197 1.008-.472 1.39-.804.358-.31.652-.683.854-1.128.203-.416.314-.863.314-1.362 0-.502-.11-.944-.314-1.367-.2-.442-.495-.812-.854-1.132-.382-.33-.854-.6-1.39-.8-.536-.203-1.144-.302-1.793-.302z"/><path fill="url(#shape-icon-forfait-byou-d)" d="M570.968 58.316c.785 0 1.65-.16 2.59-.475.944-.313 1.786-.783 2.536-1.41.74-.63 1.37-1.415 1.886-2.355.505-.944.764-2.044.764-3.3V11.334c0-2.984.918-5.26 2.77-6.832 1.84-1.563 4.094-2.35 6.767-2.35 2.75 0 4.97.864 6.653 2.586 1.682 1.73 2.533 3.927 2.533 6.597v39.445c0 3.14-.58 6.28-1.773 9.424-1.163 3.14-2.89 5.947-5.18 8.42-2.267 2.473-5.038 4.494-8.303 6.063-3.254 1.57-7 2.355-11.24 2.355s-7.986-.785-11.24-2.355c-3.25-1.57-6.015-3.59-8.244-6.063-2.23-2.473-3.938-5.28-5.127-8.42-1.17-3.143-1.763-6.283-1.763-9.424V11.333c0-2.67.84-4.868 2.523-6.597 1.694-1.723 3.903-2.585 6.664-2.585 2.67 0 4.923.79 6.772 2.35 1.844 1.572 2.763 3.85 2.763 6.833v39.445c0 1.256.235 2.355.705 3.3.47.94 1.1 1.726 1.885 2.354.784.627 1.605 1.097 2.48 1.412.848.312 1.714.472 2.578.472z"/><path fill="#00B5D8" d="M184.433 77.903c13.052 0 19.454-11.27 19.454-11.27V77.09l6.138.003V51.69c-.025-14.397-11.53-26.105-25.64-26.105-13.953.03-25.673 12.44-25.64 27.098.027 14.142 10.964 25.22 25.688 25.22zm-.014-6.21c-10.436 0-18.904-8.935-18.906-19.912-.026-10.804 8.72-19.966 18.834-19.984h.042c10.39 0 18.856 8.93 18.88 19.91.007 11-8.444 19.962-18.85 19.987zM237.403 11.87v45.865c-.014 6.618 1.473 11.91 4.804 15.32 4.768 4.865 12.152 6.097 22.81 3.557l-1.31-5.71c-13.242 3.49-19.66-.77-19.635-14.92V31.757h18.467V26.32H244.07V11.87h-6.67zM141.55 77.112h6.496V31.758h12.643v-5.415h-12.716l-.007-1.948c-.02-12.372 3.63-18.647 16.795-14.974l1.538-5.4c-2.932-.727-5.37-1.1-7.87-1.1-10.207 0-16.79 7.192-16.79 21.47v1.953h-6.42v5.415h6.33v45.354zM99.644 77.112h6.6V45.98c0-10.284 3.188-14.443 12.978-14.443 2.63 0 5.64.418 9.02 1.29l1.507-5.978c-4.022-.94-7.1-1.263-10.48-1.263-14.45 0-19.626 7.273-19.626 19.554v31.972zM219.326 26.36h6.603v50.733h-6.604zM227.193 8.592c0-2.636-2.142-4.785-4.785-4.785-2.645 0-4.788 2.15-4.788 4.785 0 2.648 2.143 4.788 4.788 4.788 2.64 0 4.785-2.14 4.785-4.788zM68.568 25.654c-14.137 0-25.6 11.69-25.6 26.12 0 14.43 11.462 26.128 25.6 26.128 14.143 0 25.61-11.7 25.61-26.128 0-14.43-11.467-26.12-25.61-26.12zm0 46.47c-10.806 0-19.56-9.11-19.56-20.35 0-11.238 8.755-20.345 19.56-20.345 10.805 0 19.562 9.107 19.562 20.345 0 11.24-8.757 20.348-19.562 20.348zM9.772 77.112V41.464H39.83v-5.83H9.784V16.703c0-6.21 1.43-8.54 7.437-8.54H43.1V2.013H17.036c-10.294 0-14.034 4.533-14.034 14.162L3 77.113h6.772zM270.392 73.887c4.578 2.427 10.65 4.017 17.46 4.017 10.574 0 17.78-6.02 17.78-15.345 0-9.534-6.964-12.468-16.58-15.304-6.013-1.78-11.464-3.457-11.464-8.872 0-2.262.945-7.225 9.647-7.225 5.214 0 9.59 1.167 13.94 3.38l1.747-5.56c-4.623-2.34-10.007-3.42-14.487-3.42-12.115 0-17.42 6.366-17.42 14.033 0 8.402 6.84 10.988 16.29 13.725 6.557 1.9 11.98 3.693 11.98 9.82 0 4.67-3.678 9.088-11.902 9.088-4.966 0-10.71-1.564-15.06-4.036l-1.93 5.697z"/></symbol><symbol id="shape-icon-forfait-pro" viewBox="0 0 1350 350"><path d="M1251.176 142.61c-43.082.088-77.885 35.084-77.806 78.14.108 44.228 36.948 79.773 81.603 77.735 39.7-1.8 72.366-34.447 74.235-74.136 2.117-44.825-33.685-81.81-78.032-81.74zm.228 126.403c-26.16.06-47.396-21.59-47.445-48.313-.05-26.726 21.106-48.45 47.255-48.5 26.16-.054 47.414 21.576 47.453 48.32.03 26.706-21.106 48.433-47.264 48.493zM1154.095 149.466c-10.91-2.55-19.964-3.637-30.265-3.637-40.584 0-60.315 19.663-60.315 60.116v94.28h30.818v-91.974c0-25.595 6.863-33.398 29.37-33.398 6.808 0 14.62 1.127 23.227 3.35l6.165 1.592 7.27-28.864-6.27-1.466zM976.566 61.145H890.17V300.47h29.275v-89.43h52.927c45.09 0 90.588-23.425 90.588-75.754v-.645c0-44.646-33.91-73.495-86.394-73.495zm-57.12 27.34h55.186c37.326 0 58.732 17.175 58.732 47.123v.645c0 28.57-24.12 47.767-60.022 47.767h-53.896V88.486zM581.232 300.115c40.618 0 60.537-35.07 60.537-35.07v32.538l19.097.01V218.54c-.078-44.8-35.88-81.23-79.783-81.23-43.418.095-79.893 38.716-79.783 84.327.09 44 34.11 78.478 79.932 78.478zm-.04-19.325c-32.47 0-58.827-27.8-58.836-61.962-.08-33.624 27.138-62.132 58.608-62.19h.13c32.33 0 58.677 27.79 58.746 61.954.03 34.228-26.267 62.118-58.648 62.198zM746.072 94.63v142.722c-.05 20.59 4.578 37.06 14.943 47.67 14.834 15.143 37.82 18.97 70.98 11.068l-4.074-17.772c-41.212 10.87-61.18-2.394-61.1-46.424V156.52h57.47V139.6h-57.47V94.63h-20.748zM447.795 297.652h20.215V156.518h39.343v-16.853h-39.57l-.03-6.062c-.058-38.497 11.295-58.025 52.27-46.592l4.788-16.808c-9.13-2.26-16.714-3.42-24.488-3.42-31.767 0-52.25 22.38-52.25 66.807v6.076h-19.978v16.853h19.702V297.65zM317.383 297.652h20.542v-96.884c0-31.997 9.92-44.943 40.382-44.943 8.18 0 17.555 1.3 28.068 4.016l4.688-18.603c-12.512-2.922-22.095-3.926-32.608-3.926-44.96 0-61.07 22.635-61.07 60.847v99.495zM689.815 139.72h20.542v157.874h-20.542zM714.295 84.43c0-8.205-6.667-14.89-14.895-14.89-8.23 0-14.895 6.686-14.895 14.89 0 8.243 6.665 14.898 14.895 14.898 8.228 0 14.895-6.656 14.895-14.9zM220.687 137.524c-44 0-79.665 36.375-79.665 81.285 0 44.9 35.664 81.306 79.665 81.306 44.01 0 79.685-36.406 79.685-81.307 0-44.91-35.674-81.286-79.685-81.286zm0 144.6c-33.626 0-60.874-28.344-60.874-63.315 0-34.975 27.247-63.315 60.874-63.315 33.617 0 60.864 28.34 60.864 63.314 0 34.97-27.246 63.315-60.863 63.315zM37.73 297.652v-110.93h93.53v-18.14h-93.5v-58.915c0-19.33 4.45-26.575 23.142-26.575h80.525V63.96h-81.09c-32.034 0-43.674 14.104-43.674 44.07 0 23.372 0 34.67-.01 189.622H37.73z"/></symbol><symbol id="shape-icon-forfait-sens" viewBox="0 0 104 13"><path d="M91.753 4.644c-2.094.004-3.785 1.705-3.78 3.796.005 2.15 1.795 3.876 3.965 3.777 1.93-.087 3.516-1.674 3.606-3.603.103-2.176-1.637-3.973-3.79-3.97zm.01 6.14c-1.27.005-2.302-1.048-2.305-2.347-.002-1.298 1.025-2.354 2.297-2.356 1.27 0 2.303 1.05 2.305 2.35.002 1.297-1.026 2.353-2.296 2.355zM62.466 6.094c-1.475.002-2.2 1.123-2.196 2.713v3.3h-1.612V8.81c-.005-2.58 1.67-4.16 3.982-4.163 2.293-.006 3.648 1.666 3.648 4.15v3.31h-1.61v-3.31c-.003-1.543-.606-2.707-2.212-2.703zM99.834 6.094c-1.476.002-2.198 1.123-2.196 2.713v3.3h-1.61V8.81c-.006-2.58 1.67-4.16 3.98-4.163 2.294-.006 3.648 1.666 3.648 4.15v3.31h-1.612v-3.31c0-1.543-.604-2.707-2.21-2.703zM80.407 8.428c-.006-2.09-1.703-3.782-3.795-3.78-2.09.006-3.783 1.822-3.78 3.913.006 2.093 1.702 3.666 3.795 3.663.887-.002 1.895-.445 2.337-1.053v.938h1.443V8.43zm-3.782 2.357c-1.247.004-2.26-1.048-2.263-2.345-.004-1.298 1.006-2.353 2.254-2.355 1.246-.003 2.26 1.047 2.264 2.346 0 1.3-1.008 2.353-2.255 2.355zM80.884 2.794v6.433c-.004 2.266 1.457 3.583 4.576 2.738l-.348-1.3c-1.623.538-2.676-.05-2.673-1.772v-2.83h2.613V4.76H82.44V2.793h-1.556zM86.94 3.18c.338-.08.61-.355.688-.693.14-.613-.324-1.154-.914-1.154-.516 0-.936.42-.934.938 0 .59.547 1.05 1.16.91zM87.494 12.107V4.76H85.94l-.002 7.347M46.813 10.71c1.43 0 1.956-.94 1.956-1.743 0-2.376-5.554-1.426-5.554-4.98 0-1.677 1.052-3.113 3.578-3.113 1.12 0 2.106.202 3.102.507l-.37 1.506c-1.133-.348-1.906-.506-2.962-.506-1.182 0-1.64.653-1.64 1.288 0 2.523 5.61 1.66 5.61 5.04 0 1.976-1.23 3.515-3.63 3.515-1.152 0-2.588-.214-3.68-.817l.53-1.433c1.162.555 2.074.738 3.06.738zM68.38 6.654c0-.394.3-.717 1.148-.717.753 0 1.52.22 2.178.583l.465-1.266c-.698-.38-1.58-.61-2.462-.61-1.986 0-2.858 1.05-2.858 2.17 0 2.505 4.228 1.767 4.228 3.138 0 .51-.486.98-1.488.98-.774 0-1.53-.224-2.322-.653l-.5 1.206c.835.508 1.824.736 2.895.736 1.887 0 2.91-1.027 2.91-2.347-.002-2.683-4.193-2.002-4.193-3.22zM58.09 7.272c-.335-1.575-1.673-2.63-3.36-2.627-2.09.005-3.72 1.702-3.716 3.792.004 2.15 1.73 3.785 3.893 3.785 1.08 0 2.195-.346 2.934-1.014l-.734-1.128c-.547.504-1.257.753-2.062.753-1.188 0-2.343-.9-2.51-1.927h4.254c1.33 0 1.552-.458 1.303-1.634zm-1.808.388h-3.704c.317-.92 1.125-1.577 2.153-1.58 1 0 1.606.522 1.803 1.2.07.247.043.38-.25.38z"/><g><path d="M28.206 12.237c1.973 0 2.94-1.704 2.94-1.704v1.58h.93v-3.84c-.005-2.176-1.744-3.946-3.877-3.946-2.11.004-3.883 1.88-3.877 4.097.003 2.138 1.656 3.813 3.883 3.813zm-.002-.938c-1.578 0-2.858-1.353-2.86-3.012-.003-1.634 1.32-3.02 2.85-3.022h.005c1.57 0 2.85 1.35 2.853 3.01.002 1.663-1.276 3.02-2.85 3.023zM36.215 2.253v6.934c-.002 1 .223 1.8.726 2.316.722.735 1.838.922 3.45.538l-.198-.863c-2.002.528-2.973-.115-2.97-2.256V5.26h2.793v-.822h-2.792V2.253h-1.008zM21.722 12.117h.982V5.26h1.912v-.82h-1.922v-.293c-.004-1.87.547-2.82 2.54-2.264l.23-.817c-.443-.11-.81-.167-1.19-.167-1.542 0-2.538 1.087-2.538 3.245v.295h-.97v.82h.957v6.857zM15.386 12.117h.998V7.41c0-1.555.482-2.184 1.962-2.184.397 0 .853.063 1.363.195l.227-.903c-.608-.142-1.073-.19-1.584-.19-2.185 0-2.968 1.1-2.968 2.956v4.834zM33.48 4.444h1v7.67h-1zM34.67 1.758c0-.4-.323-.724-.723-.724-.4 0-.724.325-.724.724 0 .4.324.724.724.724.4 0 .724-.324.724-.724zM10.688 4.337c-2.138 0-3.87 1.768-3.87 3.95 0 2.182 1.73 3.95 3.87 3.95s3.872-1.77 3.872-3.95c0-2.182-1.734-3.95-3.872-3.95zm0 7.026c-1.634 0-2.958-1.377-2.958-3.076 0-1.7 1.324-3.077 2.958-3.077 1.633 0 2.957 1.377 2.957 3.077s-1.324 3.076-2.957 3.076zM1.798 12.117v-5.39h4.544v-.88H1.8V2.984c0-.94.216-1.29 1.125-1.29h3.913v-.93h-3.94C1.34.763.776 1.447.776 2.903v9.213h1.022z"/></g></symbol><symbol id="shape-icon-gameloft" viewBox="308.017 227.527 797.485 554.257"><path fill="#1B1918" d="M442.64 687.672c6.408-4.826 15.59-3.21 23.19-2.544 4.68.41 6.894 3.21 8.225 6.75l35.847 88.786h-27.985c-1.712-6.537-3.572-14.308-5.878-20.667-11.946.202-23.892.06-35.85-.024l-6.762 20.69H406.85c12.376-30.783 23.548-62.17 35.79-92.99zm4.363 54.7c6.977-.037 13.954.023 20.93 0-1.45-11.364-6.394-22.454-10.387-33.246-4.03 10.757-9.58 21.858-10.543 33.245zM951.664 695.267c-.155-6.252 6.43-10.198 12.1-9.996l125.478.155c8.63 2.96 13.906 12.04 16.26 20.456l-42.837-.118-.155 74.916-23.677-.014-.665-76.316c-20.598.214-41.208.12-61.818.154-3.66 1.643-4.29 20.555 4.136 21.12l23.938-.415v16.343c-7.167-.677-14.37-.56-21.55-.475-4.135-.32-7.808 3.637-7.606 7.678l.178 31.91h-23.724c.18-28.203-.272-57.18-.058-85.396zM862.092 685.533c12.48-.725 25.02-.107 37.524-.31 6.775.155 14.24-1.117 20.277 2.806 9.52 5.954 14.37 17.685 14.025 28.668-.214 12.67.25 25.353-.238 38.01-.76 12.814-11.363 25.59-24.568 25.957-16.26.844-32.567-.27-48.84-.117-13.846-.57-19.86-16.378-21.204-28.134.167-14.275-.535-28.598 0-42.872.512-12.302 10.84-22.833 23.024-24.01zm9.854 19.326c-4.148 1.84-8.142 5.716-7.892 10.6-.38 10.71-.89 21.43-.737 32.14-.178 6.68 5.396 13.978 12.492 13.467 7.51-.083 15.082.57 22.558-.356 5.052-.582 10.436-4.04 10.816-9.53.796-11.483.166-23 .285-34.494.32-6.763-5.528-12.456-12.196-12.242-8.438.296-16.972-.56-25.328.415zM762.524 685.806c7.904-1.438 16.212.155 24.247-.94.43 22.525 0 45.072.203 67.608-.024 4.612 4.612 8.63 9.188 7.845 9.486-.43 18.995.236 28.444-.702 3.185 7.63 5.42 12.062 12.064 21.047h-67c-5.017-.06-7.358-6.024-6.918-10.398-.012-28.158-.392-56.315-.226-84.46zM662.862 698.833c-.31-6.335 4.695-12.67 10.983-13.574l70.21-.452.035 19.814c-18.09-.226-36.216-1.367-54.294-.5-5.432 5.718-5.278 20.314 5.313 19.244l43.834-.19.012 18.52-44.394-.025c-10.14-.154-12.076 13.884-4.09 18.103l54.188-.416c-.226 7.346.333 13.978.214 21.335l-71.006-.523c-5.503.213-11.327-4.018-10.995-9.914-.06-23.808-.023-47.616-.01-71.423zM521.86 697.633c.12-15.848 25.43-15.963 28.93-8.796 10.09 15.666 20.325 31.26 30.5 46.866 1.532 2.282 4.3.178 5.252-1.58 9.235-14.906 18.4-29.894 27.8-44.703 3.092-5.332 31.236-10.826 30.37 9.45l-.405 81.795h-23.83l-.655-62.6-36.418 63.72-36.31-61.414-.31 60.295h-25.317c.345-27.445-.237-55.588.393-83.032zM332.685 685.52c21.002-.83 42.087.548 63.078-.712.095 6.953.285 13.906-.07 20.86-13.3-.747-58.973-4.93-61.57 7.82-1.394 6.845-2.427 35.294 1.652 40.555 5.32 6.86 35.945 10.174 35.978-.012.32-8.022 2.08-16.544-3.542-23.224 9.77-.404 19.565-.12 29.335-.345 1.38 11.59.26 23.38.606 35.052.358 6.727-4.278 15.948-11.98 15.152h-49.956c-7.63.238-15.095-3.754-20.242-9.27-6.525-7.915-8.142-18.577-7.94-28.537.357-11.47-.202-22.952.273-34.41.703-12.502 12.256-22.19 24.38-22.926zM636.963 227.785c70.935-.44 141.917-.75 212.792 2.876 21.228 1.25 42.646 3.614 62.84 10.59 21.18 8.048 39.96 22.893 51.644 42.422 10.898 18.268 18.09 38.736 20.99 59.81 3.495 21.62 2.318 43.585 2.58 65.396.213 30.5.39 61.01.38 91.52-1.07 35.682-6.788 73.49-28.325 103.016-10.495 13.443-24.592 24.318-40.222 31.093-7.654 3.958-15.333-1.7-20.372-7.108-1.092-3.246 2.7-5.36 4.506-7.513 18.47-16.438 30.38-39.52 34.956-63.672 4.374-23.487 5.11-47.437 5.278-71.268-.773-31.82-1.474-63.756-5.93-95.325-2.283-16.7-7.11-33.494-17.08-47.294-9.748-12.397-22.477-23.272-38.012-27.373-11.197-3.268-22.94-2.02-34.422-2.805-81.99-2.282-164.037-4.172-246.06-2.33-25.08 1.866-50.766-3.02-75.37 3.518-22.522 5.3-36.18 28.538-38.39 50.29-2.306 32.055-1.165 64.218-1.854 96.322 0 21.3 3.078 44.382 18.03 60.75 8.666 12.122 23.274 18.612 38 18.743 79.184 4.053 158.557 2.9 237.848 3.59 10.84-.548 22 1.26 32.59-1.69 12.09-5.05 18.626-18.814 18.555-31.425.12-12.254 1.058-24.9-2.496-36.787-2.08-6.976-9.712-10.4-16.558-9.995-80.8 1.64-161.624 2.508-242.436 3.85-14.085-.58-29.06 5.528-35.836 18.472-10.067-1.2-20.396-1.795-30.154-4.6-1.605-27.836-2.33-55.804-1.462-83.688 1.248-24.058 23.237-43.908 47.104-43.777 94.314-2.544 188.735-3.685 283.062-1.022 24.948 1.713 52.44 7.358 69.4 27.41 13.147 14.156 20.61 32.71 22.846 51.763 3.328 27.98 1.83 56.22 2.08 84.318-.797 19.066-.94 38.654-8.058 56.66-10.983 31.463-40.424 54.248-72.8 60.167-15.025 2.912-30.37 2.46-45.583 3.09-109.35 2.83-218.95 2.9-328.097-4.98-21.75-.523-40.555-14.703-50.74-33.304-12.885-23.332-15.226-50.68-16.38-76.818-.143-60.63-1.688-121.27-1.902-181.913.868-21.882 3.6-44.93 16.188-63.506 13.063-21.074 36.276-33.565 59.93-38.867 51.975-7.155 104.593-6.858 156.94-8.605z"/></symbol><symbol id="shape-icon-good-deal" viewBox="0 0 32 29"><title>icon-bonplan@1x</title><path d="M29.43 16.33h-1.225c1.048 0 1.893.89 1.893 1.985 0 1.088-.845 1.976-1.893 1.976h-1.218c1.04 0 1.885.89 1.885 1.977 0 1.096-.845 1.984-1.885 1.984H25.77c1.04 0 1.883.88 1.883 1.977 0 1.096-.844 1.976-1.884 1.976H13.386s-.408.018-.907-.028c-.853-.072-2-.317-2-1.123V15.225s6.907-3.743 6.907-11.836c0 0-.33-2.91 1.386-3.046h.25c.996.073 1.77 1.133 2.257 2.583.4 1.17.614 2.583.614 3.95 0 3.155-1.226 5.502-1.226 5.502h8.763c1.04 0 1.886.887 1.886 1.975s-.845 1.976-1.885 1.976M.623 14.066v.154L1.84 28.365h7.37v-14.3H.62zM7.244 25.32c-.097.38-.31.717-.603.96-.328.282-.737.454-1.19.454-1.04 0-1.876-.852-1.876-1.903 0-1.06.836-1.91 1.876-1.91 1.03 0 1.866.85 1.866 1.91 0 .173-.027.337-.072.49z" fill-rule="evenodd"/></symbol><symbol id="shape-icon-logo-bandyou" viewBox="0 0 340.158 119.055"><path fill="url(#shape-icon-logo-bandyou-a)" d="M219.106 11.558c6.375 0 12.38 1.216 17.99 3.63 5.604 2.42 10.525 5.73 14.73 9.943 4.203 4.21 7.523 9.12 9.955 14.735 2.41 5.614 3.626 11.616 3.626 17.998 0 6.39-1.217 12.392-3.625 18-2.43 5.614-5.75 10.502-9.954 14.658-4.205 4.164-9.127 7.456-14.73 9.876-5.61 2.42-11.615 3.63-17.99 3.63-6.39 0-12.39-1.21-18.006-3.63s-10.512-5.712-14.658-9.875c-4.164-4.155-7.455-9.043-9.873-14.658-2.423-5.607-3.626-11.61-3.626-18 0-6.38 1.203-12.383 3.625-17.997 2.417-5.615 5.708-10.524 9.872-14.734 4.146-4.212 9.043-7.522 14.658-9.942 5.615-2.414 11.617-3.63 18.006-3.63zM196.012 58.01c0 3.194.61 6.195 1.826 9.004 1.2 2.806 2.875 5.274 5.004 7.398 2.13 2.13 4.592 3.806 7.398 5.005 2.81 1.22 5.81 1.82 9.006 1.82 3.19 0 6.193-.602 8.988-1.82 2.818-1.2 5.28-2.876 7.41-5.005 2.13-2.124 3.79-4.593 5.006-7.398 1.22-2.81 1.828-5.81 1.828-9.004 0-3.192-.61-6.19-1.828-9.003-1.217-2.8-2.875-5.27-5.006-7.397-2.13-2.13-4.592-3.798-7.41-5.007-2.795-1.21-5.797-1.817-8.988-1.817-3.197 0-6.197.608-9.006 1.817-2.807 1.21-5.27 2.876-7.398 5.007-2.13 2.13-3.803 4.6-5.004 7.397-1.216 2.813-1.826 5.81-1.826 9.003z"/><path fill="url(#shape-icon-logo-bandyou-b)" d="M164.508 14.752c-2.077-2.122-4.813-3.194-8.204-3.194-3.29 0-6.07.975-8.338 2.904-2.282 1.938-3.416 4.744-3.416 8.422v14.078c0 1.55-.317 2.904-.94 4.067-.637 1.16-1.41 2.128-2.323 2.9-.926.775-1.963 1.356-3.126 1.744-1.158.388-2.223.58-3.193.58-1.064 0-2.13-.192-3.18-.58-1.077-.388-2.09-.97-3.057-1.743-.97-.772-1.74-1.74-2.324-2.9-.58-1.164-.87-2.52-.87-4.068V22.884c0-3.678-1.133-6.485-3.4-8.422-2.284-1.93-5.062-2.904-8.355-2.904-3.387 0-6.124 1.072-8.21 3.194-2.077 2.13-3.114 4.84-3.114 8.132v14.078c0 3.87.733 7.744 2.17 11.618 1.467 3.863 3.57 7.327 6.32 10.37 2.753 3.05 6.153 5.546 10.167 7.48.774.375 1.574.706 2.39 1.01V92.7c0 3.292 1.065 6.004 3.196 8.13 2.128 2.13 4.84 3.198 8.13 3.198 3.375 0 6.195-1.07 8.408-3.197 2.24-2.126 3.346-4.838 3.346-8.13V67.386c.776-.285 1.52-.61 2.24-.956 4.025-1.934 7.442-4.43 10.234-7.48 2.822-3.042 4.95-6.506 6.39-10.37 1.466-3.873 2.184-7.746 2.184-11.617v-14.08c0-3.29-1.05-6-3.124-8.13z"/><path fill="url(#shape-icon-logo-bandyou-c)" d="M74.34 66.585c-.898-2.36-2.005-4.56-3.332-6.583-1.342-2.026-2.833-3.81-4.494-5.353-1.662-1.543-3.264-2.803-4.812-3.763 1.437-1.832 2.766-3.98 3.98-6.445 1.22-2.453 1.826-5.37 1.826-8.754 0-4.43-.995-8.192-2.987-11.283-1.99-3.084-4.56-5.573-7.73-7.454-3.166-1.88-6.707-3.254-10.633-4.12-3.943-.87-7.912-1.307-11.894-1.307h-19.29c-3.665 0-6.71 1.04-9.14 3.113-2.45 2.08-3.724 4.652-3.833 7.744v71.77c0 2.995 1.26 5.382 3.748 7.166 2.488 1.79 5.56 2.677 9.224 2.677h19.292c3.982 0 8.365-.408 13.14-1.232 4.755-.812 9.248-2.355 13.467-4.622 4.206-2.27 7.717-5.334 10.55-9.19 2.838-3.86 4.248-8.832 4.248-14.91 0-2.6-.443-5.088-1.327-7.453zm-49.73-37.81h14.327c.998 0 1.88.208 2.628.608.746.408 1.368.915 1.867 1.5.5.596.873 1.266 1.12 2.012.25.756.388 1.44.388 2.062 0 .69-.137 1.376-.387 2.068-.248.685-.622 1.34-1.12 1.963-.5.628-1.122 1.128-1.868 1.5-.747.374-1.63.562-2.628.562H24.61V28.776zm26.165 46.406c-.387 1.063-.967 2.08-1.74 3.048-.776.97-1.744 1.743-2.905 2.325-1.162.577-2.517.87-4.065.87H25.04V62.408h17.024c1.55 0 2.904.31 4.065.94s2.128 1.404 2.903 2.323c.774.922 1.354 1.958 1.74 3.12s.583 2.226.583 3.192c0 1.067-.194 2.13-.58 3.2z"/><path fill="#0081C8" d="M93.656 103.943c-1.647 0-3.21-.282-4.663-.85-1.438-.556-2.722-1.32-3.8-2.277-1.124-.966-2.02-2.107-2.683-3.4-.692-1.35-1.052-2.814-1.052-4.348 0-2.008.65-3.915 1.91-5.672.607-.837 1.326-1.61 2.156-2.322-.65-.608-1.217-1.287-1.688-2.017-.513-.805-.925-1.662-1.215-2.54-.333-.92-.483-1.86-.483-2.772 0-1.433.317-2.816.98-4.115.623-1.253 1.466-2.346 2.517-3.26 1.025-.884 2.226-1.602 3.598-2.13 1.368-.522 2.85-.794 4.426-.794 1.504 0 2.986.27 4.368.795 1.382.528 2.6 1.246 3.623 2.13 1.05.914 1.908 2.007 2.53 3.26.652 1.3.982 2.683.982 4.115 0 1.285-.303 2.564-.885 3.793-.553 1.203-1.383 2.312-2.434 3.278-1.05.948-2.338 1.722-3.818 2.305-.013 0-.027.005-.027.005l5.918 4.634 4.177-3.4c.567-.487 1.27-.742 2.045-.742 1.785 0 3.044 1.206 3.044 2.926 0 .645-.22 1.265-.664 1.838-.083.118-.195.223-.304.31l-.055.057c0 .006-.03.02-.03.027l-3.4 2.844 3.54 2.905c.028.02.04.033.054.05.666.565 1.024 1.346 1.024 2.202 0 1.723-1.245 2.93-3.043 2.93-.774 0-1.464-.26-2.047-.736l-4.342-3.484c-.705.538-1.382 1.017-1.99 1.43-1.053.7-2.02 1.268-2.906 1.696-.94.457-1.853.795-2.708 1.01-.9.21-1.8.32-2.656.32zM90.392 88.78c-.747.46-1.384 1.01-1.88 1.644-.638.81-.97 1.675-.97 2.645 0 .67.14 1.285.428 1.857.305.62.705 1.14 1.232 1.603.55.472 1.2.85 1.964 1.134.746.283 1.588.425 2.49.425.937 0 1.963-.306 3.013-.91.73-.415 1.548-.938 2.432-1.565l-8.71-6.835zm3.264-15.475c-.83 0-1.59.124-2.283.38-.677.242-1.26.574-1.716.982-.455.394-.802.843-1.064 1.396-.248.52-.374 1.064-.374 1.683 0 .615.11 1.153.347 1.638.248.52.58.953 1.023 1.34.48.415 1.077.763 1.77 1.025.677.26 1.465.406 2.323.434.803 0 1.533-.124 2.186-.372.662-.245 1.242-.583 1.712-.992.443-.386.804-.842 1.052-1.395.25-.51.387-1.063.387-1.68s-.136-1.163-.386-1.682c-.248-.545-.61-1.002-1.052-1.396-.47-.408-1.05-.74-1.713-.988-.665-.25-1.413-.375-2.214-.375z"/><path fill="#0081C8" d="M93.656 103.943c-1.647 0-3.21-.282-4.663-.85-1.438-.556-2.722-1.32-3.8-2.277-1.124-.966-2.02-2.107-2.683-3.4-.692-1.35-1.052-2.814-1.052-4.348 0-2.008.65-3.915 1.91-5.672.607-.837 1.326-1.61 2.156-2.322-.65-.608-1.217-1.287-1.688-2.017-.513-.805-.925-1.662-1.215-2.54-.333-.92-.483-1.86-.483-2.772 0-1.433.317-2.816.98-4.115.623-1.253 1.466-2.346 2.517-3.26 1.025-.884 2.226-1.602 3.598-2.13 1.368-.522 2.85-.794 4.426-.794 1.504 0 2.986.27 4.368.795 1.382.528 2.6 1.246 3.623 2.13 1.05.914 1.908 2.007 2.53 3.26.652 1.3.982 2.683.982 4.115 0 1.285-.303 2.564-.885 3.793-.553 1.203-1.383 2.312-2.434 3.278-1.05.948-2.338 1.722-3.818 2.305-.013 0-.027.005-.027.005l5.918 4.634 4.177-3.4c.567-.487 1.27-.742 2.045-.742 1.785 0 3.044 1.206 3.044 2.926 0 .645-.22 1.265-.664 1.838-.083.118-.195.223-.304.31l-.055.057c0 .006-.03.02-.03.027l-3.4 2.844 3.54 2.905c.028.02.04.033.054.05.666.565 1.024 1.346 1.024 2.202 0 1.723-1.245 2.93-3.043 2.93-.774 0-1.464-.26-2.047-.736l-4.342-3.484c-.705.538-1.382 1.017-1.99 1.43-1.053.7-2.02 1.268-2.906 1.696-.94.457-1.853.795-2.708 1.01-.9.21-1.8.32-2.656.32zM90.392 88.78c-.747.46-1.384 1.01-1.88 1.644-.638.81-.97 1.675-.97 2.645 0 .67.14 1.285.428 1.857.305.62.705 1.14 1.232 1.603.55.472 1.2.85 1.964 1.134.746.283 1.588.425 2.49.425.937 0 1.963-.306 3.013-.91.73-.415 1.548-.938 2.432-1.565l-8.71-6.835zm3.264-15.475c-.83 0-1.59.124-2.283.38-.677.242-1.26.574-1.716.982-.455.394-.802.843-1.064 1.396-.248.52-.374 1.064-.374 1.683 0 .615.11 1.153.347 1.638.248.52.58.953 1.023 1.34.48.415 1.077.763 1.77 1.025.677.26 1.465.406 2.323.434.803 0 1.533-.124 2.186-.372.662-.245 1.242-.583 1.712-.992.443-.386.804-.842 1.052-1.395.25-.51.387-1.063.387-1.68s-.136-1.163-.386-1.682c-.248-.545-.61-1.002-1.052-1.396-.47-.408-1.05-.74-1.713-.988-.665-.25-1.413-.375-2.214-.375z"/><path fill="url(#shape-icon-logo-bandyou-d)" d="M305.786 80.947c.97 0 2.035-.195 3.193-.584 1.163-.387 2.202-.967 3.128-1.74.912-.775 1.688-1.744 2.322-2.905.62-1.162.94-2.517.94-4.065V23.03c0-3.68 1.132-6.486 3.415-8.422 2.27-1.93 5.05-2.898 8.342-2.898 3.39 0 6.125 1.064 8.2 3.188 2.073 2.13 3.124 4.84 3.124 8.13v48.624c0 3.87-.718 7.744-2.183 11.617-1.44 3.87-3.568 7.33-6.39 10.38-2.792 3.048-6.212 5.536-10.233 7.474-4.01 1.935-8.63 2.904-13.86 2.904-5.224 0-9.843-.97-13.854-2.904-4.008-1.938-7.41-4.426-10.164-7.475-2.75-3.05-4.854-6.51-6.32-10.38-1.438-3.874-2.172-7.75-2.172-11.618V23.03c0-3.292 1.037-6.003 3.113-8.132 2.086-2.124 4.812-3.188 8.215-3.188 3.29 0 6.07.968 8.352 2.898 2.27 1.936 3.4 4.742 3.4 8.42v48.624c0 1.55.293 2.903.87 4.065.583 1.16 1.358 2.13 2.327 2.904.966.775 1.98 1.355 3.058 1.742 1.05.39 2.113.585 3.178.585z"/></symbol><symbol id="shape-icon-logo-text-miami" viewBox="0 0 402 64"><path fill="#00B5D8" d="M33.88 28.66c2.952-2.88 4.826-6.734 4.826-10.518 0-9.556-6.47-15.71-17.686-15.71H.81V49c0 5.262.935 8.896 3.11 11.21 2.182 2.347 5.505 3.448 16.412 3.448 15.973 0 24.284-7.79 24.284-19.174 0-7.035-3.353-13.113-10.736-15.824M9.853 18.082v-8.055h9.152c4.9 0 11.13 1.447 11.13 7.928 0 5.79-5.37 8.553-10.264 8.553H9.853v-8.426zm12.257 37.7c-7.248 0-9.63-.126-10.855-1.42-1.273-1.356-1.403-3.964-1.403-8.52V34.104h12.2c9.574 0 13.39 4.61 13.39 10.94 0 6.898-4.847 10.738-13.332 10.738M48.305 3.94v38.613c.03 11.682 9.4 21.125 21.077 21.105C81.05 63.638 90.5 53.5 90.472 41.816c-.024-11.67-8.745-20.447-20.42-20.428-4.945.008-10.573 2.484-13.03 5.877 0 0-.028-19.105-.028-23.324h-8.69zm21.058 51.7c-6.96.015-12.618-5.85-12.63-13.104-.012-7.234 5.622-13.118 12.583-13.133 6.962-.012 12.62 5.84 12.628 13.084.018 7.247-5.617 13.138-12.58 13.154M168.346 42.533c5.86-3.38 9.795-10.234 9.073-20.35h-8.545c.616 9.464-3.693 16.758-11.006 16.758-7.322 0-11.6-7.424-11.13-16.758h-8.452c-.802 9.793 2.948 16.66 9.092 20.438-6.095 3.59-9.824 10.314-9.092 20.47h8.545c-.43-10.31 3.42-16.765 11.012-16.765 7.584 0 11.578 6.61 11.127 16.764h8.45c.85-10.574-3.047-17.174-9.076-20.557M115.333 21.193c-11.737.025-21.21 9.55-21.188 21.264.025 11.74 9.54 21.223 21.268 21.2 11.72-.02 21.21-9.542 21.187-21.284-.017-11.715-9.547-21.196-21.267-21.18m.063 34.416c-7.12.013-12.906-5.886-12.92-13.17-.012-7.278 5.746-13.178 12.867-13.19 7.12-.014 12.912 5.86 12.92 13.143.015 7.277-5.746 13.2-12.867 13.216"/><path fill="#05D0A6" d="M295.978 19.367c-11.8.03-21.748 10.517-21.725 22.908.026 12.19 9.384 21.383 21.767 21.383 7.423 0 12.28-4.195 14.726-7.047v6.392l6.96.006v-21.54c-.024-12.187-9.77-22.1-21.728-22.1m.008 7.02c7.845 0 14.24 6.774 14.257 15.098.012 8.34-6.375 15.14-14.233 15.152-7.87 0-14.278-6.77-14.287-15.096-.008-3.955 1.506-7.74 4.267-10.657 2.697-2.852 6.33-4.49 9.964-4.498l-.003-1 .036 1zM261.455 19.996h7.337v43.012h-7.337zM393.91 19.996h7.34v43.012h-7.34zM369.47 19.367c-5.38 0-10.387 2.475-13.662 6.687-3.274-4.212-8.284-6.687-13.664-6.687-9.553 0-17.324 7.77-17.324 17.325v26.316h7.317l.005-26.875c0-5.52 4.487-10.008 10.002-10.008s10.002 4.488 10.004 10.008v26.875h7.316l.004-26.875c0-5.52 4.488-10.008 10.004-10.008 5.514 0 10 4.488 10 10.008l.004 26.875h7.316l.004-26.316c0-9.554-7.772-17.325-17.326-17.325M247.982.34c-2.56 0-4.86 1.532-5.856 3.896-2.297 5.285-11.48 26.205-14.05 31.87-.265.583-.816 1.8-1.02 1.948-.002 0-.037.01-.147.01-.092 0-.13-.004-.132-.004-.23-.172-.773-1.375-1.037-1.955-2.548-5.614-11.74-26.563-14.044-31.86-1-2.373-3.3-3.904-5.86-3.904-3.507 0-6.36 2.874-6.36 6.405l.002 56.263h7.54v-50.36c2.9 6.442 8.238 18.28 11.026 24.4 2.897 6.36 5.052 8.403 8.865 8.403 3.767 0 6.003-2.12 8.863-8.4C238.53 31 243.82 19.262 246.8 12.65v50.358h7.54V6.745c0-3.53-2.852-6.404-6.358-6.404"/></symbol><symbol id="shape-icon-pdf-file" viewBox="0 0 32 32"><path d="M3.79 3.033h11.093V7.96c0 .445.165.873.48 1.188.317.313.74.473 1.185.47l4.99-.046h.03v9.55h2.57V9.514c0-1.11-.423-2.178-1.205-2.968l-4.95-4.993C17.19.753 16.12.316 14.995.316H3.505c-1.258 0-2.285.994-2.285 2.252v24.424c0 1.257 1.027 2.27 2.284 2.27h6.018v-2.573h-5.73V3.032zm13.665 1.77L19.735 7h-.006l-2.275.053v-2.25z"/><path d="M6.966 8.544h3.607c.718 0 1.3-.568 1.3-1.288 0-.717-.582-1.284-1.3-1.284H6.966c-.72 0-1.3.567-1.3 1.284 0 .72.58 1.288 1.3 1.288zM18.46 10.967H6.967c-.72 0-1.3.566-1.3 1.285s.58 1.287 1.3 1.287H18.46c.72 0 1.303-.57 1.303-1.288s-.583-1.285-1.302-1.285zM18.46 15.815H6.967c-.72 0-1.3.68-1.3 1.396 0 .72.58 1.397 1.3 1.397H18.46c.72 0 1.303-.678 1.303-1.396 0-.716-.583-1.395-1.302-1.395zM5.666 22.098c0 .718.58 1.284 1.3 1.284h2.556v-2.57H6.966c-.72 0-1.3.57-1.3 1.286zM17.015 24.567c-.252 0-.442.024-.515.05v1.618c.147.023.238.03.418.03.658 0 1.067-.33 1.067-.894 0-.502-.353-.803-.97-.803z"/><path d="M13.31 20.738c-1.038 0-1.88.84-1.88 1.88v7.554c0 1.038.842 1.88 1.88 1.88H30.12c1.038 0 1.88-.842 1.88-1.88v-7.555c0-1.038-.842-1.88-1.88-1.88H13.31zm5.4 5.903c-.424.4-1.054.578-1.785.578-.163 0-.277-.007-.425-.024v1.993h-1.25v-5.44c.44-.065.934-.113 1.69-.113.764 0 1.315.147 1.682.44.35.275.588.73.588 1.266 0 .535-.177.99-.5 1.3zm5.23 1.862c-.578.48-1.446.708-2.52.708-.642 0-1.1-.04-1.395-.08v-5.383c.44-.073 1.037-.114 1.663-.114 1.04 0 1.71.187 2.24.585.567.423.923 1.098.923 2.064.003 1.05-.382 1.774-.91 2.22zm5.048-3.797H26.93v1.248h1.983v1.028H26.93v2.206h-1.248v-5.51h3.306v1.03z"/><path d="M21.823 24.584c-.276 0-.475.024-.548.05v3.584c.073.025.264.025.416.025 1.123.007 1.843-.61 1.843-1.92.007-1.136-.645-1.74-1.71-1.74z"/></symbol><symbol id="shape-icon-promo-flat" viewBox="0 0 134 138"><title>forme_plate</title><path d="M.03 0L0 128.344C0 139.462 10.37 137 10.37 137s107.858-13.52 114.123-14.8c7.72-1.577 9.226-9.216 9.226-9.216V.084L.03 0z"/></symbol><symbol id="shape-icon-promo-round" viewBox="0 0 134 148"><title>forme_ronde</title><path d="M133.72 10.083C133.72-.062 124.03 0 124.03 0h-114s-10-.082-10 10L0 138.344C0 149.462 10.37 147 10.37 147s107.858-13.52 114.123-14.8c7.72-1.577 9.226-9.216 9.226-9.216v-112.9"/></symbol><symbol id="shape-icon-r-check" viewBox="0 0 792 612"><path fill="#FFF" d="M242.5 163.5h332v280h-332z"/><path d="M403.484 65.686c-130.98 0-237.156 107.3-237.156 239.657C166.328 437.7 272.506 545 403.484 545c130.98 0 237.155-107.3 237.155-239.657 0-132.357-106.178-239.657-237.156-239.657zM558.45 256.104L412.506 422.02c-7.188 8.176-17.2 12.367-27.284 12.367-8.008 0-16.06-2.646-22.775-8.08l-91.216-73.74c-15.73-12.71-18.285-35.917-5.69-51.815 12.577-15.913 35.55-18.49 51.28-5.76l64.16 51.867L503.918 207.1c13.37-15.213 36.44-16.6 51.505-3.06 15.062 13.54 16.418 36.834 3.028 52.064z"/><path fill="#FFF" d="M401.596 2C235.5 2 100.856 138.066 100.856 305.907c0 167.842 134.645 303.907 300.738 303.907 166.092 0 300.733-136.065 300.733-303.907C702.327 138.067 567.685 2 401.597 2zm1.813 542.657c-130.98 0-237.158-107.3-237.158-239.657 0-132.357 106.18-239.657 237.157-239.657 130.976 0 237.154 107.3 237.154 239.657 0 132.357-106.176 239.657-237.155 239.657z"/></symbol><symbol id="shape-icon-r-error" viewBox="0 0 792 612"><circle cx="404.979" cy="305.955" r="240.888"/><path fill="#FFF" d="M401.596 2C235.5 2 100.856 138.066 100.856 305.907c0 167.842 134.645 303.907 300.738 303.907 166.092 0 300.733-136.065 300.733-303.907C702.327 138.067 567.685 2 401.597 2zm1.813 542.657c-130.98 0-237.158-107.3-237.158-239.657 0-132.357 106.18-239.657 237.157-239.657 130.976 0 237.154 107.3 237.154 239.657 0 132.357-106.176 239.657-237.155 239.657z"/><path fill="#FFF" d="M572.652 215.16l-79.026-79.083-91.404 91.404-91.375-91.403-79.056 79.082 91.406 91.346-91.405 91.404 79.057 79.084 91.375-91.405 91.404 91.404 79.026-79.084-91.375-91.404 91.375-91.347z"/></symbol><symbol id="shape-icon-spotify-colored" viewBox="0 0 566.93 170.04"><path d="M87.996 1.277c-46.25 0-83.743 37.493-83.743 83.742 0 46.253 37.494 83.744 83.743 83.744 46.25 0 83.743-37.49 83.743-83.745 0-46.247-37.49-83.74-83.745-83.74zm38.404 120.78c-1.504 2.467-4.718 3.24-7.177 1.737-19.665-12.02-44.417-14.734-73.567-8.075-2.81.643-5.61-1.118-6.25-3.926-.642-2.81 1.11-5.61 3.927-6.25 31.9-7.292 59.263-4.153 81.336 9.335 2.46 1.51 3.24 4.72 1.73 7.18zm10.25-22.8c-1.894 3.074-5.912 4.038-8.98 2.15-22.506-13.833-56.823-17.84-83.448-9.758-3.453 1.042-7.1-.904-8.148-4.35-1.04-3.454.907-7.094 4.354-8.144 30.413-9.228 68.22-4.758 94.07 11.127 3.07 1.89 4.04 5.91 2.15 8.976zm.88-23.743c-26.994-16.03-71.52-17.505-97.29-9.684-4.137 1.255-8.513-1.08-9.767-5.22-1.254-4.14 1.08-8.512 5.22-9.77 29.582-8.98 78.757-7.245 109.83 11.202 3.723 2.21 4.944 7.016 2.738 10.733-2.2 3.722-7.02 4.95-10.73 2.74zM232.09 78.586c-14.46-3.448-17.033-5.868-17.033-10.953 0-4.804 4.523-8.037 11.25-8.037 6.52 0 12.984 2.455 19.762 7.51.204.152.46.213.714.173.253-.04.477-.178.625-.387l7.06-9.952c.29-.41.21-.974-.18-1.287-8.068-6.473-17.152-9.62-27.77-9.62-15.612 0-26.517 9.37-26.517 22.774 0 14.375 9.407 19.465 25.663 23.394 13.836 3.188 16.17 5.858 16.17 10.63 0 5.29-4.72 8.578-12.32 8.578-8.44 0-15.324-2.843-23.025-9.512-.19-.165-.452-.24-.694-.226-.255.02-.488.14-.65.334l-7.916 9.42c-.332.392-.29.976.094 1.314 8.96 8 19.98 12.224 31.872 12.224 16.823 0 27.694-9.192 27.694-23.42.03-12.01-7.16-18.66-24.77-22.943zM294.95 64.326c-7.292 0-13.273 2.872-18.205 8.757V66.46c0-.524-.424-.95-.946-.95H262.85c-.523 0-.946.426-.946.95v73.6c0 .524.423.95.946.95H275.8c.52 0 .945-.426.945-.95V116.83c4.933 5.536 10.915 8.24 18.205 8.24 13.55 0 27.265-10.43 27.265-30.367.02-19.942-13.7-30.375-27.25-30.375zM307.16 94.7c0 10.154-6.254 17.24-15.21 17.24-8.852 0-15.53-7.408-15.53-17.24 0-9.83 6.678-17.237 15.53-17.237 8.81 0 15.21 7.247 15.21 17.237zM357.37 64.326c-17.45 0-31.12 13.436-31.12 30.592 0 16.97 13.577 30.264 30.906 30.264 17.51 0 31.223-13.39 31.223-30.48 0-17.032-13.62-30.374-31.01-30.374zm0 47.714c-9.28 0-16.278-7.457-16.278-17.344 0-9.93 6.755-17.134 16.064-17.134 9.34 0 16.385 7.457 16.385 17.35 0 9.928-6.8 17.128-16.17 17.128zM425.64 65.51h-14.247V50.944c0-.522-.422-.948-.945-.948h-12.945c-.524 0-.95.426-.95.948V65.51h-6.224c-.522 0-.944.426-.944.95v11.126c0 .522.422.95.943.95h6.224v28.79c0 11.635 5.79 17.534 17.212 17.534 4.644 0 8.497-.96 12.128-3.018.295-.165.478-.483.478-.82v-10.597c0-.327-.17-.636-.45-.807-.282-.177-.633-.186-.922-.043-2.494 1.255-4.905 1.834-7.6 1.834-4.154 0-6.007-1.887-6.007-6.114V78.54h14.247c.523 0 .944-.426.944-.95V66.466c.02-.523-.4-.95-.93-.95zM475.28 65.567v-1.79c0-5.262 2.018-7.61 6.544-7.61 2.7 0 4.867.537 7.295 1.347.298.094.61.047.853-.132.25-.18.39-.466.39-.77v-10.91c0-.417-.267-.786-.67-.91-2.564-.762-5.846-1.545-10.76-1.545-11.958 0-18.28 6.734-18.28 19.467v2.74h-6.22c-.52 0-.95.426-.95.948v11.184c0 .522.43.95.95.95h6.22v44.408c0 .523.423.95.945.95h12.947c.523 0 .95-.427.95-.95V78.538h12.087l18.517 44.398c-2.103 4.665-4.17 5.593-6.992 5.593-2.28 0-4.683-.682-7.14-2.026-.23-.127-.504-.148-.753-.07-.247.086-.455.27-.56.51l-4.388 9.627c-.21.456-.03.99.408 1.226 4.58 2.48 8.716 3.54 13.827 3.54 9.56 0 14.844-4.453 19.502-16.433l22.46-58.04c.114-.292.08-.622-.1-.88-.177-.258-.464-.413-.778-.413h-13.478c-.404 0-.765.257-.897.636l-13.806 39.438L498.28 66.18c-.137-.367-.49-.61-.883-.61h-22.12zM446.5 65.51h-12.947c-.523 0-.95.426-.95.95v56.484c0 .523.427.95.95.95H446.5c.522 0 .95-.427.95-.95v-56.48c0-.524-.42-.95-.95-.95zM440.1 39.79c-5.13 0-9.29 4.153-9.29 9.282 0 5.132 4.162 9.29 9.29 9.29 5.127 0 9.285-4.158 9.285-9.29 0-5.128-4.16-9.28-9.28-9.28zM553.52 83.67c-5.124 0-9.11-4.114-9.11-9.11s4.038-9.16 9.158-9.16c5.124 0 9.11 4.114 9.11 9.107 0 4.997-4.04 9.164-9.16 9.164zm.05-17.364c-4.667 0-8.198 3.71-8.198 8.253 0 4.54 3.506 8.2 8.15 8.2 4.667 0 8.202-3.707 8.202-8.253 0-4.54-3.51-8.2-8.15-8.2zm2.02 9.138l2.577 3.608h-2.173l-2.32-3.31h-1.995v3.31h-1.82v-9.564h4.265c2.222 0 3.683 1.137 3.683 3.05.01 1.57-.9 2.527-2.21 2.906zm-1.54-4.315h-2.372v3.024h2.372c1.184 0 1.89-.58 1.89-1.514 0-.984-.71-1.51-1.89-1.51z"/></symbol><symbol id="shape-icon-spotify" viewBox="0 0 602.285 602.286"><path fill="#1ED760" d="M296.82 0C130.598 0-4.323 134.92-4.323 301.144c0 166.582 134.92 301.142 301.143 301.142 166.582 0 301.144-134.922 301.144-301.142C598.324 134.92 463.402 0 296.82 0zm138.16 434.624c-5.398 8.996-16.91 11.514-25.905 6.117-70.88-43.175-159.746-52.888-264.805-29.142-10.074 2.158-20.147-3.96-22.307-14.033s3.958-20.148 14.032-22.307c114.77-26.266 213.354-15.11 292.508 33.46 9.354 5.398 11.873 16.91 6.476 25.906zm37.056-82.032c-6.836 11.152-21.228 14.393-32.38 7.914-80.952-49.65-204.36-64.04-300.063-35.258-12.593 3.598-25.545-3.238-29.143-15.47-3.6-12.594 3.237-25.545 15.83-29.145 109.376-33.1 245.376-17.27 338.562 39.937 10.433 6.477 14.03 20.868 7.194 32.022zm3.24-85.63C378.13 209.397 218.025 204 125.2 232.062c-14.75 4.68-30.58-3.956-35.26-18.708-4.676-14.75 3.96-30.582 18.71-35.26 106.497-32.38 283.514-25.904 395.048 40.297 13.312 7.917 17.63 25.187 9.714 38.5-7.555 13.672-24.825 17.988-38.137 10.072z"/></symbol></svg>