<svg xmlns="http://www.w3.org/2000/svg" xmlns:xlink="http://www.w3.org/1999/xlink"><defs><path id="shape-icon-call-duration-a" d="M139.41 72.29h229.148v229.16h-229.15z"/><clipPath id="shape-icon-call-duration-b"><use xlink:href="#shape-icon-call-duration-a" overflow="visible"/></clipPath><path id="shape-icon-call-duration-c" d="M0 0h506.646v441.282H0z"/><clipPath id="shape-icon-call-duration-d"><use xlink:href="#shape-icon-call-duration-c" overflow="visible"/></clipPath><path id="shape-icon-time-count-a" d="M0 0h31.637v27.555H0z"/><clipPath id="shape-icon-time-count-b"><use xlink:href="#shape-icon-time-count-a" overflow="visible"/></clipPath></defs><symbol id="shape-icon-4g-plus" viewBox="0 0 200 145"><path d="M170.718 51.485l2.386-16.697c.114-1.135 1.25-2.043 2.272-2.043h8.747c1.02 0 1.702.908 1.59 2.043l-2.385 16.697h14.426c1.02 0 1.702 1.022 1.59 2.16l-1.14 7.95c-.11 1.136-1.133 2.158-2.155 2.158h-14.427l-2.27 16.583c-.228 1.137-1.252 2.046-2.273 2.046h-8.747c-1.02 0-1.816-.91-1.587-2.046l2.27-16.583H154.59c-1.02 0-1.702-1.022-1.59-2.158l1.136-7.95c.115-1.138 1.137-2.16 2.16-2.16M.7 97.65l1.555-11.738 53.75-61.958c.424-.567.99-.848 2.122-.848h8.204c1.275 0 2.265 1.13 1.982 2.686L59.965 86.05h10.043c1.415 0 2.264 1.132 2.12 2.547l-1.27 8.77c-.142 1.416-1.414 2.69-2.83 2.69H57.986L55.58 118.16c-.28 1.413-1.554 2.688-2.828 2.688H40.445c-1.272 0-2.262-1.274-2.12-2.688l2.545-17.823H2.68c-1.415 0-2.264-1.273-1.98-2.686m42.716-12.023l4.95-31.26-27.016 31.26h22.066z"/><path d="M127.436 20.42c12.73 0 22.206 4.95 29.42 13.437.85 1.132.707 2.83-.566 3.96l-7.495 7.356c-1.697 1.274-3.395 1.274-4.67 0-3.678-3.536-8.91-7.073-17.68-7.073-16.974 0-31.684 17.54-31.684 37.768 0 14.995 9.478 28.008 21.927 28.008 6.646 0 11.74-1.698 14.426-3.396l1.697-12.447h-9.053c-1.413 0-2.263-1.132-2.12-2.548l1.555-11.032c.28-1.555 1.413-2.688 2.83-2.688h25.036c1.273 0 2.12 1.273 1.98 2.688l-4.67 33.948c-.28 2.266-1.27 3.538-2.26 4.386-1.416 1.132-12.59 9.477-31.686 9.477-23.056 0-39.748-19.66-39.748-43.99 0-33.242 23.198-57.854 52.762-57.854"/></symbol><symbol id="shape-icon-4g" viewBox="0 0 200 145"><path d="M3.674 104.762l1.95-14.708L72.97 12.426c.53-.71 1.24-1.062 2.657-1.062h10.28c1.595 0 2.835 1.417 2.482 3.366l-10.46 75.5h12.586c1.77 0 2.834 1.417 2.656 3.19l-1.594 10.986c-.18 1.774-1.772 3.37-3.545 3.37H75.45l-3.013 22.685c-.354 1.77-1.95 3.37-3.544 3.37h-15.42c-1.594 0-2.834-1.6-2.657-3.37l3.19-22.332H6.156c-1.773 0-2.837-1.593-2.482-3.366m53.52-15.064L63.4 50.53 29.548 89.7h27.647zM162.47 7.997c15.946 0 27.82 6.204 36.86 16.836 1.062 1.42.886 3.546-.71 4.963l-9.394 9.215c-2.127 1.596-4.25 1.596-5.85 0-4.606-4.43-11.166-8.862-22.153-8.862-21.266 0-39.696 21.977-39.696 47.32 0 18.785 11.874 35.09 27.47 35.09 8.332 0 14.71-2.126 18.078-4.253l2.128-15.595h-11.346c-1.773 0-2.834-1.417-2.655-3.19l1.948-13.823c.354-1.95 1.77-3.368 3.542-3.368h31.372c1.596 0 2.657 1.593 2.48 3.367l-5.85 42.534c-.354 2.835-1.596 4.432-2.834 5.494-1.775 1.417-15.773 11.875-39.7 11.875-28.888 0-49.8-24.636-49.8-55.12 0-41.647 29.065-72.483 66.11-72.483"/></symbol><symbol id="shape-icon-accessories" viewBox="0 0 30 32"><title>icon-accessoires@1x</title><path d="M29.586 13.513c.094-.858.066-1.448-.04-2.334C28.685 4.094 21.393-.856 13.257.122 5.12 1.1-.777 7.638.083 14.72c.083.686.226 1.35.426 1.993l.215-.066 2.436 5.17c-.135.36-.25.737-.18.84.14.215 3.61 7.688 4.254 7.9.347.117 1.05-.202 1.63-.52l.346.662c.096.184 1.532.446 1.72.35l1.824-.85c.19-.096.727-.696.494-1.193 0 0-1.13-2.26-2.404-4.96-1.274-2.703-2.836-5.187-2.836-5.187-.322-.318-.965.036-1.153.13l-1.9.89c-.147.076-.338.84-.378 1.416l-.615-.134-2.264-4.81.582-.175c-.163-.54-.283-1.103-.353-1.68-.75-6.195 4.408-11.91 11.526-12.767C20.57.875 26.948 5.206 27.7 11.4c.083.69.05 1.864.05 1.864l.614.086-.497 4.254-.38.26c-.253-.518-.718-1.152-.885-1.168l-2.096-.108c-.212-.018-.942-.105-1.118.31 0 0-.504 2.888-.658 5.87-.156 2.98-.344 5.496-.344 5.496-.026.55.7.902.908.92l2.015.102c.21.017 1.44-.764 1.46-.973l.065-.74c.66.075 1.433.103 1.712-.133.513-.44.888-8.663.938-8.916.028-.14-.31-.528-.613-.843l.49-4.197.224.03" fill-rule="evenodd"/></symbol><symbol id="shape-icon-advisor" viewBox="0 0 32 30"><title>icon-advisor@1x</title><path d="M31.9 12.895c0-2.657-2.21-4.81-4.942-4.81h-.102v9.078c-1.41 4.776-5.294 8.53-10.212 9.876-.25-.35-.667-.58-1.137-.58h-5.083c-.768 0-1.39.606-1.39 1.355 0 .745.622 1.35 1.39 1.35h5.083c.534 0 .998-.292 1.23-.723 5.524-1.402 9.902-5.57 11.48-10.893 2.12-.545 3.683-2.422 3.683-4.655zm-10.613 5.453c-.678.397-1.346.745-2.003 1.04-.656.295-1.314.542-1.97.743-.656.2-1.34.348-2.054.45-.712.102-1.46.15-2.24.15-1.52 0-2.934-.195-4.24-.59-1.307-.394-2.638-.99-3.994-1.792-.76-.452-1.238-.808-1.432-1.07-.193-.263-.29-.62-.29-1.07 0-.338.093-.505.28-.505.062 0 .396.142 1 .424.605.282 1.327.577 2.163.883.836.307 1.82.572 2.95.798 1.13.225 2.32.34 3.563.34 1.252 0 2.445-.117 3.58-.344 1.132-.23 2.113-.496 2.944-.8.83-.302 1.55-.595 2.163-.877.61-.282.944-.424 1-.424.186 0 .28.167.28.505 0 .47-.093.834-.275 1.09-.184.255-.658.605-1.425 1.05zM7.684 8.732c.277-.303.666-.454 1.16-.454.423 0 .787.144 1.09.435.305.288.458.646.458 1.07 0 .424-.15.786-.452 1.084-.3.3-.666.45-1.095.45-.49 0-.875-.15-1.156-.45-.28-.298-.42-.65-.42-1.055 0-.416.137-.777.414-1.08m8.463-.01c.312-.295.674-.444 1.088-.444.492 0 .87.15 1.142.45.27.3.403.66.403 1.084 0 .412-.136.764-.408 1.062-.274.295-.652.444-1.137.444-.385 0-.743-.163-1.068-.485-.325-.323-.487-.673-.487-1.05 0-.41.155-.765.467-1.06M13.025.458C5.862.46.055 6.113.055 13.086c0 6.975 5.807 12.63 12.97 12.63s12.97-5.655 12.97-12.63C25.996 6.114 20.19.46 13.026.46" fill-rule="evenodd"/></symbol><symbol id="shape-icon-arrow-d" viewBox="0 0 64 64"><path d="M5.85 14.572l-4.032 3.934 30.22 30.978 30.085-31.11-4.05-3.916L32.02 41.395"/></symbol><symbol id="shape-icon-arrow-u" viewBox="0 0 64 64"><path d="M58.092 49.37l4.03-3.933-30.218-30.98-30.086 31.11 4.05 3.917L31.92 22.548"/></symbol><symbol id="shape-icon-battery" viewBox="0 0 32 36.5"><path d="M30 13.25h-2c0-1.654-1.346-3-3-3H3c-1.654 0-3 1.346-3 3v10c0 1.654 1.346 3 3 3h22c1.654 0 3-1.346 3-3h2c1.104 0 2-.896 2-2v-6c0-1.103-.896-2-2-2zm-4 10c0 .552-.448 1-1 1H3c-.552 0-1-.448-1-1v-10c0-.552.448-1 1-1h22c.552 0 1 .448 1 1v10zm4-2h-2v-6h2v6zm-16.553-6.105c-.246-.493-.897-.895-1.447-.895H5c-.55 0-1 .45-1 1v6c0 .55.45 1 1 1h11c.55 0 .8-.402.553-.895l-3.106-6.21z"/></symbol><symbol id="shape-icon-big-smartphone" viewBox="0 0 20.332 35"><path d="M17.968 0H2.364C1.064 0 0 1.063 0 2.364v30.27C0 33.937 1.064 35 2.364 35h15.604c1.3 0 2.364-1.063 2.364-2.364V2.364c0-1.3-1.064-2.364-2.364-2.364zM7.67 1.704h4.992c.158 0 .286.128.286.287 0 .16-.128.287-.286.287H7.67c-.158 0-.286-.128-.286-.286 0-.158.128-.286.286-.286zm2.496 32.114c-.653 0-1.182-.53-1.182-1.182 0-.653.53-1.182 1.182-1.182s1.182.53 1.182 1.182c0 .653-.53 1.182-1.182 1.182zm8.52-3.193H1.647V3.75h17.04v26.875z"/></symbol><symbol id="shape-icon-call-duration" viewBox="0 0 506.646 441.282"><path clip-path="url(#shape-icon-call-duration-b)" d="M366.83 261.27l-49.546-34.265c-2.29-2.298-6.017-2.298-8.307 0l-12.016 12.002c-12.39 12.398-51.335-18.5-63.985-31.132-12.628-12.628-43.523-51.578-31.137-63.972l12.014-12.02c2.29-2.288 2.29-6.02 0-8.304L179.58 74.02c-2.283-2.298-5.994-2.298-8.303 0L147.8 89.857c-10.232 10.25-27.632 46.46 64.552 138.64 92.17 92.187 128.41 74.798 138.635 64.552h.028l15.815-23.464c2.3-2.3 2.3-6.03 0-8.315"/><path d="M51.054 191.62h41.404v7.554H51.054v-7.554zm25.24 99.06l3.91 6.52 35.837-20.096-3.884-6.538-35.86 20.113zm173.792 61.585v40.255h3.91l-.032-40.255h-3.878zm-73.49-19.143l-6.748-3.753-20.707 34.828 6.734 3.784 20.723-34.86zm-96.39-239.59l-3.88 6.527 35.86 20.104 3.87-6.52-35.85-20.113zm335.277 98.088h41.43v7.554h-41.43v-7.554zm-23.535 85.484l35.847 20.096 3.907-6.52-35.907-20.114-3.847 6.538zM253.996 392.52h3.895v-40.255h-3.894v40.255zm98.072-24.538l6.74-3.784-20.675-34.83-6.756 3.754 20.69 34.86zm39.85-254.338l3.877 6.52 35.86-20.104-3.894-6.528-35.843 20.112z"/><g><path clip-path="url(#shape-icon-call-duration-d)" d="M10.43 124.442c-8.483 27.54-11.555 55.52-10.07 82.94v.354c2.354 43.28 16.468 84.944 40.31 120.883l28.807-27.935c-23.904-39.393-34.296-86.1-27.908-132.94 0-.132.03-.287.06-.437 1.47-10.612 3.62-21.246 6.86-31.772 6.56-21.347 16.826-41.67 30.456-60.39L83.78 68.5l31.723 27.08h.016l.21.163h-.016l.335.29.11-.704-.204.203.203-.204.086-.44-.352.338.352-.337L132.002.01 26.625 19.69l27.337 23.35-4.097 5.396c-17.813 23.285-31.09 48.88-39.434 76.006m59.18 176.465h.016c-.033-.064-.095-.143-.126-.222L40.67 328.62c.078.092.125.17.18.232l-.017.017c20.996 31.56 49.42 58.645 84.108 78.413l29.237-28.433c-35.945-18.28-64.807-45.555-84.566-77.943m122.383 93.052c-8.843-2.566-17.585-5.693-25.96-9.337-3.957-1.705-7.734-3.708-11.565-5.663h-.016c-.077-.015-.17-.077-.273-.11l-29.237 28.434c.077.03.14.08.234.126 7.928 4.5 16.07 8.74 24.6 12.416 9.963 4.334 20.307 8.07 30.81 11.105 24.842 7.242 49.95 10.538 74.597 10.322l45.216-43.854c-34.737 7.68-71.912 7.164-108.407-3.44M496.09 265.626c6.91-22.474 10.322-45.237 10.556-67.756v-.69c.312-44.744-12.01-88.353-34.797-126.278-.03-.08-.096-.156-.174-.234-10.43-17.375-22.988-33.617-37.674-48.16-7.85-7.798-16.437-15.022-25.413-21.81L381.015 28.77c9.118 6.645 17.688 13.855 25.54 21.715 14.435 14.48 26.414 30.88 35.907 48.575.03.078.093.14.126.257h.015c22.753 42.484 30.56 92.403 19.173 141.41-.03.17-.11.328-.155.5-1.018 4.44-2.255 8.915-3.582 13.34-22.802 74.02-84.655 126.443-157.143 142.677-.188.015-.328.078-.498.155l-45.2 43.852c.11 0 .22.03.344.03 108.175-.984 207.938-69.813 240.546-175.657"/></g></symbol><symbol id="shape-icon-camera" viewBox="0 0 32 23"><title>icon-camera@1x</title><g fill-rule="evenodd"><path d="M16.116 21.004c-4.64.002-8.423-3.806-8.415-8.466.01-4.666 3.806-8.487 8.42-8.476 4.595.01 8.35 3.797 8.386 8.45.036 4.648-3.762 8.492-8.39 8.492M31.568 4.43c0-1.414-.838-2.25-2.24-2.253-1.673-.003-3.345-.005-5.017.004-.273.002-.427-.038-.518-.364-.256-.9-.983-1.447-1.93-1.45-3.838-.014-7.675-.014-11.513 0-.93.003-1.675.54-1.915 1.396-.102.365-.267.423-.587.42-1.62-.013-3.24-.005-4.86-.005-1.548 0-2.346.8-2.346 2.356v15.81c0 1.593.798 2.405 2.365 2.405h13.096c4.4 0 8.8.002 13.202-.002 1.426 0 2.262-.847 2.263-2.292.003-5.34.002-10.682 0-16.024"/><path d="M16.187 7.116c-3.065-.01-5.458 2.353-5.467 5.398-.01 3.025 2.374 5.454 5.358 5.46 2.997.005 5.406-2.4 5.414-5.41.007-3.006-2.363-5.44-5.305-5.448zm3.7 5.836c-.06.05-.14.086-.243.104-.115.022-.208.016-.284-.01 0-.002 0-.002-.002-.002-.227-.08-.304-.34-.357-.62-.277-1.46-1.34-2.347-2.743-2.33-.433.044-.816-.01-.833-.503-.017-.467.377-.517.73-.548 1.8-.16 3.69 1.42 3.88 3.237.03.265.03.527-.148.672z"/></g></symbol><symbol id="shape-icon-cancel" viewBox="0 0 512 512"><path d="M479.8 131.01L376.026 27.164 256 147.19 136.012 27.164 32.202 131.01l120.026 119.952L32.2 370.987l103.812 103.848L256 354.808l120.026 120.027L479.8 370.987 359.81 250.962 479.8 131.01z"/></symbol><symbol id="shape-icon-cart-tlv" viewBox="0 0 435.934 435.933"><path d="M149.723 383.1c0 18.188 14.825 32.99 33.056 32.99 18.274 0 33.132-14.803 33.132-32.99 0-18.32-14.858-33.165-33.133-33.165-18.232 0-33.057 14.846-33.057 33.165zM330.22 383.1c0 18.188 14.802 32.99 33.067 32.99 18.297 0 33.12-14.803 33.12-32.99 0-18.32-14.823-33.165-33.12-33.165-18.266 0-33.068 14.846-33.068 33.165zM5.473 29.986c0 6.066 3.712 11.73 9.702 14.043 0 0 60.317 22.79 71.756 27.097 3.994 12.795 57.106 183.156 58.277 186.867l20.642 71.213c1.865 6.403 7.682 10.81 14.368 10.81h191.066c8.247 0 14.987-6.706 14.987-15.04 0-8.293-6.74-14.978-14.986-14.978h-179.8c-2.54-8.9-7.794-27.067-11.918-41.218h189.852c6.652 0 12.567-4.45 14.38-10.854L426.87 108.09c2.29-8.01-2.28-16.29-10.267-18.634-4.97-1.4-9.973.12-13.64 3.245h-277.96l-11.678-37.56c-1.347-4.416-4.69-7.933-9.01-9.57L25.726 15.9C18.04 13 9.403 16.897 6.45 24.602c-.65 1.78-.977 3.58-.977 5.383zm156.99 182.624H365.64c-3.525 12.22-6.262 21.965-7.53 26.197H170.623l-8.16-26.197zm-14.932-47.783h231.827c-2.287 7.932-4.557 15.898-6.803 23.625H154.91l-7.38-23.625zm-14.933-47.914H393.14c-1.92 6.64-4.23 14.715-6.782 23.69h-246.38l-7.38-23.69z"/></symbol><symbol id="shape-icon-check" viewBox="0 0 512 512"><path d="M432 64L192 304 80 192 0 272l192 192 320-320-80-80z"/></symbol><symbol id="shape-icon-close" viewBox="0 0 16 16"><path d="M9.207 8.5l2.768-2.768c.195-.195.195-.512 0-.707-.195-.195-.512-.195-.707 0L8.5 7.793 5.732 5.025c-.195-.195-.512-.195-.707 0-.195.195-.195.512 0 .707L7.793 8.5l-2.768 2.768c-.195.195-.195.512 0 .707.195.195.512.195.707 0L8.5 9.207l2.768 2.768c.195.195.512.195.707 0s.195-.512 0-.707L9.207 8.5z"/></symbol><symbol id="shape-icon-email" viewBox="0 0 26 18"><title>email icon</title><path d="M18.12 9.002l5.807-4.398.06 8.797-5.866-4.398zm5.73 6.8c-.016.02-.035.036-.054.054-.013.007-.023.018-.036.027-.02.015-.042.03-.064.042-.013.006-.026.015-.038.02l-.08.03c-.017 0-.027.005-.04.01-.04.007-.08.015-.126.015L2.69 15.992c-.044 0-.09-.005-.127-.015-.014-.002-.028-.007-.04-.014-.028-.006-.052-.014-.077-.024-.017-.007-.03-.018-.042-.027-.02-.01-.04-.022-.064-.036-.012-.008-.026-.02-.036-.03l-.055-.05c-.004-.006-.01-.01-.013-.016l7.315-5.53s1.463 1.44 3.47 1.44c2.002.002 3.443-1.44 3.443-1.44l7.394 5.54-.01.012zM2.006 4.6l5.876 4.398-5.81 4.39-.066-8.79zm.145-2.41L2.2 2.15c.017-.013.027-.026.044-.035.02-.014.037-.024.055-.035.016-.01.033-.016.05-.026.02-.01.04-.014.064-.022.017-.003.036-.013.052-.016.03-.005.055-.007.084-.007.013-.003.027-.005.04-.005l20.728.005c.01 0 .025.004.04.005l.08.007c.018.004.037.01.053.015.022.007.045.012.066.022.018.008.03.02.048.025.02.012.04.023.058.037.015.01.027.022.04.03.02.017.052.05.052.05l.013.016-8.274 6.246S14.16 9.55 13.003 9.55c-1.16-.004-2.506-1.094-2.506-1.094L2.14 2.21c.005-.003.007-.01.01-.02zM23.3.008L2.572 0C1.91 0 1.307.25.85.664c-.218.2-.406.433-.545.694-.197.37-.308.788-.305 1.24L.094 15.39c.01 1.436 1.177 2.6 2.608 2.6L23.43 18c.625 0 1.196-.227 1.642-.596.572-.475.934-1.196.928-2.003l-.093-12.795C25.897 1.168 24.73.007 23.3.007z" fill-rule="evenodd"/></symbol><symbol id="shape-icon-fanion-shadow-reversed" viewBox="0 0 5 12"><path d="M4.952.296S.05.934.05 5.626c0 4.69 4.902 6.078 4.902 6.078V.296z"/></symbol><symbol id="shape-icon-fanion-txt-reversed" viewBox="0 0 166 46"><path d="M.977 45.454V3.74S2.033.547 4.42.547h154.535s7.845-.082 6.357 5.197c-1.823 6.48-10.113 28.115-10.113 28.115s-2.652 6.296-10.1 6.296H6.96s-5.528-.99-5.983 5.3z"/></symbol><symbol id="shape-icon-gender-f" viewBox="125 10 260 200"><path d="M160 224h96c-35.375 0-64-28.656-64-64v-32c64 0 64-64 64-64s0 64 64 64v32c0 35.344-28.688 64-64 64h96c17.688 0 32-14.328 32-32-17.688 0-32-14.328-32-32V96c0-53.016-43-96-96-96-53.063 0-96 42.984-96 96v64c0 17.672-14.344 32-32 32 0 17.672 14.313 32 32 32zM352 288h-64l32 32-64 96-64-96 32-32h-64c-35.375 0-64 28.656-64 64v128c0 17.688 14.313 32 32 32h256c17.688 0 32-14.313 32-32V352c0-35.344-28.687-64-64-64z"/></symbol><symbol id="shape-icon-gender-m" viewBox="0 0 512 512"><path d="M509.265 95.034c-.08-3.92-2.356-7.48-5.93-9.218-3.558-1.724-7.793-1.345-10.967.992-29.483 21.54-61.07 13.33-77.16-4.888-18.705-21.187-42.922-66.088-100.56-62.82-34.266 1.95-50.34 16.938-58.473 34.662-8.122-17.734-24.187-32.723-58.464-34.66-57.636-3.27-81.863 41.63-100.568 62.818-16.095 18.227-47.68 26.44-77.15 4.888-3.183-2.327-7.418-2.706-10.972-.972-3.547 1.74-5.834 5.287-5.91 9.198-.418 20.604 5.317 51.727 38.608 72.37 53.546 33.217 135.225 41.394 187.934-5.122 0 0 16.084-16.932 26.543-37.8 10.46 20.868 26.554 37.8 26.554 37.8 52.698 46.515 134.357 38.338 187.902 5.123 33.296-20.644 39.032-51.767 38.613-72.37z"/></symbol><symbol id="shape-icon-hang-up" viewBox="0 0 435.933 435.933"><path d="M286.482 279.088c.944 1.25.94 2.973-.023 4.225l-65.724 85.483c-.658.867-1.682 1.368-2.762 1.368s-2.102-.5-2.764-1.368l-65.727-85.483c-.476-.62-.722-1.368-.722-2.12 0-.74.237-1.485.706-2.104.94-1.254 2.607-1.725 4.07-1.138l43.515 17.176V194.393c0-1.926 1.557-3.48 3.487-3.48h34.877c1.92 0 3.485 1.554 3.485 3.48v100.74l43.515-17.177c1.458-.586 3.125-.115 4.067 1.132zM196.93 65.928C-28.392 70.25-1.475 181.81 3.69 198.192c5.532 27.833 26.852 41.76 48.488 33.864l41.166-12.88c22.18-8.097 36.25-38.273 31.408-67.42l-.917-5.517c74.85-21.183 139.407-15.746 189.768-1.727l-.396 2.353c-4.82 29.15 9.23 59.333 31.423 67.423l41.164 17.16c18.604 6.79 36.965-6.288 45.27-27.172.108.09.174.15.174.15s1.14-2.812 2.288-7.625c.093-.375.163-.786.262-1.155.19-.88.383-1.792.575-2.785.115-.56.246-1.092.353-1.658l-.04-.035c6.016-35.513-.205-129.777-237.746-125.243z"/></symbol><symbol id="shape-icon-hd" viewBox="0 0 256 205"><path fill-rule="evenodd" clip-rule="evenodd" d="M225.28 205H30.72C13.754 205 0 191.232 0 174.25V30.75C0 13.767 13.754 0 30.72 0h194.56C242.246 0 256 13.767 256 30.75v143.5c0 16.982-13.754 30.75-30.72 30.75zm-5.12-153.75c0-8.49-6.877-15.375-15.36-15.375H51.2c-8.483 0-15.36 6.884-15.36 15.375v102.5c0 8.49 6.877 15.375 15.36 15.375h153.6c8.483 0 15.36-6.884 15.36-15.375V51.25zm-46.08 76.36v.515h-40.96v-51.25h40.96v.515c11.685 2.375 20.48 12.713 20.48 25.11s-8.795 22.735-20.48 25.11zm-15.36-40.485h-5.12v30.75h5.12c8.483 0 15.36-6.884 15.36-15.375s-6.877-15.375-15.36-15.375zm-56.32 20.5H81.92v20.5H61.44v-51.25h20.48v20.5h20.48v-20.5h20.48v51.25H102.4v-20.5z"/></symbol><symbol id="shape-icon-headset" viewBox="0 0 575.969 575.969"><path d="M563.472 363.566c-7.456-11.37-17.657-20.234-29.382-26.146 4.01-53.108-12.074-97.496-36.568-99.644l-.896-.078C495.473 192.8 481.03 148.21 454.11 110.04c-43.362-61.478-113.157-98.18-186.703-98.18-73.548 0-143.343 36.702-186.707 98.183-26.937 38.2-41.38 82.816-42.524 127.745l-.887.075C12.383 240.05-3.94 285.838.825 340.123c4.774 54.303 28.837 96.54 53.73 94.355h.01l81.258-7.132c6.854-.604 13.183-3.903 17.6-9.172 4.43-5.28 6.568-12.086 5.966-18.94l-12.724-144.933c-1.26-14.27-13.84-24.828-28.11-23.567l-21.496 1.89c1.938-31.08 12.427-61.644 31.567-88.782 32.875-46.61 83.454-73.335 138.78-73.335 55.32 0 105.903 26.728 138.778 73.336 19.128 27.11 29.6 57.646 31.556 88.688l-21.484-1.88c-14.27-1.262-26.85 9.295-28.11 23.567L375.42 399.15c-.6 6.853 1.54 13.66 5.968 18.938 4.42 5.27 10.75 8.572 17.603 9.173l81.26 7.133h.01c18.31 1.604 36.102-20.925 46.172-54.503 1.536 1.61 3.094 3.205 4.34 5.116 6.876 10.47 8 23.595 3.01 35.088l-25.804 59.36c-7.837 18.03-25.6 29.675-45.26 29.675h-34.73c-2.834-9.126-11.025-15.885-21.084-15.885H342.55c-12.37 0-22.4 10.03-22.4 22.4v26.06c0 12.37 10.03 22.403 22.4 22.403h64.354c10.06 0 18.25-6.758 21.085-15.883h34.727c35.238 0 67.083-20.886 81.114-53.197l25.81-59.362c10.25-23.62 7.95-50.576-6.168-72.1z"/></symbol><symbol id="shape-icon-help" viewBox="0 0 91.999 92"><path d="M45.385.004C19.982.344-.335 21.214.005 46.62c.34 25.392 21.208 45.714 46.61 45.376 25.398-.342 45.718-21.213 45.38-46.615-.34-25.394-21.21-45.715-46.61-45.376zM45.25 74l-.255-.004c-3.912-.116-6.67-2.998-6.56-6.852.11-3.788 2.935-6.538 6.718-6.538l.227.004c4.02.12 6.748 2.972 6.635 6.937-.112 3.8-2.893 6.453-6.766 6.453zm16.454-32.66c-.92 1.308-2.943 2.93-5.492 4.917l-2.807 1.938c-1.54 1.198-2.47 2.325-2.82 3.434-.275.872-.41 1.103-.434 2.88l-.003.45H39.43l.03-.907c.13-3.728.223-5.92 1.768-7.733 2.424-2.846 7.77-6.29 7.998-6.435.766-.577 1.412-1.234 1.893-1.936 1.124-1.552 1.622-2.773 1.622-3.973 0-1.665-.494-3.205-1.47-4.576-.94-1.322-2.724-1.992-5.304-1.992-2.56 0-4.31.812-5.36 2.478-1.077 1.713-1.622 3.512-1.622 5.35v.457h-11.05l.02-.477c.284-6.77 2.7-11.643 7.177-14.487C37.946 18.917 41.446 18 45.53 18c5.346 0 9.86 1.3 13.412 3.86 3.6 2.597 5.426 6.485 5.426 11.557 0 2.837-.896 5.502-2.664 7.924z"/></symbol><symbol id="shape-icon-logo-bouygues-mini" viewBox="0 0 256 220"><path fill="#EB5B00" d="M150.546 211.933c18.076 12.482 53.843-7.914 79.88-45.627 26.042-37.713 32.496-78.36 14.42-90.84-18.08-12.484-52.946 6.87-78.987 44.585-26.038 37.71-33.386 79.398-15.314 91.883z"/><path fill="#0053A5" d="M105.455 211.933c-18.077 12.482-53.843-7.914-79.882-45.627-26.04-37.713-32.494-78.36-14.42-90.842 18.08-12.483 52.946 6.87 78.988 44.585 26.04 37.71 33.388 79.398 15.315 91.883z"/><ellipse fill="#009BCD" cx="127.985" cy="44.119" rx="83.064" ry="39.721"/></symbol><symbol id="shape-icon-logo-bouygues-white" viewBox="0 0 865 270"><g fill="#FFF"><path d="M334.5 461.44c40.105 27.696 119.458-17.556 177.228-101.228 57.775-83.67 72.093-173.85 31.99-201.54-40.113-27.697-117.467 15.244-175.242 98.92-57.766 83.663-74.072 176.15-33.976 203.848zM234.462 461.44c-40.105 27.696-119.458-17.556-177.228-101.228-57.774-83.67-72.093-173.85-31.99-201.542 40.113-27.696 117.466 15.244 175.242 98.92 57.768 83.665 74.073 176.153 33.976 203.85z"/><ellipse cx="284.449" cy="89.126" rx="184.287" ry="88.126"/></g></symbol><symbol id="shape-icon-long-arrow-d" viewBox="0 0 612 792"><path d="M506.13 501.88l-15.894-15.906-172.985 172.96V90.003H294.75v568.958L121.793 485.974l-15.924 15.905 200.126 200.125"/></symbol><symbol id="shape-icon-long-arrow-u" viewBox="0 0 612 792"><path d="M105.87 290.13l15.893 15.904 172.986-172.96v568.93h22.5V133.045l172.957 172.988 15.924-15.905L306.006 90.002"/></symbol><symbol id="shape-icon-patrimonio" viewBox="0 0 36 32"><g fill-rule="evenodd"><path d="M25.07 14.6c-.452-.886-.806-1.472-1.064-1.757-.257-.285-.482-.45-.673-.49-.192-.043-.374-.02-.548.07-.173.09-.3.227-.378.41-.08.182-.083.436-.01.764.09.425.362 1.08.814 1.967.453.886.807 1.472 1.065 1.757.257.287.48.45.672.49.19.04.372.015.546-.076.173-.09.3-.225.38-.407.078-.183.082-.437.01-.765-.09-.422-.36-1.076-.813-1.962"/><path d="M29.406 12.713c-.58.3-1.158.348-1.736.14-.392-.14-.733-.392-1.02-.756l-.442.228-.142-.515.292-.15c-.027-.048-.054-.098-.08-.152-.048-.093-.088-.175-.12-.247l-.39.203-.142-.515.355-.183c-.12-.442-.123-.862-.012-1.258.17-.6.56-1.057 1.17-1.374.334-.173.655-.263.963-.268l.25.923c-.256-.082-.545-.04-.868.128-.324.168-.527.42-.608.76-.045.19-.04.397.012.62l1.637-.85.142.515-1.6.832c.02.046.05.106.086.18.037.07.076.14.118.215l1.516-.786.142.516-1.358.704c.16.188.32.316.487.385.318.134.637.117.954-.047.38-.198.624-.473.73-.827l.468.92c-.192.264-.46.485-.802.663zm-2 4.57c-.142.726-.576 1.275-1.302 1.65-.728.38-1.46.402-2.193.068-.733-.333-1.47-1.224-2.208-2.673-.725-1.42-1-2.572-.83-3.45.143-.726.577-1.277 1.302-1.653.725-.376 1.425-.41 2.1-.1.8.367 1.568 1.266 2.297 2.697.73 1.43 1.008 2.584.836 3.463zm-12.98 7.546l-2.78-5.456c-.273.766-.704 1.453-1.294 2.06l-.67-1.315c.31-.318.6-.764.862-1.337.263-.573.36-1.13.288-1.677l1.164-.603 3.865 7.582-1.434.744zm-6.498.823l-.738-1.448 2.82-1.462.737 1.447-2.82 1.463zm5.53-17.275c.226.6.394 1.23.48 1.9.07.53.157.94.677.893.015 0 .41-.036.423-.04.54-.07.916-.566.846-1.11-.096-.735-.28-1.43-.515-2.102.63.142 1.196.546 1.51 1.174.56 1.108.115 2.466-.987 3.028-1.1.56-2.443.117-3-.993-.48-.956-.22-2.093.565-2.75zM27.11.918c-.502-1-1.494-.496-1.494-.496L14.553 6.134C13.46 4.288 11.758 2.767 9.49 1.646 6.766.31 4.204.016 4.1.006 3.56-.053 3.076.34 3.016.88c-.057.543.33 1.03.87 1.09.022.005 2.373.28 4.79 1.48 1.862.927 3.235 2.13 4.127 3.586L.988 13.12c-.993.505-.49 1.507-.49 1.507l8.114 16.017c.5 1 1.482.478 1.482.478L34.72 18.426c.99-.506.49-1.505.49-1.505L27.11.92zm-4.43 19.51l-4.942 2.74-.577-1.04.78-2.778c.23-.83.365-1.393.41-1.69.047-.298.056-.555.03-.77-.03-.218-.095-.42-.2-.612-.158-.283-.353-.45-.586-.503-.233-.052-.48-.006-.74.14-.275.15-.507.36-.695.63-.19.27-.36.597-.51.984l-1.347-.513c.184-.49.357-.86.518-1.108.162-.25.36-.483.593-.7.234-.216.52-.417.854-.602.442-.245.877-.38 1.305-.407.427-.026.815.054 1.163.24.348.187.625.467.833.84.18.327.292.664.336 1.013.044.35.028.74-.046 1.172-.074.433-.26 1.095-.56 1.985l-.433 1.36.037.068 3.08-1.708.697 1.258z"/></g></symbol><symbol id="shape-icon-phone-insurance" viewBox="0 0 19 32"><title>icon-screen-protection@1x</title><path d="M16.726 0H1.548C1.035.104.19.428 0 1.462v28.61c.1.527.448 1.47 1.674 1.593h14.74c.45-.053 1.58-.306 1.772-1.562V1.626C18.106 1.15 17.82.22 16.726 0zm-5.864 1.09c0 .15-.12.268-.275.268h-2.47L8.12.82h2.467c.155 0 .275.12.275.27zm-8.12.97h3.576L1.264 7.802V3.52c0-1.46 1.478-1.46 1.478-1.46zm6.346 28.715c-.75 0-1.363-.68-1.39-1.42.027-.733.64-1.32 1.39-1.32.765 0 1.384.612 1.384 1.37 0 .757-.62 1.37-1.384 1.37zm7.902-4.97c0 1.46-1.478 1.46-1.478 1.46H2.742c-1.478 0-1.478-1.46-1.478-1.46V9.007l3.856.037c1.613.015 2.933-1.262 2.948-2.855l.042-4.13h7.402c1.478 0 1.478 1.365 1.478 1.365v22.38z" fill-rule="evenodd"/></symbol><symbol id="shape-icon-power" viewBox="0 0 894.523 894.524"><path d="M552.37 259.144v81.492c42.57 31.953 70.07 82.823 70.07 140.144 0 96.77-78.41 175.178-175.18 175.178-96.766 0-175.18-78.408-175.18-175.178 0-57.32 27.504-108.19 70.073-140.144v-81.492C259.295 298.49 202.01 382.96 202.01 480.78c0 135.45 109.804 245.252 245.252 245.252 135.446 0 245.252-109.802 245.252-245.252 0-97.82-57.285-182.29-140.144-221.636z"/><path d="M482.297 445.85V235.425c0-19.305-15.553-34.93-35.035-34.93-19.374 0-35.037 15.87-35.037 34.93V445.85c0 19.306 15.558 34.93 35.037 34.93 19.376 0 35.035-15.87 35.035-34.93z"/></symbol><symbol id="shape-icon-search" viewBox="0 0 25 25"><title>icon-search@1x</title><path d="M14.217 14.217c-2.86 2.86-7.517 2.86-10.378 0C.976 11.357.976 6.7 3.84 3.84 6.7.976 11.355.976 14.216 3.84c2.862 2.86 2.862 7.516 0 10.377M15.414 2.64c-3.52-3.52-9.25-3.52-12.773 0-3.52 3.523-3.52 9.253 0 12.774 3.062 3.06 7.787 3.457 11.285 1.2l6.77 7.61c.974.972 2.553.972 3.528 0 .975-.976.975-2.556 0-3.53l-7.61-6.77c2.26-3.496 1.86-8.223-1.2-11.283" fill-rule="evenodd"/></symbol><symbol id="shape-icon-shopping-cart" viewBox="0 0 31 32"><title>icon-shopping-cart@1x</title><path d="M28.147 11.188c-.073-.026-.148-.046-.23-.046H23.02l.495-3.255 4.856-.01.774-.004-.997 3.315zm-1.552 5.15h-4.362l.586-3.855h4.935l-1.16 3.856zm-1.198 3.976h-.403l-3.362-.012.397-2.62h4.16l-.62 2.06-.173.572zM10.71 20.27l-.29-2.59h4.766l.1 2.603-4.575-.014zM9.384 8.44l-.058-.52.585-.002h.124l4.78-.01.123 3.234h-5.24l-.01.002-.29-2.596-.013-.108zm.885 7.9l-.433-3.857h5.15l.147 3.856H10.27zm9.992 3.958l-3.623-.01-.1-2.607h4.122l-.4 2.618zm.788-5.177l-.184 1.22H16.49l-.148-3.857h5.107l-.4 2.638zm-1.905-7.224l3.002-.005-.493 3.252h-5.362l-.014-.405-.11-2.832 2.977-.01zM29.73 6.53l-9.226.024-9.114.02h-.12l-3.457.008.345 3.072.01.107 1.33 11.845 4.983.017 9.164.028 2.76.01 4.56-15.13h-1.235zM9.546 26.507c-.37-.187-.78-.302-1.222-.302-1.488 0-2.697 1.196-2.697 2.673 0 .435.116.842.303 1.206.447.866 1.346 1.465 2.395 1.465 1.49 0 2.697-1.197 2.697-2.67 0-1.04-.606-1.928-1.475-2.372zm16.58-3.288c0-.37-.3-.67-.676-.67H9.02c-.005 0-.01.003-.016.003l-.467-4.155-.914-8.096-.01-.11-.396-3.52-.19-.17c-.153-.136-3.72-3.33-4.966-4.228-.25-.18-.23-.44-.21-.54.03-.164.122-.274.193-.293.105-.035.356.087.7.476L5.81 4.703c.276.25.704.233.956-.04.254-.274.235-.698-.04-.95L3.712.983C2.87.01 2.082.04 1.692.144c-.6.16-1.05.675-1.175 1.344-.133.724.15 1.44.748 1.87 1.03.743 3.897 3.285 4.664 3.968l.457 4.08.013.11 1.496 13.3c.04.34.332.594.672.594.024 0 .05-.002.075-.005.372-.04.64-.372.6-.74l-.088-.775H25.45c.376 0 .678-.302.678-.672zm-5.95 5.034h-7.644c-.373 0-.675.3-.675.67 0 .37.302.67.675.67h7.644c.373 0 .676-.3.676-.67 0-.37-.303-.67-.676-.67zm4.388-2.047c-1.487 0-2.695 1.196-2.695 2.672 0 1.474 1.208 2.672 2.695 2.672 1.49 0 2.697-1.2 2.697-2.673 0-1.476-1.207-2.672-2.697-2.672z" fill-rule="evenodd"/></symbol><symbol id="shape-icon-short-fanion-txt-reversed" viewBox="0 2 339.781 153.817"><title>fanion</title><path d="M17.454 2C7.854 2 0 9.853 0 19.454v136.363c0-9.6 7.854-27.454 17.454-27.454h245.3c7.562 0 17.973-14.654 20.592-21.056l50.326-74.473c3.78-3.2 6.11-7.854 6.11-13.09 0-9.602-7.855-17.455-17.456-17.455H37.818s-20.364 0-20.364-.29z"/></symbol><symbol id="shape-icon-sim" viewBox="0 0 24 33"><title>icon-sim@1x</title><g fill-rule="evenodd"><path d="M13.635 1.572l-11.774.03c-.222 0-.433.083-.593.237-.16.153-.246.354-.245.567l.07 28.413c.004.443.38.803.843.802v.438l.002-.437 19.42-.046c.463 0 .84-.363.838-.805l-.052-20.18c0-.572-.352-1.45-.752-1.878L15.455 2.35c-.387-.414-1.237-.776-1.82-.778M1.937 32.5c-.97 0-1.757-.753-1.758-1.678L.103 2.41c0-.447.182-.87.514-1.19C.95.9 1.39.725 1.86.724L13.63.695c.848 0 1.948.47 2.508 1.07l5.937 6.365c.55.59.984 1.67.986 2.462l.052 20.177c.003.926-.785 1.683-1.754 1.686L1.936 32.5"/><path d="M13.67 18.555l-.02-4.272-4.366.02.02 4.27 4.367-.018"/><path d="M18.685 19.057l-4.74.023c-.01 0-.017-.004-.026-.004l-4.886.023c-.15 0-.274-.12-.273-.262l-.023-4.533-1.228.005c-1.73.008-3.13 1.36-3.122 3.016l.027 5.874 14.29-.063-.02-4.08"/><path d="M18.682 18.535l-.006-1.272c-.008-1.656-1.423-2.995-3.15-2.988l-1.232.006.02 4.273 4.368-.018M9.43 23.7l.02 4.27 4.215-.018-.02-4.272-4.215.02M18.706 23.658l-4.416.02.022 4.27 1.28-.006c1.726-.006 3.13-1.358 3.12-3.01l-.006-1.274M4.418 23.72l.006 1.27c.01 1.657 1.42 2.996 3.15 2.99l1.18-.007-.02-4.272-4.316.02"/></g></symbol><symbol id="shape-icon-time-count" viewBox="0 0 31.637 27.555"><path d="M3.188 11.965h2.585v.472H3.188v-.472zm1.576 6.185l.244.407 2.238-1.255-.243-.408-2.24 1.256zm10.852 3.846v2.514h.244l-.002-2.514h-.242zm-4.59-1.195l-.42-.233-1.293 2.175.42.236 1.294-2.177zM5.01 5.84l-.242.408 2.24 1.255.24-.407L5.01 5.84zm20.936 6.125h2.587v.472h-2.586v-.472zm-1.47 5.338l2.24 1.255.243-.407-2.242-1.255-.24.408zM15.86 24.51h.243v-2.514h-.243v2.514zm6.124-1.532l.42-.236-1.29-2.175-.422.234 1.292 2.178zm2.49-15.882l.24.407 2.24-1.255-.243-.408-2.237 1.256z"/><path clip-path="url(#shape-icon-time-count-b)" d="M.65 7.77c-.53 1.72-.72 3.467-.628 5.18v.02c.147 2.704 1.028 5.305 2.517 7.55l1.798-1.745c-1.493-2.46-2.142-5.376-1.743-8.3 0-.01.002-.02.004-.028.09-.663.226-1.327.428-1.984.41-1.333 1.05-2.602 1.902-3.77l.302-.416 1.98 1.69h.002l.013.01.02.02.007-.045-.013.013.014-.013.005-.027-.023.02.022-.02L8.242 0l-6.58 1.23L3.37 2.686l-.256.337C2 4.478 1.172 6.076.65 7.77m3.697 11.02c0-.005-.005-.01-.007-.015l-1.8 1.744c.005.005.008.01.01.014 1.31 1.972 3.086 3.663 5.252 4.897l1.826-1.774c-2.245-1.14-4.047-2.844-5.28-4.867m7.64 5.81c-.55-.16-1.097-.355-1.62-.583-.247-.106-.483-.23-.722-.354-.006 0-.012-.005-.018-.007L7.802 25.43l.015.01c.495.28 1.003.545 1.536.774.622.27 1.268.504 1.924.693 1.55.452 3.12.658 4.658.645l2.823-2.738c-2.17.48-4.49.448-6.77-.214m18.99-8.014c.432-1.403.645-2.825.66-4.23v-.044c.02-2.794-.75-5.517-2.174-7.885-.002-.005-.006-.01-.01-.015-.652-1.085-1.437-2.1-2.354-3.007-.49-.487-1.026-.938-1.587-1.362L23.79 1.796c.57.415 1.105.865 1.596 1.356.9.904 1.65 1.928 2.242 3.033l.008.016c1.422 2.654 1.91 5.77 1.198 8.83-.002.012-.007.022-.01.032-.063.277-.14.557-.224.833-1.424 4.622-5.286 7.896-9.812 8.91-.012 0-.02.004-.03.01l-2.823 2.737.02.002c6.757-.06 12.986-4.36 15.023-10.968"/><path d="M15.194 17.037c0-.928.644-1.597 1.518-1.597.927 0 1.52.67 1.52 1.597 0 .9-.593 1.595-1.52 1.595-.9 0-1.518-.694-1.518-1.595zm.644-3.682L15.478 1h2.47l-.36 12.355h-1.75z"/></symbol><symbol id="shape-icon-user-tlv" viewBox="0 0 48 48"><path d="M45 48H3c0-5.427 6.348-9.96 15-11.442v-2.22C14.43 32.256 12 28.43 12 24v-.303c-1.74-.624-3-2.244-3-4.197 0-1.953 1.26-3.573 3-4.197V15c0-6.627 5.373-12 12-12s12 5.373 12 12v.303c1.74.624 3 2.244 3 4.197 0 1.953-1.26 3.573-3 4.197V24c0 4.43-2.43 8.256-6 10.335v2.22C38.655 38.04 45 42.573 45 48z"/></symbol></svg>